G04 #@! TF.GenerationSoftware,KiCad,Pcbnew,(5.1.5)-3*
G04 #@! TF.CreationDate,2020-12-03T20:27:54+01:00*
G04 #@! TF.ProjectId,MCU_board,4d43555f-626f-4617-9264-2e6b69636164,rev?*
G04 #@! TF.SameCoordinates,Original*
G04 #@! TF.FileFunction,Soldermask,Top*
G04 #@! TF.FilePolarity,Negative*
%FSLAX46Y46*%
G04 Gerber Fmt 4.6, Leading zero omitted, Abs format (unit mm)*
G04 Created by KiCad (PCBNEW (5.1.5)-3) date 2020-12-03 20:27:54*
%MOMM*%
%LPD*%
G04 APERTURE LIST*
%ADD10C,0.100000*%
G04 APERTURE END LIST*
D10*
G36*
X57901968Y-112858565D02*
G01*
X57940638Y-112870296D01*
X57976277Y-112889346D01*
X58007517Y-112914983D01*
X58033154Y-112946223D01*
X58052204Y-112981862D01*
X58063935Y-113020532D01*
X58068500Y-113066888D01*
X58068500Y-114143112D01*
X58063935Y-114189468D01*
X58052204Y-114228138D01*
X58033154Y-114263777D01*
X58007517Y-114295017D01*
X57976277Y-114320654D01*
X57940638Y-114339704D01*
X57901968Y-114351435D01*
X57855612Y-114356000D01*
X57204388Y-114356000D01*
X57158032Y-114351435D01*
X57119362Y-114339704D01*
X57083723Y-114320654D01*
X57052483Y-114295017D01*
X57026846Y-114263777D01*
X57007796Y-114228138D01*
X56996065Y-114189468D01*
X56991500Y-114143112D01*
X56991500Y-113066888D01*
X56996065Y-113020532D01*
X57007796Y-112981862D01*
X57026846Y-112946223D01*
X57052483Y-112914983D01*
X57083723Y-112889346D01*
X57119362Y-112870296D01*
X57158032Y-112858565D01*
X57204388Y-112854000D01*
X57855612Y-112854000D01*
X57901968Y-112858565D01*
G37*
G36*
X56026968Y-112858565D02*
G01*
X56065638Y-112870296D01*
X56101277Y-112889346D01*
X56132517Y-112914983D01*
X56158154Y-112946223D01*
X56177204Y-112981862D01*
X56188935Y-113020532D01*
X56193500Y-113066888D01*
X56193500Y-114143112D01*
X56188935Y-114189468D01*
X56177204Y-114228138D01*
X56158154Y-114263777D01*
X56132517Y-114295017D01*
X56101277Y-114320654D01*
X56065638Y-114339704D01*
X56026968Y-114351435D01*
X55980612Y-114356000D01*
X55329388Y-114356000D01*
X55283032Y-114351435D01*
X55244362Y-114339704D01*
X55208723Y-114320654D01*
X55177483Y-114295017D01*
X55151846Y-114263777D01*
X55132796Y-114228138D01*
X55121065Y-114189468D01*
X55116500Y-114143112D01*
X55116500Y-113066888D01*
X55121065Y-113020532D01*
X55132796Y-112981862D01*
X55151846Y-112946223D01*
X55177483Y-112914983D01*
X55208723Y-112889346D01*
X55244362Y-112870296D01*
X55283032Y-112858565D01*
X55329388Y-112854000D01*
X55980612Y-112854000D01*
X56026968Y-112858565D01*
G37*
G36*
X53681000Y-113406000D02*
G01*
X52879000Y-113406000D01*
X52879000Y-112704000D01*
X53681000Y-112704000D01*
X53681000Y-113406000D01*
G37*
G36*
X83618500Y-112041886D02*
G01*
X83619102Y-112054138D01*
X83621649Y-112080000D01*
X83619102Y-112105862D01*
X83618500Y-112118114D01*
X83618500Y-112191406D01*
X83609543Y-112208164D01*
X83605415Y-112219701D01*
X83579632Y-112304693D01*
X83571854Y-112330336D01*
X83511406Y-112443425D01*
X83430054Y-112542554D01*
X83330925Y-112623906D01*
X83217836Y-112684354D01*
X83185904Y-112694040D01*
X83095118Y-112721580D01*
X83031355Y-112727860D01*
X82999474Y-112731000D01*
X82235526Y-112731000D01*
X82203645Y-112727860D01*
X82139882Y-112721580D01*
X82049096Y-112694040D01*
X82017164Y-112684354D01*
X81904075Y-112623906D01*
X81804946Y-112542554D01*
X81723594Y-112443425D01*
X81663146Y-112330336D01*
X81655368Y-112304693D01*
X81629587Y-112219708D01*
X81620213Y-112197075D01*
X81616500Y-112191518D01*
X81616500Y-112118114D01*
X81615898Y-112105862D01*
X81613351Y-112080000D01*
X81615898Y-112054138D01*
X81616500Y-112041886D01*
X81616500Y-110829000D01*
X83618500Y-110829000D01*
X83618500Y-112041886D01*
G37*
G36*
X44306626Y-110567037D02*
G01*
X44476465Y-110618557D01*
X44476467Y-110618558D01*
X44632989Y-110702221D01*
X44770186Y-110814814D01*
X44853448Y-110916271D01*
X44882778Y-110952009D01*
X44966443Y-111108534D01*
X45017963Y-111278373D01*
X45021128Y-111310505D01*
X45031000Y-111410740D01*
X45031000Y-111749259D01*
X45029185Y-111767683D01*
X45017963Y-111881626D01*
X44966443Y-112051466D01*
X44882778Y-112207991D01*
X44873157Y-112219714D01*
X44770186Y-112345186D01*
X44675250Y-112423097D01*
X44632991Y-112457778D01*
X44476466Y-112541443D01*
X44306627Y-112592963D01*
X44130000Y-112610359D01*
X43953374Y-112592963D01*
X43783535Y-112541443D01*
X43627010Y-112457778D01*
X43489815Y-112345185D01*
X43377222Y-112207991D01*
X43293557Y-112051466D01*
X43242037Y-111881627D01*
X43229000Y-111749258D01*
X43229000Y-111410743D01*
X43242037Y-111278374D01*
X43293557Y-111108535D01*
X43377222Y-110952010D01*
X43377223Y-110952009D01*
X43489814Y-110814814D01*
X43591271Y-110731552D01*
X43627009Y-110702222D01*
X43783534Y-110618557D01*
X43953373Y-110567037D01*
X44130000Y-110549641D01*
X44306626Y-110567037D01*
G37*
G36*
X41806626Y-110567037D02*
G01*
X41976465Y-110618557D01*
X41976467Y-110618558D01*
X42132989Y-110702221D01*
X42270186Y-110814814D01*
X42353448Y-110916271D01*
X42382778Y-110952009D01*
X42466443Y-111108534D01*
X42517963Y-111278373D01*
X42521128Y-111310505D01*
X42531000Y-111410740D01*
X42531000Y-111749259D01*
X42529185Y-111767683D01*
X42517963Y-111881626D01*
X42466443Y-112051466D01*
X42382778Y-112207991D01*
X42373157Y-112219714D01*
X42270186Y-112345186D01*
X42175250Y-112423097D01*
X42132991Y-112457778D01*
X41976466Y-112541443D01*
X41806627Y-112592963D01*
X41630000Y-112610359D01*
X41453374Y-112592963D01*
X41283535Y-112541443D01*
X41127010Y-112457778D01*
X40989815Y-112345185D01*
X40877222Y-112207991D01*
X40793557Y-112051466D01*
X40742037Y-111881627D01*
X40729000Y-111749258D01*
X40729000Y-111410743D01*
X40742037Y-111278374D01*
X40793557Y-111108535D01*
X40877222Y-110952010D01*
X40877223Y-110952009D01*
X40989814Y-110814814D01*
X41091271Y-110731552D01*
X41127009Y-110702222D01*
X41283534Y-110618557D01*
X41453373Y-110567037D01*
X41630000Y-110549641D01*
X41806626Y-110567037D01*
G37*
G36*
X46806626Y-110567037D02*
G01*
X46976465Y-110618557D01*
X46976467Y-110618558D01*
X47132989Y-110702221D01*
X47270186Y-110814814D01*
X47353448Y-110916271D01*
X47382778Y-110952009D01*
X47466443Y-111108534D01*
X47517963Y-111278373D01*
X47521128Y-111310505D01*
X47531000Y-111410740D01*
X47531000Y-111749259D01*
X47529185Y-111767683D01*
X47517963Y-111881626D01*
X47466443Y-112051466D01*
X47382778Y-112207991D01*
X47373157Y-112219714D01*
X47270186Y-112345186D01*
X47175250Y-112423097D01*
X47132991Y-112457778D01*
X46976466Y-112541443D01*
X46806627Y-112592963D01*
X46630000Y-112610359D01*
X46453374Y-112592963D01*
X46283535Y-112541443D01*
X46127010Y-112457778D01*
X45989815Y-112345185D01*
X45877222Y-112207991D01*
X45793557Y-112051466D01*
X45742037Y-111881627D01*
X45729000Y-111749258D01*
X45729000Y-111410743D01*
X45742037Y-111278374D01*
X45793557Y-111108535D01*
X45877222Y-110952010D01*
X45877223Y-110952009D01*
X45989814Y-110814814D01*
X46091271Y-110731552D01*
X46127009Y-110702222D01*
X46283534Y-110618557D01*
X46453373Y-110567037D01*
X46630000Y-110549641D01*
X46806626Y-110567037D01*
G37*
G36*
X39888600Y-110557989D02*
G01*
X39921652Y-110568015D01*
X39952103Y-110584292D01*
X39978799Y-110606201D01*
X40000708Y-110632897D01*
X40016985Y-110663348D01*
X40027011Y-110696400D01*
X40031000Y-110736903D01*
X40031000Y-112423097D01*
X40027011Y-112463600D01*
X40016985Y-112496652D01*
X40000708Y-112527103D01*
X39978799Y-112553799D01*
X39952103Y-112575708D01*
X39921652Y-112591985D01*
X39888600Y-112602011D01*
X39848097Y-112606000D01*
X38411903Y-112606000D01*
X38371400Y-112602011D01*
X38338348Y-112591985D01*
X38307897Y-112575708D01*
X38281201Y-112553799D01*
X38259292Y-112527103D01*
X38243015Y-112496652D01*
X38232989Y-112463600D01*
X38229000Y-112423097D01*
X38229000Y-110736903D01*
X38232989Y-110696400D01*
X38243015Y-110663348D01*
X38259292Y-110632897D01*
X38281201Y-110606201D01*
X38307897Y-110584292D01*
X38338348Y-110568015D01*
X38371400Y-110557989D01*
X38411903Y-110554000D01*
X39848097Y-110554000D01*
X39888600Y-110557989D01*
G37*
G36*
X51681000Y-112456000D02*
G01*
X50879000Y-112456000D01*
X50879000Y-111754000D01*
X51681000Y-111754000D01*
X51681000Y-112456000D01*
G37*
G36*
X80143848Y-105333820D02*
G01*
X80143850Y-105333821D01*
X80143851Y-105333821D01*
X80285074Y-105392317D01*
X80285077Y-105392319D01*
X80412169Y-105477239D01*
X80520261Y-105585331D01*
X80605181Y-105712423D01*
X80605183Y-105712426D01*
X80663679Y-105853649D01*
X80693500Y-106003571D01*
X80693500Y-106156429D01*
X80663679Y-106306351D01*
X80605183Y-106447574D01*
X80605181Y-106447577D01*
X80520261Y-106574669D01*
X80412169Y-106682761D01*
X80327440Y-106739375D01*
X80285074Y-106767683D01*
X80234772Y-106788519D01*
X80213164Y-106800068D01*
X80194222Y-106815614D01*
X80178677Y-106834556D01*
X80167126Y-106856166D01*
X80160013Y-106879615D01*
X80157611Y-106904001D01*
X80160013Y-106928387D01*
X80167126Y-106951836D01*
X80178677Y-106973447D01*
X80194223Y-106992389D01*
X80213165Y-107007934D01*
X80234775Y-107019485D01*
X80258224Y-107026598D01*
X80282610Y-107029000D01*
X80643500Y-107029000D01*
X80643500Y-110131000D01*
X80282610Y-110131000D01*
X80258224Y-110133402D01*
X80234775Y-110140515D01*
X80213164Y-110152066D01*
X80194222Y-110167611D01*
X80178677Y-110186553D01*
X80167126Y-110208164D01*
X80160013Y-110231613D01*
X80157611Y-110255999D01*
X80160013Y-110280385D01*
X80167126Y-110303834D01*
X80178677Y-110325445D01*
X80194222Y-110344387D01*
X80213164Y-110359932D01*
X80234772Y-110371481D01*
X80285074Y-110392317D01*
X80285075Y-110392318D01*
X80412169Y-110477239D01*
X80520261Y-110585331D01*
X80572390Y-110663348D01*
X80605183Y-110712426D01*
X80649327Y-110819000D01*
X80663680Y-110853652D01*
X80693500Y-111003569D01*
X80693500Y-111156431D01*
X80669245Y-111278373D01*
X80663679Y-111306351D01*
X80605183Y-111447574D01*
X80605181Y-111447577D01*
X80520261Y-111574669D01*
X80412169Y-111682761D01*
X80312646Y-111749260D01*
X80285074Y-111767683D01*
X80143851Y-111826179D01*
X80143850Y-111826179D01*
X80143848Y-111826180D01*
X79993931Y-111856000D01*
X79841069Y-111856000D01*
X79691152Y-111826180D01*
X79691150Y-111826179D01*
X79691149Y-111826179D01*
X79549926Y-111767683D01*
X79522354Y-111749260D01*
X79422831Y-111682761D01*
X79314739Y-111574669D01*
X79229819Y-111447577D01*
X79229817Y-111447574D01*
X79171321Y-111306351D01*
X79165756Y-111278373D01*
X79141500Y-111156431D01*
X79141500Y-111003569D01*
X79171320Y-110853652D01*
X79185673Y-110819000D01*
X79229817Y-110712426D01*
X79262610Y-110663348D01*
X79314739Y-110585331D01*
X79422831Y-110477239D01*
X79549925Y-110392318D01*
X79549926Y-110392317D01*
X79600228Y-110371481D01*
X79621836Y-110359932D01*
X79640778Y-110344386D01*
X79656323Y-110325444D01*
X79667874Y-110303834D01*
X79674987Y-110280385D01*
X79677389Y-110255999D01*
X79674987Y-110231613D01*
X79667874Y-110208164D01*
X79656323Y-110186553D01*
X79640777Y-110167611D01*
X79621835Y-110152066D01*
X79600225Y-110140515D01*
X79576776Y-110133402D01*
X79552390Y-110131000D01*
X79191500Y-110131000D01*
X79191500Y-107029000D01*
X79552390Y-107029000D01*
X79576776Y-107026598D01*
X79600225Y-107019485D01*
X79621836Y-107007934D01*
X79640778Y-106992389D01*
X79656323Y-106973447D01*
X79667874Y-106951836D01*
X79674987Y-106928387D01*
X79677389Y-106904001D01*
X79674987Y-106879615D01*
X79667874Y-106856166D01*
X79656323Y-106834555D01*
X79640778Y-106815613D01*
X79621836Y-106800068D01*
X79600228Y-106788519D01*
X79549926Y-106767683D01*
X79507560Y-106739375D01*
X79422831Y-106682761D01*
X79314739Y-106574669D01*
X79229819Y-106447577D01*
X79229817Y-106447574D01*
X79171321Y-106306351D01*
X79141500Y-106156429D01*
X79141500Y-106003571D01*
X79171321Y-105853649D01*
X79229817Y-105712426D01*
X79229819Y-105712423D01*
X79314739Y-105585331D01*
X79422831Y-105477239D01*
X79549923Y-105392319D01*
X79549926Y-105392317D01*
X79691149Y-105333821D01*
X79691150Y-105333821D01*
X79691152Y-105333820D01*
X79841069Y-105304000D01*
X79993931Y-105304000D01*
X80143848Y-105333820D01*
G37*
G36*
X53681000Y-111506000D02*
G01*
X52879000Y-111506000D01*
X52879000Y-110804000D01*
X53681000Y-110804000D01*
X53681000Y-111506000D01*
G37*
G36*
X56026968Y-109833565D02*
G01*
X56065638Y-109845296D01*
X56101277Y-109864346D01*
X56132517Y-109889983D01*
X56158154Y-109921223D01*
X56177204Y-109956862D01*
X56188935Y-109995532D01*
X56193500Y-110041888D01*
X56193500Y-111118112D01*
X56188935Y-111164468D01*
X56177204Y-111203138D01*
X56158154Y-111238777D01*
X56132517Y-111270017D01*
X56101277Y-111295654D01*
X56065638Y-111314704D01*
X56026968Y-111326435D01*
X55980612Y-111331000D01*
X55329388Y-111331000D01*
X55283032Y-111326435D01*
X55244362Y-111314704D01*
X55208723Y-111295654D01*
X55177483Y-111270017D01*
X55151846Y-111238777D01*
X55132796Y-111203138D01*
X55121065Y-111164468D01*
X55116500Y-111118112D01*
X55116500Y-110041888D01*
X55121065Y-109995532D01*
X55132796Y-109956862D01*
X55151846Y-109921223D01*
X55177483Y-109889983D01*
X55208723Y-109864346D01*
X55244362Y-109845296D01*
X55283032Y-109833565D01*
X55329388Y-109829000D01*
X55980612Y-109829000D01*
X56026968Y-109833565D01*
G37*
G36*
X57901968Y-109833565D02*
G01*
X57940638Y-109845296D01*
X57976277Y-109864346D01*
X58007517Y-109889983D01*
X58033154Y-109921223D01*
X58052204Y-109956862D01*
X58063935Y-109995532D01*
X58068500Y-110041888D01*
X58068500Y-111118112D01*
X58063935Y-111164468D01*
X58052204Y-111203138D01*
X58033154Y-111238777D01*
X58007517Y-111270017D01*
X57976277Y-111295654D01*
X57940638Y-111314704D01*
X57901968Y-111326435D01*
X57855612Y-111331000D01*
X57204388Y-111331000D01*
X57158032Y-111326435D01*
X57119362Y-111314704D01*
X57083723Y-111295654D01*
X57052483Y-111270017D01*
X57026846Y-111238777D01*
X57007796Y-111203138D01*
X56996065Y-111164468D01*
X56991500Y-111118112D01*
X56991500Y-110041888D01*
X56996065Y-109995532D01*
X57007796Y-109956862D01*
X57026846Y-109921223D01*
X57052483Y-109889983D01*
X57083723Y-109864346D01*
X57119362Y-109845296D01*
X57158032Y-109833565D01*
X57204388Y-109829000D01*
X57855612Y-109829000D01*
X57901968Y-109833565D01*
G37*
G36*
X83618500Y-110381000D02*
G01*
X81616500Y-110381000D01*
X81616500Y-108779000D01*
X83618500Y-108779000D01*
X83618500Y-110381000D01*
G37*
G36*
X70255256Y-106971298D02*
G01*
X70361579Y-106992447D01*
X70662042Y-107116903D01*
X70932451Y-107297585D01*
X71162415Y-107527549D01*
X71343097Y-107797958D01*
X71343098Y-107797960D01*
X71467553Y-108098422D01*
X71531000Y-108417389D01*
X71531000Y-108742611D01*
X71513418Y-108831000D01*
X71467553Y-109061579D01*
X71343097Y-109362042D01*
X71162415Y-109632451D01*
X70932451Y-109862415D01*
X70662042Y-110043097D01*
X70361579Y-110167553D01*
X70266059Y-110186553D01*
X70042611Y-110231000D01*
X69717389Y-110231000D01*
X69493941Y-110186553D01*
X69398421Y-110167553D01*
X69097958Y-110043097D01*
X68827549Y-109862415D01*
X68597585Y-109632451D01*
X68416903Y-109362042D01*
X68292447Y-109061579D01*
X68246582Y-108831000D01*
X68229000Y-108742611D01*
X68229000Y-108417389D01*
X68292447Y-108098422D01*
X68416902Y-107797960D01*
X68416903Y-107797958D01*
X68597585Y-107527549D01*
X68827549Y-107297585D01*
X69097958Y-107116903D01*
X69398421Y-106992447D01*
X69504744Y-106971298D01*
X69717389Y-106929000D01*
X70042611Y-106929000D01*
X70255256Y-106971298D01*
G37*
G36*
X30505256Y-106971298D02*
G01*
X30611579Y-106992447D01*
X30912042Y-107116903D01*
X31182451Y-107297585D01*
X31412415Y-107527549D01*
X31593097Y-107797958D01*
X31593098Y-107797960D01*
X31717553Y-108098422D01*
X31781000Y-108417389D01*
X31781000Y-108742611D01*
X31763418Y-108831000D01*
X31717553Y-109061579D01*
X31593097Y-109362042D01*
X31412415Y-109632451D01*
X31182451Y-109862415D01*
X30912042Y-110043097D01*
X30611579Y-110167553D01*
X30516059Y-110186553D01*
X30292611Y-110231000D01*
X29967389Y-110231000D01*
X29743941Y-110186553D01*
X29648421Y-110167553D01*
X29347958Y-110043097D01*
X29077549Y-109862415D01*
X28847585Y-109632451D01*
X28666903Y-109362042D01*
X28542447Y-109061579D01*
X28496582Y-108831000D01*
X28479000Y-108742611D01*
X28479000Y-108417389D01*
X28542447Y-108098422D01*
X28666902Y-107797960D01*
X28666903Y-107797958D01*
X28847585Y-107527549D01*
X29077549Y-107297585D01*
X29347958Y-107116903D01*
X29648421Y-106992447D01*
X29754744Y-106971298D01*
X29967389Y-106929000D01*
X30292611Y-106929000D01*
X30505256Y-106971298D01*
G37*
G36*
X83618500Y-108381000D02*
G01*
X81616500Y-108381000D01*
X81616500Y-106779000D01*
X83618500Y-106779000D01*
X83618500Y-108381000D01*
G37*
G36*
X83031355Y-104432140D02*
G01*
X83095118Y-104438420D01*
X83185904Y-104465960D01*
X83217836Y-104475646D01*
X83330925Y-104536094D01*
X83430054Y-104617446D01*
X83511406Y-104716575D01*
X83571854Y-104829664D01*
X83571855Y-104829668D01*
X83605413Y-104940292D01*
X83614787Y-104962925D01*
X83618500Y-104968482D01*
X83618500Y-105041886D01*
X83619102Y-105054138D01*
X83621649Y-105080000D01*
X83619102Y-105105862D01*
X83618500Y-105118114D01*
X83618500Y-106331000D01*
X81616500Y-106331000D01*
X81616500Y-105118114D01*
X81615898Y-105105862D01*
X81613351Y-105080000D01*
X81615898Y-105054138D01*
X81616500Y-105041886D01*
X81616500Y-104968594D01*
X81625457Y-104951836D01*
X81629585Y-104940299D01*
X81663145Y-104829668D01*
X81663146Y-104829664D01*
X81723594Y-104716575D01*
X81804946Y-104617446D01*
X81904075Y-104536094D01*
X82017164Y-104475646D01*
X82049096Y-104465960D01*
X82139882Y-104438420D01*
X82203645Y-104432140D01*
X82235526Y-104429000D01*
X82999474Y-104429000D01*
X83031355Y-104432140D01*
G37*
G36*
X57901968Y-104108565D02*
G01*
X57940638Y-104120296D01*
X57976277Y-104139346D01*
X58007517Y-104164983D01*
X58033154Y-104196223D01*
X58052204Y-104231862D01*
X58063935Y-104270532D01*
X58068500Y-104316888D01*
X58068500Y-105393112D01*
X58063935Y-105439468D01*
X58052204Y-105478138D01*
X58033154Y-105513777D01*
X58007517Y-105545017D01*
X57976277Y-105570654D01*
X57940638Y-105589704D01*
X57901968Y-105601435D01*
X57855612Y-105606000D01*
X57204388Y-105606000D01*
X57158032Y-105601435D01*
X57119362Y-105589704D01*
X57083723Y-105570654D01*
X57052483Y-105545017D01*
X57026846Y-105513777D01*
X57007796Y-105478138D01*
X56996065Y-105439468D01*
X56991500Y-105393112D01*
X56991500Y-104316888D01*
X56996065Y-104270532D01*
X57007796Y-104231862D01*
X57026846Y-104196223D01*
X57052483Y-104164983D01*
X57083723Y-104139346D01*
X57119362Y-104120296D01*
X57158032Y-104108565D01*
X57204388Y-104104000D01*
X57855612Y-104104000D01*
X57901968Y-104108565D01*
G37*
G36*
X56026968Y-104108565D02*
G01*
X56065638Y-104120296D01*
X56101277Y-104139346D01*
X56132517Y-104164983D01*
X56158154Y-104196223D01*
X56177204Y-104231862D01*
X56188935Y-104270532D01*
X56193500Y-104316888D01*
X56193500Y-105393112D01*
X56188935Y-105439468D01*
X56177204Y-105478138D01*
X56158154Y-105513777D01*
X56132517Y-105545017D01*
X56101277Y-105570654D01*
X56065638Y-105589704D01*
X56026968Y-105601435D01*
X55980612Y-105606000D01*
X55329388Y-105606000D01*
X55283032Y-105601435D01*
X55244362Y-105589704D01*
X55208723Y-105570654D01*
X55177483Y-105545017D01*
X55151846Y-105513777D01*
X55132796Y-105478138D01*
X55121065Y-105439468D01*
X55116500Y-105393112D01*
X55116500Y-104316888D01*
X55121065Y-104270532D01*
X55132796Y-104231862D01*
X55151846Y-104196223D01*
X55177483Y-104164983D01*
X55208723Y-104139346D01*
X55244362Y-104120296D01*
X55283032Y-104108565D01*
X55329388Y-104104000D01*
X55980612Y-104104000D01*
X56026968Y-104108565D01*
G37*
G36*
X53681000Y-104656000D02*
G01*
X52879000Y-104656000D01*
X52879000Y-103954000D01*
X53681000Y-103954000D01*
X53681000Y-104656000D01*
G37*
G36*
X46806626Y-101817037D02*
G01*
X46976465Y-101868557D01*
X46976467Y-101868558D01*
X47132989Y-101952221D01*
X47270186Y-102064814D01*
X47353448Y-102166271D01*
X47382778Y-102202009D01*
X47466443Y-102358534D01*
X47517963Y-102528373D01*
X47517963Y-102528375D01*
X47525609Y-102606000D01*
X47531000Y-102660742D01*
X47531000Y-102999257D01*
X47517963Y-103131626D01*
X47466443Y-103301466D01*
X47382778Y-103457991D01*
X47353448Y-103493729D01*
X47270186Y-103595186D01*
X47175250Y-103673097D01*
X47132991Y-103707778D01*
X46976466Y-103791443D01*
X46806627Y-103842963D01*
X46630000Y-103860359D01*
X46453374Y-103842963D01*
X46283535Y-103791443D01*
X46127010Y-103707778D01*
X45989815Y-103595185D01*
X45877222Y-103457991D01*
X45793557Y-103301466D01*
X45742037Y-103131627D01*
X45729000Y-102999258D01*
X45729000Y-102660743D01*
X45742037Y-102528374D01*
X45793557Y-102358535D01*
X45877222Y-102202010D01*
X45877223Y-102202009D01*
X45989814Y-102064814D01*
X46091271Y-101981552D01*
X46127009Y-101952222D01*
X46283534Y-101868557D01*
X46453373Y-101817037D01*
X46630000Y-101799641D01*
X46806626Y-101817037D01*
G37*
G36*
X44306626Y-101817037D02*
G01*
X44476465Y-101868557D01*
X44476467Y-101868558D01*
X44632989Y-101952221D01*
X44770186Y-102064814D01*
X44853448Y-102166271D01*
X44882778Y-102202009D01*
X44966443Y-102358534D01*
X45017963Y-102528373D01*
X45017963Y-102528375D01*
X45025609Y-102606000D01*
X45031000Y-102660742D01*
X45031000Y-102999257D01*
X45017963Y-103131626D01*
X44966443Y-103301466D01*
X44882778Y-103457991D01*
X44853448Y-103493729D01*
X44770186Y-103595186D01*
X44675250Y-103673097D01*
X44632991Y-103707778D01*
X44476466Y-103791443D01*
X44306627Y-103842963D01*
X44130000Y-103860359D01*
X43953374Y-103842963D01*
X43783535Y-103791443D01*
X43627010Y-103707778D01*
X43489815Y-103595185D01*
X43377222Y-103457991D01*
X43293557Y-103301466D01*
X43242037Y-103131627D01*
X43229000Y-102999258D01*
X43229000Y-102660743D01*
X43242037Y-102528374D01*
X43293557Y-102358535D01*
X43377222Y-102202010D01*
X43377223Y-102202009D01*
X43489814Y-102064814D01*
X43591271Y-101981552D01*
X43627009Y-101952222D01*
X43783534Y-101868557D01*
X43953373Y-101817037D01*
X44130000Y-101799641D01*
X44306626Y-101817037D01*
G37*
G36*
X41806626Y-101817037D02*
G01*
X41976465Y-101868557D01*
X41976467Y-101868558D01*
X42132989Y-101952221D01*
X42270186Y-102064814D01*
X42353448Y-102166271D01*
X42382778Y-102202009D01*
X42466443Y-102358534D01*
X42517963Y-102528373D01*
X42517963Y-102528375D01*
X42525609Y-102606000D01*
X42531000Y-102660742D01*
X42531000Y-102999257D01*
X42517963Y-103131626D01*
X42466443Y-103301466D01*
X42382778Y-103457991D01*
X42353448Y-103493729D01*
X42270186Y-103595186D01*
X42175250Y-103673097D01*
X42132991Y-103707778D01*
X41976466Y-103791443D01*
X41806627Y-103842963D01*
X41630000Y-103860359D01*
X41453374Y-103842963D01*
X41283535Y-103791443D01*
X41127010Y-103707778D01*
X40989815Y-103595185D01*
X40877222Y-103457991D01*
X40793557Y-103301466D01*
X40742037Y-103131627D01*
X40729000Y-102999258D01*
X40729000Y-102660743D01*
X40742037Y-102528374D01*
X40793557Y-102358535D01*
X40877222Y-102202010D01*
X40877223Y-102202009D01*
X40989814Y-102064814D01*
X41091271Y-101981552D01*
X41127009Y-101952222D01*
X41283534Y-101868557D01*
X41453373Y-101817037D01*
X41630000Y-101799641D01*
X41806626Y-101817037D01*
G37*
G36*
X39888600Y-101807989D02*
G01*
X39921652Y-101818015D01*
X39952103Y-101834292D01*
X39978799Y-101856201D01*
X40000708Y-101882897D01*
X40016985Y-101913348D01*
X40027011Y-101946400D01*
X40031000Y-101986903D01*
X40031000Y-103673097D01*
X40027011Y-103713600D01*
X40016985Y-103746652D01*
X40000708Y-103777103D01*
X39978799Y-103803799D01*
X39952103Y-103825708D01*
X39921652Y-103841985D01*
X39888600Y-103852011D01*
X39848097Y-103856000D01*
X38411903Y-103856000D01*
X38371400Y-103852011D01*
X38338348Y-103841985D01*
X38307897Y-103825708D01*
X38281201Y-103803799D01*
X38259292Y-103777103D01*
X38243015Y-103746652D01*
X38232989Y-103713600D01*
X38229000Y-103673097D01*
X38229000Y-101986903D01*
X38232989Y-101946400D01*
X38243015Y-101913348D01*
X38259292Y-101882897D01*
X38281201Y-101856201D01*
X38307897Y-101834292D01*
X38338348Y-101818015D01*
X38371400Y-101807989D01*
X38411903Y-101804000D01*
X39848097Y-101804000D01*
X39888600Y-101807989D01*
G37*
G36*
X51681000Y-103706000D02*
G01*
X50879000Y-103706000D01*
X50879000Y-103004000D01*
X51681000Y-103004000D01*
X51681000Y-103706000D01*
G37*
G36*
X72364468Y-102383565D02*
G01*
X72403138Y-102395296D01*
X72438777Y-102414346D01*
X72470017Y-102439983D01*
X72495654Y-102471223D01*
X72514704Y-102506862D01*
X72526435Y-102545532D01*
X72531000Y-102591888D01*
X72531000Y-103243112D01*
X72526435Y-103289468D01*
X72514704Y-103328138D01*
X72495654Y-103363777D01*
X72470017Y-103395017D01*
X72438777Y-103420654D01*
X72403138Y-103439704D01*
X72364468Y-103451435D01*
X72318112Y-103456000D01*
X71241888Y-103456000D01*
X71195532Y-103451435D01*
X71156862Y-103439704D01*
X71121223Y-103420654D01*
X71089983Y-103395017D01*
X71064346Y-103363777D01*
X71045296Y-103328138D01*
X71033565Y-103289468D01*
X71029000Y-103243112D01*
X71029000Y-102591888D01*
X71033565Y-102545532D01*
X71045296Y-102506862D01*
X71064346Y-102471223D01*
X71089983Y-102439983D01*
X71121223Y-102414346D01*
X71156862Y-102395296D01*
X71195532Y-102383565D01*
X71241888Y-102379000D01*
X72318112Y-102379000D01*
X72364468Y-102383565D01*
G37*
G36*
X68814468Y-102383565D02*
G01*
X68853138Y-102395296D01*
X68888777Y-102414346D01*
X68920017Y-102439983D01*
X68945654Y-102471223D01*
X68964704Y-102506862D01*
X68976435Y-102545532D01*
X68981000Y-102591888D01*
X68981000Y-103243112D01*
X68976435Y-103289468D01*
X68964704Y-103328138D01*
X68945654Y-103363777D01*
X68920017Y-103395017D01*
X68888777Y-103420654D01*
X68853138Y-103439704D01*
X68814468Y-103451435D01*
X68768112Y-103456000D01*
X67691888Y-103456000D01*
X67645532Y-103451435D01*
X67606862Y-103439704D01*
X67571223Y-103420654D01*
X67539983Y-103395017D01*
X67514346Y-103363777D01*
X67495296Y-103328138D01*
X67483565Y-103289468D01*
X67479000Y-103243112D01*
X67479000Y-102591888D01*
X67483565Y-102545532D01*
X67495296Y-102506862D01*
X67514346Y-102471223D01*
X67539983Y-102439983D01*
X67571223Y-102414346D01*
X67606862Y-102395296D01*
X67645532Y-102383565D01*
X67691888Y-102379000D01*
X68768112Y-102379000D01*
X68814468Y-102383565D01*
G37*
G36*
X53681000Y-102756000D02*
G01*
X52879000Y-102756000D01*
X52879000Y-102054000D01*
X53681000Y-102054000D01*
X53681000Y-102756000D01*
G37*
G36*
X56026968Y-101108565D02*
G01*
X56065638Y-101120296D01*
X56101277Y-101139346D01*
X56132517Y-101164983D01*
X56158154Y-101196223D01*
X56177204Y-101231862D01*
X56188935Y-101270532D01*
X56193500Y-101316888D01*
X56193500Y-102393112D01*
X56188935Y-102439468D01*
X56177204Y-102478138D01*
X56158154Y-102513777D01*
X56132517Y-102545017D01*
X56101277Y-102570654D01*
X56065638Y-102589704D01*
X56026968Y-102601435D01*
X55980612Y-102606000D01*
X55329388Y-102606000D01*
X55283032Y-102601435D01*
X55244362Y-102589704D01*
X55208723Y-102570654D01*
X55177483Y-102545017D01*
X55151846Y-102513777D01*
X55132796Y-102478138D01*
X55121065Y-102439468D01*
X55116500Y-102393112D01*
X55116500Y-101316888D01*
X55121065Y-101270532D01*
X55132796Y-101231862D01*
X55151846Y-101196223D01*
X55177483Y-101164983D01*
X55208723Y-101139346D01*
X55244362Y-101120296D01*
X55283032Y-101108565D01*
X55329388Y-101104000D01*
X55980612Y-101104000D01*
X56026968Y-101108565D01*
G37*
G36*
X57901968Y-101108565D02*
G01*
X57940638Y-101120296D01*
X57976277Y-101139346D01*
X58007517Y-101164983D01*
X58033154Y-101196223D01*
X58052204Y-101231862D01*
X58063935Y-101270532D01*
X58068500Y-101316888D01*
X58068500Y-102393112D01*
X58063935Y-102439468D01*
X58052204Y-102478138D01*
X58033154Y-102513777D01*
X58007517Y-102545017D01*
X57976277Y-102570654D01*
X57940638Y-102589704D01*
X57901968Y-102601435D01*
X57855612Y-102606000D01*
X57204388Y-102606000D01*
X57158032Y-102601435D01*
X57119362Y-102589704D01*
X57083723Y-102570654D01*
X57052483Y-102545017D01*
X57026846Y-102513777D01*
X57007796Y-102478138D01*
X56996065Y-102439468D01*
X56991500Y-102393112D01*
X56991500Y-101316888D01*
X56996065Y-101270532D01*
X57007796Y-101231862D01*
X57026846Y-101196223D01*
X57052483Y-101164983D01*
X57083723Y-101139346D01*
X57119362Y-101120296D01*
X57158032Y-101108565D01*
X57204388Y-101104000D01*
X57855612Y-101104000D01*
X57901968Y-101108565D01*
G37*
G36*
X68814468Y-100508565D02*
G01*
X68853138Y-100520296D01*
X68888777Y-100539346D01*
X68920017Y-100564983D01*
X68945654Y-100596223D01*
X68964704Y-100631862D01*
X68976435Y-100670532D01*
X68981000Y-100716888D01*
X68981000Y-101368112D01*
X68976435Y-101414468D01*
X68964704Y-101453138D01*
X68945654Y-101488777D01*
X68920017Y-101520017D01*
X68888777Y-101545654D01*
X68853138Y-101564704D01*
X68814468Y-101576435D01*
X68768112Y-101581000D01*
X67691888Y-101581000D01*
X67645532Y-101576435D01*
X67606862Y-101564704D01*
X67571223Y-101545654D01*
X67539983Y-101520017D01*
X67514346Y-101488777D01*
X67495296Y-101453138D01*
X67483565Y-101414468D01*
X67479000Y-101368112D01*
X67479000Y-100716888D01*
X67483565Y-100670532D01*
X67495296Y-100631862D01*
X67514346Y-100596223D01*
X67539983Y-100564983D01*
X67571223Y-100539346D01*
X67606862Y-100520296D01*
X67645532Y-100508565D01*
X67691888Y-100504000D01*
X68768112Y-100504000D01*
X68814468Y-100508565D01*
G37*
G36*
X72364468Y-100508565D02*
G01*
X72403138Y-100520296D01*
X72438777Y-100539346D01*
X72470017Y-100564983D01*
X72495654Y-100596223D01*
X72514704Y-100631862D01*
X72526435Y-100670532D01*
X72531000Y-100716888D01*
X72531000Y-101368112D01*
X72526435Y-101414468D01*
X72514704Y-101453138D01*
X72495654Y-101488777D01*
X72470017Y-101520017D01*
X72438777Y-101545654D01*
X72403138Y-101564704D01*
X72364468Y-101576435D01*
X72318112Y-101581000D01*
X71241888Y-101581000D01*
X71195532Y-101576435D01*
X71156862Y-101564704D01*
X71121223Y-101545654D01*
X71089983Y-101520017D01*
X71064346Y-101488777D01*
X71045296Y-101453138D01*
X71033565Y-101414468D01*
X71029000Y-101368112D01*
X71029000Y-100716888D01*
X71033565Y-100670532D01*
X71045296Y-100631862D01*
X71064346Y-100596223D01*
X71089983Y-100564983D01*
X71121223Y-100539346D01*
X71156862Y-100520296D01*
X71195532Y-100508565D01*
X71241888Y-100504000D01*
X72318112Y-100504000D01*
X72364468Y-100508565D01*
G37*
G36*
X69311000Y-97906000D02*
G01*
X68149000Y-97906000D01*
X68149000Y-95254000D01*
X69311000Y-95254000D01*
X69311000Y-97906000D01*
G37*
G36*
X67111000Y-97906000D02*
G01*
X65949000Y-97906000D01*
X65949000Y-97154000D01*
X67111000Y-97154000D01*
X67111000Y-97906000D01*
G37*
G36*
X78763600Y-95932989D02*
G01*
X78796652Y-95943015D01*
X78827103Y-95959292D01*
X78853799Y-95981201D01*
X78875708Y-96007897D01*
X78891985Y-96038348D01*
X78902011Y-96071400D01*
X78906000Y-96111903D01*
X78906000Y-97548097D01*
X78902011Y-97588600D01*
X78891985Y-97621652D01*
X78875708Y-97652103D01*
X78853799Y-97678799D01*
X78827103Y-97700708D01*
X78796652Y-97716985D01*
X78763600Y-97727011D01*
X78723097Y-97731000D01*
X77036903Y-97731000D01*
X76996400Y-97727011D01*
X76963348Y-97716985D01*
X76932897Y-97700708D01*
X76906201Y-97678799D01*
X76884292Y-97652103D01*
X76868015Y-97621652D01*
X76857989Y-97588600D01*
X76854000Y-97548097D01*
X76854000Y-96111903D01*
X76857989Y-96071400D01*
X76868015Y-96038348D01*
X76884292Y-96007897D01*
X76906201Y-95981201D01*
X76932897Y-95959292D01*
X76963348Y-95943015D01*
X76996400Y-95932989D01*
X77036903Y-95929000D01*
X78723097Y-95929000D01*
X78763600Y-95932989D01*
G37*
G36*
X57901968Y-95333565D02*
G01*
X57940638Y-95345296D01*
X57976277Y-95364346D01*
X58007517Y-95389983D01*
X58033154Y-95421223D01*
X58052204Y-95456862D01*
X58063935Y-95495532D01*
X58068500Y-95541888D01*
X58068500Y-96618112D01*
X58063935Y-96664468D01*
X58052204Y-96703138D01*
X58033154Y-96738777D01*
X58007517Y-96770017D01*
X57976277Y-96795654D01*
X57940638Y-96814704D01*
X57901968Y-96826435D01*
X57855612Y-96831000D01*
X57204388Y-96831000D01*
X57158032Y-96826435D01*
X57119362Y-96814704D01*
X57083723Y-96795654D01*
X57052483Y-96770017D01*
X57026846Y-96738777D01*
X57007796Y-96703138D01*
X56996065Y-96664468D01*
X56991500Y-96618112D01*
X56991500Y-95541888D01*
X56996065Y-95495532D01*
X57007796Y-95456862D01*
X57026846Y-95421223D01*
X57052483Y-95389983D01*
X57083723Y-95364346D01*
X57119362Y-95345296D01*
X57158032Y-95333565D01*
X57204388Y-95329000D01*
X57855612Y-95329000D01*
X57901968Y-95333565D01*
G37*
G36*
X56026968Y-95333565D02*
G01*
X56065638Y-95345296D01*
X56101277Y-95364346D01*
X56132517Y-95389983D01*
X56158154Y-95421223D01*
X56177204Y-95456862D01*
X56188935Y-95495532D01*
X56193500Y-95541888D01*
X56193500Y-96618112D01*
X56188935Y-96664468D01*
X56177204Y-96703138D01*
X56158154Y-96738777D01*
X56132517Y-96770017D01*
X56101277Y-96795654D01*
X56065638Y-96814704D01*
X56026968Y-96826435D01*
X55980612Y-96831000D01*
X55329388Y-96831000D01*
X55283032Y-96826435D01*
X55244362Y-96814704D01*
X55208723Y-96795654D01*
X55177483Y-96770017D01*
X55151846Y-96738777D01*
X55132796Y-96703138D01*
X55121065Y-96664468D01*
X55116500Y-96618112D01*
X55116500Y-95541888D01*
X55121065Y-95495532D01*
X55132796Y-95456862D01*
X55151846Y-95421223D01*
X55177483Y-95389983D01*
X55208723Y-95364346D01*
X55244362Y-95345296D01*
X55283032Y-95333565D01*
X55329388Y-95329000D01*
X55980612Y-95329000D01*
X56026968Y-95333565D01*
G37*
G36*
X67111000Y-96006000D02*
G01*
X65949000Y-96006000D01*
X65949000Y-95254000D01*
X67111000Y-95254000D01*
X67111000Y-96006000D01*
G37*
G36*
X53681000Y-95906000D02*
G01*
X52879000Y-95906000D01*
X52879000Y-95204000D01*
X53681000Y-95204000D01*
X53681000Y-95906000D01*
G37*
G36*
X78115443Y-93435519D02*
G01*
X78181627Y-93442037D01*
X78351466Y-93493557D01*
X78507991Y-93577222D01*
X78543729Y-93606552D01*
X78645186Y-93689814D01*
X78717863Y-93778373D01*
X78757778Y-93827009D01*
X78757779Y-93827011D01*
X78802534Y-93910740D01*
X78841443Y-93983534D01*
X78892963Y-94153373D01*
X78910359Y-94330000D01*
X78892963Y-94506627D01*
X78841443Y-94676466D01*
X78841442Y-94676468D01*
X78824592Y-94707991D01*
X78757778Y-94832991D01*
X78728448Y-94868729D01*
X78645186Y-94970186D01*
X78543729Y-95053448D01*
X78507991Y-95082778D01*
X78351466Y-95166443D01*
X78181627Y-95217963D01*
X78115443Y-95224481D01*
X78049260Y-95231000D01*
X77710740Y-95231000D01*
X77644557Y-95224481D01*
X77578373Y-95217963D01*
X77408534Y-95166443D01*
X77252009Y-95082778D01*
X77216271Y-95053448D01*
X77114814Y-94970186D01*
X77031552Y-94868729D01*
X77002222Y-94832991D01*
X76935408Y-94707991D01*
X76918558Y-94676468D01*
X76918557Y-94676466D01*
X76867037Y-94506627D01*
X76849641Y-94330000D01*
X76867037Y-94153373D01*
X76918557Y-93983534D01*
X76957467Y-93910740D01*
X77002221Y-93827011D01*
X77002222Y-93827009D01*
X77042137Y-93778373D01*
X77114814Y-93689814D01*
X77216271Y-93606552D01*
X77252009Y-93577222D01*
X77408534Y-93493557D01*
X77578373Y-93442037D01*
X77644557Y-93435519D01*
X77710740Y-93429000D01*
X78049260Y-93429000D01*
X78115443Y-93435519D01*
G37*
G36*
X41806626Y-93067037D02*
G01*
X41976465Y-93118557D01*
X41976467Y-93118558D01*
X42132989Y-93202221D01*
X42270186Y-93314814D01*
X42353448Y-93416271D01*
X42382778Y-93452009D01*
X42466443Y-93608534D01*
X42517963Y-93778373D01*
X42517963Y-93778375D01*
X42525609Y-93856000D01*
X42531000Y-93910742D01*
X42531000Y-94249257D01*
X42517963Y-94381626D01*
X42466443Y-94551466D01*
X42382778Y-94707991D01*
X42353448Y-94743729D01*
X42270186Y-94845186D01*
X42175250Y-94923097D01*
X42132991Y-94957778D01*
X41976466Y-95041443D01*
X41806627Y-95092963D01*
X41630000Y-95110359D01*
X41453374Y-95092963D01*
X41283535Y-95041443D01*
X41127010Y-94957778D01*
X40989815Y-94845185D01*
X40877222Y-94707991D01*
X40793557Y-94551466D01*
X40742037Y-94381627D01*
X40729000Y-94249258D01*
X40729000Y-93910743D01*
X40742037Y-93778374D01*
X40793557Y-93608535D01*
X40877222Y-93452010D01*
X40877223Y-93452009D01*
X40989814Y-93314814D01*
X41091271Y-93231552D01*
X41127009Y-93202222D01*
X41283534Y-93118557D01*
X41453373Y-93067037D01*
X41630000Y-93049641D01*
X41806626Y-93067037D01*
G37*
G36*
X44306626Y-93067037D02*
G01*
X44476465Y-93118557D01*
X44476467Y-93118558D01*
X44632989Y-93202221D01*
X44770186Y-93314814D01*
X44853448Y-93416271D01*
X44882778Y-93452009D01*
X44966443Y-93608534D01*
X45017963Y-93778373D01*
X45017963Y-93778375D01*
X45025609Y-93856000D01*
X45031000Y-93910742D01*
X45031000Y-94249257D01*
X45017963Y-94381626D01*
X44966443Y-94551466D01*
X44882778Y-94707991D01*
X44853448Y-94743729D01*
X44770186Y-94845186D01*
X44675250Y-94923097D01*
X44632991Y-94957778D01*
X44476466Y-95041443D01*
X44306627Y-95092963D01*
X44130000Y-95110359D01*
X43953374Y-95092963D01*
X43783535Y-95041443D01*
X43627010Y-94957778D01*
X43489815Y-94845185D01*
X43377222Y-94707991D01*
X43293557Y-94551466D01*
X43242037Y-94381627D01*
X43229000Y-94249258D01*
X43229000Y-93910743D01*
X43242037Y-93778374D01*
X43293557Y-93608535D01*
X43377222Y-93452010D01*
X43377223Y-93452009D01*
X43489814Y-93314814D01*
X43591271Y-93231552D01*
X43627009Y-93202222D01*
X43783534Y-93118557D01*
X43953373Y-93067037D01*
X44130000Y-93049641D01*
X44306626Y-93067037D01*
G37*
G36*
X46806626Y-93067037D02*
G01*
X46976465Y-93118557D01*
X46976467Y-93118558D01*
X47132989Y-93202221D01*
X47270186Y-93314814D01*
X47353448Y-93416271D01*
X47382778Y-93452009D01*
X47466443Y-93608534D01*
X47517963Y-93778373D01*
X47517963Y-93778375D01*
X47525609Y-93856000D01*
X47531000Y-93910742D01*
X47531000Y-94249257D01*
X47517963Y-94381626D01*
X47466443Y-94551466D01*
X47382778Y-94707991D01*
X47353448Y-94743729D01*
X47270186Y-94845186D01*
X47175250Y-94923097D01*
X47132991Y-94957778D01*
X46976466Y-95041443D01*
X46806627Y-95092963D01*
X46630000Y-95110359D01*
X46453374Y-95092963D01*
X46283535Y-95041443D01*
X46127010Y-94957778D01*
X45989815Y-94845185D01*
X45877222Y-94707991D01*
X45793557Y-94551466D01*
X45742037Y-94381627D01*
X45729000Y-94249258D01*
X45729000Y-93910743D01*
X45742037Y-93778374D01*
X45793557Y-93608535D01*
X45877222Y-93452010D01*
X45877223Y-93452009D01*
X45989814Y-93314814D01*
X46091271Y-93231552D01*
X46127009Y-93202222D01*
X46283534Y-93118557D01*
X46453373Y-93067037D01*
X46630000Y-93049641D01*
X46806626Y-93067037D01*
G37*
G36*
X39888600Y-93057989D02*
G01*
X39921652Y-93068015D01*
X39952103Y-93084292D01*
X39978799Y-93106201D01*
X40000708Y-93132897D01*
X40016985Y-93163348D01*
X40027011Y-93196400D01*
X40031000Y-93236903D01*
X40031000Y-94923097D01*
X40027011Y-94963600D01*
X40016985Y-94996652D01*
X40000708Y-95027103D01*
X39978799Y-95053799D01*
X39952103Y-95075708D01*
X39921652Y-95091985D01*
X39888600Y-95102011D01*
X39848097Y-95106000D01*
X38411903Y-95106000D01*
X38371400Y-95102011D01*
X38338348Y-95091985D01*
X38307897Y-95075708D01*
X38281201Y-95053799D01*
X38259292Y-95027103D01*
X38243015Y-94996652D01*
X38232989Y-94963600D01*
X38229000Y-94923097D01*
X38229000Y-93236903D01*
X38232989Y-93196400D01*
X38243015Y-93163348D01*
X38259292Y-93132897D01*
X38281201Y-93106201D01*
X38307897Y-93084292D01*
X38338348Y-93068015D01*
X38371400Y-93057989D01*
X38411903Y-93054000D01*
X39848097Y-93054000D01*
X39888600Y-93057989D01*
G37*
G36*
X51681000Y-94956000D02*
G01*
X50879000Y-94956000D01*
X50879000Y-94254000D01*
X51681000Y-94254000D01*
X51681000Y-94956000D01*
G37*
G36*
X53681000Y-94006000D02*
G01*
X52879000Y-94006000D01*
X52879000Y-93304000D01*
X53681000Y-93304000D01*
X53681000Y-94006000D01*
G37*
G36*
X57901968Y-92358565D02*
G01*
X57940638Y-92370296D01*
X57976277Y-92389346D01*
X58007517Y-92414983D01*
X58033154Y-92446223D01*
X58052204Y-92481862D01*
X58063935Y-92520532D01*
X58068500Y-92566888D01*
X58068500Y-93643112D01*
X58063935Y-93689468D01*
X58052204Y-93728138D01*
X58033154Y-93763777D01*
X58007517Y-93795017D01*
X57976277Y-93820654D01*
X57940638Y-93839704D01*
X57901968Y-93851435D01*
X57855612Y-93856000D01*
X57204388Y-93856000D01*
X57158032Y-93851435D01*
X57119362Y-93839704D01*
X57083723Y-93820654D01*
X57052483Y-93795017D01*
X57026846Y-93763777D01*
X57007796Y-93728138D01*
X56996065Y-93689468D01*
X56991500Y-93643112D01*
X56991500Y-92566888D01*
X56996065Y-92520532D01*
X57007796Y-92481862D01*
X57026846Y-92446223D01*
X57052483Y-92414983D01*
X57083723Y-92389346D01*
X57119362Y-92370296D01*
X57158032Y-92358565D01*
X57204388Y-92354000D01*
X57855612Y-92354000D01*
X57901968Y-92358565D01*
G37*
G36*
X56026968Y-92358565D02*
G01*
X56065638Y-92370296D01*
X56101277Y-92389346D01*
X56132517Y-92414983D01*
X56158154Y-92446223D01*
X56177204Y-92481862D01*
X56188935Y-92520532D01*
X56193500Y-92566888D01*
X56193500Y-93643112D01*
X56188935Y-93689468D01*
X56177204Y-93728138D01*
X56158154Y-93763777D01*
X56132517Y-93795017D01*
X56101277Y-93820654D01*
X56065638Y-93839704D01*
X56026968Y-93851435D01*
X55980612Y-93856000D01*
X55329388Y-93856000D01*
X55283032Y-93851435D01*
X55244362Y-93839704D01*
X55208723Y-93820654D01*
X55177483Y-93795017D01*
X55151846Y-93763777D01*
X55132796Y-93728138D01*
X55121065Y-93689468D01*
X55116500Y-93643112D01*
X55116500Y-92566888D01*
X55121065Y-92520532D01*
X55132796Y-92481862D01*
X55151846Y-92446223D01*
X55177483Y-92414983D01*
X55208723Y-92389346D01*
X55244362Y-92370296D01*
X55283032Y-92358565D01*
X55329388Y-92354000D01*
X55980612Y-92354000D01*
X56026968Y-92358565D01*
G37*
G36*
X78115443Y-90935519D02*
G01*
X78181627Y-90942037D01*
X78351466Y-90993557D01*
X78507991Y-91077222D01*
X78543729Y-91106552D01*
X78645186Y-91189814D01*
X78718378Y-91279000D01*
X78757778Y-91327009D01*
X78841443Y-91483534D01*
X78892963Y-91653373D01*
X78910359Y-91830000D01*
X78892963Y-92006627D01*
X78841443Y-92176466D01*
X78757778Y-92332991D01*
X78740536Y-92354000D01*
X78645186Y-92470186D01*
X78543729Y-92553448D01*
X78507991Y-92582778D01*
X78351466Y-92666443D01*
X78181627Y-92717963D01*
X78115442Y-92724482D01*
X78049260Y-92731000D01*
X77710740Y-92731000D01*
X77644558Y-92724482D01*
X77578373Y-92717963D01*
X77408534Y-92666443D01*
X77252009Y-92582778D01*
X77216271Y-92553448D01*
X77114814Y-92470186D01*
X77019464Y-92354000D01*
X77002222Y-92332991D01*
X76918557Y-92176466D01*
X76867037Y-92006627D01*
X76849641Y-91830000D01*
X76867037Y-91653373D01*
X76918557Y-91483534D01*
X77002222Y-91327009D01*
X77041622Y-91279000D01*
X77114814Y-91189814D01*
X77216271Y-91106552D01*
X77252009Y-91077222D01*
X77408534Y-90993557D01*
X77578373Y-90942037D01*
X77644557Y-90935519D01*
X77710740Y-90929000D01*
X78049260Y-90929000D01*
X78115443Y-90935519D01*
G37*
G36*
X70856000Y-92481000D02*
G01*
X69304000Y-92481000D01*
X69304000Y-86079000D01*
X70856000Y-86079000D01*
X70856000Y-92481000D01*
G37*
G36*
X64956000Y-92481000D02*
G01*
X63404000Y-92481000D01*
X63404000Y-86079000D01*
X64956000Y-86079000D01*
X64956000Y-92481000D01*
G37*
G36*
X78115443Y-88435519D02*
G01*
X78181627Y-88442037D01*
X78351466Y-88493557D01*
X78507991Y-88577222D01*
X78512594Y-88581000D01*
X78645186Y-88689814D01*
X78728448Y-88791271D01*
X78757778Y-88827009D01*
X78841443Y-88983534D01*
X78892963Y-89153373D01*
X78910359Y-89330000D01*
X78892963Y-89506627D01*
X78841443Y-89676466D01*
X78757778Y-89832991D01*
X78728448Y-89868729D01*
X78645186Y-89970186D01*
X78543729Y-90053448D01*
X78507991Y-90082778D01*
X78351466Y-90166443D01*
X78181627Y-90217963D01*
X78115442Y-90224482D01*
X78049260Y-90231000D01*
X77710740Y-90231000D01*
X77644558Y-90224482D01*
X77578373Y-90217963D01*
X77408534Y-90166443D01*
X77252009Y-90082778D01*
X77216271Y-90053448D01*
X77114814Y-89970186D01*
X77031552Y-89868729D01*
X77002222Y-89832991D01*
X76918557Y-89676466D01*
X76867037Y-89506627D01*
X76849641Y-89330000D01*
X76867037Y-89153373D01*
X76918557Y-88983534D01*
X77002222Y-88827009D01*
X77031552Y-88791271D01*
X77114814Y-88689814D01*
X77247406Y-88581000D01*
X77252009Y-88577222D01*
X77408534Y-88493557D01*
X77578373Y-88442037D01*
X77644557Y-88435519D01*
X77710740Y-88429000D01*
X78049260Y-88429000D01*
X78115443Y-88435519D01*
G37*
G36*
X57901968Y-86583565D02*
G01*
X57940638Y-86595296D01*
X57976277Y-86614346D01*
X58007517Y-86639983D01*
X58033154Y-86671223D01*
X58052204Y-86706862D01*
X58063935Y-86745532D01*
X58068500Y-86791888D01*
X58068500Y-87868112D01*
X58063935Y-87914468D01*
X58052204Y-87953138D01*
X58033154Y-87988777D01*
X58007517Y-88020017D01*
X57976277Y-88045654D01*
X57940638Y-88064704D01*
X57901968Y-88076435D01*
X57855612Y-88081000D01*
X57204388Y-88081000D01*
X57158032Y-88076435D01*
X57119362Y-88064704D01*
X57083723Y-88045654D01*
X57052483Y-88020017D01*
X57026846Y-87988777D01*
X57007796Y-87953138D01*
X56996065Y-87914468D01*
X56991500Y-87868112D01*
X56991500Y-86791888D01*
X56996065Y-86745532D01*
X57007796Y-86706862D01*
X57026846Y-86671223D01*
X57052483Y-86639983D01*
X57083723Y-86614346D01*
X57119362Y-86595296D01*
X57158032Y-86583565D01*
X57204388Y-86579000D01*
X57855612Y-86579000D01*
X57901968Y-86583565D01*
G37*
G36*
X56026968Y-86583565D02*
G01*
X56065638Y-86595296D01*
X56101277Y-86614346D01*
X56132517Y-86639983D01*
X56158154Y-86671223D01*
X56177204Y-86706862D01*
X56188935Y-86745532D01*
X56193500Y-86791888D01*
X56193500Y-87868112D01*
X56188935Y-87914468D01*
X56177204Y-87953138D01*
X56158154Y-87988777D01*
X56132517Y-88020017D01*
X56101277Y-88045654D01*
X56065638Y-88064704D01*
X56026968Y-88076435D01*
X55980612Y-88081000D01*
X55329388Y-88081000D01*
X55283032Y-88076435D01*
X55244362Y-88064704D01*
X55208723Y-88045654D01*
X55177483Y-88020017D01*
X55151846Y-87988777D01*
X55132796Y-87953138D01*
X55121065Y-87914468D01*
X55116500Y-87868112D01*
X55116500Y-86791888D01*
X55121065Y-86745532D01*
X55132796Y-86706862D01*
X55151846Y-86671223D01*
X55177483Y-86639983D01*
X55208723Y-86614346D01*
X55244362Y-86595296D01*
X55283032Y-86583565D01*
X55329388Y-86579000D01*
X55980612Y-86579000D01*
X56026968Y-86583565D01*
G37*
G36*
X53681000Y-87156000D02*
G01*
X52879000Y-87156000D01*
X52879000Y-86454000D01*
X53681000Y-86454000D01*
X53681000Y-87156000D01*
G37*
G36*
X44306626Y-84317037D02*
G01*
X44476465Y-84368557D01*
X44476467Y-84368558D01*
X44632989Y-84452221D01*
X44770186Y-84564814D01*
X44853448Y-84666271D01*
X44882778Y-84702009D01*
X44966443Y-84858534D01*
X45017963Y-85028373D01*
X45017963Y-85028375D01*
X45025609Y-85106000D01*
X45031000Y-85160742D01*
X45031000Y-85499257D01*
X45017963Y-85631626D01*
X44966443Y-85801466D01*
X44882778Y-85957991D01*
X44853448Y-85993729D01*
X44770186Y-86095186D01*
X44675250Y-86173097D01*
X44632991Y-86207778D01*
X44476466Y-86291443D01*
X44306627Y-86342963D01*
X44130000Y-86360359D01*
X43953374Y-86342963D01*
X43783535Y-86291443D01*
X43627010Y-86207778D01*
X43489815Y-86095185D01*
X43377222Y-85957991D01*
X43293557Y-85801466D01*
X43242037Y-85631627D01*
X43229000Y-85499258D01*
X43229000Y-85160743D01*
X43242037Y-85028374D01*
X43293557Y-84858535D01*
X43377222Y-84702010D01*
X43377223Y-84702009D01*
X43489814Y-84564814D01*
X43591271Y-84481552D01*
X43627009Y-84452222D01*
X43783534Y-84368557D01*
X43953373Y-84317037D01*
X44130000Y-84299641D01*
X44306626Y-84317037D01*
G37*
G36*
X46806626Y-84317037D02*
G01*
X46976465Y-84368557D01*
X46976467Y-84368558D01*
X47132989Y-84452221D01*
X47270186Y-84564814D01*
X47353448Y-84666271D01*
X47382778Y-84702009D01*
X47466443Y-84858534D01*
X47517963Y-85028373D01*
X47517963Y-85028375D01*
X47525609Y-85106000D01*
X47531000Y-85160742D01*
X47531000Y-85499257D01*
X47517963Y-85631626D01*
X47466443Y-85801466D01*
X47382778Y-85957991D01*
X47353448Y-85993729D01*
X47270186Y-86095186D01*
X47175250Y-86173097D01*
X47132991Y-86207778D01*
X46976466Y-86291443D01*
X46806627Y-86342963D01*
X46630000Y-86360359D01*
X46453374Y-86342963D01*
X46283535Y-86291443D01*
X46127010Y-86207778D01*
X45989815Y-86095185D01*
X45877222Y-85957991D01*
X45793557Y-85801466D01*
X45742037Y-85631627D01*
X45729000Y-85499258D01*
X45729000Y-85160743D01*
X45742037Y-85028374D01*
X45793557Y-84858535D01*
X45877222Y-84702010D01*
X45877223Y-84702009D01*
X45989814Y-84564814D01*
X46091271Y-84481552D01*
X46127009Y-84452222D01*
X46283534Y-84368557D01*
X46453373Y-84317037D01*
X46630000Y-84299641D01*
X46806626Y-84317037D01*
G37*
G36*
X41806626Y-84317037D02*
G01*
X41976465Y-84368557D01*
X41976467Y-84368558D01*
X42132989Y-84452221D01*
X42270186Y-84564814D01*
X42353448Y-84666271D01*
X42382778Y-84702009D01*
X42466443Y-84858534D01*
X42517963Y-85028373D01*
X42517963Y-85028375D01*
X42525609Y-85106000D01*
X42531000Y-85160742D01*
X42531000Y-85499257D01*
X42517963Y-85631626D01*
X42466443Y-85801466D01*
X42382778Y-85957991D01*
X42353448Y-85993729D01*
X42270186Y-86095186D01*
X42175250Y-86173097D01*
X42132991Y-86207778D01*
X41976466Y-86291443D01*
X41806627Y-86342963D01*
X41630000Y-86360359D01*
X41453374Y-86342963D01*
X41283535Y-86291443D01*
X41127010Y-86207778D01*
X40989815Y-86095185D01*
X40877222Y-85957991D01*
X40793557Y-85801466D01*
X40742037Y-85631627D01*
X40729000Y-85499258D01*
X40729000Y-85160743D01*
X40742037Y-85028374D01*
X40793557Y-84858535D01*
X40877222Y-84702010D01*
X40877223Y-84702009D01*
X40989814Y-84564814D01*
X41091271Y-84481552D01*
X41127009Y-84452222D01*
X41283534Y-84368557D01*
X41453373Y-84317037D01*
X41630000Y-84299641D01*
X41806626Y-84317037D01*
G37*
G36*
X39888600Y-84307989D02*
G01*
X39921652Y-84318015D01*
X39952103Y-84334292D01*
X39978799Y-84356201D01*
X40000708Y-84382897D01*
X40016985Y-84413348D01*
X40027011Y-84446400D01*
X40031000Y-84486903D01*
X40031000Y-86173097D01*
X40027011Y-86213600D01*
X40016985Y-86246652D01*
X40000708Y-86277103D01*
X39978799Y-86303799D01*
X39952103Y-86325708D01*
X39921652Y-86341985D01*
X39888600Y-86352011D01*
X39848097Y-86356000D01*
X38411903Y-86356000D01*
X38371400Y-86352011D01*
X38338348Y-86341985D01*
X38307897Y-86325708D01*
X38281201Y-86303799D01*
X38259292Y-86277103D01*
X38243015Y-86246652D01*
X38232989Y-86213600D01*
X38229000Y-86173097D01*
X38229000Y-84486903D01*
X38232989Y-84446400D01*
X38243015Y-84413348D01*
X38259292Y-84382897D01*
X38281201Y-84356201D01*
X38307897Y-84334292D01*
X38338348Y-84318015D01*
X38371400Y-84307989D01*
X38411903Y-84304000D01*
X39848097Y-84304000D01*
X39888600Y-84307989D01*
G37*
G36*
X51681000Y-86206000D02*
G01*
X50879000Y-86206000D01*
X50879000Y-85504000D01*
X51681000Y-85504000D01*
X51681000Y-86206000D01*
G37*
G36*
X53681000Y-85256000D02*
G01*
X52879000Y-85256000D01*
X52879000Y-84554000D01*
X53681000Y-84554000D01*
X53681000Y-85256000D01*
G37*
G36*
X56026968Y-83608565D02*
G01*
X56065638Y-83620296D01*
X56101277Y-83639346D01*
X56132517Y-83664983D01*
X56158154Y-83696223D01*
X56177204Y-83731862D01*
X56188935Y-83770532D01*
X56193500Y-83816888D01*
X56193500Y-84893112D01*
X56188935Y-84939468D01*
X56177204Y-84978138D01*
X56158154Y-85013777D01*
X56132517Y-85045017D01*
X56101277Y-85070654D01*
X56065638Y-85089704D01*
X56026968Y-85101435D01*
X55980612Y-85106000D01*
X55329388Y-85106000D01*
X55283032Y-85101435D01*
X55244362Y-85089704D01*
X55208723Y-85070654D01*
X55177483Y-85045017D01*
X55151846Y-85013777D01*
X55132796Y-84978138D01*
X55121065Y-84939468D01*
X55116500Y-84893112D01*
X55116500Y-83816888D01*
X55121065Y-83770532D01*
X55132796Y-83731862D01*
X55151846Y-83696223D01*
X55177483Y-83664983D01*
X55208723Y-83639346D01*
X55244362Y-83620296D01*
X55283032Y-83608565D01*
X55329388Y-83604000D01*
X55980612Y-83604000D01*
X56026968Y-83608565D01*
G37*
G36*
X57901968Y-83608565D02*
G01*
X57940638Y-83620296D01*
X57976277Y-83639346D01*
X58007517Y-83664983D01*
X58033154Y-83696223D01*
X58052204Y-83731862D01*
X58063935Y-83770532D01*
X58068500Y-83816888D01*
X58068500Y-84893112D01*
X58063935Y-84939468D01*
X58052204Y-84978138D01*
X58033154Y-85013777D01*
X58007517Y-85045017D01*
X57976277Y-85070654D01*
X57940638Y-85089704D01*
X57901968Y-85101435D01*
X57855612Y-85106000D01*
X57204388Y-85106000D01*
X57158032Y-85101435D01*
X57119362Y-85089704D01*
X57083723Y-85070654D01*
X57052483Y-85045017D01*
X57026846Y-85013777D01*
X57007796Y-84978138D01*
X56996065Y-84939468D01*
X56991500Y-84893112D01*
X56991500Y-83816888D01*
X56996065Y-83770532D01*
X57007796Y-83731862D01*
X57026846Y-83696223D01*
X57052483Y-83664983D01*
X57083723Y-83639346D01*
X57119362Y-83620296D01*
X57158032Y-83608565D01*
X57204388Y-83604000D01*
X57855612Y-83604000D01*
X57901968Y-83608565D01*
G37*
G36*
X78239468Y-82733565D02*
G01*
X78278138Y-82745296D01*
X78313777Y-82764346D01*
X78345017Y-82789983D01*
X78370654Y-82821223D01*
X78389704Y-82856862D01*
X78401435Y-82895532D01*
X78406000Y-82941888D01*
X78406000Y-84018112D01*
X78401435Y-84064468D01*
X78389704Y-84103138D01*
X78370654Y-84138777D01*
X78345017Y-84170017D01*
X78313777Y-84195654D01*
X78278138Y-84214704D01*
X78239468Y-84226435D01*
X78193112Y-84231000D01*
X77541888Y-84231000D01*
X77495532Y-84226435D01*
X77456862Y-84214704D01*
X77421223Y-84195654D01*
X77389983Y-84170017D01*
X77364346Y-84138777D01*
X77345296Y-84103138D01*
X77333565Y-84064468D01*
X77329000Y-84018112D01*
X77329000Y-82941888D01*
X77333565Y-82895532D01*
X77345296Y-82856862D01*
X77364346Y-82821223D01*
X77389983Y-82789983D01*
X77421223Y-82764346D01*
X77456862Y-82745296D01*
X77495532Y-82733565D01*
X77541888Y-82729000D01*
X78193112Y-82729000D01*
X78239468Y-82733565D01*
G37*
G36*
X76364468Y-82733565D02*
G01*
X76403138Y-82745296D01*
X76438777Y-82764346D01*
X76470017Y-82789983D01*
X76495654Y-82821223D01*
X76514704Y-82856862D01*
X76526435Y-82895532D01*
X76531000Y-82941888D01*
X76531000Y-84018112D01*
X76526435Y-84064468D01*
X76514704Y-84103138D01*
X76495654Y-84138777D01*
X76470017Y-84170017D01*
X76438777Y-84195654D01*
X76403138Y-84214704D01*
X76364468Y-84226435D01*
X76318112Y-84231000D01*
X75666888Y-84231000D01*
X75620532Y-84226435D01*
X75581862Y-84214704D01*
X75546223Y-84195654D01*
X75514983Y-84170017D01*
X75489346Y-84138777D01*
X75470296Y-84103138D01*
X75458565Y-84064468D01*
X75454000Y-84018112D01*
X75454000Y-82941888D01*
X75458565Y-82895532D01*
X75470296Y-82856862D01*
X75489346Y-82821223D01*
X75514983Y-82789983D01*
X75546223Y-82764346D01*
X75581862Y-82745296D01*
X75620532Y-82733565D01*
X75666888Y-82729000D01*
X76318112Y-82729000D01*
X76364468Y-82733565D01*
G37*
G36*
X71614468Y-82733565D02*
G01*
X71653138Y-82745296D01*
X71688777Y-82764346D01*
X71720017Y-82789983D01*
X71745654Y-82821223D01*
X71764704Y-82856862D01*
X71776435Y-82895532D01*
X71781000Y-82941888D01*
X71781000Y-83593112D01*
X71776435Y-83639468D01*
X71764704Y-83678138D01*
X71745654Y-83713777D01*
X71720017Y-83745017D01*
X71688777Y-83770654D01*
X71653138Y-83789704D01*
X71614468Y-83801435D01*
X71568112Y-83806000D01*
X70491888Y-83806000D01*
X70445532Y-83801435D01*
X70406862Y-83789704D01*
X70371223Y-83770654D01*
X70339983Y-83745017D01*
X70314346Y-83713777D01*
X70295296Y-83678138D01*
X70283565Y-83639468D01*
X70279000Y-83593112D01*
X70279000Y-82941888D01*
X70283565Y-82895532D01*
X70295296Y-82856862D01*
X70314346Y-82821223D01*
X70339983Y-82789983D01*
X70371223Y-82764346D01*
X70406862Y-82745296D01*
X70445532Y-82733565D01*
X70491888Y-82729000D01*
X71568112Y-82729000D01*
X71614468Y-82733565D01*
G37*
G36*
X68214468Y-82733565D02*
G01*
X68253138Y-82745296D01*
X68288777Y-82764346D01*
X68320017Y-82789983D01*
X68345654Y-82821223D01*
X68364704Y-82856862D01*
X68376435Y-82895532D01*
X68381000Y-82941888D01*
X68381000Y-83593112D01*
X68376435Y-83639468D01*
X68364704Y-83678138D01*
X68345654Y-83713777D01*
X68320017Y-83745017D01*
X68288777Y-83770654D01*
X68253138Y-83789704D01*
X68214468Y-83801435D01*
X68168112Y-83806000D01*
X67091888Y-83806000D01*
X67045532Y-83801435D01*
X67006862Y-83789704D01*
X66971223Y-83770654D01*
X66939983Y-83745017D01*
X66914346Y-83713777D01*
X66895296Y-83678138D01*
X66883565Y-83639468D01*
X66879000Y-83593112D01*
X66879000Y-82941888D01*
X66883565Y-82895532D01*
X66895296Y-82856862D01*
X66914346Y-82821223D01*
X66939983Y-82789983D01*
X66971223Y-82764346D01*
X67006862Y-82745296D01*
X67045532Y-82733565D01*
X67091888Y-82729000D01*
X68168112Y-82729000D01*
X68214468Y-82733565D01*
G37*
G36*
X68214468Y-80858565D02*
G01*
X68253138Y-80870296D01*
X68288777Y-80889346D01*
X68320017Y-80914983D01*
X68345654Y-80946223D01*
X68364704Y-80981862D01*
X68376435Y-81020532D01*
X68381000Y-81066888D01*
X68381000Y-81718112D01*
X68376435Y-81764468D01*
X68364704Y-81803138D01*
X68345654Y-81838777D01*
X68320017Y-81870017D01*
X68288777Y-81895654D01*
X68253138Y-81914704D01*
X68214468Y-81926435D01*
X68168112Y-81931000D01*
X67091888Y-81931000D01*
X67045532Y-81926435D01*
X67006862Y-81914704D01*
X66971223Y-81895654D01*
X66939983Y-81870017D01*
X66914346Y-81838777D01*
X66895296Y-81803138D01*
X66883565Y-81764468D01*
X66879000Y-81718112D01*
X66879000Y-81066888D01*
X66883565Y-81020532D01*
X66895296Y-80981862D01*
X66914346Y-80946223D01*
X66939983Y-80914983D01*
X66971223Y-80889346D01*
X67006862Y-80870296D01*
X67045532Y-80858565D01*
X67091888Y-80854000D01*
X68168112Y-80854000D01*
X68214468Y-80858565D01*
G37*
G36*
X71614468Y-80858565D02*
G01*
X71653138Y-80870296D01*
X71688777Y-80889346D01*
X71720017Y-80914983D01*
X71745654Y-80946223D01*
X71764704Y-80981862D01*
X71776435Y-81020532D01*
X71781000Y-81066888D01*
X71781000Y-81718112D01*
X71776435Y-81764468D01*
X71764704Y-81803138D01*
X71745654Y-81838777D01*
X71720017Y-81870017D01*
X71688777Y-81895654D01*
X71653138Y-81914704D01*
X71614468Y-81926435D01*
X71568112Y-81931000D01*
X70491888Y-81931000D01*
X70445532Y-81926435D01*
X70406862Y-81914704D01*
X70371223Y-81895654D01*
X70339983Y-81870017D01*
X70314346Y-81838777D01*
X70295296Y-81803138D01*
X70283565Y-81764468D01*
X70279000Y-81718112D01*
X70279000Y-81066888D01*
X70283565Y-81020532D01*
X70295296Y-80981862D01*
X70314346Y-80946223D01*
X70339983Y-80914983D01*
X70371223Y-80889346D01*
X70406862Y-80870296D01*
X70445532Y-80858565D01*
X70491888Y-80854000D01*
X71568112Y-80854000D01*
X71614468Y-80858565D01*
G37*
G36*
X78505256Y-76971298D02*
G01*
X78611579Y-76992447D01*
X78912042Y-77116903D01*
X79182451Y-77297585D01*
X79412415Y-77527549D01*
X79593097Y-77797958D01*
X79706080Y-78070722D01*
X79717553Y-78098422D01*
X79778735Y-78406000D01*
X79781000Y-78417391D01*
X79781000Y-78742609D01*
X79717553Y-79061579D01*
X79664447Y-79189788D01*
X79599587Y-79346375D01*
X79593097Y-79362042D01*
X79412415Y-79632451D01*
X79182451Y-79862415D01*
X78912042Y-80043097D01*
X78912041Y-80043098D01*
X78912040Y-80043098D01*
X78875691Y-80058154D01*
X78611579Y-80167553D01*
X78505256Y-80188702D01*
X78292611Y-80231000D01*
X77967389Y-80231000D01*
X77754744Y-80188702D01*
X77648421Y-80167553D01*
X77384309Y-80058154D01*
X77347960Y-80043098D01*
X77347959Y-80043098D01*
X77347958Y-80043097D01*
X77077549Y-79862415D01*
X76847585Y-79632451D01*
X76666903Y-79362042D01*
X76660414Y-79346375D01*
X76595553Y-79189788D01*
X76542447Y-79061579D01*
X76479000Y-78742609D01*
X76479000Y-78417391D01*
X76481266Y-78406000D01*
X76542447Y-78098422D01*
X76553921Y-78070722D01*
X76666903Y-77797958D01*
X76847585Y-77527549D01*
X77077549Y-77297585D01*
X77347958Y-77116903D01*
X77648421Y-76992447D01*
X77754744Y-76971298D01*
X77967389Y-76929000D01*
X78292611Y-76929000D01*
X78505256Y-76971298D01*
G37*
G36*
X30505256Y-76971298D02*
G01*
X30611579Y-76992447D01*
X30912042Y-77116903D01*
X31182451Y-77297585D01*
X31412415Y-77527549D01*
X31593097Y-77797958D01*
X31706080Y-78070722D01*
X31717553Y-78098422D01*
X31778735Y-78406000D01*
X31781000Y-78417391D01*
X31781000Y-78742609D01*
X31717553Y-79061579D01*
X31664447Y-79189788D01*
X31599587Y-79346375D01*
X31593097Y-79362042D01*
X31412415Y-79632451D01*
X31182451Y-79862415D01*
X30912042Y-80043097D01*
X30912041Y-80043098D01*
X30912040Y-80043098D01*
X30875691Y-80058154D01*
X30611579Y-80167553D01*
X30505256Y-80188702D01*
X30292611Y-80231000D01*
X29967389Y-80231000D01*
X29754744Y-80188702D01*
X29648421Y-80167553D01*
X29384309Y-80058154D01*
X29347960Y-80043098D01*
X29347959Y-80043098D01*
X29347958Y-80043097D01*
X29077549Y-79862415D01*
X28847585Y-79632451D01*
X28666903Y-79362042D01*
X28660414Y-79346375D01*
X28595553Y-79189788D01*
X28542447Y-79061579D01*
X28479000Y-78742609D01*
X28479000Y-78417391D01*
X28481266Y-78406000D01*
X28542447Y-78098422D01*
X28553921Y-78070722D01*
X28666903Y-77797958D01*
X28847585Y-77527549D01*
X29077549Y-77297585D01*
X29347958Y-77116903D01*
X29648421Y-76992447D01*
X29754744Y-76971298D01*
X29967389Y-76929000D01*
X30292611Y-76929000D01*
X30505256Y-76971298D01*
G37*
G36*
X64314468Y-79021065D02*
G01*
X64353138Y-79032796D01*
X64388777Y-79051846D01*
X64420017Y-79077483D01*
X64445654Y-79108723D01*
X64464704Y-79144362D01*
X64476435Y-79183032D01*
X64481000Y-79229388D01*
X64481000Y-79880612D01*
X64476435Y-79926968D01*
X64464704Y-79965638D01*
X64445654Y-80001277D01*
X64420017Y-80032517D01*
X64388777Y-80058154D01*
X64353138Y-80077204D01*
X64314468Y-80088935D01*
X64268112Y-80093500D01*
X63191888Y-80093500D01*
X63145532Y-80088935D01*
X63106862Y-80077204D01*
X63071223Y-80058154D01*
X63039983Y-80032517D01*
X63014346Y-80001277D01*
X62995296Y-79965638D01*
X62983565Y-79926968D01*
X62979000Y-79880612D01*
X62979000Y-79229388D01*
X62983565Y-79183032D01*
X62995296Y-79144362D01*
X63014346Y-79108723D01*
X63039983Y-79077483D01*
X63071223Y-79051846D01*
X63106862Y-79032796D01*
X63145532Y-79021065D01*
X63191888Y-79016500D01*
X64268112Y-79016500D01*
X64314468Y-79021065D01*
G37*
G36*
X71531000Y-79381000D02*
G01*
X69729000Y-79381000D01*
X69729000Y-77579000D01*
X71531000Y-77579000D01*
X71531000Y-79381000D01*
G37*
G36*
X68203512Y-77583927D02*
G01*
X68352812Y-77613624D01*
X68516784Y-77681544D01*
X68664354Y-77780147D01*
X68789853Y-77905646D01*
X68888456Y-78053216D01*
X68956376Y-78217188D01*
X68991000Y-78391259D01*
X68991000Y-78568741D01*
X68956376Y-78742812D01*
X68888456Y-78906784D01*
X68789853Y-79054354D01*
X68664354Y-79179853D01*
X68516784Y-79278456D01*
X68352812Y-79346376D01*
X68203512Y-79376073D01*
X68178742Y-79381000D01*
X68001258Y-79381000D01*
X67976488Y-79376073D01*
X67827188Y-79346376D01*
X67663216Y-79278456D01*
X67515646Y-79179853D01*
X67390147Y-79054354D01*
X67291544Y-78906784D01*
X67223624Y-78742812D01*
X67189000Y-78568741D01*
X67189000Y-78391259D01*
X67223624Y-78217188D01*
X67291544Y-78053216D01*
X67390147Y-77905646D01*
X67515646Y-77780147D01*
X67663216Y-77681544D01*
X67827188Y-77613624D01*
X67976488Y-77583927D01*
X68001258Y-77579000D01*
X68178742Y-77579000D01*
X68203512Y-77583927D01*
G37*
G36*
X56026968Y-77858565D02*
G01*
X56065638Y-77870296D01*
X56101277Y-77889346D01*
X56132517Y-77914983D01*
X56158154Y-77946223D01*
X56177204Y-77981862D01*
X56188935Y-78020532D01*
X56193500Y-78066888D01*
X56193500Y-79143112D01*
X56188935Y-79189468D01*
X56177204Y-79228138D01*
X56158154Y-79263777D01*
X56132517Y-79295017D01*
X56101277Y-79320654D01*
X56065638Y-79339704D01*
X56026968Y-79351435D01*
X55980612Y-79356000D01*
X55329388Y-79356000D01*
X55283032Y-79351435D01*
X55244362Y-79339704D01*
X55208723Y-79320654D01*
X55177483Y-79295017D01*
X55151846Y-79263777D01*
X55132796Y-79228138D01*
X55121065Y-79189468D01*
X55116500Y-79143112D01*
X55116500Y-78066888D01*
X55121065Y-78020532D01*
X55132796Y-77981862D01*
X55151846Y-77946223D01*
X55177483Y-77914983D01*
X55208723Y-77889346D01*
X55244362Y-77870296D01*
X55283032Y-77858565D01*
X55329388Y-77854000D01*
X55980612Y-77854000D01*
X56026968Y-77858565D01*
G37*
G36*
X57901968Y-77858565D02*
G01*
X57940638Y-77870296D01*
X57976277Y-77889346D01*
X58007517Y-77914983D01*
X58033154Y-77946223D01*
X58052204Y-77981862D01*
X58063935Y-78020532D01*
X58068500Y-78066888D01*
X58068500Y-79143112D01*
X58063935Y-79189468D01*
X58052204Y-79228138D01*
X58033154Y-79263777D01*
X58007517Y-79295017D01*
X57976277Y-79320654D01*
X57940638Y-79339704D01*
X57901968Y-79351435D01*
X57855612Y-79356000D01*
X57204388Y-79356000D01*
X57158032Y-79351435D01*
X57119362Y-79339704D01*
X57083723Y-79320654D01*
X57052483Y-79295017D01*
X57026846Y-79263777D01*
X57007796Y-79228138D01*
X56996065Y-79189468D01*
X56991500Y-79143112D01*
X56991500Y-78066888D01*
X56996065Y-78020532D01*
X57007796Y-77981862D01*
X57026846Y-77946223D01*
X57052483Y-77914983D01*
X57083723Y-77889346D01*
X57119362Y-77870296D01*
X57158032Y-77858565D01*
X57204388Y-77854000D01*
X57855612Y-77854000D01*
X57901968Y-77858565D01*
G37*
G36*
X53681000Y-78406000D02*
G01*
X52879000Y-78406000D01*
X52879000Y-77704000D01*
X53681000Y-77704000D01*
X53681000Y-78406000D01*
G37*
G36*
X64314468Y-77146065D02*
G01*
X64353138Y-77157796D01*
X64388777Y-77176846D01*
X64420017Y-77202483D01*
X64445654Y-77233723D01*
X64464704Y-77269362D01*
X64476435Y-77308032D01*
X64481000Y-77354388D01*
X64481000Y-78005612D01*
X64476435Y-78051968D01*
X64464704Y-78090638D01*
X64445654Y-78126277D01*
X64420017Y-78157517D01*
X64388777Y-78183154D01*
X64353138Y-78202204D01*
X64314468Y-78213935D01*
X64268112Y-78218500D01*
X63191888Y-78218500D01*
X63145532Y-78213935D01*
X63106862Y-78202204D01*
X63071223Y-78183154D01*
X63039983Y-78157517D01*
X63014346Y-78126277D01*
X62995296Y-78090638D01*
X62983565Y-78051968D01*
X62979000Y-78005612D01*
X62979000Y-77354388D01*
X62983565Y-77308032D01*
X62995296Y-77269362D01*
X63014346Y-77233723D01*
X63039983Y-77202483D01*
X63071223Y-77176846D01*
X63106862Y-77157796D01*
X63145532Y-77146065D01*
X63191888Y-77141500D01*
X64268112Y-77141500D01*
X64314468Y-77146065D01*
G37*
G36*
X44306626Y-75567037D02*
G01*
X44476465Y-75618557D01*
X44476467Y-75618558D01*
X44632989Y-75702221D01*
X44770186Y-75814814D01*
X44853448Y-75916271D01*
X44882778Y-75952009D01*
X44966443Y-76108534D01*
X45017963Y-76278373D01*
X45017963Y-76278375D01*
X45025609Y-76356000D01*
X45031000Y-76410742D01*
X45031000Y-76749257D01*
X45017963Y-76881626D01*
X44966443Y-77051466D01*
X44882778Y-77207991D01*
X44872626Y-77220361D01*
X44770186Y-77345186D01*
X44675250Y-77423097D01*
X44632991Y-77457778D01*
X44476466Y-77541443D01*
X44306627Y-77592963D01*
X44130000Y-77610359D01*
X43953374Y-77592963D01*
X43783535Y-77541443D01*
X43627010Y-77457778D01*
X43489815Y-77345185D01*
X43377222Y-77207991D01*
X43293557Y-77051466D01*
X43242037Y-76881627D01*
X43229000Y-76749258D01*
X43229000Y-76410743D01*
X43242037Y-76278374D01*
X43293557Y-76108535D01*
X43377222Y-75952010D01*
X43377223Y-75952009D01*
X43489814Y-75814814D01*
X43591271Y-75731552D01*
X43627009Y-75702222D01*
X43783534Y-75618557D01*
X43953373Y-75567037D01*
X44130000Y-75549641D01*
X44306626Y-75567037D01*
G37*
G36*
X41806626Y-75567037D02*
G01*
X41976465Y-75618557D01*
X41976467Y-75618558D01*
X42132989Y-75702221D01*
X42270186Y-75814814D01*
X42353448Y-75916271D01*
X42382778Y-75952009D01*
X42466443Y-76108534D01*
X42517963Y-76278373D01*
X42517963Y-76278375D01*
X42525609Y-76356000D01*
X42531000Y-76410742D01*
X42531000Y-76749257D01*
X42517963Y-76881626D01*
X42466443Y-77051466D01*
X42382778Y-77207991D01*
X42372626Y-77220361D01*
X42270186Y-77345186D01*
X42175250Y-77423097D01*
X42132991Y-77457778D01*
X41976466Y-77541443D01*
X41806627Y-77592963D01*
X41630000Y-77610359D01*
X41453374Y-77592963D01*
X41283535Y-77541443D01*
X41127010Y-77457778D01*
X40989815Y-77345185D01*
X40877222Y-77207991D01*
X40793557Y-77051466D01*
X40742037Y-76881627D01*
X40729000Y-76749258D01*
X40729000Y-76410743D01*
X40742037Y-76278374D01*
X40793557Y-76108535D01*
X40877222Y-75952010D01*
X40877223Y-75952009D01*
X40989814Y-75814814D01*
X41091271Y-75731552D01*
X41127009Y-75702222D01*
X41283534Y-75618557D01*
X41453373Y-75567037D01*
X41630000Y-75549641D01*
X41806626Y-75567037D01*
G37*
G36*
X46806626Y-75567037D02*
G01*
X46976465Y-75618557D01*
X46976467Y-75618558D01*
X47132989Y-75702221D01*
X47270186Y-75814814D01*
X47353448Y-75916271D01*
X47382778Y-75952009D01*
X47466443Y-76108534D01*
X47517963Y-76278373D01*
X47517963Y-76278375D01*
X47525609Y-76356000D01*
X47531000Y-76410742D01*
X47531000Y-76749257D01*
X47517963Y-76881626D01*
X47466443Y-77051466D01*
X47382778Y-77207991D01*
X47372626Y-77220361D01*
X47270186Y-77345186D01*
X47175250Y-77423097D01*
X47132991Y-77457778D01*
X46976466Y-77541443D01*
X46806627Y-77592963D01*
X46630000Y-77610359D01*
X46453374Y-77592963D01*
X46283535Y-77541443D01*
X46127010Y-77457778D01*
X45989815Y-77345185D01*
X45877222Y-77207991D01*
X45793557Y-77051466D01*
X45742037Y-76881627D01*
X45729000Y-76749258D01*
X45729000Y-76410743D01*
X45742037Y-76278374D01*
X45793557Y-76108535D01*
X45877222Y-75952010D01*
X45877223Y-75952009D01*
X45989814Y-75814814D01*
X46091271Y-75731552D01*
X46127009Y-75702222D01*
X46283534Y-75618557D01*
X46453373Y-75567037D01*
X46630000Y-75549641D01*
X46806626Y-75567037D01*
G37*
G36*
X39888600Y-75557989D02*
G01*
X39921652Y-75568015D01*
X39952103Y-75584292D01*
X39978799Y-75606201D01*
X40000708Y-75632897D01*
X40016985Y-75663348D01*
X40027011Y-75696400D01*
X40031000Y-75736903D01*
X40031000Y-77423097D01*
X40027011Y-77463600D01*
X40016985Y-77496652D01*
X40000708Y-77527103D01*
X39978799Y-77553799D01*
X39952103Y-77575708D01*
X39921652Y-77591985D01*
X39888600Y-77602011D01*
X39848097Y-77606000D01*
X38411903Y-77606000D01*
X38371400Y-77602011D01*
X38338348Y-77591985D01*
X38307897Y-77575708D01*
X38281201Y-77553799D01*
X38259292Y-77527103D01*
X38243015Y-77496652D01*
X38232989Y-77463600D01*
X38229000Y-77423097D01*
X38229000Y-75736903D01*
X38232989Y-75696400D01*
X38243015Y-75663348D01*
X38259292Y-75632897D01*
X38281201Y-75606201D01*
X38307897Y-75584292D01*
X38338348Y-75568015D01*
X38371400Y-75557989D01*
X38411903Y-75554000D01*
X39848097Y-75554000D01*
X39888600Y-75557989D01*
G37*
G36*
X51681000Y-77456000D02*
G01*
X50879000Y-77456000D01*
X50879000Y-76754000D01*
X51681000Y-76754000D01*
X51681000Y-77456000D01*
G37*
G36*
X53681000Y-76506000D02*
G01*
X52879000Y-76506000D01*
X52879000Y-75804000D01*
X53681000Y-75804000D01*
X53681000Y-76506000D01*
G37*
G36*
X57901968Y-74858565D02*
G01*
X57940638Y-74870296D01*
X57976277Y-74889346D01*
X58007517Y-74914983D01*
X58033154Y-74946223D01*
X58052204Y-74981862D01*
X58063935Y-75020532D01*
X58068500Y-75066888D01*
X58068500Y-76143112D01*
X58063935Y-76189468D01*
X58052204Y-76228138D01*
X58033154Y-76263777D01*
X58007517Y-76295017D01*
X57976277Y-76320654D01*
X57940638Y-76339704D01*
X57901968Y-76351435D01*
X57855612Y-76356000D01*
X57204388Y-76356000D01*
X57158032Y-76351435D01*
X57119362Y-76339704D01*
X57083723Y-76320654D01*
X57052483Y-76295017D01*
X57026846Y-76263777D01*
X57007796Y-76228138D01*
X56996065Y-76189468D01*
X56991500Y-76143112D01*
X56991500Y-75066888D01*
X56996065Y-75020532D01*
X57007796Y-74981862D01*
X57026846Y-74946223D01*
X57052483Y-74914983D01*
X57083723Y-74889346D01*
X57119362Y-74870296D01*
X57158032Y-74858565D01*
X57204388Y-74854000D01*
X57855612Y-74854000D01*
X57901968Y-74858565D01*
G37*
G36*
X56026968Y-74858565D02*
G01*
X56065638Y-74870296D01*
X56101277Y-74889346D01*
X56132517Y-74914983D01*
X56158154Y-74946223D01*
X56177204Y-74981862D01*
X56188935Y-75020532D01*
X56193500Y-75066888D01*
X56193500Y-76143112D01*
X56188935Y-76189468D01*
X56177204Y-76228138D01*
X56158154Y-76263777D01*
X56132517Y-76295017D01*
X56101277Y-76320654D01*
X56065638Y-76339704D01*
X56026968Y-76351435D01*
X55980612Y-76356000D01*
X55329388Y-76356000D01*
X55283032Y-76351435D01*
X55244362Y-76339704D01*
X55208723Y-76320654D01*
X55177483Y-76295017D01*
X55151846Y-76263777D01*
X55132796Y-76228138D01*
X55121065Y-76189468D01*
X55116500Y-76143112D01*
X55116500Y-75066888D01*
X55121065Y-75020532D01*
X55132796Y-74981862D01*
X55151846Y-74946223D01*
X55177483Y-74914983D01*
X55208723Y-74889346D01*
X55244362Y-74870296D01*
X55283032Y-74858565D01*
X55329388Y-74854000D01*
X55980612Y-74854000D01*
X56026968Y-74858565D01*
G37*
G36*
X66781000Y-75431000D02*
G01*
X63929000Y-75431000D01*
X63929000Y-74329000D01*
X66781000Y-74329000D01*
X66781000Y-75431000D01*
G37*
G36*
X72531000Y-75431000D02*
G01*
X69679000Y-75431000D01*
X69679000Y-74329000D01*
X72531000Y-74329000D01*
X72531000Y-75431000D01*
G37*
G36*
X72531000Y-71431000D02*
G01*
X69679000Y-71431000D01*
X69679000Y-70329000D01*
X72531000Y-70329000D01*
X72531000Y-71431000D01*
G37*
G36*
X66781000Y-71431000D02*
G01*
X63929000Y-71431000D01*
X63929000Y-70329000D01*
X66781000Y-70329000D01*
X66781000Y-71431000D01*
G37*
M02*
