G04 #@! TF.GenerationSoftware,KiCad,Pcbnew,(5.1.5)-3*
G04 #@! TF.CreationDate,2020-12-03T20:33:16+01:00*
G04 #@! TF.ProjectId,MCU_board,4d43555f-626f-4617-9264-2e6b69636164,rev?*
G04 #@! TF.SameCoordinates,Original*
G04 #@! TF.FileFunction,Copper,L2,Bot*
G04 #@! TF.FilePolarity,Positive*
%FSLAX46Y46*%
G04 Gerber Fmt 4.6, Leading zero omitted, Abs format (unit mm)*
G04 Created by KiCad (PCBNEW (5.1.5)-3) date 2020-12-03 20:33:16*
%MOMM*%
%LPD*%
G04 APERTURE LIST*
%ADD10C,0.100000*%
%ADD11O,1.950000X1.700000*%
%ADD12O,1.700000X1.950000*%
%ADD13C,1.450000*%
%ADD14O,1.900000X1.200000*%
%ADD15R,1.700000X1.700000*%
%ADD16O,1.700000X1.700000*%
%ADD17C,0.800000*%
%ADD18C,0.500000*%
%ADD19C,0.250000*%
%ADD20C,0.254000*%
G04 APERTURE END LIST*
G04 #@! TA.AperFunction,ComponentPad*
D10*
G36*
X78629504Y-95981204D02*
G01*
X78653773Y-95984804D01*
X78677571Y-95990765D01*
X78700671Y-95999030D01*
X78722849Y-96009520D01*
X78743893Y-96022133D01*
X78763598Y-96036747D01*
X78781777Y-96053223D01*
X78798253Y-96071402D01*
X78812867Y-96091107D01*
X78825480Y-96112151D01*
X78835970Y-96134329D01*
X78844235Y-96157429D01*
X78850196Y-96181227D01*
X78853796Y-96205496D01*
X78855000Y-96230000D01*
X78855000Y-97430000D01*
X78853796Y-97454504D01*
X78850196Y-97478773D01*
X78844235Y-97502571D01*
X78835970Y-97525671D01*
X78825480Y-97547849D01*
X78812867Y-97568893D01*
X78798253Y-97588598D01*
X78781777Y-97606777D01*
X78763598Y-97623253D01*
X78743893Y-97637867D01*
X78722849Y-97650480D01*
X78700671Y-97660970D01*
X78677571Y-97669235D01*
X78653773Y-97675196D01*
X78629504Y-97678796D01*
X78605000Y-97680000D01*
X77155000Y-97680000D01*
X77130496Y-97678796D01*
X77106227Y-97675196D01*
X77082429Y-97669235D01*
X77059329Y-97660970D01*
X77037151Y-97650480D01*
X77016107Y-97637867D01*
X76996402Y-97623253D01*
X76978223Y-97606777D01*
X76961747Y-97588598D01*
X76947133Y-97568893D01*
X76934520Y-97547849D01*
X76924030Y-97525671D01*
X76915765Y-97502571D01*
X76909804Y-97478773D01*
X76906204Y-97454504D01*
X76905000Y-97430000D01*
X76905000Y-96230000D01*
X76906204Y-96205496D01*
X76909804Y-96181227D01*
X76915765Y-96157429D01*
X76924030Y-96134329D01*
X76934520Y-96112151D01*
X76947133Y-96091107D01*
X76961747Y-96071402D01*
X76978223Y-96053223D01*
X76996402Y-96036747D01*
X77016107Y-96022133D01*
X77037151Y-96009520D01*
X77059329Y-95999030D01*
X77082429Y-95990765D01*
X77106227Y-95984804D01*
X77130496Y-95981204D01*
X77155000Y-95980000D01*
X78605000Y-95980000D01*
X78629504Y-95981204D01*
G37*
G04 #@! TD.AperFunction*
D11*
X77880000Y-94330000D03*
X77880000Y-91830000D03*
X77880000Y-89330000D03*
D12*
X46630000Y-111580000D03*
X44130000Y-111580000D03*
X41630000Y-111580000D03*
G04 #@! TA.AperFunction,ComponentPad*
D10*
G36*
X39754504Y-110606204D02*
G01*
X39778773Y-110609804D01*
X39802571Y-110615765D01*
X39825671Y-110624030D01*
X39847849Y-110634520D01*
X39868893Y-110647133D01*
X39888598Y-110661747D01*
X39906777Y-110678223D01*
X39923253Y-110696402D01*
X39937867Y-110716107D01*
X39950480Y-110737151D01*
X39960970Y-110759329D01*
X39969235Y-110782429D01*
X39975196Y-110806227D01*
X39978796Y-110830496D01*
X39980000Y-110855000D01*
X39980000Y-112305000D01*
X39978796Y-112329504D01*
X39975196Y-112353773D01*
X39969235Y-112377571D01*
X39960970Y-112400671D01*
X39950480Y-112422849D01*
X39937867Y-112443893D01*
X39923253Y-112463598D01*
X39906777Y-112481777D01*
X39888598Y-112498253D01*
X39868893Y-112512867D01*
X39847849Y-112525480D01*
X39825671Y-112535970D01*
X39802571Y-112544235D01*
X39778773Y-112550196D01*
X39754504Y-112553796D01*
X39730000Y-112555000D01*
X38530000Y-112555000D01*
X38505496Y-112553796D01*
X38481227Y-112550196D01*
X38457429Y-112544235D01*
X38434329Y-112535970D01*
X38412151Y-112525480D01*
X38391107Y-112512867D01*
X38371402Y-112498253D01*
X38353223Y-112481777D01*
X38336747Y-112463598D01*
X38322133Y-112443893D01*
X38309520Y-112422849D01*
X38299030Y-112400671D01*
X38290765Y-112377571D01*
X38284804Y-112353773D01*
X38281204Y-112329504D01*
X38280000Y-112305000D01*
X38280000Y-110855000D01*
X38281204Y-110830496D01*
X38284804Y-110806227D01*
X38290765Y-110782429D01*
X38299030Y-110759329D01*
X38309520Y-110737151D01*
X38322133Y-110716107D01*
X38336747Y-110696402D01*
X38353223Y-110678223D01*
X38371402Y-110661747D01*
X38391107Y-110647133D01*
X38412151Y-110634520D01*
X38434329Y-110624030D01*
X38457429Y-110615765D01*
X38481227Y-110609804D01*
X38505496Y-110606204D01*
X38530000Y-110605000D01*
X39730000Y-110605000D01*
X39754504Y-110606204D01*
G37*
G04 #@! TD.AperFunction*
G04 #@! TA.AperFunction,ComponentPad*
G36*
X39754504Y-101856204D02*
G01*
X39778773Y-101859804D01*
X39802571Y-101865765D01*
X39825671Y-101874030D01*
X39847849Y-101884520D01*
X39868893Y-101897133D01*
X39888598Y-101911747D01*
X39906777Y-101928223D01*
X39923253Y-101946402D01*
X39937867Y-101966107D01*
X39950480Y-101987151D01*
X39960970Y-102009329D01*
X39969235Y-102032429D01*
X39975196Y-102056227D01*
X39978796Y-102080496D01*
X39980000Y-102105000D01*
X39980000Y-103555000D01*
X39978796Y-103579504D01*
X39975196Y-103603773D01*
X39969235Y-103627571D01*
X39960970Y-103650671D01*
X39950480Y-103672849D01*
X39937867Y-103693893D01*
X39923253Y-103713598D01*
X39906777Y-103731777D01*
X39888598Y-103748253D01*
X39868893Y-103762867D01*
X39847849Y-103775480D01*
X39825671Y-103785970D01*
X39802571Y-103794235D01*
X39778773Y-103800196D01*
X39754504Y-103803796D01*
X39730000Y-103805000D01*
X38530000Y-103805000D01*
X38505496Y-103803796D01*
X38481227Y-103800196D01*
X38457429Y-103794235D01*
X38434329Y-103785970D01*
X38412151Y-103775480D01*
X38391107Y-103762867D01*
X38371402Y-103748253D01*
X38353223Y-103731777D01*
X38336747Y-103713598D01*
X38322133Y-103693893D01*
X38309520Y-103672849D01*
X38299030Y-103650671D01*
X38290765Y-103627571D01*
X38284804Y-103603773D01*
X38281204Y-103579504D01*
X38280000Y-103555000D01*
X38280000Y-102105000D01*
X38281204Y-102080496D01*
X38284804Y-102056227D01*
X38290765Y-102032429D01*
X38299030Y-102009329D01*
X38309520Y-101987151D01*
X38322133Y-101966107D01*
X38336747Y-101946402D01*
X38353223Y-101928223D01*
X38371402Y-101911747D01*
X38391107Y-101897133D01*
X38412151Y-101884520D01*
X38434329Y-101874030D01*
X38457429Y-101865765D01*
X38481227Y-101859804D01*
X38505496Y-101856204D01*
X38530000Y-101855000D01*
X39730000Y-101855000D01*
X39754504Y-101856204D01*
G37*
G04 #@! TD.AperFunction*
D12*
X41630000Y-102830000D03*
X44130000Y-102830000D03*
X46630000Y-102830000D03*
G04 #@! TA.AperFunction,ComponentPad*
D10*
G36*
X39754504Y-93106204D02*
G01*
X39778773Y-93109804D01*
X39802571Y-93115765D01*
X39825671Y-93124030D01*
X39847849Y-93134520D01*
X39868893Y-93147133D01*
X39888598Y-93161747D01*
X39906777Y-93178223D01*
X39923253Y-93196402D01*
X39937867Y-93216107D01*
X39950480Y-93237151D01*
X39960970Y-93259329D01*
X39969235Y-93282429D01*
X39975196Y-93306227D01*
X39978796Y-93330496D01*
X39980000Y-93355000D01*
X39980000Y-94805000D01*
X39978796Y-94829504D01*
X39975196Y-94853773D01*
X39969235Y-94877571D01*
X39960970Y-94900671D01*
X39950480Y-94922849D01*
X39937867Y-94943893D01*
X39923253Y-94963598D01*
X39906777Y-94981777D01*
X39888598Y-94998253D01*
X39868893Y-95012867D01*
X39847849Y-95025480D01*
X39825671Y-95035970D01*
X39802571Y-95044235D01*
X39778773Y-95050196D01*
X39754504Y-95053796D01*
X39730000Y-95055000D01*
X38530000Y-95055000D01*
X38505496Y-95053796D01*
X38481227Y-95050196D01*
X38457429Y-95044235D01*
X38434329Y-95035970D01*
X38412151Y-95025480D01*
X38391107Y-95012867D01*
X38371402Y-94998253D01*
X38353223Y-94981777D01*
X38336747Y-94963598D01*
X38322133Y-94943893D01*
X38309520Y-94922849D01*
X38299030Y-94900671D01*
X38290765Y-94877571D01*
X38284804Y-94853773D01*
X38281204Y-94829504D01*
X38280000Y-94805000D01*
X38280000Y-93355000D01*
X38281204Y-93330496D01*
X38284804Y-93306227D01*
X38290765Y-93282429D01*
X38299030Y-93259329D01*
X38309520Y-93237151D01*
X38322133Y-93216107D01*
X38336747Y-93196402D01*
X38353223Y-93178223D01*
X38371402Y-93161747D01*
X38391107Y-93147133D01*
X38412151Y-93134520D01*
X38434329Y-93124030D01*
X38457429Y-93115765D01*
X38481227Y-93109804D01*
X38505496Y-93106204D01*
X38530000Y-93105000D01*
X39730000Y-93105000D01*
X39754504Y-93106204D01*
G37*
G04 #@! TD.AperFunction*
D12*
X41630000Y-94080000D03*
X44130000Y-94080000D03*
X46630000Y-94080000D03*
X46630000Y-85330000D03*
X44130000Y-85330000D03*
X41630000Y-85330000D03*
G04 #@! TA.AperFunction,ComponentPad*
D10*
G36*
X39754504Y-84356204D02*
G01*
X39778773Y-84359804D01*
X39802571Y-84365765D01*
X39825671Y-84374030D01*
X39847849Y-84384520D01*
X39868893Y-84397133D01*
X39888598Y-84411747D01*
X39906777Y-84428223D01*
X39923253Y-84446402D01*
X39937867Y-84466107D01*
X39950480Y-84487151D01*
X39960970Y-84509329D01*
X39969235Y-84532429D01*
X39975196Y-84556227D01*
X39978796Y-84580496D01*
X39980000Y-84605000D01*
X39980000Y-86055000D01*
X39978796Y-86079504D01*
X39975196Y-86103773D01*
X39969235Y-86127571D01*
X39960970Y-86150671D01*
X39950480Y-86172849D01*
X39937867Y-86193893D01*
X39923253Y-86213598D01*
X39906777Y-86231777D01*
X39888598Y-86248253D01*
X39868893Y-86262867D01*
X39847849Y-86275480D01*
X39825671Y-86285970D01*
X39802571Y-86294235D01*
X39778773Y-86300196D01*
X39754504Y-86303796D01*
X39730000Y-86305000D01*
X38530000Y-86305000D01*
X38505496Y-86303796D01*
X38481227Y-86300196D01*
X38457429Y-86294235D01*
X38434329Y-86285970D01*
X38412151Y-86275480D01*
X38391107Y-86262867D01*
X38371402Y-86248253D01*
X38353223Y-86231777D01*
X38336747Y-86213598D01*
X38322133Y-86193893D01*
X38309520Y-86172849D01*
X38299030Y-86150671D01*
X38290765Y-86127571D01*
X38284804Y-86103773D01*
X38281204Y-86079504D01*
X38280000Y-86055000D01*
X38280000Y-84605000D01*
X38281204Y-84580496D01*
X38284804Y-84556227D01*
X38290765Y-84532429D01*
X38299030Y-84509329D01*
X38309520Y-84487151D01*
X38322133Y-84466107D01*
X38336747Y-84446402D01*
X38353223Y-84428223D01*
X38371402Y-84411747D01*
X38391107Y-84397133D01*
X38412151Y-84384520D01*
X38434329Y-84374030D01*
X38457429Y-84365765D01*
X38481227Y-84359804D01*
X38505496Y-84356204D01*
X38530000Y-84355000D01*
X39730000Y-84355000D01*
X39754504Y-84356204D01*
G37*
G04 #@! TD.AperFunction*
G04 #@! TA.AperFunction,ComponentPad*
G36*
X39754504Y-75606204D02*
G01*
X39778773Y-75609804D01*
X39802571Y-75615765D01*
X39825671Y-75624030D01*
X39847849Y-75634520D01*
X39868893Y-75647133D01*
X39888598Y-75661747D01*
X39906777Y-75678223D01*
X39923253Y-75696402D01*
X39937867Y-75716107D01*
X39950480Y-75737151D01*
X39960970Y-75759329D01*
X39969235Y-75782429D01*
X39975196Y-75806227D01*
X39978796Y-75830496D01*
X39980000Y-75855000D01*
X39980000Y-77305000D01*
X39978796Y-77329504D01*
X39975196Y-77353773D01*
X39969235Y-77377571D01*
X39960970Y-77400671D01*
X39950480Y-77422849D01*
X39937867Y-77443893D01*
X39923253Y-77463598D01*
X39906777Y-77481777D01*
X39888598Y-77498253D01*
X39868893Y-77512867D01*
X39847849Y-77525480D01*
X39825671Y-77535970D01*
X39802571Y-77544235D01*
X39778773Y-77550196D01*
X39754504Y-77553796D01*
X39730000Y-77555000D01*
X38530000Y-77555000D01*
X38505496Y-77553796D01*
X38481227Y-77550196D01*
X38457429Y-77544235D01*
X38434329Y-77535970D01*
X38412151Y-77525480D01*
X38391107Y-77512867D01*
X38371402Y-77498253D01*
X38353223Y-77481777D01*
X38336747Y-77463598D01*
X38322133Y-77443893D01*
X38309520Y-77422849D01*
X38299030Y-77400671D01*
X38290765Y-77377571D01*
X38284804Y-77353773D01*
X38281204Y-77329504D01*
X38280000Y-77305000D01*
X38280000Y-75855000D01*
X38281204Y-75830496D01*
X38284804Y-75806227D01*
X38290765Y-75782429D01*
X38299030Y-75759329D01*
X38309520Y-75737151D01*
X38322133Y-75716107D01*
X38336747Y-75696402D01*
X38353223Y-75678223D01*
X38371402Y-75661747D01*
X38391107Y-75647133D01*
X38412151Y-75634520D01*
X38434329Y-75624030D01*
X38457429Y-75615765D01*
X38481227Y-75609804D01*
X38505496Y-75606204D01*
X38530000Y-75605000D01*
X39730000Y-75605000D01*
X39754504Y-75606204D01*
G37*
G04 #@! TD.AperFunction*
D12*
X41630000Y-76580000D03*
X44130000Y-76580000D03*
X46630000Y-76580000D03*
D13*
X79917500Y-111080000D03*
X79917500Y-106080000D03*
D14*
X82617500Y-112080000D03*
X82617500Y-105080000D03*
D15*
X70630000Y-78480000D03*
D16*
X68090000Y-78480000D03*
D17*
X63830000Y-97080000D03*
X63830000Y-98080000D03*
X63830000Y-99080000D03*
X63830000Y-100080000D03*
X58630000Y-114330000D03*
X58630000Y-105580000D03*
X58630000Y-88080000D03*
X58630000Y-79330000D03*
X65130000Y-77580000D03*
X54380000Y-102830000D03*
X54380000Y-111580000D03*
X54380000Y-94080000D03*
X54380000Y-85330000D03*
X54380000Y-76580000D03*
X68230000Y-104030000D03*
X67630000Y-84380000D03*
X71030000Y-84380000D03*
X71780000Y-104030000D03*
X62880000Y-74330000D03*
X68754999Y-88580000D03*
X67630000Y-96580000D03*
X56480000Y-97330000D03*
X72554847Y-90155153D03*
X74130000Y-88080000D03*
X62880000Y-100080000D03*
X58130000Y-100580000D03*
X57630000Y-109305000D03*
X58630000Y-92080000D03*
X58630000Y-83580000D03*
X58630000Y-75080000D03*
X65630000Y-89080000D03*
X62880000Y-98080000D03*
X62880000Y-99080000D03*
X62880000Y-97080000D03*
X57130000Y-81580000D03*
X56130000Y-79855000D03*
X67630000Y-90830000D03*
X67630000Y-92280000D03*
X57130000Y-90580000D03*
X56130000Y-88580000D03*
X70080000Y-93930000D03*
X59906985Y-94641300D03*
X67972346Y-93922346D03*
X56630000Y-103580000D03*
X60580000Y-102780000D03*
X68630003Y-90830000D03*
X68630000Y-92280000D03*
X66630000Y-90830000D03*
X66642653Y-93842653D03*
D18*
X72554847Y-90155153D02*
X74130000Y-88580000D01*
X74130000Y-88580000D02*
X74130000Y-88080000D01*
X58130000Y-100580000D02*
X55630000Y-103080000D01*
X55630000Y-103080000D02*
X55630000Y-107305000D01*
X55630000Y-107305000D02*
X57630000Y-109305000D01*
X57730001Y-92979999D02*
X58630000Y-92080000D01*
X58130000Y-100580000D02*
X57730001Y-100180001D01*
X57730001Y-100180001D02*
X57730001Y-92979999D01*
X65630000Y-89080000D02*
X63355001Y-91354999D01*
X58630000Y-83014315D02*
X59730000Y-81914315D01*
X58630000Y-83580000D02*
X58630000Y-83014315D01*
X59730000Y-76180000D02*
X58630000Y-75080000D01*
X59730000Y-81914315D02*
X59730000Y-76180000D01*
X58630000Y-83580000D02*
X59630000Y-84580000D01*
X59630000Y-84580000D02*
X59630000Y-91080000D01*
X59630000Y-91080000D02*
X58630000Y-92080000D01*
X59904999Y-91354999D02*
X59630000Y-91080000D01*
X63355001Y-91354999D02*
X59904999Y-91354999D01*
X72954846Y-92313156D02*
X70045645Y-95222357D01*
X72554847Y-90155153D02*
X72954846Y-90555152D01*
X72954846Y-90555152D02*
X72954846Y-92313156D01*
X58130000Y-100580000D02*
X60130000Y-98580000D01*
X63330000Y-98580000D02*
X63830000Y-98080000D01*
X60130000Y-98580000D02*
X63330000Y-98580000D01*
X67729641Y-95222357D02*
X66380000Y-96571998D01*
X70045645Y-95222357D02*
X67729641Y-95222357D01*
X66380000Y-96571998D02*
X66380000Y-97230000D01*
X66380000Y-97230000D02*
X65030000Y-98580000D01*
X63380000Y-98580000D02*
X62880000Y-99080000D01*
X65030000Y-98580000D02*
X63380000Y-98580000D01*
D19*
X57130000Y-81580000D02*
X56130000Y-80580000D01*
X56130000Y-80580000D02*
X56130000Y-79855000D01*
X67630000Y-90830000D02*
X67630000Y-92280000D01*
X57130000Y-90580000D02*
X56130000Y-89580000D01*
X56130000Y-89580000D02*
X56130000Y-88855000D01*
X69362653Y-94647347D02*
X59913032Y-94647347D01*
X70080000Y-93930000D02*
X69362653Y-94647347D01*
X60555010Y-102830000D02*
X57380000Y-102830000D01*
X57380000Y-102830000D02*
X56630000Y-103580000D01*
X60555010Y-102830000D02*
X60555010Y-102804990D01*
X60555010Y-102804990D02*
X60580000Y-102780000D01*
X68630003Y-90830000D02*
X68630003Y-92279997D01*
X68630003Y-92279997D02*
X68630000Y-92280000D01*
X66630000Y-90830000D02*
X66630000Y-93830000D01*
X66630000Y-93830000D02*
X66642653Y-93842653D01*
D20*
G36*
X83003000Y-103845000D02*
G01*
X82744500Y-103845000D01*
X82744500Y-104953000D01*
X82764500Y-104953000D01*
X82764500Y-105207000D01*
X82744500Y-105207000D01*
X82744500Y-106315000D01*
X83003000Y-106315000D01*
X83003000Y-110845000D01*
X82744500Y-110845000D01*
X82744500Y-111953000D01*
X82764500Y-111953000D01*
X82764500Y-112207000D01*
X82744500Y-112207000D01*
X82744500Y-113315000D01*
X83003000Y-113315000D01*
X83003000Y-117453000D01*
X25257000Y-117453000D01*
X25257000Y-112555000D01*
X37641928Y-112555000D01*
X37654188Y-112679482D01*
X37690498Y-112799180D01*
X37749463Y-112909494D01*
X37828815Y-113006185D01*
X37925506Y-113085537D01*
X38035820Y-113144502D01*
X38155518Y-113180812D01*
X38280000Y-113193072D01*
X38844250Y-113190000D01*
X39003000Y-113031250D01*
X39003000Y-111707000D01*
X37803750Y-111707000D01*
X37645000Y-111865750D01*
X37641928Y-112555000D01*
X25257000Y-112555000D01*
X25257000Y-108359872D01*
X27895000Y-108359872D01*
X27895000Y-108800128D01*
X27980890Y-109231925D01*
X28149369Y-109638669D01*
X28393962Y-110004729D01*
X28705271Y-110316038D01*
X29071331Y-110560631D01*
X29478075Y-110729110D01*
X29909872Y-110815000D01*
X30350128Y-110815000D01*
X30781925Y-110729110D01*
X31081552Y-110605000D01*
X37641928Y-110605000D01*
X37645000Y-111294250D01*
X37803750Y-111453000D01*
X39003000Y-111453000D01*
X39003000Y-110128750D01*
X39257000Y-110128750D01*
X39257000Y-111453000D01*
X39277000Y-111453000D01*
X39277000Y-111707000D01*
X39257000Y-111707000D01*
X39257000Y-113031250D01*
X39415750Y-113190000D01*
X39980000Y-113193072D01*
X40104482Y-113180812D01*
X40224180Y-113144502D01*
X40334494Y-113085537D01*
X40431185Y-113006185D01*
X40510537Y-112909494D01*
X40569502Y-112799180D01*
X40580055Y-112764392D01*
X40800987Y-112945706D01*
X41058967Y-113083599D01*
X41338890Y-113168513D01*
X41630000Y-113197185D01*
X41921111Y-113168513D01*
X42201034Y-113083599D01*
X42459014Y-112945706D01*
X42685134Y-112760134D01*
X42870706Y-112534014D01*
X42880000Y-112516626D01*
X42889294Y-112534014D01*
X43074866Y-112760134D01*
X43300987Y-112945706D01*
X43558967Y-113083599D01*
X43838890Y-113168513D01*
X44130000Y-113197185D01*
X44421111Y-113168513D01*
X44701034Y-113083599D01*
X44959014Y-112945706D01*
X45185134Y-112760134D01*
X45370706Y-112534014D01*
X45380000Y-112516626D01*
X45389294Y-112534014D01*
X45574866Y-112760134D01*
X45800987Y-112945706D01*
X46058967Y-113083599D01*
X46338890Y-113168513D01*
X46630000Y-113197185D01*
X46921111Y-113168513D01*
X47201034Y-113083599D01*
X47459014Y-112945706D01*
X47685134Y-112760134D01*
X47870706Y-112534014D01*
X48008599Y-112276033D01*
X48086529Y-112019133D01*
X79157972Y-112019133D01*
X79220465Y-112255450D01*
X79463178Y-112368850D01*
X79723349Y-112432719D01*
X79990982Y-112444604D01*
X80255791Y-112404048D01*
X80273523Y-112397609D01*
X81074038Y-112397609D01*
X81077909Y-112435282D01*
X81170079Y-112660533D01*
X81304422Y-112863474D01*
X81475775Y-113036307D01*
X81677554Y-113172390D01*
X81902004Y-113266493D01*
X82140500Y-113315000D01*
X82490500Y-113315000D01*
X82490500Y-112207000D01*
X81198769Y-112207000D01*
X81074038Y-112397609D01*
X80273523Y-112397609D01*
X80507600Y-112312609D01*
X80614535Y-112255450D01*
X80677028Y-112019133D01*
X79917500Y-111259605D01*
X79157972Y-112019133D01*
X48086529Y-112019133D01*
X48093513Y-111996110D01*
X48115000Y-111777949D01*
X48115000Y-111382050D01*
X48093513Y-111163889D01*
X48090357Y-111153482D01*
X78552896Y-111153482D01*
X78593452Y-111418291D01*
X78684891Y-111670100D01*
X78742050Y-111777035D01*
X78978367Y-111839528D01*
X79737895Y-111080000D01*
X80097105Y-111080000D01*
X80856633Y-111839528D01*
X81084997Y-111779138D01*
X81198769Y-111953000D01*
X82490500Y-111953000D01*
X82490500Y-110845000D01*
X82140500Y-110845000D01*
X81902004Y-110893507D01*
X81677554Y-110987610D01*
X81475775Y-111123693D01*
X81304422Y-111296526D01*
X81241329Y-111391836D01*
X81270219Y-111274151D01*
X81282104Y-111006518D01*
X81241548Y-110741709D01*
X81150109Y-110489900D01*
X81092950Y-110382965D01*
X80856633Y-110320472D01*
X80097105Y-111080000D01*
X79737895Y-111080000D01*
X78978367Y-110320472D01*
X78742050Y-110382965D01*
X78628650Y-110625678D01*
X78564781Y-110885849D01*
X78552896Y-111153482D01*
X48090357Y-111153482D01*
X48008599Y-110883966D01*
X47870706Y-110625986D01*
X47685134Y-110399866D01*
X47459013Y-110214294D01*
X47201033Y-110076401D01*
X46921110Y-109991487D01*
X46630000Y-109962815D01*
X46338889Y-109991487D01*
X46058966Y-110076401D01*
X45800986Y-110214294D01*
X45574866Y-110399866D01*
X45389294Y-110625987D01*
X45380000Y-110643374D01*
X45370706Y-110625986D01*
X45185134Y-110399866D01*
X44959013Y-110214294D01*
X44701033Y-110076401D01*
X44421110Y-109991487D01*
X44130000Y-109962815D01*
X43838889Y-109991487D01*
X43558966Y-110076401D01*
X43300986Y-110214294D01*
X43074866Y-110399866D01*
X42889294Y-110625987D01*
X42880000Y-110643374D01*
X42870706Y-110625986D01*
X42685134Y-110399866D01*
X42459013Y-110214294D01*
X42201033Y-110076401D01*
X41921110Y-109991487D01*
X41630000Y-109962815D01*
X41338889Y-109991487D01*
X41058966Y-110076401D01*
X40800986Y-110214294D01*
X40580055Y-110395608D01*
X40569502Y-110360820D01*
X40510537Y-110250506D01*
X40431185Y-110153815D01*
X40334494Y-110074463D01*
X40224180Y-110015498D01*
X40104482Y-109979188D01*
X39980000Y-109966928D01*
X39415750Y-109970000D01*
X39257000Y-110128750D01*
X39003000Y-110128750D01*
X38844250Y-109970000D01*
X38280000Y-109966928D01*
X38155518Y-109979188D01*
X38035820Y-110015498D01*
X37925506Y-110074463D01*
X37828815Y-110153815D01*
X37749463Y-110250506D01*
X37690498Y-110360820D01*
X37654188Y-110480518D01*
X37641928Y-110605000D01*
X31081552Y-110605000D01*
X31188669Y-110560631D01*
X31554729Y-110316038D01*
X31866038Y-110004729D01*
X32110631Y-109638669D01*
X32279110Y-109231925D01*
X32365000Y-108800128D01*
X32365000Y-108359872D01*
X32279110Y-107928075D01*
X32110631Y-107521331D01*
X31866038Y-107155271D01*
X31554729Y-106843962D01*
X31188669Y-106599369D01*
X30781925Y-106430890D01*
X30350128Y-106345000D01*
X29909872Y-106345000D01*
X29478075Y-106430890D01*
X29071331Y-106599369D01*
X28705271Y-106843962D01*
X28393962Y-107155271D01*
X28149369Y-107521331D01*
X27980890Y-107928075D01*
X27895000Y-108359872D01*
X25257000Y-108359872D01*
X25257000Y-103805000D01*
X37641928Y-103805000D01*
X37654188Y-103929482D01*
X37690498Y-104049180D01*
X37749463Y-104159494D01*
X37828815Y-104256185D01*
X37925506Y-104335537D01*
X38035820Y-104394502D01*
X38155518Y-104430812D01*
X38280000Y-104443072D01*
X38844250Y-104440000D01*
X39003000Y-104281250D01*
X39003000Y-102957000D01*
X37803750Y-102957000D01*
X37645000Y-103115750D01*
X37641928Y-103805000D01*
X25257000Y-103805000D01*
X25257000Y-101855000D01*
X37641928Y-101855000D01*
X37645000Y-102544250D01*
X37803750Y-102703000D01*
X39003000Y-102703000D01*
X39003000Y-101378750D01*
X39257000Y-101378750D01*
X39257000Y-102703000D01*
X39277000Y-102703000D01*
X39277000Y-102957000D01*
X39257000Y-102957000D01*
X39257000Y-104281250D01*
X39415750Y-104440000D01*
X39980000Y-104443072D01*
X40104482Y-104430812D01*
X40224180Y-104394502D01*
X40334494Y-104335537D01*
X40431185Y-104256185D01*
X40510537Y-104159494D01*
X40569502Y-104049180D01*
X40580055Y-104014392D01*
X40800987Y-104195706D01*
X41058967Y-104333599D01*
X41338890Y-104418513D01*
X41630000Y-104447185D01*
X41921111Y-104418513D01*
X42201034Y-104333599D01*
X42459014Y-104195706D01*
X42685134Y-104010134D01*
X42870706Y-103784014D01*
X42880000Y-103766626D01*
X42889294Y-103784014D01*
X43074866Y-104010134D01*
X43300987Y-104195706D01*
X43558967Y-104333599D01*
X43838890Y-104418513D01*
X44130000Y-104447185D01*
X44421111Y-104418513D01*
X44701034Y-104333599D01*
X44959014Y-104195706D01*
X45185134Y-104010134D01*
X45370706Y-103784014D01*
X45380000Y-103766626D01*
X45389294Y-103784014D01*
X45574866Y-104010134D01*
X45800987Y-104195706D01*
X46058967Y-104333599D01*
X46338890Y-104418513D01*
X46630000Y-104447185D01*
X46921111Y-104418513D01*
X47201034Y-104333599D01*
X47459014Y-104195706D01*
X47685134Y-104010134D01*
X47870706Y-103784014D01*
X48008599Y-103526033D01*
X48093513Y-103246110D01*
X48109873Y-103080000D01*
X54740719Y-103080000D01*
X54745000Y-103123469D01*
X54745001Y-107261521D01*
X54740719Y-107305000D01*
X54757805Y-107478490D01*
X54808412Y-107645313D01*
X54890590Y-107799059D01*
X54973468Y-107900046D01*
X54973471Y-107900049D01*
X55001184Y-107933817D01*
X55034951Y-107961529D01*
X56623465Y-109550044D01*
X56634774Y-109606898D01*
X56712795Y-109795256D01*
X56826063Y-109964774D01*
X56970226Y-110108937D01*
X57139744Y-110222205D01*
X57328102Y-110300226D01*
X57528061Y-110340000D01*
X57731939Y-110340000D01*
X57931898Y-110300226D01*
X58120256Y-110222205D01*
X58289774Y-110108937D01*
X58433937Y-109964774D01*
X58547205Y-109795256D01*
X58625226Y-109606898D01*
X58665000Y-109406939D01*
X58665000Y-109203061D01*
X58625226Y-109003102D01*
X58547205Y-108814744D01*
X58433937Y-108645226D01*
X58289774Y-108501063D01*
X58120256Y-108387795D01*
X58052845Y-108359872D01*
X67645000Y-108359872D01*
X67645000Y-108800128D01*
X67730890Y-109231925D01*
X67899369Y-109638669D01*
X68143962Y-110004729D01*
X68455271Y-110316038D01*
X68821331Y-110560631D01*
X69228075Y-110729110D01*
X69659872Y-110815000D01*
X70100128Y-110815000D01*
X70531925Y-110729110D01*
X70938669Y-110560631D01*
X71304729Y-110316038D01*
X71479900Y-110140867D01*
X79157972Y-110140867D01*
X79917500Y-110900395D01*
X80677028Y-110140867D01*
X80614535Y-109904550D01*
X80371822Y-109791150D01*
X80111651Y-109727281D01*
X79844018Y-109715396D01*
X79579209Y-109755952D01*
X79327400Y-109847391D01*
X79220465Y-109904550D01*
X79157972Y-110140867D01*
X71479900Y-110140867D01*
X71616038Y-110004729D01*
X71860631Y-109638669D01*
X72029110Y-109231925D01*
X72115000Y-108800128D01*
X72115000Y-108359872D01*
X72029110Y-107928075D01*
X71860631Y-107521331D01*
X71616038Y-107155271D01*
X71479900Y-107019133D01*
X79157972Y-107019133D01*
X79220465Y-107255450D01*
X79463178Y-107368850D01*
X79723349Y-107432719D01*
X79990982Y-107444604D01*
X80255791Y-107404048D01*
X80507600Y-107312609D01*
X80614535Y-107255450D01*
X80677028Y-107019133D01*
X79917500Y-106259605D01*
X79157972Y-107019133D01*
X71479900Y-107019133D01*
X71304729Y-106843962D01*
X70938669Y-106599369D01*
X70531925Y-106430890D01*
X70100128Y-106345000D01*
X69659872Y-106345000D01*
X69228075Y-106430890D01*
X68821331Y-106599369D01*
X68455271Y-106843962D01*
X68143962Y-107155271D01*
X67899369Y-107521331D01*
X67730890Y-107928075D01*
X67645000Y-108359872D01*
X58052845Y-108359872D01*
X57931898Y-108309774D01*
X57875044Y-108298465D01*
X56515000Y-106938422D01*
X56515000Y-106153482D01*
X78552896Y-106153482D01*
X78593452Y-106418291D01*
X78684891Y-106670100D01*
X78742050Y-106777035D01*
X78978367Y-106839528D01*
X79737895Y-106080000D01*
X80097105Y-106080000D01*
X80856633Y-106839528D01*
X81092950Y-106777035D01*
X81206350Y-106534322D01*
X81270219Y-106274151D01*
X81282104Y-106006518D01*
X81246885Y-105776558D01*
X81304422Y-105863474D01*
X81475775Y-106036307D01*
X81677554Y-106172390D01*
X81902004Y-106266493D01*
X82140500Y-106315000D01*
X82490500Y-106315000D01*
X82490500Y-105207000D01*
X81198769Y-105207000D01*
X81084997Y-105380862D01*
X80856633Y-105320472D01*
X80097105Y-106080000D01*
X79737895Y-106080000D01*
X78978367Y-105320472D01*
X78742050Y-105382965D01*
X78628650Y-105625678D01*
X78564781Y-105885849D01*
X78552896Y-106153482D01*
X56515000Y-106153482D01*
X56515000Y-105140867D01*
X79157972Y-105140867D01*
X79917500Y-105900395D01*
X80677028Y-105140867D01*
X80614535Y-104904550D01*
X80371822Y-104791150D01*
X80254672Y-104762391D01*
X81074038Y-104762391D01*
X81198769Y-104953000D01*
X82490500Y-104953000D01*
X82490500Y-103845000D01*
X82140500Y-103845000D01*
X81902004Y-103893507D01*
X81677554Y-103987610D01*
X81475775Y-104123693D01*
X81304422Y-104296526D01*
X81170079Y-104499467D01*
X81077909Y-104724718D01*
X81074038Y-104762391D01*
X80254672Y-104762391D01*
X80111651Y-104727281D01*
X79844018Y-104715396D01*
X79579209Y-104755952D01*
X79327400Y-104847391D01*
X79220465Y-104904550D01*
X79157972Y-105140867D01*
X56515000Y-105140867D01*
X56515000Y-104612402D01*
X56528061Y-104615000D01*
X56731939Y-104615000D01*
X56931898Y-104575226D01*
X57120256Y-104497205D01*
X57289774Y-104383937D01*
X57433937Y-104239774D01*
X57547205Y-104070256D01*
X57625226Y-103881898D01*
X57665000Y-103681939D01*
X57665000Y-103619802D01*
X57694802Y-103590000D01*
X59929300Y-103590000D01*
X60089744Y-103697205D01*
X60278102Y-103775226D01*
X60478061Y-103815000D01*
X60681939Y-103815000D01*
X60881898Y-103775226D01*
X61070256Y-103697205D01*
X61239774Y-103583937D01*
X61383937Y-103439774D01*
X61497205Y-103270256D01*
X61575226Y-103081898D01*
X61615000Y-102881939D01*
X61615000Y-102678061D01*
X61575226Y-102478102D01*
X61497205Y-102289744D01*
X61383937Y-102120226D01*
X61239774Y-101976063D01*
X61070256Y-101862795D01*
X60881898Y-101784774D01*
X60681939Y-101745000D01*
X60478061Y-101745000D01*
X60278102Y-101784774D01*
X60089744Y-101862795D01*
X59920226Y-101976063D01*
X59826289Y-102070000D01*
X57891579Y-102070000D01*
X58375044Y-101586535D01*
X58431898Y-101575226D01*
X58620256Y-101497205D01*
X58789774Y-101383937D01*
X58933937Y-101239774D01*
X59047205Y-101070256D01*
X59125226Y-100881898D01*
X59136535Y-100825043D01*
X60496579Y-99465000D01*
X61795000Y-99465000D01*
X61795000Y-100480000D01*
X61807201Y-100603882D01*
X61843336Y-100723004D01*
X61902017Y-100832787D01*
X61980987Y-100929013D01*
X62077213Y-101007983D01*
X62186996Y-101066664D01*
X62306118Y-101102799D01*
X62430000Y-101115000D01*
X64330000Y-101115000D01*
X64453882Y-101102799D01*
X64573004Y-101066664D01*
X64682787Y-101007983D01*
X64779013Y-100929013D01*
X64857983Y-100832787D01*
X64916664Y-100723004D01*
X64952799Y-100603882D01*
X64965000Y-100480000D01*
X64965000Y-99465000D01*
X64986531Y-99465000D01*
X65030000Y-99469281D01*
X65073469Y-99465000D01*
X65073477Y-99465000D01*
X65203490Y-99452195D01*
X65370313Y-99401589D01*
X65524059Y-99319411D01*
X65658817Y-99208817D01*
X65686534Y-99175044D01*
X66975049Y-97886530D01*
X67008817Y-97858817D01*
X67119411Y-97724059D01*
X67201589Y-97570313D01*
X67252195Y-97403490D01*
X67265000Y-97273477D01*
X67265000Y-97273467D01*
X67269281Y-97230001D01*
X67265000Y-97186535D01*
X67265000Y-96938576D01*
X68096220Y-96107357D01*
X70002176Y-96107357D01*
X70045645Y-96111638D01*
X70089114Y-96107357D01*
X70089122Y-96107357D01*
X70219135Y-96094552D01*
X70385958Y-96043946D01*
X70539704Y-95961768D01*
X70674462Y-95851174D01*
X70702179Y-95817401D01*
X73549895Y-92969686D01*
X73583663Y-92941973D01*
X73616807Y-92901588D01*
X73694257Y-92807215D01*
X73776435Y-92653470D01*
X73827041Y-92486646D01*
X73827111Y-92485940D01*
X73839846Y-92356633D01*
X73839846Y-92356625D01*
X73844127Y-92313156D01*
X73839846Y-92269687D01*
X73839846Y-91830000D01*
X76262815Y-91830000D01*
X76291487Y-92121111D01*
X76376401Y-92401034D01*
X76514294Y-92659014D01*
X76699866Y-92885134D01*
X76925986Y-93070706D01*
X76943374Y-93080000D01*
X76925986Y-93089294D01*
X76699866Y-93274866D01*
X76514294Y-93500986D01*
X76376401Y-93758966D01*
X76291487Y-94038889D01*
X76262815Y-94330000D01*
X76291487Y-94621111D01*
X76376401Y-94901034D01*
X76514294Y-95159014D01*
X76699866Y-95385134D01*
X76763337Y-95437223D01*
X76661614Y-95491595D01*
X76527038Y-95602038D01*
X76416595Y-95736614D01*
X76334528Y-95890150D01*
X76283992Y-96056746D01*
X76266928Y-96230000D01*
X76266928Y-97430000D01*
X76283992Y-97603254D01*
X76334528Y-97769850D01*
X76416595Y-97923386D01*
X76527038Y-98057962D01*
X76661614Y-98168405D01*
X76815150Y-98250472D01*
X76981746Y-98301008D01*
X77155000Y-98318072D01*
X78605000Y-98318072D01*
X78778254Y-98301008D01*
X78944850Y-98250472D01*
X79098386Y-98168405D01*
X79232962Y-98057962D01*
X79343405Y-97923386D01*
X79425472Y-97769850D01*
X79476008Y-97603254D01*
X79493072Y-97430000D01*
X79493072Y-96230000D01*
X79476008Y-96056746D01*
X79425472Y-95890150D01*
X79343405Y-95736614D01*
X79232962Y-95602038D01*
X79098386Y-95491595D01*
X78996663Y-95437223D01*
X79060134Y-95385134D01*
X79245706Y-95159014D01*
X79383599Y-94901034D01*
X79468513Y-94621111D01*
X79497185Y-94330000D01*
X79468513Y-94038889D01*
X79383599Y-93758966D01*
X79245706Y-93500986D01*
X79060134Y-93274866D01*
X78834014Y-93089294D01*
X78816626Y-93080000D01*
X78834014Y-93070706D01*
X79060134Y-92885134D01*
X79245706Y-92659014D01*
X79383599Y-92401034D01*
X79468513Y-92121111D01*
X79497185Y-91830000D01*
X79468513Y-91538889D01*
X79383599Y-91258966D01*
X79245706Y-91000986D01*
X79060134Y-90774866D01*
X78834014Y-90589294D01*
X78808278Y-90575538D01*
X79014429Y-90419049D01*
X79207496Y-90201193D01*
X79354352Y-89949858D01*
X79446476Y-89686890D01*
X79325155Y-89457000D01*
X78007000Y-89457000D01*
X78007000Y-89477000D01*
X77753000Y-89477000D01*
X77753000Y-89457000D01*
X76434845Y-89457000D01*
X76313524Y-89686890D01*
X76405648Y-89949858D01*
X76552504Y-90201193D01*
X76745571Y-90419049D01*
X76951722Y-90575538D01*
X76925986Y-90589294D01*
X76699866Y-90774866D01*
X76514294Y-91000986D01*
X76376401Y-91258966D01*
X76291487Y-91538889D01*
X76262815Y-91830000D01*
X73839846Y-91830000D01*
X73839846Y-90598618D01*
X73844127Y-90555151D01*
X73839846Y-90511685D01*
X73839846Y-90511675D01*
X73827041Y-90381662D01*
X73776435Y-90214839D01*
X73766091Y-90195487D01*
X74725050Y-89236529D01*
X74758817Y-89208817D01*
X74798941Y-89159927D01*
X74869411Y-89074059D01*
X74920722Y-88978061D01*
X74923368Y-88973110D01*
X76313524Y-88973110D01*
X76434845Y-89203000D01*
X77753000Y-89203000D01*
X77753000Y-88003835D01*
X78007000Y-88003835D01*
X78007000Y-89203000D01*
X79325155Y-89203000D01*
X79446476Y-88973110D01*
X79354352Y-88710142D01*
X79207496Y-88458807D01*
X79014429Y-88240951D01*
X78782570Y-88064947D01*
X78520830Y-87937558D01*
X78239267Y-87863680D01*
X78007000Y-88003835D01*
X77753000Y-88003835D01*
X77520733Y-87863680D01*
X77239170Y-87937558D01*
X76977430Y-88064947D01*
X76745571Y-88240951D01*
X76552504Y-88458807D01*
X76405648Y-88710142D01*
X76313524Y-88973110D01*
X74923368Y-88973110D01*
X74951589Y-88920313D01*
X75002195Y-88753490D01*
X75015000Y-88623477D01*
X75015000Y-88623469D01*
X75015579Y-88617587D01*
X75047205Y-88570256D01*
X75125226Y-88381898D01*
X75165000Y-88181939D01*
X75165000Y-87978061D01*
X75125226Y-87778102D01*
X75047205Y-87589744D01*
X74933937Y-87420226D01*
X74789774Y-87276063D01*
X74620256Y-87162795D01*
X74431898Y-87084774D01*
X74231939Y-87045000D01*
X74028061Y-87045000D01*
X73828102Y-87084774D01*
X73639744Y-87162795D01*
X73470226Y-87276063D01*
X73326063Y-87420226D01*
X73212795Y-87589744D01*
X73134774Y-87778102D01*
X73095000Y-87978061D01*
X73095000Y-88181939D01*
X73125110Y-88333312D01*
X72309804Y-89148618D01*
X72252949Y-89159927D01*
X72064591Y-89237948D01*
X71895073Y-89351216D01*
X71750910Y-89495379D01*
X71637642Y-89664897D01*
X71559621Y-89853255D01*
X71519847Y-90053214D01*
X71519847Y-90257092D01*
X71559621Y-90457051D01*
X71637642Y-90645409D01*
X71750910Y-90814927D01*
X71895073Y-90959090D01*
X72064591Y-91072358D01*
X72069846Y-91074535D01*
X72069847Y-91946576D01*
X70815067Y-93201356D01*
X70739774Y-93126063D01*
X70570256Y-93012795D01*
X70381898Y-92934774D01*
X70181939Y-92895000D01*
X69978061Y-92895000D01*
X69778102Y-92934774D01*
X69589744Y-93012795D01*
X69420226Y-93126063D01*
X69276063Y-93270226D01*
X69162795Y-93439744D01*
X69084774Y-93628102D01*
X69045000Y-93828061D01*
X69045000Y-93887347D01*
X69007346Y-93887347D01*
X69007346Y-93820407D01*
X68967572Y-93620448D01*
X68889551Y-93432090D01*
X68802002Y-93301064D01*
X68931898Y-93275226D01*
X69120256Y-93197205D01*
X69289774Y-93083937D01*
X69433937Y-92939774D01*
X69547205Y-92770256D01*
X69625226Y-92581898D01*
X69665000Y-92381939D01*
X69665000Y-92178061D01*
X69625226Y-91978102D01*
X69547205Y-91789744D01*
X69433937Y-91620226D01*
X69390003Y-91576292D01*
X69390003Y-91533711D01*
X69433940Y-91489774D01*
X69547208Y-91320256D01*
X69625229Y-91131898D01*
X69665003Y-90931939D01*
X69665003Y-90728061D01*
X69625229Y-90528102D01*
X69547208Y-90339744D01*
X69433940Y-90170226D01*
X69289777Y-90026063D01*
X69120259Y-89912795D01*
X68931901Y-89834774D01*
X68731942Y-89795000D01*
X68528064Y-89795000D01*
X68328105Y-89834774D01*
X68139747Y-89912795D01*
X68130002Y-89919307D01*
X68120256Y-89912795D01*
X67931898Y-89834774D01*
X67731939Y-89795000D01*
X67528061Y-89795000D01*
X67328102Y-89834774D01*
X67139744Y-89912795D01*
X67130000Y-89919306D01*
X67120256Y-89912795D01*
X66931898Y-89834774D01*
X66731939Y-89795000D01*
X66528061Y-89795000D01*
X66341627Y-89832084D01*
X66433937Y-89739774D01*
X66547205Y-89570256D01*
X66625226Y-89381898D01*
X66665000Y-89181939D01*
X66665000Y-88978061D01*
X66625226Y-88778102D01*
X66547205Y-88589744D01*
X66433937Y-88420226D01*
X66289774Y-88276063D01*
X66120256Y-88162795D01*
X65931898Y-88084774D01*
X65731939Y-88045000D01*
X65528061Y-88045000D01*
X65328102Y-88084774D01*
X65139744Y-88162795D01*
X64970226Y-88276063D01*
X64826063Y-88420226D01*
X64712795Y-88589744D01*
X64634774Y-88778102D01*
X64623465Y-88834956D01*
X62988423Y-90469999D01*
X60515000Y-90469999D01*
X60515000Y-84623469D01*
X60519281Y-84580000D01*
X60515000Y-84536531D01*
X60515000Y-84536523D01*
X60502195Y-84406510D01*
X60486569Y-84355000D01*
X60451589Y-84239686D01*
X60369411Y-84085941D01*
X60286532Y-83984953D01*
X60286530Y-83984951D01*
X60258817Y-83951183D01*
X60225050Y-83923471D01*
X59636535Y-83334957D01*
X59625226Y-83278102D01*
X59623048Y-83272845D01*
X60325050Y-82570844D01*
X60358817Y-82543132D01*
X60469411Y-82408374D01*
X60551589Y-82254628D01*
X60602195Y-82087805D01*
X60615000Y-81957792D01*
X60615000Y-81957784D01*
X60619281Y-81914315D01*
X60615000Y-81870846D01*
X60615000Y-78333740D01*
X66605000Y-78333740D01*
X66605000Y-78626260D01*
X66662068Y-78913158D01*
X66774010Y-79183411D01*
X66936525Y-79426632D01*
X67143368Y-79633475D01*
X67386589Y-79795990D01*
X67656842Y-79907932D01*
X67943740Y-79965000D01*
X68236260Y-79965000D01*
X68523158Y-79907932D01*
X68793411Y-79795990D01*
X69036632Y-79633475D01*
X69168487Y-79501620D01*
X69190498Y-79574180D01*
X69249463Y-79684494D01*
X69328815Y-79781185D01*
X69425506Y-79860537D01*
X69535820Y-79919502D01*
X69655518Y-79955812D01*
X69780000Y-79968072D01*
X71480000Y-79968072D01*
X71604482Y-79955812D01*
X71724180Y-79919502D01*
X71834494Y-79860537D01*
X71931185Y-79781185D01*
X72010537Y-79684494D01*
X72069502Y-79574180D01*
X72105812Y-79454482D01*
X72118072Y-79330000D01*
X72118072Y-78359872D01*
X75895000Y-78359872D01*
X75895000Y-78800128D01*
X75980890Y-79231925D01*
X76149369Y-79638669D01*
X76393962Y-80004729D01*
X76705271Y-80316038D01*
X77071331Y-80560631D01*
X77478075Y-80729110D01*
X77909872Y-80815000D01*
X78350128Y-80815000D01*
X78781925Y-80729110D01*
X79188669Y-80560631D01*
X79554729Y-80316038D01*
X79866038Y-80004729D01*
X80110631Y-79638669D01*
X80279110Y-79231925D01*
X80365000Y-78800128D01*
X80365000Y-78359872D01*
X80279110Y-77928075D01*
X80110631Y-77521331D01*
X79866038Y-77155271D01*
X79554729Y-76843962D01*
X79188669Y-76599369D01*
X78781925Y-76430890D01*
X78350128Y-76345000D01*
X77909872Y-76345000D01*
X77478075Y-76430890D01*
X77071331Y-76599369D01*
X76705271Y-76843962D01*
X76393962Y-77155271D01*
X76149369Y-77521331D01*
X75980890Y-77928075D01*
X75895000Y-78359872D01*
X72118072Y-78359872D01*
X72118072Y-77630000D01*
X72105812Y-77505518D01*
X72069502Y-77385820D01*
X72010537Y-77275506D01*
X71931185Y-77178815D01*
X71834494Y-77099463D01*
X71724180Y-77040498D01*
X71604482Y-77004188D01*
X71480000Y-76991928D01*
X69780000Y-76991928D01*
X69655518Y-77004188D01*
X69535820Y-77040498D01*
X69425506Y-77099463D01*
X69328815Y-77178815D01*
X69249463Y-77275506D01*
X69190498Y-77385820D01*
X69168487Y-77458380D01*
X69036632Y-77326525D01*
X68793411Y-77164010D01*
X68523158Y-77052068D01*
X68236260Y-76995000D01*
X67943740Y-76995000D01*
X67656842Y-77052068D01*
X67386589Y-77164010D01*
X67143368Y-77326525D01*
X66936525Y-77533368D01*
X66774010Y-77776589D01*
X66662068Y-78046842D01*
X66605000Y-78333740D01*
X60615000Y-78333740D01*
X60615000Y-76223469D01*
X60619281Y-76180000D01*
X60615000Y-76136531D01*
X60615000Y-76136523D01*
X60602195Y-76006510D01*
X60599373Y-75997205D01*
X60565012Y-75883937D01*
X60551589Y-75839687D01*
X60469411Y-75685941D01*
X60358817Y-75551183D01*
X60325049Y-75523470D01*
X59636535Y-74834957D01*
X59625226Y-74778102D01*
X59547205Y-74589744D01*
X59433937Y-74420226D01*
X59289774Y-74276063D01*
X59120256Y-74162795D01*
X58931898Y-74084774D01*
X58731939Y-74045000D01*
X58528061Y-74045000D01*
X58328102Y-74084774D01*
X58139744Y-74162795D01*
X57970226Y-74276063D01*
X57826063Y-74420226D01*
X57712795Y-74589744D01*
X57634774Y-74778102D01*
X57595000Y-74978061D01*
X57595000Y-75181939D01*
X57634774Y-75381898D01*
X57712795Y-75570256D01*
X57826063Y-75739774D01*
X57970226Y-75883937D01*
X58139744Y-75997205D01*
X58328102Y-76075226D01*
X58384957Y-76086535D01*
X58845001Y-76546580D01*
X58845000Y-81547736D01*
X58034951Y-82357786D01*
X58001184Y-82385498D01*
X57973471Y-82419266D01*
X57973468Y-82419269D01*
X57890590Y-82520256D01*
X57808411Y-82674002D01*
X57757805Y-82840825D01*
X57745000Y-82970838D01*
X57745000Y-82970846D01*
X57740719Y-83014315D01*
X57743606Y-83043632D01*
X57712795Y-83089744D01*
X57634774Y-83278102D01*
X57595000Y-83478061D01*
X57595000Y-83681939D01*
X57634774Y-83881898D01*
X57712795Y-84070256D01*
X57826063Y-84239774D01*
X57970226Y-84383937D01*
X58139744Y-84497205D01*
X58328102Y-84575226D01*
X58384957Y-84586535D01*
X58745000Y-84946579D01*
X58745001Y-90713420D01*
X58384957Y-91073465D01*
X58328102Y-91084774D01*
X58139744Y-91162795D01*
X57970226Y-91276063D01*
X57826063Y-91420226D01*
X57712795Y-91589744D01*
X57634774Y-91778102D01*
X57623465Y-91834956D01*
X57134952Y-92323470D01*
X57101185Y-92351182D01*
X57073472Y-92384950D01*
X57073469Y-92384953D01*
X56990591Y-92485940D01*
X56908413Y-92639686D01*
X56857806Y-92806509D01*
X56840720Y-92979999D01*
X56845002Y-93023478D01*
X56845001Y-100136532D01*
X56840720Y-100180001D01*
X56845001Y-100223470D01*
X56845001Y-100223477D01*
X56846598Y-100239687D01*
X56857806Y-100353491D01*
X56873158Y-100404097D01*
X56908412Y-100520313D01*
X56918756Y-100539665D01*
X55034956Y-102423466D01*
X55001183Y-102451183D01*
X54890589Y-102585942D01*
X54808411Y-102739688D01*
X54757805Y-102906511D01*
X54745000Y-103036524D01*
X54745000Y-103036531D01*
X54740719Y-103080000D01*
X48109873Y-103080000D01*
X48115000Y-103027949D01*
X48115000Y-102632050D01*
X48093513Y-102413889D01*
X48008599Y-102133966D01*
X47870706Y-101875986D01*
X47685134Y-101649866D01*
X47459013Y-101464294D01*
X47201033Y-101326401D01*
X46921110Y-101241487D01*
X46630000Y-101212815D01*
X46338889Y-101241487D01*
X46058966Y-101326401D01*
X45800986Y-101464294D01*
X45574866Y-101649866D01*
X45389294Y-101875987D01*
X45380000Y-101893374D01*
X45370706Y-101875986D01*
X45185134Y-101649866D01*
X44959013Y-101464294D01*
X44701033Y-101326401D01*
X44421110Y-101241487D01*
X44130000Y-101212815D01*
X43838889Y-101241487D01*
X43558966Y-101326401D01*
X43300986Y-101464294D01*
X43074866Y-101649866D01*
X42889294Y-101875987D01*
X42880000Y-101893374D01*
X42870706Y-101875986D01*
X42685134Y-101649866D01*
X42459013Y-101464294D01*
X42201033Y-101326401D01*
X41921110Y-101241487D01*
X41630000Y-101212815D01*
X41338889Y-101241487D01*
X41058966Y-101326401D01*
X40800986Y-101464294D01*
X40580055Y-101645608D01*
X40569502Y-101610820D01*
X40510537Y-101500506D01*
X40431185Y-101403815D01*
X40334494Y-101324463D01*
X40224180Y-101265498D01*
X40104482Y-101229188D01*
X39980000Y-101216928D01*
X39415750Y-101220000D01*
X39257000Y-101378750D01*
X39003000Y-101378750D01*
X38844250Y-101220000D01*
X38280000Y-101216928D01*
X38155518Y-101229188D01*
X38035820Y-101265498D01*
X37925506Y-101324463D01*
X37828815Y-101403815D01*
X37749463Y-101500506D01*
X37690498Y-101610820D01*
X37654188Y-101730518D01*
X37641928Y-101855000D01*
X25257000Y-101855000D01*
X25257000Y-95055000D01*
X37641928Y-95055000D01*
X37654188Y-95179482D01*
X37690498Y-95299180D01*
X37749463Y-95409494D01*
X37828815Y-95506185D01*
X37925506Y-95585537D01*
X38035820Y-95644502D01*
X38155518Y-95680812D01*
X38280000Y-95693072D01*
X38844250Y-95690000D01*
X39003000Y-95531250D01*
X39003000Y-94207000D01*
X37803750Y-94207000D01*
X37645000Y-94365750D01*
X37641928Y-95055000D01*
X25257000Y-95055000D01*
X25257000Y-93105000D01*
X37641928Y-93105000D01*
X37645000Y-93794250D01*
X37803750Y-93953000D01*
X39003000Y-93953000D01*
X39003000Y-92628750D01*
X39257000Y-92628750D01*
X39257000Y-93953000D01*
X39277000Y-93953000D01*
X39277000Y-94207000D01*
X39257000Y-94207000D01*
X39257000Y-95531250D01*
X39415750Y-95690000D01*
X39980000Y-95693072D01*
X40104482Y-95680812D01*
X40224180Y-95644502D01*
X40334494Y-95585537D01*
X40431185Y-95506185D01*
X40510537Y-95409494D01*
X40569502Y-95299180D01*
X40580055Y-95264392D01*
X40800987Y-95445706D01*
X41058967Y-95583599D01*
X41338890Y-95668513D01*
X41630000Y-95697185D01*
X41921111Y-95668513D01*
X42201034Y-95583599D01*
X42459014Y-95445706D01*
X42685134Y-95260134D01*
X42870706Y-95034014D01*
X42880000Y-95016626D01*
X42889294Y-95034014D01*
X43074866Y-95260134D01*
X43300987Y-95445706D01*
X43558967Y-95583599D01*
X43838890Y-95668513D01*
X44130000Y-95697185D01*
X44421111Y-95668513D01*
X44701034Y-95583599D01*
X44959014Y-95445706D01*
X45185134Y-95260134D01*
X45370706Y-95034014D01*
X45380000Y-95016626D01*
X45389294Y-95034014D01*
X45574866Y-95260134D01*
X45800987Y-95445706D01*
X46058967Y-95583599D01*
X46338890Y-95668513D01*
X46630000Y-95697185D01*
X46921111Y-95668513D01*
X47201034Y-95583599D01*
X47459014Y-95445706D01*
X47685134Y-95260134D01*
X47870706Y-95034014D01*
X48008599Y-94776033D01*
X48093513Y-94496110D01*
X48115000Y-94277949D01*
X48115000Y-93882050D01*
X48093513Y-93663889D01*
X48008599Y-93383966D01*
X47870706Y-93125986D01*
X47685134Y-92899866D01*
X47459013Y-92714294D01*
X47201033Y-92576401D01*
X46921110Y-92491487D01*
X46630000Y-92462815D01*
X46338889Y-92491487D01*
X46058966Y-92576401D01*
X45800986Y-92714294D01*
X45574866Y-92899866D01*
X45389294Y-93125987D01*
X45380000Y-93143374D01*
X45370706Y-93125986D01*
X45185134Y-92899866D01*
X44959013Y-92714294D01*
X44701033Y-92576401D01*
X44421110Y-92491487D01*
X44130000Y-92462815D01*
X43838889Y-92491487D01*
X43558966Y-92576401D01*
X43300986Y-92714294D01*
X43074866Y-92899866D01*
X42889294Y-93125987D01*
X42880000Y-93143374D01*
X42870706Y-93125986D01*
X42685134Y-92899866D01*
X42459013Y-92714294D01*
X42201033Y-92576401D01*
X41921110Y-92491487D01*
X41630000Y-92462815D01*
X41338889Y-92491487D01*
X41058966Y-92576401D01*
X40800986Y-92714294D01*
X40580055Y-92895608D01*
X40569502Y-92860820D01*
X40510537Y-92750506D01*
X40431185Y-92653815D01*
X40334494Y-92574463D01*
X40224180Y-92515498D01*
X40104482Y-92479188D01*
X39980000Y-92466928D01*
X39415750Y-92470000D01*
X39257000Y-92628750D01*
X39003000Y-92628750D01*
X38844250Y-92470000D01*
X38280000Y-92466928D01*
X38155518Y-92479188D01*
X38035820Y-92515498D01*
X37925506Y-92574463D01*
X37828815Y-92653815D01*
X37749463Y-92750506D01*
X37690498Y-92860820D01*
X37654188Y-92980518D01*
X37641928Y-93105000D01*
X25257000Y-93105000D01*
X25257000Y-88478061D01*
X55095000Y-88478061D01*
X55095000Y-88681939D01*
X55134774Y-88881898D01*
X55212795Y-89070256D01*
X55326063Y-89239774D01*
X55370000Y-89283711D01*
X55370000Y-89542678D01*
X55366324Y-89580000D01*
X55370000Y-89617322D01*
X55370000Y-89617332D01*
X55380997Y-89728985D01*
X55407314Y-89815741D01*
X55424454Y-89872246D01*
X55495026Y-90004276D01*
X55534871Y-90052826D01*
X55589999Y-90120001D01*
X55619002Y-90143804D01*
X56095000Y-90619802D01*
X56095000Y-90681939D01*
X56134774Y-90881898D01*
X56212795Y-91070256D01*
X56326063Y-91239774D01*
X56470226Y-91383937D01*
X56639744Y-91497205D01*
X56828102Y-91575226D01*
X57028061Y-91615000D01*
X57231939Y-91615000D01*
X57431898Y-91575226D01*
X57620256Y-91497205D01*
X57789774Y-91383937D01*
X57933937Y-91239774D01*
X58047205Y-91070256D01*
X58125226Y-90881898D01*
X58165000Y-90681939D01*
X58165000Y-90478061D01*
X58125226Y-90278102D01*
X58047205Y-90089744D01*
X57933937Y-89920226D01*
X57789774Y-89776063D01*
X57620256Y-89662795D01*
X57431898Y-89584774D01*
X57231939Y-89545000D01*
X57169802Y-89545000D01*
X56899256Y-89274455D01*
X56933937Y-89239774D01*
X57047205Y-89070256D01*
X57125226Y-88881898D01*
X57165000Y-88681939D01*
X57165000Y-88478061D01*
X57125226Y-88278102D01*
X57047205Y-88089744D01*
X56933937Y-87920226D01*
X56789774Y-87776063D01*
X56620256Y-87662795D01*
X56431898Y-87584774D01*
X56231939Y-87545000D01*
X56028061Y-87545000D01*
X55828102Y-87584774D01*
X55639744Y-87662795D01*
X55470226Y-87776063D01*
X55326063Y-87920226D01*
X55212795Y-88089744D01*
X55134774Y-88278102D01*
X55095000Y-88478061D01*
X25257000Y-88478061D01*
X25257000Y-86305000D01*
X37641928Y-86305000D01*
X37654188Y-86429482D01*
X37690498Y-86549180D01*
X37749463Y-86659494D01*
X37828815Y-86756185D01*
X37925506Y-86835537D01*
X38035820Y-86894502D01*
X38155518Y-86930812D01*
X38280000Y-86943072D01*
X38844250Y-86940000D01*
X39003000Y-86781250D01*
X39003000Y-85457000D01*
X37803750Y-85457000D01*
X37645000Y-85615750D01*
X37641928Y-86305000D01*
X25257000Y-86305000D01*
X25257000Y-84355000D01*
X37641928Y-84355000D01*
X37645000Y-85044250D01*
X37803750Y-85203000D01*
X39003000Y-85203000D01*
X39003000Y-83878750D01*
X39257000Y-83878750D01*
X39257000Y-85203000D01*
X39277000Y-85203000D01*
X39277000Y-85457000D01*
X39257000Y-85457000D01*
X39257000Y-86781250D01*
X39415750Y-86940000D01*
X39980000Y-86943072D01*
X40104482Y-86930812D01*
X40224180Y-86894502D01*
X40334494Y-86835537D01*
X40431185Y-86756185D01*
X40510537Y-86659494D01*
X40569502Y-86549180D01*
X40580055Y-86514392D01*
X40800987Y-86695706D01*
X41058967Y-86833599D01*
X41338890Y-86918513D01*
X41630000Y-86947185D01*
X41921111Y-86918513D01*
X42201034Y-86833599D01*
X42459014Y-86695706D01*
X42685134Y-86510134D01*
X42870706Y-86284014D01*
X42880000Y-86266626D01*
X42889294Y-86284014D01*
X43074866Y-86510134D01*
X43300987Y-86695706D01*
X43558967Y-86833599D01*
X43838890Y-86918513D01*
X44130000Y-86947185D01*
X44421111Y-86918513D01*
X44701034Y-86833599D01*
X44959014Y-86695706D01*
X45185134Y-86510134D01*
X45370706Y-86284014D01*
X45380000Y-86266626D01*
X45389294Y-86284014D01*
X45574866Y-86510134D01*
X45800987Y-86695706D01*
X46058967Y-86833599D01*
X46338890Y-86918513D01*
X46630000Y-86947185D01*
X46921111Y-86918513D01*
X47201034Y-86833599D01*
X47459014Y-86695706D01*
X47685134Y-86510134D01*
X47870706Y-86284014D01*
X48008599Y-86026033D01*
X48093513Y-85746110D01*
X48115000Y-85527949D01*
X48115000Y-85132050D01*
X48093513Y-84913889D01*
X48008599Y-84633966D01*
X47870706Y-84375986D01*
X47685134Y-84149866D01*
X47459013Y-83964294D01*
X47201033Y-83826401D01*
X46921110Y-83741487D01*
X46630000Y-83712815D01*
X46338889Y-83741487D01*
X46058966Y-83826401D01*
X45800986Y-83964294D01*
X45574866Y-84149866D01*
X45389294Y-84375987D01*
X45380000Y-84393374D01*
X45370706Y-84375986D01*
X45185134Y-84149866D01*
X44959013Y-83964294D01*
X44701033Y-83826401D01*
X44421110Y-83741487D01*
X44130000Y-83712815D01*
X43838889Y-83741487D01*
X43558966Y-83826401D01*
X43300986Y-83964294D01*
X43074866Y-84149866D01*
X42889294Y-84375987D01*
X42880000Y-84393374D01*
X42870706Y-84375986D01*
X42685134Y-84149866D01*
X42459013Y-83964294D01*
X42201033Y-83826401D01*
X41921110Y-83741487D01*
X41630000Y-83712815D01*
X41338889Y-83741487D01*
X41058966Y-83826401D01*
X40800986Y-83964294D01*
X40580055Y-84145608D01*
X40569502Y-84110820D01*
X40510537Y-84000506D01*
X40431185Y-83903815D01*
X40334494Y-83824463D01*
X40224180Y-83765498D01*
X40104482Y-83729188D01*
X39980000Y-83716928D01*
X39415750Y-83720000D01*
X39257000Y-83878750D01*
X39003000Y-83878750D01*
X38844250Y-83720000D01*
X38280000Y-83716928D01*
X38155518Y-83729188D01*
X38035820Y-83765498D01*
X37925506Y-83824463D01*
X37828815Y-83903815D01*
X37749463Y-84000506D01*
X37690498Y-84110820D01*
X37654188Y-84230518D01*
X37641928Y-84355000D01*
X25257000Y-84355000D01*
X25257000Y-78359872D01*
X27895000Y-78359872D01*
X27895000Y-78800128D01*
X27980890Y-79231925D01*
X28149369Y-79638669D01*
X28393962Y-80004729D01*
X28705271Y-80316038D01*
X29071331Y-80560631D01*
X29478075Y-80729110D01*
X29909872Y-80815000D01*
X30350128Y-80815000D01*
X30781925Y-80729110D01*
X31188669Y-80560631D01*
X31554729Y-80316038D01*
X31866038Y-80004729D01*
X32034196Y-79753061D01*
X55095000Y-79753061D01*
X55095000Y-79956939D01*
X55134774Y-80156898D01*
X55212795Y-80345256D01*
X55326063Y-80514774D01*
X55368562Y-80557273D01*
X55366324Y-80580000D01*
X55370000Y-80617322D01*
X55370000Y-80617332D01*
X55380997Y-80728985D01*
X55424454Y-80872246D01*
X55495026Y-81004276D01*
X55512062Y-81025034D01*
X55589999Y-81120001D01*
X55619002Y-81143804D01*
X56095000Y-81619802D01*
X56095000Y-81681939D01*
X56134774Y-81881898D01*
X56212795Y-82070256D01*
X56326063Y-82239774D01*
X56470226Y-82383937D01*
X56639744Y-82497205D01*
X56828102Y-82575226D01*
X57028061Y-82615000D01*
X57231939Y-82615000D01*
X57431898Y-82575226D01*
X57620256Y-82497205D01*
X57789774Y-82383937D01*
X57933937Y-82239774D01*
X58047205Y-82070256D01*
X58125226Y-81881898D01*
X58165000Y-81681939D01*
X58165000Y-81478061D01*
X58125226Y-81278102D01*
X58047205Y-81089744D01*
X57933937Y-80920226D01*
X57789774Y-80776063D01*
X57620256Y-80662795D01*
X57431898Y-80584774D01*
X57231939Y-80545000D01*
X57169802Y-80545000D01*
X57016304Y-80391503D01*
X57047205Y-80345256D01*
X57125226Y-80156898D01*
X57165000Y-79956939D01*
X57165000Y-79753061D01*
X57125226Y-79553102D01*
X57047205Y-79364744D01*
X56933937Y-79195226D01*
X56789774Y-79051063D01*
X56620256Y-78937795D01*
X56431898Y-78859774D01*
X56231939Y-78820000D01*
X56028061Y-78820000D01*
X55828102Y-78859774D01*
X55639744Y-78937795D01*
X55470226Y-79051063D01*
X55326063Y-79195226D01*
X55212795Y-79364744D01*
X55134774Y-79553102D01*
X55095000Y-79753061D01*
X32034196Y-79753061D01*
X32110631Y-79638669D01*
X32279110Y-79231925D01*
X32365000Y-78800128D01*
X32365000Y-78359872D01*
X32279110Y-77928075D01*
X32124578Y-77555000D01*
X37641928Y-77555000D01*
X37654188Y-77679482D01*
X37690498Y-77799180D01*
X37749463Y-77909494D01*
X37828815Y-78006185D01*
X37925506Y-78085537D01*
X38035820Y-78144502D01*
X38155518Y-78180812D01*
X38280000Y-78193072D01*
X38844250Y-78190000D01*
X39003000Y-78031250D01*
X39003000Y-76707000D01*
X37803750Y-76707000D01*
X37645000Y-76865750D01*
X37641928Y-77555000D01*
X32124578Y-77555000D01*
X32110631Y-77521331D01*
X31866038Y-77155271D01*
X31554729Y-76843962D01*
X31188669Y-76599369D01*
X30781925Y-76430890D01*
X30350128Y-76345000D01*
X29909872Y-76345000D01*
X29478075Y-76430890D01*
X29071331Y-76599369D01*
X28705271Y-76843962D01*
X28393962Y-77155271D01*
X28149369Y-77521331D01*
X27980890Y-77928075D01*
X27895000Y-78359872D01*
X25257000Y-78359872D01*
X25257000Y-75605000D01*
X37641928Y-75605000D01*
X37645000Y-76294250D01*
X37803750Y-76453000D01*
X39003000Y-76453000D01*
X39003000Y-75128750D01*
X39257000Y-75128750D01*
X39257000Y-76453000D01*
X39277000Y-76453000D01*
X39277000Y-76707000D01*
X39257000Y-76707000D01*
X39257000Y-78031250D01*
X39415750Y-78190000D01*
X39980000Y-78193072D01*
X40104482Y-78180812D01*
X40224180Y-78144502D01*
X40334494Y-78085537D01*
X40431185Y-78006185D01*
X40510537Y-77909494D01*
X40569502Y-77799180D01*
X40580055Y-77764392D01*
X40800987Y-77945706D01*
X41058967Y-78083599D01*
X41338890Y-78168513D01*
X41630000Y-78197185D01*
X41921111Y-78168513D01*
X42201034Y-78083599D01*
X42459014Y-77945706D01*
X42685134Y-77760134D01*
X42870706Y-77534014D01*
X42880000Y-77516626D01*
X42889294Y-77534014D01*
X43074866Y-77760134D01*
X43300987Y-77945706D01*
X43558967Y-78083599D01*
X43838890Y-78168513D01*
X44130000Y-78197185D01*
X44421111Y-78168513D01*
X44701034Y-78083599D01*
X44959014Y-77945706D01*
X45185134Y-77760134D01*
X45370706Y-77534014D01*
X45380000Y-77516626D01*
X45389294Y-77534014D01*
X45574866Y-77760134D01*
X45800987Y-77945706D01*
X46058967Y-78083599D01*
X46338890Y-78168513D01*
X46630000Y-78197185D01*
X46921111Y-78168513D01*
X47201034Y-78083599D01*
X47459014Y-77945706D01*
X47685134Y-77760134D01*
X47870706Y-77534014D01*
X48008599Y-77276033D01*
X48093513Y-76996110D01*
X48115000Y-76777949D01*
X48115000Y-76382050D01*
X48093513Y-76163889D01*
X48008599Y-75883966D01*
X47870706Y-75625986D01*
X47685134Y-75399866D01*
X47459013Y-75214294D01*
X47201033Y-75076401D01*
X46921110Y-74991487D01*
X46630000Y-74962815D01*
X46338889Y-74991487D01*
X46058966Y-75076401D01*
X45800986Y-75214294D01*
X45574866Y-75399866D01*
X45389294Y-75625987D01*
X45380000Y-75643374D01*
X45370706Y-75625986D01*
X45185134Y-75399866D01*
X44959013Y-75214294D01*
X44701033Y-75076401D01*
X44421110Y-74991487D01*
X44130000Y-74962815D01*
X43838889Y-74991487D01*
X43558966Y-75076401D01*
X43300986Y-75214294D01*
X43074866Y-75399866D01*
X42889294Y-75625987D01*
X42880000Y-75643374D01*
X42870706Y-75625986D01*
X42685134Y-75399866D01*
X42459013Y-75214294D01*
X42201033Y-75076401D01*
X41921110Y-74991487D01*
X41630000Y-74962815D01*
X41338889Y-74991487D01*
X41058966Y-75076401D01*
X40800986Y-75214294D01*
X40580055Y-75395608D01*
X40569502Y-75360820D01*
X40510537Y-75250506D01*
X40431185Y-75153815D01*
X40334494Y-75074463D01*
X40224180Y-75015498D01*
X40104482Y-74979188D01*
X39980000Y-74966928D01*
X39415750Y-74970000D01*
X39257000Y-75128750D01*
X39003000Y-75128750D01*
X38844250Y-74970000D01*
X38280000Y-74966928D01*
X38155518Y-74979188D01*
X38035820Y-75015498D01*
X37925506Y-75074463D01*
X37828815Y-75153815D01*
X37749463Y-75250506D01*
X37690498Y-75360820D01*
X37654188Y-75480518D01*
X37641928Y-75605000D01*
X25257000Y-75605000D01*
X25257000Y-69707000D01*
X83003000Y-69707000D01*
X83003000Y-103845000D01*
G37*
X83003000Y-103845000D02*
X82744500Y-103845000D01*
X82744500Y-104953000D01*
X82764500Y-104953000D01*
X82764500Y-105207000D01*
X82744500Y-105207000D01*
X82744500Y-106315000D01*
X83003000Y-106315000D01*
X83003000Y-110845000D01*
X82744500Y-110845000D01*
X82744500Y-111953000D01*
X82764500Y-111953000D01*
X82764500Y-112207000D01*
X82744500Y-112207000D01*
X82744500Y-113315000D01*
X83003000Y-113315000D01*
X83003000Y-117453000D01*
X25257000Y-117453000D01*
X25257000Y-112555000D01*
X37641928Y-112555000D01*
X37654188Y-112679482D01*
X37690498Y-112799180D01*
X37749463Y-112909494D01*
X37828815Y-113006185D01*
X37925506Y-113085537D01*
X38035820Y-113144502D01*
X38155518Y-113180812D01*
X38280000Y-113193072D01*
X38844250Y-113190000D01*
X39003000Y-113031250D01*
X39003000Y-111707000D01*
X37803750Y-111707000D01*
X37645000Y-111865750D01*
X37641928Y-112555000D01*
X25257000Y-112555000D01*
X25257000Y-108359872D01*
X27895000Y-108359872D01*
X27895000Y-108800128D01*
X27980890Y-109231925D01*
X28149369Y-109638669D01*
X28393962Y-110004729D01*
X28705271Y-110316038D01*
X29071331Y-110560631D01*
X29478075Y-110729110D01*
X29909872Y-110815000D01*
X30350128Y-110815000D01*
X30781925Y-110729110D01*
X31081552Y-110605000D01*
X37641928Y-110605000D01*
X37645000Y-111294250D01*
X37803750Y-111453000D01*
X39003000Y-111453000D01*
X39003000Y-110128750D01*
X39257000Y-110128750D01*
X39257000Y-111453000D01*
X39277000Y-111453000D01*
X39277000Y-111707000D01*
X39257000Y-111707000D01*
X39257000Y-113031250D01*
X39415750Y-113190000D01*
X39980000Y-113193072D01*
X40104482Y-113180812D01*
X40224180Y-113144502D01*
X40334494Y-113085537D01*
X40431185Y-113006185D01*
X40510537Y-112909494D01*
X40569502Y-112799180D01*
X40580055Y-112764392D01*
X40800987Y-112945706D01*
X41058967Y-113083599D01*
X41338890Y-113168513D01*
X41630000Y-113197185D01*
X41921111Y-113168513D01*
X42201034Y-113083599D01*
X42459014Y-112945706D01*
X42685134Y-112760134D01*
X42870706Y-112534014D01*
X42880000Y-112516626D01*
X42889294Y-112534014D01*
X43074866Y-112760134D01*
X43300987Y-112945706D01*
X43558967Y-113083599D01*
X43838890Y-113168513D01*
X44130000Y-113197185D01*
X44421111Y-113168513D01*
X44701034Y-113083599D01*
X44959014Y-112945706D01*
X45185134Y-112760134D01*
X45370706Y-112534014D01*
X45380000Y-112516626D01*
X45389294Y-112534014D01*
X45574866Y-112760134D01*
X45800987Y-112945706D01*
X46058967Y-113083599D01*
X46338890Y-113168513D01*
X46630000Y-113197185D01*
X46921111Y-113168513D01*
X47201034Y-113083599D01*
X47459014Y-112945706D01*
X47685134Y-112760134D01*
X47870706Y-112534014D01*
X48008599Y-112276033D01*
X48086529Y-112019133D01*
X79157972Y-112019133D01*
X79220465Y-112255450D01*
X79463178Y-112368850D01*
X79723349Y-112432719D01*
X79990982Y-112444604D01*
X80255791Y-112404048D01*
X80273523Y-112397609D01*
X81074038Y-112397609D01*
X81077909Y-112435282D01*
X81170079Y-112660533D01*
X81304422Y-112863474D01*
X81475775Y-113036307D01*
X81677554Y-113172390D01*
X81902004Y-113266493D01*
X82140500Y-113315000D01*
X82490500Y-113315000D01*
X82490500Y-112207000D01*
X81198769Y-112207000D01*
X81074038Y-112397609D01*
X80273523Y-112397609D01*
X80507600Y-112312609D01*
X80614535Y-112255450D01*
X80677028Y-112019133D01*
X79917500Y-111259605D01*
X79157972Y-112019133D01*
X48086529Y-112019133D01*
X48093513Y-111996110D01*
X48115000Y-111777949D01*
X48115000Y-111382050D01*
X48093513Y-111163889D01*
X48090357Y-111153482D01*
X78552896Y-111153482D01*
X78593452Y-111418291D01*
X78684891Y-111670100D01*
X78742050Y-111777035D01*
X78978367Y-111839528D01*
X79737895Y-111080000D01*
X80097105Y-111080000D01*
X80856633Y-111839528D01*
X81084997Y-111779138D01*
X81198769Y-111953000D01*
X82490500Y-111953000D01*
X82490500Y-110845000D01*
X82140500Y-110845000D01*
X81902004Y-110893507D01*
X81677554Y-110987610D01*
X81475775Y-111123693D01*
X81304422Y-111296526D01*
X81241329Y-111391836D01*
X81270219Y-111274151D01*
X81282104Y-111006518D01*
X81241548Y-110741709D01*
X81150109Y-110489900D01*
X81092950Y-110382965D01*
X80856633Y-110320472D01*
X80097105Y-111080000D01*
X79737895Y-111080000D01*
X78978367Y-110320472D01*
X78742050Y-110382965D01*
X78628650Y-110625678D01*
X78564781Y-110885849D01*
X78552896Y-111153482D01*
X48090357Y-111153482D01*
X48008599Y-110883966D01*
X47870706Y-110625986D01*
X47685134Y-110399866D01*
X47459013Y-110214294D01*
X47201033Y-110076401D01*
X46921110Y-109991487D01*
X46630000Y-109962815D01*
X46338889Y-109991487D01*
X46058966Y-110076401D01*
X45800986Y-110214294D01*
X45574866Y-110399866D01*
X45389294Y-110625987D01*
X45380000Y-110643374D01*
X45370706Y-110625986D01*
X45185134Y-110399866D01*
X44959013Y-110214294D01*
X44701033Y-110076401D01*
X44421110Y-109991487D01*
X44130000Y-109962815D01*
X43838889Y-109991487D01*
X43558966Y-110076401D01*
X43300986Y-110214294D01*
X43074866Y-110399866D01*
X42889294Y-110625987D01*
X42880000Y-110643374D01*
X42870706Y-110625986D01*
X42685134Y-110399866D01*
X42459013Y-110214294D01*
X42201033Y-110076401D01*
X41921110Y-109991487D01*
X41630000Y-109962815D01*
X41338889Y-109991487D01*
X41058966Y-110076401D01*
X40800986Y-110214294D01*
X40580055Y-110395608D01*
X40569502Y-110360820D01*
X40510537Y-110250506D01*
X40431185Y-110153815D01*
X40334494Y-110074463D01*
X40224180Y-110015498D01*
X40104482Y-109979188D01*
X39980000Y-109966928D01*
X39415750Y-109970000D01*
X39257000Y-110128750D01*
X39003000Y-110128750D01*
X38844250Y-109970000D01*
X38280000Y-109966928D01*
X38155518Y-109979188D01*
X38035820Y-110015498D01*
X37925506Y-110074463D01*
X37828815Y-110153815D01*
X37749463Y-110250506D01*
X37690498Y-110360820D01*
X37654188Y-110480518D01*
X37641928Y-110605000D01*
X31081552Y-110605000D01*
X31188669Y-110560631D01*
X31554729Y-110316038D01*
X31866038Y-110004729D01*
X32110631Y-109638669D01*
X32279110Y-109231925D01*
X32365000Y-108800128D01*
X32365000Y-108359872D01*
X32279110Y-107928075D01*
X32110631Y-107521331D01*
X31866038Y-107155271D01*
X31554729Y-106843962D01*
X31188669Y-106599369D01*
X30781925Y-106430890D01*
X30350128Y-106345000D01*
X29909872Y-106345000D01*
X29478075Y-106430890D01*
X29071331Y-106599369D01*
X28705271Y-106843962D01*
X28393962Y-107155271D01*
X28149369Y-107521331D01*
X27980890Y-107928075D01*
X27895000Y-108359872D01*
X25257000Y-108359872D01*
X25257000Y-103805000D01*
X37641928Y-103805000D01*
X37654188Y-103929482D01*
X37690498Y-104049180D01*
X37749463Y-104159494D01*
X37828815Y-104256185D01*
X37925506Y-104335537D01*
X38035820Y-104394502D01*
X38155518Y-104430812D01*
X38280000Y-104443072D01*
X38844250Y-104440000D01*
X39003000Y-104281250D01*
X39003000Y-102957000D01*
X37803750Y-102957000D01*
X37645000Y-103115750D01*
X37641928Y-103805000D01*
X25257000Y-103805000D01*
X25257000Y-101855000D01*
X37641928Y-101855000D01*
X37645000Y-102544250D01*
X37803750Y-102703000D01*
X39003000Y-102703000D01*
X39003000Y-101378750D01*
X39257000Y-101378750D01*
X39257000Y-102703000D01*
X39277000Y-102703000D01*
X39277000Y-102957000D01*
X39257000Y-102957000D01*
X39257000Y-104281250D01*
X39415750Y-104440000D01*
X39980000Y-104443072D01*
X40104482Y-104430812D01*
X40224180Y-104394502D01*
X40334494Y-104335537D01*
X40431185Y-104256185D01*
X40510537Y-104159494D01*
X40569502Y-104049180D01*
X40580055Y-104014392D01*
X40800987Y-104195706D01*
X41058967Y-104333599D01*
X41338890Y-104418513D01*
X41630000Y-104447185D01*
X41921111Y-104418513D01*
X42201034Y-104333599D01*
X42459014Y-104195706D01*
X42685134Y-104010134D01*
X42870706Y-103784014D01*
X42880000Y-103766626D01*
X42889294Y-103784014D01*
X43074866Y-104010134D01*
X43300987Y-104195706D01*
X43558967Y-104333599D01*
X43838890Y-104418513D01*
X44130000Y-104447185D01*
X44421111Y-104418513D01*
X44701034Y-104333599D01*
X44959014Y-104195706D01*
X45185134Y-104010134D01*
X45370706Y-103784014D01*
X45380000Y-103766626D01*
X45389294Y-103784014D01*
X45574866Y-104010134D01*
X45800987Y-104195706D01*
X46058967Y-104333599D01*
X46338890Y-104418513D01*
X46630000Y-104447185D01*
X46921111Y-104418513D01*
X47201034Y-104333599D01*
X47459014Y-104195706D01*
X47685134Y-104010134D01*
X47870706Y-103784014D01*
X48008599Y-103526033D01*
X48093513Y-103246110D01*
X48109873Y-103080000D01*
X54740719Y-103080000D01*
X54745000Y-103123469D01*
X54745001Y-107261521D01*
X54740719Y-107305000D01*
X54757805Y-107478490D01*
X54808412Y-107645313D01*
X54890590Y-107799059D01*
X54973468Y-107900046D01*
X54973471Y-107900049D01*
X55001184Y-107933817D01*
X55034951Y-107961529D01*
X56623465Y-109550044D01*
X56634774Y-109606898D01*
X56712795Y-109795256D01*
X56826063Y-109964774D01*
X56970226Y-110108937D01*
X57139744Y-110222205D01*
X57328102Y-110300226D01*
X57528061Y-110340000D01*
X57731939Y-110340000D01*
X57931898Y-110300226D01*
X58120256Y-110222205D01*
X58289774Y-110108937D01*
X58433937Y-109964774D01*
X58547205Y-109795256D01*
X58625226Y-109606898D01*
X58665000Y-109406939D01*
X58665000Y-109203061D01*
X58625226Y-109003102D01*
X58547205Y-108814744D01*
X58433937Y-108645226D01*
X58289774Y-108501063D01*
X58120256Y-108387795D01*
X58052845Y-108359872D01*
X67645000Y-108359872D01*
X67645000Y-108800128D01*
X67730890Y-109231925D01*
X67899369Y-109638669D01*
X68143962Y-110004729D01*
X68455271Y-110316038D01*
X68821331Y-110560631D01*
X69228075Y-110729110D01*
X69659872Y-110815000D01*
X70100128Y-110815000D01*
X70531925Y-110729110D01*
X70938669Y-110560631D01*
X71304729Y-110316038D01*
X71479900Y-110140867D01*
X79157972Y-110140867D01*
X79917500Y-110900395D01*
X80677028Y-110140867D01*
X80614535Y-109904550D01*
X80371822Y-109791150D01*
X80111651Y-109727281D01*
X79844018Y-109715396D01*
X79579209Y-109755952D01*
X79327400Y-109847391D01*
X79220465Y-109904550D01*
X79157972Y-110140867D01*
X71479900Y-110140867D01*
X71616038Y-110004729D01*
X71860631Y-109638669D01*
X72029110Y-109231925D01*
X72115000Y-108800128D01*
X72115000Y-108359872D01*
X72029110Y-107928075D01*
X71860631Y-107521331D01*
X71616038Y-107155271D01*
X71479900Y-107019133D01*
X79157972Y-107019133D01*
X79220465Y-107255450D01*
X79463178Y-107368850D01*
X79723349Y-107432719D01*
X79990982Y-107444604D01*
X80255791Y-107404048D01*
X80507600Y-107312609D01*
X80614535Y-107255450D01*
X80677028Y-107019133D01*
X79917500Y-106259605D01*
X79157972Y-107019133D01*
X71479900Y-107019133D01*
X71304729Y-106843962D01*
X70938669Y-106599369D01*
X70531925Y-106430890D01*
X70100128Y-106345000D01*
X69659872Y-106345000D01*
X69228075Y-106430890D01*
X68821331Y-106599369D01*
X68455271Y-106843962D01*
X68143962Y-107155271D01*
X67899369Y-107521331D01*
X67730890Y-107928075D01*
X67645000Y-108359872D01*
X58052845Y-108359872D01*
X57931898Y-108309774D01*
X57875044Y-108298465D01*
X56515000Y-106938422D01*
X56515000Y-106153482D01*
X78552896Y-106153482D01*
X78593452Y-106418291D01*
X78684891Y-106670100D01*
X78742050Y-106777035D01*
X78978367Y-106839528D01*
X79737895Y-106080000D01*
X80097105Y-106080000D01*
X80856633Y-106839528D01*
X81092950Y-106777035D01*
X81206350Y-106534322D01*
X81270219Y-106274151D01*
X81282104Y-106006518D01*
X81246885Y-105776558D01*
X81304422Y-105863474D01*
X81475775Y-106036307D01*
X81677554Y-106172390D01*
X81902004Y-106266493D01*
X82140500Y-106315000D01*
X82490500Y-106315000D01*
X82490500Y-105207000D01*
X81198769Y-105207000D01*
X81084997Y-105380862D01*
X80856633Y-105320472D01*
X80097105Y-106080000D01*
X79737895Y-106080000D01*
X78978367Y-105320472D01*
X78742050Y-105382965D01*
X78628650Y-105625678D01*
X78564781Y-105885849D01*
X78552896Y-106153482D01*
X56515000Y-106153482D01*
X56515000Y-105140867D01*
X79157972Y-105140867D01*
X79917500Y-105900395D01*
X80677028Y-105140867D01*
X80614535Y-104904550D01*
X80371822Y-104791150D01*
X80254672Y-104762391D01*
X81074038Y-104762391D01*
X81198769Y-104953000D01*
X82490500Y-104953000D01*
X82490500Y-103845000D01*
X82140500Y-103845000D01*
X81902004Y-103893507D01*
X81677554Y-103987610D01*
X81475775Y-104123693D01*
X81304422Y-104296526D01*
X81170079Y-104499467D01*
X81077909Y-104724718D01*
X81074038Y-104762391D01*
X80254672Y-104762391D01*
X80111651Y-104727281D01*
X79844018Y-104715396D01*
X79579209Y-104755952D01*
X79327400Y-104847391D01*
X79220465Y-104904550D01*
X79157972Y-105140867D01*
X56515000Y-105140867D01*
X56515000Y-104612402D01*
X56528061Y-104615000D01*
X56731939Y-104615000D01*
X56931898Y-104575226D01*
X57120256Y-104497205D01*
X57289774Y-104383937D01*
X57433937Y-104239774D01*
X57547205Y-104070256D01*
X57625226Y-103881898D01*
X57665000Y-103681939D01*
X57665000Y-103619802D01*
X57694802Y-103590000D01*
X59929300Y-103590000D01*
X60089744Y-103697205D01*
X60278102Y-103775226D01*
X60478061Y-103815000D01*
X60681939Y-103815000D01*
X60881898Y-103775226D01*
X61070256Y-103697205D01*
X61239774Y-103583937D01*
X61383937Y-103439774D01*
X61497205Y-103270256D01*
X61575226Y-103081898D01*
X61615000Y-102881939D01*
X61615000Y-102678061D01*
X61575226Y-102478102D01*
X61497205Y-102289744D01*
X61383937Y-102120226D01*
X61239774Y-101976063D01*
X61070256Y-101862795D01*
X60881898Y-101784774D01*
X60681939Y-101745000D01*
X60478061Y-101745000D01*
X60278102Y-101784774D01*
X60089744Y-101862795D01*
X59920226Y-101976063D01*
X59826289Y-102070000D01*
X57891579Y-102070000D01*
X58375044Y-101586535D01*
X58431898Y-101575226D01*
X58620256Y-101497205D01*
X58789774Y-101383937D01*
X58933937Y-101239774D01*
X59047205Y-101070256D01*
X59125226Y-100881898D01*
X59136535Y-100825043D01*
X60496579Y-99465000D01*
X61795000Y-99465000D01*
X61795000Y-100480000D01*
X61807201Y-100603882D01*
X61843336Y-100723004D01*
X61902017Y-100832787D01*
X61980987Y-100929013D01*
X62077213Y-101007983D01*
X62186996Y-101066664D01*
X62306118Y-101102799D01*
X62430000Y-101115000D01*
X64330000Y-101115000D01*
X64453882Y-101102799D01*
X64573004Y-101066664D01*
X64682787Y-101007983D01*
X64779013Y-100929013D01*
X64857983Y-100832787D01*
X64916664Y-100723004D01*
X64952799Y-100603882D01*
X64965000Y-100480000D01*
X64965000Y-99465000D01*
X64986531Y-99465000D01*
X65030000Y-99469281D01*
X65073469Y-99465000D01*
X65073477Y-99465000D01*
X65203490Y-99452195D01*
X65370313Y-99401589D01*
X65524059Y-99319411D01*
X65658817Y-99208817D01*
X65686534Y-99175044D01*
X66975049Y-97886530D01*
X67008817Y-97858817D01*
X67119411Y-97724059D01*
X67201589Y-97570313D01*
X67252195Y-97403490D01*
X67265000Y-97273477D01*
X67265000Y-97273467D01*
X67269281Y-97230001D01*
X67265000Y-97186535D01*
X67265000Y-96938576D01*
X68096220Y-96107357D01*
X70002176Y-96107357D01*
X70045645Y-96111638D01*
X70089114Y-96107357D01*
X70089122Y-96107357D01*
X70219135Y-96094552D01*
X70385958Y-96043946D01*
X70539704Y-95961768D01*
X70674462Y-95851174D01*
X70702179Y-95817401D01*
X73549895Y-92969686D01*
X73583663Y-92941973D01*
X73616807Y-92901588D01*
X73694257Y-92807215D01*
X73776435Y-92653470D01*
X73827041Y-92486646D01*
X73827111Y-92485940D01*
X73839846Y-92356633D01*
X73839846Y-92356625D01*
X73844127Y-92313156D01*
X73839846Y-92269687D01*
X73839846Y-91830000D01*
X76262815Y-91830000D01*
X76291487Y-92121111D01*
X76376401Y-92401034D01*
X76514294Y-92659014D01*
X76699866Y-92885134D01*
X76925986Y-93070706D01*
X76943374Y-93080000D01*
X76925986Y-93089294D01*
X76699866Y-93274866D01*
X76514294Y-93500986D01*
X76376401Y-93758966D01*
X76291487Y-94038889D01*
X76262815Y-94330000D01*
X76291487Y-94621111D01*
X76376401Y-94901034D01*
X76514294Y-95159014D01*
X76699866Y-95385134D01*
X76763337Y-95437223D01*
X76661614Y-95491595D01*
X76527038Y-95602038D01*
X76416595Y-95736614D01*
X76334528Y-95890150D01*
X76283992Y-96056746D01*
X76266928Y-96230000D01*
X76266928Y-97430000D01*
X76283992Y-97603254D01*
X76334528Y-97769850D01*
X76416595Y-97923386D01*
X76527038Y-98057962D01*
X76661614Y-98168405D01*
X76815150Y-98250472D01*
X76981746Y-98301008D01*
X77155000Y-98318072D01*
X78605000Y-98318072D01*
X78778254Y-98301008D01*
X78944850Y-98250472D01*
X79098386Y-98168405D01*
X79232962Y-98057962D01*
X79343405Y-97923386D01*
X79425472Y-97769850D01*
X79476008Y-97603254D01*
X79493072Y-97430000D01*
X79493072Y-96230000D01*
X79476008Y-96056746D01*
X79425472Y-95890150D01*
X79343405Y-95736614D01*
X79232962Y-95602038D01*
X79098386Y-95491595D01*
X78996663Y-95437223D01*
X79060134Y-95385134D01*
X79245706Y-95159014D01*
X79383599Y-94901034D01*
X79468513Y-94621111D01*
X79497185Y-94330000D01*
X79468513Y-94038889D01*
X79383599Y-93758966D01*
X79245706Y-93500986D01*
X79060134Y-93274866D01*
X78834014Y-93089294D01*
X78816626Y-93080000D01*
X78834014Y-93070706D01*
X79060134Y-92885134D01*
X79245706Y-92659014D01*
X79383599Y-92401034D01*
X79468513Y-92121111D01*
X79497185Y-91830000D01*
X79468513Y-91538889D01*
X79383599Y-91258966D01*
X79245706Y-91000986D01*
X79060134Y-90774866D01*
X78834014Y-90589294D01*
X78808278Y-90575538D01*
X79014429Y-90419049D01*
X79207496Y-90201193D01*
X79354352Y-89949858D01*
X79446476Y-89686890D01*
X79325155Y-89457000D01*
X78007000Y-89457000D01*
X78007000Y-89477000D01*
X77753000Y-89477000D01*
X77753000Y-89457000D01*
X76434845Y-89457000D01*
X76313524Y-89686890D01*
X76405648Y-89949858D01*
X76552504Y-90201193D01*
X76745571Y-90419049D01*
X76951722Y-90575538D01*
X76925986Y-90589294D01*
X76699866Y-90774866D01*
X76514294Y-91000986D01*
X76376401Y-91258966D01*
X76291487Y-91538889D01*
X76262815Y-91830000D01*
X73839846Y-91830000D01*
X73839846Y-90598618D01*
X73844127Y-90555151D01*
X73839846Y-90511685D01*
X73839846Y-90511675D01*
X73827041Y-90381662D01*
X73776435Y-90214839D01*
X73766091Y-90195487D01*
X74725050Y-89236529D01*
X74758817Y-89208817D01*
X74798941Y-89159927D01*
X74869411Y-89074059D01*
X74920722Y-88978061D01*
X74923368Y-88973110D01*
X76313524Y-88973110D01*
X76434845Y-89203000D01*
X77753000Y-89203000D01*
X77753000Y-88003835D01*
X78007000Y-88003835D01*
X78007000Y-89203000D01*
X79325155Y-89203000D01*
X79446476Y-88973110D01*
X79354352Y-88710142D01*
X79207496Y-88458807D01*
X79014429Y-88240951D01*
X78782570Y-88064947D01*
X78520830Y-87937558D01*
X78239267Y-87863680D01*
X78007000Y-88003835D01*
X77753000Y-88003835D01*
X77520733Y-87863680D01*
X77239170Y-87937558D01*
X76977430Y-88064947D01*
X76745571Y-88240951D01*
X76552504Y-88458807D01*
X76405648Y-88710142D01*
X76313524Y-88973110D01*
X74923368Y-88973110D01*
X74951589Y-88920313D01*
X75002195Y-88753490D01*
X75015000Y-88623477D01*
X75015000Y-88623469D01*
X75015579Y-88617587D01*
X75047205Y-88570256D01*
X75125226Y-88381898D01*
X75165000Y-88181939D01*
X75165000Y-87978061D01*
X75125226Y-87778102D01*
X75047205Y-87589744D01*
X74933937Y-87420226D01*
X74789774Y-87276063D01*
X74620256Y-87162795D01*
X74431898Y-87084774D01*
X74231939Y-87045000D01*
X74028061Y-87045000D01*
X73828102Y-87084774D01*
X73639744Y-87162795D01*
X73470226Y-87276063D01*
X73326063Y-87420226D01*
X73212795Y-87589744D01*
X73134774Y-87778102D01*
X73095000Y-87978061D01*
X73095000Y-88181939D01*
X73125110Y-88333312D01*
X72309804Y-89148618D01*
X72252949Y-89159927D01*
X72064591Y-89237948D01*
X71895073Y-89351216D01*
X71750910Y-89495379D01*
X71637642Y-89664897D01*
X71559621Y-89853255D01*
X71519847Y-90053214D01*
X71519847Y-90257092D01*
X71559621Y-90457051D01*
X71637642Y-90645409D01*
X71750910Y-90814927D01*
X71895073Y-90959090D01*
X72064591Y-91072358D01*
X72069846Y-91074535D01*
X72069847Y-91946576D01*
X70815067Y-93201356D01*
X70739774Y-93126063D01*
X70570256Y-93012795D01*
X70381898Y-92934774D01*
X70181939Y-92895000D01*
X69978061Y-92895000D01*
X69778102Y-92934774D01*
X69589744Y-93012795D01*
X69420226Y-93126063D01*
X69276063Y-93270226D01*
X69162795Y-93439744D01*
X69084774Y-93628102D01*
X69045000Y-93828061D01*
X69045000Y-93887347D01*
X69007346Y-93887347D01*
X69007346Y-93820407D01*
X68967572Y-93620448D01*
X68889551Y-93432090D01*
X68802002Y-93301064D01*
X68931898Y-93275226D01*
X69120256Y-93197205D01*
X69289774Y-93083937D01*
X69433937Y-92939774D01*
X69547205Y-92770256D01*
X69625226Y-92581898D01*
X69665000Y-92381939D01*
X69665000Y-92178061D01*
X69625226Y-91978102D01*
X69547205Y-91789744D01*
X69433937Y-91620226D01*
X69390003Y-91576292D01*
X69390003Y-91533711D01*
X69433940Y-91489774D01*
X69547208Y-91320256D01*
X69625229Y-91131898D01*
X69665003Y-90931939D01*
X69665003Y-90728061D01*
X69625229Y-90528102D01*
X69547208Y-90339744D01*
X69433940Y-90170226D01*
X69289777Y-90026063D01*
X69120259Y-89912795D01*
X68931901Y-89834774D01*
X68731942Y-89795000D01*
X68528064Y-89795000D01*
X68328105Y-89834774D01*
X68139747Y-89912795D01*
X68130002Y-89919307D01*
X68120256Y-89912795D01*
X67931898Y-89834774D01*
X67731939Y-89795000D01*
X67528061Y-89795000D01*
X67328102Y-89834774D01*
X67139744Y-89912795D01*
X67130000Y-89919306D01*
X67120256Y-89912795D01*
X66931898Y-89834774D01*
X66731939Y-89795000D01*
X66528061Y-89795000D01*
X66341627Y-89832084D01*
X66433937Y-89739774D01*
X66547205Y-89570256D01*
X66625226Y-89381898D01*
X66665000Y-89181939D01*
X66665000Y-88978061D01*
X66625226Y-88778102D01*
X66547205Y-88589744D01*
X66433937Y-88420226D01*
X66289774Y-88276063D01*
X66120256Y-88162795D01*
X65931898Y-88084774D01*
X65731939Y-88045000D01*
X65528061Y-88045000D01*
X65328102Y-88084774D01*
X65139744Y-88162795D01*
X64970226Y-88276063D01*
X64826063Y-88420226D01*
X64712795Y-88589744D01*
X64634774Y-88778102D01*
X64623465Y-88834956D01*
X62988423Y-90469999D01*
X60515000Y-90469999D01*
X60515000Y-84623469D01*
X60519281Y-84580000D01*
X60515000Y-84536531D01*
X60515000Y-84536523D01*
X60502195Y-84406510D01*
X60486569Y-84355000D01*
X60451589Y-84239686D01*
X60369411Y-84085941D01*
X60286532Y-83984953D01*
X60286530Y-83984951D01*
X60258817Y-83951183D01*
X60225050Y-83923471D01*
X59636535Y-83334957D01*
X59625226Y-83278102D01*
X59623048Y-83272845D01*
X60325050Y-82570844D01*
X60358817Y-82543132D01*
X60469411Y-82408374D01*
X60551589Y-82254628D01*
X60602195Y-82087805D01*
X60615000Y-81957792D01*
X60615000Y-81957784D01*
X60619281Y-81914315D01*
X60615000Y-81870846D01*
X60615000Y-78333740D01*
X66605000Y-78333740D01*
X66605000Y-78626260D01*
X66662068Y-78913158D01*
X66774010Y-79183411D01*
X66936525Y-79426632D01*
X67143368Y-79633475D01*
X67386589Y-79795990D01*
X67656842Y-79907932D01*
X67943740Y-79965000D01*
X68236260Y-79965000D01*
X68523158Y-79907932D01*
X68793411Y-79795990D01*
X69036632Y-79633475D01*
X69168487Y-79501620D01*
X69190498Y-79574180D01*
X69249463Y-79684494D01*
X69328815Y-79781185D01*
X69425506Y-79860537D01*
X69535820Y-79919502D01*
X69655518Y-79955812D01*
X69780000Y-79968072D01*
X71480000Y-79968072D01*
X71604482Y-79955812D01*
X71724180Y-79919502D01*
X71834494Y-79860537D01*
X71931185Y-79781185D01*
X72010537Y-79684494D01*
X72069502Y-79574180D01*
X72105812Y-79454482D01*
X72118072Y-79330000D01*
X72118072Y-78359872D01*
X75895000Y-78359872D01*
X75895000Y-78800128D01*
X75980890Y-79231925D01*
X76149369Y-79638669D01*
X76393962Y-80004729D01*
X76705271Y-80316038D01*
X77071331Y-80560631D01*
X77478075Y-80729110D01*
X77909872Y-80815000D01*
X78350128Y-80815000D01*
X78781925Y-80729110D01*
X79188669Y-80560631D01*
X79554729Y-80316038D01*
X79866038Y-80004729D01*
X80110631Y-79638669D01*
X80279110Y-79231925D01*
X80365000Y-78800128D01*
X80365000Y-78359872D01*
X80279110Y-77928075D01*
X80110631Y-77521331D01*
X79866038Y-77155271D01*
X79554729Y-76843962D01*
X79188669Y-76599369D01*
X78781925Y-76430890D01*
X78350128Y-76345000D01*
X77909872Y-76345000D01*
X77478075Y-76430890D01*
X77071331Y-76599369D01*
X76705271Y-76843962D01*
X76393962Y-77155271D01*
X76149369Y-77521331D01*
X75980890Y-77928075D01*
X75895000Y-78359872D01*
X72118072Y-78359872D01*
X72118072Y-77630000D01*
X72105812Y-77505518D01*
X72069502Y-77385820D01*
X72010537Y-77275506D01*
X71931185Y-77178815D01*
X71834494Y-77099463D01*
X71724180Y-77040498D01*
X71604482Y-77004188D01*
X71480000Y-76991928D01*
X69780000Y-76991928D01*
X69655518Y-77004188D01*
X69535820Y-77040498D01*
X69425506Y-77099463D01*
X69328815Y-77178815D01*
X69249463Y-77275506D01*
X69190498Y-77385820D01*
X69168487Y-77458380D01*
X69036632Y-77326525D01*
X68793411Y-77164010D01*
X68523158Y-77052068D01*
X68236260Y-76995000D01*
X67943740Y-76995000D01*
X67656842Y-77052068D01*
X67386589Y-77164010D01*
X67143368Y-77326525D01*
X66936525Y-77533368D01*
X66774010Y-77776589D01*
X66662068Y-78046842D01*
X66605000Y-78333740D01*
X60615000Y-78333740D01*
X60615000Y-76223469D01*
X60619281Y-76180000D01*
X60615000Y-76136531D01*
X60615000Y-76136523D01*
X60602195Y-76006510D01*
X60599373Y-75997205D01*
X60565012Y-75883937D01*
X60551589Y-75839687D01*
X60469411Y-75685941D01*
X60358817Y-75551183D01*
X60325049Y-75523470D01*
X59636535Y-74834957D01*
X59625226Y-74778102D01*
X59547205Y-74589744D01*
X59433937Y-74420226D01*
X59289774Y-74276063D01*
X59120256Y-74162795D01*
X58931898Y-74084774D01*
X58731939Y-74045000D01*
X58528061Y-74045000D01*
X58328102Y-74084774D01*
X58139744Y-74162795D01*
X57970226Y-74276063D01*
X57826063Y-74420226D01*
X57712795Y-74589744D01*
X57634774Y-74778102D01*
X57595000Y-74978061D01*
X57595000Y-75181939D01*
X57634774Y-75381898D01*
X57712795Y-75570256D01*
X57826063Y-75739774D01*
X57970226Y-75883937D01*
X58139744Y-75997205D01*
X58328102Y-76075226D01*
X58384957Y-76086535D01*
X58845001Y-76546580D01*
X58845000Y-81547736D01*
X58034951Y-82357786D01*
X58001184Y-82385498D01*
X57973471Y-82419266D01*
X57973468Y-82419269D01*
X57890590Y-82520256D01*
X57808411Y-82674002D01*
X57757805Y-82840825D01*
X57745000Y-82970838D01*
X57745000Y-82970846D01*
X57740719Y-83014315D01*
X57743606Y-83043632D01*
X57712795Y-83089744D01*
X57634774Y-83278102D01*
X57595000Y-83478061D01*
X57595000Y-83681939D01*
X57634774Y-83881898D01*
X57712795Y-84070256D01*
X57826063Y-84239774D01*
X57970226Y-84383937D01*
X58139744Y-84497205D01*
X58328102Y-84575226D01*
X58384957Y-84586535D01*
X58745000Y-84946579D01*
X58745001Y-90713420D01*
X58384957Y-91073465D01*
X58328102Y-91084774D01*
X58139744Y-91162795D01*
X57970226Y-91276063D01*
X57826063Y-91420226D01*
X57712795Y-91589744D01*
X57634774Y-91778102D01*
X57623465Y-91834956D01*
X57134952Y-92323470D01*
X57101185Y-92351182D01*
X57073472Y-92384950D01*
X57073469Y-92384953D01*
X56990591Y-92485940D01*
X56908413Y-92639686D01*
X56857806Y-92806509D01*
X56840720Y-92979999D01*
X56845002Y-93023478D01*
X56845001Y-100136532D01*
X56840720Y-100180001D01*
X56845001Y-100223470D01*
X56845001Y-100223477D01*
X56846598Y-100239687D01*
X56857806Y-100353491D01*
X56873158Y-100404097D01*
X56908412Y-100520313D01*
X56918756Y-100539665D01*
X55034956Y-102423466D01*
X55001183Y-102451183D01*
X54890589Y-102585942D01*
X54808411Y-102739688D01*
X54757805Y-102906511D01*
X54745000Y-103036524D01*
X54745000Y-103036531D01*
X54740719Y-103080000D01*
X48109873Y-103080000D01*
X48115000Y-103027949D01*
X48115000Y-102632050D01*
X48093513Y-102413889D01*
X48008599Y-102133966D01*
X47870706Y-101875986D01*
X47685134Y-101649866D01*
X47459013Y-101464294D01*
X47201033Y-101326401D01*
X46921110Y-101241487D01*
X46630000Y-101212815D01*
X46338889Y-101241487D01*
X46058966Y-101326401D01*
X45800986Y-101464294D01*
X45574866Y-101649866D01*
X45389294Y-101875987D01*
X45380000Y-101893374D01*
X45370706Y-101875986D01*
X45185134Y-101649866D01*
X44959013Y-101464294D01*
X44701033Y-101326401D01*
X44421110Y-101241487D01*
X44130000Y-101212815D01*
X43838889Y-101241487D01*
X43558966Y-101326401D01*
X43300986Y-101464294D01*
X43074866Y-101649866D01*
X42889294Y-101875987D01*
X42880000Y-101893374D01*
X42870706Y-101875986D01*
X42685134Y-101649866D01*
X42459013Y-101464294D01*
X42201033Y-101326401D01*
X41921110Y-101241487D01*
X41630000Y-101212815D01*
X41338889Y-101241487D01*
X41058966Y-101326401D01*
X40800986Y-101464294D01*
X40580055Y-101645608D01*
X40569502Y-101610820D01*
X40510537Y-101500506D01*
X40431185Y-101403815D01*
X40334494Y-101324463D01*
X40224180Y-101265498D01*
X40104482Y-101229188D01*
X39980000Y-101216928D01*
X39415750Y-101220000D01*
X39257000Y-101378750D01*
X39003000Y-101378750D01*
X38844250Y-101220000D01*
X38280000Y-101216928D01*
X38155518Y-101229188D01*
X38035820Y-101265498D01*
X37925506Y-101324463D01*
X37828815Y-101403815D01*
X37749463Y-101500506D01*
X37690498Y-101610820D01*
X37654188Y-101730518D01*
X37641928Y-101855000D01*
X25257000Y-101855000D01*
X25257000Y-95055000D01*
X37641928Y-95055000D01*
X37654188Y-95179482D01*
X37690498Y-95299180D01*
X37749463Y-95409494D01*
X37828815Y-95506185D01*
X37925506Y-95585537D01*
X38035820Y-95644502D01*
X38155518Y-95680812D01*
X38280000Y-95693072D01*
X38844250Y-95690000D01*
X39003000Y-95531250D01*
X39003000Y-94207000D01*
X37803750Y-94207000D01*
X37645000Y-94365750D01*
X37641928Y-95055000D01*
X25257000Y-95055000D01*
X25257000Y-93105000D01*
X37641928Y-93105000D01*
X37645000Y-93794250D01*
X37803750Y-93953000D01*
X39003000Y-93953000D01*
X39003000Y-92628750D01*
X39257000Y-92628750D01*
X39257000Y-93953000D01*
X39277000Y-93953000D01*
X39277000Y-94207000D01*
X39257000Y-94207000D01*
X39257000Y-95531250D01*
X39415750Y-95690000D01*
X39980000Y-95693072D01*
X40104482Y-95680812D01*
X40224180Y-95644502D01*
X40334494Y-95585537D01*
X40431185Y-95506185D01*
X40510537Y-95409494D01*
X40569502Y-95299180D01*
X40580055Y-95264392D01*
X40800987Y-95445706D01*
X41058967Y-95583599D01*
X41338890Y-95668513D01*
X41630000Y-95697185D01*
X41921111Y-95668513D01*
X42201034Y-95583599D01*
X42459014Y-95445706D01*
X42685134Y-95260134D01*
X42870706Y-95034014D01*
X42880000Y-95016626D01*
X42889294Y-95034014D01*
X43074866Y-95260134D01*
X43300987Y-95445706D01*
X43558967Y-95583599D01*
X43838890Y-95668513D01*
X44130000Y-95697185D01*
X44421111Y-95668513D01*
X44701034Y-95583599D01*
X44959014Y-95445706D01*
X45185134Y-95260134D01*
X45370706Y-95034014D01*
X45380000Y-95016626D01*
X45389294Y-95034014D01*
X45574866Y-95260134D01*
X45800987Y-95445706D01*
X46058967Y-95583599D01*
X46338890Y-95668513D01*
X46630000Y-95697185D01*
X46921111Y-95668513D01*
X47201034Y-95583599D01*
X47459014Y-95445706D01*
X47685134Y-95260134D01*
X47870706Y-95034014D01*
X48008599Y-94776033D01*
X48093513Y-94496110D01*
X48115000Y-94277949D01*
X48115000Y-93882050D01*
X48093513Y-93663889D01*
X48008599Y-93383966D01*
X47870706Y-93125986D01*
X47685134Y-92899866D01*
X47459013Y-92714294D01*
X47201033Y-92576401D01*
X46921110Y-92491487D01*
X46630000Y-92462815D01*
X46338889Y-92491487D01*
X46058966Y-92576401D01*
X45800986Y-92714294D01*
X45574866Y-92899866D01*
X45389294Y-93125987D01*
X45380000Y-93143374D01*
X45370706Y-93125986D01*
X45185134Y-92899866D01*
X44959013Y-92714294D01*
X44701033Y-92576401D01*
X44421110Y-92491487D01*
X44130000Y-92462815D01*
X43838889Y-92491487D01*
X43558966Y-92576401D01*
X43300986Y-92714294D01*
X43074866Y-92899866D01*
X42889294Y-93125987D01*
X42880000Y-93143374D01*
X42870706Y-93125986D01*
X42685134Y-92899866D01*
X42459013Y-92714294D01*
X42201033Y-92576401D01*
X41921110Y-92491487D01*
X41630000Y-92462815D01*
X41338889Y-92491487D01*
X41058966Y-92576401D01*
X40800986Y-92714294D01*
X40580055Y-92895608D01*
X40569502Y-92860820D01*
X40510537Y-92750506D01*
X40431185Y-92653815D01*
X40334494Y-92574463D01*
X40224180Y-92515498D01*
X40104482Y-92479188D01*
X39980000Y-92466928D01*
X39415750Y-92470000D01*
X39257000Y-92628750D01*
X39003000Y-92628750D01*
X38844250Y-92470000D01*
X38280000Y-92466928D01*
X38155518Y-92479188D01*
X38035820Y-92515498D01*
X37925506Y-92574463D01*
X37828815Y-92653815D01*
X37749463Y-92750506D01*
X37690498Y-92860820D01*
X37654188Y-92980518D01*
X37641928Y-93105000D01*
X25257000Y-93105000D01*
X25257000Y-88478061D01*
X55095000Y-88478061D01*
X55095000Y-88681939D01*
X55134774Y-88881898D01*
X55212795Y-89070256D01*
X55326063Y-89239774D01*
X55370000Y-89283711D01*
X55370000Y-89542678D01*
X55366324Y-89580000D01*
X55370000Y-89617322D01*
X55370000Y-89617332D01*
X55380997Y-89728985D01*
X55407314Y-89815741D01*
X55424454Y-89872246D01*
X55495026Y-90004276D01*
X55534871Y-90052826D01*
X55589999Y-90120001D01*
X55619002Y-90143804D01*
X56095000Y-90619802D01*
X56095000Y-90681939D01*
X56134774Y-90881898D01*
X56212795Y-91070256D01*
X56326063Y-91239774D01*
X56470226Y-91383937D01*
X56639744Y-91497205D01*
X56828102Y-91575226D01*
X57028061Y-91615000D01*
X57231939Y-91615000D01*
X57431898Y-91575226D01*
X57620256Y-91497205D01*
X57789774Y-91383937D01*
X57933937Y-91239774D01*
X58047205Y-91070256D01*
X58125226Y-90881898D01*
X58165000Y-90681939D01*
X58165000Y-90478061D01*
X58125226Y-90278102D01*
X58047205Y-90089744D01*
X57933937Y-89920226D01*
X57789774Y-89776063D01*
X57620256Y-89662795D01*
X57431898Y-89584774D01*
X57231939Y-89545000D01*
X57169802Y-89545000D01*
X56899256Y-89274455D01*
X56933937Y-89239774D01*
X57047205Y-89070256D01*
X57125226Y-88881898D01*
X57165000Y-88681939D01*
X57165000Y-88478061D01*
X57125226Y-88278102D01*
X57047205Y-88089744D01*
X56933937Y-87920226D01*
X56789774Y-87776063D01*
X56620256Y-87662795D01*
X56431898Y-87584774D01*
X56231939Y-87545000D01*
X56028061Y-87545000D01*
X55828102Y-87584774D01*
X55639744Y-87662795D01*
X55470226Y-87776063D01*
X55326063Y-87920226D01*
X55212795Y-88089744D01*
X55134774Y-88278102D01*
X55095000Y-88478061D01*
X25257000Y-88478061D01*
X25257000Y-86305000D01*
X37641928Y-86305000D01*
X37654188Y-86429482D01*
X37690498Y-86549180D01*
X37749463Y-86659494D01*
X37828815Y-86756185D01*
X37925506Y-86835537D01*
X38035820Y-86894502D01*
X38155518Y-86930812D01*
X38280000Y-86943072D01*
X38844250Y-86940000D01*
X39003000Y-86781250D01*
X39003000Y-85457000D01*
X37803750Y-85457000D01*
X37645000Y-85615750D01*
X37641928Y-86305000D01*
X25257000Y-86305000D01*
X25257000Y-84355000D01*
X37641928Y-84355000D01*
X37645000Y-85044250D01*
X37803750Y-85203000D01*
X39003000Y-85203000D01*
X39003000Y-83878750D01*
X39257000Y-83878750D01*
X39257000Y-85203000D01*
X39277000Y-85203000D01*
X39277000Y-85457000D01*
X39257000Y-85457000D01*
X39257000Y-86781250D01*
X39415750Y-86940000D01*
X39980000Y-86943072D01*
X40104482Y-86930812D01*
X40224180Y-86894502D01*
X40334494Y-86835537D01*
X40431185Y-86756185D01*
X40510537Y-86659494D01*
X40569502Y-86549180D01*
X40580055Y-86514392D01*
X40800987Y-86695706D01*
X41058967Y-86833599D01*
X41338890Y-86918513D01*
X41630000Y-86947185D01*
X41921111Y-86918513D01*
X42201034Y-86833599D01*
X42459014Y-86695706D01*
X42685134Y-86510134D01*
X42870706Y-86284014D01*
X42880000Y-86266626D01*
X42889294Y-86284014D01*
X43074866Y-86510134D01*
X43300987Y-86695706D01*
X43558967Y-86833599D01*
X43838890Y-86918513D01*
X44130000Y-86947185D01*
X44421111Y-86918513D01*
X44701034Y-86833599D01*
X44959014Y-86695706D01*
X45185134Y-86510134D01*
X45370706Y-86284014D01*
X45380000Y-86266626D01*
X45389294Y-86284014D01*
X45574866Y-86510134D01*
X45800987Y-86695706D01*
X46058967Y-86833599D01*
X46338890Y-86918513D01*
X46630000Y-86947185D01*
X46921111Y-86918513D01*
X47201034Y-86833599D01*
X47459014Y-86695706D01*
X47685134Y-86510134D01*
X47870706Y-86284014D01*
X48008599Y-86026033D01*
X48093513Y-85746110D01*
X48115000Y-85527949D01*
X48115000Y-85132050D01*
X48093513Y-84913889D01*
X48008599Y-84633966D01*
X47870706Y-84375986D01*
X47685134Y-84149866D01*
X47459013Y-83964294D01*
X47201033Y-83826401D01*
X46921110Y-83741487D01*
X46630000Y-83712815D01*
X46338889Y-83741487D01*
X46058966Y-83826401D01*
X45800986Y-83964294D01*
X45574866Y-84149866D01*
X45389294Y-84375987D01*
X45380000Y-84393374D01*
X45370706Y-84375986D01*
X45185134Y-84149866D01*
X44959013Y-83964294D01*
X44701033Y-83826401D01*
X44421110Y-83741487D01*
X44130000Y-83712815D01*
X43838889Y-83741487D01*
X43558966Y-83826401D01*
X43300986Y-83964294D01*
X43074866Y-84149866D01*
X42889294Y-84375987D01*
X42880000Y-84393374D01*
X42870706Y-84375986D01*
X42685134Y-84149866D01*
X42459013Y-83964294D01*
X42201033Y-83826401D01*
X41921110Y-83741487D01*
X41630000Y-83712815D01*
X41338889Y-83741487D01*
X41058966Y-83826401D01*
X40800986Y-83964294D01*
X40580055Y-84145608D01*
X40569502Y-84110820D01*
X40510537Y-84000506D01*
X40431185Y-83903815D01*
X40334494Y-83824463D01*
X40224180Y-83765498D01*
X40104482Y-83729188D01*
X39980000Y-83716928D01*
X39415750Y-83720000D01*
X39257000Y-83878750D01*
X39003000Y-83878750D01*
X38844250Y-83720000D01*
X38280000Y-83716928D01*
X38155518Y-83729188D01*
X38035820Y-83765498D01*
X37925506Y-83824463D01*
X37828815Y-83903815D01*
X37749463Y-84000506D01*
X37690498Y-84110820D01*
X37654188Y-84230518D01*
X37641928Y-84355000D01*
X25257000Y-84355000D01*
X25257000Y-78359872D01*
X27895000Y-78359872D01*
X27895000Y-78800128D01*
X27980890Y-79231925D01*
X28149369Y-79638669D01*
X28393962Y-80004729D01*
X28705271Y-80316038D01*
X29071331Y-80560631D01*
X29478075Y-80729110D01*
X29909872Y-80815000D01*
X30350128Y-80815000D01*
X30781925Y-80729110D01*
X31188669Y-80560631D01*
X31554729Y-80316038D01*
X31866038Y-80004729D01*
X32034196Y-79753061D01*
X55095000Y-79753061D01*
X55095000Y-79956939D01*
X55134774Y-80156898D01*
X55212795Y-80345256D01*
X55326063Y-80514774D01*
X55368562Y-80557273D01*
X55366324Y-80580000D01*
X55370000Y-80617322D01*
X55370000Y-80617332D01*
X55380997Y-80728985D01*
X55424454Y-80872246D01*
X55495026Y-81004276D01*
X55512062Y-81025034D01*
X55589999Y-81120001D01*
X55619002Y-81143804D01*
X56095000Y-81619802D01*
X56095000Y-81681939D01*
X56134774Y-81881898D01*
X56212795Y-82070256D01*
X56326063Y-82239774D01*
X56470226Y-82383937D01*
X56639744Y-82497205D01*
X56828102Y-82575226D01*
X57028061Y-82615000D01*
X57231939Y-82615000D01*
X57431898Y-82575226D01*
X57620256Y-82497205D01*
X57789774Y-82383937D01*
X57933937Y-82239774D01*
X58047205Y-82070256D01*
X58125226Y-81881898D01*
X58165000Y-81681939D01*
X58165000Y-81478061D01*
X58125226Y-81278102D01*
X58047205Y-81089744D01*
X57933937Y-80920226D01*
X57789774Y-80776063D01*
X57620256Y-80662795D01*
X57431898Y-80584774D01*
X57231939Y-80545000D01*
X57169802Y-80545000D01*
X57016304Y-80391503D01*
X57047205Y-80345256D01*
X57125226Y-80156898D01*
X57165000Y-79956939D01*
X57165000Y-79753061D01*
X57125226Y-79553102D01*
X57047205Y-79364744D01*
X56933937Y-79195226D01*
X56789774Y-79051063D01*
X56620256Y-78937795D01*
X56431898Y-78859774D01*
X56231939Y-78820000D01*
X56028061Y-78820000D01*
X55828102Y-78859774D01*
X55639744Y-78937795D01*
X55470226Y-79051063D01*
X55326063Y-79195226D01*
X55212795Y-79364744D01*
X55134774Y-79553102D01*
X55095000Y-79753061D01*
X32034196Y-79753061D01*
X32110631Y-79638669D01*
X32279110Y-79231925D01*
X32365000Y-78800128D01*
X32365000Y-78359872D01*
X32279110Y-77928075D01*
X32124578Y-77555000D01*
X37641928Y-77555000D01*
X37654188Y-77679482D01*
X37690498Y-77799180D01*
X37749463Y-77909494D01*
X37828815Y-78006185D01*
X37925506Y-78085537D01*
X38035820Y-78144502D01*
X38155518Y-78180812D01*
X38280000Y-78193072D01*
X38844250Y-78190000D01*
X39003000Y-78031250D01*
X39003000Y-76707000D01*
X37803750Y-76707000D01*
X37645000Y-76865750D01*
X37641928Y-77555000D01*
X32124578Y-77555000D01*
X32110631Y-77521331D01*
X31866038Y-77155271D01*
X31554729Y-76843962D01*
X31188669Y-76599369D01*
X30781925Y-76430890D01*
X30350128Y-76345000D01*
X29909872Y-76345000D01*
X29478075Y-76430890D01*
X29071331Y-76599369D01*
X28705271Y-76843962D01*
X28393962Y-77155271D01*
X28149369Y-77521331D01*
X27980890Y-77928075D01*
X27895000Y-78359872D01*
X25257000Y-78359872D01*
X25257000Y-75605000D01*
X37641928Y-75605000D01*
X37645000Y-76294250D01*
X37803750Y-76453000D01*
X39003000Y-76453000D01*
X39003000Y-75128750D01*
X39257000Y-75128750D01*
X39257000Y-76453000D01*
X39277000Y-76453000D01*
X39277000Y-76707000D01*
X39257000Y-76707000D01*
X39257000Y-78031250D01*
X39415750Y-78190000D01*
X39980000Y-78193072D01*
X40104482Y-78180812D01*
X40224180Y-78144502D01*
X40334494Y-78085537D01*
X40431185Y-78006185D01*
X40510537Y-77909494D01*
X40569502Y-77799180D01*
X40580055Y-77764392D01*
X40800987Y-77945706D01*
X41058967Y-78083599D01*
X41338890Y-78168513D01*
X41630000Y-78197185D01*
X41921111Y-78168513D01*
X42201034Y-78083599D01*
X42459014Y-77945706D01*
X42685134Y-77760134D01*
X42870706Y-77534014D01*
X42880000Y-77516626D01*
X42889294Y-77534014D01*
X43074866Y-77760134D01*
X43300987Y-77945706D01*
X43558967Y-78083599D01*
X43838890Y-78168513D01*
X44130000Y-78197185D01*
X44421111Y-78168513D01*
X44701034Y-78083599D01*
X44959014Y-77945706D01*
X45185134Y-77760134D01*
X45370706Y-77534014D01*
X45380000Y-77516626D01*
X45389294Y-77534014D01*
X45574866Y-77760134D01*
X45800987Y-77945706D01*
X46058967Y-78083599D01*
X46338890Y-78168513D01*
X46630000Y-78197185D01*
X46921111Y-78168513D01*
X47201034Y-78083599D01*
X47459014Y-77945706D01*
X47685134Y-77760134D01*
X47870706Y-77534014D01*
X48008599Y-77276033D01*
X48093513Y-76996110D01*
X48115000Y-76777949D01*
X48115000Y-76382050D01*
X48093513Y-76163889D01*
X48008599Y-75883966D01*
X47870706Y-75625986D01*
X47685134Y-75399866D01*
X47459013Y-75214294D01*
X47201033Y-75076401D01*
X46921110Y-74991487D01*
X46630000Y-74962815D01*
X46338889Y-74991487D01*
X46058966Y-75076401D01*
X45800986Y-75214294D01*
X45574866Y-75399866D01*
X45389294Y-75625987D01*
X45380000Y-75643374D01*
X45370706Y-75625986D01*
X45185134Y-75399866D01*
X44959013Y-75214294D01*
X44701033Y-75076401D01*
X44421110Y-74991487D01*
X44130000Y-74962815D01*
X43838889Y-74991487D01*
X43558966Y-75076401D01*
X43300986Y-75214294D01*
X43074866Y-75399866D01*
X42889294Y-75625987D01*
X42880000Y-75643374D01*
X42870706Y-75625986D01*
X42685134Y-75399866D01*
X42459013Y-75214294D01*
X42201033Y-75076401D01*
X41921110Y-74991487D01*
X41630000Y-74962815D01*
X41338889Y-74991487D01*
X41058966Y-75076401D01*
X40800986Y-75214294D01*
X40580055Y-75395608D01*
X40569502Y-75360820D01*
X40510537Y-75250506D01*
X40431185Y-75153815D01*
X40334494Y-75074463D01*
X40224180Y-75015498D01*
X40104482Y-74979188D01*
X39980000Y-74966928D01*
X39415750Y-74970000D01*
X39257000Y-75128750D01*
X39003000Y-75128750D01*
X38844250Y-74970000D01*
X38280000Y-74966928D01*
X38155518Y-74979188D01*
X38035820Y-75015498D01*
X37925506Y-75074463D01*
X37828815Y-75153815D01*
X37749463Y-75250506D01*
X37690498Y-75360820D01*
X37654188Y-75480518D01*
X37641928Y-75605000D01*
X25257000Y-75605000D01*
X25257000Y-69707000D01*
X83003000Y-69707000D01*
X83003000Y-103845000D01*
G36*
X64203000Y-98080000D02*
G01*
X64205440Y-98104776D01*
X64212667Y-98128601D01*
X64224403Y-98150557D01*
X64240197Y-98169803D01*
X64253800Y-98181600D01*
X64603000Y-98443500D01*
X64603000Y-98716500D01*
X64253800Y-98978400D01*
X64235443Y-98995218D01*
X64220720Y-99015294D01*
X64210196Y-99037857D01*
X64204276Y-99062039D01*
X64203000Y-99080000D01*
X64203000Y-100353000D01*
X62557000Y-100353000D01*
X62557000Y-99080000D01*
X62554560Y-99055224D01*
X62547333Y-99031399D01*
X62535597Y-99009443D01*
X62519803Y-98990197D01*
X62506200Y-98978400D01*
X62157000Y-98716500D01*
X62157000Y-98443500D01*
X62506200Y-98181600D01*
X62524557Y-98164782D01*
X62539280Y-98144706D01*
X62549804Y-98122143D01*
X62555724Y-98097961D01*
X62557000Y-98080000D01*
X62557000Y-96807000D01*
X64203000Y-96807000D01*
X64203000Y-98080000D01*
G37*
X64203000Y-98080000D02*
X64205440Y-98104776D01*
X64212667Y-98128601D01*
X64224403Y-98150557D01*
X64240197Y-98169803D01*
X64253800Y-98181600D01*
X64603000Y-98443500D01*
X64603000Y-98716500D01*
X64253800Y-98978400D01*
X64235443Y-98995218D01*
X64220720Y-99015294D01*
X64210196Y-99037857D01*
X64204276Y-99062039D01*
X64203000Y-99080000D01*
X64203000Y-100353000D01*
X62557000Y-100353000D01*
X62557000Y-99080000D01*
X62554560Y-99055224D01*
X62547333Y-99031399D01*
X62535597Y-99009443D01*
X62519803Y-98990197D01*
X62506200Y-98978400D01*
X62157000Y-98716500D01*
X62157000Y-98443500D01*
X62506200Y-98181600D01*
X62524557Y-98164782D01*
X62539280Y-98144706D01*
X62549804Y-98122143D01*
X62555724Y-98097961D01*
X62557000Y-98080000D01*
X62557000Y-96807000D01*
X64203000Y-96807000D01*
X64203000Y-98080000D01*
M02*
