G04 #@! TF.GenerationSoftware,KiCad,Pcbnew,(5.1.5)-3*
G04 #@! TF.CreationDate,2020-12-03T20:33:16+01:00*
G04 #@! TF.ProjectId,MCU_board,4d43555f-626f-4617-9264-2e6b69636164,rev?*
G04 #@! TF.SameCoordinates,Original*
G04 #@! TF.FileFunction,Legend,Bot*
G04 #@! TF.FilePolarity,Positive*
%FSLAX46Y46*%
G04 Gerber Fmt 4.6, Leading zero omitted, Abs format (unit mm)*
G04 Created by KiCad (PCBNEW (5.1.5)-3) date 2020-12-03 20:33:16*
%MOMM*%
%LPD*%
G04 APERTURE LIST*
%ADD10C,0.150000*%
G04 APERTURE END LIST*
D10*
X80949047Y-71332380D02*
X80949047Y-72046666D01*
X80996666Y-72189523D01*
X81091904Y-72284761D01*
X81234761Y-72332380D01*
X81330000Y-72332380D01*
X79996666Y-72332380D02*
X80472857Y-72332380D01*
X80472857Y-71332380D01*
X79091904Y-72237142D02*
X79139523Y-72284761D01*
X79282380Y-72332380D01*
X79377619Y-72332380D01*
X79520476Y-72284761D01*
X79615714Y-72189523D01*
X79663333Y-72094285D01*
X79710952Y-71903809D01*
X79710952Y-71760952D01*
X79663333Y-71570476D01*
X79615714Y-71475238D01*
X79520476Y-71380000D01*
X79377619Y-71332380D01*
X79282380Y-71332380D01*
X79139523Y-71380000D01*
X79091904Y-71427619D01*
X78377619Y-71332380D02*
X78377619Y-72046666D01*
X78425238Y-72189523D01*
X78520476Y-72284761D01*
X78663333Y-72332380D01*
X78758571Y-72332380D01*
X77425238Y-72332380D02*
X77901428Y-72332380D01*
X77901428Y-71332380D01*
X76520476Y-72237142D02*
X76568095Y-72284761D01*
X76710952Y-72332380D01*
X76806190Y-72332380D01*
X76949047Y-72284761D01*
X77044285Y-72189523D01*
X77091904Y-72094285D01*
X77139523Y-71903809D01*
X77139523Y-71760952D01*
X77091904Y-71570476D01*
X77044285Y-71475238D01*
X76949047Y-71380000D01*
X76806190Y-71332380D01*
X76710952Y-71332380D01*
X76568095Y-71380000D01*
X76520476Y-71427619D01*
X75806190Y-71332380D02*
X75806190Y-72046666D01*
X75853809Y-72189523D01*
X75949047Y-72284761D01*
X76091904Y-72332380D01*
X76187142Y-72332380D01*
X74853809Y-72332380D02*
X75330000Y-72332380D01*
X75330000Y-71332380D01*
X73949047Y-72237142D02*
X73996666Y-72284761D01*
X74139523Y-72332380D01*
X74234761Y-72332380D01*
X74377619Y-72284761D01*
X74472857Y-72189523D01*
X74520476Y-72094285D01*
X74568095Y-71903809D01*
X74568095Y-71760952D01*
X74520476Y-71570476D01*
X74472857Y-71475238D01*
X74377619Y-71380000D01*
X74234761Y-71332380D01*
X74139523Y-71332380D01*
X73996666Y-71380000D01*
X73949047Y-71427619D01*
X73234761Y-71332380D02*
X73234761Y-72046666D01*
X73282380Y-72189523D01*
X73377619Y-72284761D01*
X73520476Y-72332380D01*
X73615714Y-72332380D01*
X72282380Y-72332380D02*
X72758571Y-72332380D01*
X72758571Y-71332380D01*
X71377619Y-72237142D02*
X71425238Y-72284761D01*
X71568095Y-72332380D01*
X71663333Y-72332380D01*
X71806190Y-72284761D01*
X71901428Y-72189523D01*
X71949047Y-72094285D01*
X71996666Y-71903809D01*
X71996666Y-71760952D01*
X71949047Y-71570476D01*
X71901428Y-71475238D01*
X71806190Y-71380000D01*
X71663333Y-71332380D01*
X71568095Y-71332380D01*
X71425238Y-71380000D01*
X71377619Y-71427619D01*
M02*
