G04 #@! TF.GenerationSoftware,KiCad,Pcbnew,(5.1.5)-3*
G04 #@! TF.CreationDate,2021-02-12T21:05:29+01:00*
G04 #@! TF.ProjectId,Mainboard,4d61696e-626f-4617-9264-2e6b69636164,rev?*
G04 #@! TF.SameCoordinates,Original*
G04 #@! TF.FileFunction,Legend,Top*
G04 #@! TF.FilePolarity,Positive*
%FSLAX46Y46*%
G04 Gerber Fmt 4.6, Leading zero omitted, Abs format (unit mm)*
G04 Created by KiCad (PCBNEW (5.1.5)-3) date 2021-02-12 21:05:29*
%MOMM*%
%LPD*%
G04 APERTURE LIST*
%ADD10C,0.200000*%
%ADD11C,0.010000*%
%ADD12C,0.120000*%
%ADD13C,0.100000*%
%ADD14C,0.015000*%
%ADD15C,0.150000*%
G04 APERTURE END LIST*
D10*
X215900000Y-33200000D02*
X221600000Y-33200000D01*
X221600000Y-33200000D02*
X221600000Y-37800000D01*
X221600000Y-37800000D02*
X215900000Y-37800000D01*
X215900000Y-37800000D02*
X215900000Y-33200000D01*
X217410553Y-34200000D02*
G75*
G03X217410553Y-34200000I-360553J0D01*
G01*
D11*
G36*
X216748640Y-33900000D02*
G01*
X217350000Y-33900000D01*
X217350000Y-34499320D01*
X216748640Y-34499320D01*
X216748640Y-33900000D01*
G37*
X216748640Y-33900000D02*
X217350000Y-33900000D01*
X217350000Y-34499320D01*
X216748640Y-34499320D01*
X216748640Y-33900000D01*
D10*
X214591419Y-32700000D02*
G75*
G03X214591419Y-32700000I-141419J0D01*
G01*
X154600000Y-41000000D02*
X154600000Y-52500000D01*
X154300000Y-50870469D02*
X154650000Y-50702459D01*
X154300000Y-45870470D02*
X154650000Y-45702460D01*
X163069680Y-40298800D02*
X163069680Y-41000000D01*
X163285270Y-40241000D02*
X163285270Y-41000000D01*
X163951760Y-40135500D02*
X163951760Y-41000000D01*
X161899930Y-40612200D02*
X161899930Y-41000000D01*
X154300000Y-51194009D02*
X154650000Y-51000000D01*
X154300000Y-46194010D02*
X154650000Y-46000000D01*
X154300000Y-41498970D02*
X154650000Y-41666990D01*
X154300000Y-41405990D02*
X154650000Y-41600000D01*
X154300000Y-46498970D02*
X154650000Y-46666990D01*
X154300000Y-46405990D02*
X154650000Y-46600000D01*
X154300000Y-41918970D02*
X154650000Y-42086990D01*
X154300000Y-46918970D02*
X154650000Y-47086990D01*
X154300000Y-50601031D02*
X154650000Y-50433009D01*
X154300000Y-45601030D02*
X154650000Y-45433010D01*
X154300000Y-42441800D02*
X154650000Y-42463660D01*
X154300000Y-47441800D02*
X154650000Y-47463660D01*
X160934350Y-40200000D02*
X161037390Y-40500000D01*
X161037390Y-40500000D02*
X161037390Y-41000000D01*
X159940431Y-40200000D02*
X160043469Y-40500000D01*
X160043469Y-40500000D02*
X160043469Y-41000000D01*
X154650000Y-51000000D02*
X154650000Y-49750000D01*
X154650000Y-49750000D02*
X154650000Y-47650000D01*
X154650000Y-47650000D02*
X154650000Y-46600000D01*
X154300000Y-47455990D02*
X154650000Y-47650000D01*
X154650000Y-46000000D02*
X154650000Y-44750000D01*
X154650000Y-44750000D02*
X154650000Y-42650000D01*
X154650000Y-42650000D02*
X154650000Y-41600000D01*
X154300000Y-42455990D02*
X154650000Y-42650000D01*
X154300000Y-49944010D02*
X154650000Y-49750000D01*
X154300000Y-44944010D02*
X154650000Y-44750000D01*
X154300000Y-41000000D02*
X154300000Y-52500000D01*
X154188510Y-41850000D02*
X154188510Y-46250000D01*
X154702740Y-41850000D02*
X154702740Y-46250000D01*
X154188510Y-46850000D02*
X154188510Y-51250000D01*
X154702740Y-46850000D02*
X154702740Y-51250000D01*
X151489300Y-43109230D02*
X151489300Y-44990770D01*
X151489300Y-48109230D02*
X151489300Y-49990770D01*
X154407160Y-41000000D02*
X154407160Y-52500000D01*
X161863760Y-40621900D02*
X162063760Y-40568400D01*
X162063760Y-40568400D02*
X163786230Y-40106800D01*
X163900000Y-40109800D02*
G75*
G03X163786230Y-40106800I-61939J-190173D01*
G01*
X162063760Y-40568400D02*
X162063760Y-41000000D01*
X161863760Y-40621900D02*
X161863760Y-41000000D01*
X164037230Y-40282600D02*
X164100000Y-41000000D01*
X164037230Y-40282600D02*
X164022280Y-40222300D01*
X164022280Y-40222300D02*
X163991160Y-40171400D01*
X163991160Y-40171400D02*
X163936240Y-40125800D01*
X163936240Y-40125800D02*
X163900000Y-40109800D01*
X163900000Y-40109800D02*
X163900000Y-41000000D01*
X159000000Y-40200000D02*
X159005769Y-40200000D01*
X159005769Y-40200000D02*
X159054119Y-40200000D01*
X159054119Y-40200000D02*
X159869200Y-40200000D01*
X159869200Y-40200000D02*
X160963840Y-40200000D01*
X160963840Y-40200000D02*
X161000000Y-40200000D01*
X161300000Y-40500000D02*
X161000000Y-40200000D01*
X158700000Y-40500000D02*
X158708241Y-40500000D01*
X158708241Y-40500000D02*
X158756591Y-40500000D01*
X158756591Y-40500000D02*
X160060709Y-40500000D01*
X160060709Y-40500000D02*
X161155360Y-40500000D01*
X161155360Y-40500000D02*
X161300000Y-40500000D01*
X161300000Y-41000000D02*
X161300000Y-40500000D01*
X159000000Y-40200000D02*
X158700000Y-40500000D01*
X158700000Y-40500000D02*
X158700000Y-41000000D01*
X159005769Y-40200000D02*
X158708241Y-40500000D01*
X158708241Y-40500000D02*
X158708241Y-41000000D01*
X161155360Y-40500000D02*
X161155360Y-41000000D01*
X160963840Y-40200000D02*
X161155360Y-40500000D01*
X160060709Y-40500000D02*
X160060709Y-41000000D01*
X158756591Y-40500000D02*
X158756591Y-41000000D01*
X159869200Y-40200000D02*
X160060709Y-40500000D01*
X159054119Y-40200000D02*
X158756591Y-40500000D01*
X153400000Y-46250000D02*
X156829140Y-46250000D01*
X153400000Y-41850000D02*
X156829140Y-41850000D01*
X153400000Y-46850000D02*
X156829140Y-46850000D01*
X154300000Y-52500000D02*
X170600000Y-52500000D01*
X154300000Y-41000000D02*
X170600000Y-41000000D01*
X170600000Y-41000000D02*
X170600000Y-52500000D01*
X153400000Y-51250000D02*
X156829140Y-51250000D01*
X153400000Y-46850000D02*
G75*
G03X152263380Y-47014890I13J-4000013D01*
G01*
X152263380Y-47014890D02*
G75*
G03X151650010Y-47532720I284158J-958769D01*
G01*
X151650000Y-50567281D02*
G75*
G03X152263380Y-51085116I897537J440946D01*
G01*
X152263380Y-51085109D02*
G75*
G03X153400000Y-51249997I1136625J3835123D01*
G01*
X152263380Y-46085110D02*
G75*
G03X153400000Y-46250000I1136633J3835123D01*
G01*
X153400000Y-41850000D02*
G75*
G03X152263380Y-42014890I13J-4000013D01*
G01*
X152263380Y-42014890D02*
G75*
G03X151650010Y-42532720I284158J-958769D01*
G01*
X151650000Y-45567280D02*
G75*
G03X152263380Y-46085120I897543J440944D01*
G01*
X151584420Y-47704580D02*
X151613070Y-47617620D01*
X151613070Y-47617620D02*
X151650000Y-47532720D01*
X151400000Y-49050000D02*
X151400020Y-49036200D01*
X151400020Y-49036200D02*
X151419050Y-48614010D01*
X151419050Y-48614010D02*
X151442190Y-48401850D01*
X151442190Y-48401850D02*
X151474580Y-48189640D01*
X151474580Y-48189640D02*
X151523180Y-47947000D01*
X151523180Y-47947000D02*
X151584420Y-47704580D01*
X151584420Y-50395419D02*
X151523440Y-50154141D01*
X151523440Y-50154141D02*
X151474580Y-49910360D01*
X151474580Y-49910360D02*
X151442460Y-49700220D01*
X151442460Y-49700220D02*
X151419330Y-49489230D01*
X151419330Y-49489230D02*
X151400020Y-49063800D01*
X151400020Y-49063800D02*
X151400000Y-49050000D01*
X151650000Y-50567281D02*
X151613390Y-50483231D01*
X151613390Y-50483231D02*
X151584420Y-50395419D01*
X151650000Y-47532720D02*
X151650000Y-50567281D01*
X151584420Y-42704580D02*
X151613070Y-42617620D01*
X151613070Y-42617620D02*
X151650000Y-42532720D01*
X151400000Y-44050000D02*
X151400020Y-44036200D01*
X151400020Y-44036200D02*
X151419050Y-43614010D01*
X151419050Y-43614010D02*
X151442190Y-43401850D01*
X151442190Y-43401850D02*
X151474580Y-43189640D01*
X151474580Y-43189640D02*
X151523180Y-42947000D01*
X151523180Y-42947000D02*
X151584420Y-42704580D01*
X151584420Y-45395420D02*
X151523440Y-45154140D01*
X151523440Y-45154140D02*
X151474580Y-44910360D01*
X151474580Y-44910360D02*
X151442460Y-44700220D01*
X151442460Y-44700220D02*
X151419330Y-44489230D01*
X151419330Y-44489230D02*
X151400020Y-44063800D01*
X151400020Y-44063800D02*
X151400000Y-44050000D01*
X151650000Y-45567280D02*
X151613390Y-45483230D01*
X151613390Y-45483230D02*
X151584420Y-45395420D01*
X151650000Y-42532720D02*
X151650000Y-45567280D01*
X154600000Y-28500000D02*
X154600000Y-40000000D01*
X154300000Y-38370469D02*
X154650000Y-38202459D01*
X154300000Y-33370470D02*
X154650000Y-33202460D01*
X163069680Y-27798800D02*
X163069680Y-28500000D01*
X163285270Y-27741000D02*
X163285270Y-28500000D01*
X163951760Y-27635500D02*
X163951760Y-28500000D01*
X161899930Y-28112200D02*
X161899930Y-28500000D01*
X154300000Y-38694009D02*
X154650000Y-38500000D01*
X154300000Y-33694010D02*
X154650000Y-33500000D01*
X154300000Y-28998970D02*
X154650000Y-29166990D01*
X154300000Y-28905990D02*
X154650000Y-29100000D01*
X154300000Y-33998970D02*
X154650000Y-34166990D01*
X154300000Y-33905990D02*
X154650000Y-34100000D01*
X154300000Y-29418970D02*
X154650000Y-29586990D01*
X154300000Y-34418970D02*
X154650000Y-34586990D01*
X154300000Y-38101031D02*
X154650000Y-37933009D01*
X154300000Y-33101030D02*
X154650000Y-32933010D01*
X154300000Y-29941800D02*
X154650000Y-29963660D01*
X154300000Y-34941800D02*
X154650000Y-34963660D01*
X160934350Y-27700000D02*
X161037390Y-28000000D01*
X161037390Y-28000000D02*
X161037390Y-28500000D01*
X159940431Y-27700000D02*
X160043469Y-28000000D01*
X160043469Y-28000000D02*
X160043469Y-28500000D01*
X154650000Y-38500000D02*
X154650000Y-37250000D01*
X154650000Y-37250000D02*
X154650000Y-35150000D01*
X154650000Y-35150000D02*
X154650000Y-34100000D01*
X154300000Y-34955990D02*
X154650000Y-35150000D01*
X154650000Y-33500000D02*
X154650000Y-32250000D01*
X154650000Y-32250000D02*
X154650000Y-30150000D01*
X154650000Y-30150000D02*
X154650000Y-29100000D01*
X154300000Y-29955990D02*
X154650000Y-30150000D01*
X154300000Y-37444010D02*
X154650000Y-37250000D01*
X154300000Y-32444010D02*
X154650000Y-32250000D01*
X154300000Y-28500000D02*
X154300000Y-40000000D01*
X154188510Y-29350000D02*
X154188510Y-33750000D01*
X154702740Y-29350000D02*
X154702740Y-33750000D01*
X154188510Y-34350000D02*
X154188510Y-38750000D01*
X154702740Y-34350000D02*
X154702740Y-38750000D01*
X151489300Y-30609230D02*
X151489300Y-32490770D01*
X151489300Y-35609230D02*
X151489300Y-37490770D01*
X154407160Y-28500000D02*
X154407160Y-40000000D01*
X161863760Y-28121900D02*
X162063760Y-28068400D01*
X162063760Y-28068400D02*
X163786230Y-27606800D01*
X163900000Y-27609800D02*
G75*
G03X163786230Y-27606800I-61939J-190173D01*
G01*
X162063760Y-28068400D02*
X162063760Y-28500000D01*
X161863760Y-28121900D02*
X161863760Y-28500000D01*
X164037230Y-27782600D02*
X164100000Y-28500000D01*
X164037230Y-27782600D02*
X164022280Y-27722300D01*
X164022280Y-27722300D02*
X163991160Y-27671400D01*
X163991160Y-27671400D02*
X163936240Y-27625800D01*
X163936240Y-27625800D02*
X163900000Y-27609800D01*
X163900000Y-27609800D02*
X163900000Y-28500000D01*
X159000000Y-27700000D02*
X159005769Y-27700000D01*
X159005769Y-27700000D02*
X159054119Y-27700000D01*
X159054119Y-27700000D02*
X159869200Y-27700000D01*
X159869200Y-27700000D02*
X160963840Y-27700000D01*
X160963840Y-27700000D02*
X161000000Y-27700000D01*
X161300000Y-28000000D02*
X161000000Y-27700000D01*
X158700000Y-28000000D02*
X158708241Y-28000000D01*
X158708241Y-28000000D02*
X158756591Y-28000000D01*
X158756591Y-28000000D02*
X160060709Y-28000000D01*
X160060709Y-28000000D02*
X161155360Y-28000000D01*
X161155360Y-28000000D02*
X161300000Y-28000000D01*
X161300000Y-28500000D02*
X161300000Y-28000000D01*
X159000000Y-27700000D02*
X158700000Y-28000000D01*
X158700000Y-28000000D02*
X158700000Y-28500000D01*
X159005769Y-27700000D02*
X158708241Y-28000000D01*
X158708241Y-28000000D02*
X158708241Y-28500000D01*
X161155360Y-28000000D02*
X161155360Y-28500000D01*
X160963840Y-27700000D02*
X161155360Y-28000000D01*
X160060709Y-28000000D02*
X160060709Y-28500000D01*
X158756591Y-28000000D02*
X158756591Y-28500000D01*
X159869200Y-27700000D02*
X160060709Y-28000000D01*
X159054119Y-27700000D02*
X158756591Y-28000000D01*
X153400000Y-33750000D02*
X156829140Y-33750000D01*
X153400000Y-29350000D02*
X156829140Y-29350000D01*
X153400000Y-34350000D02*
X156829140Y-34350000D01*
X154300000Y-40000000D02*
X170600000Y-40000000D01*
X154300000Y-28500000D02*
X170600000Y-28500000D01*
X170600000Y-28500000D02*
X170600000Y-40000000D01*
X153400000Y-38750000D02*
X156829140Y-38750000D01*
X153400000Y-34350000D02*
G75*
G03X152263380Y-34514890I13J-4000013D01*
G01*
X152263380Y-34514890D02*
G75*
G03X151650010Y-35032720I284158J-958769D01*
G01*
X151650000Y-38067281D02*
G75*
G03X152263380Y-38585116I897537J440946D01*
G01*
X152263380Y-38585109D02*
G75*
G03X153400000Y-38749997I1136625J3835123D01*
G01*
X152263380Y-33585110D02*
G75*
G03X153400000Y-33750000I1136633J3835123D01*
G01*
X153400000Y-29350000D02*
G75*
G03X152263380Y-29514890I13J-4000013D01*
G01*
X152263380Y-29514890D02*
G75*
G03X151650010Y-30032720I284158J-958769D01*
G01*
X151650000Y-33067280D02*
G75*
G03X152263380Y-33585120I897543J440944D01*
G01*
X151584420Y-35204580D02*
X151613070Y-35117620D01*
X151613070Y-35117620D02*
X151650000Y-35032720D01*
X151400000Y-36550000D02*
X151400020Y-36536200D01*
X151400020Y-36536200D02*
X151419050Y-36114010D01*
X151419050Y-36114010D02*
X151442190Y-35901850D01*
X151442190Y-35901850D02*
X151474580Y-35689640D01*
X151474580Y-35689640D02*
X151523180Y-35447000D01*
X151523180Y-35447000D02*
X151584420Y-35204580D01*
X151584420Y-37895419D02*
X151523440Y-37654141D01*
X151523440Y-37654141D02*
X151474580Y-37410360D01*
X151474580Y-37410360D02*
X151442460Y-37200220D01*
X151442460Y-37200220D02*
X151419330Y-36989230D01*
X151419330Y-36989230D02*
X151400020Y-36563800D01*
X151400020Y-36563800D02*
X151400000Y-36550000D01*
X151650000Y-38067281D02*
X151613390Y-37983231D01*
X151613390Y-37983231D02*
X151584420Y-37895419D01*
X151650000Y-35032720D02*
X151650000Y-38067281D01*
X151584420Y-30204580D02*
X151613070Y-30117620D01*
X151613070Y-30117620D02*
X151650000Y-30032720D01*
X151400000Y-31550000D02*
X151400020Y-31536200D01*
X151400020Y-31536200D02*
X151419050Y-31114010D01*
X151419050Y-31114010D02*
X151442190Y-30901850D01*
X151442190Y-30901850D02*
X151474580Y-30689640D01*
X151474580Y-30689640D02*
X151523180Y-30447000D01*
X151523180Y-30447000D02*
X151584420Y-30204580D01*
X151584420Y-32895420D02*
X151523440Y-32654140D01*
X151523440Y-32654140D02*
X151474580Y-32410360D01*
X151474580Y-32410360D02*
X151442460Y-32200220D01*
X151442460Y-32200220D02*
X151419330Y-31989230D01*
X151419330Y-31989230D02*
X151400020Y-31563800D01*
X151400020Y-31563800D02*
X151400000Y-31550000D01*
X151650000Y-33067280D02*
X151613390Y-32983230D01*
X151613390Y-32983230D02*
X151584420Y-32895420D01*
X151650000Y-30032720D02*
X151650000Y-33067280D01*
D12*
X188764000Y-51454000D02*
X172000000Y-51454000D01*
X188764000Y-29356000D02*
X188764000Y-51454000D01*
X172000000Y-29356000D02*
X188764000Y-29356000D01*
X172000000Y-51454000D02*
X172000000Y-29356000D01*
X206264000Y-51500000D02*
X189500000Y-51500000D01*
X206264000Y-29402000D02*
X206264000Y-51500000D01*
X189500000Y-29402000D02*
X206264000Y-29402000D01*
X189500000Y-51500000D02*
X189500000Y-29402000D01*
X238685000Y-32900000D02*
X238685000Y-33100000D01*
X242985000Y-32900000D02*
X238685000Y-32900000D01*
X242985000Y-33050000D02*
X242985000Y-32900000D01*
X242985000Y-38100000D02*
X242985000Y-37950000D01*
X238685000Y-38100000D02*
X242985000Y-38100000D01*
X238685000Y-37900000D02*
X238685000Y-38100000D01*
X212210000Y-35241422D02*
X212210000Y-35758578D01*
X210790000Y-35241422D02*
X210790000Y-35758578D01*
X233258578Y-33790000D02*
X232741422Y-33790000D01*
X233258578Y-35210000D02*
X232741422Y-35210000D01*
X233258578Y-37710000D02*
X232741422Y-37710000D01*
X233258578Y-36290000D02*
X232741422Y-36290000D01*
D13*
X216558713Y-35952548D02*
X216558713Y-34952178D01*
X216939806Y-34952178D01*
X217035080Y-34999815D01*
X217082716Y-35047451D01*
X217130353Y-35142725D01*
X217130353Y-35285635D01*
X217082716Y-35380908D01*
X217035080Y-35428545D01*
X216939806Y-35476181D01*
X216558713Y-35476181D01*
X218130723Y-35857275D02*
X218083086Y-35904911D01*
X217940176Y-35952548D01*
X217844903Y-35952548D01*
X217701993Y-35904911D01*
X217606720Y-35809638D01*
X217559083Y-35714365D01*
X217511446Y-35523818D01*
X217511446Y-35380908D01*
X217559083Y-35190361D01*
X217606720Y-35095088D01*
X217701993Y-34999815D01*
X217844903Y-34952178D01*
X217940176Y-34952178D01*
X218083086Y-34999815D01*
X218130723Y-35047451D01*
X218702363Y-35380908D02*
X218607090Y-35333271D01*
X218559453Y-35285635D01*
X218511816Y-35190361D01*
X218511816Y-35142725D01*
X218559453Y-35047451D01*
X218607090Y-34999815D01*
X218702363Y-34952178D01*
X218892910Y-34952178D01*
X218988183Y-34999815D01*
X219035820Y-35047451D01*
X219083456Y-35142725D01*
X219083456Y-35190361D01*
X219035820Y-35285635D01*
X218988183Y-35333271D01*
X218892910Y-35380908D01*
X218702363Y-35380908D01*
X218607090Y-35428545D01*
X218559453Y-35476181D01*
X218511816Y-35571455D01*
X218511816Y-35762001D01*
X218559453Y-35857275D01*
X218607090Y-35904911D01*
X218702363Y-35952548D01*
X218892910Y-35952548D01*
X218988183Y-35904911D01*
X219035820Y-35857275D01*
X219083456Y-35762001D01*
X219083456Y-35571455D01*
X219035820Y-35476181D01*
X218988183Y-35428545D01*
X218892910Y-35380908D01*
X220036190Y-35952548D02*
X219464550Y-35952548D01*
X219750370Y-35952548D02*
X219750370Y-34952178D01*
X219655096Y-35095088D01*
X219559823Y-35190361D01*
X219464550Y-35237998D01*
X220369646Y-34952178D02*
X221036560Y-34952178D01*
X220607830Y-35952548D01*
D14*
X166615476Y-52987380D02*
X166615476Y-53701666D01*
X166567857Y-53844523D01*
X166472619Y-53939761D01*
X166329761Y-53987380D01*
X166234523Y-53987380D01*
X167615476Y-53987380D02*
X167044047Y-53987380D01*
X167329761Y-53987380D02*
X167329761Y-52987380D01*
X167234523Y-53130238D01*
X167139285Y-53225476D01*
X167044047Y-53273095D01*
X168567857Y-53987380D02*
X167996428Y-53987380D01*
X168282142Y-53987380D02*
X168282142Y-52987380D01*
X168186904Y-53130238D01*
X168091666Y-53225476D01*
X167996428Y-53273095D01*
X149885714Y-49102380D02*
X149314285Y-49102380D01*
X149600000Y-49102380D02*
X149600000Y-48102380D01*
X149504761Y-48245238D01*
X149409523Y-48340476D01*
X149314285Y-48388095D01*
X167091666Y-40487380D02*
X167091666Y-41201666D01*
X167044047Y-41344523D01*
X166948809Y-41439761D01*
X166805952Y-41487380D01*
X166710714Y-41487380D01*
X167615476Y-41487380D02*
X167805952Y-41487380D01*
X167901190Y-41439761D01*
X167948809Y-41392142D01*
X168044047Y-41249285D01*
X168091666Y-41058809D01*
X168091666Y-40677857D01*
X168044047Y-40582619D01*
X167996428Y-40535000D01*
X167901190Y-40487380D01*
X167710714Y-40487380D01*
X167615476Y-40535000D01*
X167567857Y-40582619D01*
X167520238Y-40677857D01*
X167520238Y-40915952D01*
X167567857Y-41011190D01*
X167615476Y-41058809D01*
X167710714Y-41106428D01*
X167901190Y-41106428D01*
X167996428Y-41058809D01*
X168044047Y-41011190D01*
X168091666Y-40915952D01*
X149885714Y-36602380D02*
X149314285Y-36602380D01*
X149600000Y-36602380D02*
X149600000Y-35602380D01*
X149504761Y-35745238D01*
X149409523Y-35840476D01*
X149314285Y-35888095D01*
D15*
X181452380Y-41215904D02*
X182261904Y-41215904D01*
X182357142Y-41168285D01*
X182404761Y-41120666D01*
X182452380Y-41025428D01*
X182452380Y-40834952D01*
X182404761Y-40739714D01*
X182357142Y-40692095D01*
X182261904Y-40644476D01*
X181452380Y-40644476D01*
X181785714Y-39739714D02*
X182452380Y-39739714D01*
X181404761Y-39977809D02*
X182119047Y-40215904D01*
X182119047Y-39596857D01*
X179404761Y-34954000D02*
X179404761Y-34573047D01*
X179500000Y-34382571D01*
X179690476Y-34192095D01*
X180071428Y-34096857D01*
X180738095Y-34096857D01*
X181119047Y-34192095D01*
X181309523Y-34382571D01*
X181404761Y-34573047D01*
X181404761Y-34954000D01*
X181309523Y-35144476D01*
X181119047Y-35334952D01*
X180738095Y-35430190D01*
X180071428Y-35430190D01*
X179690476Y-35334952D01*
X179500000Y-35144476D01*
X179404761Y-34954000D01*
X179404761Y-33239714D02*
X181023809Y-33239714D01*
X181214285Y-33144476D01*
X181309523Y-33049238D01*
X181404761Y-32858761D01*
X181404761Y-32477809D01*
X181309523Y-32287333D01*
X181214285Y-32192095D01*
X181023809Y-32096857D01*
X179404761Y-32096857D01*
X179404761Y-31430190D02*
X179404761Y-30287333D01*
X181404761Y-30858761D02*
X179404761Y-30858761D01*
X181404761Y-49501619D02*
X179404761Y-49501619D01*
X181404761Y-48549238D02*
X179404761Y-48549238D01*
X181404761Y-47406380D01*
X179404761Y-47406380D01*
X198952380Y-41261904D02*
X199761904Y-41261904D01*
X199857142Y-41214285D01*
X199904761Y-41166666D01*
X199952380Y-41071428D01*
X199952380Y-40880952D01*
X199904761Y-40785714D01*
X199857142Y-40738095D01*
X199761904Y-40690476D01*
X198952380Y-40690476D01*
X199952380Y-39690476D02*
X199952380Y-40261904D01*
X199952380Y-39976190D02*
X198952380Y-39976190D01*
X199095238Y-40071428D01*
X199190476Y-40166666D01*
X199238095Y-40261904D01*
X196904761Y-35000000D02*
X196904761Y-34619047D01*
X197000000Y-34428571D01*
X197190476Y-34238095D01*
X197571428Y-34142857D01*
X198238095Y-34142857D01*
X198619047Y-34238095D01*
X198809523Y-34428571D01*
X198904761Y-34619047D01*
X198904761Y-35000000D01*
X198809523Y-35190476D01*
X198619047Y-35380952D01*
X198238095Y-35476190D01*
X197571428Y-35476190D01*
X197190476Y-35380952D01*
X197000000Y-35190476D01*
X196904761Y-35000000D01*
X196904761Y-33285714D02*
X198523809Y-33285714D01*
X198714285Y-33190476D01*
X198809523Y-33095238D01*
X198904761Y-32904761D01*
X198904761Y-32523809D01*
X198809523Y-32333333D01*
X198714285Y-32238095D01*
X198523809Y-32142857D01*
X196904761Y-32142857D01*
X196904761Y-31476190D02*
X196904761Y-30333333D01*
X198904761Y-30904761D02*
X196904761Y-30904761D01*
X198904761Y-49547619D02*
X196904761Y-49547619D01*
X198904761Y-48595238D02*
X196904761Y-48595238D01*
X198904761Y-47452380D01*
X196904761Y-47452380D01*
X244952380Y-35404761D02*
X245000000Y-35309523D01*
X245095238Y-35214285D01*
X245238095Y-35071428D01*
X245285714Y-34976190D01*
X245285714Y-34880952D01*
X245047619Y-34928571D02*
X245095238Y-34833333D01*
X245190476Y-34738095D01*
X245380952Y-34690476D01*
X245714285Y-34690476D01*
X245904761Y-34738095D01*
X246000000Y-34833333D01*
X246047619Y-34928571D01*
X246047619Y-35119047D01*
X246000000Y-35214285D01*
X245904761Y-35309523D01*
X245714285Y-35357142D01*
X245380952Y-35357142D01*
X245190476Y-35309523D01*
X245095238Y-35214285D01*
X245047619Y-35119047D01*
X245047619Y-34928571D01*
X245047619Y-36309523D02*
X245047619Y-35738095D01*
X245047619Y-36023809D02*
X246047619Y-36023809D01*
X245904761Y-35928571D01*
X245809523Y-35833333D01*
X245761904Y-35738095D01*
X209302380Y-36714285D02*
X209302380Y-37190476D01*
X209778571Y-37238095D01*
X209730952Y-37190476D01*
X209683333Y-37095238D01*
X209683333Y-36857142D01*
X209730952Y-36761904D01*
X209778571Y-36714285D01*
X209873809Y-36666666D01*
X210111904Y-36666666D01*
X210207142Y-36714285D01*
X210254761Y-36761904D01*
X210302380Y-36857142D01*
X210302380Y-37095238D01*
X210254761Y-37190476D01*
X210207142Y-37238095D01*
X209302380Y-36047619D02*
X209302380Y-35952380D01*
X209350000Y-35857142D01*
X209397619Y-35809523D01*
X209492857Y-35761904D01*
X209683333Y-35714285D01*
X209921428Y-35714285D01*
X210111904Y-35761904D01*
X210207142Y-35809523D01*
X210254761Y-35857142D01*
X210302380Y-35952380D01*
X210302380Y-36047619D01*
X210254761Y-36142857D01*
X210207142Y-36190476D01*
X210111904Y-36238095D01*
X209921428Y-36285714D01*
X209683333Y-36285714D01*
X209492857Y-36238095D01*
X209397619Y-36190476D01*
X209350000Y-36142857D01*
X209302380Y-36047619D01*
X209302380Y-35095238D02*
X209302380Y-35000000D01*
X209350000Y-34904761D01*
X209397619Y-34857142D01*
X209492857Y-34809523D01*
X209683333Y-34761904D01*
X209921428Y-34761904D01*
X210111904Y-34809523D01*
X210207142Y-34857142D01*
X210254761Y-34904761D01*
X210302380Y-35000000D01*
X210302380Y-35095238D01*
X210254761Y-35190476D01*
X210207142Y-35238095D01*
X210111904Y-35285714D01*
X209921428Y-35333333D01*
X209683333Y-35333333D01*
X209492857Y-35285714D01*
X209397619Y-35238095D01*
X209350000Y-35190476D01*
X209302380Y-35095238D01*
X210302380Y-33761904D02*
X209826190Y-34095238D01*
X210302380Y-34333333D02*
X209302380Y-34333333D01*
X209302380Y-33952380D01*
X209350000Y-33857142D01*
X209397619Y-33809523D01*
X209492857Y-33761904D01*
X209635714Y-33761904D01*
X209730952Y-33809523D01*
X209778571Y-33857142D01*
X209826190Y-33952380D01*
X209826190Y-34333333D01*
X232404761Y-33302380D02*
X231833333Y-33302380D01*
X232119047Y-33302380D02*
X232119047Y-32302380D01*
X232023809Y-32445238D01*
X231928571Y-32540476D01*
X231833333Y-32588095D01*
X233309523Y-32302380D02*
X232833333Y-32302380D01*
X232785714Y-32778571D01*
X232833333Y-32730952D01*
X232928571Y-32683333D01*
X233166666Y-32683333D01*
X233261904Y-32730952D01*
X233309523Y-32778571D01*
X233357142Y-32873809D01*
X233357142Y-33111904D01*
X233309523Y-33207142D01*
X233261904Y-33254761D01*
X233166666Y-33302380D01*
X232928571Y-33302380D01*
X232833333Y-33254761D01*
X232785714Y-33207142D01*
X233785714Y-33302380D02*
X233785714Y-32302380D01*
X233880952Y-32921428D02*
X234166666Y-33302380D01*
X234166666Y-32635714D02*
X233785714Y-33016666D01*
X232880952Y-38952380D02*
X232309523Y-38952380D01*
X232595238Y-38952380D02*
X232595238Y-37952380D01*
X232500000Y-38095238D01*
X232404761Y-38190476D01*
X232309523Y-38238095D01*
X233309523Y-38952380D02*
X233309523Y-37952380D01*
X233404761Y-38571428D02*
X233690476Y-38952380D01*
X233690476Y-38285714D02*
X233309523Y-38666666D01*
M02*
