M48
; DRILL file {KiCad (5.1.5)-3} date 12/02/2021 21:06:24
; FORMAT={-:-/ absolute / metric / decimal}
; #@! TF.CreationDate,2021-02-12T21:06:24+01:00
; #@! TF.GenerationSoftware,Kicad,Pcbnew,(5.1.5)-3
FMAT,2
METRIC
T1C0.400
T2C0.762
T3C1.000
T4C1.300
T5C2.200
%
G90
G05
T1
X206.5Y-38.0
X212.75Y-38.0
X214.5Y-31.1
X214.5Y-39.0
X225.75Y-35.75
X225.75Y-39.75
X228.75Y-43.75
X232.25Y-43.75
T2
X173.818Y-31.134
X173.818Y-49.676
X176.318Y-31.134
X176.318Y-49.676
X184.446Y-31.134
X184.446Y-49.676
X186.946Y-31.134
X186.946Y-49.676
X191.318Y-31.18
X191.318Y-49.722
X193.818Y-31.18
X193.818Y-49.722
X201.946Y-31.18
X201.946Y-49.722
X204.446Y-31.18
X204.446Y-49.722
T3
X220.5Y-41.025
X223.0Y-41.025
X210.5Y-51.25
X213.0Y-51.25
X220.5Y-51.25
X223.0Y-51.25
X220.5Y-30.5
X223.0Y-30.5
X240.5Y-30.5
X243.0Y-30.5
X230.5Y-41.025
X233.0Y-41.025
X199.0Y-41.025
X201.5Y-41.025
X240.5Y-51.25
X243.0Y-51.25
X230.5Y-30.5
X233.0Y-30.5
X240.5Y-41.025
X243.0Y-41.025
X179.5Y-41.025
X182.0Y-41.025
X210.5Y-41.025
X213.0Y-41.025
X189.25Y-41.025
X191.75Y-41.025
X210.5Y-30.5
X213.0Y-30.5
X230.5Y-51.25
X233.0Y-51.25
T4
X159.5Y-43.7
X159.5Y-48.7
X167.7Y-43.7
X167.7Y-48.7
X159.5Y-31.2
X159.5Y-36.2
X167.7Y-31.2
X167.7Y-36.2
T5
X152.0Y-52.5
X250.0Y-28.5
X152.0Y-28.5
X250.0Y-52.5
T0
M30
