G04 #@! TF.GenerationSoftware,KiCad,Pcbnew,(5.1.5)-3*
G04 #@! TF.CreationDate,2021-02-12T21:05:29+01:00*
G04 #@! TF.ProjectId,Mainboard,4d61696e-626f-4617-9264-2e6b69636164,rev?*
G04 #@! TF.SameCoordinates,Original*
G04 #@! TF.FileFunction,Legend,Bot*
G04 #@! TF.FilePolarity,Positive*
%FSLAX46Y46*%
G04 Gerber Fmt 4.6, Leading zero omitted, Abs format (unit mm)*
G04 Created by KiCad (PCBNEW (5.1.5)-3) date 2021-02-12 21:05:29*
%MOMM*%
%LPD*%
G04 APERTURE LIST*
%ADD10C,0.120000*%
%ADD11C,0.150000*%
G04 APERTURE END LIST*
D10*
X196150000Y-43775000D02*
X196150000Y-42525000D01*
X197400000Y-43775000D02*
X196150000Y-43775000D01*
X203300000Y-38275000D02*
X200250000Y-38275000D01*
X203300000Y-41225000D02*
X203300000Y-38275000D01*
X204050000Y-41225000D02*
X203300000Y-41225000D01*
X197200000Y-38275000D02*
X200250000Y-38275000D01*
X197200000Y-41225000D02*
X197200000Y-38275000D01*
X196450000Y-41225000D02*
X197200000Y-41225000D01*
X204050000Y-43475000D02*
X202250000Y-43475000D01*
X204050000Y-42725000D02*
X204050000Y-43475000D01*
X202250000Y-42725000D02*
X204050000Y-42725000D01*
X202250000Y-43475000D02*
X202250000Y-42725000D01*
X198250000Y-43475000D02*
X196450000Y-43475000D01*
X198250000Y-42725000D02*
X198250000Y-43475000D01*
X196450000Y-42725000D02*
X198250000Y-42725000D01*
X196450000Y-43475000D02*
X196450000Y-42725000D01*
X200750000Y-43475000D02*
X199750000Y-43475000D01*
X200750000Y-42725000D02*
X200750000Y-43475000D01*
X199750000Y-42725000D02*
X200750000Y-42725000D01*
X199750000Y-43475000D02*
X199750000Y-42725000D01*
X204060000Y-43485000D02*
X196440000Y-43485000D01*
X204060000Y-37515000D02*
X204060000Y-43485000D01*
X196440000Y-37515000D02*
X204060000Y-37515000D01*
X196440000Y-43485000D02*
X196440000Y-37515000D01*
X186400000Y-43775000D02*
X186400000Y-42525000D01*
X187650000Y-43775000D02*
X186400000Y-43775000D01*
X193550000Y-38275000D02*
X190500000Y-38275000D01*
X193550000Y-41225000D02*
X193550000Y-38275000D01*
X194300000Y-41225000D02*
X193550000Y-41225000D01*
X187450000Y-38275000D02*
X190500000Y-38275000D01*
X187450000Y-41225000D02*
X187450000Y-38275000D01*
X186700000Y-41225000D02*
X187450000Y-41225000D01*
X194300000Y-43475000D02*
X192500000Y-43475000D01*
X194300000Y-42725000D02*
X194300000Y-43475000D01*
X192500000Y-42725000D02*
X194300000Y-42725000D01*
X192500000Y-43475000D02*
X192500000Y-42725000D01*
X188500000Y-43475000D02*
X186700000Y-43475000D01*
X188500000Y-42725000D02*
X188500000Y-43475000D01*
X186700000Y-42725000D02*
X188500000Y-42725000D01*
X186700000Y-43475000D02*
X186700000Y-42725000D01*
X191000000Y-43475000D02*
X190000000Y-43475000D01*
X191000000Y-42725000D02*
X191000000Y-43475000D01*
X190000000Y-42725000D02*
X191000000Y-42725000D01*
X190000000Y-43475000D02*
X190000000Y-42725000D01*
X194310000Y-43485000D02*
X186690000Y-43485000D01*
X194310000Y-37515000D02*
X194310000Y-43485000D01*
X186690000Y-37515000D02*
X194310000Y-37515000D01*
X186690000Y-43485000D02*
X186690000Y-37515000D01*
X176650000Y-43775000D02*
X176650000Y-42525000D01*
X177900000Y-43775000D02*
X176650000Y-43775000D01*
X183800000Y-38275000D02*
X180750000Y-38275000D01*
X183800000Y-41225000D02*
X183800000Y-38275000D01*
X184550000Y-41225000D02*
X183800000Y-41225000D01*
X177700000Y-38275000D02*
X180750000Y-38275000D01*
X177700000Y-41225000D02*
X177700000Y-38275000D01*
X176950000Y-41225000D02*
X177700000Y-41225000D01*
X184550000Y-43475000D02*
X182750000Y-43475000D01*
X184550000Y-42725000D02*
X184550000Y-43475000D01*
X182750000Y-42725000D02*
X184550000Y-42725000D01*
X182750000Y-43475000D02*
X182750000Y-42725000D01*
X178750000Y-43475000D02*
X176950000Y-43475000D01*
X178750000Y-42725000D02*
X178750000Y-43475000D01*
X176950000Y-42725000D02*
X178750000Y-42725000D01*
X176950000Y-43475000D02*
X176950000Y-42725000D01*
X181250000Y-43475000D02*
X180250000Y-43475000D01*
X181250000Y-42725000D02*
X181250000Y-43475000D01*
X180250000Y-42725000D02*
X181250000Y-42725000D01*
X180250000Y-43475000D02*
X180250000Y-42725000D01*
X184560000Y-43485000D02*
X176940000Y-43485000D01*
X184560000Y-37515000D02*
X184560000Y-43485000D01*
X176940000Y-37515000D02*
X184560000Y-37515000D01*
X176940000Y-43485000D02*
X176940000Y-37515000D01*
X237650000Y-33250000D02*
X237650000Y-32000000D01*
X238900000Y-33250000D02*
X237650000Y-33250000D01*
X244800000Y-27750000D02*
X241750000Y-27750000D01*
X244800000Y-30700000D02*
X244800000Y-27750000D01*
X245550000Y-30700000D02*
X244800000Y-30700000D01*
X238700000Y-27750000D02*
X241750000Y-27750000D01*
X238700000Y-30700000D02*
X238700000Y-27750000D01*
X237950000Y-30700000D02*
X238700000Y-30700000D01*
X245550000Y-32950000D02*
X243750000Y-32950000D01*
X245550000Y-32200000D02*
X245550000Y-32950000D01*
X243750000Y-32200000D02*
X245550000Y-32200000D01*
X243750000Y-32950000D02*
X243750000Y-32200000D01*
X239750000Y-32950000D02*
X237950000Y-32950000D01*
X239750000Y-32200000D02*
X239750000Y-32950000D01*
X237950000Y-32200000D02*
X239750000Y-32200000D01*
X237950000Y-32950000D02*
X237950000Y-32200000D01*
X242250000Y-32950000D02*
X241250000Y-32950000D01*
X242250000Y-32200000D02*
X242250000Y-32950000D01*
X241250000Y-32200000D02*
X242250000Y-32200000D01*
X241250000Y-32950000D02*
X241250000Y-32200000D01*
X245560000Y-32960000D02*
X237940000Y-32960000D01*
X245560000Y-26990000D02*
X245560000Y-32960000D01*
X237940000Y-26990000D02*
X245560000Y-26990000D01*
X237940000Y-32960000D02*
X237940000Y-26990000D01*
X237650000Y-43775000D02*
X237650000Y-42525000D01*
X238900000Y-43775000D02*
X237650000Y-43775000D01*
X244800000Y-38275000D02*
X241750000Y-38275000D01*
X244800000Y-41225000D02*
X244800000Y-38275000D01*
X245550000Y-41225000D02*
X244800000Y-41225000D01*
X238700000Y-38275000D02*
X241750000Y-38275000D01*
X238700000Y-41225000D02*
X238700000Y-38275000D01*
X237950000Y-41225000D02*
X238700000Y-41225000D01*
X245550000Y-43475000D02*
X243750000Y-43475000D01*
X245550000Y-42725000D02*
X245550000Y-43475000D01*
X243750000Y-42725000D02*
X245550000Y-42725000D01*
X243750000Y-43475000D02*
X243750000Y-42725000D01*
X239750000Y-43475000D02*
X237950000Y-43475000D01*
X239750000Y-42725000D02*
X239750000Y-43475000D01*
X237950000Y-42725000D02*
X239750000Y-42725000D01*
X237950000Y-43475000D02*
X237950000Y-42725000D01*
X242250000Y-43475000D02*
X241250000Y-43475000D01*
X242250000Y-42725000D02*
X242250000Y-43475000D01*
X241250000Y-42725000D02*
X242250000Y-42725000D01*
X241250000Y-43475000D02*
X241250000Y-42725000D01*
X245560000Y-43485000D02*
X237940000Y-43485000D01*
X245560000Y-37515000D02*
X245560000Y-43485000D01*
X237940000Y-37515000D02*
X245560000Y-37515000D01*
X237940000Y-43485000D02*
X237940000Y-37515000D01*
X237650000Y-54000000D02*
X237650000Y-52750000D01*
X238900000Y-54000000D02*
X237650000Y-54000000D01*
X244800000Y-48500000D02*
X241750000Y-48500000D01*
X244800000Y-51450000D02*
X244800000Y-48500000D01*
X245550000Y-51450000D02*
X244800000Y-51450000D01*
X238700000Y-48500000D02*
X241750000Y-48500000D01*
X238700000Y-51450000D02*
X238700000Y-48500000D01*
X237950000Y-51450000D02*
X238700000Y-51450000D01*
X245550000Y-53700000D02*
X243750000Y-53700000D01*
X245550000Y-52950000D02*
X245550000Y-53700000D01*
X243750000Y-52950000D02*
X245550000Y-52950000D01*
X243750000Y-53700000D02*
X243750000Y-52950000D01*
X239750000Y-53700000D02*
X237950000Y-53700000D01*
X239750000Y-52950000D02*
X239750000Y-53700000D01*
X237950000Y-52950000D02*
X239750000Y-52950000D01*
X237950000Y-53700000D02*
X237950000Y-52950000D01*
X242250000Y-53700000D02*
X241250000Y-53700000D01*
X242250000Y-52950000D02*
X242250000Y-53700000D01*
X241250000Y-52950000D02*
X242250000Y-52950000D01*
X241250000Y-53700000D02*
X241250000Y-52950000D01*
X245560000Y-53710000D02*
X237940000Y-53710000D01*
X245560000Y-47740000D02*
X245560000Y-53710000D01*
X237940000Y-47740000D02*
X245560000Y-47740000D01*
X237940000Y-53710000D02*
X237940000Y-47740000D01*
X227650000Y-33250000D02*
X227650000Y-32000000D01*
X228900000Y-33250000D02*
X227650000Y-33250000D01*
X234800000Y-27750000D02*
X231750000Y-27750000D01*
X234800000Y-30700000D02*
X234800000Y-27750000D01*
X235550000Y-30700000D02*
X234800000Y-30700000D01*
X228700000Y-27750000D02*
X231750000Y-27750000D01*
X228700000Y-30700000D02*
X228700000Y-27750000D01*
X227950000Y-30700000D02*
X228700000Y-30700000D01*
X235550000Y-32950000D02*
X233750000Y-32950000D01*
X235550000Y-32200000D02*
X235550000Y-32950000D01*
X233750000Y-32200000D02*
X235550000Y-32200000D01*
X233750000Y-32950000D02*
X233750000Y-32200000D01*
X229750000Y-32950000D02*
X227950000Y-32950000D01*
X229750000Y-32200000D02*
X229750000Y-32950000D01*
X227950000Y-32200000D02*
X229750000Y-32200000D01*
X227950000Y-32950000D02*
X227950000Y-32200000D01*
X232250000Y-32950000D02*
X231250000Y-32950000D01*
X232250000Y-32200000D02*
X232250000Y-32950000D01*
X231250000Y-32200000D02*
X232250000Y-32200000D01*
X231250000Y-32950000D02*
X231250000Y-32200000D01*
X235560000Y-32960000D02*
X227940000Y-32960000D01*
X235560000Y-26990000D02*
X235560000Y-32960000D01*
X227940000Y-26990000D02*
X235560000Y-26990000D01*
X227940000Y-32960000D02*
X227940000Y-26990000D01*
X227650000Y-43775000D02*
X227650000Y-42525000D01*
X228900000Y-43775000D02*
X227650000Y-43775000D01*
X234800000Y-38275000D02*
X231750000Y-38275000D01*
X234800000Y-41225000D02*
X234800000Y-38275000D01*
X235550000Y-41225000D02*
X234800000Y-41225000D01*
X228700000Y-38275000D02*
X231750000Y-38275000D01*
X228700000Y-41225000D02*
X228700000Y-38275000D01*
X227950000Y-41225000D02*
X228700000Y-41225000D01*
X235550000Y-43475000D02*
X233750000Y-43475000D01*
X235550000Y-42725000D02*
X235550000Y-43475000D01*
X233750000Y-42725000D02*
X235550000Y-42725000D01*
X233750000Y-43475000D02*
X233750000Y-42725000D01*
X229750000Y-43475000D02*
X227950000Y-43475000D01*
X229750000Y-42725000D02*
X229750000Y-43475000D01*
X227950000Y-42725000D02*
X229750000Y-42725000D01*
X227950000Y-43475000D02*
X227950000Y-42725000D01*
X232250000Y-43475000D02*
X231250000Y-43475000D01*
X232250000Y-42725000D02*
X232250000Y-43475000D01*
X231250000Y-42725000D02*
X232250000Y-42725000D01*
X231250000Y-43475000D02*
X231250000Y-42725000D01*
X235560000Y-43485000D02*
X227940000Y-43485000D01*
X235560000Y-37515000D02*
X235560000Y-43485000D01*
X227940000Y-37515000D02*
X235560000Y-37515000D01*
X227940000Y-43485000D02*
X227940000Y-37515000D01*
X227650000Y-54000000D02*
X227650000Y-52750000D01*
X228900000Y-54000000D02*
X227650000Y-54000000D01*
X234800000Y-48500000D02*
X231750000Y-48500000D01*
X234800000Y-51450000D02*
X234800000Y-48500000D01*
X235550000Y-51450000D02*
X234800000Y-51450000D01*
X228700000Y-48500000D02*
X231750000Y-48500000D01*
X228700000Y-51450000D02*
X228700000Y-48500000D01*
X227950000Y-51450000D02*
X228700000Y-51450000D01*
X235550000Y-53700000D02*
X233750000Y-53700000D01*
X235550000Y-52950000D02*
X235550000Y-53700000D01*
X233750000Y-52950000D02*
X235550000Y-52950000D01*
X233750000Y-53700000D02*
X233750000Y-52950000D01*
X229750000Y-53700000D02*
X227950000Y-53700000D01*
X229750000Y-52950000D02*
X229750000Y-53700000D01*
X227950000Y-52950000D02*
X229750000Y-52950000D01*
X227950000Y-53700000D02*
X227950000Y-52950000D01*
X232250000Y-53700000D02*
X231250000Y-53700000D01*
X232250000Y-52950000D02*
X232250000Y-53700000D01*
X231250000Y-52950000D02*
X232250000Y-52950000D01*
X231250000Y-53700000D02*
X231250000Y-52950000D01*
X235560000Y-53710000D02*
X227940000Y-53710000D01*
X235560000Y-47740000D02*
X235560000Y-53710000D01*
X227940000Y-47740000D02*
X235560000Y-47740000D01*
X227940000Y-53710000D02*
X227940000Y-47740000D01*
X217650000Y-43775000D02*
X217650000Y-42525000D01*
X218900000Y-43775000D02*
X217650000Y-43775000D01*
X224800000Y-38275000D02*
X221750000Y-38275000D01*
X224800000Y-41225000D02*
X224800000Y-38275000D01*
X225550000Y-41225000D02*
X224800000Y-41225000D01*
X218700000Y-38275000D02*
X221750000Y-38275000D01*
X218700000Y-41225000D02*
X218700000Y-38275000D01*
X217950000Y-41225000D02*
X218700000Y-41225000D01*
X225550000Y-43475000D02*
X223750000Y-43475000D01*
X225550000Y-42725000D02*
X225550000Y-43475000D01*
X223750000Y-42725000D02*
X225550000Y-42725000D01*
X223750000Y-43475000D02*
X223750000Y-42725000D01*
X219750000Y-43475000D02*
X217950000Y-43475000D01*
X219750000Y-42725000D02*
X219750000Y-43475000D01*
X217950000Y-42725000D02*
X219750000Y-42725000D01*
X217950000Y-43475000D02*
X217950000Y-42725000D01*
X222250000Y-43475000D02*
X221250000Y-43475000D01*
X222250000Y-42725000D02*
X222250000Y-43475000D01*
X221250000Y-42725000D02*
X222250000Y-42725000D01*
X221250000Y-43475000D02*
X221250000Y-42725000D01*
X225560000Y-43485000D02*
X217940000Y-43485000D01*
X225560000Y-37515000D02*
X225560000Y-43485000D01*
X217940000Y-37515000D02*
X225560000Y-37515000D01*
X217940000Y-43485000D02*
X217940000Y-37515000D01*
X217650000Y-33250000D02*
X217650000Y-32000000D01*
X218900000Y-33250000D02*
X217650000Y-33250000D01*
X224800000Y-27750000D02*
X221750000Y-27750000D01*
X224800000Y-30700000D02*
X224800000Y-27750000D01*
X225550000Y-30700000D02*
X224800000Y-30700000D01*
X218700000Y-27750000D02*
X221750000Y-27750000D01*
X218700000Y-30700000D02*
X218700000Y-27750000D01*
X217950000Y-30700000D02*
X218700000Y-30700000D01*
X225550000Y-32950000D02*
X223750000Y-32950000D01*
X225550000Y-32200000D02*
X225550000Y-32950000D01*
X223750000Y-32200000D02*
X225550000Y-32200000D01*
X223750000Y-32950000D02*
X223750000Y-32200000D01*
X219750000Y-32950000D02*
X217950000Y-32950000D01*
X219750000Y-32200000D02*
X219750000Y-32950000D01*
X217950000Y-32200000D02*
X219750000Y-32200000D01*
X217950000Y-32950000D02*
X217950000Y-32200000D01*
X222250000Y-32950000D02*
X221250000Y-32950000D01*
X222250000Y-32200000D02*
X222250000Y-32950000D01*
X221250000Y-32200000D02*
X222250000Y-32200000D01*
X221250000Y-32950000D02*
X221250000Y-32200000D01*
X225560000Y-32960000D02*
X217940000Y-32960000D01*
X225560000Y-26990000D02*
X225560000Y-32960000D01*
X217940000Y-26990000D02*
X225560000Y-26990000D01*
X217940000Y-32960000D02*
X217940000Y-26990000D01*
X217650000Y-54000000D02*
X217650000Y-52750000D01*
X218900000Y-54000000D02*
X217650000Y-54000000D01*
X224800000Y-48500000D02*
X221750000Y-48500000D01*
X224800000Y-51450000D02*
X224800000Y-48500000D01*
X225550000Y-51450000D02*
X224800000Y-51450000D01*
X218700000Y-48500000D02*
X221750000Y-48500000D01*
X218700000Y-51450000D02*
X218700000Y-48500000D01*
X217950000Y-51450000D02*
X218700000Y-51450000D01*
X225550000Y-53700000D02*
X223750000Y-53700000D01*
X225550000Y-52950000D02*
X225550000Y-53700000D01*
X223750000Y-52950000D02*
X225550000Y-52950000D01*
X223750000Y-53700000D02*
X223750000Y-52950000D01*
X219750000Y-53700000D02*
X217950000Y-53700000D01*
X219750000Y-52950000D02*
X219750000Y-53700000D01*
X217950000Y-52950000D02*
X219750000Y-52950000D01*
X217950000Y-53700000D02*
X217950000Y-52950000D01*
X222250000Y-53700000D02*
X221250000Y-53700000D01*
X222250000Y-52950000D02*
X222250000Y-53700000D01*
X221250000Y-52950000D02*
X222250000Y-52950000D01*
X221250000Y-53700000D02*
X221250000Y-52950000D01*
X225560000Y-53710000D02*
X217940000Y-53710000D01*
X225560000Y-47740000D02*
X225560000Y-53710000D01*
X217940000Y-47740000D02*
X225560000Y-47740000D01*
X217940000Y-53710000D02*
X217940000Y-47740000D01*
X207650000Y-33250000D02*
X207650000Y-32000000D01*
X208900000Y-33250000D02*
X207650000Y-33250000D01*
X214800000Y-27750000D02*
X211750000Y-27750000D01*
X214800000Y-30700000D02*
X214800000Y-27750000D01*
X215550000Y-30700000D02*
X214800000Y-30700000D01*
X208700000Y-27750000D02*
X211750000Y-27750000D01*
X208700000Y-30700000D02*
X208700000Y-27750000D01*
X207950000Y-30700000D02*
X208700000Y-30700000D01*
X215550000Y-32950000D02*
X213750000Y-32950000D01*
X215550000Y-32200000D02*
X215550000Y-32950000D01*
X213750000Y-32200000D02*
X215550000Y-32200000D01*
X213750000Y-32950000D02*
X213750000Y-32200000D01*
X209750000Y-32950000D02*
X207950000Y-32950000D01*
X209750000Y-32200000D02*
X209750000Y-32950000D01*
X207950000Y-32200000D02*
X209750000Y-32200000D01*
X207950000Y-32950000D02*
X207950000Y-32200000D01*
X212250000Y-32950000D02*
X211250000Y-32950000D01*
X212250000Y-32200000D02*
X212250000Y-32950000D01*
X211250000Y-32200000D02*
X212250000Y-32200000D01*
X211250000Y-32950000D02*
X211250000Y-32200000D01*
X215560000Y-32960000D02*
X207940000Y-32960000D01*
X215560000Y-26990000D02*
X215560000Y-32960000D01*
X207940000Y-26990000D02*
X215560000Y-26990000D01*
X207940000Y-32960000D02*
X207940000Y-26990000D01*
X207650000Y-43775000D02*
X207650000Y-42525000D01*
X208900000Y-43775000D02*
X207650000Y-43775000D01*
X214800000Y-38275000D02*
X211750000Y-38275000D01*
X214800000Y-41225000D02*
X214800000Y-38275000D01*
X215550000Y-41225000D02*
X214800000Y-41225000D01*
X208700000Y-38275000D02*
X211750000Y-38275000D01*
X208700000Y-41225000D02*
X208700000Y-38275000D01*
X207950000Y-41225000D02*
X208700000Y-41225000D01*
X215550000Y-43475000D02*
X213750000Y-43475000D01*
X215550000Y-42725000D02*
X215550000Y-43475000D01*
X213750000Y-42725000D02*
X215550000Y-42725000D01*
X213750000Y-43475000D02*
X213750000Y-42725000D01*
X209750000Y-43475000D02*
X207950000Y-43475000D01*
X209750000Y-42725000D02*
X209750000Y-43475000D01*
X207950000Y-42725000D02*
X209750000Y-42725000D01*
X207950000Y-43475000D02*
X207950000Y-42725000D01*
X212250000Y-43475000D02*
X211250000Y-43475000D01*
X212250000Y-42725000D02*
X212250000Y-43475000D01*
X211250000Y-42725000D02*
X212250000Y-42725000D01*
X211250000Y-43475000D02*
X211250000Y-42725000D01*
X215560000Y-43485000D02*
X207940000Y-43485000D01*
X215560000Y-37515000D02*
X215560000Y-43485000D01*
X207940000Y-37515000D02*
X215560000Y-37515000D01*
X207940000Y-43485000D02*
X207940000Y-37515000D01*
X207650000Y-54000000D02*
X207650000Y-52750000D01*
X208900000Y-54000000D02*
X207650000Y-54000000D01*
X214800000Y-48500000D02*
X211750000Y-48500000D01*
X214800000Y-51450000D02*
X214800000Y-48500000D01*
X215550000Y-51450000D02*
X214800000Y-51450000D01*
X208700000Y-48500000D02*
X211750000Y-48500000D01*
X208700000Y-51450000D02*
X208700000Y-48500000D01*
X207950000Y-51450000D02*
X208700000Y-51450000D01*
X215550000Y-53700000D02*
X213750000Y-53700000D01*
X215550000Y-52950000D02*
X215550000Y-53700000D01*
X213750000Y-52950000D02*
X215550000Y-52950000D01*
X213750000Y-53700000D02*
X213750000Y-52950000D01*
X209750000Y-53700000D02*
X207950000Y-53700000D01*
X209750000Y-52950000D02*
X209750000Y-53700000D01*
X207950000Y-52950000D02*
X209750000Y-52950000D01*
X207950000Y-53700000D02*
X207950000Y-52950000D01*
X212250000Y-53700000D02*
X211250000Y-53700000D01*
X212250000Y-52950000D02*
X212250000Y-53700000D01*
X211250000Y-52950000D02*
X212250000Y-52950000D01*
X211250000Y-53700000D02*
X211250000Y-52950000D01*
X215560000Y-53710000D02*
X207940000Y-53710000D01*
X215560000Y-47740000D02*
X215560000Y-53710000D01*
X207940000Y-47740000D02*
X215560000Y-47740000D01*
X207940000Y-53710000D02*
X207940000Y-47740000D01*
D11*
X196583333Y-35972619D02*
X196583333Y-36972619D01*
X196821428Y-36972619D01*
X196964285Y-36925000D01*
X197059523Y-36829761D01*
X197107142Y-36734523D01*
X197154761Y-36544047D01*
X197154761Y-36401190D01*
X197107142Y-36210714D01*
X197059523Y-36115476D01*
X196964285Y-36020238D01*
X196821428Y-35972619D01*
X196583333Y-35972619D01*
X198011904Y-36639285D02*
X198011904Y-35972619D01*
X197583333Y-36639285D02*
X197583333Y-36115476D01*
X197630952Y-36020238D01*
X197726190Y-35972619D01*
X197869047Y-35972619D01*
X197964285Y-36020238D01*
X198011904Y-36067857D01*
X198869047Y-36020238D02*
X198773809Y-35972619D01*
X198583333Y-35972619D01*
X198488095Y-36020238D01*
X198440476Y-36115476D01*
X198440476Y-36496428D01*
X198488095Y-36591666D01*
X198583333Y-36639285D01*
X198773809Y-36639285D01*
X198869047Y-36591666D01*
X198916666Y-36496428D01*
X198916666Y-36401190D01*
X198440476Y-36305952D01*
X199202380Y-36639285D02*
X199583333Y-36639285D01*
X199345238Y-36972619D02*
X199345238Y-36115476D01*
X199392857Y-36020238D01*
X199488095Y-35972619D01*
X199583333Y-35972619D01*
X199678571Y-35877380D02*
X200440476Y-35877380D01*
X201011904Y-36496428D02*
X200678571Y-36496428D01*
X200678571Y-35972619D02*
X200678571Y-36972619D01*
X201154761Y-36972619D01*
X201488095Y-36258333D02*
X201964285Y-36258333D01*
X201392857Y-35972619D02*
X201726190Y-36972619D01*
X202059523Y-35972619D01*
X202392857Y-35972619D02*
X202392857Y-36972619D01*
X202964285Y-35972619D01*
X202964285Y-36972619D01*
X203345238Y-36972619D02*
X203964285Y-36972619D01*
X203630952Y-36591666D01*
X203773809Y-36591666D01*
X203869047Y-36544047D01*
X203916666Y-36496428D01*
X203964285Y-36401190D01*
X203964285Y-36163095D01*
X203916666Y-36067857D01*
X203869047Y-36020238D01*
X203773809Y-35972619D01*
X203488095Y-35972619D01*
X203392857Y-36020238D01*
X203345238Y-36067857D01*
X186833333Y-35972619D02*
X186833333Y-36972619D01*
X187071428Y-36972619D01*
X187214285Y-36925000D01*
X187309523Y-36829761D01*
X187357142Y-36734523D01*
X187404761Y-36544047D01*
X187404761Y-36401190D01*
X187357142Y-36210714D01*
X187309523Y-36115476D01*
X187214285Y-36020238D01*
X187071428Y-35972619D01*
X186833333Y-35972619D01*
X188261904Y-36639285D02*
X188261904Y-35972619D01*
X187833333Y-36639285D02*
X187833333Y-36115476D01*
X187880952Y-36020238D01*
X187976190Y-35972619D01*
X188119047Y-35972619D01*
X188214285Y-36020238D01*
X188261904Y-36067857D01*
X189119047Y-36020238D02*
X189023809Y-35972619D01*
X188833333Y-35972619D01*
X188738095Y-36020238D01*
X188690476Y-36115476D01*
X188690476Y-36496428D01*
X188738095Y-36591666D01*
X188833333Y-36639285D01*
X189023809Y-36639285D01*
X189119047Y-36591666D01*
X189166666Y-36496428D01*
X189166666Y-36401190D01*
X188690476Y-36305952D01*
X189452380Y-36639285D02*
X189833333Y-36639285D01*
X189595238Y-36972619D02*
X189595238Y-36115476D01*
X189642857Y-36020238D01*
X189738095Y-35972619D01*
X189833333Y-35972619D01*
X189928571Y-35877380D02*
X190690476Y-35877380D01*
X191261904Y-36496428D02*
X190928571Y-36496428D01*
X190928571Y-35972619D02*
X190928571Y-36972619D01*
X191404761Y-36972619D01*
X191738095Y-36258333D02*
X192214285Y-36258333D01*
X191642857Y-35972619D02*
X191976190Y-36972619D01*
X192309523Y-35972619D01*
X192642857Y-35972619D02*
X192642857Y-36972619D01*
X193214285Y-35972619D01*
X193214285Y-36972619D01*
X193642857Y-36877380D02*
X193690476Y-36925000D01*
X193785714Y-36972619D01*
X194023809Y-36972619D01*
X194119047Y-36925000D01*
X194166666Y-36877380D01*
X194214285Y-36782142D01*
X194214285Y-36686904D01*
X194166666Y-36544047D01*
X193595238Y-35972619D01*
X194214285Y-35972619D01*
X177083333Y-35972619D02*
X177083333Y-36972619D01*
X177321428Y-36972619D01*
X177464285Y-36925000D01*
X177559523Y-36829761D01*
X177607142Y-36734523D01*
X177654761Y-36544047D01*
X177654761Y-36401190D01*
X177607142Y-36210714D01*
X177559523Y-36115476D01*
X177464285Y-36020238D01*
X177321428Y-35972619D01*
X177083333Y-35972619D01*
X178511904Y-36639285D02*
X178511904Y-35972619D01*
X178083333Y-36639285D02*
X178083333Y-36115476D01*
X178130952Y-36020238D01*
X178226190Y-35972619D01*
X178369047Y-35972619D01*
X178464285Y-36020238D01*
X178511904Y-36067857D01*
X179369047Y-36020238D02*
X179273809Y-35972619D01*
X179083333Y-35972619D01*
X178988095Y-36020238D01*
X178940476Y-36115476D01*
X178940476Y-36496428D01*
X178988095Y-36591666D01*
X179083333Y-36639285D01*
X179273809Y-36639285D01*
X179369047Y-36591666D01*
X179416666Y-36496428D01*
X179416666Y-36401190D01*
X178940476Y-36305952D01*
X179702380Y-36639285D02*
X180083333Y-36639285D01*
X179845238Y-36972619D02*
X179845238Y-36115476D01*
X179892857Y-36020238D01*
X179988095Y-35972619D01*
X180083333Y-35972619D01*
X180178571Y-35877380D02*
X180940476Y-35877380D01*
X181511904Y-36496428D02*
X181178571Y-36496428D01*
X181178571Y-35972619D02*
X181178571Y-36972619D01*
X181654761Y-36972619D01*
X181988095Y-36258333D02*
X182464285Y-36258333D01*
X181892857Y-35972619D02*
X182226190Y-36972619D01*
X182559523Y-35972619D01*
X182892857Y-35972619D02*
X182892857Y-36972619D01*
X183464285Y-35972619D01*
X183464285Y-36972619D01*
X184464285Y-35972619D02*
X183892857Y-35972619D01*
X184178571Y-35972619D02*
X184178571Y-36972619D01*
X184083333Y-36829761D01*
X183988095Y-36734523D01*
X183892857Y-36686904D01*
X238892857Y-25971428D02*
X239035714Y-25923809D01*
X239083333Y-25876190D01*
X239130952Y-25780952D01*
X239130952Y-25638095D01*
X239083333Y-25542857D01*
X239035714Y-25495238D01*
X238940476Y-25447619D01*
X238559523Y-25447619D01*
X238559523Y-26447619D01*
X238892857Y-26447619D01*
X238988095Y-26400000D01*
X239035714Y-26352380D01*
X239083333Y-26257142D01*
X239083333Y-26161904D01*
X239035714Y-26066666D01*
X238988095Y-26019047D01*
X238892857Y-25971428D01*
X238559523Y-25971428D01*
X239511904Y-25733333D02*
X239988095Y-25733333D01*
X239416666Y-25447619D02*
X239750000Y-26447619D01*
X240083333Y-25447619D01*
X240178571Y-25352380D02*
X240940476Y-25352380D01*
X241369047Y-26447619D02*
X241559523Y-26447619D01*
X241654761Y-26400000D01*
X241750000Y-26304761D01*
X241797619Y-26114285D01*
X241797619Y-25780952D01*
X241750000Y-25590476D01*
X241654761Y-25495238D01*
X241559523Y-25447619D01*
X241369047Y-25447619D01*
X241273809Y-25495238D01*
X241178571Y-25590476D01*
X241130952Y-25780952D01*
X241130952Y-26114285D01*
X241178571Y-26304761D01*
X241273809Y-26400000D01*
X241369047Y-26447619D01*
X242654761Y-26114285D02*
X242654761Y-25447619D01*
X242226190Y-26114285D02*
X242226190Y-25590476D01*
X242273809Y-25495238D01*
X242369047Y-25447619D01*
X242511904Y-25447619D01*
X242607142Y-25495238D01*
X242654761Y-25542857D01*
X242988095Y-26114285D02*
X243369047Y-26114285D01*
X243130952Y-26447619D02*
X243130952Y-25590476D01*
X243178571Y-25495238D01*
X243273809Y-25447619D01*
X243369047Y-25447619D01*
X243464285Y-25352380D02*
X244226190Y-25352380D01*
X244416666Y-26352380D02*
X244464285Y-26400000D01*
X244559523Y-26447619D01*
X244797619Y-26447619D01*
X244892857Y-26400000D01*
X244940476Y-26352380D01*
X244988095Y-26257142D01*
X244988095Y-26161904D01*
X244940476Y-26019047D01*
X244369047Y-25447619D01*
X244988095Y-25447619D01*
X238892857Y-36496428D02*
X239035714Y-36448809D01*
X239083333Y-36401190D01*
X239130952Y-36305952D01*
X239130952Y-36163095D01*
X239083333Y-36067857D01*
X239035714Y-36020238D01*
X238940476Y-35972619D01*
X238559523Y-35972619D01*
X238559523Y-36972619D01*
X238892857Y-36972619D01*
X238988095Y-36925000D01*
X239035714Y-36877380D01*
X239083333Y-36782142D01*
X239083333Y-36686904D01*
X239035714Y-36591666D01*
X238988095Y-36544047D01*
X238892857Y-36496428D01*
X238559523Y-36496428D01*
X239511904Y-36258333D02*
X239988095Y-36258333D01*
X239416666Y-35972619D02*
X239750000Y-36972619D01*
X240083333Y-35972619D01*
X240178571Y-35877380D02*
X240940476Y-35877380D01*
X241369047Y-36972619D02*
X241559523Y-36972619D01*
X241654761Y-36925000D01*
X241750000Y-36829761D01*
X241797619Y-36639285D01*
X241797619Y-36305952D01*
X241750000Y-36115476D01*
X241654761Y-36020238D01*
X241559523Y-35972619D01*
X241369047Y-35972619D01*
X241273809Y-36020238D01*
X241178571Y-36115476D01*
X241130952Y-36305952D01*
X241130952Y-36639285D01*
X241178571Y-36829761D01*
X241273809Y-36925000D01*
X241369047Y-36972619D01*
X242654761Y-36639285D02*
X242654761Y-35972619D01*
X242226190Y-36639285D02*
X242226190Y-36115476D01*
X242273809Y-36020238D01*
X242369047Y-35972619D01*
X242511904Y-35972619D01*
X242607142Y-36020238D01*
X242654761Y-36067857D01*
X242988095Y-36639285D02*
X243369047Y-36639285D01*
X243130952Y-36972619D02*
X243130952Y-36115476D01*
X243178571Y-36020238D01*
X243273809Y-35972619D01*
X243369047Y-35972619D01*
X243464285Y-35877380D02*
X244226190Y-35877380D01*
X244988095Y-35972619D02*
X244416666Y-35972619D01*
X244702380Y-35972619D02*
X244702380Y-36972619D01*
X244607142Y-36829761D01*
X244511904Y-36734523D01*
X244416666Y-36686904D01*
X239369047Y-46197619D02*
X239369047Y-47197619D01*
X239369047Y-46721428D02*
X239940476Y-46721428D01*
X239940476Y-46197619D02*
X239940476Y-47197619D01*
X240416666Y-46721428D02*
X240750000Y-46721428D01*
X240892857Y-46197619D02*
X240416666Y-46197619D01*
X240416666Y-47197619D01*
X240892857Y-47197619D01*
X241083333Y-46102380D02*
X241845238Y-46102380D01*
X242273809Y-47197619D02*
X242464285Y-47197619D01*
X242559523Y-47150000D01*
X242654761Y-47054761D01*
X242702380Y-46864285D01*
X242702380Y-46530952D01*
X242654761Y-46340476D01*
X242559523Y-46245238D01*
X242464285Y-46197619D01*
X242273809Y-46197619D01*
X242178571Y-46245238D01*
X242083333Y-46340476D01*
X242035714Y-46530952D01*
X242035714Y-46864285D01*
X242083333Y-47054761D01*
X242178571Y-47150000D01*
X242273809Y-47197619D01*
X243559523Y-46864285D02*
X243559523Y-46197619D01*
X243130952Y-46864285D02*
X243130952Y-46340476D01*
X243178571Y-46245238D01*
X243273809Y-46197619D01*
X243416666Y-46197619D01*
X243511904Y-46245238D01*
X243559523Y-46292857D01*
X243892857Y-46864285D02*
X244273809Y-46864285D01*
X244035714Y-47197619D02*
X244035714Y-46340476D01*
X244083333Y-46245238D01*
X244178571Y-46197619D01*
X244273809Y-46197619D01*
X229607142Y-25447619D02*
X229607142Y-26447619D01*
X229988095Y-26447619D01*
X230083333Y-26400000D01*
X230130952Y-26352380D01*
X230178571Y-26257142D01*
X230178571Y-26114285D01*
X230130952Y-26019047D01*
X230083333Y-25971428D01*
X229988095Y-25923809D01*
X229607142Y-25923809D01*
X230607142Y-25447619D02*
X230607142Y-26114285D01*
X230607142Y-26447619D02*
X230559523Y-26400000D01*
X230607142Y-26352380D01*
X230654761Y-26400000D01*
X230607142Y-26447619D01*
X230607142Y-26352380D01*
X230845238Y-25352380D02*
X231607142Y-25352380D01*
X232035714Y-26447619D02*
X232226190Y-26447619D01*
X232321428Y-26400000D01*
X232416666Y-26304761D01*
X232464285Y-26114285D01*
X232464285Y-25780952D01*
X232416666Y-25590476D01*
X232321428Y-25495238D01*
X232226190Y-25447619D01*
X232035714Y-25447619D01*
X231940476Y-25495238D01*
X231845238Y-25590476D01*
X231797619Y-25780952D01*
X231797619Y-26114285D01*
X231845238Y-26304761D01*
X231940476Y-26400000D01*
X232035714Y-26447619D01*
X233321428Y-26114285D02*
X233321428Y-25447619D01*
X232892857Y-26114285D02*
X232892857Y-25590476D01*
X232940476Y-25495238D01*
X233035714Y-25447619D01*
X233178571Y-25447619D01*
X233273809Y-25495238D01*
X233321428Y-25542857D01*
X233654761Y-26114285D02*
X234035714Y-26114285D01*
X233797619Y-26447619D02*
X233797619Y-25590476D01*
X233845238Y-25495238D01*
X233940476Y-25447619D01*
X234035714Y-25447619D01*
X230773809Y-36067857D02*
X230726190Y-36020238D01*
X230583333Y-35972619D01*
X230488095Y-35972619D01*
X230345238Y-36020238D01*
X230250000Y-36115476D01*
X230202380Y-36210714D01*
X230154761Y-36401190D01*
X230154761Y-36544047D01*
X230202380Y-36734523D01*
X230250000Y-36829761D01*
X230345238Y-36925000D01*
X230488095Y-36972619D01*
X230583333Y-36972619D01*
X230726190Y-36925000D01*
X230773809Y-36877380D01*
X231535714Y-36496428D02*
X231202380Y-36496428D01*
X231202380Y-35972619D02*
X231202380Y-36972619D01*
X231678571Y-36972619D01*
X231821428Y-35877380D02*
X232583333Y-35877380D01*
X232964285Y-36544047D02*
X232869047Y-36591666D01*
X232821428Y-36639285D01*
X232773809Y-36734523D01*
X232773809Y-36782142D01*
X232821428Y-36877380D01*
X232869047Y-36925000D01*
X232964285Y-36972619D01*
X233154761Y-36972619D01*
X233250000Y-36925000D01*
X233297619Y-36877380D01*
X233345238Y-36782142D01*
X233345238Y-36734523D01*
X233297619Y-36639285D01*
X233250000Y-36591666D01*
X233154761Y-36544047D01*
X232964285Y-36544047D01*
X232869047Y-36496428D01*
X232821428Y-36448809D01*
X232773809Y-36353571D01*
X232773809Y-36163095D01*
X232821428Y-36067857D01*
X232869047Y-36020238D01*
X232964285Y-35972619D01*
X233154761Y-35972619D01*
X233250000Y-36020238D01*
X233297619Y-36067857D01*
X233345238Y-36163095D01*
X233345238Y-36353571D01*
X233297619Y-36448809D01*
X233250000Y-36496428D01*
X233154761Y-36544047D01*
X230773809Y-46292857D02*
X230726190Y-46245238D01*
X230583333Y-46197619D01*
X230488095Y-46197619D01*
X230345238Y-46245238D01*
X230250000Y-46340476D01*
X230202380Y-46435714D01*
X230154761Y-46626190D01*
X230154761Y-46769047D01*
X230202380Y-46959523D01*
X230250000Y-47054761D01*
X230345238Y-47150000D01*
X230488095Y-47197619D01*
X230583333Y-47197619D01*
X230726190Y-47150000D01*
X230773809Y-47102380D01*
X231535714Y-46721428D02*
X231202380Y-46721428D01*
X231202380Y-46197619D02*
X231202380Y-47197619D01*
X231678571Y-47197619D01*
X231821428Y-46102380D02*
X232583333Y-46102380D01*
X232726190Y-47197619D02*
X233392857Y-47197619D01*
X232964285Y-46197619D01*
X220773809Y-36067857D02*
X220726190Y-36020238D01*
X220583333Y-35972619D01*
X220488095Y-35972619D01*
X220345238Y-36020238D01*
X220250000Y-36115476D01*
X220202380Y-36210714D01*
X220154761Y-36401190D01*
X220154761Y-36544047D01*
X220202380Y-36734523D01*
X220250000Y-36829761D01*
X220345238Y-36925000D01*
X220488095Y-36972619D01*
X220583333Y-36972619D01*
X220726190Y-36925000D01*
X220773809Y-36877380D01*
X221535714Y-36496428D02*
X221202380Y-36496428D01*
X221202380Y-35972619D02*
X221202380Y-36972619D01*
X221678571Y-36972619D01*
X221821428Y-35877380D02*
X222583333Y-35877380D01*
X223297619Y-36972619D02*
X222821428Y-36972619D01*
X222773809Y-36496428D01*
X222821428Y-36544047D01*
X222916666Y-36591666D01*
X223154761Y-36591666D01*
X223250000Y-36544047D01*
X223297619Y-36496428D01*
X223345238Y-36401190D01*
X223345238Y-36163095D01*
X223297619Y-36067857D01*
X223250000Y-36020238D01*
X223154761Y-35972619D01*
X222916666Y-35972619D01*
X222821428Y-36020238D01*
X222773809Y-36067857D01*
X220773809Y-25542857D02*
X220726190Y-25495238D01*
X220583333Y-25447619D01*
X220488095Y-25447619D01*
X220345238Y-25495238D01*
X220250000Y-25590476D01*
X220202380Y-25685714D01*
X220154761Y-25876190D01*
X220154761Y-26019047D01*
X220202380Y-26209523D01*
X220250000Y-26304761D01*
X220345238Y-26400000D01*
X220488095Y-26447619D01*
X220583333Y-26447619D01*
X220726190Y-26400000D01*
X220773809Y-26352380D01*
X221535714Y-25971428D02*
X221202380Y-25971428D01*
X221202380Y-25447619D02*
X221202380Y-26447619D01*
X221678571Y-26447619D01*
X221821428Y-25352380D02*
X222583333Y-25352380D01*
X223297619Y-26447619D02*
X222821428Y-26447619D01*
X222773809Y-25971428D01*
X222821428Y-26019047D01*
X222916666Y-26066666D01*
X223154761Y-26066666D01*
X223250000Y-26019047D01*
X223297619Y-25971428D01*
X223345238Y-25876190D01*
X223345238Y-25638095D01*
X223297619Y-25542857D01*
X223250000Y-25495238D01*
X223154761Y-25447619D01*
X222916666Y-25447619D01*
X222821428Y-25495238D01*
X222773809Y-25542857D01*
X220773809Y-46292857D02*
X220726190Y-46245238D01*
X220583333Y-46197619D01*
X220488095Y-46197619D01*
X220345238Y-46245238D01*
X220250000Y-46340476D01*
X220202380Y-46435714D01*
X220154761Y-46626190D01*
X220154761Y-46769047D01*
X220202380Y-46959523D01*
X220250000Y-47054761D01*
X220345238Y-47150000D01*
X220488095Y-47197619D01*
X220583333Y-47197619D01*
X220726190Y-47150000D01*
X220773809Y-47102380D01*
X221535714Y-46721428D02*
X221202380Y-46721428D01*
X221202380Y-46197619D02*
X221202380Y-47197619D01*
X221678571Y-47197619D01*
X221821428Y-46102380D02*
X222583333Y-46102380D01*
X223250000Y-46864285D02*
X223250000Y-46197619D01*
X223011904Y-47245238D02*
X222773809Y-46530952D01*
X223392857Y-46530952D01*
X210773809Y-25542857D02*
X210726190Y-25495238D01*
X210583333Y-25447619D01*
X210488095Y-25447619D01*
X210345238Y-25495238D01*
X210250000Y-25590476D01*
X210202380Y-25685714D01*
X210154761Y-25876190D01*
X210154761Y-26019047D01*
X210202380Y-26209523D01*
X210250000Y-26304761D01*
X210345238Y-26400000D01*
X210488095Y-26447619D01*
X210583333Y-26447619D01*
X210726190Y-26400000D01*
X210773809Y-26352380D01*
X211535714Y-25971428D02*
X211202380Y-25971428D01*
X211202380Y-25447619D02*
X211202380Y-26447619D01*
X211678571Y-26447619D01*
X211821428Y-25352380D02*
X212583333Y-25352380D01*
X212726190Y-26447619D02*
X213345238Y-26447619D01*
X213011904Y-26066666D01*
X213154761Y-26066666D01*
X213250000Y-26019047D01*
X213297619Y-25971428D01*
X213345238Y-25876190D01*
X213345238Y-25638095D01*
X213297619Y-25542857D01*
X213250000Y-25495238D01*
X213154761Y-25447619D01*
X212869047Y-25447619D01*
X212773809Y-25495238D01*
X212726190Y-25542857D01*
X210773809Y-36067857D02*
X210726190Y-36020238D01*
X210583333Y-35972619D01*
X210488095Y-35972619D01*
X210345238Y-36020238D01*
X210250000Y-36115476D01*
X210202380Y-36210714D01*
X210154761Y-36401190D01*
X210154761Y-36544047D01*
X210202380Y-36734523D01*
X210250000Y-36829761D01*
X210345238Y-36925000D01*
X210488095Y-36972619D01*
X210583333Y-36972619D01*
X210726190Y-36925000D01*
X210773809Y-36877380D01*
X211535714Y-36496428D02*
X211202380Y-36496428D01*
X211202380Y-35972619D02*
X211202380Y-36972619D01*
X211678571Y-36972619D01*
X211821428Y-35877380D02*
X212583333Y-35877380D01*
X212773809Y-36877380D02*
X212821428Y-36925000D01*
X212916666Y-36972619D01*
X213154761Y-36972619D01*
X213250000Y-36925000D01*
X213297619Y-36877380D01*
X213345238Y-36782142D01*
X213345238Y-36686904D01*
X213297619Y-36544047D01*
X212726190Y-35972619D01*
X213345238Y-35972619D01*
X210773809Y-46292857D02*
X210726190Y-46245238D01*
X210583333Y-46197619D01*
X210488095Y-46197619D01*
X210345238Y-46245238D01*
X210250000Y-46340476D01*
X210202380Y-46435714D01*
X210154761Y-46626190D01*
X210154761Y-46769047D01*
X210202380Y-46959523D01*
X210250000Y-47054761D01*
X210345238Y-47150000D01*
X210488095Y-47197619D01*
X210583333Y-47197619D01*
X210726190Y-47150000D01*
X210773809Y-47102380D01*
X211535714Y-46721428D02*
X211202380Y-46721428D01*
X211202380Y-46197619D02*
X211202380Y-47197619D01*
X211678571Y-47197619D01*
X211821428Y-46102380D02*
X212583333Y-46102380D01*
X213345238Y-46197619D02*
X212773809Y-46197619D01*
X213059523Y-46197619D02*
X213059523Y-47197619D01*
X212964285Y-47054761D01*
X212869047Y-46959523D01*
X212773809Y-46911904D01*
M02*
