G04 #@! TF.GenerationSoftware,KiCad,Pcbnew,(5.1.5)-3*
G04 #@! TF.CreationDate,2021-02-12T21:05:29+01:00*
G04 #@! TF.ProjectId,Mainboard,4d61696e-626f-4617-9264-2e6b69636164,rev?*
G04 #@! TF.SameCoordinates,Original*
G04 #@! TF.FileFunction,Paste,Top*
G04 #@! TF.FilePolarity,Positive*
%FSLAX46Y46*%
G04 Gerber Fmt 4.6, Leading zero omitted, Abs format (unit mm)*
G04 Created by KiCad (PCBNEW (5.1.5)-3) date 2021-02-12 21:05:29*
%MOMM*%
%LPD*%
G04 APERTURE LIST*
%ADD10O,2.250000X1.600000*%
%ADD11R,0.600000X0.900000*%
%ADD12R,0.900000X0.600000*%
%ADD13R,1.050000X0.600000*%
%ADD14C,0.100000*%
G04 APERTURE END LIST*
D10*
X214500000Y-34230000D03*
X214500000Y-36770000D03*
X223000000Y-36770000D03*
X223000000Y-34230000D03*
D11*
X241185000Y-35500000D03*
D12*
X243885000Y-36100000D03*
D13*
X238165000Y-37410000D03*
X238165000Y-36140000D03*
X238165000Y-33590000D03*
X238165000Y-34860000D03*
D12*
X243885000Y-34900000D03*
X243885000Y-37380000D03*
X243885000Y-33620000D03*
D11*
X240335000Y-35500000D03*
X242035000Y-35500000D03*
X242035000Y-36650000D03*
X240335000Y-36650000D03*
X241185000Y-36650000D03*
X242035000Y-34350000D03*
X240335000Y-34350000D03*
X241185000Y-34350000D03*
D14*
G36*
X211980142Y-34076174D02*
G01*
X212003803Y-34079684D01*
X212027007Y-34085496D01*
X212049529Y-34093554D01*
X212071153Y-34103782D01*
X212091670Y-34116079D01*
X212110883Y-34130329D01*
X212128607Y-34146393D01*
X212144671Y-34164117D01*
X212158921Y-34183330D01*
X212171218Y-34203847D01*
X212181446Y-34225471D01*
X212189504Y-34247993D01*
X212195316Y-34271197D01*
X212198826Y-34294858D01*
X212200000Y-34318750D01*
X212200000Y-34806250D01*
X212198826Y-34830142D01*
X212195316Y-34853803D01*
X212189504Y-34877007D01*
X212181446Y-34899529D01*
X212171218Y-34921153D01*
X212158921Y-34941670D01*
X212144671Y-34960883D01*
X212128607Y-34978607D01*
X212110883Y-34994671D01*
X212091670Y-35008921D01*
X212071153Y-35021218D01*
X212049529Y-35031446D01*
X212027007Y-35039504D01*
X212003803Y-35045316D01*
X211980142Y-35048826D01*
X211956250Y-35050000D01*
X211043750Y-35050000D01*
X211019858Y-35048826D01*
X210996197Y-35045316D01*
X210972993Y-35039504D01*
X210950471Y-35031446D01*
X210928847Y-35021218D01*
X210908330Y-35008921D01*
X210889117Y-34994671D01*
X210871393Y-34978607D01*
X210855329Y-34960883D01*
X210841079Y-34941670D01*
X210828782Y-34921153D01*
X210818554Y-34899529D01*
X210810496Y-34877007D01*
X210804684Y-34853803D01*
X210801174Y-34830142D01*
X210800000Y-34806250D01*
X210800000Y-34318750D01*
X210801174Y-34294858D01*
X210804684Y-34271197D01*
X210810496Y-34247993D01*
X210818554Y-34225471D01*
X210828782Y-34203847D01*
X210841079Y-34183330D01*
X210855329Y-34164117D01*
X210871393Y-34146393D01*
X210889117Y-34130329D01*
X210908330Y-34116079D01*
X210928847Y-34103782D01*
X210950471Y-34093554D01*
X210972993Y-34085496D01*
X210996197Y-34079684D01*
X211019858Y-34076174D01*
X211043750Y-34075000D01*
X211956250Y-34075000D01*
X211980142Y-34076174D01*
G37*
G36*
X211980142Y-35951174D02*
G01*
X212003803Y-35954684D01*
X212027007Y-35960496D01*
X212049529Y-35968554D01*
X212071153Y-35978782D01*
X212091670Y-35991079D01*
X212110883Y-36005329D01*
X212128607Y-36021393D01*
X212144671Y-36039117D01*
X212158921Y-36058330D01*
X212171218Y-36078847D01*
X212181446Y-36100471D01*
X212189504Y-36122993D01*
X212195316Y-36146197D01*
X212198826Y-36169858D01*
X212200000Y-36193750D01*
X212200000Y-36681250D01*
X212198826Y-36705142D01*
X212195316Y-36728803D01*
X212189504Y-36752007D01*
X212181446Y-36774529D01*
X212171218Y-36796153D01*
X212158921Y-36816670D01*
X212144671Y-36835883D01*
X212128607Y-36853607D01*
X212110883Y-36869671D01*
X212091670Y-36883921D01*
X212071153Y-36896218D01*
X212049529Y-36906446D01*
X212027007Y-36914504D01*
X212003803Y-36920316D01*
X211980142Y-36923826D01*
X211956250Y-36925000D01*
X211043750Y-36925000D01*
X211019858Y-36923826D01*
X210996197Y-36920316D01*
X210972993Y-36914504D01*
X210950471Y-36906446D01*
X210928847Y-36896218D01*
X210908330Y-36883921D01*
X210889117Y-36869671D01*
X210871393Y-36853607D01*
X210855329Y-36835883D01*
X210841079Y-36816670D01*
X210828782Y-36796153D01*
X210818554Y-36774529D01*
X210810496Y-36752007D01*
X210804684Y-36728803D01*
X210801174Y-36705142D01*
X210800000Y-36681250D01*
X210800000Y-36193750D01*
X210801174Y-36169858D01*
X210804684Y-36146197D01*
X210810496Y-36122993D01*
X210818554Y-36100471D01*
X210828782Y-36078847D01*
X210841079Y-36058330D01*
X210855329Y-36039117D01*
X210871393Y-36021393D01*
X210889117Y-36005329D01*
X210908330Y-35991079D01*
X210928847Y-35978782D01*
X210950471Y-35968554D01*
X210972993Y-35960496D01*
X210996197Y-35954684D01*
X211019858Y-35951174D01*
X211043750Y-35950000D01*
X211956250Y-35950000D01*
X211980142Y-35951174D01*
G37*
G36*
X232330142Y-33801174D02*
G01*
X232353803Y-33804684D01*
X232377007Y-33810496D01*
X232399529Y-33818554D01*
X232421153Y-33828782D01*
X232441670Y-33841079D01*
X232460883Y-33855329D01*
X232478607Y-33871393D01*
X232494671Y-33889117D01*
X232508921Y-33908330D01*
X232521218Y-33928847D01*
X232531446Y-33950471D01*
X232539504Y-33972993D01*
X232545316Y-33996197D01*
X232548826Y-34019858D01*
X232550000Y-34043750D01*
X232550000Y-34956250D01*
X232548826Y-34980142D01*
X232545316Y-35003803D01*
X232539504Y-35027007D01*
X232531446Y-35049529D01*
X232521218Y-35071153D01*
X232508921Y-35091670D01*
X232494671Y-35110883D01*
X232478607Y-35128607D01*
X232460883Y-35144671D01*
X232441670Y-35158921D01*
X232421153Y-35171218D01*
X232399529Y-35181446D01*
X232377007Y-35189504D01*
X232353803Y-35195316D01*
X232330142Y-35198826D01*
X232306250Y-35200000D01*
X231818750Y-35200000D01*
X231794858Y-35198826D01*
X231771197Y-35195316D01*
X231747993Y-35189504D01*
X231725471Y-35181446D01*
X231703847Y-35171218D01*
X231683330Y-35158921D01*
X231664117Y-35144671D01*
X231646393Y-35128607D01*
X231630329Y-35110883D01*
X231616079Y-35091670D01*
X231603782Y-35071153D01*
X231593554Y-35049529D01*
X231585496Y-35027007D01*
X231579684Y-35003803D01*
X231576174Y-34980142D01*
X231575000Y-34956250D01*
X231575000Y-34043750D01*
X231576174Y-34019858D01*
X231579684Y-33996197D01*
X231585496Y-33972993D01*
X231593554Y-33950471D01*
X231603782Y-33928847D01*
X231616079Y-33908330D01*
X231630329Y-33889117D01*
X231646393Y-33871393D01*
X231664117Y-33855329D01*
X231683330Y-33841079D01*
X231703847Y-33828782D01*
X231725471Y-33818554D01*
X231747993Y-33810496D01*
X231771197Y-33804684D01*
X231794858Y-33801174D01*
X231818750Y-33800000D01*
X232306250Y-33800000D01*
X232330142Y-33801174D01*
G37*
G36*
X234205142Y-33801174D02*
G01*
X234228803Y-33804684D01*
X234252007Y-33810496D01*
X234274529Y-33818554D01*
X234296153Y-33828782D01*
X234316670Y-33841079D01*
X234335883Y-33855329D01*
X234353607Y-33871393D01*
X234369671Y-33889117D01*
X234383921Y-33908330D01*
X234396218Y-33928847D01*
X234406446Y-33950471D01*
X234414504Y-33972993D01*
X234420316Y-33996197D01*
X234423826Y-34019858D01*
X234425000Y-34043750D01*
X234425000Y-34956250D01*
X234423826Y-34980142D01*
X234420316Y-35003803D01*
X234414504Y-35027007D01*
X234406446Y-35049529D01*
X234396218Y-35071153D01*
X234383921Y-35091670D01*
X234369671Y-35110883D01*
X234353607Y-35128607D01*
X234335883Y-35144671D01*
X234316670Y-35158921D01*
X234296153Y-35171218D01*
X234274529Y-35181446D01*
X234252007Y-35189504D01*
X234228803Y-35195316D01*
X234205142Y-35198826D01*
X234181250Y-35200000D01*
X233693750Y-35200000D01*
X233669858Y-35198826D01*
X233646197Y-35195316D01*
X233622993Y-35189504D01*
X233600471Y-35181446D01*
X233578847Y-35171218D01*
X233558330Y-35158921D01*
X233539117Y-35144671D01*
X233521393Y-35128607D01*
X233505329Y-35110883D01*
X233491079Y-35091670D01*
X233478782Y-35071153D01*
X233468554Y-35049529D01*
X233460496Y-35027007D01*
X233454684Y-35003803D01*
X233451174Y-34980142D01*
X233450000Y-34956250D01*
X233450000Y-34043750D01*
X233451174Y-34019858D01*
X233454684Y-33996197D01*
X233460496Y-33972993D01*
X233468554Y-33950471D01*
X233478782Y-33928847D01*
X233491079Y-33908330D01*
X233505329Y-33889117D01*
X233521393Y-33871393D01*
X233539117Y-33855329D01*
X233558330Y-33841079D01*
X233578847Y-33828782D01*
X233600471Y-33818554D01*
X233622993Y-33810496D01*
X233646197Y-33804684D01*
X233669858Y-33801174D01*
X233693750Y-33800000D01*
X234181250Y-33800000D01*
X234205142Y-33801174D01*
G37*
G36*
X234205142Y-36301174D02*
G01*
X234228803Y-36304684D01*
X234252007Y-36310496D01*
X234274529Y-36318554D01*
X234296153Y-36328782D01*
X234316670Y-36341079D01*
X234335883Y-36355329D01*
X234353607Y-36371393D01*
X234369671Y-36389117D01*
X234383921Y-36408330D01*
X234396218Y-36428847D01*
X234406446Y-36450471D01*
X234414504Y-36472993D01*
X234420316Y-36496197D01*
X234423826Y-36519858D01*
X234425000Y-36543750D01*
X234425000Y-37456250D01*
X234423826Y-37480142D01*
X234420316Y-37503803D01*
X234414504Y-37527007D01*
X234406446Y-37549529D01*
X234396218Y-37571153D01*
X234383921Y-37591670D01*
X234369671Y-37610883D01*
X234353607Y-37628607D01*
X234335883Y-37644671D01*
X234316670Y-37658921D01*
X234296153Y-37671218D01*
X234274529Y-37681446D01*
X234252007Y-37689504D01*
X234228803Y-37695316D01*
X234205142Y-37698826D01*
X234181250Y-37700000D01*
X233693750Y-37700000D01*
X233669858Y-37698826D01*
X233646197Y-37695316D01*
X233622993Y-37689504D01*
X233600471Y-37681446D01*
X233578847Y-37671218D01*
X233558330Y-37658921D01*
X233539117Y-37644671D01*
X233521393Y-37628607D01*
X233505329Y-37610883D01*
X233491079Y-37591670D01*
X233478782Y-37571153D01*
X233468554Y-37549529D01*
X233460496Y-37527007D01*
X233454684Y-37503803D01*
X233451174Y-37480142D01*
X233450000Y-37456250D01*
X233450000Y-36543750D01*
X233451174Y-36519858D01*
X233454684Y-36496197D01*
X233460496Y-36472993D01*
X233468554Y-36450471D01*
X233478782Y-36428847D01*
X233491079Y-36408330D01*
X233505329Y-36389117D01*
X233521393Y-36371393D01*
X233539117Y-36355329D01*
X233558330Y-36341079D01*
X233578847Y-36328782D01*
X233600471Y-36318554D01*
X233622993Y-36310496D01*
X233646197Y-36304684D01*
X233669858Y-36301174D01*
X233693750Y-36300000D01*
X234181250Y-36300000D01*
X234205142Y-36301174D01*
G37*
G36*
X232330142Y-36301174D02*
G01*
X232353803Y-36304684D01*
X232377007Y-36310496D01*
X232399529Y-36318554D01*
X232421153Y-36328782D01*
X232441670Y-36341079D01*
X232460883Y-36355329D01*
X232478607Y-36371393D01*
X232494671Y-36389117D01*
X232508921Y-36408330D01*
X232521218Y-36428847D01*
X232531446Y-36450471D01*
X232539504Y-36472993D01*
X232545316Y-36496197D01*
X232548826Y-36519858D01*
X232550000Y-36543750D01*
X232550000Y-37456250D01*
X232548826Y-37480142D01*
X232545316Y-37503803D01*
X232539504Y-37527007D01*
X232531446Y-37549529D01*
X232521218Y-37571153D01*
X232508921Y-37591670D01*
X232494671Y-37610883D01*
X232478607Y-37628607D01*
X232460883Y-37644671D01*
X232441670Y-37658921D01*
X232421153Y-37671218D01*
X232399529Y-37681446D01*
X232377007Y-37689504D01*
X232353803Y-37695316D01*
X232330142Y-37698826D01*
X232306250Y-37700000D01*
X231818750Y-37700000D01*
X231794858Y-37698826D01*
X231771197Y-37695316D01*
X231747993Y-37689504D01*
X231725471Y-37681446D01*
X231703847Y-37671218D01*
X231683330Y-37658921D01*
X231664117Y-37644671D01*
X231646393Y-37628607D01*
X231630329Y-37610883D01*
X231616079Y-37591670D01*
X231603782Y-37571153D01*
X231593554Y-37549529D01*
X231585496Y-37527007D01*
X231579684Y-37503803D01*
X231576174Y-37480142D01*
X231575000Y-37456250D01*
X231575000Y-36543750D01*
X231576174Y-36519858D01*
X231579684Y-36496197D01*
X231585496Y-36472993D01*
X231593554Y-36450471D01*
X231603782Y-36428847D01*
X231616079Y-36408330D01*
X231630329Y-36389117D01*
X231646393Y-36371393D01*
X231664117Y-36355329D01*
X231683330Y-36341079D01*
X231703847Y-36328782D01*
X231725471Y-36318554D01*
X231747993Y-36310496D01*
X231771197Y-36304684D01*
X231794858Y-36301174D01*
X231818750Y-36300000D01*
X232306250Y-36300000D01*
X232330142Y-36301174D01*
G37*
M02*
