G04 #@! TF.GenerationSoftware,KiCad,Pcbnew,(5.1.5)-3*
G04 #@! TF.CreationDate,2021-02-12T21:05:29+01:00*
G04 #@! TF.ProjectId,Mainboard,4d61696e-626f-4617-9264-2e6b69636164,rev?*
G04 #@! TF.SameCoordinates,Original*
G04 #@! TF.FileFunction,Copper,L1,Top*
G04 #@! TF.FilePolarity,Positive*
%FSLAX46Y46*%
G04 Gerber Fmt 4.6, Leading zero omitted, Abs format (unit mm)*
G04 Created by KiCad (PCBNEW (5.1.5)-3) date 2021-02-12 21:05:29*
%MOMM*%
%LPD*%
G04 APERTURE LIST*
%ADD10O,2.250000X1.600000*%
%ADD11O,3.860800X1.930400*%
%ADD12R,1.524000X1.524000*%
%ADD13C,1.524000*%
%ADD14O,1.700000X2.000000*%
%ADD15C,0.100000*%
%ADD16R,1.150000X0.700000*%
%ADD17C,0.800000*%
%ADD18C,1.000000*%
%ADD19C,0.500000*%
%ADD20C,0.250000*%
%ADD21C,0.254000*%
G04 APERTURE END LIST*
D10*
X214500000Y-34230000D03*
X214500000Y-36770000D03*
X223000000Y-36770000D03*
X223000000Y-34230000D03*
D11*
X159500000Y-48700000D03*
X167700000Y-48700000D03*
X159500000Y-43700000D03*
X167700000Y-43700000D03*
X159500000Y-36200000D03*
X167700000Y-36200000D03*
X159500000Y-31200000D03*
X167700000Y-31200000D03*
D12*
X186946000Y-31134000D03*
X184446000Y-31134000D03*
D13*
X176318000Y-31134000D03*
X173818000Y-31134000D03*
D12*
X186946000Y-49676000D03*
X184446000Y-49676000D03*
D13*
X176318000Y-49676000D03*
X173818000Y-49676000D03*
D12*
X204446000Y-31180000D03*
X201946000Y-31180000D03*
D13*
X193818000Y-31180000D03*
X191318000Y-31180000D03*
D12*
X204446000Y-49722000D03*
X201946000Y-49722000D03*
D13*
X193818000Y-49722000D03*
X191318000Y-49722000D03*
D14*
X201500000Y-41025000D03*
G04 #@! TA.AperFunction,ComponentPad*
D15*
G36*
X199624504Y-40026204D02*
G01*
X199648773Y-40029804D01*
X199672571Y-40035765D01*
X199695671Y-40044030D01*
X199717849Y-40054520D01*
X199738893Y-40067133D01*
X199758598Y-40081747D01*
X199776777Y-40098223D01*
X199793253Y-40116402D01*
X199807867Y-40136107D01*
X199820480Y-40157151D01*
X199830970Y-40179329D01*
X199839235Y-40202429D01*
X199845196Y-40226227D01*
X199848796Y-40250496D01*
X199850000Y-40275000D01*
X199850000Y-41775000D01*
X199848796Y-41799504D01*
X199845196Y-41823773D01*
X199839235Y-41847571D01*
X199830970Y-41870671D01*
X199820480Y-41892849D01*
X199807867Y-41913893D01*
X199793253Y-41933598D01*
X199776777Y-41951777D01*
X199758598Y-41968253D01*
X199738893Y-41982867D01*
X199717849Y-41995480D01*
X199695671Y-42005970D01*
X199672571Y-42014235D01*
X199648773Y-42020196D01*
X199624504Y-42023796D01*
X199600000Y-42025000D01*
X198400000Y-42025000D01*
X198375496Y-42023796D01*
X198351227Y-42020196D01*
X198327429Y-42014235D01*
X198304329Y-42005970D01*
X198282151Y-41995480D01*
X198261107Y-41982867D01*
X198241402Y-41968253D01*
X198223223Y-41951777D01*
X198206747Y-41933598D01*
X198192133Y-41913893D01*
X198179520Y-41892849D01*
X198169030Y-41870671D01*
X198160765Y-41847571D01*
X198154804Y-41823773D01*
X198151204Y-41799504D01*
X198150000Y-41775000D01*
X198150000Y-40275000D01*
X198151204Y-40250496D01*
X198154804Y-40226227D01*
X198160765Y-40202429D01*
X198169030Y-40179329D01*
X198179520Y-40157151D01*
X198192133Y-40136107D01*
X198206747Y-40116402D01*
X198223223Y-40098223D01*
X198241402Y-40081747D01*
X198261107Y-40067133D01*
X198282151Y-40054520D01*
X198304329Y-40044030D01*
X198327429Y-40035765D01*
X198351227Y-40029804D01*
X198375496Y-40026204D01*
X198400000Y-40025000D01*
X199600000Y-40025000D01*
X199624504Y-40026204D01*
G37*
G04 #@! TD.AperFunction*
D14*
X191750000Y-41025000D03*
G04 #@! TA.AperFunction,ComponentPad*
D15*
G36*
X189874504Y-40026204D02*
G01*
X189898773Y-40029804D01*
X189922571Y-40035765D01*
X189945671Y-40044030D01*
X189967849Y-40054520D01*
X189988893Y-40067133D01*
X190008598Y-40081747D01*
X190026777Y-40098223D01*
X190043253Y-40116402D01*
X190057867Y-40136107D01*
X190070480Y-40157151D01*
X190080970Y-40179329D01*
X190089235Y-40202429D01*
X190095196Y-40226227D01*
X190098796Y-40250496D01*
X190100000Y-40275000D01*
X190100000Y-41775000D01*
X190098796Y-41799504D01*
X190095196Y-41823773D01*
X190089235Y-41847571D01*
X190080970Y-41870671D01*
X190070480Y-41892849D01*
X190057867Y-41913893D01*
X190043253Y-41933598D01*
X190026777Y-41951777D01*
X190008598Y-41968253D01*
X189988893Y-41982867D01*
X189967849Y-41995480D01*
X189945671Y-42005970D01*
X189922571Y-42014235D01*
X189898773Y-42020196D01*
X189874504Y-42023796D01*
X189850000Y-42025000D01*
X188650000Y-42025000D01*
X188625496Y-42023796D01*
X188601227Y-42020196D01*
X188577429Y-42014235D01*
X188554329Y-42005970D01*
X188532151Y-41995480D01*
X188511107Y-41982867D01*
X188491402Y-41968253D01*
X188473223Y-41951777D01*
X188456747Y-41933598D01*
X188442133Y-41913893D01*
X188429520Y-41892849D01*
X188419030Y-41870671D01*
X188410765Y-41847571D01*
X188404804Y-41823773D01*
X188401204Y-41799504D01*
X188400000Y-41775000D01*
X188400000Y-40275000D01*
X188401204Y-40250496D01*
X188404804Y-40226227D01*
X188410765Y-40202429D01*
X188419030Y-40179329D01*
X188429520Y-40157151D01*
X188442133Y-40136107D01*
X188456747Y-40116402D01*
X188473223Y-40098223D01*
X188491402Y-40081747D01*
X188511107Y-40067133D01*
X188532151Y-40054520D01*
X188554329Y-40044030D01*
X188577429Y-40035765D01*
X188601227Y-40029804D01*
X188625496Y-40026204D01*
X188650000Y-40025000D01*
X189850000Y-40025000D01*
X189874504Y-40026204D01*
G37*
G04 #@! TD.AperFunction*
D14*
X182000000Y-41025000D03*
G04 #@! TA.AperFunction,ComponentPad*
D15*
G36*
X180124504Y-40026204D02*
G01*
X180148773Y-40029804D01*
X180172571Y-40035765D01*
X180195671Y-40044030D01*
X180217849Y-40054520D01*
X180238893Y-40067133D01*
X180258598Y-40081747D01*
X180276777Y-40098223D01*
X180293253Y-40116402D01*
X180307867Y-40136107D01*
X180320480Y-40157151D01*
X180330970Y-40179329D01*
X180339235Y-40202429D01*
X180345196Y-40226227D01*
X180348796Y-40250496D01*
X180350000Y-40275000D01*
X180350000Y-41775000D01*
X180348796Y-41799504D01*
X180345196Y-41823773D01*
X180339235Y-41847571D01*
X180330970Y-41870671D01*
X180320480Y-41892849D01*
X180307867Y-41913893D01*
X180293253Y-41933598D01*
X180276777Y-41951777D01*
X180258598Y-41968253D01*
X180238893Y-41982867D01*
X180217849Y-41995480D01*
X180195671Y-42005970D01*
X180172571Y-42014235D01*
X180148773Y-42020196D01*
X180124504Y-42023796D01*
X180100000Y-42025000D01*
X178900000Y-42025000D01*
X178875496Y-42023796D01*
X178851227Y-42020196D01*
X178827429Y-42014235D01*
X178804329Y-42005970D01*
X178782151Y-41995480D01*
X178761107Y-41982867D01*
X178741402Y-41968253D01*
X178723223Y-41951777D01*
X178706747Y-41933598D01*
X178692133Y-41913893D01*
X178679520Y-41892849D01*
X178669030Y-41870671D01*
X178660765Y-41847571D01*
X178654804Y-41823773D01*
X178651204Y-41799504D01*
X178650000Y-41775000D01*
X178650000Y-40275000D01*
X178651204Y-40250496D01*
X178654804Y-40226227D01*
X178660765Y-40202429D01*
X178669030Y-40179329D01*
X178679520Y-40157151D01*
X178692133Y-40136107D01*
X178706747Y-40116402D01*
X178723223Y-40098223D01*
X178741402Y-40081747D01*
X178761107Y-40067133D01*
X178782151Y-40054520D01*
X178804329Y-40044030D01*
X178827429Y-40035765D01*
X178851227Y-40029804D01*
X178875496Y-40026204D01*
X178900000Y-40025000D01*
X180100000Y-40025000D01*
X180124504Y-40026204D01*
G37*
G04 #@! TD.AperFunction*
D14*
X243000000Y-30500000D03*
G04 #@! TA.AperFunction,ComponentPad*
D15*
G36*
X241124504Y-29501204D02*
G01*
X241148773Y-29504804D01*
X241172571Y-29510765D01*
X241195671Y-29519030D01*
X241217849Y-29529520D01*
X241238893Y-29542133D01*
X241258598Y-29556747D01*
X241276777Y-29573223D01*
X241293253Y-29591402D01*
X241307867Y-29611107D01*
X241320480Y-29632151D01*
X241330970Y-29654329D01*
X241339235Y-29677429D01*
X241345196Y-29701227D01*
X241348796Y-29725496D01*
X241350000Y-29750000D01*
X241350000Y-31250000D01*
X241348796Y-31274504D01*
X241345196Y-31298773D01*
X241339235Y-31322571D01*
X241330970Y-31345671D01*
X241320480Y-31367849D01*
X241307867Y-31388893D01*
X241293253Y-31408598D01*
X241276777Y-31426777D01*
X241258598Y-31443253D01*
X241238893Y-31457867D01*
X241217849Y-31470480D01*
X241195671Y-31480970D01*
X241172571Y-31489235D01*
X241148773Y-31495196D01*
X241124504Y-31498796D01*
X241100000Y-31500000D01*
X239900000Y-31500000D01*
X239875496Y-31498796D01*
X239851227Y-31495196D01*
X239827429Y-31489235D01*
X239804329Y-31480970D01*
X239782151Y-31470480D01*
X239761107Y-31457867D01*
X239741402Y-31443253D01*
X239723223Y-31426777D01*
X239706747Y-31408598D01*
X239692133Y-31388893D01*
X239679520Y-31367849D01*
X239669030Y-31345671D01*
X239660765Y-31322571D01*
X239654804Y-31298773D01*
X239651204Y-31274504D01*
X239650000Y-31250000D01*
X239650000Y-29750000D01*
X239651204Y-29725496D01*
X239654804Y-29701227D01*
X239660765Y-29677429D01*
X239669030Y-29654329D01*
X239679520Y-29632151D01*
X239692133Y-29611107D01*
X239706747Y-29591402D01*
X239723223Y-29573223D01*
X239741402Y-29556747D01*
X239761107Y-29542133D01*
X239782151Y-29529520D01*
X239804329Y-29519030D01*
X239827429Y-29510765D01*
X239851227Y-29504804D01*
X239875496Y-29501204D01*
X239900000Y-29500000D01*
X241100000Y-29500000D01*
X241124504Y-29501204D01*
G37*
G04 #@! TD.AperFunction*
D14*
X243000000Y-41025000D03*
G04 #@! TA.AperFunction,ComponentPad*
D15*
G36*
X241124504Y-40026204D02*
G01*
X241148773Y-40029804D01*
X241172571Y-40035765D01*
X241195671Y-40044030D01*
X241217849Y-40054520D01*
X241238893Y-40067133D01*
X241258598Y-40081747D01*
X241276777Y-40098223D01*
X241293253Y-40116402D01*
X241307867Y-40136107D01*
X241320480Y-40157151D01*
X241330970Y-40179329D01*
X241339235Y-40202429D01*
X241345196Y-40226227D01*
X241348796Y-40250496D01*
X241350000Y-40275000D01*
X241350000Y-41775000D01*
X241348796Y-41799504D01*
X241345196Y-41823773D01*
X241339235Y-41847571D01*
X241330970Y-41870671D01*
X241320480Y-41892849D01*
X241307867Y-41913893D01*
X241293253Y-41933598D01*
X241276777Y-41951777D01*
X241258598Y-41968253D01*
X241238893Y-41982867D01*
X241217849Y-41995480D01*
X241195671Y-42005970D01*
X241172571Y-42014235D01*
X241148773Y-42020196D01*
X241124504Y-42023796D01*
X241100000Y-42025000D01*
X239900000Y-42025000D01*
X239875496Y-42023796D01*
X239851227Y-42020196D01*
X239827429Y-42014235D01*
X239804329Y-42005970D01*
X239782151Y-41995480D01*
X239761107Y-41982867D01*
X239741402Y-41968253D01*
X239723223Y-41951777D01*
X239706747Y-41933598D01*
X239692133Y-41913893D01*
X239679520Y-41892849D01*
X239669030Y-41870671D01*
X239660765Y-41847571D01*
X239654804Y-41823773D01*
X239651204Y-41799504D01*
X239650000Y-41775000D01*
X239650000Y-40275000D01*
X239651204Y-40250496D01*
X239654804Y-40226227D01*
X239660765Y-40202429D01*
X239669030Y-40179329D01*
X239679520Y-40157151D01*
X239692133Y-40136107D01*
X239706747Y-40116402D01*
X239723223Y-40098223D01*
X239741402Y-40081747D01*
X239761107Y-40067133D01*
X239782151Y-40054520D01*
X239804329Y-40044030D01*
X239827429Y-40035765D01*
X239851227Y-40029804D01*
X239875496Y-40026204D01*
X239900000Y-40025000D01*
X241100000Y-40025000D01*
X241124504Y-40026204D01*
G37*
G04 #@! TD.AperFunction*
D14*
X243000000Y-51250000D03*
G04 #@! TA.AperFunction,ComponentPad*
D15*
G36*
X241124504Y-50251204D02*
G01*
X241148773Y-50254804D01*
X241172571Y-50260765D01*
X241195671Y-50269030D01*
X241217849Y-50279520D01*
X241238893Y-50292133D01*
X241258598Y-50306747D01*
X241276777Y-50323223D01*
X241293253Y-50341402D01*
X241307867Y-50361107D01*
X241320480Y-50382151D01*
X241330970Y-50404329D01*
X241339235Y-50427429D01*
X241345196Y-50451227D01*
X241348796Y-50475496D01*
X241350000Y-50500000D01*
X241350000Y-52000000D01*
X241348796Y-52024504D01*
X241345196Y-52048773D01*
X241339235Y-52072571D01*
X241330970Y-52095671D01*
X241320480Y-52117849D01*
X241307867Y-52138893D01*
X241293253Y-52158598D01*
X241276777Y-52176777D01*
X241258598Y-52193253D01*
X241238893Y-52207867D01*
X241217849Y-52220480D01*
X241195671Y-52230970D01*
X241172571Y-52239235D01*
X241148773Y-52245196D01*
X241124504Y-52248796D01*
X241100000Y-52250000D01*
X239900000Y-52250000D01*
X239875496Y-52248796D01*
X239851227Y-52245196D01*
X239827429Y-52239235D01*
X239804329Y-52230970D01*
X239782151Y-52220480D01*
X239761107Y-52207867D01*
X239741402Y-52193253D01*
X239723223Y-52176777D01*
X239706747Y-52158598D01*
X239692133Y-52138893D01*
X239679520Y-52117849D01*
X239669030Y-52095671D01*
X239660765Y-52072571D01*
X239654804Y-52048773D01*
X239651204Y-52024504D01*
X239650000Y-52000000D01*
X239650000Y-50500000D01*
X239651204Y-50475496D01*
X239654804Y-50451227D01*
X239660765Y-50427429D01*
X239669030Y-50404329D01*
X239679520Y-50382151D01*
X239692133Y-50361107D01*
X239706747Y-50341402D01*
X239723223Y-50323223D01*
X239741402Y-50306747D01*
X239761107Y-50292133D01*
X239782151Y-50279520D01*
X239804329Y-50269030D01*
X239827429Y-50260765D01*
X239851227Y-50254804D01*
X239875496Y-50251204D01*
X239900000Y-50250000D01*
X241100000Y-50250000D01*
X241124504Y-50251204D01*
G37*
G04 #@! TD.AperFunction*
D14*
X233000000Y-30500000D03*
G04 #@! TA.AperFunction,ComponentPad*
D15*
G36*
X231124504Y-29501204D02*
G01*
X231148773Y-29504804D01*
X231172571Y-29510765D01*
X231195671Y-29519030D01*
X231217849Y-29529520D01*
X231238893Y-29542133D01*
X231258598Y-29556747D01*
X231276777Y-29573223D01*
X231293253Y-29591402D01*
X231307867Y-29611107D01*
X231320480Y-29632151D01*
X231330970Y-29654329D01*
X231339235Y-29677429D01*
X231345196Y-29701227D01*
X231348796Y-29725496D01*
X231350000Y-29750000D01*
X231350000Y-31250000D01*
X231348796Y-31274504D01*
X231345196Y-31298773D01*
X231339235Y-31322571D01*
X231330970Y-31345671D01*
X231320480Y-31367849D01*
X231307867Y-31388893D01*
X231293253Y-31408598D01*
X231276777Y-31426777D01*
X231258598Y-31443253D01*
X231238893Y-31457867D01*
X231217849Y-31470480D01*
X231195671Y-31480970D01*
X231172571Y-31489235D01*
X231148773Y-31495196D01*
X231124504Y-31498796D01*
X231100000Y-31500000D01*
X229900000Y-31500000D01*
X229875496Y-31498796D01*
X229851227Y-31495196D01*
X229827429Y-31489235D01*
X229804329Y-31480970D01*
X229782151Y-31470480D01*
X229761107Y-31457867D01*
X229741402Y-31443253D01*
X229723223Y-31426777D01*
X229706747Y-31408598D01*
X229692133Y-31388893D01*
X229679520Y-31367849D01*
X229669030Y-31345671D01*
X229660765Y-31322571D01*
X229654804Y-31298773D01*
X229651204Y-31274504D01*
X229650000Y-31250000D01*
X229650000Y-29750000D01*
X229651204Y-29725496D01*
X229654804Y-29701227D01*
X229660765Y-29677429D01*
X229669030Y-29654329D01*
X229679520Y-29632151D01*
X229692133Y-29611107D01*
X229706747Y-29591402D01*
X229723223Y-29573223D01*
X229741402Y-29556747D01*
X229761107Y-29542133D01*
X229782151Y-29529520D01*
X229804329Y-29519030D01*
X229827429Y-29510765D01*
X229851227Y-29504804D01*
X229875496Y-29501204D01*
X229900000Y-29500000D01*
X231100000Y-29500000D01*
X231124504Y-29501204D01*
G37*
G04 #@! TD.AperFunction*
D14*
X233000000Y-41025000D03*
G04 #@! TA.AperFunction,ComponentPad*
D15*
G36*
X231124504Y-40026204D02*
G01*
X231148773Y-40029804D01*
X231172571Y-40035765D01*
X231195671Y-40044030D01*
X231217849Y-40054520D01*
X231238893Y-40067133D01*
X231258598Y-40081747D01*
X231276777Y-40098223D01*
X231293253Y-40116402D01*
X231307867Y-40136107D01*
X231320480Y-40157151D01*
X231330970Y-40179329D01*
X231339235Y-40202429D01*
X231345196Y-40226227D01*
X231348796Y-40250496D01*
X231350000Y-40275000D01*
X231350000Y-41775000D01*
X231348796Y-41799504D01*
X231345196Y-41823773D01*
X231339235Y-41847571D01*
X231330970Y-41870671D01*
X231320480Y-41892849D01*
X231307867Y-41913893D01*
X231293253Y-41933598D01*
X231276777Y-41951777D01*
X231258598Y-41968253D01*
X231238893Y-41982867D01*
X231217849Y-41995480D01*
X231195671Y-42005970D01*
X231172571Y-42014235D01*
X231148773Y-42020196D01*
X231124504Y-42023796D01*
X231100000Y-42025000D01*
X229900000Y-42025000D01*
X229875496Y-42023796D01*
X229851227Y-42020196D01*
X229827429Y-42014235D01*
X229804329Y-42005970D01*
X229782151Y-41995480D01*
X229761107Y-41982867D01*
X229741402Y-41968253D01*
X229723223Y-41951777D01*
X229706747Y-41933598D01*
X229692133Y-41913893D01*
X229679520Y-41892849D01*
X229669030Y-41870671D01*
X229660765Y-41847571D01*
X229654804Y-41823773D01*
X229651204Y-41799504D01*
X229650000Y-41775000D01*
X229650000Y-40275000D01*
X229651204Y-40250496D01*
X229654804Y-40226227D01*
X229660765Y-40202429D01*
X229669030Y-40179329D01*
X229679520Y-40157151D01*
X229692133Y-40136107D01*
X229706747Y-40116402D01*
X229723223Y-40098223D01*
X229741402Y-40081747D01*
X229761107Y-40067133D01*
X229782151Y-40054520D01*
X229804329Y-40044030D01*
X229827429Y-40035765D01*
X229851227Y-40029804D01*
X229875496Y-40026204D01*
X229900000Y-40025000D01*
X231100000Y-40025000D01*
X231124504Y-40026204D01*
G37*
G04 #@! TD.AperFunction*
D14*
X233000000Y-51250000D03*
G04 #@! TA.AperFunction,ComponentPad*
D15*
G36*
X231124504Y-50251204D02*
G01*
X231148773Y-50254804D01*
X231172571Y-50260765D01*
X231195671Y-50269030D01*
X231217849Y-50279520D01*
X231238893Y-50292133D01*
X231258598Y-50306747D01*
X231276777Y-50323223D01*
X231293253Y-50341402D01*
X231307867Y-50361107D01*
X231320480Y-50382151D01*
X231330970Y-50404329D01*
X231339235Y-50427429D01*
X231345196Y-50451227D01*
X231348796Y-50475496D01*
X231350000Y-50500000D01*
X231350000Y-52000000D01*
X231348796Y-52024504D01*
X231345196Y-52048773D01*
X231339235Y-52072571D01*
X231330970Y-52095671D01*
X231320480Y-52117849D01*
X231307867Y-52138893D01*
X231293253Y-52158598D01*
X231276777Y-52176777D01*
X231258598Y-52193253D01*
X231238893Y-52207867D01*
X231217849Y-52220480D01*
X231195671Y-52230970D01*
X231172571Y-52239235D01*
X231148773Y-52245196D01*
X231124504Y-52248796D01*
X231100000Y-52250000D01*
X229900000Y-52250000D01*
X229875496Y-52248796D01*
X229851227Y-52245196D01*
X229827429Y-52239235D01*
X229804329Y-52230970D01*
X229782151Y-52220480D01*
X229761107Y-52207867D01*
X229741402Y-52193253D01*
X229723223Y-52176777D01*
X229706747Y-52158598D01*
X229692133Y-52138893D01*
X229679520Y-52117849D01*
X229669030Y-52095671D01*
X229660765Y-52072571D01*
X229654804Y-52048773D01*
X229651204Y-52024504D01*
X229650000Y-52000000D01*
X229650000Y-50500000D01*
X229651204Y-50475496D01*
X229654804Y-50451227D01*
X229660765Y-50427429D01*
X229669030Y-50404329D01*
X229679520Y-50382151D01*
X229692133Y-50361107D01*
X229706747Y-50341402D01*
X229723223Y-50323223D01*
X229741402Y-50306747D01*
X229761107Y-50292133D01*
X229782151Y-50279520D01*
X229804329Y-50269030D01*
X229827429Y-50260765D01*
X229851227Y-50254804D01*
X229875496Y-50251204D01*
X229900000Y-50250000D01*
X231100000Y-50250000D01*
X231124504Y-50251204D01*
G37*
G04 #@! TD.AperFunction*
D14*
X223000000Y-41025000D03*
G04 #@! TA.AperFunction,ComponentPad*
D15*
G36*
X221124504Y-40026204D02*
G01*
X221148773Y-40029804D01*
X221172571Y-40035765D01*
X221195671Y-40044030D01*
X221217849Y-40054520D01*
X221238893Y-40067133D01*
X221258598Y-40081747D01*
X221276777Y-40098223D01*
X221293253Y-40116402D01*
X221307867Y-40136107D01*
X221320480Y-40157151D01*
X221330970Y-40179329D01*
X221339235Y-40202429D01*
X221345196Y-40226227D01*
X221348796Y-40250496D01*
X221350000Y-40275000D01*
X221350000Y-41775000D01*
X221348796Y-41799504D01*
X221345196Y-41823773D01*
X221339235Y-41847571D01*
X221330970Y-41870671D01*
X221320480Y-41892849D01*
X221307867Y-41913893D01*
X221293253Y-41933598D01*
X221276777Y-41951777D01*
X221258598Y-41968253D01*
X221238893Y-41982867D01*
X221217849Y-41995480D01*
X221195671Y-42005970D01*
X221172571Y-42014235D01*
X221148773Y-42020196D01*
X221124504Y-42023796D01*
X221100000Y-42025000D01*
X219900000Y-42025000D01*
X219875496Y-42023796D01*
X219851227Y-42020196D01*
X219827429Y-42014235D01*
X219804329Y-42005970D01*
X219782151Y-41995480D01*
X219761107Y-41982867D01*
X219741402Y-41968253D01*
X219723223Y-41951777D01*
X219706747Y-41933598D01*
X219692133Y-41913893D01*
X219679520Y-41892849D01*
X219669030Y-41870671D01*
X219660765Y-41847571D01*
X219654804Y-41823773D01*
X219651204Y-41799504D01*
X219650000Y-41775000D01*
X219650000Y-40275000D01*
X219651204Y-40250496D01*
X219654804Y-40226227D01*
X219660765Y-40202429D01*
X219669030Y-40179329D01*
X219679520Y-40157151D01*
X219692133Y-40136107D01*
X219706747Y-40116402D01*
X219723223Y-40098223D01*
X219741402Y-40081747D01*
X219761107Y-40067133D01*
X219782151Y-40054520D01*
X219804329Y-40044030D01*
X219827429Y-40035765D01*
X219851227Y-40029804D01*
X219875496Y-40026204D01*
X219900000Y-40025000D01*
X221100000Y-40025000D01*
X221124504Y-40026204D01*
G37*
G04 #@! TD.AperFunction*
D14*
X223000000Y-30500000D03*
G04 #@! TA.AperFunction,ComponentPad*
D15*
G36*
X221124504Y-29501204D02*
G01*
X221148773Y-29504804D01*
X221172571Y-29510765D01*
X221195671Y-29519030D01*
X221217849Y-29529520D01*
X221238893Y-29542133D01*
X221258598Y-29556747D01*
X221276777Y-29573223D01*
X221293253Y-29591402D01*
X221307867Y-29611107D01*
X221320480Y-29632151D01*
X221330970Y-29654329D01*
X221339235Y-29677429D01*
X221345196Y-29701227D01*
X221348796Y-29725496D01*
X221350000Y-29750000D01*
X221350000Y-31250000D01*
X221348796Y-31274504D01*
X221345196Y-31298773D01*
X221339235Y-31322571D01*
X221330970Y-31345671D01*
X221320480Y-31367849D01*
X221307867Y-31388893D01*
X221293253Y-31408598D01*
X221276777Y-31426777D01*
X221258598Y-31443253D01*
X221238893Y-31457867D01*
X221217849Y-31470480D01*
X221195671Y-31480970D01*
X221172571Y-31489235D01*
X221148773Y-31495196D01*
X221124504Y-31498796D01*
X221100000Y-31500000D01*
X219900000Y-31500000D01*
X219875496Y-31498796D01*
X219851227Y-31495196D01*
X219827429Y-31489235D01*
X219804329Y-31480970D01*
X219782151Y-31470480D01*
X219761107Y-31457867D01*
X219741402Y-31443253D01*
X219723223Y-31426777D01*
X219706747Y-31408598D01*
X219692133Y-31388893D01*
X219679520Y-31367849D01*
X219669030Y-31345671D01*
X219660765Y-31322571D01*
X219654804Y-31298773D01*
X219651204Y-31274504D01*
X219650000Y-31250000D01*
X219650000Y-29750000D01*
X219651204Y-29725496D01*
X219654804Y-29701227D01*
X219660765Y-29677429D01*
X219669030Y-29654329D01*
X219679520Y-29632151D01*
X219692133Y-29611107D01*
X219706747Y-29591402D01*
X219723223Y-29573223D01*
X219741402Y-29556747D01*
X219761107Y-29542133D01*
X219782151Y-29529520D01*
X219804329Y-29519030D01*
X219827429Y-29510765D01*
X219851227Y-29504804D01*
X219875496Y-29501204D01*
X219900000Y-29500000D01*
X221100000Y-29500000D01*
X221124504Y-29501204D01*
G37*
G04 #@! TD.AperFunction*
D14*
X223000000Y-51250000D03*
G04 #@! TA.AperFunction,ComponentPad*
D15*
G36*
X221124504Y-50251204D02*
G01*
X221148773Y-50254804D01*
X221172571Y-50260765D01*
X221195671Y-50269030D01*
X221217849Y-50279520D01*
X221238893Y-50292133D01*
X221258598Y-50306747D01*
X221276777Y-50323223D01*
X221293253Y-50341402D01*
X221307867Y-50361107D01*
X221320480Y-50382151D01*
X221330970Y-50404329D01*
X221339235Y-50427429D01*
X221345196Y-50451227D01*
X221348796Y-50475496D01*
X221350000Y-50500000D01*
X221350000Y-52000000D01*
X221348796Y-52024504D01*
X221345196Y-52048773D01*
X221339235Y-52072571D01*
X221330970Y-52095671D01*
X221320480Y-52117849D01*
X221307867Y-52138893D01*
X221293253Y-52158598D01*
X221276777Y-52176777D01*
X221258598Y-52193253D01*
X221238893Y-52207867D01*
X221217849Y-52220480D01*
X221195671Y-52230970D01*
X221172571Y-52239235D01*
X221148773Y-52245196D01*
X221124504Y-52248796D01*
X221100000Y-52250000D01*
X219900000Y-52250000D01*
X219875496Y-52248796D01*
X219851227Y-52245196D01*
X219827429Y-52239235D01*
X219804329Y-52230970D01*
X219782151Y-52220480D01*
X219761107Y-52207867D01*
X219741402Y-52193253D01*
X219723223Y-52176777D01*
X219706747Y-52158598D01*
X219692133Y-52138893D01*
X219679520Y-52117849D01*
X219669030Y-52095671D01*
X219660765Y-52072571D01*
X219654804Y-52048773D01*
X219651204Y-52024504D01*
X219650000Y-52000000D01*
X219650000Y-50500000D01*
X219651204Y-50475496D01*
X219654804Y-50451227D01*
X219660765Y-50427429D01*
X219669030Y-50404329D01*
X219679520Y-50382151D01*
X219692133Y-50361107D01*
X219706747Y-50341402D01*
X219723223Y-50323223D01*
X219741402Y-50306747D01*
X219761107Y-50292133D01*
X219782151Y-50279520D01*
X219804329Y-50269030D01*
X219827429Y-50260765D01*
X219851227Y-50254804D01*
X219875496Y-50251204D01*
X219900000Y-50250000D01*
X221100000Y-50250000D01*
X221124504Y-50251204D01*
G37*
G04 #@! TD.AperFunction*
D14*
X213000000Y-30500000D03*
G04 #@! TA.AperFunction,ComponentPad*
D15*
G36*
X211124504Y-29501204D02*
G01*
X211148773Y-29504804D01*
X211172571Y-29510765D01*
X211195671Y-29519030D01*
X211217849Y-29529520D01*
X211238893Y-29542133D01*
X211258598Y-29556747D01*
X211276777Y-29573223D01*
X211293253Y-29591402D01*
X211307867Y-29611107D01*
X211320480Y-29632151D01*
X211330970Y-29654329D01*
X211339235Y-29677429D01*
X211345196Y-29701227D01*
X211348796Y-29725496D01*
X211350000Y-29750000D01*
X211350000Y-31250000D01*
X211348796Y-31274504D01*
X211345196Y-31298773D01*
X211339235Y-31322571D01*
X211330970Y-31345671D01*
X211320480Y-31367849D01*
X211307867Y-31388893D01*
X211293253Y-31408598D01*
X211276777Y-31426777D01*
X211258598Y-31443253D01*
X211238893Y-31457867D01*
X211217849Y-31470480D01*
X211195671Y-31480970D01*
X211172571Y-31489235D01*
X211148773Y-31495196D01*
X211124504Y-31498796D01*
X211100000Y-31500000D01*
X209900000Y-31500000D01*
X209875496Y-31498796D01*
X209851227Y-31495196D01*
X209827429Y-31489235D01*
X209804329Y-31480970D01*
X209782151Y-31470480D01*
X209761107Y-31457867D01*
X209741402Y-31443253D01*
X209723223Y-31426777D01*
X209706747Y-31408598D01*
X209692133Y-31388893D01*
X209679520Y-31367849D01*
X209669030Y-31345671D01*
X209660765Y-31322571D01*
X209654804Y-31298773D01*
X209651204Y-31274504D01*
X209650000Y-31250000D01*
X209650000Y-29750000D01*
X209651204Y-29725496D01*
X209654804Y-29701227D01*
X209660765Y-29677429D01*
X209669030Y-29654329D01*
X209679520Y-29632151D01*
X209692133Y-29611107D01*
X209706747Y-29591402D01*
X209723223Y-29573223D01*
X209741402Y-29556747D01*
X209761107Y-29542133D01*
X209782151Y-29529520D01*
X209804329Y-29519030D01*
X209827429Y-29510765D01*
X209851227Y-29504804D01*
X209875496Y-29501204D01*
X209900000Y-29500000D01*
X211100000Y-29500000D01*
X211124504Y-29501204D01*
G37*
G04 #@! TD.AperFunction*
D14*
X213000000Y-41025000D03*
G04 #@! TA.AperFunction,ComponentPad*
D15*
G36*
X211124504Y-40026204D02*
G01*
X211148773Y-40029804D01*
X211172571Y-40035765D01*
X211195671Y-40044030D01*
X211217849Y-40054520D01*
X211238893Y-40067133D01*
X211258598Y-40081747D01*
X211276777Y-40098223D01*
X211293253Y-40116402D01*
X211307867Y-40136107D01*
X211320480Y-40157151D01*
X211330970Y-40179329D01*
X211339235Y-40202429D01*
X211345196Y-40226227D01*
X211348796Y-40250496D01*
X211350000Y-40275000D01*
X211350000Y-41775000D01*
X211348796Y-41799504D01*
X211345196Y-41823773D01*
X211339235Y-41847571D01*
X211330970Y-41870671D01*
X211320480Y-41892849D01*
X211307867Y-41913893D01*
X211293253Y-41933598D01*
X211276777Y-41951777D01*
X211258598Y-41968253D01*
X211238893Y-41982867D01*
X211217849Y-41995480D01*
X211195671Y-42005970D01*
X211172571Y-42014235D01*
X211148773Y-42020196D01*
X211124504Y-42023796D01*
X211100000Y-42025000D01*
X209900000Y-42025000D01*
X209875496Y-42023796D01*
X209851227Y-42020196D01*
X209827429Y-42014235D01*
X209804329Y-42005970D01*
X209782151Y-41995480D01*
X209761107Y-41982867D01*
X209741402Y-41968253D01*
X209723223Y-41951777D01*
X209706747Y-41933598D01*
X209692133Y-41913893D01*
X209679520Y-41892849D01*
X209669030Y-41870671D01*
X209660765Y-41847571D01*
X209654804Y-41823773D01*
X209651204Y-41799504D01*
X209650000Y-41775000D01*
X209650000Y-40275000D01*
X209651204Y-40250496D01*
X209654804Y-40226227D01*
X209660765Y-40202429D01*
X209669030Y-40179329D01*
X209679520Y-40157151D01*
X209692133Y-40136107D01*
X209706747Y-40116402D01*
X209723223Y-40098223D01*
X209741402Y-40081747D01*
X209761107Y-40067133D01*
X209782151Y-40054520D01*
X209804329Y-40044030D01*
X209827429Y-40035765D01*
X209851227Y-40029804D01*
X209875496Y-40026204D01*
X209900000Y-40025000D01*
X211100000Y-40025000D01*
X211124504Y-40026204D01*
G37*
G04 #@! TD.AperFunction*
D14*
X213000000Y-51250000D03*
G04 #@! TA.AperFunction,ComponentPad*
D15*
G36*
X211124504Y-50251204D02*
G01*
X211148773Y-50254804D01*
X211172571Y-50260765D01*
X211195671Y-50269030D01*
X211217849Y-50279520D01*
X211238893Y-50292133D01*
X211258598Y-50306747D01*
X211276777Y-50323223D01*
X211293253Y-50341402D01*
X211307867Y-50361107D01*
X211320480Y-50382151D01*
X211330970Y-50404329D01*
X211339235Y-50427429D01*
X211345196Y-50451227D01*
X211348796Y-50475496D01*
X211350000Y-50500000D01*
X211350000Y-52000000D01*
X211348796Y-52024504D01*
X211345196Y-52048773D01*
X211339235Y-52072571D01*
X211330970Y-52095671D01*
X211320480Y-52117849D01*
X211307867Y-52138893D01*
X211293253Y-52158598D01*
X211276777Y-52176777D01*
X211258598Y-52193253D01*
X211238893Y-52207867D01*
X211217849Y-52220480D01*
X211195671Y-52230970D01*
X211172571Y-52239235D01*
X211148773Y-52245196D01*
X211124504Y-52248796D01*
X211100000Y-52250000D01*
X209900000Y-52250000D01*
X209875496Y-52248796D01*
X209851227Y-52245196D01*
X209827429Y-52239235D01*
X209804329Y-52230970D01*
X209782151Y-52220480D01*
X209761107Y-52207867D01*
X209741402Y-52193253D01*
X209723223Y-52176777D01*
X209706747Y-52158598D01*
X209692133Y-52138893D01*
X209679520Y-52117849D01*
X209669030Y-52095671D01*
X209660765Y-52072571D01*
X209654804Y-52048773D01*
X209651204Y-52024504D01*
X209650000Y-52000000D01*
X209650000Y-50500000D01*
X209651204Y-50475496D01*
X209654804Y-50451227D01*
X209660765Y-50427429D01*
X209669030Y-50404329D01*
X209679520Y-50382151D01*
X209692133Y-50361107D01*
X209706747Y-50341402D01*
X209723223Y-50323223D01*
X209741402Y-50306747D01*
X209761107Y-50292133D01*
X209782151Y-50279520D01*
X209804329Y-50269030D01*
X209827429Y-50260765D01*
X209851227Y-50254804D01*
X209875496Y-50251204D01*
X209900000Y-50250000D01*
X211100000Y-50250000D01*
X211124504Y-50251204D01*
G37*
G04 #@! TD.AperFunction*
G04 #@! TA.AperFunction,SMDPad,CuDef*
G36*
X244410000Y-37850000D02*
G01*
X242860000Y-37850000D01*
X242860000Y-37600000D01*
X239785000Y-37600000D01*
X239785000Y-33400000D01*
X242860000Y-33400000D01*
X242860000Y-33150000D01*
X244410000Y-33150000D01*
X244410000Y-37850000D01*
G37*
G04 #@! TD.AperFunction*
D16*
X238165000Y-37410000D03*
X238165000Y-36140000D03*
X238165000Y-33590000D03*
X238165000Y-34860000D03*
G04 #@! TA.AperFunction,SMDPad,CuDef*
D15*
G36*
X211980142Y-34076174D02*
G01*
X212003803Y-34079684D01*
X212027007Y-34085496D01*
X212049529Y-34093554D01*
X212071153Y-34103782D01*
X212091670Y-34116079D01*
X212110883Y-34130329D01*
X212128607Y-34146393D01*
X212144671Y-34164117D01*
X212158921Y-34183330D01*
X212171218Y-34203847D01*
X212181446Y-34225471D01*
X212189504Y-34247993D01*
X212195316Y-34271197D01*
X212198826Y-34294858D01*
X212200000Y-34318750D01*
X212200000Y-34806250D01*
X212198826Y-34830142D01*
X212195316Y-34853803D01*
X212189504Y-34877007D01*
X212181446Y-34899529D01*
X212171218Y-34921153D01*
X212158921Y-34941670D01*
X212144671Y-34960883D01*
X212128607Y-34978607D01*
X212110883Y-34994671D01*
X212091670Y-35008921D01*
X212071153Y-35021218D01*
X212049529Y-35031446D01*
X212027007Y-35039504D01*
X212003803Y-35045316D01*
X211980142Y-35048826D01*
X211956250Y-35050000D01*
X211043750Y-35050000D01*
X211019858Y-35048826D01*
X210996197Y-35045316D01*
X210972993Y-35039504D01*
X210950471Y-35031446D01*
X210928847Y-35021218D01*
X210908330Y-35008921D01*
X210889117Y-34994671D01*
X210871393Y-34978607D01*
X210855329Y-34960883D01*
X210841079Y-34941670D01*
X210828782Y-34921153D01*
X210818554Y-34899529D01*
X210810496Y-34877007D01*
X210804684Y-34853803D01*
X210801174Y-34830142D01*
X210800000Y-34806250D01*
X210800000Y-34318750D01*
X210801174Y-34294858D01*
X210804684Y-34271197D01*
X210810496Y-34247993D01*
X210818554Y-34225471D01*
X210828782Y-34203847D01*
X210841079Y-34183330D01*
X210855329Y-34164117D01*
X210871393Y-34146393D01*
X210889117Y-34130329D01*
X210908330Y-34116079D01*
X210928847Y-34103782D01*
X210950471Y-34093554D01*
X210972993Y-34085496D01*
X210996197Y-34079684D01*
X211019858Y-34076174D01*
X211043750Y-34075000D01*
X211956250Y-34075000D01*
X211980142Y-34076174D01*
G37*
G04 #@! TD.AperFunction*
G04 #@! TA.AperFunction,SMDPad,CuDef*
G36*
X211980142Y-35951174D02*
G01*
X212003803Y-35954684D01*
X212027007Y-35960496D01*
X212049529Y-35968554D01*
X212071153Y-35978782D01*
X212091670Y-35991079D01*
X212110883Y-36005329D01*
X212128607Y-36021393D01*
X212144671Y-36039117D01*
X212158921Y-36058330D01*
X212171218Y-36078847D01*
X212181446Y-36100471D01*
X212189504Y-36122993D01*
X212195316Y-36146197D01*
X212198826Y-36169858D01*
X212200000Y-36193750D01*
X212200000Y-36681250D01*
X212198826Y-36705142D01*
X212195316Y-36728803D01*
X212189504Y-36752007D01*
X212181446Y-36774529D01*
X212171218Y-36796153D01*
X212158921Y-36816670D01*
X212144671Y-36835883D01*
X212128607Y-36853607D01*
X212110883Y-36869671D01*
X212091670Y-36883921D01*
X212071153Y-36896218D01*
X212049529Y-36906446D01*
X212027007Y-36914504D01*
X212003803Y-36920316D01*
X211980142Y-36923826D01*
X211956250Y-36925000D01*
X211043750Y-36925000D01*
X211019858Y-36923826D01*
X210996197Y-36920316D01*
X210972993Y-36914504D01*
X210950471Y-36906446D01*
X210928847Y-36896218D01*
X210908330Y-36883921D01*
X210889117Y-36869671D01*
X210871393Y-36853607D01*
X210855329Y-36835883D01*
X210841079Y-36816670D01*
X210828782Y-36796153D01*
X210818554Y-36774529D01*
X210810496Y-36752007D01*
X210804684Y-36728803D01*
X210801174Y-36705142D01*
X210800000Y-36681250D01*
X210800000Y-36193750D01*
X210801174Y-36169858D01*
X210804684Y-36146197D01*
X210810496Y-36122993D01*
X210818554Y-36100471D01*
X210828782Y-36078847D01*
X210841079Y-36058330D01*
X210855329Y-36039117D01*
X210871393Y-36021393D01*
X210889117Y-36005329D01*
X210908330Y-35991079D01*
X210928847Y-35978782D01*
X210950471Y-35968554D01*
X210972993Y-35960496D01*
X210996197Y-35954684D01*
X211019858Y-35951174D01*
X211043750Y-35950000D01*
X211956250Y-35950000D01*
X211980142Y-35951174D01*
G37*
G04 #@! TD.AperFunction*
G04 #@! TA.AperFunction,SMDPad,CuDef*
G36*
X232330142Y-33801174D02*
G01*
X232353803Y-33804684D01*
X232377007Y-33810496D01*
X232399529Y-33818554D01*
X232421153Y-33828782D01*
X232441670Y-33841079D01*
X232460883Y-33855329D01*
X232478607Y-33871393D01*
X232494671Y-33889117D01*
X232508921Y-33908330D01*
X232521218Y-33928847D01*
X232531446Y-33950471D01*
X232539504Y-33972993D01*
X232545316Y-33996197D01*
X232548826Y-34019858D01*
X232550000Y-34043750D01*
X232550000Y-34956250D01*
X232548826Y-34980142D01*
X232545316Y-35003803D01*
X232539504Y-35027007D01*
X232531446Y-35049529D01*
X232521218Y-35071153D01*
X232508921Y-35091670D01*
X232494671Y-35110883D01*
X232478607Y-35128607D01*
X232460883Y-35144671D01*
X232441670Y-35158921D01*
X232421153Y-35171218D01*
X232399529Y-35181446D01*
X232377007Y-35189504D01*
X232353803Y-35195316D01*
X232330142Y-35198826D01*
X232306250Y-35200000D01*
X231818750Y-35200000D01*
X231794858Y-35198826D01*
X231771197Y-35195316D01*
X231747993Y-35189504D01*
X231725471Y-35181446D01*
X231703847Y-35171218D01*
X231683330Y-35158921D01*
X231664117Y-35144671D01*
X231646393Y-35128607D01*
X231630329Y-35110883D01*
X231616079Y-35091670D01*
X231603782Y-35071153D01*
X231593554Y-35049529D01*
X231585496Y-35027007D01*
X231579684Y-35003803D01*
X231576174Y-34980142D01*
X231575000Y-34956250D01*
X231575000Y-34043750D01*
X231576174Y-34019858D01*
X231579684Y-33996197D01*
X231585496Y-33972993D01*
X231593554Y-33950471D01*
X231603782Y-33928847D01*
X231616079Y-33908330D01*
X231630329Y-33889117D01*
X231646393Y-33871393D01*
X231664117Y-33855329D01*
X231683330Y-33841079D01*
X231703847Y-33828782D01*
X231725471Y-33818554D01*
X231747993Y-33810496D01*
X231771197Y-33804684D01*
X231794858Y-33801174D01*
X231818750Y-33800000D01*
X232306250Y-33800000D01*
X232330142Y-33801174D01*
G37*
G04 #@! TD.AperFunction*
G04 #@! TA.AperFunction,SMDPad,CuDef*
G36*
X234205142Y-33801174D02*
G01*
X234228803Y-33804684D01*
X234252007Y-33810496D01*
X234274529Y-33818554D01*
X234296153Y-33828782D01*
X234316670Y-33841079D01*
X234335883Y-33855329D01*
X234353607Y-33871393D01*
X234369671Y-33889117D01*
X234383921Y-33908330D01*
X234396218Y-33928847D01*
X234406446Y-33950471D01*
X234414504Y-33972993D01*
X234420316Y-33996197D01*
X234423826Y-34019858D01*
X234425000Y-34043750D01*
X234425000Y-34956250D01*
X234423826Y-34980142D01*
X234420316Y-35003803D01*
X234414504Y-35027007D01*
X234406446Y-35049529D01*
X234396218Y-35071153D01*
X234383921Y-35091670D01*
X234369671Y-35110883D01*
X234353607Y-35128607D01*
X234335883Y-35144671D01*
X234316670Y-35158921D01*
X234296153Y-35171218D01*
X234274529Y-35181446D01*
X234252007Y-35189504D01*
X234228803Y-35195316D01*
X234205142Y-35198826D01*
X234181250Y-35200000D01*
X233693750Y-35200000D01*
X233669858Y-35198826D01*
X233646197Y-35195316D01*
X233622993Y-35189504D01*
X233600471Y-35181446D01*
X233578847Y-35171218D01*
X233558330Y-35158921D01*
X233539117Y-35144671D01*
X233521393Y-35128607D01*
X233505329Y-35110883D01*
X233491079Y-35091670D01*
X233478782Y-35071153D01*
X233468554Y-35049529D01*
X233460496Y-35027007D01*
X233454684Y-35003803D01*
X233451174Y-34980142D01*
X233450000Y-34956250D01*
X233450000Y-34043750D01*
X233451174Y-34019858D01*
X233454684Y-33996197D01*
X233460496Y-33972993D01*
X233468554Y-33950471D01*
X233478782Y-33928847D01*
X233491079Y-33908330D01*
X233505329Y-33889117D01*
X233521393Y-33871393D01*
X233539117Y-33855329D01*
X233558330Y-33841079D01*
X233578847Y-33828782D01*
X233600471Y-33818554D01*
X233622993Y-33810496D01*
X233646197Y-33804684D01*
X233669858Y-33801174D01*
X233693750Y-33800000D01*
X234181250Y-33800000D01*
X234205142Y-33801174D01*
G37*
G04 #@! TD.AperFunction*
G04 #@! TA.AperFunction,SMDPad,CuDef*
G36*
X234205142Y-36301174D02*
G01*
X234228803Y-36304684D01*
X234252007Y-36310496D01*
X234274529Y-36318554D01*
X234296153Y-36328782D01*
X234316670Y-36341079D01*
X234335883Y-36355329D01*
X234353607Y-36371393D01*
X234369671Y-36389117D01*
X234383921Y-36408330D01*
X234396218Y-36428847D01*
X234406446Y-36450471D01*
X234414504Y-36472993D01*
X234420316Y-36496197D01*
X234423826Y-36519858D01*
X234425000Y-36543750D01*
X234425000Y-37456250D01*
X234423826Y-37480142D01*
X234420316Y-37503803D01*
X234414504Y-37527007D01*
X234406446Y-37549529D01*
X234396218Y-37571153D01*
X234383921Y-37591670D01*
X234369671Y-37610883D01*
X234353607Y-37628607D01*
X234335883Y-37644671D01*
X234316670Y-37658921D01*
X234296153Y-37671218D01*
X234274529Y-37681446D01*
X234252007Y-37689504D01*
X234228803Y-37695316D01*
X234205142Y-37698826D01*
X234181250Y-37700000D01*
X233693750Y-37700000D01*
X233669858Y-37698826D01*
X233646197Y-37695316D01*
X233622993Y-37689504D01*
X233600471Y-37681446D01*
X233578847Y-37671218D01*
X233558330Y-37658921D01*
X233539117Y-37644671D01*
X233521393Y-37628607D01*
X233505329Y-37610883D01*
X233491079Y-37591670D01*
X233478782Y-37571153D01*
X233468554Y-37549529D01*
X233460496Y-37527007D01*
X233454684Y-37503803D01*
X233451174Y-37480142D01*
X233450000Y-37456250D01*
X233450000Y-36543750D01*
X233451174Y-36519858D01*
X233454684Y-36496197D01*
X233460496Y-36472993D01*
X233468554Y-36450471D01*
X233478782Y-36428847D01*
X233491079Y-36408330D01*
X233505329Y-36389117D01*
X233521393Y-36371393D01*
X233539117Y-36355329D01*
X233558330Y-36341079D01*
X233578847Y-36328782D01*
X233600471Y-36318554D01*
X233622993Y-36310496D01*
X233646197Y-36304684D01*
X233669858Y-36301174D01*
X233693750Y-36300000D01*
X234181250Y-36300000D01*
X234205142Y-36301174D01*
G37*
G04 #@! TD.AperFunction*
G04 #@! TA.AperFunction,SMDPad,CuDef*
G36*
X232330142Y-36301174D02*
G01*
X232353803Y-36304684D01*
X232377007Y-36310496D01*
X232399529Y-36318554D01*
X232421153Y-36328782D01*
X232441670Y-36341079D01*
X232460883Y-36355329D01*
X232478607Y-36371393D01*
X232494671Y-36389117D01*
X232508921Y-36408330D01*
X232521218Y-36428847D01*
X232531446Y-36450471D01*
X232539504Y-36472993D01*
X232545316Y-36496197D01*
X232548826Y-36519858D01*
X232550000Y-36543750D01*
X232550000Y-37456250D01*
X232548826Y-37480142D01*
X232545316Y-37503803D01*
X232539504Y-37527007D01*
X232531446Y-37549529D01*
X232521218Y-37571153D01*
X232508921Y-37591670D01*
X232494671Y-37610883D01*
X232478607Y-37628607D01*
X232460883Y-37644671D01*
X232441670Y-37658921D01*
X232421153Y-37671218D01*
X232399529Y-37681446D01*
X232377007Y-37689504D01*
X232353803Y-37695316D01*
X232330142Y-37698826D01*
X232306250Y-37700000D01*
X231818750Y-37700000D01*
X231794858Y-37698826D01*
X231771197Y-37695316D01*
X231747993Y-37689504D01*
X231725471Y-37681446D01*
X231703847Y-37671218D01*
X231683330Y-37658921D01*
X231664117Y-37644671D01*
X231646393Y-37628607D01*
X231630329Y-37610883D01*
X231616079Y-37591670D01*
X231603782Y-37571153D01*
X231593554Y-37549529D01*
X231585496Y-37527007D01*
X231579684Y-37503803D01*
X231576174Y-37480142D01*
X231575000Y-37456250D01*
X231575000Y-36543750D01*
X231576174Y-36519858D01*
X231579684Y-36496197D01*
X231585496Y-36472993D01*
X231593554Y-36450471D01*
X231603782Y-36428847D01*
X231616079Y-36408330D01*
X231630329Y-36389117D01*
X231646393Y-36371393D01*
X231664117Y-36355329D01*
X231683330Y-36341079D01*
X231703847Y-36328782D01*
X231725471Y-36318554D01*
X231747993Y-36310496D01*
X231771197Y-36304684D01*
X231794858Y-36301174D01*
X231818750Y-36300000D01*
X232306250Y-36300000D01*
X232330142Y-36301174D01*
G37*
G04 #@! TD.AperFunction*
D17*
X225750000Y-39750000D03*
X225750000Y-35750000D03*
X228750000Y-43750000D03*
X232250000Y-43750000D03*
X214500000Y-39000000D03*
X214500000Y-31100010D03*
X206500000Y-38000000D03*
X212750000Y-38000000D03*
D18*
X238165000Y-36140000D02*
X238165000Y-34860000D01*
X238165000Y-34860000D02*
X238165000Y-33590000D01*
D19*
X213000000Y-51750000D02*
X213000000Y-51250000D01*
X213000000Y-51250000D02*
X213000000Y-41025000D01*
X223000000Y-49750000D02*
X223000000Y-41025000D01*
X223000000Y-51250000D02*
X223000000Y-49750000D01*
X223000000Y-41025000D02*
X224475000Y-41025000D01*
X224475000Y-41025000D02*
X225750000Y-39750000D01*
X224350000Y-30500000D02*
X223000000Y-30500000D01*
X225750000Y-31900000D02*
X224350000Y-30500000D01*
X225750000Y-35750000D02*
X225750000Y-31900000D01*
X225750000Y-39750000D02*
X225750000Y-40750000D01*
X225750000Y-40750000D02*
X228750000Y-43750000D01*
X232250000Y-41775000D02*
X233000000Y-41025000D01*
X232250000Y-43750000D02*
X232250000Y-41775000D01*
X183350000Y-41025000D02*
X189750000Y-47425000D01*
X182000000Y-41025000D02*
X183350000Y-41025000D01*
X189750000Y-49947762D02*
X191302238Y-51500000D01*
X189750000Y-47425000D02*
X189750000Y-49947762D01*
X211650000Y-52750000D02*
X213000000Y-51400000D01*
X213000000Y-51400000D02*
X213000000Y-51250000D01*
X209660034Y-52750000D02*
X211650000Y-52750000D01*
X208410034Y-51500000D02*
X209660034Y-52750000D01*
X191302238Y-51500000D02*
X208410034Y-51500000D01*
X223000000Y-51400000D02*
X223000000Y-51250000D01*
X221650000Y-52750000D02*
X223000000Y-51400000D01*
X215850000Y-52750000D02*
X221650000Y-52750000D01*
X214350000Y-51250000D02*
X215850000Y-52750000D01*
X213000000Y-51250000D02*
X214350000Y-51250000D01*
X233000000Y-51400000D02*
X233000000Y-51250000D01*
X224350000Y-51250000D02*
X225850000Y-52750000D01*
X231650000Y-52750000D02*
X233000000Y-51400000D01*
X225850000Y-52750000D02*
X231650000Y-52750000D01*
X223000000Y-51250000D02*
X224350000Y-51250000D01*
X213000000Y-41025000D02*
X213000000Y-40500000D01*
X213000000Y-40500000D02*
X214500000Y-39000000D01*
X213600010Y-31100010D02*
X213000000Y-30500000D01*
X214500000Y-31100010D02*
X213600010Y-31100010D01*
D18*
X201946000Y-31180000D02*
X204446000Y-31180000D01*
X209650000Y-41025000D02*
X210500000Y-41025000D01*
X209000000Y-40375000D02*
X209650000Y-41025000D01*
X210500000Y-41025000D02*
X210500000Y-51250000D01*
D20*
X210800000Y-36437500D02*
X210237500Y-37000000D01*
X211500000Y-36437500D02*
X210800000Y-36437500D01*
X210237500Y-37000000D02*
X209000000Y-37000000D01*
D18*
X209000000Y-33500000D02*
X209000000Y-37000000D01*
X209000000Y-37000000D02*
X209000000Y-40375000D01*
X208528000Y-33500000D02*
X209000000Y-33500000D01*
X206208000Y-31180000D02*
X208528000Y-33500000D01*
X204446000Y-31180000D02*
X206208000Y-31180000D01*
X206888000Y-30500000D02*
X210500000Y-30500000D01*
X206208000Y-31180000D02*
X206888000Y-30500000D01*
X219650000Y-30500000D02*
X218750000Y-31400000D01*
X220500000Y-30500000D02*
X219650000Y-30500000D01*
X219650000Y-41025000D02*
X220500000Y-41025000D01*
X218750000Y-40125000D02*
X219650000Y-41025000D01*
X220500000Y-41025000D02*
X220500000Y-51250000D01*
X220500000Y-40025000D02*
X222025000Y-38500000D01*
X230500000Y-40025000D02*
X230500000Y-41025000D01*
X228975000Y-38500000D02*
X230500000Y-40025000D01*
X222025000Y-38500000D02*
X228975000Y-38500000D01*
X230500000Y-42025000D02*
X230500000Y-51250000D01*
X230500000Y-41025000D02*
X230500000Y-42025000D01*
X230500000Y-50250000D02*
X232000000Y-48750000D01*
X230500000Y-51250000D02*
X230500000Y-50250000D01*
X240500000Y-50250000D02*
X240500000Y-51250000D01*
X239000000Y-48750000D02*
X240500000Y-50250000D01*
X232000000Y-48750000D02*
X239000000Y-48750000D01*
X217799990Y-32200010D02*
X218500000Y-31500000D01*
X211200010Y-32200010D02*
X217799990Y-32200010D01*
X210500000Y-31500000D02*
X211200010Y-32200010D01*
X210500000Y-30500000D02*
X210500000Y-31500000D01*
X218500000Y-31500000D02*
X218750000Y-40125000D01*
X218750000Y-31400000D02*
X218500000Y-31500000D01*
D20*
X220500000Y-40025000D02*
X220500000Y-41025000D01*
X221625000Y-34230000D02*
X220500000Y-35355000D01*
X220500000Y-35355000D02*
X220500000Y-40025000D01*
X223000000Y-34230000D02*
X221625000Y-34230000D01*
D18*
X184446000Y-31134000D02*
X186946000Y-31134000D01*
X230500000Y-29500000D02*
X230500000Y-30500000D01*
X229500000Y-28500000D02*
X230500000Y-29500000D01*
X186946000Y-29372000D02*
X187818000Y-28500000D01*
X187818000Y-28500000D02*
X229500000Y-28500000D01*
X186946000Y-31134000D02*
X186946000Y-29372000D01*
D19*
X241650000Y-52750000D02*
X243000000Y-51400000D01*
X234500000Y-52750000D02*
X241650000Y-52750000D01*
X233799990Y-53450010D02*
X234500000Y-52750000D01*
X243000000Y-51400000D02*
X243000000Y-51250000D01*
X183950010Y-53450010D02*
X233799990Y-53450010D01*
X191750000Y-41025000D02*
X191750000Y-40875000D01*
X176000000Y-45500000D02*
X183950010Y-53450010D01*
X191750000Y-40875000D02*
X189125000Y-38250000D01*
X176750000Y-38250000D02*
X176000000Y-39000000D01*
X176000000Y-39000000D02*
X176000000Y-45500000D01*
X189125000Y-38250000D02*
X176750000Y-38250000D01*
D18*
X243000000Y-33935000D02*
X241435000Y-35500000D01*
X243000000Y-30500000D02*
X243000000Y-33935000D01*
X243000000Y-37065000D02*
X241435000Y-35500000D01*
X243000000Y-41025000D02*
X243000000Y-37065000D01*
D19*
X201500000Y-41025000D02*
X203475000Y-41025000D01*
X203475000Y-41025000D02*
X206500000Y-38000000D01*
X213270000Y-38000000D02*
X214500000Y-36770000D01*
X212750000Y-38000000D02*
X213270000Y-38000000D01*
D20*
X214167500Y-34562500D02*
X214500000Y-34230000D01*
X211500000Y-34562500D02*
X214167500Y-34562500D01*
X233832500Y-36770000D02*
X234062500Y-37000000D01*
X233937500Y-37000000D02*
X236250000Y-37000000D01*
X236660000Y-37410000D02*
X238165000Y-37410000D01*
X236250000Y-37000000D02*
X236660000Y-37410000D01*
X233937500Y-36300000D02*
X233937500Y-34500000D01*
X233937500Y-37000000D02*
X233937500Y-36300000D01*
X231832500Y-36770000D02*
X232062500Y-37000000D01*
X223000000Y-36770000D02*
X231832500Y-36770000D01*
D19*
X191318000Y-31180000D02*
X193818000Y-31180000D01*
X173818000Y-31134000D02*
X176318000Y-31134000D01*
D21*
G36*
X247373000Y-55340000D02*
G01*
X155877000Y-55340000D01*
X155877000Y-50641565D01*
X173032040Y-50641565D01*
X173099020Y-50881656D01*
X173348048Y-50998756D01*
X173615135Y-51065023D01*
X173890017Y-51077910D01*
X174162133Y-51036922D01*
X174421023Y-50943636D01*
X174536980Y-50881656D01*
X174603960Y-50641565D01*
X175532040Y-50641565D01*
X175599020Y-50881656D01*
X175848048Y-50998756D01*
X176115135Y-51065023D01*
X176390017Y-51077910D01*
X176662133Y-51036922D01*
X176921023Y-50943636D01*
X177036980Y-50881656D01*
X177103960Y-50641565D01*
X176318000Y-49855605D01*
X175532040Y-50641565D01*
X174603960Y-50641565D01*
X173818000Y-49855605D01*
X173032040Y-50641565D01*
X155877000Y-50641565D01*
X155877000Y-48700000D01*
X156926858Y-48700000D01*
X156957754Y-49013694D01*
X157049255Y-49315333D01*
X157197845Y-49593325D01*
X157397813Y-49836987D01*
X157641475Y-50036955D01*
X157919467Y-50185545D01*
X158221106Y-50277046D01*
X158456194Y-50300200D01*
X160543806Y-50300200D01*
X160778894Y-50277046D01*
X161080533Y-50185545D01*
X161358525Y-50036955D01*
X161602187Y-49836987D01*
X161802155Y-49593325D01*
X161950745Y-49315333D01*
X162042246Y-49013694D01*
X162073142Y-48700000D01*
X165126858Y-48700000D01*
X165157754Y-49013694D01*
X165249255Y-49315333D01*
X165397845Y-49593325D01*
X165597813Y-49836987D01*
X165841475Y-50036955D01*
X166119467Y-50185545D01*
X166421106Y-50277046D01*
X166656194Y-50300200D01*
X168743806Y-50300200D01*
X168978894Y-50277046D01*
X169280533Y-50185545D01*
X169558525Y-50036955D01*
X169802187Y-49836987D01*
X169875202Y-49748017D01*
X172416090Y-49748017D01*
X172457078Y-50020133D01*
X172550364Y-50279023D01*
X172612344Y-50394980D01*
X172852435Y-50461960D01*
X173638395Y-49676000D01*
X173997605Y-49676000D01*
X174783565Y-50461960D01*
X175023656Y-50394980D01*
X175065163Y-50306710D01*
X175112344Y-50394980D01*
X175352435Y-50461960D01*
X176138395Y-49676000D01*
X176497605Y-49676000D01*
X177283565Y-50461960D01*
X177523656Y-50394980D01*
X177640756Y-50145952D01*
X177707023Y-49878865D01*
X177719910Y-49603983D01*
X177678922Y-49331867D01*
X177585636Y-49072977D01*
X177523656Y-48957020D01*
X177283565Y-48890040D01*
X176497605Y-49676000D01*
X176138395Y-49676000D01*
X175352435Y-48890040D01*
X175112344Y-48957020D01*
X175070837Y-49045290D01*
X175023656Y-48957020D01*
X174783565Y-48890040D01*
X173997605Y-49676000D01*
X173638395Y-49676000D01*
X172852435Y-48890040D01*
X172612344Y-48957020D01*
X172495244Y-49206048D01*
X172428977Y-49473135D01*
X172416090Y-49748017D01*
X169875202Y-49748017D01*
X170002155Y-49593325D01*
X170150745Y-49315333D01*
X170242246Y-49013694D01*
X170272114Y-48710435D01*
X173032040Y-48710435D01*
X173818000Y-49496395D01*
X174603960Y-48710435D01*
X175532040Y-48710435D01*
X176318000Y-49496395D01*
X177103960Y-48710435D01*
X177036980Y-48470344D01*
X176787952Y-48353244D01*
X176520865Y-48286977D01*
X176245983Y-48274090D01*
X175973867Y-48315078D01*
X175714977Y-48408364D01*
X175599020Y-48470344D01*
X175532040Y-48710435D01*
X174603960Y-48710435D01*
X174536980Y-48470344D01*
X174287952Y-48353244D01*
X174020865Y-48286977D01*
X173745983Y-48274090D01*
X173473867Y-48315078D01*
X173214977Y-48408364D01*
X173099020Y-48470344D01*
X173032040Y-48710435D01*
X170272114Y-48710435D01*
X170273142Y-48700000D01*
X170242246Y-48386306D01*
X170150745Y-48084667D01*
X170002155Y-47806675D01*
X169802187Y-47563013D01*
X169558525Y-47363045D01*
X169280533Y-47214455D01*
X168978894Y-47122954D01*
X168743806Y-47099800D01*
X166656194Y-47099800D01*
X166421106Y-47122954D01*
X166119467Y-47214455D01*
X165841475Y-47363045D01*
X165597813Y-47563013D01*
X165397845Y-47806675D01*
X165249255Y-48084667D01*
X165157754Y-48386306D01*
X165126858Y-48700000D01*
X162073142Y-48700000D01*
X162042246Y-48386306D01*
X161950745Y-48084667D01*
X161802155Y-47806675D01*
X161602187Y-47563013D01*
X161358525Y-47363045D01*
X161080533Y-47214455D01*
X160778894Y-47122954D01*
X160543806Y-47099800D01*
X158456194Y-47099800D01*
X158221106Y-47122954D01*
X157919467Y-47214455D01*
X157641475Y-47363045D01*
X157397813Y-47563013D01*
X157197845Y-47806675D01*
X157049255Y-48084667D01*
X156957754Y-48386306D01*
X156926858Y-48700000D01*
X155877000Y-48700000D01*
X155877000Y-44074973D01*
X156979154Y-44074973D01*
X157007808Y-44195038D01*
X157133726Y-44483427D01*
X157313486Y-44741710D01*
X157540181Y-44959960D01*
X157805098Y-45129791D01*
X158098057Y-45244676D01*
X158407800Y-45300200D01*
X159373000Y-45300200D01*
X159373000Y-43827000D01*
X159627000Y-43827000D01*
X159627000Y-45300200D01*
X160592200Y-45300200D01*
X160901943Y-45244676D01*
X161194902Y-45129791D01*
X161459819Y-44959960D01*
X161686514Y-44741710D01*
X161866274Y-44483427D01*
X161992192Y-44195038D01*
X162020846Y-44074973D01*
X165179154Y-44074973D01*
X165207808Y-44195038D01*
X165333726Y-44483427D01*
X165513486Y-44741710D01*
X165740181Y-44959960D01*
X166005098Y-45129791D01*
X166298057Y-45244676D01*
X166607800Y-45300200D01*
X167573000Y-45300200D01*
X167573000Y-43827000D01*
X167827000Y-43827000D01*
X167827000Y-45300200D01*
X168792200Y-45300200D01*
X169101943Y-45244676D01*
X169394902Y-45129791D01*
X169659819Y-44959960D01*
X169886514Y-44741710D01*
X170066274Y-44483427D01*
X170192192Y-44195038D01*
X170220846Y-44074973D01*
X170101044Y-43827000D01*
X167827000Y-43827000D01*
X167573000Y-43827000D01*
X165298956Y-43827000D01*
X165179154Y-44074973D01*
X162020846Y-44074973D01*
X161901044Y-43827000D01*
X159627000Y-43827000D01*
X159373000Y-43827000D01*
X157098956Y-43827000D01*
X156979154Y-44074973D01*
X155877000Y-44074973D01*
X155877000Y-43325027D01*
X156979154Y-43325027D01*
X157098956Y-43573000D01*
X159373000Y-43573000D01*
X159373000Y-42099800D01*
X159627000Y-42099800D01*
X159627000Y-43573000D01*
X161901044Y-43573000D01*
X162020846Y-43325027D01*
X165179154Y-43325027D01*
X165298956Y-43573000D01*
X167573000Y-43573000D01*
X167573000Y-42099800D01*
X167827000Y-42099800D01*
X167827000Y-43573000D01*
X170101044Y-43573000D01*
X170220846Y-43325027D01*
X170192192Y-43204962D01*
X170066274Y-42916573D01*
X169886514Y-42658290D01*
X169659819Y-42440040D01*
X169394902Y-42270209D01*
X169101943Y-42155324D01*
X168792200Y-42099800D01*
X167827000Y-42099800D01*
X167573000Y-42099800D01*
X166607800Y-42099800D01*
X166298057Y-42155324D01*
X166005098Y-42270209D01*
X165740181Y-42440040D01*
X165513486Y-42658290D01*
X165333726Y-42916573D01*
X165207808Y-43204962D01*
X165179154Y-43325027D01*
X162020846Y-43325027D01*
X161992192Y-43204962D01*
X161866274Y-42916573D01*
X161686514Y-42658290D01*
X161459819Y-42440040D01*
X161194902Y-42270209D01*
X160901943Y-42155324D01*
X160592200Y-42099800D01*
X159627000Y-42099800D01*
X159373000Y-42099800D01*
X158407800Y-42099800D01*
X158098057Y-42155324D01*
X157805098Y-42270209D01*
X157540181Y-42440040D01*
X157313486Y-42658290D01*
X157133726Y-42916573D01*
X157007808Y-43204962D01*
X156979154Y-43325027D01*
X155877000Y-43325027D01*
X155877000Y-39000000D01*
X175110719Y-39000000D01*
X175115000Y-39043469D01*
X175115001Y-45456521D01*
X175110719Y-45500000D01*
X175127805Y-45673490D01*
X175178412Y-45840313D01*
X175260590Y-45994059D01*
X175343468Y-46095046D01*
X175343471Y-46095049D01*
X175371184Y-46128817D01*
X175404952Y-46156530D01*
X183293480Y-54045059D01*
X183321193Y-54078827D01*
X183354961Y-54106540D01*
X183354963Y-54106542D01*
X183426462Y-54165220D01*
X183455951Y-54189421D01*
X183609697Y-54271599D01*
X183725913Y-54306853D01*
X183776519Y-54322205D01*
X183791316Y-54323662D01*
X183906533Y-54335010D01*
X183906541Y-54335010D01*
X183950010Y-54339291D01*
X183993479Y-54335010D01*
X233756521Y-54335010D01*
X233799990Y-54339291D01*
X233843459Y-54335010D01*
X233843467Y-54335010D01*
X233973480Y-54322205D01*
X234140303Y-54271599D01*
X234294049Y-54189421D01*
X234428807Y-54078827D01*
X234456524Y-54045054D01*
X234866579Y-53635000D01*
X241606531Y-53635000D01*
X241650000Y-53639281D01*
X241693469Y-53635000D01*
X241693477Y-53635000D01*
X241823490Y-53622195D01*
X241990313Y-53571589D01*
X242144059Y-53489411D01*
X242278817Y-53378817D01*
X242306534Y-53345044D01*
X242780966Y-52870612D01*
X243000000Y-52892185D01*
X243291111Y-52863513D01*
X243571034Y-52778599D01*
X243829014Y-52640706D01*
X244055134Y-52455134D01*
X244240706Y-52229014D01*
X244378599Y-51971033D01*
X244463513Y-51691110D01*
X244485000Y-51472949D01*
X244485000Y-51027050D01*
X244463513Y-50808889D01*
X244378599Y-50528966D01*
X244240706Y-50270986D01*
X244055134Y-50044866D01*
X243829013Y-49859294D01*
X243571033Y-49721401D01*
X243291110Y-49636487D01*
X243000000Y-49607815D01*
X242708889Y-49636487D01*
X242428966Y-49721401D01*
X242170986Y-49859294D01*
X241944866Y-50044866D01*
X241892777Y-50108337D01*
X241838405Y-50006614D01*
X241727962Y-49872038D01*
X241593386Y-49761595D01*
X241498913Y-49711098D01*
X241448284Y-49616377D01*
X241306449Y-49443551D01*
X241263140Y-49408008D01*
X239841996Y-47986865D01*
X239806449Y-47943551D01*
X239633623Y-47801716D01*
X239436447Y-47696324D01*
X239222499Y-47631423D01*
X239055752Y-47615000D01*
X239055751Y-47615000D01*
X239000000Y-47609509D01*
X238944249Y-47615000D01*
X232055741Y-47615000D01*
X231999999Y-47609510D01*
X231944257Y-47615000D01*
X231944248Y-47615000D01*
X231777501Y-47631423D01*
X231635000Y-47674651D01*
X231635000Y-44583854D01*
X231759744Y-44667205D01*
X231948102Y-44745226D01*
X232148061Y-44785000D01*
X232351939Y-44785000D01*
X232551898Y-44745226D01*
X232740256Y-44667205D01*
X232909774Y-44553937D01*
X233053937Y-44409774D01*
X233167205Y-44240256D01*
X233245226Y-44051898D01*
X233285000Y-43851939D01*
X233285000Y-43648061D01*
X233245226Y-43448102D01*
X233167205Y-43259744D01*
X233135000Y-43211546D01*
X233135000Y-42653889D01*
X233291111Y-42638513D01*
X233571034Y-42553599D01*
X233829014Y-42415706D01*
X234055134Y-42230134D01*
X234240706Y-42004014D01*
X234378599Y-41746033D01*
X234463513Y-41466110D01*
X234485000Y-41247949D01*
X234485000Y-40802050D01*
X234463513Y-40583889D01*
X234378599Y-40303966D01*
X234240706Y-40045986D01*
X234055134Y-39819866D01*
X233829013Y-39634294D01*
X233571033Y-39496401D01*
X233291110Y-39411487D01*
X233000000Y-39382815D01*
X232708889Y-39411487D01*
X232428966Y-39496401D01*
X232170986Y-39634294D01*
X231944866Y-39819866D01*
X231892777Y-39883337D01*
X231838405Y-39781614D01*
X231727962Y-39647038D01*
X231593386Y-39536595D01*
X231498913Y-39486098D01*
X231448284Y-39391377D01*
X231341989Y-39261856D01*
X231341987Y-39261854D01*
X231306449Y-39218551D01*
X231263146Y-39183013D01*
X229816995Y-37736864D01*
X229781449Y-37693551D01*
X229608623Y-37551716D01*
X229567995Y-37530000D01*
X230944192Y-37530000D01*
X230953872Y-37628285D01*
X231004053Y-37793709D01*
X231085542Y-37946164D01*
X231195208Y-38079792D01*
X231328836Y-38189458D01*
X231481291Y-38270947D01*
X231646715Y-38321128D01*
X231818750Y-38338072D01*
X232306250Y-38338072D01*
X232478285Y-38321128D01*
X232643709Y-38270947D01*
X232796164Y-38189458D01*
X232929792Y-38079792D01*
X233000000Y-37994244D01*
X233070208Y-38079792D01*
X233203836Y-38189458D01*
X233356291Y-38270947D01*
X233521715Y-38321128D01*
X233693750Y-38338072D01*
X234181250Y-38338072D01*
X234353285Y-38321128D01*
X234518709Y-38270947D01*
X234671164Y-38189458D01*
X234804792Y-38079792D01*
X234914458Y-37946164D01*
X234995947Y-37793709D01*
X235006173Y-37760000D01*
X235935199Y-37760000D01*
X236096196Y-37920997D01*
X236119999Y-37950001D01*
X236235724Y-38044974D01*
X236365785Y-38114494D01*
X236367753Y-38115546D01*
X236511014Y-38159003D01*
X236660000Y-38173677D01*
X236697333Y-38170000D01*
X237105015Y-38170000D01*
X237138815Y-38211185D01*
X237235506Y-38290537D01*
X237345820Y-38349502D01*
X237465518Y-38385812D01*
X237590000Y-38398072D01*
X238740000Y-38398072D01*
X238864482Y-38385812D01*
X238984180Y-38349502D01*
X239094494Y-38290537D01*
X239191185Y-38211185D01*
X239270537Y-38114494D01*
X239315988Y-38029463D01*
X239333815Y-38051185D01*
X239430506Y-38130537D01*
X239540820Y-38189502D01*
X239660518Y-38225812D01*
X239785000Y-38238072D01*
X241865001Y-38238072D01*
X241865000Y-39831370D01*
X241838405Y-39781614D01*
X241727962Y-39647038D01*
X241593386Y-39536595D01*
X241439850Y-39454528D01*
X241273254Y-39403992D01*
X241100000Y-39386928D01*
X239900000Y-39386928D01*
X239726746Y-39403992D01*
X239560150Y-39454528D01*
X239406614Y-39536595D01*
X239272038Y-39647038D01*
X239161595Y-39781614D01*
X239079528Y-39935150D01*
X239028992Y-40101746D01*
X239011928Y-40275000D01*
X239011928Y-41775000D01*
X239028992Y-41948254D01*
X239079528Y-42114850D01*
X239161595Y-42268386D01*
X239272038Y-42402962D01*
X239406614Y-42513405D01*
X239560150Y-42595472D01*
X239726746Y-42646008D01*
X239900000Y-42663072D01*
X241100000Y-42663072D01*
X241273254Y-42646008D01*
X241439850Y-42595472D01*
X241593386Y-42513405D01*
X241727962Y-42402962D01*
X241838405Y-42268386D01*
X241892777Y-42166663D01*
X241944866Y-42230134D01*
X242170987Y-42415706D01*
X242428967Y-42553599D01*
X242708890Y-42638513D01*
X243000000Y-42667185D01*
X243291111Y-42638513D01*
X243571034Y-42553599D01*
X243829014Y-42415706D01*
X244055134Y-42230134D01*
X244240706Y-42004014D01*
X244378599Y-41746033D01*
X244463513Y-41466110D01*
X244485000Y-41247949D01*
X244485000Y-40802050D01*
X244463513Y-40583889D01*
X244378599Y-40303966D01*
X244240706Y-40045986D01*
X244135000Y-39917183D01*
X244135000Y-38488072D01*
X244410000Y-38488072D01*
X244534482Y-38475812D01*
X244654180Y-38439502D01*
X244764494Y-38380537D01*
X244861185Y-38301185D01*
X244940537Y-38204494D01*
X244999502Y-38094180D01*
X245035812Y-37974482D01*
X245048072Y-37850000D01*
X245048072Y-33150000D01*
X245035812Y-33025518D01*
X244999502Y-32905820D01*
X244940537Y-32795506D01*
X244861185Y-32698815D01*
X244764494Y-32619463D01*
X244654180Y-32560498D01*
X244534482Y-32524188D01*
X244410000Y-32511928D01*
X244135000Y-32511928D01*
X244135000Y-31607817D01*
X244240706Y-31479014D01*
X244378599Y-31221033D01*
X244463513Y-30941110D01*
X244485000Y-30722949D01*
X244485000Y-30277050D01*
X244463513Y-30058889D01*
X244378599Y-29778966D01*
X244240706Y-29520986D01*
X244055134Y-29294866D01*
X243829013Y-29109294D01*
X243571033Y-28971401D01*
X243291110Y-28886487D01*
X243000000Y-28857815D01*
X242708889Y-28886487D01*
X242428966Y-28971401D01*
X242170986Y-29109294D01*
X241944866Y-29294866D01*
X241892777Y-29358337D01*
X241838405Y-29256614D01*
X241727962Y-29122038D01*
X241593386Y-29011595D01*
X241439850Y-28929528D01*
X241273254Y-28878992D01*
X241100000Y-28861928D01*
X239900000Y-28861928D01*
X239726746Y-28878992D01*
X239560150Y-28929528D01*
X239406614Y-29011595D01*
X239272038Y-29122038D01*
X239161595Y-29256614D01*
X239079528Y-29410150D01*
X239028992Y-29576746D01*
X239011928Y-29750000D01*
X239011928Y-31250000D01*
X239028992Y-31423254D01*
X239079528Y-31589850D01*
X239161595Y-31743386D01*
X239272038Y-31877962D01*
X239406614Y-31988405D01*
X239560150Y-32070472D01*
X239726746Y-32121008D01*
X239900000Y-32138072D01*
X241100000Y-32138072D01*
X241273254Y-32121008D01*
X241439850Y-32070472D01*
X241593386Y-31988405D01*
X241727962Y-31877962D01*
X241838405Y-31743386D01*
X241865000Y-31693630D01*
X241865001Y-32761928D01*
X239785000Y-32761928D01*
X239660518Y-32774188D01*
X239540820Y-32810498D01*
X239430506Y-32869463D01*
X239333815Y-32948815D01*
X239315988Y-32970537D01*
X239270537Y-32885506D01*
X239191185Y-32788815D01*
X239094494Y-32709463D01*
X238984180Y-32650498D01*
X238864482Y-32614188D01*
X238740000Y-32601928D01*
X238450750Y-32605000D01*
X238292000Y-32763750D01*
X238292000Y-33463000D01*
X238312000Y-33463000D01*
X238312000Y-33717000D01*
X238292000Y-33717000D01*
X238292000Y-34733000D01*
X238312000Y-34733000D01*
X238312000Y-34987000D01*
X238292000Y-34987000D01*
X238292000Y-36013000D01*
X238312000Y-36013000D01*
X238312000Y-36267000D01*
X238292000Y-36267000D01*
X238292000Y-36287000D01*
X238038000Y-36287000D01*
X238038000Y-36267000D01*
X237113750Y-36267000D01*
X236955000Y-36425750D01*
X236951928Y-36490000D01*
X236964188Y-36614482D01*
X236974962Y-36650000D01*
X236974801Y-36650000D01*
X236813804Y-36489003D01*
X236790001Y-36459999D01*
X236674276Y-36365026D01*
X236542247Y-36294454D01*
X236398986Y-36250997D01*
X236287333Y-36240000D01*
X236287322Y-36240000D01*
X236250000Y-36236324D01*
X236212678Y-36240000D01*
X235006173Y-36240000D01*
X234995947Y-36206291D01*
X234914458Y-36053836D01*
X234804792Y-35920208D01*
X234697500Y-35832155D01*
X234697500Y-35667845D01*
X234804792Y-35579792D01*
X234914458Y-35446164D01*
X234995947Y-35293709D01*
X235021339Y-35210000D01*
X236951928Y-35210000D01*
X236964188Y-35334482D01*
X237000498Y-35454180D01*
X237024990Y-35500000D01*
X237000498Y-35545820D01*
X236964188Y-35665518D01*
X236951928Y-35790000D01*
X236955000Y-35854250D01*
X237113750Y-36013000D01*
X238038000Y-36013000D01*
X238038000Y-34987000D01*
X237113750Y-34987000D01*
X236955000Y-35145750D01*
X236951928Y-35210000D01*
X235021339Y-35210000D01*
X235046128Y-35128285D01*
X235063072Y-34956250D01*
X235063072Y-34043750D01*
X235052854Y-33940000D01*
X236951928Y-33940000D01*
X236964188Y-34064482D01*
X237000498Y-34184180D01*
X237022317Y-34225000D01*
X237000498Y-34265820D01*
X236964188Y-34385518D01*
X236951928Y-34510000D01*
X236955000Y-34574250D01*
X237113750Y-34733000D01*
X238038000Y-34733000D01*
X238038000Y-33717000D01*
X237113750Y-33717000D01*
X236955000Y-33875750D01*
X236951928Y-33940000D01*
X235052854Y-33940000D01*
X235046128Y-33871715D01*
X234995947Y-33706291D01*
X234914458Y-33553836D01*
X234804792Y-33420208D01*
X234671164Y-33310542D01*
X234539190Y-33240000D01*
X236951928Y-33240000D01*
X236955000Y-33304250D01*
X237113750Y-33463000D01*
X238038000Y-33463000D01*
X238038000Y-32763750D01*
X237879250Y-32605000D01*
X237590000Y-32601928D01*
X237465518Y-32614188D01*
X237345820Y-32650498D01*
X237235506Y-32709463D01*
X237138815Y-32788815D01*
X237059463Y-32885506D01*
X237000498Y-32995820D01*
X236964188Y-33115518D01*
X236951928Y-33240000D01*
X234539190Y-33240000D01*
X234518709Y-33229053D01*
X234353285Y-33178872D01*
X234181250Y-33161928D01*
X233693750Y-33161928D01*
X233521715Y-33178872D01*
X233356291Y-33229053D01*
X233203836Y-33310542D01*
X233070208Y-33420208D01*
X233064992Y-33426564D01*
X233001185Y-33348815D01*
X232904494Y-33269463D01*
X232794180Y-33210498D01*
X232674482Y-33174188D01*
X232550000Y-33161928D01*
X232348250Y-33165000D01*
X232189500Y-33323750D01*
X232189500Y-34373000D01*
X232209500Y-34373000D01*
X232209500Y-34627000D01*
X232189500Y-34627000D01*
X232189500Y-34647000D01*
X231935500Y-34647000D01*
X231935500Y-34627000D01*
X231098750Y-34627000D01*
X230940000Y-34785750D01*
X230936928Y-35200000D01*
X230949188Y-35324482D01*
X230985498Y-35444180D01*
X231044463Y-35554494D01*
X231123815Y-35651185D01*
X231220506Y-35730537D01*
X231330820Y-35789502D01*
X231354666Y-35796736D01*
X231328836Y-35810542D01*
X231195208Y-35920208D01*
X231121517Y-36010000D01*
X226753560Y-36010000D01*
X226785000Y-35851939D01*
X226785000Y-35648061D01*
X226745226Y-35448102D01*
X226667205Y-35259744D01*
X226635000Y-35211546D01*
X226635000Y-33800000D01*
X230936928Y-33800000D01*
X230940000Y-34214250D01*
X231098750Y-34373000D01*
X231935500Y-34373000D01*
X231935500Y-33323750D01*
X231776750Y-33165000D01*
X231575000Y-33161928D01*
X231450518Y-33174188D01*
X231330820Y-33210498D01*
X231220506Y-33269463D01*
X231123815Y-33348815D01*
X231044463Y-33445506D01*
X230985498Y-33555820D01*
X230949188Y-33675518D01*
X230936928Y-33800000D01*
X226635000Y-33800000D01*
X226635000Y-31943469D01*
X226639281Y-31900000D01*
X226635000Y-31856531D01*
X226635000Y-31856523D01*
X226622195Y-31726510D01*
X226620979Y-31722499D01*
X226606284Y-31674059D01*
X226571589Y-31559687D01*
X226489411Y-31405941D01*
X226446365Y-31353490D01*
X226406532Y-31304953D01*
X226406530Y-31304951D01*
X226378817Y-31271183D01*
X226345049Y-31243470D01*
X225006534Y-29904956D01*
X224978817Y-29871183D01*
X224844059Y-29760589D01*
X224690313Y-29678411D01*
X224547208Y-29635000D01*
X229023254Y-29635000D01*
X229011928Y-29750000D01*
X229011928Y-31250000D01*
X229028992Y-31423254D01*
X229079528Y-31589850D01*
X229161595Y-31743386D01*
X229272038Y-31877962D01*
X229406614Y-31988405D01*
X229560150Y-32070472D01*
X229726746Y-32121008D01*
X229900000Y-32138072D01*
X231100000Y-32138072D01*
X231273254Y-32121008D01*
X231439850Y-32070472D01*
X231593386Y-31988405D01*
X231727962Y-31877962D01*
X231838405Y-31743386D01*
X231892914Y-31641407D01*
X231893198Y-31641795D01*
X232107954Y-31838664D01*
X232356991Y-31989854D01*
X232630739Y-32089554D01*
X232643110Y-32091476D01*
X232873000Y-31970155D01*
X232873000Y-30627000D01*
X233127000Y-30627000D01*
X233127000Y-31970155D01*
X233356890Y-32091476D01*
X233369261Y-32089554D01*
X233643009Y-31989854D01*
X233892046Y-31838664D01*
X234106802Y-31641795D01*
X234279025Y-31406812D01*
X234402096Y-31142745D01*
X234471285Y-30859742D01*
X234327232Y-30627000D01*
X233127000Y-30627000D01*
X232873000Y-30627000D01*
X232853000Y-30627000D01*
X232853000Y-30373000D01*
X232873000Y-30373000D01*
X232873000Y-29029845D01*
X233127000Y-29029845D01*
X233127000Y-30373000D01*
X234327232Y-30373000D01*
X234471285Y-30140258D01*
X234402096Y-29857255D01*
X234279025Y-29593188D01*
X234106802Y-29358205D01*
X233892046Y-29161336D01*
X233643009Y-29010146D01*
X233369261Y-28910446D01*
X233356890Y-28908524D01*
X233127000Y-29029845D01*
X232873000Y-29029845D01*
X232643110Y-28908524D01*
X232630739Y-28910446D01*
X232356991Y-29010146D01*
X232107954Y-29161336D01*
X231893198Y-29358205D01*
X231892914Y-29358593D01*
X231838405Y-29256614D01*
X231727962Y-29122038D01*
X231593386Y-29011595D01*
X231498913Y-28961098D01*
X231448284Y-28866377D01*
X231341989Y-28736856D01*
X231341987Y-28736854D01*
X231306449Y-28693551D01*
X231263145Y-28658013D01*
X230341995Y-27736864D01*
X230306449Y-27693551D01*
X230133623Y-27551716D01*
X229936447Y-27446324D01*
X229722499Y-27381423D01*
X229555752Y-27365000D01*
X229555751Y-27365000D01*
X229500000Y-27359509D01*
X229444249Y-27365000D01*
X187873743Y-27365000D01*
X187817999Y-27359510D01*
X187762255Y-27365000D01*
X187762248Y-27365000D01*
X187616493Y-27379356D01*
X187595500Y-27381423D01*
X187545705Y-27396529D01*
X187381553Y-27446324D01*
X187184377Y-27551716D01*
X187011551Y-27693551D01*
X186976008Y-27736860D01*
X186182860Y-28530009D01*
X186139552Y-28565551D01*
X185997717Y-28738377D01*
X185941384Y-28843770D01*
X185892324Y-28935554D01*
X185827423Y-29149502D01*
X185805509Y-29372000D01*
X185811000Y-29427751D01*
X185811000Y-29856650D01*
X185732815Y-29920815D01*
X185696000Y-29965674D01*
X185659185Y-29920815D01*
X185562494Y-29841463D01*
X185452180Y-29782498D01*
X185332482Y-29746188D01*
X185208000Y-29733928D01*
X183684000Y-29733928D01*
X183559518Y-29746188D01*
X183439820Y-29782498D01*
X183329506Y-29841463D01*
X183232815Y-29920815D01*
X183153463Y-30017506D01*
X183094498Y-30127820D01*
X183058188Y-30247518D01*
X183045928Y-30372000D01*
X183045928Y-31896000D01*
X183058188Y-32020482D01*
X183094498Y-32140180D01*
X183153463Y-32250494D01*
X183232815Y-32347185D01*
X183329506Y-32426537D01*
X183439820Y-32485502D01*
X183559518Y-32521812D01*
X183684000Y-32534072D01*
X185208000Y-32534072D01*
X185332482Y-32521812D01*
X185452180Y-32485502D01*
X185562494Y-32426537D01*
X185659185Y-32347185D01*
X185696000Y-32302326D01*
X185732815Y-32347185D01*
X185829506Y-32426537D01*
X185939820Y-32485502D01*
X186059518Y-32521812D01*
X186184000Y-32534072D01*
X187708000Y-32534072D01*
X187832482Y-32521812D01*
X187952180Y-32485502D01*
X188062494Y-32426537D01*
X188159185Y-32347185D01*
X188238537Y-32250494D01*
X188297502Y-32140180D01*
X188333812Y-32020482D01*
X188346072Y-31896000D01*
X188346072Y-31042408D01*
X189921000Y-31042408D01*
X189921000Y-31317592D01*
X189974686Y-31587490D01*
X190079995Y-31841727D01*
X190232880Y-32070535D01*
X190427465Y-32265120D01*
X190656273Y-32418005D01*
X190910510Y-32523314D01*
X191180408Y-32577000D01*
X191455592Y-32577000D01*
X191725490Y-32523314D01*
X191979727Y-32418005D01*
X192208535Y-32265120D01*
X192403120Y-32070535D01*
X192406818Y-32065000D01*
X192729182Y-32065000D01*
X192732880Y-32070535D01*
X192927465Y-32265120D01*
X193156273Y-32418005D01*
X193410510Y-32523314D01*
X193680408Y-32577000D01*
X193955592Y-32577000D01*
X194225490Y-32523314D01*
X194479727Y-32418005D01*
X194708535Y-32265120D01*
X194903120Y-32070535D01*
X195056005Y-31841727D01*
X195161314Y-31587490D01*
X195215000Y-31317592D01*
X195215000Y-31042408D01*
X195161314Y-30772510D01*
X195056005Y-30518273D01*
X194903120Y-30289465D01*
X194708535Y-30094880D01*
X194479727Y-29941995D01*
X194225490Y-29836686D01*
X193955592Y-29783000D01*
X193680408Y-29783000D01*
X193410510Y-29836686D01*
X193156273Y-29941995D01*
X192927465Y-30094880D01*
X192732880Y-30289465D01*
X192729182Y-30295000D01*
X192406818Y-30295000D01*
X192403120Y-30289465D01*
X192208535Y-30094880D01*
X191979727Y-29941995D01*
X191725490Y-29836686D01*
X191455592Y-29783000D01*
X191180408Y-29783000D01*
X190910510Y-29836686D01*
X190656273Y-29941995D01*
X190427465Y-30094880D01*
X190232880Y-30289465D01*
X190079995Y-30518273D01*
X189974686Y-30772510D01*
X189921000Y-31042408D01*
X188346072Y-31042408D01*
X188346072Y-30372000D01*
X188333812Y-30247518D01*
X188297502Y-30127820D01*
X188238537Y-30017506D01*
X188159185Y-29920815D01*
X188081000Y-29856650D01*
X188081000Y-29842131D01*
X188288132Y-29635000D01*
X206152895Y-29635000D01*
X206081551Y-29693551D01*
X206046004Y-29736865D01*
X205737869Y-30045000D01*
X205723350Y-30045000D01*
X205659185Y-29966815D01*
X205562494Y-29887463D01*
X205452180Y-29828498D01*
X205332482Y-29792188D01*
X205208000Y-29779928D01*
X203684000Y-29779928D01*
X203559518Y-29792188D01*
X203439820Y-29828498D01*
X203329506Y-29887463D01*
X203232815Y-29966815D01*
X203196000Y-30011674D01*
X203159185Y-29966815D01*
X203062494Y-29887463D01*
X202952180Y-29828498D01*
X202832482Y-29792188D01*
X202708000Y-29779928D01*
X201184000Y-29779928D01*
X201059518Y-29792188D01*
X200939820Y-29828498D01*
X200829506Y-29887463D01*
X200732815Y-29966815D01*
X200653463Y-30063506D01*
X200594498Y-30173820D01*
X200558188Y-30293518D01*
X200545928Y-30418000D01*
X200545928Y-31942000D01*
X200558188Y-32066482D01*
X200594498Y-32186180D01*
X200653463Y-32296494D01*
X200732815Y-32393185D01*
X200829506Y-32472537D01*
X200939820Y-32531502D01*
X201059518Y-32567812D01*
X201184000Y-32580072D01*
X202708000Y-32580072D01*
X202832482Y-32567812D01*
X202952180Y-32531502D01*
X203062494Y-32472537D01*
X203159185Y-32393185D01*
X203196000Y-32348326D01*
X203232815Y-32393185D01*
X203329506Y-32472537D01*
X203439820Y-32531502D01*
X203559518Y-32567812D01*
X203684000Y-32580072D01*
X205208000Y-32580072D01*
X205332482Y-32567812D01*
X205452180Y-32531502D01*
X205562494Y-32472537D01*
X205659185Y-32393185D01*
X205723350Y-32315000D01*
X205737869Y-32315000D01*
X207686009Y-34263141D01*
X207721551Y-34306449D01*
X207865000Y-34424175D01*
X207865001Y-36944239D01*
X207865000Y-36944249D01*
X207865001Y-40319239D01*
X207859509Y-40375000D01*
X207881423Y-40597498D01*
X207946324Y-40811446D01*
X207995157Y-40902805D01*
X208051717Y-41008623D01*
X208193552Y-41181449D01*
X208236860Y-41216991D01*
X208808004Y-41788135D01*
X208843551Y-41831449D01*
X209016377Y-41973284D01*
X209040495Y-41986175D01*
X209079528Y-42114850D01*
X209161595Y-42268386D01*
X209272038Y-42402962D01*
X209365000Y-42479254D01*
X209365001Y-49795746D01*
X209272038Y-49872038D01*
X209161595Y-50006614D01*
X209079528Y-50160150D01*
X209028992Y-50326746D01*
X209011928Y-50500000D01*
X209011928Y-50849088D01*
X208904093Y-50760589D01*
X208750347Y-50678411D01*
X208583524Y-50627805D01*
X208453511Y-50615000D01*
X208453503Y-50615000D01*
X208410034Y-50610719D01*
X208366565Y-50615000D01*
X205831835Y-50615000D01*
X205833812Y-50608482D01*
X205846072Y-50484000D01*
X205846072Y-48960000D01*
X205833812Y-48835518D01*
X205797502Y-48715820D01*
X205738537Y-48605506D01*
X205659185Y-48508815D01*
X205562494Y-48429463D01*
X205452180Y-48370498D01*
X205332482Y-48334188D01*
X205208000Y-48321928D01*
X203684000Y-48321928D01*
X203559518Y-48334188D01*
X203439820Y-48370498D01*
X203329506Y-48429463D01*
X203232815Y-48508815D01*
X203196000Y-48553674D01*
X203159185Y-48508815D01*
X203062494Y-48429463D01*
X202952180Y-48370498D01*
X202832482Y-48334188D01*
X202708000Y-48321928D01*
X201184000Y-48321928D01*
X201059518Y-48334188D01*
X200939820Y-48370498D01*
X200829506Y-48429463D01*
X200732815Y-48508815D01*
X200653463Y-48605506D01*
X200594498Y-48715820D01*
X200558188Y-48835518D01*
X200545928Y-48960000D01*
X200545928Y-50484000D01*
X200558188Y-50608482D01*
X200560165Y-50615000D01*
X194890608Y-50615000D01*
X194783567Y-50507959D01*
X195023656Y-50440980D01*
X195140756Y-50191952D01*
X195207023Y-49924865D01*
X195219910Y-49649983D01*
X195178922Y-49377867D01*
X195085636Y-49118977D01*
X195023656Y-49003020D01*
X194783565Y-48936040D01*
X193997605Y-49722000D01*
X194011748Y-49736143D01*
X193832143Y-49915748D01*
X193818000Y-49901605D01*
X193803858Y-49915748D01*
X193624253Y-49736143D01*
X193638395Y-49722000D01*
X192852435Y-48936040D01*
X192612344Y-49003020D01*
X192570837Y-49091290D01*
X192523656Y-49003020D01*
X192283565Y-48936040D01*
X191497605Y-49722000D01*
X191511748Y-49736143D01*
X191332143Y-49915748D01*
X191318000Y-49901605D01*
X191303858Y-49915748D01*
X191124253Y-49736143D01*
X191138395Y-49722000D01*
X191124253Y-49707858D01*
X191303858Y-49528253D01*
X191318000Y-49542395D01*
X192103960Y-48756435D01*
X193032040Y-48756435D01*
X193818000Y-49542395D01*
X194603960Y-48756435D01*
X194536980Y-48516344D01*
X194287952Y-48399244D01*
X194020865Y-48332977D01*
X193745983Y-48320090D01*
X193473867Y-48361078D01*
X193214977Y-48454364D01*
X193099020Y-48516344D01*
X193032040Y-48756435D01*
X192103960Y-48756435D01*
X192036980Y-48516344D01*
X191787952Y-48399244D01*
X191520865Y-48332977D01*
X191245983Y-48320090D01*
X190973867Y-48361078D01*
X190714977Y-48454364D01*
X190635000Y-48497112D01*
X190635000Y-47468469D01*
X190639281Y-47425000D01*
X190635000Y-47381531D01*
X190635000Y-47381523D01*
X190622195Y-47251510D01*
X190571589Y-47084687D01*
X190489411Y-46930941D01*
X190378817Y-46796183D01*
X190345051Y-46768472D01*
X184006532Y-40429954D01*
X183978817Y-40396183D01*
X183844059Y-40285589D01*
X183690313Y-40203411D01*
X183523490Y-40152805D01*
X183393477Y-40140000D01*
X183393469Y-40140000D01*
X183350000Y-40135719D01*
X183306531Y-40140000D01*
X183290957Y-40140000D01*
X183240706Y-40045986D01*
X183055134Y-39819866D01*
X182829013Y-39634294D01*
X182571033Y-39496401D01*
X182291110Y-39411487D01*
X182000000Y-39382815D01*
X181708889Y-39411487D01*
X181428966Y-39496401D01*
X181170986Y-39634294D01*
X180944866Y-39819866D01*
X180892777Y-39883337D01*
X180838405Y-39781614D01*
X180727962Y-39647038D01*
X180593386Y-39536595D01*
X180439850Y-39454528D01*
X180273254Y-39403992D01*
X180100000Y-39386928D01*
X178900000Y-39386928D01*
X178726746Y-39403992D01*
X178560150Y-39454528D01*
X178406614Y-39536595D01*
X178272038Y-39647038D01*
X178161595Y-39781614D01*
X178079528Y-39935150D01*
X178028992Y-40101746D01*
X178011928Y-40275000D01*
X178011928Y-41775000D01*
X178028992Y-41948254D01*
X178079528Y-42114850D01*
X178161595Y-42268386D01*
X178272038Y-42402962D01*
X178406614Y-42513405D01*
X178560150Y-42595472D01*
X178726746Y-42646008D01*
X178900000Y-42663072D01*
X180100000Y-42663072D01*
X180273254Y-42646008D01*
X180439850Y-42595472D01*
X180593386Y-42513405D01*
X180727962Y-42402962D01*
X180838405Y-42268386D01*
X180892777Y-42166663D01*
X180944866Y-42230134D01*
X181170987Y-42415706D01*
X181428967Y-42553599D01*
X181708890Y-42638513D01*
X182000000Y-42667185D01*
X182291111Y-42638513D01*
X182571034Y-42553599D01*
X182829014Y-42415706D01*
X183055134Y-42230134D01*
X183167111Y-42093689D01*
X188865000Y-47791579D01*
X188865001Y-49904283D01*
X188860719Y-49947762D01*
X188877805Y-50121252D01*
X188928412Y-50288075D01*
X189010590Y-50441821D01*
X189093468Y-50542808D01*
X189093471Y-50542811D01*
X189121184Y-50576579D01*
X189154951Y-50604291D01*
X190645708Y-52095049D01*
X190673421Y-52128817D01*
X190707189Y-52156530D01*
X190707191Y-52156532D01*
X190727567Y-52173254D01*
X190808179Y-52239411D01*
X190961925Y-52321589D01*
X191128748Y-52372195D01*
X191258761Y-52385000D01*
X191258771Y-52385000D01*
X191302237Y-52389281D01*
X191345704Y-52385000D01*
X208043456Y-52385000D01*
X208223466Y-52565010D01*
X184316589Y-52565010D01*
X180665579Y-48914000D01*
X183045928Y-48914000D01*
X183045928Y-50438000D01*
X183058188Y-50562482D01*
X183094498Y-50682180D01*
X183153463Y-50792494D01*
X183232815Y-50889185D01*
X183329506Y-50968537D01*
X183439820Y-51027502D01*
X183559518Y-51063812D01*
X183684000Y-51076072D01*
X185208000Y-51076072D01*
X185332482Y-51063812D01*
X185452180Y-51027502D01*
X185562494Y-50968537D01*
X185659185Y-50889185D01*
X185696000Y-50844326D01*
X185732815Y-50889185D01*
X185829506Y-50968537D01*
X185939820Y-51027502D01*
X186059518Y-51063812D01*
X186184000Y-51076072D01*
X187708000Y-51076072D01*
X187832482Y-51063812D01*
X187952180Y-51027502D01*
X188062494Y-50968537D01*
X188159185Y-50889185D01*
X188238537Y-50792494D01*
X188297502Y-50682180D01*
X188333812Y-50562482D01*
X188346072Y-50438000D01*
X188346072Y-48914000D01*
X188333812Y-48789518D01*
X188297502Y-48669820D01*
X188238537Y-48559506D01*
X188159185Y-48462815D01*
X188062494Y-48383463D01*
X187952180Y-48324498D01*
X187832482Y-48288188D01*
X187708000Y-48275928D01*
X186184000Y-48275928D01*
X186059518Y-48288188D01*
X185939820Y-48324498D01*
X185829506Y-48383463D01*
X185732815Y-48462815D01*
X185696000Y-48507674D01*
X185659185Y-48462815D01*
X185562494Y-48383463D01*
X185452180Y-48324498D01*
X185332482Y-48288188D01*
X185208000Y-48275928D01*
X183684000Y-48275928D01*
X183559518Y-48288188D01*
X183439820Y-48324498D01*
X183329506Y-48383463D01*
X183232815Y-48462815D01*
X183153463Y-48559506D01*
X183094498Y-48669820D01*
X183058188Y-48789518D01*
X183045928Y-48914000D01*
X180665579Y-48914000D01*
X176885000Y-45133422D01*
X176885000Y-39366578D01*
X177116579Y-39135000D01*
X188758422Y-39135000D01*
X189010350Y-39386928D01*
X188650000Y-39386928D01*
X188476746Y-39403992D01*
X188310150Y-39454528D01*
X188156614Y-39536595D01*
X188022038Y-39647038D01*
X187911595Y-39781614D01*
X187829528Y-39935150D01*
X187778992Y-40101746D01*
X187761928Y-40275000D01*
X187761928Y-41775000D01*
X187778992Y-41948254D01*
X187829528Y-42114850D01*
X187911595Y-42268386D01*
X188022038Y-42402962D01*
X188156614Y-42513405D01*
X188310150Y-42595472D01*
X188476746Y-42646008D01*
X188650000Y-42663072D01*
X189850000Y-42663072D01*
X190023254Y-42646008D01*
X190189850Y-42595472D01*
X190343386Y-42513405D01*
X190477962Y-42402962D01*
X190588405Y-42268386D01*
X190642777Y-42166663D01*
X190694866Y-42230134D01*
X190920987Y-42415706D01*
X191178967Y-42553599D01*
X191458890Y-42638513D01*
X191750000Y-42667185D01*
X192041111Y-42638513D01*
X192321034Y-42553599D01*
X192579014Y-42415706D01*
X192805134Y-42230134D01*
X192990706Y-42004014D01*
X193128599Y-41746033D01*
X193213513Y-41466110D01*
X193235000Y-41247949D01*
X193235000Y-40802050D01*
X193213513Y-40583889D01*
X193128599Y-40303966D01*
X193113117Y-40275000D01*
X197511928Y-40275000D01*
X197511928Y-41775000D01*
X197528992Y-41948254D01*
X197579528Y-42114850D01*
X197661595Y-42268386D01*
X197772038Y-42402962D01*
X197906614Y-42513405D01*
X198060150Y-42595472D01*
X198226746Y-42646008D01*
X198400000Y-42663072D01*
X199600000Y-42663072D01*
X199773254Y-42646008D01*
X199939850Y-42595472D01*
X200093386Y-42513405D01*
X200227962Y-42402962D01*
X200338405Y-42268386D01*
X200392777Y-42166663D01*
X200444866Y-42230134D01*
X200670987Y-42415706D01*
X200928967Y-42553599D01*
X201208890Y-42638513D01*
X201500000Y-42667185D01*
X201791111Y-42638513D01*
X202071034Y-42553599D01*
X202329014Y-42415706D01*
X202555134Y-42230134D01*
X202740706Y-42004014D01*
X202790957Y-41910000D01*
X203431531Y-41910000D01*
X203475000Y-41914281D01*
X203518469Y-41910000D01*
X203518477Y-41910000D01*
X203648490Y-41897195D01*
X203815313Y-41846589D01*
X203969059Y-41764411D01*
X204103817Y-41653817D01*
X204131534Y-41620044D01*
X206745044Y-39006535D01*
X206801898Y-38995226D01*
X206990256Y-38917205D01*
X207159774Y-38803937D01*
X207303937Y-38659774D01*
X207417205Y-38490256D01*
X207495226Y-38301898D01*
X207535000Y-38101939D01*
X207535000Y-37898061D01*
X207495226Y-37698102D01*
X207417205Y-37509744D01*
X207303937Y-37340226D01*
X207159774Y-37196063D01*
X206990256Y-37082795D01*
X206801898Y-37004774D01*
X206601939Y-36965000D01*
X206398061Y-36965000D01*
X206198102Y-37004774D01*
X206009744Y-37082795D01*
X205840226Y-37196063D01*
X205696063Y-37340226D01*
X205582795Y-37509744D01*
X205504774Y-37698102D01*
X205493465Y-37754956D01*
X203108422Y-40140000D01*
X202790957Y-40140000D01*
X202740706Y-40045986D01*
X202555134Y-39819866D01*
X202329013Y-39634294D01*
X202071033Y-39496401D01*
X201791110Y-39411487D01*
X201500000Y-39382815D01*
X201208889Y-39411487D01*
X200928966Y-39496401D01*
X200670986Y-39634294D01*
X200444866Y-39819866D01*
X200392777Y-39883337D01*
X200338405Y-39781614D01*
X200227962Y-39647038D01*
X200093386Y-39536595D01*
X199939850Y-39454528D01*
X199773254Y-39403992D01*
X199600000Y-39386928D01*
X198400000Y-39386928D01*
X198226746Y-39403992D01*
X198060150Y-39454528D01*
X197906614Y-39536595D01*
X197772038Y-39647038D01*
X197661595Y-39781614D01*
X197579528Y-39935150D01*
X197528992Y-40101746D01*
X197511928Y-40275000D01*
X193113117Y-40275000D01*
X192990706Y-40045986D01*
X192805134Y-39819866D01*
X192579013Y-39634294D01*
X192321033Y-39496401D01*
X192041110Y-39411487D01*
X191750000Y-39382815D01*
X191530967Y-39404388D01*
X189781534Y-37654956D01*
X189753817Y-37621183D01*
X189619059Y-37510589D01*
X189465313Y-37428411D01*
X189298490Y-37377805D01*
X189168477Y-37365000D01*
X189168469Y-37365000D01*
X189125000Y-37360719D01*
X189081531Y-37365000D01*
X176793465Y-37365000D01*
X176749999Y-37360719D01*
X176706533Y-37365000D01*
X176706523Y-37365000D01*
X176576510Y-37377805D01*
X176409687Y-37428411D01*
X176255941Y-37510589D01*
X176255939Y-37510590D01*
X176255940Y-37510590D01*
X176154953Y-37593468D01*
X176154951Y-37593470D01*
X176121183Y-37621183D01*
X176093470Y-37654951D01*
X175404956Y-38343466D01*
X175371183Y-38371183D01*
X175260589Y-38505942D01*
X175178411Y-38659688D01*
X175127805Y-38826511D01*
X175115000Y-38956524D01*
X175115000Y-38956531D01*
X175110719Y-39000000D01*
X155877000Y-39000000D01*
X155877000Y-36200000D01*
X156926858Y-36200000D01*
X156957754Y-36513694D01*
X157049255Y-36815333D01*
X157197845Y-37093325D01*
X157397813Y-37336987D01*
X157641475Y-37536955D01*
X157919467Y-37685545D01*
X158221106Y-37777046D01*
X158456194Y-37800200D01*
X160543806Y-37800200D01*
X160778894Y-37777046D01*
X161080533Y-37685545D01*
X161358525Y-37536955D01*
X161602187Y-37336987D01*
X161802155Y-37093325D01*
X161950745Y-36815333D01*
X162042246Y-36513694D01*
X162073142Y-36200000D01*
X165126858Y-36200000D01*
X165157754Y-36513694D01*
X165249255Y-36815333D01*
X165397845Y-37093325D01*
X165597813Y-37336987D01*
X165841475Y-37536955D01*
X166119467Y-37685545D01*
X166421106Y-37777046D01*
X166656194Y-37800200D01*
X168743806Y-37800200D01*
X168978894Y-37777046D01*
X169280533Y-37685545D01*
X169558525Y-37536955D01*
X169802187Y-37336987D01*
X170002155Y-37093325D01*
X170150745Y-36815333D01*
X170242246Y-36513694D01*
X170273142Y-36200000D01*
X170242246Y-35886306D01*
X170150745Y-35584667D01*
X170002155Y-35306675D01*
X169802187Y-35063013D01*
X169558525Y-34863045D01*
X169280533Y-34714455D01*
X168978894Y-34622954D01*
X168743806Y-34599800D01*
X166656194Y-34599800D01*
X166421106Y-34622954D01*
X166119467Y-34714455D01*
X165841475Y-34863045D01*
X165597813Y-35063013D01*
X165397845Y-35306675D01*
X165249255Y-35584667D01*
X165157754Y-35886306D01*
X165126858Y-36200000D01*
X162073142Y-36200000D01*
X162042246Y-35886306D01*
X161950745Y-35584667D01*
X161802155Y-35306675D01*
X161602187Y-35063013D01*
X161358525Y-34863045D01*
X161080533Y-34714455D01*
X160778894Y-34622954D01*
X160543806Y-34599800D01*
X158456194Y-34599800D01*
X158221106Y-34622954D01*
X157919467Y-34714455D01*
X157641475Y-34863045D01*
X157397813Y-35063013D01*
X157197845Y-35306675D01*
X157049255Y-35584667D01*
X156957754Y-35886306D01*
X156926858Y-36200000D01*
X155877000Y-36200000D01*
X155877000Y-31574973D01*
X156979154Y-31574973D01*
X157007808Y-31695038D01*
X157133726Y-31983427D01*
X157313486Y-32241710D01*
X157540181Y-32459960D01*
X157805098Y-32629791D01*
X158098057Y-32744676D01*
X158407800Y-32800200D01*
X159373000Y-32800200D01*
X159373000Y-31327000D01*
X159627000Y-31327000D01*
X159627000Y-32800200D01*
X160592200Y-32800200D01*
X160901943Y-32744676D01*
X161194902Y-32629791D01*
X161459819Y-32459960D01*
X161686514Y-32241710D01*
X161866274Y-31983427D01*
X161992192Y-31695038D01*
X162020846Y-31574973D01*
X165179154Y-31574973D01*
X165207808Y-31695038D01*
X165333726Y-31983427D01*
X165513486Y-32241710D01*
X165740181Y-32459960D01*
X166005098Y-32629791D01*
X166298057Y-32744676D01*
X166607800Y-32800200D01*
X167573000Y-32800200D01*
X167573000Y-31327000D01*
X167827000Y-31327000D01*
X167827000Y-32800200D01*
X168792200Y-32800200D01*
X169101943Y-32744676D01*
X169394902Y-32629791D01*
X169659819Y-32459960D01*
X169886514Y-32241710D01*
X170066274Y-31983427D01*
X170192192Y-31695038D01*
X170220846Y-31574973D01*
X170101044Y-31327000D01*
X167827000Y-31327000D01*
X167573000Y-31327000D01*
X165298956Y-31327000D01*
X165179154Y-31574973D01*
X162020846Y-31574973D01*
X161901044Y-31327000D01*
X159627000Y-31327000D01*
X159373000Y-31327000D01*
X157098956Y-31327000D01*
X156979154Y-31574973D01*
X155877000Y-31574973D01*
X155877000Y-30825027D01*
X156979154Y-30825027D01*
X157098956Y-31073000D01*
X159373000Y-31073000D01*
X159373000Y-29599800D01*
X159627000Y-29599800D01*
X159627000Y-31073000D01*
X161901044Y-31073000D01*
X162020846Y-30825027D01*
X165179154Y-30825027D01*
X165298956Y-31073000D01*
X167573000Y-31073000D01*
X167573000Y-29599800D01*
X167827000Y-29599800D01*
X167827000Y-31073000D01*
X170101044Y-31073000D01*
X170138047Y-30996408D01*
X172421000Y-30996408D01*
X172421000Y-31271592D01*
X172474686Y-31541490D01*
X172579995Y-31795727D01*
X172732880Y-32024535D01*
X172927465Y-32219120D01*
X173156273Y-32372005D01*
X173410510Y-32477314D01*
X173680408Y-32531000D01*
X173955592Y-32531000D01*
X174225490Y-32477314D01*
X174479727Y-32372005D01*
X174708535Y-32219120D01*
X174903120Y-32024535D01*
X174906818Y-32019000D01*
X175229182Y-32019000D01*
X175232880Y-32024535D01*
X175427465Y-32219120D01*
X175656273Y-32372005D01*
X175910510Y-32477314D01*
X176180408Y-32531000D01*
X176455592Y-32531000D01*
X176725490Y-32477314D01*
X176979727Y-32372005D01*
X177208535Y-32219120D01*
X177403120Y-32024535D01*
X177556005Y-31795727D01*
X177661314Y-31541490D01*
X177715000Y-31271592D01*
X177715000Y-30996408D01*
X177661314Y-30726510D01*
X177556005Y-30472273D01*
X177403120Y-30243465D01*
X177208535Y-30048880D01*
X176979727Y-29895995D01*
X176725490Y-29790686D01*
X176455592Y-29737000D01*
X176180408Y-29737000D01*
X175910510Y-29790686D01*
X175656273Y-29895995D01*
X175427465Y-30048880D01*
X175232880Y-30243465D01*
X175229182Y-30249000D01*
X174906818Y-30249000D01*
X174903120Y-30243465D01*
X174708535Y-30048880D01*
X174479727Y-29895995D01*
X174225490Y-29790686D01*
X173955592Y-29737000D01*
X173680408Y-29737000D01*
X173410510Y-29790686D01*
X173156273Y-29895995D01*
X172927465Y-30048880D01*
X172732880Y-30243465D01*
X172579995Y-30472273D01*
X172474686Y-30726510D01*
X172421000Y-30996408D01*
X170138047Y-30996408D01*
X170220846Y-30825027D01*
X170192192Y-30704962D01*
X170066274Y-30416573D01*
X169886514Y-30158290D01*
X169659819Y-29940040D01*
X169394902Y-29770209D01*
X169101943Y-29655324D01*
X168792200Y-29599800D01*
X167827000Y-29599800D01*
X167573000Y-29599800D01*
X166607800Y-29599800D01*
X166298057Y-29655324D01*
X166005098Y-29770209D01*
X165740181Y-29940040D01*
X165513486Y-30158290D01*
X165333726Y-30416573D01*
X165207808Y-30704962D01*
X165179154Y-30825027D01*
X162020846Y-30825027D01*
X161992192Y-30704962D01*
X161866274Y-30416573D01*
X161686514Y-30158290D01*
X161459819Y-29940040D01*
X161194902Y-29770209D01*
X160901943Y-29655324D01*
X160592200Y-29599800D01*
X159627000Y-29599800D01*
X159373000Y-29599800D01*
X158407800Y-29599800D01*
X158098057Y-29655324D01*
X157805098Y-29770209D01*
X157540181Y-29940040D01*
X157313486Y-30158290D01*
X157133726Y-30416573D01*
X157007808Y-30704962D01*
X156979154Y-30825027D01*
X155877000Y-30825027D01*
X155877000Y-25660000D01*
X247373000Y-25660000D01*
X247373000Y-55340000D01*
G37*
X247373000Y-55340000D02*
X155877000Y-55340000D01*
X155877000Y-50641565D01*
X173032040Y-50641565D01*
X173099020Y-50881656D01*
X173348048Y-50998756D01*
X173615135Y-51065023D01*
X173890017Y-51077910D01*
X174162133Y-51036922D01*
X174421023Y-50943636D01*
X174536980Y-50881656D01*
X174603960Y-50641565D01*
X175532040Y-50641565D01*
X175599020Y-50881656D01*
X175848048Y-50998756D01*
X176115135Y-51065023D01*
X176390017Y-51077910D01*
X176662133Y-51036922D01*
X176921023Y-50943636D01*
X177036980Y-50881656D01*
X177103960Y-50641565D01*
X176318000Y-49855605D01*
X175532040Y-50641565D01*
X174603960Y-50641565D01*
X173818000Y-49855605D01*
X173032040Y-50641565D01*
X155877000Y-50641565D01*
X155877000Y-48700000D01*
X156926858Y-48700000D01*
X156957754Y-49013694D01*
X157049255Y-49315333D01*
X157197845Y-49593325D01*
X157397813Y-49836987D01*
X157641475Y-50036955D01*
X157919467Y-50185545D01*
X158221106Y-50277046D01*
X158456194Y-50300200D01*
X160543806Y-50300200D01*
X160778894Y-50277046D01*
X161080533Y-50185545D01*
X161358525Y-50036955D01*
X161602187Y-49836987D01*
X161802155Y-49593325D01*
X161950745Y-49315333D01*
X162042246Y-49013694D01*
X162073142Y-48700000D01*
X165126858Y-48700000D01*
X165157754Y-49013694D01*
X165249255Y-49315333D01*
X165397845Y-49593325D01*
X165597813Y-49836987D01*
X165841475Y-50036955D01*
X166119467Y-50185545D01*
X166421106Y-50277046D01*
X166656194Y-50300200D01*
X168743806Y-50300200D01*
X168978894Y-50277046D01*
X169280533Y-50185545D01*
X169558525Y-50036955D01*
X169802187Y-49836987D01*
X169875202Y-49748017D01*
X172416090Y-49748017D01*
X172457078Y-50020133D01*
X172550364Y-50279023D01*
X172612344Y-50394980D01*
X172852435Y-50461960D01*
X173638395Y-49676000D01*
X173997605Y-49676000D01*
X174783565Y-50461960D01*
X175023656Y-50394980D01*
X175065163Y-50306710D01*
X175112344Y-50394980D01*
X175352435Y-50461960D01*
X176138395Y-49676000D01*
X176497605Y-49676000D01*
X177283565Y-50461960D01*
X177523656Y-50394980D01*
X177640756Y-50145952D01*
X177707023Y-49878865D01*
X177719910Y-49603983D01*
X177678922Y-49331867D01*
X177585636Y-49072977D01*
X177523656Y-48957020D01*
X177283565Y-48890040D01*
X176497605Y-49676000D01*
X176138395Y-49676000D01*
X175352435Y-48890040D01*
X175112344Y-48957020D01*
X175070837Y-49045290D01*
X175023656Y-48957020D01*
X174783565Y-48890040D01*
X173997605Y-49676000D01*
X173638395Y-49676000D01*
X172852435Y-48890040D01*
X172612344Y-48957020D01*
X172495244Y-49206048D01*
X172428977Y-49473135D01*
X172416090Y-49748017D01*
X169875202Y-49748017D01*
X170002155Y-49593325D01*
X170150745Y-49315333D01*
X170242246Y-49013694D01*
X170272114Y-48710435D01*
X173032040Y-48710435D01*
X173818000Y-49496395D01*
X174603960Y-48710435D01*
X175532040Y-48710435D01*
X176318000Y-49496395D01*
X177103960Y-48710435D01*
X177036980Y-48470344D01*
X176787952Y-48353244D01*
X176520865Y-48286977D01*
X176245983Y-48274090D01*
X175973867Y-48315078D01*
X175714977Y-48408364D01*
X175599020Y-48470344D01*
X175532040Y-48710435D01*
X174603960Y-48710435D01*
X174536980Y-48470344D01*
X174287952Y-48353244D01*
X174020865Y-48286977D01*
X173745983Y-48274090D01*
X173473867Y-48315078D01*
X173214977Y-48408364D01*
X173099020Y-48470344D01*
X173032040Y-48710435D01*
X170272114Y-48710435D01*
X170273142Y-48700000D01*
X170242246Y-48386306D01*
X170150745Y-48084667D01*
X170002155Y-47806675D01*
X169802187Y-47563013D01*
X169558525Y-47363045D01*
X169280533Y-47214455D01*
X168978894Y-47122954D01*
X168743806Y-47099800D01*
X166656194Y-47099800D01*
X166421106Y-47122954D01*
X166119467Y-47214455D01*
X165841475Y-47363045D01*
X165597813Y-47563013D01*
X165397845Y-47806675D01*
X165249255Y-48084667D01*
X165157754Y-48386306D01*
X165126858Y-48700000D01*
X162073142Y-48700000D01*
X162042246Y-48386306D01*
X161950745Y-48084667D01*
X161802155Y-47806675D01*
X161602187Y-47563013D01*
X161358525Y-47363045D01*
X161080533Y-47214455D01*
X160778894Y-47122954D01*
X160543806Y-47099800D01*
X158456194Y-47099800D01*
X158221106Y-47122954D01*
X157919467Y-47214455D01*
X157641475Y-47363045D01*
X157397813Y-47563013D01*
X157197845Y-47806675D01*
X157049255Y-48084667D01*
X156957754Y-48386306D01*
X156926858Y-48700000D01*
X155877000Y-48700000D01*
X155877000Y-44074973D01*
X156979154Y-44074973D01*
X157007808Y-44195038D01*
X157133726Y-44483427D01*
X157313486Y-44741710D01*
X157540181Y-44959960D01*
X157805098Y-45129791D01*
X158098057Y-45244676D01*
X158407800Y-45300200D01*
X159373000Y-45300200D01*
X159373000Y-43827000D01*
X159627000Y-43827000D01*
X159627000Y-45300200D01*
X160592200Y-45300200D01*
X160901943Y-45244676D01*
X161194902Y-45129791D01*
X161459819Y-44959960D01*
X161686514Y-44741710D01*
X161866274Y-44483427D01*
X161992192Y-44195038D01*
X162020846Y-44074973D01*
X165179154Y-44074973D01*
X165207808Y-44195038D01*
X165333726Y-44483427D01*
X165513486Y-44741710D01*
X165740181Y-44959960D01*
X166005098Y-45129791D01*
X166298057Y-45244676D01*
X166607800Y-45300200D01*
X167573000Y-45300200D01*
X167573000Y-43827000D01*
X167827000Y-43827000D01*
X167827000Y-45300200D01*
X168792200Y-45300200D01*
X169101943Y-45244676D01*
X169394902Y-45129791D01*
X169659819Y-44959960D01*
X169886514Y-44741710D01*
X170066274Y-44483427D01*
X170192192Y-44195038D01*
X170220846Y-44074973D01*
X170101044Y-43827000D01*
X167827000Y-43827000D01*
X167573000Y-43827000D01*
X165298956Y-43827000D01*
X165179154Y-44074973D01*
X162020846Y-44074973D01*
X161901044Y-43827000D01*
X159627000Y-43827000D01*
X159373000Y-43827000D01*
X157098956Y-43827000D01*
X156979154Y-44074973D01*
X155877000Y-44074973D01*
X155877000Y-43325027D01*
X156979154Y-43325027D01*
X157098956Y-43573000D01*
X159373000Y-43573000D01*
X159373000Y-42099800D01*
X159627000Y-42099800D01*
X159627000Y-43573000D01*
X161901044Y-43573000D01*
X162020846Y-43325027D01*
X165179154Y-43325027D01*
X165298956Y-43573000D01*
X167573000Y-43573000D01*
X167573000Y-42099800D01*
X167827000Y-42099800D01*
X167827000Y-43573000D01*
X170101044Y-43573000D01*
X170220846Y-43325027D01*
X170192192Y-43204962D01*
X170066274Y-42916573D01*
X169886514Y-42658290D01*
X169659819Y-42440040D01*
X169394902Y-42270209D01*
X169101943Y-42155324D01*
X168792200Y-42099800D01*
X167827000Y-42099800D01*
X167573000Y-42099800D01*
X166607800Y-42099800D01*
X166298057Y-42155324D01*
X166005098Y-42270209D01*
X165740181Y-42440040D01*
X165513486Y-42658290D01*
X165333726Y-42916573D01*
X165207808Y-43204962D01*
X165179154Y-43325027D01*
X162020846Y-43325027D01*
X161992192Y-43204962D01*
X161866274Y-42916573D01*
X161686514Y-42658290D01*
X161459819Y-42440040D01*
X161194902Y-42270209D01*
X160901943Y-42155324D01*
X160592200Y-42099800D01*
X159627000Y-42099800D01*
X159373000Y-42099800D01*
X158407800Y-42099800D01*
X158098057Y-42155324D01*
X157805098Y-42270209D01*
X157540181Y-42440040D01*
X157313486Y-42658290D01*
X157133726Y-42916573D01*
X157007808Y-43204962D01*
X156979154Y-43325027D01*
X155877000Y-43325027D01*
X155877000Y-39000000D01*
X175110719Y-39000000D01*
X175115000Y-39043469D01*
X175115001Y-45456521D01*
X175110719Y-45500000D01*
X175127805Y-45673490D01*
X175178412Y-45840313D01*
X175260590Y-45994059D01*
X175343468Y-46095046D01*
X175343471Y-46095049D01*
X175371184Y-46128817D01*
X175404952Y-46156530D01*
X183293480Y-54045059D01*
X183321193Y-54078827D01*
X183354961Y-54106540D01*
X183354963Y-54106542D01*
X183426462Y-54165220D01*
X183455951Y-54189421D01*
X183609697Y-54271599D01*
X183725913Y-54306853D01*
X183776519Y-54322205D01*
X183791316Y-54323662D01*
X183906533Y-54335010D01*
X183906541Y-54335010D01*
X183950010Y-54339291D01*
X183993479Y-54335010D01*
X233756521Y-54335010D01*
X233799990Y-54339291D01*
X233843459Y-54335010D01*
X233843467Y-54335010D01*
X233973480Y-54322205D01*
X234140303Y-54271599D01*
X234294049Y-54189421D01*
X234428807Y-54078827D01*
X234456524Y-54045054D01*
X234866579Y-53635000D01*
X241606531Y-53635000D01*
X241650000Y-53639281D01*
X241693469Y-53635000D01*
X241693477Y-53635000D01*
X241823490Y-53622195D01*
X241990313Y-53571589D01*
X242144059Y-53489411D01*
X242278817Y-53378817D01*
X242306534Y-53345044D01*
X242780966Y-52870612D01*
X243000000Y-52892185D01*
X243291111Y-52863513D01*
X243571034Y-52778599D01*
X243829014Y-52640706D01*
X244055134Y-52455134D01*
X244240706Y-52229014D01*
X244378599Y-51971033D01*
X244463513Y-51691110D01*
X244485000Y-51472949D01*
X244485000Y-51027050D01*
X244463513Y-50808889D01*
X244378599Y-50528966D01*
X244240706Y-50270986D01*
X244055134Y-50044866D01*
X243829013Y-49859294D01*
X243571033Y-49721401D01*
X243291110Y-49636487D01*
X243000000Y-49607815D01*
X242708889Y-49636487D01*
X242428966Y-49721401D01*
X242170986Y-49859294D01*
X241944866Y-50044866D01*
X241892777Y-50108337D01*
X241838405Y-50006614D01*
X241727962Y-49872038D01*
X241593386Y-49761595D01*
X241498913Y-49711098D01*
X241448284Y-49616377D01*
X241306449Y-49443551D01*
X241263140Y-49408008D01*
X239841996Y-47986865D01*
X239806449Y-47943551D01*
X239633623Y-47801716D01*
X239436447Y-47696324D01*
X239222499Y-47631423D01*
X239055752Y-47615000D01*
X239055751Y-47615000D01*
X239000000Y-47609509D01*
X238944249Y-47615000D01*
X232055741Y-47615000D01*
X231999999Y-47609510D01*
X231944257Y-47615000D01*
X231944248Y-47615000D01*
X231777501Y-47631423D01*
X231635000Y-47674651D01*
X231635000Y-44583854D01*
X231759744Y-44667205D01*
X231948102Y-44745226D01*
X232148061Y-44785000D01*
X232351939Y-44785000D01*
X232551898Y-44745226D01*
X232740256Y-44667205D01*
X232909774Y-44553937D01*
X233053937Y-44409774D01*
X233167205Y-44240256D01*
X233245226Y-44051898D01*
X233285000Y-43851939D01*
X233285000Y-43648061D01*
X233245226Y-43448102D01*
X233167205Y-43259744D01*
X233135000Y-43211546D01*
X233135000Y-42653889D01*
X233291111Y-42638513D01*
X233571034Y-42553599D01*
X233829014Y-42415706D01*
X234055134Y-42230134D01*
X234240706Y-42004014D01*
X234378599Y-41746033D01*
X234463513Y-41466110D01*
X234485000Y-41247949D01*
X234485000Y-40802050D01*
X234463513Y-40583889D01*
X234378599Y-40303966D01*
X234240706Y-40045986D01*
X234055134Y-39819866D01*
X233829013Y-39634294D01*
X233571033Y-39496401D01*
X233291110Y-39411487D01*
X233000000Y-39382815D01*
X232708889Y-39411487D01*
X232428966Y-39496401D01*
X232170986Y-39634294D01*
X231944866Y-39819866D01*
X231892777Y-39883337D01*
X231838405Y-39781614D01*
X231727962Y-39647038D01*
X231593386Y-39536595D01*
X231498913Y-39486098D01*
X231448284Y-39391377D01*
X231341989Y-39261856D01*
X231341987Y-39261854D01*
X231306449Y-39218551D01*
X231263146Y-39183013D01*
X229816995Y-37736864D01*
X229781449Y-37693551D01*
X229608623Y-37551716D01*
X229567995Y-37530000D01*
X230944192Y-37530000D01*
X230953872Y-37628285D01*
X231004053Y-37793709D01*
X231085542Y-37946164D01*
X231195208Y-38079792D01*
X231328836Y-38189458D01*
X231481291Y-38270947D01*
X231646715Y-38321128D01*
X231818750Y-38338072D01*
X232306250Y-38338072D01*
X232478285Y-38321128D01*
X232643709Y-38270947D01*
X232796164Y-38189458D01*
X232929792Y-38079792D01*
X233000000Y-37994244D01*
X233070208Y-38079792D01*
X233203836Y-38189458D01*
X233356291Y-38270947D01*
X233521715Y-38321128D01*
X233693750Y-38338072D01*
X234181250Y-38338072D01*
X234353285Y-38321128D01*
X234518709Y-38270947D01*
X234671164Y-38189458D01*
X234804792Y-38079792D01*
X234914458Y-37946164D01*
X234995947Y-37793709D01*
X235006173Y-37760000D01*
X235935199Y-37760000D01*
X236096196Y-37920997D01*
X236119999Y-37950001D01*
X236235724Y-38044974D01*
X236365785Y-38114494D01*
X236367753Y-38115546D01*
X236511014Y-38159003D01*
X236660000Y-38173677D01*
X236697333Y-38170000D01*
X237105015Y-38170000D01*
X237138815Y-38211185D01*
X237235506Y-38290537D01*
X237345820Y-38349502D01*
X237465518Y-38385812D01*
X237590000Y-38398072D01*
X238740000Y-38398072D01*
X238864482Y-38385812D01*
X238984180Y-38349502D01*
X239094494Y-38290537D01*
X239191185Y-38211185D01*
X239270537Y-38114494D01*
X239315988Y-38029463D01*
X239333815Y-38051185D01*
X239430506Y-38130537D01*
X239540820Y-38189502D01*
X239660518Y-38225812D01*
X239785000Y-38238072D01*
X241865001Y-38238072D01*
X241865000Y-39831370D01*
X241838405Y-39781614D01*
X241727962Y-39647038D01*
X241593386Y-39536595D01*
X241439850Y-39454528D01*
X241273254Y-39403992D01*
X241100000Y-39386928D01*
X239900000Y-39386928D01*
X239726746Y-39403992D01*
X239560150Y-39454528D01*
X239406614Y-39536595D01*
X239272038Y-39647038D01*
X239161595Y-39781614D01*
X239079528Y-39935150D01*
X239028992Y-40101746D01*
X239011928Y-40275000D01*
X239011928Y-41775000D01*
X239028992Y-41948254D01*
X239079528Y-42114850D01*
X239161595Y-42268386D01*
X239272038Y-42402962D01*
X239406614Y-42513405D01*
X239560150Y-42595472D01*
X239726746Y-42646008D01*
X239900000Y-42663072D01*
X241100000Y-42663072D01*
X241273254Y-42646008D01*
X241439850Y-42595472D01*
X241593386Y-42513405D01*
X241727962Y-42402962D01*
X241838405Y-42268386D01*
X241892777Y-42166663D01*
X241944866Y-42230134D01*
X242170987Y-42415706D01*
X242428967Y-42553599D01*
X242708890Y-42638513D01*
X243000000Y-42667185D01*
X243291111Y-42638513D01*
X243571034Y-42553599D01*
X243829014Y-42415706D01*
X244055134Y-42230134D01*
X244240706Y-42004014D01*
X244378599Y-41746033D01*
X244463513Y-41466110D01*
X244485000Y-41247949D01*
X244485000Y-40802050D01*
X244463513Y-40583889D01*
X244378599Y-40303966D01*
X244240706Y-40045986D01*
X244135000Y-39917183D01*
X244135000Y-38488072D01*
X244410000Y-38488072D01*
X244534482Y-38475812D01*
X244654180Y-38439502D01*
X244764494Y-38380537D01*
X244861185Y-38301185D01*
X244940537Y-38204494D01*
X244999502Y-38094180D01*
X245035812Y-37974482D01*
X245048072Y-37850000D01*
X245048072Y-33150000D01*
X245035812Y-33025518D01*
X244999502Y-32905820D01*
X244940537Y-32795506D01*
X244861185Y-32698815D01*
X244764494Y-32619463D01*
X244654180Y-32560498D01*
X244534482Y-32524188D01*
X244410000Y-32511928D01*
X244135000Y-32511928D01*
X244135000Y-31607817D01*
X244240706Y-31479014D01*
X244378599Y-31221033D01*
X244463513Y-30941110D01*
X244485000Y-30722949D01*
X244485000Y-30277050D01*
X244463513Y-30058889D01*
X244378599Y-29778966D01*
X244240706Y-29520986D01*
X244055134Y-29294866D01*
X243829013Y-29109294D01*
X243571033Y-28971401D01*
X243291110Y-28886487D01*
X243000000Y-28857815D01*
X242708889Y-28886487D01*
X242428966Y-28971401D01*
X242170986Y-29109294D01*
X241944866Y-29294866D01*
X241892777Y-29358337D01*
X241838405Y-29256614D01*
X241727962Y-29122038D01*
X241593386Y-29011595D01*
X241439850Y-28929528D01*
X241273254Y-28878992D01*
X241100000Y-28861928D01*
X239900000Y-28861928D01*
X239726746Y-28878992D01*
X239560150Y-28929528D01*
X239406614Y-29011595D01*
X239272038Y-29122038D01*
X239161595Y-29256614D01*
X239079528Y-29410150D01*
X239028992Y-29576746D01*
X239011928Y-29750000D01*
X239011928Y-31250000D01*
X239028992Y-31423254D01*
X239079528Y-31589850D01*
X239161595Y-31743386D01*
X239272038Y-31877962D01*
X239406614Y-31988405D01*
X239560150Y-32070472D01*
X239726746Y-32121008D01*
X239900000Y-32138072D01*
X241100000Y-32138072D01*
X241273254Y-32121008D01*
X241439850Y-32070472D01*
X241593386Y-31988405D01*
X241727962Y-31877962D01*
X241838405Y-31743386D01*
X241865000Y-31693630D01*
X241865001Y-32761928D01*
X239785000Y-32761928D01*
X239660518Y-32774188D01*
X239540820Y-32810498D01*
X239430506Y-32869463D01*
X239333815Y-32948815D01*
X239315988Y-32970537D01*
X239270537Y-32885506D01*
X239191185Y-32788815D01*
X239094494Y-32709463D01*
X238984180Y-32650498D01*
X238864482Y-32614188D01*
X238740000Y-32601928D01*
X238450750Y-32605000D01*
X238292000Y-32763750D01*
X238292000Y-33463000D01*
X238312000Y-33463000D01*
X238312000Y-33717000D01*
X238292000Y-33717000D01*
X238292000Y-34733000D01*
X238312000Y-34733000D01*
X238312000Y-34987000D01*
X238292000Y-34987000D01*
X238292000Y-36013000D01*
X238312000Y-36013000D01*
X238312000Y-36267000D01*
X238292000Y-36267000D01*
X238292000Y-36287000D01*
X238038000Y-36287000D01*
X238038000Y-36267000D01*
X237113750Y-36267000D01*
X236955000Y-36425750D01*
X236951928Y-36490000D01*
X236964188Y-36614482D01*
X236974962Y-36650000D01*
X236974801Y-36650000D01*
X236813804Y-36489003D01*
X236790001Y-36459999D01*
X236674276Y-36365026D01*
X236542247Y-36294454D01*
X236398986Y-36250997D01*
X236287333Y-36240000D01*
X236287322Y-36240000D01*
X236250000Y-36236324D01*
X236212678Y-36240000D01*
X235006173Y-36240000D01*
X234995947Y-36206291D01*
X234914458Y-36053836D01*
X234804792Y-35920208D01*
X234697500Y-35832155D01*
X234697500Y-35667845D01*
X234804792Y-35579792D01*
X234914458Y-35446164D01*
X234995947Y-35293709D01*
X235021339Y-35210000D01*
X236951928Y-35210000D01*
X236964188Y-35334482D01*
X237000498Y-35454180D01*
X237024990Y-35500000D01*
X237000498Y-35545820D01*
X236964188Y-35665518D01*
X236951928Y-35790000D01*
X236955000Y-35854250D01*
X237113750Y-36013000D01*
X238038000Y-36013000D01*
X238038000Y-34987000D01*
X237113750Y-34987000D01*
X236955000Y-35145750D01*
X236951928Y-35210000D01*
X235021339Y-35210000D01*
X235046128Y-35128285D01*
X235063072Y-34956250D01*
X235063072Y-34043750D01*
X235052854Y-33940000D01*
X236951928Y-33940000D01*
X236964188Y-34064482D01*
X237000498Y-34184180D01*
X237022317Y-34225000D01*
X237000498Y-34265820D01*
X236964188Y-34385518D01*
X236951928Y-34510000D01*
X236955000Y-34574250D01*
X237113750Y-34733000D01*
X238038000Y-34733000D01*
X238038000Y-33717000D01*
X237113750Y-33717000D01*
X236955000Y-33875750D01*
X236951928Y-33940000D01*
X235052854Y-33940000D01*
X235046128Y-33871715D01*
X234995947Y-33706291D01*
X234914458Y-33553836D01*
X234804792Y-33420208D01*
X234671164Y-33310542D01*
X234539190Y-33240000D01*
X236951928Y-33240000D01*
X236955000Y-33304250D01*
X237113750Y-33463000D01*
X238038000Y-33463000D01*
X238038000Y-32763750D01*
X237879250Y-32605000D01*
X237590000Y-32601928D01*
X237465518Y-32614188D01*
X237345820Y-32650498D01*
X237235506Y-32709463D01*
X237138815Y-32788815D01*
X237059463Y-32885506D01*
X237000498Y-32995820D01*
X236964188Y-33115518D01*
X236951928Y-33240000D01*
X234539190Y-33240000D01*
X234518709Y-33229053D01*
X234353285Y-33178872D01*
X234181250Y-33161928D01*
X233693750Y-33161928D01*
X233521715Y-33178872D01*
X233356291Y-33229053D01*
X233203836Y-33310542D01*
X233070208Y-33420208D01*
X233064992Y-33426564D01*
X233001185Y-33348815D01*
X232904494Y-33269463D01*
X232794180Y-33210498D01*
X232674482Y-33174188D01*
X232550000Y-33161928D01*
X232348250Y-33165000D01*
X232189500Y-33323750D01*
X232189500Y-34373000D01*
X232209500Y-34373000D01*
X232209500Y-34627000D01*
X232189500Y-34627000D01*
X232189500Y-34647000D01*
X231935500Y-34647000D01*
X231935500Y-34627000D01*
X231098750Y-34627000D01*
X230940000Y-34785750D01*
X230936928Y-35200000D01*
X230949188Y-35324482D01*
X230985498Y-35444180D01*
X231044463Y-35554494D01*
X231123815Y-35651185D01*
X231220506Y-35730537D01*
X231330820Y-35789502D01*
X231354666Y-35796736D01*
X231328836Y-35810542D01*
X231195208Y-35920208D01*
X231121517Y-36010000D01*
X226753560Y-36010000D01*
X226785000Y-35851939D01*
X226785000Y-35648061D01*
X226745226Y-35448102D01*
X226667205Y-35259744D01*
X226635000Y-35211546D01*
X226635000Y-33800000D01*
X230936928Y-33800000D01*
X230940000Y-34214250D01*
X231098750Y-34373000D01*
X231935500Y-34373000D01*
X231935500Y-33323750D01*
X231776750Y-33165000D01*
X231575000Y-33161928D01*
X231450518Y-33174188D01*
X231330820Y-33210498D01*
X231220506Y-33269463D01*
X231123815Y-33348815D01*
X231044463Y-33445506D01*
X230985498Y-33555820D01*
X230949188Y-33675518D01*
X230936928Y-33800000D01*
X226635000Y-33800000D01*
X226635000Y-31943469D01*
X226639281Y-31900000D01*
X226635000Y-31856531D01*
X226635000Y-31856523D01*
X226622195Y-31726510D01*
X226620979Y-31722499D01*
X226606284Y-31674059D01*
X226571589Y-31559687D01*
X226489411Y-31405941D01*
X226446365Y-31353490D01*
X226406532Y-31304953D01*
X226406530Y-31304951D01*
X226378817Y-31271183D01*
X226345049Y-31243470D01*
X225006534Y-29904956D01*
X224978817Y-29871183D01*
X224844059Y-29760589D01*
X224690313Y-29678411D01*
X224547208Y-29635000D01*
X229023254Y-29635000D01*
X229011928Y-29750000D01*
X229011928Y-31250000D01*
X229028992Y-31423254D01*
X229079528Y-31589850D01*
X229161595Y-31743386D01*
X229272038Y-31877962D01*
X229406614Y-31988405D01*
X229560150Y-32070472D01*
X229726746Y-32121008D01*
X229900000Y-32138072D01*
X231100000Y-32138072D01*
X231273254Y-32121008D01*
X231439850Y-32070472D01*
X231593386Y-31988405D01*
X231727962Y-31877962D01*
X231838405Y-31743386D01*
X231892914Y-31641407D01*
X231893198Y-31641795D01*
X232107954Y-31838664D01*
X232356991Y-31989854D01*
X232630739Y-32089554D01*
X232643110Y-32091476D01*
X232873000Y-31970155D01*
X232873000Y-30627000D01*
X233127000Y-30627000D01*
X233127000Y-31970155D01*
X233356890Y-32091476D01*
X233369261Y-32089554D01*
X233643009Y-31989854D01*
X233892046Y-31838664D01*
X234106802Y-31641795D01*
X234279025Y-31406812D01*
X234402096Y-31142745D01*
X234471285Y-30859742D01*
X234327232Y-30627000D01*
X233127000Y-30627000D01*
X232873000Y-30627000D01*
X232853000Y-30627000D01*
X232853000Y-30373000D01*
X232873000Y-30373000D01*
X232873000Y-29029845D01*
X233127000Y-29029845D01*
X233127000Y-30373000D01*
X234327232Y-30373000D01*
X234471285Y-30140258D01*
X234402096Y-29857255D01*
X234279025Y-29593188D01*
X234106802Y-29358205D01*
X233892046Y-29161336D01*
X233643009Y-29010146D01*
X233369261Y-28910446D01*
X233356890Y-28908524D01*
X233127000Y-29029845D01*
X232873000Y-29029845D01*
X232643110Y-28908524D01*
X232630739Y-28910446D01*
X232356991Y-29010146D01*
X232107954Y-29161336D01*
X231893198Y-29358205D01*
X231892914Y-29358593D01*
X231838405Y-29256614D01*
X231727962Y-29122038D01*
X231593386Y-29011595D01*
X231498913Y-28961098D01*
X231448284Y-28866377D01*
X231341989Y-28736856D01*
X231341987Y-28736854D01*
X231306449Y-28693551D01*
X231263145Y-28658013D01*
X230341995Y-27736864D01*
X230306449Y-27693551D01*
X230133623Y-27551716D01*
X229936447Y-27446324D01*
X229722499Y-27381423D01*
X229555752Y-27365000D01*
X229555751Y-27365000D01*
X229500000Y-27359509D01*
X229444249Y-27365000D01*
X187873743Y-27365000D01*
X187817999Y-27359510D01*
X187762255Y-27365000D01*
X187762248Y-27365000D01*
X187616493Y-27379356D01*
X187595500Y-27381423D01*
X187545705Y-27396529D01*
X187381553Y-27446324D01*
X187184377Y-27551716D01*
X187011551Y-27693551D01*
X186976008Y-27736860D01*
X186182860Y-28530009D01*
X186139552Y-28565551D01*
X185997717Y-28738377D01*
X185941384Y-28843770D01*
X185892324Y-28935554D01*
X185827423Y-29149502D01*
X185805509Y-29372000D01*
X185811000Y-29427751D01*
X185811000Y-29856650D01*
X185732815Y-29920815D01*
X185696000Y-29965674D01*
X185659185Y-29920815D01*
X185562494Y-29841463D01*
X185452180Y-29782498D01*
X185332482Y-29746188D01*
X185208000Y-29733928D01*
X183684000Y-29733928D01*
X183559518Y-29746188D01*
X183439820Y-29782498D01*
X183329506Y-29841463D01*
X183232815Y-29920815D01*
X183153463Y-30017506D01*
X183094498Y-30127820D01*
X183058188Y-30247518D01*
X183045928Y-30372000D01*
X183045928Y-31896000D01*
X183058188Y-32020482D01*
X183094498Y-32140180D01*
X183153463Y-32250494D01*
X183232815Y-32347185D01*
X183329506Y-32426537D01*
X183439820Y-32485502D01*
X183559518Y-32521812D01*
X183684000Y-32534072D01*
X185208000Y-32534072D01*
X185332482Y-32521812D01*
X185452180Y-32485502D01*
X185562494Y-32426537D01*
X185659185Y-32347185D01*
X185696000Y-32302326D01*
X185732815Y-32347185D01*
X185829506Y-32426537D01*
X185939820Y-32485502D01*
X186059518Y-32521812D01*
X186184000Y-32534072D01*
X187708000Y-32534072D01*
X187832482Y-32521812D01*
X187952180Y-32485502D01*
X188062494Y-32426537D01*
X188159185Y-32347185D01*
X188238537Y-32250494D01*
X188297502Y-32140180D01*
X188333812Y-32020482D01*
X188346072Y-31896000D01*
X188346072Y-31042408D01*
X189921000Y-31042408D01*
X189921000Y-31317592D01*
X189974686Y-31587490D01*
X190079995Y-31841727D01*
X190232880Y-32070535D01*
X190427465Y-32265120D01*
X190656273Y-32418005D01*
X190910510Y-32523314D01*
X191180408Y-32577000D01*
X191455592Y-32577000D01*
X191725490Y-32523314D01*
X191979727Y-32418005D01*
X192208535Y-32265120D01*
X192403120Y-32070535D01*
X192406818Y-32065000D01*
X192729182Y-32065000D01*
X192732880Y-32070535D01*
X192927465Y-32265120D01*
X193156273Y-32418005D01*
X193410510Y-32523314D01*
X193680408Y-32577000D01*
X193955592Y-32577000D01*
X194225490Y-32523314D01*
X194479727Y-32418005D01*
X194708535Y-32265120D01*
X194903120Y-32070535D01*
X195056005Y-31841727D01*
X195161314Y-31587490D01*
X195215000Y-31317592D01*
X195215000Y-31042408D01*
X195161314Y-30772510D01*
X195056005Y-30518273D01*
X194903120Y-30289465D01*
X194708535Y-30094880D01*
X194479727Y-29941995D01*
X194225490Y-29836686D01*
X193955592Y-29783000D01*
X193680408Y-29783000D01*
X193410510Y-29836686D01*
X193156273Y-29941995D01*
X192927465Y-30094880D01*
X192732880Y-30289465D01*
X192729182Y-30295000D01*
X192406818Y-30295000D01*
X192403120Y-30289465D01*
X192208535Y-30094880D01*
X191979727Y-29941995D01*
X191725490Y-29836686D01*
X191455592Y-29783000D01*
X191180408Y-29783000D01*
X190910510Y-29836686D01*
X190656273Y-29941995D01*
X190427465Y-30094880D01*
X190232880Y-30289465D01*
X190079995Y-30518273D01*
X189974686Y-30772510D01*
X189921000Y-31042408D01*
X188346072Y-31042408D01*
X188346072Y-30372000D01*
X188333812Y-30247518D01*
X188297502Y-30127820D01*
X188238537Y-30017506D01*
X188159185Y-29920815D01*
X188081000Y-29856650D01*
X188081000Y-29842131D01*
X188288132Y-29635000D01*
X206152895Y-29635000D01*
X206081551Y-29693551D01*
X206046004Y-29736865D01*
X205737869Y-30045000D01*
X205723350Y-30045000D01*
X205659185Y-29966815D01*
X205562494Y-29887463D01*
X205452180Y-29828498D01*
X205332482Y-29792188D01*
X205208000Y-29779928D01*
X203684000Y-29779928D01*
X203559518Y-29792188D01*
X203439820Y-29828498D01*
X203329506Y-29887463D01*
X203232815Y-29966815D01*
X203196000Y-30011674D01*
X203159185Y-29966815D01*
X203062494Y-29887463D01*
X202952180Y-29828498D01*
X202832482Y-29792188D01*
X202708000Y-29779928D01*
X201184000Y-29779928D01*
X201059518Y-29792188D01*
X200939820Y-29828498D01*
X200829506Y-29887463D01*
X200732815Y-29966815D01*
X200653463Y-30063506D01*
X200594498Y-30173820D01*
X200558188Y-30293518D01*
X200545928Y-30418000D01*
X200545928Y-31942000D01*
X200558188Y-32066482D01*
X200594498Y-32186180D01*
X200653463Y-32296494D01*
X200732815Y-32393185D01*
X200829506Y-32472537D01*
X200939820Y-32531502D01*
X201059518Y-32567812D01*
X201184000Y-32580072D01*
X202708000Y-32580072D01*
X202832482Y-32567812D01*
X202952180Y-32531502D01*
X203062494Y-32472537D01*
X203159185Y-32393185D01*
X203196000Y-32348326D01*
X203232815Y-32393185D01*
X203329506Y-32472537D01*
X203439820Y-32531502D01*
X203559518Y-32567812D01*
X203684000Y-32580072D01*
X205208000Y-32580072D01*
X205332482Y-32567812D01*
X205452180Y-32531502D01*
X205562494Y-32472537D01*
X205659185Y-32393185D01*
X205723350Y-32315000D01*
X205737869Y-32315000D01*
X207686009Y-34263141D01*
X207721551Y-34306449D01*
X207865000Y-34424175D01*
X207865001Y-36944239D01*
X207865000Y-36944249D01*
X207865001Y-40319239D01*
X207859509Y-40375000D01*
X207881423Y-40597498D01*
X207946324Y-40811446D01*
X207995157Y-40902805D01*
X208051717Y-41008623D01*
X208193552Y-41181449D01*
X208236860Y-41216991D01*
X208808004Y-41788135D01*
X208843551Y-41831449D01*
X209016377Y-41973284D01*
X209040495Y-41986175D01*
X209079528Y-42114850D01*
X209161595Y-42268386D01*
X209272038Y-42402962D01*
X209365000Y-42479254D01*
X209365001Y-49795746D01*
X209272038Y-49872038D01*
X209161595Y-50006614D01*
X209079528Y-50160150D01*
X209028992Y-50326746D01*
X209011928Y-50500000D01*
X209011928Y-50849088D01*
X208904093Y-50760589D01*
X208750347Y-50678411D01*
X208583524Y-50627805D01*
X208453511Y-50615000D01*
X208453503Y-50615000D01*
X208410034Y-50610719D01*
X208366565Y-50615000D01*
X205831835Y-50615000D01*
X205833812Y-50608482D01*
X205846072Y-50484000D01*
X205846072Y-48960000D01*
X205833812Y-48835518D01*
X205797502Y-48715820D01*
X205738537Y-48605506D01*
X205659185Y-48508815D01*
X205562494Y-48429463D01*
X205452180Y-48370498D01*
X205332482Y-48334188D01*
X205208000Y-48321928D01*
X203684000Y-48321928D01*
X203559518Y-48334188D01*
X203439820Y-48370498D01*
X203329506Y-48429463D01*
X203232815Y-48508815D01*
X203196000Y-48553674D01*
X203159185Y-48508815D01*
X203062494Y-48429463D01*
X202952180Y-48370498D01*
X202832482Y-48334188D01*
X202708000Y-48321928D01*
X201184000Y-48321928D01*
X201059518Y-48334188D01*
X200939820Y-48370498D01*
X200829506Y-48429463D01*
X200732815Y-48508815D01*
X200653463Y-48605506D01*
X200594498Y-48715820D01*
X200558188Y-48835518D01*
X200545928Y-48960000D01*
X200545928Y-50484000D01*
X200558188Y-50608482D01*
X200560165Y-50615000D01*
X194890608Y-50615000D01*
X194783567Y-50507959D01*
X195023656Y-50440980D01*
X195140756Y-50191952D01*
X195207023Y-49924865D01*
X195219910Y-49649983D01*
X195178922Y-49377867D01*
X195085636Y-49118977D01*
X195023656Y-49003020D01*
X194783565Y-48936040D01*
X193997605Y-49722000D01*
X194011748Y-49736143D01*
X193832143Y-49915748D01*
X193818000Y-49901605D01*
X193803858Y-49915748D01*
X193624253Y-49736143D01*
X193638395Y-49722000D01*
X192852435Y-48936040D01*
X192612344Y-49003020D01*
X192570837Y-49091290D01*
X192523656Y-49003020D01*
X192283565Y-48936040D01*
X191497605Y-49722000D01*
X191511748Y-49736143D01*
X191332143Y-49915748D01*
X191318000Y-49901605D01*
X191303858Y-49915748D01*
X191124253Y-49736143D01*
X191138395Y-49722000D01*
X191124253Y-49707858D01*
X191303858Y-49528253D01*
X191318000Y-49542395D01*
X192103960Y-48756435D01*
X193032040Y-48756435D01*
X193818000Y-49542395D01*
X194603960Y-48756435D01*
X194536980Y-48516344D01*
X194287952Y-48399244D01*
X194020865Y-48332977D01*
X193745983Y-48320090D01*
X193473867Y-48361078D01*
X193214977Y-48454364D01*
X193099020Y-48516344D01*
X193032040Y-48756435D01*
X192103960Y-48756435D01*
X192036980Y-48516344D01*
X191787952Y-48399244D01*
X191520865Y-48332977D01*
X191245983Y-48320090D01*
X190973867Y-48361078D01*
X190714977Y-48454364D01*
X190635000Y-48497112D01*
X190635000Y-47468469D01*
X190639281Y-47425000D01*
X190635000Y-47381531D01*
X190635000Y-47381523D01*
X190622195Y-47251510D01*
X190571589Y-47084687D01*
X190489411Y-46930941D01*
X190378817Y-46796183D01*
X190345051Y-46768472D01*
X184006532Y-40429954D01*
X183978817Y-40396183D01*
X183844059Y-40285589D01*
X183690313Y-40203411D01*
X183523490Y-40152805D01*
X183393477Y-40140000D01*
X183393469Y-40140000D01*
X183350000Y-40135719D01*
X183306531Y-40140000D01*
X183290957Y-40140000D01*
X183240706Y-40045986D01*
X183055134Y-39819866D01*
X182829013Y-39634294D01*
X182571033Y-39496401D01*
X182291110Y-39411487D01*
X182000000Y-39382815D01*
X181708889Y-39411487D01*
X181428966Y-39496401D01*
X181170986Y-39634294D01*
X180944866Y-39819866D01*
X180892777Y-39883337D01*
X180838405Y-39781614D01*
X180727962Y-39647038D01*
X180593386Y-39536595D01*
X180439850Y-39454528D01*
X180273254Y-39403992D01*
X180100000Y-39386928D01*
X178900000Y-39386928D01*
X178726746Y-39403992D01*
X178560150Y-39454528D01*
X178406614Y-39536595D01*
X178272038Y-39647038D01*
X178161595Y-39781614D01*
X178079528Y-39935150D01*
X178028992Y-40101746D01*
X178011928Y-40275000D01*
X178011928Y-41775000D01*
X178028992Y-41948254D01*
X178079528Y-42114850D01*
X178161595Y-42268386D01*
X178272038Y-42402962D01*
X178406614Y-42513405D01*
X178560150Y-42595472D01*
X178726746Y-42646008D01*
X178900000Y-42663072D01*
X180100000Y-42663072D01*
X180273254Y-42646008D01*
X180439850Y-42595472D01*
X180593386Y-42513405D01*
X180727962Y-42402962D01*
X180838405Y-42268386D01*
X180892777Y-42166663D01*
X180944866Y-42230134D01*
X181170987Y-42415706D01*
X181428967Y-42553599D01*
X181708890Y-42638513D01*
X182000000Y-42667185D01*
X182291111Y-42638513D01*
X182571034Y-42553599D01*
X182829014Y-42415706D01*
X183055134Y-42230134D01*
X183167111Y-42093689D01*
X188865000Y-47791579D01*
X188865001Y-49904283D01*
X188860719Y-49947762D01*
X188877805Y-50121252D01*
X188928412Y-50288075D01*
X189010590Y-50441821D01*
X189093468Y-50542808D01*
X189093471Y-50542811D01*
X189121184Y-50576579D01*
X189154951Y-50604291D01*
X190645708Y-52095049D01*
X190673421Y-52128817D01*
X190707189Y-52156530D01*
X190707191Y-52156532D01*
X190727567Y-52173254D01*
X190808179Y-52239411D01*
X190961925Y-52321589D01*
X191128748Y-52372195D01*
X191258761Y-52385000D01*
X191258771Y-52385000D01*
X191302237Y-52389281D01*
X191345704Y-52385000D01*
X208043456Y-52385000D01*
X208223466Y-52565010D01*
X184316589Y-52565010D01*
X180665579Y-48914000D01*
X183045928Y-48914000D01*
X183045928Y-50438000D01*
X183058188Y-50562482D01*
X183094498Y-50682180D01*
X183153463Y-50792494D01*
X183232815Y-50889185D01*
X183329506Y-50968537D01*
X183439820Y-51027502D01*
X183559518Y-51063812D01*
X183684000Y-51076072D01*
X185208000Y-51076072D01*
X185332482Y-51063812D01*
X185452180Y-51027502D01*
X185562494Y-50968537D01*
X185659185Y-50889185D01*
X185696000Y-50844326D01*
X185732815Y-50889185D01*
X185829506Y-50968537D01*
X185939820Y-51027502D01*
X186059518Y-51063812D01*
X186184000Y-51076072D01*
X187708000Y-51076072D01*
X187832482Y-51063812D01*
X187952180Y-51027502D01*
X188062494Y-50968537D01*
X188159185Y-50889185D01*
X188238537Y-50792494D01*
X188297502Y-50682180D01*
X188333812Y-50562482D01*
X188346072Y-50438000D01*
X188346072Y-48914000D01*
X188333812Y-48789518D01*
X188297502Y-48669820D01*
X188238537Y-48559506D01*
X188159185Y-48462815D01*
X188062494Y-48383463D01*
X187952180Y-48324498D01*
X187832482Y-48288188D01*
X187708000Y-48275928D01*
X186184000Y-48275928D01*
X186059518Y-48288188D01*
X185939820Y-48324498D01*
X185829506Y-48383463D01*
X185732815Y-48462815D01*
X185696000Y-48507674D01*
X185659185Y-48462815D01*
X185562494Y-48383463D01*
X185452180Y-48324498D01*
X185332482Y-48288188D01*
X185208000Y-48275928D01*
X183684000Y-48275928D01*
X183559518Y-48288188D01*
X183439820Y-48324498D01*
X183329506Y-48383463D01*
X183232815Y-48462815D01*
X183153463Y-48559506D01*
X183094498Y-48669820D01*
X183058188Y-48789518D01*
X183045928Y-48914000D01*
X180665579Y-48914000D01*
X176885000Y-45133422D01*
X176885000Y-39366578D01*
X177116579Y-39135000D01*
X188758422Y-39135000D01*
X189010350Y-39386928D01*
X188650000Y-39386928D01*
X188476746Y-39403992D01*
X188310150Y-39454528D01*
X188156614Y-39536595D01*
X188022038Y-39647038D01*
X187911595Y-39781614D01*
X187829528Y-39935150D01*
X187778992Y-40101746D01*
X187761928Y-40275000D01*
X187761928Y-41775000D01*
X187778992Y-41948254D01*
X187829528Y-42114850D01*
X187911595Y-42268386D01*
X188022038Y-42402962D01*
X188156614Y-42513405D01*
X188310150Y-42595472D01*
X188476746Y-42646008D01*
X188650000Y-42663072D01*
X189850000Y-42663072D01*
X190023254Y-42646008D01*
X190189850Y-42595472D01*
X190343386Y-42513405D01*
X190477962Y-42402962D01*
X190588405Y-42268386D01*
X190642777Y-42166663D01*
X190694866Y-42230134D01*
X190920987Y-42415706D01*
X191178967Y-42553599D01*
X191458890Y-42638513D01*
X191750000Y-42667185D01*
X192041111Y-42638513D01*
X192321034Y-42553599D01*
X192579014Y-42415706D01*
X192805134Y-42230134D01*
X192990706Y-42004014D01*
X193128599Y-41746033D01*
X193213513Y-41466110D01*
X193235000Y-41247949D01*
X193235000Y-40802050D01*
X193213513Y-40583889D01*
X193128599Y-40303966D01*
X193113117Y-40275000D01*
X197511928Y-40275000D01*
X197511928Y-41775000D01*
X197528992Y-41948254D01*
X197579528Y-42114850D01*
X197661595Y-42268386D01*
X197772038Y-42402962D01*
X197906614Y-42513405D01*
X198060150Y-42595472D01*
X198226746Y-42646008D01*
X198400000Y-42663072D01*
X199600000Y-42663072D01*
X199773254Y-42646008D01*
X199939850Y-42595472D01*
X200093386Y-42513405D01*
X200227962Y-42402962D01*
X200338405Y-42268386D01*
X200392777Y-42166663D01*
X200444866Y-42230134D01*
X200670987Y-42415706D01*
X200928967Y-42553599D01*
X201208890Y-42638513D01*
X201500000Y-42667185D01*
X201791111Y-42638513D01*
X202071034Y-42553599D01*
X202329014Y-42415706D01*
X202555134Y-42230134D01*
X202740706Y-42004014D01*
X202790957Y-41910000D01*
X203431531Y-41910000D01*
X203475000Y-41914281D01*
X203518469Y-41910000D01*
X203518477Y-41910000D01*
X203648490Y-41897195D01*
X203815313Y-41846589D01*
X203969059Y-41764411D01*
X204103817Y-41653817D01*
X204131534Y-41620044D01*
X206745044Y-39006535D01*
X206801898Y-38995226D01*
X206990256Y-38917205D01*
X207159774Y-38803937D01*
X207303937Y-38659774D01*
X207417205Y-38490256D01*
X207495226Y-38301898D01*
X207535000Y-38101939D01*
X207535000Y-37898061D01*
X207495226Y-37698102D01*
X207417205Y-37509744D01*
X207303937Y-37340226D01*
X207159774Y-37196063D01*
X206990256Y-37082795D01*
X206801898Y-37004774D01*
X206601939Y-36965000D01*
X206398061Y-36965000D01*
X206198102Y-37004774D01*
X206009744Y-37082795D01*
X205840226Y-37196063D01*
X205696063Y-37340226D01*
X205582795Y-37509744D01*
X205504774Y-37698102D01*
X205493465Y-37754956D01*
X203108422Y-40140000D01*
X202790957Y-40140000D01*
X202740706Y-40045986D01*
X202555134Y-39819866D01*
X202329013Y-39634294D01*
X202071033Y-39496401D01*
X201791110Y-39411487D01*
X201500000Y-39382815D01*
X201208889Y-39411487D01*
X200928966Y-39496401D01*
X200670986Y-39634294D01*
X200444866Y-39819866D01*
X200392777Y-39883337D01*
X200338405Y-39781614D01*
X200227962Y-39647038D01*
X200093386Y-39536595D01*
X199939850Y-39454528D01*
X199773254Y-39403992D01*
X199600000Y-39386928D01*
X198400000Y-39386928D01*
X198226746Y-39403992D01*
X198060150Y-39454528D01*
X197906614Y-39536595D01*
X197772038Y-39647038D01*
X197661595Y-39781614D01*
X197579528Y-39935150D01*
X197528992Y-40101746D01*
X197511928Y-40275000D01*
X193113117Y-40275000D01*
X192990706Y-40045986D01*
X192805134Y-39819866D01*
X192579013Y-39634294D01*
X192321033Y-39496401D01*
X192041110Y-39411487D01*
X191750000Y-39382815D01*
X191530967Y-39404388D01*
X189781534Y-37654956D01*
X189753817Y-37621183D01*
X189619059Y-37510589D01*
X189465313Y-37428411D01*
X189298490Y-37377805D01*
X189168477Y-37365000D01*
X189168469Y-37365000D01*
X189125000Y-37360719D01*
X189081531Y-37365000D01*
X176793465Y-37365000D01*
X176749999Y-37360719D01*
X176706533Y-37365000D01*
X176706523Y-37365000D01*
X176576510Y-37377805D01*
X176409687Y-37428411D01*
X176255941Y-37510589D01*
X176255939Y-37510590D01*
X176255940Y-37510590D01*
X176154953Y-37593468D01*
X176154951Y-37593470D01*
X176121183Y-37621183D01*
X176093470Y-37654951D01*
X175404956Y-38343466D01*
X175371183Y-38371183D01*
X175260589Y-38505942D01*
X175178411Y-38659688D01*
X175127805Y-38826511D01*
X175115000Y-38956524D01*
X175115000Y-38956531D01*
X175110719Y-39000000D01*
X155877000Y-39000000D01*
X155877000Y-36200000D01*
X156926858Y-36200000D01*
X156957754Y-36513694D01*
X157049255Y-36815333D01*
X157197845Y-37093325D01*
X157397813Y-37336987D01*
X157641475Y-37536955D01*
X157919467Y-37685545D01*
X158221106Y-37777046D01*
X158456194Y-37800200D01*
X160543806Y-37800200D01*
X160778894Y-37777046D01*
X161080533Y-37685545D01*
X161358525Y-37536955D01*
X161602187Y-37336987D01*
X161802155Y-37093325D01*
X161950745Y-36815333D01*
X162042246Y-36513694D01*
X162073142Y-36200000D01*
X165126858Y-36200000D01*
X165157754Y-36513694D01*
X165249255Y-36815333D01*
X165397845Y-37093325D01*
X165597813Y-37336987D01*
X165841475Y-37536955D01*
X166119467Y-37685545D01*
X166421106Y-37777046D01*
X166656194Y-37800200D01*
X168743806Y-37800200D01*
X168978894Y-37777046D01*
X169280533Y-37685545D01*
X169558525Y-37536955D01*
X169802187Y-37336987D01*
X170002155Y-37093325D01*
X170150745Y-36815333D01*
X170242246Y-36513694D01*
X170273142Y-36200000D01*
X170242246Y-35886306D01*
X170150745Y-35584667D01*
X170002155Y-35306675D01*
X169802187Y-35063013D01*
X169558525Y-34863045D01*
X169280533Y-34714455D01*
X168978894Y-34622954D01*
X168743806Y-34599800D01*
X166656194Y-34599800D01*
X166421106Y-34622954D01*
X166119467Y-34714455D01*
X165841475Y-34863045D01*
X165597813Y-35063013D01*
X165397845Y-35306675D01*
X165249255Y-35584667D01*
X165157754Y-35886306D01*
X165126858Y-36200000D01*
X162073142Y-36200000D01*
X162042246Y-35886306D01*
X161950745Y-35584667D01*
X161802155Y-35306675D01*
X161602187Y-35063013D01*
X161358525Y-34863045D01*
X161080533Y-34714455D01*
X160778894Y-34622954D01*
X160543806Y-34599800D01*
X158456194Y-34599800D01*
X158221106Y-34622954D01*
X157919467Y-34714455D01*
X157641475Y-34863045D01*
X157397813Y-35063013D01*
X157197845Y-35306675D01*
X157049255Y-35584667D01*
X156957754Y-35886306D01*
X156926858Y-36200000D01*
X155877000Y-36200000D01*
X155877000Y-31574973D01*
X156979154Y-31574973D01*
X157007808Y-31695038D01*
X157133726Y-31983427D01*
X157313486Y-32241710D01*
X157540181Y-32459960D01*
X157805098Y-32629791D01*
X158098057Y-32744676D01*
X158407800Y-32800200D01*
X159373000Y-32800200D01*
X159373000Y-31327000D01*
X159627000Y-31327000D01*
X159627000Y-32800200D01*
X160592200Y-32800200D01*
X160901943Y-32744676D01*
X161194902Y-32629791D01*
X161459819Y-32459960D01*
X161686514Y-32241710D01*
X161866274Y-31983427D01*
X161992192Y-31695038D01*
X162020846Y-31574973D01*
X165179154Y-31574973D01*
X165207808Y-31695038D01*
X165333726Y-31983427D01*
X165513486Y-32241710D01*
X165740181Y-32459960D01*
X166005098Y-32629791D01*
X166298057Y-32744676D01*
X166607800Y-32800200D01*
X167573000Y-32800200D01*
X167573000Y-31327000D01*
X167827000Y-31327000D01*
X167827000Y-32800200D01*
X168792200Y-32800200D01*
X169101943Y-32744676D01*
X169394902Y-32629791D01*
X169659819Y-32459960D01*
X169886514Y-32241710D01*
X170066274Y-31983427D01*
X170192192Y-31695038D01*
X170220846Y-31574973D01*
X170101044Y-31327000D01*
X167827000Y-31327000D01*
X167573000Y-31327000D01*
X165298956Y-31327000D01*
X165179154Y-31574973D01*
X162020846Y-31574973D01*
X161901044Y-31327000D01*
X159627000Y-31327000D01*
X159373000Y-31327000D01*
X157098956Y-31327000D01*
X156979154Y-31574973D01*
X155877000Y-31574973D01*
X155877000Y-30825027D01*
X156979154Y-30825027D01*
X157098956Y-31073000D01*
X159373000Y-31073000D01*
X159373000Y-29599800D01*
X159627000Y-29599800D01*
X159627000Y-31073000D01*
X161901044Y-31073000D01*
X162020846Y-30825027D01*
X165179154Y-30825027D01*
X165298956Y-31073000D01*
X167573000Y-31073000D01*
X167573000Y-29599800D01*
X167827000Y-29599800D01*
X167827000Y-31073000D01*
X170101044Y-31073000D01*
X170138047Y-30996408D01*
X172421000Y-30996408D01*
X172421000Y-31271592D01*
X172474686Y-31541490D01*
X172579995Y-31795727D01*
X172732880Y-32024535D01*
X172927465Y-32219120D01*
X173156273Y-32372005D01*
X173410510Y-32477314D01*
X173680408Y-32531000D01*
X173955592Y-32531000D01*
X174225490Y-32477314D01*
X174479727Y-32372005D01*
X174708535Y-32219120D01*
X174903120Y-32024535D01*
X174906818Y-32019000D01*
X175229182Y-32019000D01*
X175232880Y-32024535D01*
X175427465Y-32219120D01*
X175656273Y-32372005D01*
X175910510Y-32477314D01*
X176180408Y-32531000D01*
X176455592Y-32531000D01*
X176725490Y-32477314D01*
X176979727Y-32372005D01*
X177208535Y-32219120D01*
X177403120Y-32024535D01*
X177556005Y-31795727D01*
X177661314Y-31541490D01*
X177715000Y-31271592D01*
X177715000Y-30996408D01*
X177661314Y-30726510D01*
X177556005Y-30472273D01*
X177403120Y-30243465D01*
X177208535Y-30048880D01*
X176979727Y-29895995D01*
X176725490Y-29790686D01*
X176455592Y-29737000D01*
X176180408Y-29737000D01*
X175910510Y-29790686D01*
X175656273Y-29895995D01*
X175427465Y-30048880D01*
X175232880Y-30243465D01*
X175229182Y-30249000D01*
X174906818Y-30249000D01*
X174903120Y-30243465D01*
X174708535Y-30048880D01*
X174479727Y-29895995D01*
X174225490Y-29790686D01*
X173955592Y-29737000D01*
X173680408Y-29737000D01*
X173410510Y-29790686D01*
X173156273Y-29895995D01*
X172927465Y-30048880D01*
X172732880Y-30243465D01*
X172579995Y-30472273D01*
X172474686Y-30726510D01*
X172421000Y-30996408D01*
X170138047Y-30996408D01*
X170220846Y-30825027D01*
X170192192Y-30704962D01*
X170066274Y-30416573D01*
X169886514Y-30158290D01*
X169659819Y-29940040D01*
X169394902Y-29770209D01*
X169101943Y-29655324D01*
X168792200Y-29599800D01*
X167827000Y-29599800D01*
X167573000Y-29599800D01*
X166607800Y-29599800D01*
X166298057Y-29655324D01*
X166005098Y-29770209D01*
X165740181Y-29940040D01*
X165513486Y-30158290D01*
X165333726Y-30416573D01*
X165207808Y-30704962D01*
X165179154Y-30825027D01*
X162020846Y-30825027D01*
X161992192Y-30704962D01*
X161866274Y-30416573D01*
X161686514Y-30158290D01*
X161459819Y-29940040D01*
X161194902Y-29770209D01*
X160901943Y-29655324D01*
X160592200Y-29599800D01*
X159627000Y-29599800D01*
X159373000Y-29599800D01*
X158407800Y-29599800D01*
X158098057Y-29655324D01*
X157805098Y-29770209D01*
X157540181Y-29940040D01*
X157313486Y-30158290D01*
X157133726Y-30416573D01*
X157007808Y-30704962D01*
X156979154Y-30825027D01*
X155877000Y-30825027D01*
X155877000Y-25660000D01*
X247373000Y-25660000D01*
X247373000Y-55340000D01*
M02*
