G04 #@! TF.GenerationSoftware,KiCad,Pcbnew,(5.1.5)-3*
G04 #@! TF.CreationDate,2021-02-12T21:05:29+01:00*
G04 #@! TF.ProjectId,Mainboard,4d61696e-626f-4617-9264-2e6b69636164,rev?*
G04 #@! TF.SameCoordinates,Original*
G04 #@! TF.FileFunction,Copper,L2,Bot*
G04 #@! TF.FilePolarity,Positive*
%FSLAX46Y46*%
G04 Gerber Fmt 4.6, Leading zero omitted, Abs format (unit mm)*
G04 Created by KiCad (PCBNEW (5.1.5)-3) date 2021-02-12 21:05:29*
%MOMM*%
%LPD*%
G04 APERTURE LIST*
%ADD10O,3.860800X1.930400*%
%ADD11R,1.524000X1.524000*%
%ADD12C,1.524000*%
%ADD13O,1.700000X2.000000*%
%ADD14C,0.100000*%
%ADD15C,0.800000*%
%ADD16C,0.500000*%
%ADD17C,0.254000*%
G04 APERTURE END LIST*
D10*
X159500000Y-48700000D03*
X167700000Y-48700000D03*
X159500000Y-43700000D03*
X167700000Y-43700000D03*
X159500000Y-36200000D03*
X167700000Y-36200000D03*
X159500000Y-31200000D03*
X167700000Y-31200000D03*
D11*
X186946000Y-31134000D03*
X184446000Y-31134000D03*
D12*
X176318000Y-31134000D03*
X173818000Y-31134000D03*
D11*
X186946000Y-49676000D03*
X184446000Y-49676000D03*
D12*
X176318000Y-49676000D03*
X173818000Y-49676000D03*
D11*
X204446000Y-31180000D03*
X201946000Y-31180000D03*
D12*
X193818000Y-31180000D03*
X191318000Y-31180000D03*
D11*
X204446000Y-49722000D03*
X201946000Y-49722000D03*
D12*
X193818000Y-49722000D03*
X191318000Y-49722000D03*
D13*
X201500000Y-41025000D03*
G04 #@! TA.AperFunction,ComponentPad*
D14*
G36*
X199624504Y-40026204D02*
G01*
X199648773Y-40029804D01*
X199672571Y-40035765D01*
X199695671Y-40044030D01*
X199717849Y-40054520D01*
X199738893Y-40067133D01*
X199758598Y-40081747D01*
X199776777Y-40098223D01*
X199793253Y-40116402D01*
X199807867Y-40136107D01*
X199820480Y-40157151D01*
X199830970Y-40179329D01*
X199839235Y-40202429D01*
X199845196Y-40226227D01*
X199848796Y-40250496D01*
X199850000Y-40275000D01*
X199850000Y-41775000D01*
X199848796Y-41799504D01*
X199845196Y-41823773D01*
X199839235Y-41847571D01*
X199830970Y-41870671D01*
X199820480Y-41892849D01*
X199807867Y-41913893D01*
X199793253Y-41933598D01*
X199776777Y-41951777D01*
X199758598Y-41968253D01*
X199738893Y-41982867D01*
X199717849Y-41995480D01*
X199695671Y-42005970D01*
X199672571Y-42014235D01*
X199648773Y-42020196D01*
X199624504Y-42023796D01*
X199600000Y-42025000D01*
X198400000Y-42025000D01*
X198375496Y-42023796D01*
X198351227Y-42020196D01*
X198327429Y-42014235D01*
X198304329Y-42005970D01*
X198282151Y-41995480D01*
X198261107Y-41982867D01*
X198241402Y-41968253D01*
X198223223Y-41951777D01*
X198206747Y-41933598D01*
X198192133Y-41913893D01*
X198179520Y-41892849D01*
X198169030Y-41870671D01*
X198160765Y-41847571D01*
X198154804Y-41823773D01*
X198151204Y-41799504D01*
X198150000Y-41775000D01*
X198150000Y-40275000D01*
X198151204Y-40250496D01*
X198154804Y-40226227D01*
X198160765Y-40202429D01*
X198169030Y-40179329D01*
X198179520Y-40157151D01*
X198192133Y-40136107D01*
X198206747Y-40116402D01*
X198223223Y-40098223D01*
X198241402Y-40081747D01*
X198261107Y-40067133D01*
X198282151Y-40054520D01*
X198304329Y-40044030D01*
X198327429Y-40035765D01*
X198351227Y-40029804D01*
X198375496Y-40026204D01*
X198400000Y-40025000D01*
X199600000Y-40025000D01*
X199624504Y-40026204D01*
G37*
G04 #@! TD.AperFunction*
D13*
X191750000Y-41025000D03*
G04 #@! TA.AperFunction,ComponentPad*
D14*
G36*
X189874504Y-40026204D02*
G01*
X189898773Y-40029804D01*
X189922571Y-40035765D01*
X189945671Y-40044030D01*
X189967849Y-40054520D01*
X189988893Y-40067133D01*
X190008598Y-40081747D01*
X190026777Y-40098223D01*
X190043253Y-40116402D01*
X190057867Y-40136107D01*
X190070480Y-40157151D01*
X190080970Y-40179329D01*
X190089235Y-40202429D01*
X190095196Y-40226227D01*
X190098796Y-40250496D01*
X190100000Y-40275000D01*
X190100000Y-41775000D01*
X190098796Y-41799504D01*
X190095196Y-41823773D01*
X190089235Y-41847571D01*
X190080970Y-41870671D01*
X190070480Y-41892849D01*
X190057867Y-41913893D01*
X190043253Y-41933598D01*
X190026777Y-41951777D01*
X190008598Y-41968253D01*
X189988893Y-41982867D01*
X189967849Y-41995480D01*
X189945671Y-42005970D01*
X189922571Y-42014235D01*
X189898773Y-42020196D01*
X189874504Y-42023796D01*
X189850000Y-42025000D01*
X188650000Y-42025000D01*
X188625496Y-42023796D01*
X188601227Y-42020196D01*
X188577429Y-42014235D01*
X188554329Y-42005970D01*
X188532151Y-41995480D01*
X188511107Y-41982867D01*
X188491402Y-41968253D01*
X188473223Y-41951777D01*
X188456747Y-41933598D01*
X188442133Y-41913893D01*
X188429520Y-41892849D01*
X188419030Y-41870671D01*
X188410765Y-41847571D01*
X188404804Y-41823773D01*
X188401204Y-41799504D01*
X188400000Y-41775000D01*
X188400000Y-40275000D01*
X188401204Y-40250496D01*
X188404804Y-40226227D01*
X188410765Y-40202429D01*
X188419030Y-40179329D01*
X188429520Y-40157151D01*
X188442133Y-40136107D01*
X188456747Y-40116402D01*
X188473223Y-40098223D01*
X188491402Y-40081747D01*
X188511107Y-40067133D01*
X188532151Y-40054520D01*
X188554329Y-40044030D01*
X188577429Y-40035765D01*
X188601227Y-40029804D01*
X188625496Y-40026204D01*
X188650000Y-40025000D01*
X189850000Y-40025000D01*
X189874504Y-40026204D01*
G37*
G04 #@! TD.AperFunction*
D13*
X182000000Y-41025000D03*
G04 #@! TA.AperFunction,ComponentPad*
D14*
G36*
X180124504Y-40026204D02*
G01*
X180148773Y-40029804D01*
X180172571Y-40035765D01*
X180195671Y-40044030D01*
X180217849Y-40054520D01*
X180238893Y-40067133D01*
X180258598Y-40081747D01*
X180276777Y-40098223D01*
X180293253Y-40116402D01*
X180307867Y-40136107D01*
X180320480Y-40157151D01*
X180330970Y-40179329D01*
X180339235Y-40202429D01*
X180345196Y-40226227D01*
X180348796Y-40250496D01*
X180350000Y-40275000D01*
X180350000Y-41775000D01*
X180348796Y-41799504D01*
X180345196Y-41823773D01*
X180339235Y-41847571D01*
X180330970Y-41870671D01*
X180320480Y-41892849D01*
X180307867Y-41913893D01*
X180293253Y-41933598D01*
X180276777Y-41951777D01*
X180258598Y-41968253D01*
X180238893Y-41982867D01*
X180217849Y-41995480D01*
X180195671Y-42005970D01*
X180172571Y-42014235D01*
X180148773Y-42020196D01*
X180124504Y-42023796D01*
X180100000Y-42025000D01*
X178900000Y-42025000D01*
X178875496Y-42023796D01*
X178851227Y-42020196D01*
X178827429Y-42014235D01*
X178804329Y-42005970D01*
X178782151Y-41995480D01*
X178761107Y-41982867D01*
X178741402Y-41968253D01*
X178723223Y-41951777D01*
X178706747Y-41933598D01*
X178692133Y-41913893D01*
X178679520Y-41892849D01*
X178669030Y-41870671D01*
X178660765Y-41847571D01*
X178654804Y-41823773D01*
X178651204Y-41799504D01*
X178650000Y-41775000D01*
X178650000Y-40275000D01*
X178651204Y-40250496D01*
X178654804Y-40226227D01*
X178660765Y-40202429D01*
X178669030Y-40179329D01*
X178679520Y-40157151D01*
X178692133Y-40136107D01*
X178706747Y-40116402D01*
X178723223Y-40098223D01*
X178741402Y-40081747D01*
X178761107Y-40067133D01*
X178782151Y-40054520D01*
X178804329Y-40044030D01*
X178827429Y-40035765D01*
X178851227Y-40029804D01*
X178875496Y-40026204D01*
X178900000Y-40025000D01*
X180100000Y-40025000D01*
X180124504Y-40026204D01*
G37*
G04 #@! TD.AperFunction*
D13*
X243000000Y-30500000D03*
G04 #@! TA.AperFunction,ComponentPad*
D14*
G36*
X241124504Y-29501204D02*
G01*
X241148773Y-29504804D01*
X241172571Y-29510765D01*
X241195671Y-29519030D01*
X241217849Y-29529520D01*
X241238893Y-29542133D01*
X241258598Y-29556747D01*
X241276777Y-29573223D01*
X241293253Y-29591402D01*
X241307867Y-29611107D01*
X241320480Y-29632151D01*
X241330970Y-29654329D01*
X241339235Y-29677429D01*
X241345196Y-29701227D01*
X241348796Y-29725496D01*
X241350000Y-29750000D01*
X241350000Y-31250000D01*
X241348796Y-31274504D01*
X241345196Y-31298773D01*
X241339235Y-31322571D01*
X241330970Y-31345671D01*
X241320480Y-31367849D01*
X241307867Y-31388893D01*
X241293253Y-31408598D01*
X241276777Y-31426777D01*
X241258598Y-31443253D01*
X241238893Y-31457867D01*
X241217849Y-31470480D01*
X241195671Y-31480970D01*
X241172571Y-31489235D01*
X241148773Y-31495196D01*
X241124504Y-31498796D01*
X241100000Y-31500000D01*
X239900000Y-31500000D01*
X239875496Y-31498796D01*
X239851227Y-31495196D01*
X239827429Y-31489235D01*
X239804329Y-31480970D01*
X239782151Y-31470480D01*
X239761107Y-31457867D01*
X239741402Y-31443253D01*
X239723223Y-31426777D01*
X239706747Y-31408598D01*
X239692133Y-31388893D01*
X239679520Y-31367849D01*
X239669030Y-31345671D01*
X239660765Y-31322571D01*
X239654804Y-31298773D01*
X239651204Y-31274504D01*
X239650000Y-31250000D01*
X239650000Y-29750000D01*
X239651204Y-29725496D01*
X239654804Y-29701227D01*
X239660765Y-29677429D01*
X239669030Y-29654329D01*
X239679520Y-29632151D01*
X239692133Y-29611107D01*
X239706747Y-29591402D01*
X239723223Y-29573223D01*
X239741402Y-29556747D01*
X239761107Y-29542133D01*
X239782151Y-29529520D01*
X239804329Y-29519030D01*
X239827429Y-29510765D01*
X239851227Y-29504804D01*
X239875496Y-29501204D01*
X239900000Y-29500000D01*
X241100000Y-29500000D01*
X241124504Y-29501204D01*
G37*
G04 #@! TD.AperFunction*
D13*
X243000000Y-41025000D03*
G04 #@! TA.AperFunction,ComponentPad*
D14*
G36*
X241124504Y-40026204D02*
G01*
X241148773Y-40029804D01*
X241172571Y-40035765D01*
X241195671Y-40044030D01*
X241217849Y-40054520D01*
X241238893Y-40067133D01*
X241258598Y-40081747D01*
X241276777Y-40098223D01*
X241293253Y-40116402D01*
X241307867Y-40136107D01*
X241320480Y-40157151D01*
X241330970Y-40179329D01*
X241339235Y-40202429D01*
X241345196Y-40226227D01*
X241348796Y-40250496D01*
X241350000Y-40275000D01*
X241350000Y-41775000D01*
X241348796Y-41799504D01*
X241345196Y-41823773D01*
X241339235Y-41847571D01*
X241330970Y-41870671D01*
X241320480Y-41892849D01*
X241307867Y-41913893D01*
X241293253Y-41933598D01*
X241276777Y-41951777D01*
X241258598Y-41968253D01*
X241238893Y-41982867D01*
X241217849Y-41995480D01*
X241195671Y-42005970D01*
X241172571Y-42014235D01*
X241148773Y-42020196D01*
X241124504Y-42023796D01*
X241100000Y-42025000D01*
X239900000Y-42025000D01*
X239875496Y-42023796D01*
X239851227Y-42020196D01*
X239827429Y-42014235D01*
X239804329Y-42005970D01*
X239782151Y-41995480D01*
X239761107Y-41982867D01*
X239741402Y-41968253D01*
X239723223Y-41951777D01*
X239706747Y-41933598D01*
X239692133Y-41913893D01*
X239679520Y-41892849D01*
X239669030Y-41870671D01*
X239660765Y-41847571D01*
X239654804Y-41823773D01*
X239651204Y-41799504D01*
X239650000Y-41775000D01*
X239650000Y-40275000D01*
X239651204Y-40250496D01*
X239654804Y-40226227D01*
X239660765Y-40202429D01*
X239669030Y-40179329D01*
X239679520Y-40157151D01*
X239692133Y-40136107D01*
X239706747Y-40116402D01*
X239723223Y-40098223D01*
X239741402Y-40081747D01*
X239761107Y-40067133D01*
X239782151Y-40054520D01*
X239804329Y-40044030D01*
X239827429Y-40035765D01*
X239851227Y-40029804D01*
X239875496Y-40026204D01*
X239900000Y-40025000D01*
X241100000Y-40025000D01*
X241124504Y-40026204D01*
G37*
G04 #@! TD.AperFunction*
D13*
X243000000Y-51250000D03*
G04 #@! TA.AperFunction,ComponentPad*
D14*
G36*
X241124504Y-50251204D02*
G01*
X241148773Y-50254804D01*
X241172571Y-50260765D01*
X241195671Y-50269030D01*
X241217849Y-50279520D01*
X241238893Y-50292133D01*
X241258598Y-50306747D01*
X241276777Y-50323223D01*
X241293253Y-50341402D01*
X241307867Y-50361107D01*
X241320480Y-50382151D01*
X241330970Y-50404329D01*
X241339235Y-50427429D01*
X241345196Y-50451227D01*
X241348796Y-50475496D01*
X241350000Y-50500000D01*
X241350000Y-52000000D01*
X241348796Y-52024504D01*
X241345196Y-52048773D01*
X241339235Y-52072571D01*
X241330970Y-52095671D01*
X241320480Y-52117849D01*
X241307867Y-52138893D01*
X241293253Y-52158598D01*
X241276777Y-52176777D01*
X241258598Y-52193253D01*
X241238893Y-52207867D01*
X241217849Y-52220480D01*
X241195671Y-52230970D01*
X241172571Y-52239235D01*
X241148773Y-52245196D01*
X241124504Y-52248796D01*
X241100000Y-52250000D01*
X239900000Y-52250000D01*
X239875496Y-52248796D01*
X239851227Y-52245196D01*
X239827429Y-52239235D01*
X239804329Y-52230970D01*
X239782151Y-52220480D01*
X239761107Y-52207867D01*
X239741402Y-52193253D01*
X239723223Y-52176777D01*
X239706747Y-52158598D01*
X239692133Y-52138893D01*
X239679520Y-52117849D01*
X239669030Y-52095671D01*
X239660765Y-52072571D01*
X239654804Y-52048773D01*
X239651204Y-52024504D01*
X239650000Y-52000000D01*
X239650000Y-50500000D01*
X239651204Y-50475496D01*
X239654804Y-50451227D01*
X239660765Y-50427429D01*
X239669030Y-50404329D01*
X239679520Y-50382151D01*
X239692133Y-50361107D01*
X239706747Y-50341402D01*
X239723223Y-50323223D01*
X239741402Y-50306747D01*
X239761107Y-50292133D01*
X239782151Y-50279520D01*
X239804329Y-50269030D01*
X239827429Y-50260765D01*
X239851227Y-50254804D01*
X239875496Y-50251204D01*
X239900000Y-50250000D01*
X241100000Y-50250000D01*
X241124504Y-50251204D01*
G37*
G04 #@! TD.AperFunction*
D13*
X233000000Y-30500000D03*
G04 #@! TA.AperFunction,ComponentPad*
D14*
G36*
X231124504Y-29501204D02*
G01*
X231148773Y-29504804D01*
X231172571Y-29510765D01*
X231195671Y-29519030D01*
X231217849Y-29529520D01*
X231238893Y-29542133D01*
X231258598Y-29556747D01*
X231276777Y-29573223D01*
X231293253Y-29591402D01*
X231307867Y-29611107D01*
X231320480Y-29632151D01*
X231330970Y-29654329D01*
X231339235Y-29677429D01*
X231345196Y-29701227D01*
X231348796Y-29725496D01*
X231350000Y-29750000D01*
X231350000Y-31250000D01*
X231348796Y-31274504D01*
X231345196Y-31298773D01*
X231339235Y-31322571D01*
X231330970Y-31345671D01*
X231320480Y-31367849D01*
X231307867Y-31388893D01*
X231293253Y-31408598D01*
X231276777Y-31426777D01*
X231258598Y-31443253D01*
X231238893Y-31457867D01*
X231217849Y-31470480D01*
X231195671Y-31480970D01*
X231172571Y-31489235D01*
X231148773Y-31495196D01*
X231124504Y-31498796D01*
X231100000Y-31500000D01*
X229900000Y-31500000D01*
X229875496Y-31498796D01*
X229851227Y-31495196D01*
X229827429Y-31489235D01*
X229804329Y-31480970D01*
X229782151Y-31470480D01*
X229761107Y-31457867D01*
X229741402Y-31443253D01*
X229723223Y-31426777D01*
X229706747Y-31408598D01*
X229692133Y-31388893D01*
X229679520Y-31367849D01*
X229669030Y-31345671D01*
X229660765Y-31322571D01*
X229654804Y-31298773D01*
X229651204Y-31274504D01*
X229650000Y-31250000D01*
X229650000Y-29750000D01*
X229651204Y-29725496D01*
X229654804Y-29701227D01*
X229660765Y-29677429D01*
X229669030Y-29654329D01*
X229679520Y-29632151D01*
X229692133Y-29611107D01*
X229706747Y-29591402D01*
X229723223Y-29573223D01*
X229741402Y-29556747D01*
X229761107Y-29542133D01*
X229782151Y-29529520D01*
X229804329Y-29519030D01*
X229827429Y-29510765D01*
X229851227Y-29504804D01*
X229875496Y-29501204D01*
X229900000Y-29500000D01*
X231100000Y-29500000D01*
X231124504Y-29501204D01*
G37*
G04 #@! TD.AperFunction*
D13*
X233000000Y-41025000D03*
G04 #@! TA.AperFunction,ComponentPad*
D14*
G36*
X231124504Y-40026204D02*
G01*
X231148773Y-40029804D01*
X231172571Y-40035765D01*
X231195671Y-40044030D01*
X231217849Y-40054520D01*
X231238893Y-40067133D01*
X231258598Y-40081747D01*
X231276777Y-40098223D01*
X231293253Y-40116402D01*
X231307867Y-40136107D01*
X231320480Y-40157151D01*
X231330970Y-40179329D01*
X231339235Y-40202429D01*
X231345196Y-40226227D01*
X231348796Y-40250496D01*
X231350000Y-40275000D01*
X231350000Y-41775000D01*
X231348796Y-41799504D01*
X231345196Y-41823773D01*
X231339235Y-41847571D01*
X231330970Y-41870671D01*
X231320480Y-41892849D01*
X231307867Y-41913893D01*
X231293253Y-41933598D01*
X231276777Y-41951777D01*
X231258598Y-41968253D01*
X231238893Y-41982867D01*
X231217849Y-41995480D01*
X231195671Y-42005970D01*
X231172571Y-42014235D01*
X231148773Y-42020196D01*
X231124504Y-42023796D01*
X231100000Y-42025000D01*
X229900000Y-42025000D01*
X229875496Y-42023796D01*
X229851227Y-42020196D01*
X229827429Y-42014235D01*
X229804329Y-42005970D01*
X229782151Y-41995480D01*
X229761107Y-41982867D01*
X229741402Y-41968253D01*
X229723223Y-41951777D01*
X229706747Y-41933598D01*
X229692133Y-41913893D01*
X229679520Y-41892849D01*
X229669030Y-41870671D01*
X229660765Y-41847571D01*
X229654804Y-41823773D01*
X229651204Y-41799504D01*
X229650000Y-41775000D01*
X229650000Y-40275000D01*
X229651204Y-40250496D01*
X229654804Y-40226227D01*
X229660765Y-40202429D01*
X229669030Y-40179329D01*
X229679520Y-40157151D01*
X229692133Y-40136107D01*
X229706747Y-40116402D01*
X229723223Y-40098223D01*
X229741402Y-40081747D01*
X229761107Y-40067133D01*
X229782151Y-40054520D01*
X229804329Y-40044030D01*
X229827429Y-40035765D01*
X229851227Y-40029804D01*
X229875496Y-40026204D01*
X229900000Y-40025000D01*
X231100000Y-40025000D01*
X231124504Y-40026204D01*
G37*
G04 #@! TD.AperFunction*
D13*
X233000000Y-51250000D03*
G04 #@! TA.AperFunction,ComponentPad*
D14*
G36*
X231124504Y-50251204D02*
G01*
X231148773Y-50254804D01*
X231172571Y-50260765D01*
X231195671Y-50269030D01*
X231217849Y-50279520D01*
X231238893Y-50292133D01*
X231258598Y-50306747D01*
X231276777Y-50323223D01*
X231293253Y-50341402D01*
X231307867Y-50361107D01*
X231320480Y-50382151D01*
X231330970Y-50404329D01*
X231339235Y-50427429D01*
X231345196Y-50451227D01*
X231348796Y-50475496D01*
X231350000Y-50500000D01*
X231350000Y-52000000D01*
X231348796Y-52024504D01*
X231345196Y-52048773D01*
X231339235Y-52072571D01*
X231330970Y-52095671D01*
X231320480Y-52117849D01*
X231307867Y-52138893D01*
X231293253Y-52158598D01*
X231276777Y-52176777D01*
X231258598Y-52193253D01*
X231238893Y-52207867D01*
X231217849Y-52220480D01*
X231195671Y-52230970D01*
X231172571Y-52239235D01*
X231148773Y-52245196D01*
X231124504Y-52248796D01*
X231100000Y-52250000D01*
X229900000Y-52250000D01*
X229875496Y-52248796D01*
X229851227Y-52245196D01*
X229827429Y-52239235D01*
X229804329Y-52230970D01*
X229782151Y-52220480D01*
X229761107Y-52207867D01*
X229741402Y-52193253D01*
X229723223Y-52176777D01*
X229706747Y-52158598D01*
X229692133Y-52138893D01*
X229679520Y-52117849D01*
X229669030Y-52095671D01*
X229660765Y-52072571D01*
X229654804Y-52048773D01*
X229651204Y-52024504D01*
X229650000Y-52000000D01*
X229650000Y-50500000D01*
X229651204Y-50475496D01*
X229654804Y-50451227D01*
X229660765Y-50427429D01*
X229669030Y-50404329D01*
X229679520Y-50382151D01*
X229692133Y-50361107D01*
X229706747Y-50341402D01*
X229723223Y-50323223D01*
X229741402Y-50306747D01*
X229761107Y-50292133D01*
X229782151Y-50279520D01*
X229804329Y-50269030D01*
X229827429Y-50260765D01*
X229851227Y-50254804D01*
X229875496Y-50251204D01*
X229900000Y-50250000D01*
X231100000Y-50250000D01*
X231124504Y-50251204D01*
G37*
G04 #@! TD.AperFunction*
D13*
X223000000Y-41025000D03*
G04 #@! TA.AperFunction,ComponentPad*
D14*
G36*
X221124504Y-40026204D02*
G01*
X221148773Y-40029804D01*
X221172571Y-40035765D01*
X221195671Y-40044030D01*
X221217849Y-40054520D01*
X221238893Y-40067133D01*
X221258598Y-40081747D01*
X221276777Y-40098223D01*
X221293253Y-40116402D01*
X221307867Y-40136107D01*
X221320480Y-40157151D01*
X221330970Y-40179329D01*
X221339235Y-40202429D01*
X221345196Y-40226227D01*
X221348796Y-40250496D01*
X221350000Y-40275000D01*
X221350000Y-41775000D01*
X221348796Y-41799504D01*
X221345196Y-41823773D01*
X221339235Y-41847571D01*
X221330970Y-41870671D01*
X221320480Y-41892849D01*
X221307867Y-41913893D01*
X221293253Y-41933598D01*
X221276777Y-41951777D01*
X221258598Y-41968253D01*
X221238893Y-41982867D01*
X221217849Y-41995480D01*
X221195671Y-42005970D01*
X221172571Y-42014235D01*
X221148773Y-42020196D01*
X221124504Y-42023796D01*
X221100000Y-42025000D01*
X219900000Y-42025000D01*
X219875496Y-42023796D01*
X219851227Y-42020196D01*
X219827429Y-42014235D01*
X219804329Y-42005970D01*
X219782151Y-41995480D01*
X219761107Y-41982867D01*
X219741402Y-41968253D01*
X219723223Y-41951777D01*
X219706747Y-41933598D01*
X219692133Y-41913893D01*
X219679520Y-41892849D01*
X219669030Y-41870671D01*
X219660765Y-41847571D01*
X219654804Y-41823773D01*
X219651204Y-41799504D01*
X219650000Y-41775000D01*
X219650000Y-40275000D01*
X219651204Y-40250496D01*
X219654804Y-40226227D01*
X219660765Y-40202429D01*
X219669030Y-40179329D01*
X219679520Y-40157151D01*
X219692133Y-40136107D01*
X219706747Y-40116402D01*
X219723223Y-40098223D01*
X219741402Y-40081747D01*
X219761107Y-40067133D01*
X219782151Y-40054520D01*
X219804329Y-40044030D01*
X219827429Y-40035765D01*
X219851227Y-40029804D01*
X219875496Y-40026204D01*
X219900000Y-40025000D01*
X221100000Y-40025000D01*
X221124504Y-40026204D01*
G37*
G04 #@! TD.AperFunction*
D13*
X223000000Y-30500000D03*
G04 #@! TA.AperFunction,ComponentPad*
D14*
G36*
X221124504Y-29501204D02*
G01*
X221148773Y-29504804D01*
X221172571Y-29510765D01*
X221195671Y-29519030D01*
X221217849Y-29529520D01*
X221238893Y-29542133D01*
X221258598Y-29556747D01*
X221276777Y-29573223D01*
X221293253Y-29591402D01*
X221307867Y-29611107D01*
X221320480Y-29632151D01*
X221330970Y-29654329D01*
X221339235Y-29677429D01*
X221345196Y-29701227D01*
X221348796Y-29725496D01*
X221350000Y-29750000D01*
X221350000Y-31250000D01*
X221348796Y-31274504D01*
X221345196Y-31298773D01*
X221339235Y-31322571D01*
X221330970Y-31345671D01*
X221320480Y-31367849D01*
X221307867Y-31388893D01*
X221293253Y-31408598D01*
X221276777Y-31426777D01*
X221258598Y-31443253D01*
X221238893Y-31457867D01*
X221217849Y-31470480D01*
X221195671Y-31480970D01*
X221172571Y-31489235D01*
X221148773Y-31495196D01*
X221124504Y-31498796D01*
X221100000Y-31500000D01*
X219900000Y-31500000D01*
X219875496Y-31498796D01*
X219851227Y-31495196D01*
X219827429Y-31489235D01*
X219804329Y-31480970D01*
X219782151Y-31470480D01*
X219761107Y-31457867D01*
X219741402Y-31443253D01*
X219723223Y-31426777D01*
X219706747Y-31408598D01*
X219692133Y-31388893D01*
X219679520Y-31367849D01*
X219669030Y-31345671D01*
X219660765Y-31322571D01*
X219654804Y-31298773D01*
X219651204Y-31274504D01*
X219650000Y-31250000D01*
X219650000Y-29750000D01*
X219651204Y-29725496D01*
X219654804Y-29701227D01*
X219660765Y-29677429D01*
X219669030Y-29654329D01*
X219679520Y-29632151D01*
X219692133Y-29611107D01*
X219706747Y-29591402D01*
X219723223Y-29573223D01*
X219741402Y-29556747D01*
X219761107Y-29542133D01*
X219782151Y-29529520D01*
X219804329Y-29519030D01*
X219827429Y-29510765D01*
X219851227Y-29504804D01*
X219875496Y-29501204D01*
X219900000Y-29500000D01*
X221100000Y-29500000D01*
X221124504Y-29501204D01*
G37*
G04 #@! TD.AperFunction*
D13*
X223000000Y-51250000D03*
G04 #@! TA.AperFunction,ComponentPad*
D14*
G36*
X221124504Y-50251204D02*
G01*
X221148773Y-50254804D01*
X221172571Y-50260765D01*
X221195671Y-50269030D01*
X221217849Y-50279520D01*
X221238893Y-50292133D01*
X221258598Y-50306747D01*
X221276777Y-50323223D01*
X221293253Y-50341402D01*
X221307867Y-50361107D01*
X221320480Y-50382151D01*
X221330970Y-50404329D01*
X221339235Y-50427429D01*
X221345196Y-50451227D01*
X221348796Y-50475496D01*
X221350000Y-50500000D01*
X221350000Y-52000000D01*
X221348796Y-52024504D01*
X221345196Y-52048773D01*
X221339235Y-52072571D01*
X221330970Y-52095671D01*
X221320480Y-52117849D01*
X221307867Y-52138893D01*
X221293253Y-52158598D01*
X221276777Y-52176777D01*
X221258598Y-52193253D01*
X221238893Y-52207867D01*
X221217849Y-52220480D01*
X221195671Y-52230970D01*
X221172571Y-52239235D01*
X221148773Y-52245196D01*
X221124504Y-52248796D01*
X221100000Y-52250000D01*
X219900000Y-52250000D01*
X219875496Y-52248796D01*
X219851227Y-52245196D01*
X219827429Y-52239235D01*
X219804329Y-52230970D01*
X219782151Y-52220480D01*
X219761107Y-52207867D01*
X219741402Y-52193253D01*
X219723223Y-52176777D01*
X219706747Y-52158598D01*
X219692133Y-52138893D01*
X219679520Y-52117849D01*
X219669030Y-52095671D01*
X219660765Y-52072571D01*
X219654804Y-52048773D01*
X219651204Y-52024504D01*
X219650000Y-52000000D01*
X219650000Y-50500000D01*
X219651204Y-50475496D01*
X219654804Y-50451227D01*
X219660765Y-50427429D01*
X219669030Y-50404329D01*
X219679520Y-50382151D01*
X219692133Y-50361107D01*
X219706747Y-50341402D01*
X219723223Y-50323223D01*
X219741402Y-50306747D01*
X219761107Y-50292133D01*
X219782151Y-50279520D01*
X219804329Y-50269030D01*
X219827429Y-50260765D01*
X219851227Y-50254804D01*
X219875496Y-50251204D01*
X219900000Y-50250000D01*
X221100000Y-50250000D01*
X221124504Y-50251204D01*
G37*
G04 #@! TD.AperFunction*
D13*
X213000000Y-30500000D03*
G04 #@! TA.AperFunction,ComponentPad*
D14*
G36*
X211124504Y-29501204D02*
G01*
X211148773Y-29504804D01*
X211172571Y-29510765D01*
X211195671Y-29519030D01*
X211217849Y-29529520D01*
X211238893Y-29542133D01*
X211258598Y-29556747D01*
X211276777Y-29573223D01*
X211293253Y-29591402D01*
X211307867Y-29611107D01*
X211320480Y-29632151D01*
X211330970Y-29654329D01*
X211339235Y-29677429D01*
X211345196Y-29701227D01*
X211348796Y-29725496D01*
X211350000Y-29750000D01*
X211350000Y-31250000D01*
X211348796Y-31274504D01*
X211345196Y-31298773D01*
X211339235Y-31322571D01*
X211330970Y-31345671D01*
X211320480Y-31367849D01*
X211307867Y-31388893D01*
X211293253Y-31408598D01*
X211276777Y-31426777D01*
X211258598Y-31443253D01*
X211238893Y-31457867D01*
X211217849Y-31470480D01*
X211195671Y-31480970D01*
X211172571Y-31489235D01*
X211148773Y-31495196D01*
X211124504Y-31498796D01*
X211100000Y-31500000D01*
X209900000Y-31500000D01*
X209875496Y-31498796D01*
X209851227Y-31495196D01*
X209827429Y-31489235D01*
X209804329Y-31480970D01*
X209782151Y-31470480D01*
X209761107Y-31457867D01*
X209741402Y-31443253D01*
X209723223Y-31426777D01*
X209706747Y-31408598D01*
X209692133Y-31388893D01*
X209679520Y-31367849D01*
X209669030Y-31345671D01*
X209660765Y-31322571D01*
X209654804Y-31298773D01*
X209651204Y-31274504D01*
X209650000Y-31250000D01*
X209650000Y-29750000D01*
X209651204Y-29725496D01*
X209654804Y-29701227D01*
X209660765Y-29677429D01*
X209669030Y-29654329D01*
X209679520Y-29632151D01*
X209692133Y-29611107D01*
X209706747Y-29591402D01*
X209723223Y-29573223D01*
X209741402Y-29556747D01*
X209761107Y-29542133D01*
X209782151Y-29529520D01*
X209804329Y-29519030D01*
X209827429Y-29510765D01*
X209851227Y-29504804D01*
X209875496Y-29501204D01*
X209900000Y-29500000D01*
X211100000Y-29500000D01*
X211124504Y-29501204D01*
G37*
G04 #@! TD.AperFunction*
D13*
X213000000Y-41025000D03*
G04 #@! TA.AperFunction,ComponentPad*
D14*
G36*
X211124504Y-40026204D02*
G01*
X211148773Y-40029804D01*
X211172571Y-40035765D01*
X211195671Y-40044030D01*
X211217849Y-40054520D01*
X211238893Y-40067133D01*
X211258598Y-40081747D01*
X211276777Y-40098223D01*
X211293253Y-40116402D01*
X211307867Y-40136107D01*
X211320480Y-40157151D01*
X211330970Y-40179329D01*
X211339235Y-40202429D01*
X211345196Y-40226227D01*
X211348796Y-40250496D01*
X211350000Y-40275000D01*
X211350000Y-41775000D01*
X211348796Y-41799504D01*
X211345196Y-41823773D01*
X211339235Y-41847571D01*
X211330970Y-41870671D01*
X211320480Y-41892849D01*
X211307867Y-41913893D01*
X211293253Y-41933598D01*
X211276777Y-41951777D01*
X211258598Y-41968253D01*
X211238893Y-41982867D01*
X211217849Y-41995480D01*
X211195671Y-42005970D01*
X211172571Y-42014235D01*
X211148773Y-42020196D01*
X211124504Y-42023796D01*
X211100000Y-42025000D01*
X209900000Y-42025000D01*
X209875496Y-42023796D01*
X209851227Y-42020196D01*
X209827429Y-42014235D01*
X209804329Y-42005970D01*
X209782151Y-41995480D01*
X209761107Y-41982867D01*
X209741402Y-41968253D01*
X209723223Y-41951777D01*
X209706747Y-41933598D01*
X209692133Y-41913893D01*
X209679520Y-41892849D01*
X209669030Y-41870671D01*
X209660765Y-41847571D01*
X209654804Y-41823773D01*
X209651204Y-41799504D01*
X209650000Y-41775000D01*
X209650000Y-40275000D01*
X209651204Y-40250496D01*
X209654804Y-40226227D01*
X209660765Y-40202429D01*
X209669030Y-40179329D01*
X209679520Y-40157151D01*
X209692133Y-40136107D01*
X209706747Y-40116402D01*
X209723223Y-40098223D01*
X209741402Y-40081747D01*
X209761107Y-40067133D01*
X209782151Y-40054520D01*
X209804329Y-40044030D01*
X209827429Y-40035765D01*
X209851227Y-40029804D01*
X209875496Y-40026204D01*
X209900000Y-40025000D01*
X211100000Y-40025000D01*
X211124504Y-40026204D01*
G37*
G04 #@! TD.AperFunction*
D13*
X213000000Y-51250000D03*
G04 #@! TA.AperFunction,ComponentPad*
D14*
G36*
X211124504Y-50251204D02*
G01*
X211148773Y-50254804D01*
X211172571Y-50260765D01*
X211195671Y-50269030D01*
X211217849Y-50279520D01*
X211238893Y-50292133D01*
X211258598Y-50306747D01*
X211276777Y-50323223D01*
X211293253Y-50341402D01*
X211307867Y-50361107D01*
X211320480Y-50382151D01*
X211330970Y-50404329D01*
X211339235Y-50427429D01*
X211345196Y-50451227D01*
X211348796Y-50475496D01*
X211350000Y-50500000D01*
X211350000Y-52000000D01*
X211348796Y-52024504D01*
X211345196Y-52048773D01*
X211339235Y-52072571D01*
X211330970Y-52095671D01*
X211320480Y-52117849D01*
X211307867Y-52138893D01*
X211293253Y-52158598D01*
X211276777Y-52176777D01*
X211258598Y-52193253D01*
X211238893Y-52207867D01*
X211217849Y-52220480D01*
X211195671Y-52230970D01*
X211172571Y-52239235D01*
X211148773Y-52245196D01*
X211124504Y-52248796D01*
X211100000Y-52250000D01*
X209900000Y-52250000D01*
X209875496Y-52248796D01*
X209851227Y-52245196D01*
X209827429Y-52239235D01*
X209804329Y-52230970D01*
X209782151Y-52220480D01*
X209761107Y-52207867D01*
X209741402Y-52193253D01*
X209723223Y-52176777D01*
X209706747Y-52158598D01*
X209692133Y-52138893D01*
X209679520Y-52117849D01*
X209669030Y-52095671D01*
X209660765Y-52072571D01*
X209654804Y-52048773D01*
X209651204Y-52024504D01*
X209650000Y-52000000D01*
X209650000Y-50500000D01*
X209651204Y-50475496D01*
X209654804Y-50451227D01*
X209660765Y-50427429D01*
X209669030Y-50404329D01*
X209679520Y-50382151D01*
X209692133Y-50361107D01*
X209706747Y-50341402D01*
X209723223Y-50323223D01*
X209741402Y-50306747D01*
X209761107Y-50292133D01*
X209782151Y-50279520D01*
X209804329Y-50269030D01*
X209827429Y-50260765D01*
X209851227Y-50254804D01*
X209875496Y-50251204D01*
X209900000Y-50250000D01*
X211100000Y-50250000D01*
X211124504Y-50251204D01*
G37*
G04 #@! TD.AperFunction*
D15*
X225750000Y-39750000D03*
X225750000Y-35750000D03*
X228750000Y-43750000D03*
X232250000Y-43750000D03*
X214500000Y-39000000D03*
X214500000Y-31100010D03*
X206500000Y-38000000D03*
X212750000Y-38000000D03*
D16*
X225750000Y-39750000D02*
X225750000Y-35750000D01*
X228750000Y-43750000D02*
X232250000Y-43750000D01*
X214500000Y-39000000D02*
X214500000Y-31100010D01*
X206500000Y-38000000D02*
X212750000Y-38000000D01*
D17*
G36*
X247373000Y-55340000D02*
G01*
X155877000Y-55340000D01*
X155877000Y-49074973D01*
X156979154Y-49074973D01*
X157007808Y-49195038D01*
X157133726Y-49483427D01*
X157313486Y-49741710D01*
X157540181Y-49959960D01*
X157805098Y-50129791D01*
X158098057Y-50244676D01*
X158407800Y-50300200D01*
X159373000Y-50300200D01*
X159373000Y-48827000D01*
X159627000Y-48827000D01*
X159627000Y-50300200D01*
X160592200Y-50300200D01*
X160901943Y-50244676D01*
X161194902Y-50129791D01*
X161459819Y-49959960D01*
X161686514Y-49741710D01*
X161866274Y-49483427D01*
X161992192Y-49195038D01*
X162020846Y-49074973D01*
X165179154Y-49074973D01*
X165207808Y-49195038D01*
X165333726Y-49483427D01*
X165513486Y-49741710D01*
X165740181Y-49959960D01*
X166005098Y-50129791D01*
X166298057Y-50244676D01*
X166607800Y-50300200D01*
X167573000Y-50300200D01*
X167573000Y-48827000D01*
X167827000Y-48827000D01*
X167827000Y-50300200D01*
X168792200Y-50300200D01*
X169101943Y-50244676D01*
X169394902Y-50129791D01*
X169659819Y-49959960D01*
X169886514Y-49741710D01*
X170028008Y-49538408D01*
X172421000Y-49538408D01*
X172421000Y-49813592D01*
X172474686Y-50083490D01*
X172579995Y-50337727D01*
X172732880Y-50566535D01*
X172927465Y-50761120D01*
X173156273Y-50914005D01*
X173410510Y-51019314D01*
X173680408Y-51073000D01*
X173955592Y-51073000D01*
X174225490Y-51019314D01*
X174479727Y-50914005D01*
X174708535Y-50761120D01*
X174903120Y-50566535D01*
X175056005Y-50337727D01*
X175068000Y-50308769D01*
X175079995Y-50337727D01*
X175232880Y-50566535D01*
X175427465Y-50761120D01*
X175656273Y-50914005D01*
X175910510Y-51019314D01*
X176180408Y-51073000D01*
X176455592Y-51073000D01*
X176725490Y-51019314D01*
X176979727Y-50914005D01*
X177208535Y-50761120D01*
X177403120Y-50566535D01*
X177489004Y-50438000D01*
X183045928Y-50438000D01*
X183058188Y-50562482D01*
X183094498Y-50682180D01*
X183153463Y-50792494D01*
X183232815Y-50889185D01*
X183329506Y-50968537D01*
X183439820Y-51027502D01*
X183559518Y-51063812D01*
X183684000Y-51076072D01*
X184160250Y-51073000D01*
X184319000Y-50914250D01*
X184319000Y-49803000D01*
X184573000Y-49803000D01*
X184573000Y-50914250D01*
X184731750Y-51073000D01*
X185208000Y-51076072D01*
X185332482Y-51063812D01*
X185452180Y-51027502D01*
X185562494Y-50968537D01*
X185659185Y-50889185D01*
X185696000Y-50844326D01*
X185732815Y-50889185D01*
X185829506Y-50968537D01*
X185939820Y-51027502D01*
X186059518Y-51063812D01*
X186184000Y-51076072D01*
X186660250Y-51073000D01*
X186819000Y-50914250D01*
X186819000Y-49803000D01*
X187073000Y-49803000D01*
X187073000Y-50914250D01*
X187231750Y-51073000D01*
X187708000Y-51076072D01*
X187832482Y-51063812D01*
X187952180Y-51027502D01*
X188062494Y-50968537D01*
X188159185Y-50889185D01*
X188238537Y-50792494D01*
X188297502Y-50682180D01*
X188333812Y-50562482D01*
X188346072Y-50438000D01*
X188343000Y-49961750D01*
X188184250Y-49803000D01*
X187073000Y-49803000D01*
X186819000Y-49803000D01*
X185707750Y-49803000D01*
X185696000Y-49814750D01*
X185684250Y-49803000D01*
X184573000Y-49803000D01*
X184319000Y-49803000D01*
X183207750Y-49803000D01*
X183049000Y-49961750D01*
X183045928Y-50438000D01*
X177489004Y-50438000D01*
X177556005Y-50337727D01*
X177661314Y-50083490D01*
X177715000Y-49813592D01*
X177715000Y-49584408D01*
X189921000Y-49584408D01*
X189921000Y-49859592D01*
X189974686Y-50129490D01*
X190079995Y-50383727D01*
X190232880Y-50612535D01*
X190427465Y-50807120D01*
X190656273Y-50960005D01*
X190910510Y-51065314D01*
X191180408Y-51119000D01*
X191455592Y-51119000D01*
X191725490Y-51065314D01*
X191979727Y-50960005D01*
X192208535Y-50807120D01*
X192403120Y-50612535D01*
X192556005Y-50383727D01*
X192568000Y-50354769D01*
X192579995Y-50383727D01*
X192732880Y-50612535D01*
X192927465Y-50807120D01*
X193156273Y-50960005D01*
X193410510Y-51065314D01*
X193680408Y-51119000D01*
X193955592Y-51119000D01*
X194225490Y-51065314D01*
X194479727Y-50960005D01*
X194708535Y-50807120D01*
X194903120Y-50612535D01*
X194989004Y-50484000D01*
X200545928Y-50484000D01*
X200558188Y-50608482D01*
X200594498Y-50728180D01*
X200653463Y-50838494D01*
X200732815Y-50935185D01*
X200829506Y-51014537D01*
X200939820Y-51073502D01*
X201059518Y-51109812D01*
X201184000Y-51122072D01*
X201660250Y-51119000D01*
X201819000Y-50960250D01*
X201819000Y-49849000D01*
X202073000Y-49849000D01*
X202073000Y-50960250D01*
X202231750Y-51119000D01*
X202708000Y-51122072D01*
X202832482Y-51109812D01*
X202952180Y-51073502D01*
X203062494Y-51014537D01*
X203159185Y-50935185D01*
X203196000Y-50890326D01*
X203232815Y-50935185D01*
X203329506Y-51014537D01*
X203439820Y-51073502D01*
X203559518Y-51109812D01*
X203684000Y-51122072D01*
X204160250Y-51119000D01*
X204319000Y-50960250D01*
X204319000Y-49849000D01*
X204573000Y-49849000D01*
X204573000Y-50960250D01*
X204731750Y-51119000D01*
X205208000Y-51122072D01*
X205332482Y-51109812D01*
X205452180Y-51073502D01*
X205562494Y-51014537D01*
X205659185Y-50935185D01*
X205738537Y-50838494D01*
X205797502Y-50728180D01*
X205833812Y-50608482D01*
X205844496Y-50500000D01*
X209011928Y-50500000D01*
X209011928Y-52000000D01*
X209028992Y-52173254D01*
X209079528Y-52339850D01*
X209161595Y-52493386D01*
X209272038Y-52627962D01*
X209406614Y-52738405D01*
X209560150Y-52820472D01*
X209726746Y-52871008D01*
X209900000Y-52888072D01*
X211100000Y-52888072D01*
X211273254Y-52871008D01*
X211439850Y-52820472D01*
X211593386Y-52738405D01*
X211727962Y-52627962D01*
X211838405Y-52493386D01*
X211892777Y-52391663D01*
X211944866Y-52455134D01*
X212170987Y-52640706D01*
X212428967Y-52778599D01*
X212708890Y-52863513D01*
X213000000Y-52892185D01*
X213291111Y-52863513D01*
X213571034Y-52778599D01*
X213829014Y-52640706D01*
X214055134Y-52455134D01*
X214240706Y-52229014D01*
X214378599Y-51971033D01*
X214463513Y-51691110D01*
X214485000Y-51472949D01*
X214485000Y-51027050D01*
X214463513Y-50808889D01*
X214378599Y-50528966D01*
X214363117Y-50500000D01*
X219011928Y-50500000D01*
X219011928Y-52000000D01*
X219028992Y-52173254D01*
X219079528Y-52339850D01*
X219161595Y-52493386D01*
X219272038Y-52627962D01*
X219406614Y-52738405D01*
X219560150Y-52820472D01*
X219726746Y-52871008D01*
X219900000Y-52888072D01*
X221100000Y-52888072D01*
X221273254Y-52871008D01*
X221439850Y-52820472D01*
X221593386Y-52738405D01*
X221727962Y-52627962D01*
X221838405Y-52493386D01*
X221892777Y-52391663D01*
X221944866Y-52455134D01*
X222170987Y-52640706D01*
X222428967Y-52778599D01*
X222708890Y-52863513D01*
X223000000Y-52892185D01*
X223291111Y-52863513D01*
X223571034Y-52778599D01*
X223829014Y-52640706D01*
X224055134Y-52455134D01*
X224240706Y-52229014D01*
X224378599Y-51971033D01*
X224463513Y-51691110D01*
X224485000Y-51472949D01*
X224485000Y-51027050D01*
X224463513Y-50808889D01*
X224378599Y-50528966D01*
X224363117Y-50500000D01*
X229011928Y-50500000D01*
X229011928Y-52000000D01*
X229028992Y-52173254D01*
X229079528Y-52339850D01*
X229161595Y-52493386D01*
X229272038Y-52627962D01*
X229406614Y-52738405D01*
X229560150Y-52820472D01*
X229726746Y-52871008D01*
X229900000Y-52888072D01*
X231100000Y-52888072D01*
X231273254Y-52871008D01*
X231439850Y-52820472D01*
X231593386Y-52738405D01*
X231727962Y-52627962D01*
X231838405Y-52493386D01*
X231892777Y-52391663D01*
X231944866Y-52455134D01*
X232170987Y-52640706D01*
X232428967Y-52778599D01*
X232708890Y-52863513D01*
X233000000Y-52892185D01*
X233291111Y-52863513D01*
X233571034Y-52778599D01*
X233829014Y-52640706D01*
X234055134Y-52455134D01*
X234240706Y-52229014D01*
X234378599Y-51971033D01*
X234463513Y-51691110D01*
X234485000Y-51472949D01*
X234485000Y-51027050D01*
X234463513Y-50808889D01*
X234378599Y-50528966D01*
X234363117Y-50500000D01*
X239011928Y-50500000D01*
X239011928Y-52000000D01*
X239028992Y-52173254D01*
X239079528Y-52339850D01*
X239161595Y-52493386D01*
X239272038Y-52627962D01*
X239406614Y-52738405D01*
X239560150Y-52820472D01*
X239726746Y-52871008D01*
X239900000Y-52888072D01*
X241100000Y-52888072D01*
X241273254Y-52871008D01*
X241439850Y-52820472D01*
X241593386Y-52738405D01*
X241727962Y-52627962D01*
X241838405Y-52493386D01*
X241892777Y-52391663D01*
X241944866Y-52455134D01*
X242170987Y-52640706D01*
X242428967Y-52778599D01*
X242708890Y-52863513D01*
X243000000Y-52892185D01*
X243291111Y-52863513D01*
X243571034Y-52778599D01*
X243829014Y-52640706D01*
X244055134Y-52455134D01*
X244240706Y-52229014D01*
X244378599Y-51971033D01*
X244463513Y-51691110D01*
X244485000Y-51472949D01*
X244485000Y-51027050D01*
X244463513Y-50808889D01*
X244378599Y-50528966D01*
X244240706Y-50270986D01*
X244055134Y-50044866D01*
X243829013Y-49859294D01*
X243571033Y-49721401D01*
X243291110Y-49636487D01*
X243000000Y-49607815D01*
X242708889Y-49636487D01*
X242428966Y-49721401D01*
X242170986Y-49859294D01*
X241944866Y-50044866D01*
X241892777Y-50108337D01*
X241838405Y-50006614D01*
X241727962Y-49872038D01*
X241593386Y-49761595D01*
X241439850Y-49679528D01*
X241273254Y-49628992D01*
X241100000Y-49611928D01*
X239900000Y-49611928D01*
X239726746Y-49628992D01*
X239560150Y-49679528D01*
X239406614Y-49761595D01*
X239272038Y-49872038D01*
X239161595Y-50006614D01*
X239079528Y-50160150D01*
X239028992Y-50326746D01*
X239011928Y-50500000D01*
X234363117Y-50500000D01*
X234240706Y-50270986D01*
X234055134Y-50044866D01*
X233829013Y-49859294D01*
X233571033Y-49721401D01*
X233291110Y-49636487D01*
X233000000Y-49607815D01*
X232708889Y-49636487D01*
X232428966Y-49721401D01*
X232170986Y-49859294D01*
X231944866Y-50044866D01*
X231892777Y-50108337D01*
X231838405Y-50006614D01*
X231727962Y-49872038D01*
X231593386Y-49761595D01*
X231439850Y-49679528D01*
X231273254Y-49628992D01*
X231100000Y-49611928D01*
X229900000Y-49611928D01*
X229726746Y-49628992D01*
X229560150Y-49679528D01*
X229406614Y-49761595D01*
X229272038Y-49872038D01*
X229161595Y-50006614D01*
X229079528Y-50160150D01*
X229028992Y-50326746D01*
X229011928Y-50500000D01*
X224363117Y-50500000D01*
X224240706Y-50270986D01*
X224055134Y-50044866D01*
X223829013Y-49859294D01*
X223571033Y-49721401D01*
X223291110Y-49636487D01*
X223000000Y-49607815D01*
X222708889Y-49636487D01*
X222428966Y-49721401D01*
X222170986Y-49859294D01*
X221944866Y-50044866D01*
X221892777Y-50108337D01*
X221838405Y-50006614D01*
X221727962Y-49872038D01*
X221593386Y-49761595D01*
X221439850Y-49679528D01*
X221273254Y-49628992D01*
X221100000Y-49611928D01*
X219900000Y-49611928D01*
X219726746Y-49628992D01*
X219560150Y-49679528D01*
X219406614Y-49761595D01*
X219272038Y-49872038D01*
X219161595Y-50006614D01*
X219079528Y-50160150D01*
X219028992Y-50326746D01*
X219011928Y-50500000D01*
X214363117Y-50500000D01*
X214240706Y-50270986D01*
X214055134Y-50044866D01*
X213829013Y-49859294D01*
X213571033Y-49721401D01*
X213291110Y-49636487D01*
X213000000Y-49607815D01*
X212708889Y-49636487D01*
X212428966Y-49721401D01*
X212170986Y-49859294D01*
X211944866Y-50044866D01*
X211892777Y-50108337D01*
X211838405Y-50006614D01*
X211727962Y-49872038D01*
X211593386Y-49761595D01*
X211439850Y-49679528D01*
X211273254Y-49628992D01*
X211100000Y-49611928D01*
X209900000Y-49611928D01*
X209726746Y-49628992D01*
X209560150Y-49679528D01*
X209406614Y-49761595D01*
X209272038Y-49872038D01*
X209161595Y-50006614D01*
X209079528Y-50160150D01*
X209028992Y-50326746D01*
X209011928Y-50500000D01*
X205844496Y-50500000D01*
X205846072Y-50484000D01*
X205843000Y-50007750D01*
X205684250Y-49849000D01*
X204573000Y-49849000D01*
X204319000Y-49849000D01*
X203207750Y-49849000D01*
X203196000Y-49860750D01*
X203184250Y-49849000D01*
X202073000Y-49849000D01*
X201819000Y-49849000D01*
X200707750Y-49849000D01*
X200549000Y-50007750D01*
X200545928Y-50484000D01*
X194989004Y-50484000D01*
X195056005Y-50383727D01*
X195161314Y-50129490D01*
X195215000Y-49859592D01*
X195215000Y-49584408D01*
X195161314Y-49314510D01*
X195056005Y-49060273D01*
X194989005Y-48960000D01*
X200545928Y-48960000D01*
X200549000Y-49436250D01*
X200707750Y-49595000D01*
X201819000Y-49595000D01*
X201819000Y-48483750D01*
X202073000Y-48483750D01*
X202073000Y-49595000D01*
X203184250Y-49595000D01*
X203196000Y-49583250D01*
X203207750Y-49595000D01*
X204319000Y-49595000D01*
X204319000Y-48483750D01*
X204573000Y-48483750D01*
X204573000Y-49595000D01*
X205684250Y-49595000D01*
X205843000Y-49436250D01*
X205846072Y-48960000D01*
X205833812Y-48835518D01*
X205797502Y-48715820D01*
X205738537Y-48605506D01*
X205659185Y-48508815D01*
X205562494Y-48429463D01*
X205452180Y-48370498D01*
X205332482Y-48334188D01*
X205208000Y-48321928D01*
X204731750Y-48325000D01*
X204573000Y-48483750D01*
X204319000Y-48483750D01*
X204160250Y-48325000D01*
X203684000Y-48321928D01*
X203559518Y-48334188D01*
X203439820Y-48370498D01*
X203329506Y-48429463D01*
X203232815Y-48508815D01*
X203196000Y-48553674D01*
X203159185Y-48508815D01*
X203062494Y-48429463D01*
X202952180Y-48370498D01*
X202832482Y-48334188D01*
X202708000Y-48321928D01*
X202231750Y-48325000D01*
X202073000Y-48483750D01*
X201819000Y-48483750D01*
X201660250Y-48325000D01*
X201184000Y-48321928D01*
X201059518Y-48334188D01*
X200939820Y-48370498D01*
X200829506Y-48429463D01*
X200732815Y-48508815D01*
X200653463Y-48605506D01*
X200594498Y-48715820D01*
X200558188Y-48835518D01*
X200545928Y-48960000D01*
X194989005Y-48960000D01*
X194903120Y-48831465D01*
X194708535Y-48636880D01*
X194479727Y-48483995D01*
X194225490Y-48378686D01*
X193955592Y-48325000D01*
X193680408Y-48325000D01*
X193410510Y-48378686D01*
X193156273Y-48483995D01*
X192927465Y-48636880D01*
X192732880Y-48831465D01*
X192579995Y-49060273D01*
X192568000Y-49089231D01*
X192556005Y-49060273D01*
X192403120Y-48831465D01*
X192208535Y-48636880D01*
X191979727Y-48483995D01*
X191725490Y-48378686D01*
X191455592Y-48325000D01*
X191180408Y-48325000D01*
X190910510Y-48378686D01*
X190656273Y-48483995D01*
X190427465Y-48636880D01*
X190232880Y-48831465D01*
X190079995Y-49060273D01*
X189974686Y-49314510D01*
X189921000Y-49584408D01*
X177715000Y-49584408D01*
X177715000Y-49538408D01*
X177661314Y-49268510D01*
X177556005Y-49014273D01*
X177489005Y-48914000D01*
X183045928Y-48914000D01*
X183049000Y-49390250D01*
X183207750Y-49549000D01*
X184319000Y-49549000D01*
X184319000Y-48437750D01*
X184573000Y-48437750D01*
X184573000Y-49549000D01*
X185684250Y-49549000D01*
X185696000Y-49537250D01*
X185707750Y-49549000D01*
X186819000Y-49549000D01*
X186819000Y-48437750D01*
X187073000Y-48437750D01*
X187073000Y-49549000D01*
X188184250Y-49549000D01*
X188343000Y-49390250D01*
X188346072Y-48914000D01*
X188333812Y-48789518D01*
X188297502Y-48669820D01*
X188238537Y-48559506D01*
X188159185Y-48462815D01*
X188062494Y-48383463D01*
X187952180Y-48324498D01*
X187832482Y-48288188D01*
X187708000Y-48275928D01*
X187231750Y-48279000D01*
X187073000Y-48437750D01*
X186819000Y-48437750D01*
X186660250Y-48279000D01*
X186184000Y-48275928D01*
X186059518Y-48288188D01*
X185939820Y-48324498D01*
X185829506Y-48383463D01*
X185732815Y-48462815D01*
X185696000Y-48507674D01*
X185659185Y-48462815D01*
X185562494Y-48383463D01*
X185452180Y-48324498D01*
X185332482Y-48288188D01*
X185208000Y-48275928D01*
X184731750Y-48279000D01*
X184573000Y-48437750D01*
X184319000Y-48437750D01*
X184160250Y-48279000D01*
X183684000Y-48275928D01*
X183559518Y-48288188D01*
X183439820Y-48324498D01*
X183329506Y-48383463D01*
X183232815Y-48462815D01*
X183153463Y-48559506D01*
X183094498Y-48669820D01*
X183058188Y-48789518D01*
X183045928Y-48914000D01*
X177489005Y-48914000D01*
X177403120Y-48785465D01*
X177208535Y-48590880D01*
X176979727Y-48437995D01*
X176725490Y-48332686D01*
X176455592Y-48279000D01*
X176180408Y-48279000D01*
X175910510Y-48332686D01*
X175656273Y-48437995D01*
X175427465Y-48590880D01*
X175232880Y-48785465D01*
X175079995Y-49014273D01*
X175068000Y-49043231D01*
X175056005Y-49014273D01*
X174903120Y-48785465D01*
X174708535Y-48590880D01*
X174479727Y-48437995D01*
X174225490Y-48332686D01*
X173955592Y-48279000D01*
X173680408Y-48279000D01*
X173410510Y-48332686D01*
X173156273Y-48437995D01*
X172927465Y-48590880D01*
X172732880Y-48785465D01*
X172579995Y-49014273D01*
X172474686Y-49268510D01*
X172421000Y-49538408D01*
X170028008Y-49538408D01*
X170066274Y-49483427D01*
X170192192Y-49195038D01*
X170220846Y-49074973D01*
X170101044Y-48827000D01*
X167827000Y-48827000D01*
X167573000Y-48827000D01*
X165298956Y-48827000D01*
X165179154Y-49074973D01*
X162020846Y-49074973D01*
X161901044Y-48827000D01*
X159627000Y-48827000D01*
X159373000Y-48827000D01*
X157098956Y-48827000D01*
X156979154Y-49074973D01*
X155877000Y-49074973D01*
X155877000Y-48325027D01*
X156979154Y-48325027D01*
X157098956Y-48573000D01*
X159373000Y-48573000D01*
X159373000Y-47099800D01*
X159627000Y-47099800D01*
X159627000Y-48573000D01*
X161901044Y-48573000D01*
X162020846Y-48325027D01*
X165179154Y-48325027D01*
X165298956Y-48573000D01*
X167573000Y-48573000D01*
X167573000Y-47099800D01*
X167827000Y-47099800D01*
X167827000Y-48573000D01*
X170101044Y-48573000D01*
X170220846Y-48325027D01*
X170192192Y-48204962D01*
X170066274Y-47916573D01*
X169886514Y-47658290D01*
X169659819Y-47440040D01*
X169394902Y-47270209D01*
X169101943Y-47155324D01*
X168792200Y-47099800D01*
X167827000Y-47099800D01*
X167573000Y-47099800D01*
X166607800Y-47099800D01*
X166298057Y-47155324D01*
X166005098Y-47270209D01*
X165740181Y-47440040D01*
X165513486Y-47658290D01*
X165333726Y-47916573D01*
X165207808Y-48204962D01*
X165179154Y-48325027D01*
X162020846Y-48325027D01*
X161992192Y-48204962D01*
X161866274Y-47916573D01*
X161686514Y-47658290D01*
X161459819Y-47440040D01*
X161194902Y-47270209D01*
X160901943Y-47155324D01*
X160592200Y-47099800D01*
X159627000Y-47099800D01*
X159373000Y-47099800D01*
X158407800Y-47099800D01*
X158098057Y-47155324D01*
X157805098Y-47270209D01*
X157540181Y-47440040D01*
X157313486Y-47658290D01*
X157133726Y-47916573D01*
X157007808Y-48204962D01*
X156979154Y-48325027D01*
X155877000Y-48325027D01*
X155877000Y-43700000D01*
X156926858Y-43700000D01*
X156957754Y-44013694D01*
X157049255Y-44315333D01*
X157197845Y-44593325D01*
X157397813Y-44836987D01*
X157641475Y-45036955D01*
X157919467Y-45185545D01*
X158221106Y-45277046D01*
X158456194Y-45300200D01*
X160543806Y-45300200D01*
X160778894Y-45277046D01*
X161080533Y-45185545D01*
X161358525Y-45036955D01*
X161602187Y-44836987D01*
X161802155Y-44593325D01*
X161950745Y-44315333D01*
X162042246Y-44013694D01*
X162073142Y-43700000D01*
X165126858Y-43700000D01*
X165157754Y-44013694D01*
X165249255Y-44315333D01*
X165397845Y-44593325D01*
X165597813Y-44836987D01*
X165841475Y-45036955D01*
X166119467Y-45185545D01*
X166421106Y-45277046D01*
X166656194Y-45300200D01*
X168743806Y-45300200D01*
X168978894Y-45277046D01*
X169280533Y-45185545D01*
X169558525Y-45036955D01*
X169802187Y-44836987D01*
X170002155Y-44593325D01*
X170150745Y-44315333D01*
X170242246Y-44013694D01*
X170273142Y-43700000D01*
X170268027Y-43648061D01*
X227715000Y-43648061D01*
X227715000Y-43851939D01*
X227754774Y-44051898D01*
X227832795Y-44240256D01*
X227946063Y-44409774D01*
X228090226Y-44553937D01*
X228259744Y-44667205D01*
X228448102Y-44745226D01*
X228648061Y-44785000D01*
X228851939Y-44785000D01*
X229051898Y-44745226D01*
X229240256Y-44667205D01*
X229288454Y-44635000D01*
X231711546Y-44635000D01*
X231759744Y-44667205D01*
X231948102Y-44745226D01*
X232148061Y-44785000D01*
X232351939Y-44785000D01*
X232551898Y-44745226D01*
X232740256Y-44667205D01*
X232909774Y-44553937D01*
X233053937Y-44409774D01*
X233167205Y-44240256D01*
X233245226Y-44051898D01*
X233285000Y-43851939D01*
X233285000Y-43648061D01*
X233245226Y-43448102D01*
X233167205Y-43259744D01*
X233053937Y-43090226D01*
X232909774Y-42946063D01*
X232740256Y-42832795D01*
X232551898Y-42754774D01*
X232351939Y-42715000D01*
X232148061Y-42715000D01*
X231948102Y-42754774D01*
X231759744Y-42832795D01*
X231711546Y-42865000D01*
X229288454Y-42865000D01*
X229240256Y-42832795D01*
X229051898Y-42754774D01*
X228851939Y-42715000D01*
X228648061Y-42715000D01*
X228448102Y-42754774D01*
X228259744Y-42832795D01*
X228090226Y-42946063D01*
X227946063Y-43090226D01*
X227832795Y-43259744D01*
X227754774Y-43448102D01*
X227715000Y-43648061D01*
X170268027Y-43648061D01*
X170242246Y-43386306D01*
X170150745Y-43084667D01*
X170002155Y-42806675D01*
X169802187Y-42563013D01*
X169558525Y-42363045D01*
X169280533Y-42214455D01*
X168978894Y-42122954D01*
X168743806Y-42099800D01*
X166656194Y-42099800D01*
X166421106Y-42122954D01*
X166119467Y-42214455D01*
X165841475Y-42363045D01*
X165597813Y-42563013D01*
X165397845Y-42806675D01*
X165249255Y-43084667D01*
X165157754Y-43386306D01*
X165126858Y-43700000D01*
X162073142Y-43700000D01*
X162042246Y-43386306D01*
X161950745Y-43084667D01*
X161802155Y-42806675D01*
X161602187Y-42563013D01*
X161358525Y-42363045D01*
X161080533Y-42214455D01*
X160778894Y-42122954D01*
X160543806Y-42099800D01*
X158456194Y-42099800D01*
X158221106Y-42122954D01*
X157919467Y-42214455D01*
X157641475Y-42363045D01*
X157397813Y-42563013D01*
X157197845Y-42806675D01*
X157049255Y-43084667D01*
X156957754Y-43386306D01*
X156926858Y-43700000D01*
X155877000Y-43700000D01*
X155877000Y-40275000D01*
X178011928Y-40275000D01*
X178011928Y-41775000D01*
X178028992Y-41948254D01*
X178079528Y-42114850D01*
X178161595Y-42268386D01*
X178272038Y-42402962D01*
X178406614Y-42513405D01*
X178560150Y-42595472D01*
X178726746Y-42646008D01*
X178900000Y-42663072D01*
X180100000Y-42663072D01*
X180273254Y-42646008D01*
X180439850Y-42595472D01*
X180593386Y-42513405D01*
X180727962Y-42402962D01*
X180838405Y-42268386D01*
X180892777Y-42166663D01*
X180944866Y-42230134D01*
X181170987Y-42415706D01*
X181428967Y-42553599D01*
X181708890Y-42638513D01*
X182000000Y-42667185D01*
X182291111Y-42638513D01*
X182571034Y-42553599D01*
X182829014Y-42415706D01*
X183055134Y-42230134D01*
X183240706Y-42004014D01*
X183378599Y-41746033D01*
X183463513Y-41466110D01*
X183485000Y-41247949D01*
X183485000Y-40802050D01*
X183463513Y-40583889D01*
X183378599Y-40303966D01*
X183363117Y-40275000D01*
X187761928Y-40275000D01*
X187761928Y-41775000D01*
X187778992Y-41948254D01*
X187829528Y-42114850D01*
X187911595Y-42268386D01*
X188022038Y-42402962D01*
X188156614Y-42513405D01*
X188310150Y-42595472D01*
X188476746Y-42646008D01*
X188650000Y-42663072D01*
X189850000Y-42663072D01*
X190023254Y-42646008D01*
X190189850Y-42595472D01*
X190343386Y-42513405D01*
X190477962Y-42402962D01*
X190588405Y-42268386D01*
X190642777Y-42166663D01*
X190694866Y-42230134D01*
X190920987Y-42415706D01*
X191178967Y-42553599D01*
X191458890Y-42638513D01*
X191750000Y-42667185D01*
X192041111Y-42638513D01*
X192321034Y-42553599D01*
X192579014Y-42415706D01*
X192805134Y-42230134D01*
X192990706Y-42004014D01*
X193128599Y-41746033D01*
X193213513Y-41466110D01*
X193235000Y-41247949D01*
X193235000Y-40802050D01*
X193213513Y-40583889D01*
X193128599Y-40303966D01*
X193113117Y-40275000D01*
X197511928Y-40275000D01*
X197511928Y-41775000D01*
X197528992Y-41948254D01*
X197579528Y-42114850D01*
X197661595Y-42268386D01*
X197772038Y-42402962D01*
X197906614Y-42513405D01*
X198060150Y-42595472D01*
X198226746Y-42646008D01*
X198400000Y-42663072D01*
X199600000Y-42663072D01*
X199773254Y-42646008D01*
X199939850Y-42595472D01*
X200093386Y-42513405D01*
X200227962Y-42402962D01*
X200338405Y-42268386D01*
X200392777Y-42166663D01*
X200444866Y-42230134D01*
X200670987Y-42415706D01*
X200928967Y-42553599D01*
X201208890Y-42638513D01*
X201500000Y-42667185D01*
X201791111Y-42638513D01*
X202071034Y-42553599D01*
X202329014Y-42415706D01*
X202555134Y-42230134D01*
X202740706Y-42004014D01*
X202878599Y-41746033D01*
X202963513Y-41466110D01*
X202985000Y-41247949D01*
X202985000Y-40802050D01*
X202963513Y-40583889D01*
X202878599Y-40303966D01*
X202740706Y-40045986D01*
X202555134Y-39819866D01*
X202329013Y-39634294D01*
X202071033Y-39496401D01*
X201791110Y-39411487D01*
X201500000Y-39382815D01*
X201208889Y-39411487D01*
X200928966Y-39496401D01*
X200670986Y-39634294D01*
X200444866Y-39819866D01*
X200392777Y-39883337D01*
X200338405Y-39781614D01*
X200227962Y-39647038D01*
X200093386Y-39536595D01*
X199939850Y-39454528D01*
X199773254Y-39403992D01*
X199600000Y-39386928D01*
X198400000Y-39386928D01*
X198226746Y-39403992D01*
X198060150Y-39454528D01*
X197906614Y-39536595D01*
X197772038Y-39647038D01*
X197661595Y-39781614D01*
X197579528Y-39935150D01*
X197528992Y-40101746D01*
X197511928Y-40275000D01*
X193113117Y-40275000D01*
X192990706Y-40045986D01*
X192805134Y-39819866D01*
X192579013Y-39634294D01*
X192321033Y-39496401D01*
X192041110Y-39411487D01*
X191750000Y-39382815D01*
X191458889Y-39411487D01*
X191178966Y-39496401D01*
X190920986Y-39634294D01*
X190694866Y-39819866D01*
X190642777Y-39883337D01*
X190588405Y-39781614D01*
X190477962Y-39647038D01*
X190343386Y-39536595D01*
X190189850Y-39454528D01*
X190023254Y-39403992D01*
X189850000Y-39386928D01*
X188650000Y-39386928D01*
X188476746Y-39403992D01*
X188310150Y-39454528D01*
X188156614Y-39536595D01*
X188022038Y-39647038D01*
X187911595Y-39781614D01*
X187829528Y-39935150D01*
X187778992Y-40101746D01*
X187761928Y-40275000D01*
X183363117Y-40275000D01*
X183240706Y-40045986D01*
X183055134Y-39819866D01*
X182829013Y-39634294D01*
X182571033Y-39496401D01*
X182291110Y-39411487D01*
X182000000Y-39382815D01*
X181708889Y-39411487D01*
X181428966Y-39496401D01*
X181170986Y-39634294D01*
X180944866Y-39819866D01*
X180892777Y-39883337D01*
X180838405Y-39781614D01*
X180727962Y-39647038D01*
X180593386Y-39536595D01*
X180439850Y-39454528D01*
X180273254Y-39403992D01*
X180100000Y-39386928D01*
X178900000Y-39386928D01*
X178726746Y-39403992D01*
X178560150Y-39454528D01*
X178406614Y-39536595D01*
X178272038Y-39647038D01*
X178161595Y-39781614D01*
X178079528Y-39935150D01*
X178028992Y-40101746D01*
X178011928Y-40275000D01*
X155877000Y-40275000D01*
X155877000Y-37898061D01*
X205465000Y-37898061D01*
X205465000Y-38101939D01*
X205504774Y-38301898D01*
X205582795Y-38490256D01*
X205696063Y-38659774D01*
X205840226Y-38803937D01*
X206009744Y-38917205D01*
X206198102Y-38995226D01*
X206398061Y-39035000D01*
X206601939Y-39035000D01*
X206801898Y-38995226D01*
X206990256Y-38917205D01*
X207038454Y-38885000D01*
X212211546Y-38885000D01*
X212259744Y-38917205D01*
X212448102Y-38995226D01*
X212648061Y-39035000D01*
X212851939Y-39035000D01*
X213051898Y-38995226D01*
X213240256Y-38917205D01*
X213409774Y-38803937D01*
X213502084Y-38711627D01*
X213465000Y-38898061D01*
X213465000Y-39101939D01*
X213504774Y-39301898D01*
X213582795Y-39490256D01*
X213595717Y-39509595D01*
X213571033Y-39496401D01*
X213291110Y-39411487D01*
X213000000Y-39382815D01*
X212708889Y-39411487D01*
X212428966Y-39496401D01*
X212170986Y-39634294D01*
X211944866Y-39819866D01*
X211892777Y-39883337D01*
X211838405Y-39781614D01*
X211727962Y-39647038D01*
X211593386Y-39536595D01*
X211439850Y-39454528D01*
X211273254Y-39403992D01*
X211100000Y-39386928D01*
X209900000Y-39386928D01*
X209726746Y-39403992D01*
X209560150Y-39454528D01*
X209406614Y-39536595D01*
X209272038Y-39647038D01*
X209161595Y-39781614D01*
X209079528Y-39935150D01*
X209028992Y-40101746D01*
X209011928Y-40275000D01*
X209011928Y-41775000D01*
X209028992Y-41948254D01*
X209079528Y-42114850D01*
X209161595Y-42268386D01*
X209272038Y-42402962D01*
X209406614Y-42513405D01*
X209560150Y-42595472D01*
X209726746Y-42646008D01*
X209900000Y-42663072D01*
X211100000Y-42663072D01*
X211273254Y-42646008D01*
X211439850Y-42595472D01*
X211593386Y-42513405D01*
X211727962Y-42402962D01*
X211838405Y-42268386D01*
X211892777Y-42166663D01*
X211944866Y-42230134D01*
X212170987Y-42415706D01*
X212428967Y-42553599D01*
X212708890Y-42638513D01*
X213000000Y-42667185D01*
X213291111Y-42638513D01*
X213571034Y-42553599D01*
X213829014Y-42415706D01*
X214055134Y-42230134D01*
X214240706Y-42004014D01*
X214378599Y-41746033D01*
X214463513Y-41466110D01*
X214485000Y-41247949D01*
X214485000Y-40802050D01*
X214463513Y-40583889D01*
X214378599Y-40303966D01*
X214363117Y-40275000D01*
X219011928Y-40275000D01*
X219011928Y-41775000D01*
X219028992Y-41948254D01*
X219079528Y-42114850D01*
X219161595Y-42268386D01*
X219272038Y-42402962D01*
X219406614Y-42513405D01*
X219560150Y-42595472D01*
X219726746Y-42646008D01*
X219900000Y-42663072D01*
X221100000Y-42663072D01*
X221273254Y-42646008D01*
X221439850Y-42595472D01*
X221593386Y-42513405D01*
X221727962Y-42402962D01*
X221838405Y-42268386D01*
X221892777Y-42166663D01*
X221944866Y-42230134D01*
X222170987Y-42415706D01*
X222428967Y-42553599D01*
X222708890Y-42638513D01*
X223000000Y-42667185D01*
X223291111Y-42638513D01*
X223571034Y-42553599D01*
X223829014Y-42415706D01*
X224055134Y-42230134D01*
X224240706Y-42004014D01*
X224378599Y-41746033D01*
X224463513Y-41466110D01*
X224485000Y-41247949D01*
X224485000Y-40802050D01*
X224463513Y-40583889D01*
X224378599Y-40303966D01*
X224240706Y-40045986D01*
X224055134Y-39819866D01*
X223829013Y-39634294D01*
X223571033Y-39496401D01*
X223291110Y-39411487D01*
X223000000Y-39382815D01*
X222708889Y-39411487D01*
X222428966Y-39496401D01*
X222170986Y-39634294D01*
X221944866Y-39819866D01*
X221892777Y-39883337D01*
X221838405Y-39781614D01*
X221727962Y-39647038D01*
X221593386Y-39536595D01*
X221439850Y-39454528D01*
X221273254Y-39403992D01*
X221100000Y-39386928D01*
X219900000Y-39386928D01*
X219726746Y-39403992D01*
X219560150Y-39454528D01*
X219406614Y-39536595D01*
X219272038Y-39647038D01*
X219161595Y-39781614D01*
X219079528Y-39935150D01*
X219028992Y-40101746D01*
X219011928Y-40275000D01*
X214363117Y-40275000D01*
X214240706Y-40045986D01*
X214199233Y-39995451D01*
X214398061Y-40035000D01*
X214601939Y-40035000D01*
X214801898Y-39995226D01*
X214990256Y-39917205D01*
X215159774Y-39803937D01*
X215303937Y-39659774D01*
X215417205Y-39490256D01*
X215495226Y-39301898D01*
X215535000Y-39101939D01*
X215535000Y-38898061D01*
X215495226Y-38698102D01*
X215417205Y-38509744D01*
X215385000Y-38461546D01*
X215385000Y-35648061D01*
X224715000Y-35648061D01*
X224715000Y-35851939D01*
X224754774Y-36051898D01*
X224832795Y-36240256D01*
X224865001Y-36288456D01*
X224865000Y-39211545D01*
X224832795Y-39259744D01*
X224754774Y-39448102D01*
X224715000Y-39648061D01*
X224715000Y-39851939D01*
X224754774Y-40051898D01*
X224832795Y-40240256D01*
X224946063Y-40409774D01*
X225090226Y-40553937D01*
X225259744Y-40667205D01*
X225448102Y-40745226D01*
X225648061Y-40785000D01*
X225851939Y-40785000D01*
X226051898Y-40745226D01*
X226240256Y-40667205D01*
X226409774Y-40553937D01*
X226553937Y-40409774D01*
X226643989Y-40275000D01*
X229011928Y-40275000D01*
X229011928Y-41775000D01*
X229028992Y-41948254D01*
X229079528Y-42114850D01*
X229161595Y-42268386D01*
X229272038Y-42402962D01*
X229406614Y-42513405D01*
X229560150Y-42595472D01*
X229726746Y-42646008D01*
X229900000Y-42663072D01*
X231100000Y-42663072D01*
X231273254Y-42646008D01*
X231439850Y-42595472D01*
X231593386Y-42513405D01*
X231727962Y-42402962D01*
X231838405Y-42268386D01*
X231892777Y-42166663D01*
X231944866Y-42230134D01*
X232170987Y-42415706D01*
X232428967Y-42553599D01*
X232708890Y-42638513D01*
X233000000Y-42667185D01*
X233291111Y-42638513D01*
X233571034Y-42553599D01*
X233829014Y-42415706D01*
X234055134Y-42230134D01*
X234223483Y-42025000D01*
X239011928Y-42025000D01*
X239024188Y-42149482D01*
X239060498Y-42269180D01*
X239119463Y-42379494D01*
X239198815Y-42476185D01*
X239295506Y-42555537D01*
X239405820Y-42614502D01*
X239525518Y-42650812D01*
X239650000Y-42663072D01*
X240214250Y-42660000D01*
X240373000Y-42501250D01*
X240373000Y-41152000D01*
X239173750Y-41152000D01*
X239015000Y-41310750D01*
X239011928Y-42025000D01*
X234223483Y-42025000D01*
X234240706Y-42004014D01*
X234378599Y-41746033D01*
X234463513Y-41466110D01*
X234485000Y-41247949D01*
X234485000Y-40802050D01*
X234463513Y-40583889D01*
X234378599Y-40303966D01*
X234240706Y-40045986D01*
X234223484Y-40025000D01*
X239011928Y-40025000D01*
X239015000Y-40739250D01*
X239173750Y-40898000D01*
X240373000Y-40898000D01*
X240373000Y-39548750D01*
X240627000Y-39548750D01*
X240627000Y-40898000D01*
X240647000Y-40898000D01*
X240647000Y-41152000D01*
X240627000Y-41152000D01*
X240627000Y-42501250D01*
X240785750Y-42660000D01*
X241350000Y-42663072D01*
X241474482Y-42650812D01*
X241594180Y-42614502D01*
X241704494Y-42555537D01*
X241801185Y-42476185D01*
X241880537Y-42379494D01*
X241939502Y-42269180D01*
X241950055Y-42234392D01*
X242170987Y-42415706D01*
X242428967Y-42553599D01*
X242708890Y-42638513D01*
X243000000Y-42667185D01*
X243291111Y-42638513D01*
X243571034Y-42553599D01*
X243829014Y-42415706D01*
X244055134Y-42230134D01*
X244240706Y-42004014D01*
X244378599Y-41746033D01*
X244463513Y-41466110D01*
X244485000Y-41247949D01*
X244485000Y-40802050D01*
X244463513Y-40583889D01*
X244378599Y-40303966D01*
X244240706Y-40045986D01*
X244055134Y-39819866D01*
X243829013Y-39634294D01*
X243571033Y-39496401D01*
X243291110Y-39411487D01*
X243000000Y-39382815D01*
X242708889Y-39411487D01*
X242428966Y-39496401D01*
X242170986Y-39634294D01*
X241950055Y-39815608D01*
X241939502Y-39780820D01*
X241880537Y-39670506D01*
X241801185Y-39573815D01*
X241704494Y-39494463D01*
X241594180Y-39435498D01*
X241474482Y-39399188D01*
X241350000Y-39386928D01*
X240785750Y-39390000D01*
X240627000Y-39548750D01*
X240373000Y-39548750D01*
X240214250Y-39390000D01*
X239650000Y-39386928D01*
X239525518Y-39399188D01*
X239405820Y-39435498D01*
X239295506Y-39494463D01*
X239198815Y-39573815D01*
X239119463Y-39670506D01*
X239060498Y-39780820D01*
X239024188Y-39900518D01*
X239011928Y-40025000D01*
X234223484Y-40025000D01*
X234055134Y-39819866D01*
X233829013Y-39634294D01*
X233571033Y-39496401D01*
X233291110Y-39411487D01*
X233000000Y-39382815D01*
X232708889Y-39411487D01*
X232428966Y-39496401D01*
X232170986Y-39634294D01*
X231944866Y-39819866D01*
X231892777Y-39883337D01*
X231838405Y-39781614D01*
X231727962Y-39647038D01*
X231593386Y-39536595D01*
X231439850Y-39454528D01*
X231273254Y-39403992D01*
X231100000Y-39386928D01*
X229900000Y-39386928D01*
X229726746Y-39403992D01*
X229560150Y-39454528D01*
X229406614Y-39536595D01*
X229272038Y-39647038D01*
X229161595Y-39781614D01*
X229079528Y-39935150D01*
X229028992Y-40101746D01*
X229011928Y-40275000D01*
X226643989Y-40275000D01*
X226667205Y-40240256D01*
X226745226Y-40051898D01*
X226785000Y-39851939D01*
X226785000Y-39648061D01*
X226745226Y-39448102D01*
X226667205Y-39259744D01*
X226635000Y-39211546D01*
X226635000Y-36288454D01*
X226667205Y-36240256D01*
X226745226Y-36051898D01*
X226785000Y-35851939D01*
X226785000Y-35648061D01*
X226745226Y-35448102D01*
X226667205Y-35259744D01*
X226553937Y-35090226D01*
X226409774Y-34946063D01*
X226240256Y-34832795D01*
X226051898Y-34754774D01*
X225851939Y-34715000D01*
X225648061Y-34715000D01*
X225448102Y-34754774D01*
X225259744Y-34832795D01*
X225090226Y-34946063D01*
X224946063Y-35090226D01*
X224832795Y-35259744D01*
X224754774Y-35448102D01*
X224715000Y-35648061D01*
X215385000Y-35648061D01*
X215385000Y-31638464D01*
X215417205Y-31590266D01*
X215495226Y-31401908D01*
X215535000Y-31201949D01*
X215535000Y-30998071D01*
X215495226Y-30798112D01*
X215417205Y-30609754D01*
X215303937Y-30440236D01*
X215159774Y-30296073D01*
X214990256Y-30182805D01*
X214801898Y-30104784D01*
X214601939Y-30065010D01*
X214464116Y-30065010D01*
X214463513Y-30058889D01*
X214378599Y-29778966D01*
X214363117Y-29750000D01*
X219011928Y-29750000D01*
X219011928Y-31250000D01*
X219028992Y-31423254D01*
X219079528Y-31589850D01*
X219161595Y-31743386D01*
X219272038Y-31877962D01*
X219406614Y-31988405D01*
X219560150Y-32070472D01*
X219726746Y-32121008D01*
X219900000Y-32138072D01*
X221100000Y-32138072D01*
X221273254Y-32121008D01*
X221439850Y-32070472D01*
X221593386Y-31988405D01*
X221727962Y-31877962D01*
X221838405Y-31743386D01*
X221892777Y-31641663D01*
X221944866Y-31705134D01*
X222170987Y-31890706D01*
X222428967Y-32028599D01*
X222708890Y-32113513D01*
X223000000Y-32142185D01*
X223291111Y-32113513D01*
X223571034Y-32028599D01*
X223829014Y-31890706D01*
X224055134Y-31705134D01*
X224240706Y-31479014D01*
X224378599Y-31221033D01*
X224463513Y-30941110D01*
X224485000Y-30722949D01*
X224485000Y-30277050D01*
X224463513Y-30058889D01*
X224378599Y-29778966D01*
X224363117Y-29750000D01*
X229011928Y-29750000D01*
X229011928Y-31250000D01*
X229028992Y-31423254D01*
X229079528Y-31589850D01*
X229161595Y-31743386D01*
X229272038Y-31877962D01*
X229406614Y-31988405D01*
X229560150Y-32070472D01*
X229726746Y-32121008D01*
X229900000Y-32138072D01*
X231100000Y-32138072D01*
X231273254Y-32121008D01*
X231439850Y-32070472D01*
X231593386Y-31988405D01*
X231727962Y-31877962D01*
X231838405Y-31743386D01*
X231892777Y-31641663D01*
X231944866Y-31705134D01*
X232170987Y-31890706D01*
X232428967Y-32028599D01*
X232708890Y-32113513D01*
X233000000Y-32142185D01*
X233291111Y-32113513D01*
X233571034Y-32028599D01*
X233829014Y-31890706D01*
X234055134Y-31705134D01*
X234223483Y-31500000D01*
X239011928Y-31500000D01*
X239024188Y-31624482D01*
X239060498Y-31744180D01*
X239119463Y-31854494D01*
X239198815Y-31951185D01*
X239295506Y-32030537D01*
X239405820Y-32089502D01*
X239525518Y-32125812D01*
X239650000Y-32138072D01*
X240214250Y-32135000D01*
X240373000Y-31976250D01*
X240373000Y-30627000D01*
X239173750Y-30627000D01*
X239015000Y-30785750D01*
X239011928Y-31500000D01*
X234223483Y-31500000D01*
X234240706Y-31479014D01*
X234378599Y-31221033D01*
X234463513Y-30941110D01*
X234485000Y-30722949D01*
X234485000Y-30277050D01*
X234463513Y-30058889D01*
X234378599Y-29778966D01*
X234240706Y-29520986D01*
X234223484Y-29500000D01*
X239011928Y-29500000D01*
X239015000Y-30214250D01*
X239173750Y-30373000D01*
X240373000Y-30373000D01*
X240373000Y-29023750D01*
X240627000Y-29023750D01*
X240627000Y-30373000D01*
X240647000Y-30373000D01*
X240647000Y-30627000D01*
X240627000Y-30627000D01*
X240627000Y-31976250D01*
X240785750Y-32135000D01*
X241350000Y-32138072D01*
X241474482Y-32125812D01*
X241594180Y-32089502D01*
X241704494Y-32030537D01*
X241801185Y-31951185D01*
X241880537Y-31854494D01*
X241939502Y-31744180D01*
X241950055Y-31709392D01*
X242170987Y-31890706D01*
X242428967Y-32028599D01*
X242708890Y-32113513D01*
X243000000Y-32142185D01*
X243291111Y-32113513D01*
X243571034Y-32028599D01*
X243829014Y-31890706D01*
X244055134Y-31705134D01*
X244240706Y-31479014D01*
X244378599Y-31221033D01*
X244463513Y-30941110D01*
X244485000Y-30722949D01*
X244485000Y-30277050D01*
X244463513Y-30058889D01*
X244378599Y-29778966D01*
X244240706Y-29520986D01*
X244055134Y-29294866D01*
X243829013Y-29109294D01*
X243571033Y-28971401D01*
X243291110Y-28886487D01*
X243000000Y-28857815D01*
X242708889Y-28886487D01*
X242428966Y-28971401D01*
X242170986Y-29109294D01*
X241950055Y-29290608D01*
X241939502Y-29255820D01*
X241880537Y-29145506D01*
X241801185Y-29048815D01*
X241704494Y-28969463D01*
X241594180Y-28910498D01*
X241474482Y-28874188D01*
X241350000Y-28861928D01*
X240785750Y-28865000D01*
X240627000Y-29023750D01*
X240373000Y-29023750D01*
X240214250Y-28865000D01*
X239650000Y-28861928D01*
X239525518Y-28874188D01*
X239405820Y-28910498D01*
X239295506Y-28969463D01*
X239198815Y-29048815D01*
X239119463Y-29145506D01*
X239060498Y-29255820D01*
X239024188Y-29375518D01*
X239011928Y-29500000D01*
X234223484Y-29500000D01*
X234055134Y-29294866D01*
X233829013Y-29109294D01*
X233571033Y-28971401D01*
X233291110Y-28886487D01*
X233000000Y-28857815D01*
X232708889Y-28886487D01*
X232428966Y-28971401D01*
X232170986Y-29109294D01*
X231944866Y-29294866D01*
X231892777Y-29358337D01*
X231838405Y-29256614D01*
X231727962Y-29122038D01*
X231593386Y-29011595D01*
X231439850Y-28929528D01*
X231273254Y-28878992D01*
X231100000Y-28861928D01*
X229900000Y-28861928D01*
X229726746Y-28878992D01*
X229560150Y-28929528D01*
X229406614Y-29011595D01*
X229272038Y-29122038D01*
X229161595Y-29256614D01*
X229079528Y-29410150D01*
X229028992Y-29576746D01*
X229011928Y-29750000D01*
X224363117Y-29750000D01*
X224240706Y-29520986D01*
X224055134Y-29294866D01*
X223829013Y-29109294D01*
X223571033Y-28971401D01*
X223291110Y-28886487D01*
X223000000Y-28857815D01*
X222708889Y-28886487D01*
X222428966Y-28971401D01*
X222170986Y-29109294D01*
X221944866Y-29294866D01*
X221892777Y-29358337D01*
X221838405Y-29256614D01*
X221727962Y-29122038D01*
X221593386Y-29011595D01*
X221439850Y-28929528D01*
X221273254Y-28878992D01*
X221100000Y-28861928D01*
X219900000Y-28861928D01*
X219726746Y-28878992D01*
X219560150Y-28929528D01*
X219406614Y-29011595D01*
X219272038Y-29122038D01*
X219161595Y-29256614D01*
X219079528Y-29410150D01*
X219028992Y-29576746D01*
X219011928Y-29750000D01*
X214363117Y-29750000D01*
X214240706Y-29520986D01*
X214055134Y-29294866D01*
X213829013Y-29109294D01*
X213571033Y-28971401D01*
X213291110Y-28886487D01*
X213000000Y-28857815D01*
X212708889Y-28886487D01*
X212428966Y-28971401D01*
X212170986Y-29109294D01*
X211944866Y-29294866D01*
X211892777Y-29358337D01*
X211838405Y-29256614D01*
X211727962Y-29122038D01*
X211593386Y-29011595D01*
X211439850Y-28929528D01*
X211273254Y-28878992D01*
X211100000Y-28861928D01*
X209900000Y-28861928D01*
X209726746Y-28878992D01*
X209560150Y-28929528D01*
X209406614Y-29011595D01*
X209272038Y-29122038D01*
X209161595Y-29256614D01*
X209079528Y-29410150D01*
X209028992Y-29576746D01*
X209011928Y-29750000D01*
X209011928Y-31250000D01*
X209028992Y-31423254D01*
X209079528Y-31589850D01*
X209161595Y-31743386D01*
X209272038Y-31877962D01*
X209406614Y-31988405D01*
X209560150Y-32070472D01*
X209726746Y-32121008D01*
X209900000Y-32138072D01*
X211100000Y-32138072D01*
X211273254Y-32121008D01*
X211439850Y-32070472D01*
X211593386Y-31988405D01*
X211727962Y-31877962D01*
X211838405Y-31743386D01*
X211892777Y-31641663D01*
X211944866Y-31705134D01*
X212170987Y-31890706D01*
X212428967Y-32028599D01*
X212708890Y-32113513D01*
X213000000Y-32142185D01*
X213291111Y-32113513D01*
X213571034Y-32028599D01*
X213615001Y-32005098D01*
X213615000Y-37431614D01*
X213553937Y-37340226D01*
X213409774Y-37196063D01*
X213240256Y-37082795D01*
X213051898Y-37004774D01*
X212851939Y-36965000D01*
X212648061Y-36965000D01*
X212448102Y-37004774D01*
X212259744Y-37082795D01*
X212211546Y-37115000D01*
X207038454Y-37115000D01*
X206990256Y-37082795D01*
X206801898Y-37004774D01*
X206601939Y-36965000D01*
X206398061Y-36965000D01*
X206198102Y-37004774D01*
X206009744Y-37082795D01*
X205840226Y-37196063D01*
X205696063Y-37340226D01*
X205582795Y-37509744D01*
X205504774Y-37698102D01*
X205465000Y-37898061D01*
X155877000Y-37898061D01*
X155877000Y-36574973D01*
X156979154Y-36574973D01*
X157007808Y-36695038D01*
X157133726Y-36983427D01*
X157313486Y-37241710D01*
X157540181Y-37459960D01*
X157805098Y-37629791D01*
X158098057Y-37744676D01*
X158407800Y-37800200D01*
X159373000Y-37800200D01*
X159373000Y-36327000D01*
X159627000Y-36327000D01*
X159627000Y-37800200D01*
X160592200Y-37800200D01*
X160901943Y-37744676D01*
X161194902Y-37629791D01*
X161459819Y-37459960D01*
X161686514Y-37241710D01*
X161866274Y-36983427D01*
X161992192Y-36695038D01*
X162020846Y-36574973D01*
X165179154Y-36574973D01*
X165207808Y-36695038D01*
X165333726Y-36983427D01*
X165513486Y-37241710D01*
X165740181Y-37459960D01*
X166005098Y-37629791D01*
X166298057Y-37744676D01*
X166607800Y-37800200D01*
X167573000Y-37800200D01*
X167573000Y-36327000D01*
X167827000Y-36327000D01*
X167827000Y-37800200D01*
X168792200Y-37800200D01*
X169101943Y-37744676D01*
X169394902Y-37629791D01*
X169659819Y-37459960D01*
X169886514Y-37241710D01*
X170066274Y-36983427D01*
X170192192Y-36695038D01*
X170220846Y-36574973D01*
X170101044Y-36327000D01*
X167827000Y-36327000D01*
X167573000Y-36327000D01*
X165298956Y-36327000D01*
X165179154Y-36574973D01*
X162020846Y-36574973D01*
X161901044Y-36327000D01*
X159627000Y-36327000D01*
X159373000Y-36327000D01*
X157098956Y-36327000D01*
X156979154Y-36574973D01*
X155877000Y-36574973D01*
X155877000Y-35825027D01*
X156979154Y-35825027D01*
X157098956Y-36073000D01*
X159373000Y-36073000D01*
X159373000Y-34599800D01*
X159627000Y-34599800D01*
X159627000Y-36073000D01*
X161901044Y-36073000D01*
X162020846Y-35825027D01*
X165179154Y-35825027D01*
X165298956Y-36073000D01*
X167573000Y-36073000D01*
X167573000Y-34599800D01*
X167827000Y-34599800D01*
X167827000Y-36073000D01*
X170101044Y-36073000D01*
X170220846Y-35825027D01*
X170192192Y-35704962D01*
X170066274Y-35416573D01*
X169886514Y-35158290D01*
X169659819Y-34940040D01*
X169394902Y-34770209D01*
X169101943Y-34655324D01*
X168792200Y-34599800D01*
X167827000Y-34599800D01*
X167573000Y-34599800D01*
X166607800Y-34599800D01*
X166298057Y-34655324D01*
X166005098Y-34770209D01*
X165740181Y-34940040D01*
X165513486Y-35158290D01*
X165333726Y-35416573D01*
X165207808Y-35704962D01*
X165179154Y-35825027D01*
X162020846Y-35825027D01*
X161992192Y-35704962D01*
X161866274Y-35416573D01*
X161686514Y-35158290D01*
X161459819Y-34940040D01*
X161194902Y-34770209D01*
X160901943Y-34655324D01*
X160592200Y-34599800D01*
X159627000Y-34599800D01*
X159373000Y-34599800D01*
X158407800Y-34599800D01*
X158098057Y-34655324D01*
X157805098Y-34770209D01*
X157540181Y-34940040D01*
X157313486Y-35158290D01*
X157133726Y-35416573D01*
X157007808Y-35704962D01*
X156979154Y-35825027D01*
X155877000Y-35825027D01*
X155877000Y-31200000D01*
X156926858Y-31200000D01*
X156957754Y-31513694D01*
X157049255Y-31815333D01*
X157197845Y-32093325D01*
X157397813Y-32336987D01*
X157641475Y-32536955D01*
X157919467Y-32685545D01*
X158221106Y-32777046D01*
X158456194Y-32800200D01*
X160543806Y-32800200D01*
X160778894Y-32777046D01*
X161080533Y-32685545D01*
X161358525Y-32536955D01*
X161602187Y-32336987D01*
X161802155Y-32093325D01*
X161950745Y-31815333D01*
X162042246Y-31513694D01*
X162073142Y-31200000D01*
X165126858Y-31200000D01*
X165157754Y-31513694D01*
X165249255Y-31815333D01*
X165397845Y-32093325D01*
X165597813Y-32336987D01*
X165841475Y-32536955D01*
X166119467Y-32685545D01*
X166421106Y-32777046D01*
X166656194Y-32800200D01*
X168743806Y-32800200D01*
X168978894Y-32777046D01*
X169280533Y-32685545D01*
X169558525Y-32536955D01*
X169802187Y-32336987D01*
X170002155Y-32093325D01*
X170150745Y-31815333D01*
X170242246Y-31513694D01*
X170273142Y-31200000D01*
X170253091Y-30996408D01*
X172421000Y-30996408D01*
X172421000Y-31271592D01*
X172474686Y-31541490D01*
X172579995Y-31795727D01*
X172732880Y-32024535D01*
X172927465Y-32219120D01*
X173156273Y-32372005D01*
X173410510Y-32477314D01*
X173680408Y-32531000D01*
X173955592Y-32531000D01*
X174225490Y-32477314D01*
X174479727Y-32372005D01*
X174708535Y-32219120D01*
X174903120Y-32024535D01*
X175056005Y-31795727D01*
X175068000Y-31766769D01*
X175079995Y-31795727D01*
X175232880Y-32024535D01*
X175427465Y-32219120D01*
X175656273Y-32372005D01*
X175910510Y-32477314D01*
X176180408Y-32531000D01*
X176455592Y-32531000D01*
X176725490Y-32477314D01*
X176979727Y-32372005D01*
X177208535Y-32219120D01*
X177403120Y-32024535D01*
X177556005Y-31795727D01*
X177661314Y-31541490D01*
X177715000Y-31271592D01*
X177715000Y-30996408D01*
X177661314Y-30726510D01*
X177556005Y-30472273D01*
X177489005Y-30372000D01*
X183045928Y-30372000D01*
X183045928Y-31896000D01*
X183058188Y-32020482D01*
X183094498Y-32140180D01*
X183153463Y-32250494D01*
X183232815Y-32347185D01*
X183329506Y-32426537D01*
X183439820Y-32485502D01*
X183559518Y-32521812D01*
X183684000Y-32534072D01*
X185208000Y-32534072D01*
X185332482Y-32521812D01*
X185452180Y-32485502D01*
X185562494Y-32426537D01*
X185659185Y-32347185D01*
X185696000Y-32302326D01*
X185732815Y-32347185D01*
X185829506Y-32426537D01*
X185939820Y-32485502D01*
X186059518Y-32521812D01*
X186184000Y-32534072D01*
X187708000Y-32534072D01*
X187832482Y-32521812D01*
X187952180Y-32485502D01*
X188062494Y-32426537D01*
X188159185Y-32347185D01*
X188238537Y-32250494D01*
X188297502Y-32140180D01*
X188333812Y-32020482D01*
X188346072Y-31896000D01*
X188346072Y-31042408D01*
X189921000Y-31042408D01*
X189921000Y-31317592D01*
X189974686Y-31587490D01*
X190079995Y-31841727D01*
X190232880Y-32070535D01*
X190427465Y-32265120D01*
X190656273Y-32418005D01*
X190910510Y-32523314D01*
X191180408Y-32577000D01*
X191455592Y-32577000D01*
X191725490Y-32523314D01*
X191979727Y-32418005D01*
X192208535Y-32265120D01*
X192403120Y-32070535D01*
X192556005Y-31841727D01*
X192568000Y-31812769D01*
X192579995Y-31841727D01*
X192732880Y-32070535D01*
X192927465Y-32265120D01*
X193156273Y-32418005D01*
X193410510Y-32523314D01*
X193680408Y-32577000D01*
X193955592Y-32577000D01*
X194225490Y-32523314D01*
X194479727Y-32418005D01*
X194708535Y-32265120D01*
X194903120Y-32070535D01*
X195056005Y-31841727D01*
X195161314Y-31587490D01*
X195215000Y-31317592D01*
X195215000Y-31042408D01*
X195161314Y-30772510D01*
X195056005Y-30518273D01*
X194989005Y-30418000D01*
X200545928Y-30418000D01*
X200545928Y-31942000D01*
X200558188Y-32066482D01*
X200594498Y-32186180D01*
X200653463Y-32296494D01*
X200732815Y-32393185D01*
X200829506Y-32472537D01*
X200939820Y-32531502D01*
X201059518Y-32567812D01*
X201184000Y-32580072D01*
X202708000Y-32580072D01*
X202832482Y-32567812D01*
X202952180Y-32531502D01*
X203062494Y-32472537D01*
X203159185Y-32393185D01*
X203196000Y-32348326D01*
X203232815Y-32393185D01*
X203329506Y-32472537D01*
X203439820Y-32531502D01*
X203559518Y-32567812D01*
X203684000Y-32580072D01*
X205208000Y-32580072D01*
X205332482Y-32567812D01*
X205452180Y-32531502D01*
X205562494Y-32472537D01*
X205659185Y-32393185D01*
X205738537Y-32296494D01*
X205797502Y-32186180D01*
X205833812Y-32066482D01*
X205846072Y-31942000D01*
X205846072Y-30418000D01*
X205833812Y-30293518D01*
X205797502Y-30173820D01*
X205738537Y-30063506D01*
X205659185Y-29966815D01*
X205562494Y-29887463D01*
X205452180Y-29828498D01*
X205332482Y-29792188D01*
X205208000Y-29779928D01*
X203684000Y-29779928D01*
X203559518Y-29792188D01*
X203439820Y-29828498D01*
X203329506Y-29887463D01*
X203232815Y-29966815D01*
X203196000Y-30011674D01*
X203159185Y-29966815D01*
X203062494Y-29887463D01*
X202952180Y-29828498D01*
X202832482Y-29792188D01*
X202708000Y-29779928D01*
X201184000Y-29779928D01*
X201059518Y-29792188D01*
X200939820Y-29828498D01*
X200829506Y-29887463D01*
X200732815Y-29966815D01*
X200653463Y-30063506D01*
X200594498Y-30173820D01*
X200558188Y-30293518D01*
X200545928Y-30418000D01*
X194989005Y-30418000D01*
X194903120Y-30289465D01*
X194708535Y-30094880D01*
X194479727Y-29941995D01*
X194225490Y-29836686D01*
X193955592Y-29783000D01*
X193680408Y-29783000D01*
X193410510Y-29836686D01*
X193156273Y-29941995D01*
X192927465Y-30094880D01*
X192732880Y-30289465D01*
X192579995Y-30518273D01*
X192568000Y-30547231D01*
X192556005Y-30518273D01*
X192403120Y-30289465D01*
X192208535Y-30094880D01*
X191979727Y-29941995D01*
X191725490Y-29836686D01*
X191455592Y-29783000D01*
X191180408Y-29783000D01*
X190910510Y-29836686D01*
X190656273Y-29941995D01*
X190427465Y-30094880D01*
X190232880Y-30289465D01*
X190079995Y-30518273D01*
X189974686Y-30772510D01*
X189921000Y-31042408D01*
X188346072Y-31042408D01*
X188346072Y-30372000D01*
X188333812Y-30247518D01*
X188297502Y-30127820D01*
X188238537Y-30017506D01*
X188159185Y-29920815D01*
X188062494Y-29841463D01*
X187952180Y-29782498D01*
X187832482Y-29746188D01*
X187708000Y-29733928D01*
X186184000Y-29733928D01*
X186059518Y-29746188D01*
X185939820Y-29782498D01*
X185829506Y-29841463D01*
X185732815Y-29920815D01*
X185696000Y-29965674D01*
X185659185Y-29920815D01*
X185562494Y-29841463D01*
X185452180Y-29782498D01*
X185332482Y-29746188D01*
X185208000Y-29733928D01*
X183684000Y-29733928D01*
X183559518Y-29746188D01*
X183439820Y-29782498D01*
X183329506Y-29841463D01*
X183232815Y-29920815D01*
X183153463Y-30017506D01*
X183094498Y-30127820D01*
X183058188Y-30247518D01*
X183045928Y-30372000D01*
X177489005Y-30372000D01*
X177403120Y-30243465D01*
X177208535Y-30048880D01*
X176979727Y-29895995D01*
X176725490Y-29790686D01*
X176455592Y-29737000D01*
X176180408Y-29737000D01*
X175910510Y-29790686D01*
X175656273Y-29895995D01*
X175427465Y-30048880D01*
X175232880Y-30243465D01*
X175079995Y-30472273D01*
X175068000Y-30501231D01*
X175056005Y-30472273D01*
X174903120Y-30243465D01*
X174708535Y-30048880D01*
X174479727Y-29895995D01*
X174225490Y-29790686D01*
X173955592Y-29737000D01*
X173680408Y-29737000D01*
X173410510Y-29790686D01*
X173156273Y-29895995D01*
X172927465Y-30048880D01*
X172732880Y-30243465D01*
X172579995Y-30472273D01*
X172474686Y-30726510D01*
X172421000Y-30996408D01*
X170253091Y-30996408D01*
X170242246Y-30886306D01*
X170150745Y-30584667D01*
X170002155Y-30306675D01*
X169802187Y-30063013D01*
X169558525Y-29863045D01*
X169280533Y-29714455D01*
X168978894Y-29622954D01*
X168743806Y-29599800D01*
X166656194Y-29599800D01*
X166421106Y-29622954D01*
X166119467Y-29714455D01*
X165841475Y-29863045D01*
X165597813Y-30063013D01*
X165397845Y-30306675D01*
X165249255Y-30584667D01*
X165157754Y-30886306D01*
X165126858Y-31200000D01*
X162073142Y-31200000D01*
X162042246Y-30886306D01*
X161950745Y-30584667D01*
X161802155Y-30306675D01*
X161602187Y-30063013D01*
X161358525Y-29863045D01*
X161080533Y-29714455D01*
X160778894Y-29622954D01*
X160543806Y-29599800D01*
X158456194Y-29599800D01*
X158221106Y-29622954D01*
X157919467Y-29714455D01*
X157641475Y-29863045D01*
X157397813Y-30063013D01*
X157197845Y-30306675D01*
X157049255Y-30584667D01*
X156957754Y-30886306D01*
X156926858Y-31200000D01*
X155877000Y-31200000D01*
X155877000Y-25660000D01*
X247373000Y-25660000D01*
X247373000Y-55340000D01*
G37*
X247373000Y-55340000D02*
X155877000Y-55340000D01*
X155877000Y-49074973D01*
X156979154Y-49074973D01*
X157007808Y-49195038D01*
X157133726Y-49483427D01*
X157313486Y-49741710D01*
X157540181Y-49959960D01*
X157805098Y-50129791D01*
X158098057Y-50244676D01*
X158407800Y-50300200D01*
X159373000Y-50300200D01*
X159373000Y-48827000D01*
X159627000Y-48827000D01*
X159627000Y-50300200D01*
X160592200Y-50300200D01*
X160901943Y-50244676D01*
X161194902Y-50129791D01*
X161459819Y-49959960D01*
X161686514Y-49741710D01*
X161866274Y-49483427D01*
X161992192Y-49195038D01*
X162020846Y-49074973D01*
X165179154Y-49074973D01*
X165207808Y-49195038D01*
X165333726Y-49483427D01*
X165513486Y-49741710D01*
X165740181Y-49959960D01*
X166005098Y-50129791D01*
X166298057Y-50244676D01*
X166607800Y-50300200D01*
X167573000Y-50300200D01*
X167573000Y-48827000D01*
X167827000Y-48827000D01*
X167827000Y-50300200D01*
X168792200Y-50300200D01*
X169101943Y-50244676D01*
X169394902Y-50129791D01*
X169659819Y-49959960D01*
X169886514Y-49741710D01*
X170028008Y-49538408D01*
X172421000Y-49538408D01*
X172421000Y-49813592D01*
X172474686Y-50083490D01*
X172579995Y-50337727D01*
X172732880Y-50566535D01*
X172927465Y-50761120D01*
X173156273Y-50914005D01*
X173410510Y-51019314D01*
X173680408Y-51073000D01*
X173955592Y-51073000D01*
X174225490Y-51019314D01*
X174479727Y-50914005D01*
X174708535Y-50761120D01*
X174903120Y-50566535D01*
X175056005Y-50337727D01*
X175068000Y-50308769D01*
X175079995Y-50337727D01*
X175232880Y-50566535D01*
X175427465Y-50761120D01*
X175656273Y-50914005D01*
X175910510Y-51019314D01*
X176180408Y-51073000D01*
X176455592Y-51073000D01*
X176725490Y-51019314D01*
X176979727Y-50914005D01*
X177208535Y-50761120D01*
X177403120Y-50566535D01*
X177489004Y-50438000D01*
X183045928Y-50438000D01*
X183058188Y-50562482D01*
X183094498Y-50682180D01*
X183153463Y-50792494D01*
X183232815Y-50889185D01*
X183329506Y-50968537D01*
X183439820Y-51027502D01*
X183559518Y-51063812D01*
X183684000Y-51076072D01*
X184160250Y-51073000D01*
X184319000Y-50914250D01*
X184319000Y-49803000D01*
X184573000Y-49803000D01*
X184573000Y-50914250D01*
X184731750Y-51073000D01*
X185208000Y-51076072D01*
X185332482Y-51063812D01*
X185452180Y-51027502D01*
X185562494Y-50968537D01*
X185659185Y-50889185D01*
X185696000Y-50844326D01*
X185732815Y-50889185D01*
X185829506Y-50968537D01*
X185939820Y-51027502D01*
X186059518Y-51063812D01*
X186184000Y-51076072D01*
X186660250Y-51073000D01*
X186819000Y-50914250D01*
X186819000Y-49803000D01*
X187073000Y-49803000D01*
X187073000Y-50914250D01*
X187231750Y-51073000D01*
X187708000Y-51076072D01*
X187832482Y-51063812D01*
X187952180Y-51027502D01*
X188062494Y-50968537D01*
X188159185Y-50889185D01*
X188238537Y-50792494D01*
X188297502Y-50682180D01*
X188333812Y-50562482D01*
X188346072Y-50438000D01*
X188343000Y-49961750D01*
X188184250Y-49803000D01*
X187073000Y-49803000D01*
X186819000Y-49803000D01*
X185707750Y-49803000D01*
X185696000Y-49814750D01*
X185684250Y-49803000D01*
X184573000Y-49803000D01*
X184319000Y-49803000D01*
X183207750Y-49803000D01*
X183049000Y-49961750D01*
X183045928Y-50438000D01*
X177489004Y-50438000D01*
X177556005Y-50337727D01*
X177661314Y-50083490D01*
X177715000Y-49813592D01*
X177715000Y-49584408D01*
X189921000Y-49584408D01*
X189921000Y-49859592D01*
X189974686Y-50129490D01*
X190079995Y-50383727D01*
X190232880Y-50612535D01*
X190427465Y-50807120D01*
X190656273Y-50960005D01*
X190910510Y-51065314D01*
X191180408Y-51119000D01*
X191455592Y-51119000D01*
X191725490Y-51065314D01*
X191979727Y-50960005D01*
X192208535Y-50807120D01*
X192403120Y-50612535D01*
X192556005Y-50383727D01*
X192568000Y-50354769D01*
X192579995Y-50383727D01*
X192732880Y-50612535D01*
X192927465Y-50807120D01*
X193156273Y-50960005D01*
X193410510Y-51065314D01*
X193680408Y-51119000D01*
X193955592Y-51119000D01*
X194225490Y-51065314D01*
X194479727Y-50960005D01*
X194708535Y-50807120D01*
X194903120Y-50612535D01*
X194989004Y-50484000D01*
X200545928Y-50484000D01*
X200558188Y-50608482D01*
X200594498Y-50728180D01*
X200653463Y-50838494D01*
X200732815Y-50935185D01*
X200829506Y-51014537D01*
X200939820Y-51073502D01*
X201059518Y-51109812D01*
X201184000Y-51122072D01*
X201660250Y-51119000D01*
X201819000Y-50960250D01*
X201819000Y-49849000D01*
X202073000Y-49849000D01*
X202073000Y-50960250D01*
X202231750Y-51119000D01*
X202708000Y-51122072D01*
X202832482Y-51109812D01*
X202952180Y-51073502D01*
X203062494Y-51014537D01*
X203159185Y-50935185D01*
X203196000Y-50890326D01*
X203232815Y-50935185D01*
X203329506Y-51014537D01*
X203439820Y-51073502D01*
X203559518Y-51109812D01*
X203684000Y-51122072D01*
X204160250Y-51119000D01*
X204319000Y-50960250D01*
X204319000Y-49849000D01*
X204573000Y-49849000D01*
X204573000Y-50960250D01*
X204731750Y-51119000D01*
X205208000Y-51122072D01*
X205332482Y-51109812D01*
X205452180Y-51073502D01*
X205562494Y-51014537D01*
X205659185Y-50935185D01*
X205738537Y-50838494D01*
X205797502Y-50728180D01*
X205833812Y-50608482D01*
X205844496Y-50500000D01*
X209011928Y-50500000D01*
X209011928Y-52000000D01*
X209028992Y-52173254D01*
X209079528Y-52339850D01*
X209161595Y-52493386D01*
X209272038Y-52627962D01*
X209406614Y-52738405D01*
X209560150Y-52820472D01*
X209726746Y-52871008D01*
X209900000Y-52888072D01*
X211100000Y-52888072D01*
X211273254Y-52871008D01*
X211439850Y-52820472D01*
X211593386Y-52738405D01*
X211727962Y-52627962D01*
X211838405Y-52493386D01*
X211892777Y-52391663D01*
X211944866Y-52455134D01*
X212170987Y-52640706D01*
X212428967Y-52778599D01*
X212708890Y-52863513D01*
X213000000Y-52892185D01*
X213291111Y-52863513D01*
X213571034Y-52778599D01*
X213829014Y-52640706D01*
X214055134Y-52455134D01*
X214240706Y-52229014D01*
X214378599Y-51971033D01*
X214463513Y-51691110D01*
X214485000Y-51472949D01*
X214485000Y-51027050D01*
X214463513Y-50808889D01*
X214378599Y-50528966D01*
X214363117Y-50500000D01*
X219011928Y-50500000D01*
X219011928Y-52000000D01*
X219028992Y-52173254D01*
X219079528Y-52339850D01*
X219161595Y-52493386D01*
X219272038Y-52627962D01*
X219406614Y-52738405D01*
X219560150Y-52820472D01*
X219726746Y-52871008D01*
X219900000Y-52888072D01*
X221100000Y-52888072D01*
X221273254Y-52871008D01*
X221439850Y-52820472D01*
X221593386Y-52738405D01*
X221727962Y-52627962D01*
X221838405Y-52493386D01*
X221892777Y-52391663D01*
X221944866Y-52455134D01*
X222170987Y-52640706D01*
X222428967Y-52778599D01*
X222708890Y-52863513D01*
X223000000Y-52892185D01*
X223291111Y-52863513D01*
X223571034Y-52778599D01*
X223829014Y-52640706D01*
X224055134Y-52455134D01*
X224240706Y-52229014D01*
X224378599Y-51971033D01*
X224463513Y-51691110D01*
X224485000Y-51472949D01*
X224485000Y-51027050D01*
X224463513Y-50808889D01*
X224378599Y-50528966D01*
X224363117Y-50500000D01*
X229011928Y-50500000D01*
X229011928Y-52000000D01*
X229028992Y-52173254D01*
X229079528Y-52339850D01*
X229161595Y-52493386D01*
X229272038Y-52627962D01*
X229406614Y-52738405D01*
X229560150Y-52820472D01*
X229726746Y-52871008D01*
X229900000Y-52888072D01*
X231100000Y-52888072D01*
X231273254Y-52871008D01*
X231439850Y-52820472D01*
X231593386Y-52738405D01*
X231727962Y-52627962D01*
X231838405Y-52493386D01*
X231892777Y-52391663D01*
X231944866Y-52455134D01*
X232170987Y-52640706D01*
X232428967Y-52778599D01*
X232708890Y-52863513D01*
X233000000Y-52892185D01*
X233291111Y-52863513D01*
X233571034Y-52778599D01*
X233829014Y-52640706D01*
X234055134Y-52455134D01*
X234240706Y-52229014D01*
X234378599Y-51971033D01*
X234463513Y-51691110D01*
X234485000Y-51472949D01*
X234485000Y-51027050D01*
X234463513Y-50808889D01*
X234378599Y-50528966D01*
X234363117Y-50500000D01*
X239011928Y-50500000D01*
X239011928Y-52000000D01*
X239028992Y-52173254D01*
X239079528Y-52339850D01*
X239161595Y-52493386D01*
X239272038Y-52627962D01*
X239406614Y-52738405D01*
X239560150Y-52820472D01*
X239726746Y-52871008D01*
X239900000Y-52888072D01*
X241100000Y-52888072D01*
X241273254Y-52871008D01*
X241439850Y-52820472D01*
X241593386Y-52738405D01*
X241727962Y-52627962D01*
X241838405Y-52493386D01*
X241892777Y-52391663D01*
X241944866Y-52455134D01*
X242170987Y-52640706D01*
X242428967Y-52778599D01*
X242708890Y-52863513D01*
X243000000Y-52892185D01*
X243291111Y-52863513D01*
X243571034Y-52778599D01*
X243829014Y-52640706D01*
X244055134Y-52455134D01*
X244240706Y-52229014D01*
X244378599Y-51971033D01*
X244463513Y-51691110D01*
X244485000Y-51472949D01*
X244485000Y-51027050D01*
X244463513Y-50808889D01*
X244378599Y-50528966D01*
X244240706Y-50270986D01*
X244055134Y-50044866D01*
X243829013Y-49859294D01*
X243571033Y-49721401D01*
X243291110Y-49636487D01*
X243000000Y-49607815D01*
X242708889Y-49636487D01*
X242428966Y-49721401D01*
X242170986Y-49859294D01*
X241944866Y-50044866D01*
X241892777Y-50108337D01*
X241838405Y-50006614D01*
X241727962Y-49872038D01*
X241593386Y-49761595D01*
X241439850Y-49679528D01*
X241273254Y-49628992D01*
X241100000Y-49611928D01*
X239900000Y-49611928D01*
X239726746Y-49628992D01*
X239560150Y-49679528D01*
X239406614Y-49761595D01*
X239272038Y-49872038D01*
X239161595Y-50006614D01*
X239079528Y-50160150D01*
X239028992Y-50326746D01*
X239011928Y-50500000D01*
X234363117Y-50500000D01*
X234240706Y-50270986D01*
X234055134Y-50044866D01*
X233829013Y-49859294D01*
X233571033Y-49721401D01*
X233291110Y-49636487D01*
X233000000Y-49607815D01*
X232708889Y-49636487D01*
X232428966Y-49721401D01*
X232170986Y-49859294D01*
X231944866Y-50044866D01*
X231892777Y-50108337D01*
X231838405Y-50006614D01*
X231727962Y-49872038D01*
X231593386Y-49761595D01*
X231439850Y-49679528D01*
X231273254Y-49628992D01*
X231100000Y-49611928D01*
X229900000Y-49611928D01*
X229726746Y-49628992D01*
X229560150Y-49679528D01*
X229406614Y-49761595D01*
X229272038Y-49872038D01*
X229161595Y-50006614D01*
X229079528Y-50160150D01*
X229028992Y-50326746D01*
X229011928Y-50500000D01*
X224363117Y-50500000D01*
X224240706Y-50270986D01*
X224055134Y-50044866D01*
X223829013Y-49859294D01*
X223571033Y-49721401D01*
X223291110Y-49636487D01*
X223000000Y-49607815D01*
X222708889Y-49636487D01*
X222428966Y-49721401D01*
X222170986Y-49859294D01*
X221944866Y-50044866D01*
X221892777Y-50108337D01*
X221838405Y-50006614D01*
X221727962Y-49872038D01*
X221593386Y-49761595D01*
X221439850Y-49679528D01*
X221273254Y-49628992D01*
X221100000Y-49611928D01*
X219900000Y-49611928D01*
X219726746Y-49628992D01*
X219560150Y-49679528D01*
X219406614Y-49761595D01*
X219272038Y-49872038D01*
X219161595Y-50006614D01*
X219079528Y-50160150D01*
X219028992Y-50326746D01*
X219011928Y-50500000D01*
X214363117Y-50500000D01*
X214240706Y-50270986D01*
X214055134Y-50044866D01*
X213829013Y-49859294D01*
X213571033Y-49721401D01*
X213291110Y-49636487D01*
X213000000Y-49607815D01*
X212708889Y-49636487D01*
X212428966Y-49721401D01*
X212170986Y-49859294D01*
X211944866Y-50044866D01*
X211892777Y-50108337D01*
X211838405Y-50006614D01*
X211727962Y-49872038D01*
X211593386Y-49761595D01*
X211439850Y-49679528D01*
X211273254Y-49628992D01*
X211100000Y-49611928D01*
X209900000Y-49611928D01*
X209726746Y-49628992D01*
X209560150Y-49679528D01*
X209406614Y-49761595D01*
X209272038Y-49872038D01*
X209161595Y-50006614D01*
X209079528Y-50160150D01*
X209028992Y-50326746D01*
X209011928Y-50500000D01*
X205844496Y-50500000D01*
X205846072Y-50484000D01*
X205843000Y-50007750D01*
X205684250Y-49849000D01*
X204573000Y-49849000D01*
X204319000Y-49849000D01*
X203207750Y-49849000D01*
X203196000Y-49860750D01*
X203184250Y-49849000D01*
X202073000Y-49849000D01*
X201819000Y-49849000D01*
X200707750Y-49849000D01*
X200549000Y-50007750D01*
X200545928Y-50484000D01*
X194989004Y-50484000D01*
X195056005Y-50383727D01*
X195161314Y-50129490D01*
X195215000Y-49859592D01*
X195215000Y-49584408D01*
X195161314Y-49314510D01*
X195056005Y-49060273D01*
X194989005Y-48960000D01*
X200545928Y-48960000D01*
X200549000Y-49436250D01*
X200707750Y-49595000D01*
X201819000Y-49595000D01*
X201819000Y-48483750D01*
X202073000Y-48483750D01*
X202073000Y-49595000D01*
X203184250Y-49595000D01*
X203196000Y-49583250D01*
X203207750Y-49595000D01*
X204319000Y-49595000D01*
X204319000Y-48483750D01*
X204573000Y-48483750D01*
X204573000Y-49595000D01*
X205684250Y-49595000D01*
X205843000Y-49436250D01*
X205846072Y-48960000D01*
X205833812Y-48835518D01*
X205797502Y-48715820D01*
X205738537Y-48605506D01*
X205659185Y-48508815D01*
X205562494Y-48429463D01*
X205452180Y-48370498D01*
X205332482Y-48334188D01*
X205208000Y-48321928D01*
X204731750Y-48325000D01*
X204573000Y-48483750D01*
X204319000Y-48483750D01*
X204160250Y-48325000D01*
X203684000Y-48321928D01*
X203559518Y-48334188D01*
X203439820Y-48370498D01*
X203329506Y-48429463D01*
X203232815Y-48508815D01*
X203196000Y-48553674D01*
X203159185Y-48508815D01*
X203062494Y-48429463D01*
X202952180Y-48370498D01*
X202832482Y-48334188D01*
X202708000Y-48321928D01*
X202231750Y-48325000D01*
X202073000Y-48483750D01*
X201819000Y-48483750D01*
X201660250Y-48325000D01*
X201184000Y-48321928D01*
X201059518Y-48334188D01*
X200939820Y-48370498D01*
X200829506Y-48429463D01*
X200732815Y-48508815D01*
X200653463Y-48605506D01*
X200594498Y-48715820D01*
X200558188Y-48835518D01*
X200545928Y-48960000D01*
X194989005Y-48960000D01*
X194903120Y-48831465D01*
X194708535Y-48636880D01*
X194479727Y-48483995D01*
X194225490Y-48378686D01*
X193955592Y-48325000D01*
X193680408Y-48325000D01*
X193410510Y-48378686D01*
X193156273Y-48483995D01*
X192927465Y-48636880D01*
X192732880Y-48831465D01*
X192579995Y-49060273D01*
X192568000Y-49089231D01*
X192556005Y-49060273D01*
X192403120Y-48831465D01*
X192208535Y-48636880D01*
X191979727Y-48483995D01*
X191725490Y-48378686D01*
X191455592Y-48325000D01*
X191180408Y-48325000D01*
X190910510Y-48378686D01*
X190656273Y-48483995D01*
X190427465Y-48636880D01*
X190232880Y-48831465D01*
X190079995Y-49060273D01*
X189974686Y-49314510D01*
X189921000Y-49584408D01*
X177715000Y-49584408D01*
X177715000Y-49538408D01*
X177661314Y-49268510D01*
X177556005Y-49014273D01*
X177489005Y-48914000D01*
X183045928Y-48914000D01*
X183049000Y-49390250D01*
X183207750Y-49549000D01*
X184319000Y-49549000D01*
X184319000Y-48437750D01*
X184573000Y-48437750D01*
X184573000Y-49549000D01*
X185684250Y-49549000D01*
X185696000Y-49537250D01*
X185707750Y-49549000D01*
X186819000Y-49549000D01*
X186819000Y-48437750D01*
X187073000Y-48437750D01*
X187073000Y-49549000D01*
X188184250Y-49549000D01*
X188343000Y-49390250D01*
X188346072Y-48914000D01*
X188333812Y-48789518D01*
X188297502Y-48669820D01*
X188238537Y-48559506D01*
X188159185Y-48462815D01*
X188062494Y-48383463D01*
X187952180Y-48324498D01*
X187832482Y-48288188D01*
X187708000Y-48275928D01*
X187231750Y-48279000D01*
X187073000Y-48437750D01*
X186819000Y-48437750D01*
X186660250Y-48279000D01*
X186184000Y-48275928D01*
X186059518Y-48288188D01*
X185939820Y-48324498D01*
X185829506Y-48383463D01*
X185732815Y-48462815D01*
X185696000Y-48507674D01*
X185659185Y-48462815D01*
X185562494Y-48383463D01*
X185452180Y-48324498D01*
X185332482Y-48288188D01*
X185208000Y-48275928D01*
X184731750Y-48279000D01*
X184573000Y-48437750D01*
X184319000Y-48437750D01*
X184160250Y-48279000D01*
X183684000Y-48275928D01*
X183559518Y-48288188D01*
X183439820Y-48324498D01*
X183329506Y-48383463D01*
X183232815Y-48462815D01*
X183153463Y-48559506D01*
X183094498Y-48669820D01*
X183058188Y-48789518D01*
X183045928Y-48914000D01*
X177489005Y-48914000D01*
X177403120Y-48785465D01*
X177208535Y-48590880D01*
X176979727Y-48437995D01*
X176725490Y-48332686D01*
X176455592Y-48279000D01*
X176180408Y-48279000D01*
X175910510Y-48332686D01*
X175656273Y-48437995D01*
X175427465Y-48590880D01*
X175232880Y-48785465D01*
X175079995Y-49014273D01*
X175068000Y-49043231D01*
X175056005Y-49014273D01*
X174903120Y-48785465D01*
X174708535Y-48590880D01*
X174479727Y-48437995D01*
X174225490Y-48332686D01*
X173955592Y-48279000D01*
X173680408Y-48279000D01*
X173410510Y-48332686D01*
X173156273Y-48437995D01*
X172927465Y-48590880D01*
X172732880Y-48785465D01*
X172579995Y-49014273D01*
X172474686Y-49268510D01*
X172421000Y-49538408D01*
X170028008Y-49538408D01*
X170066274Y-49483427D01*
X170192192Y-49195038D01*
X170220846Y-49074973D01*
X170101044Y-48827000D01*
X167827000Y-48827000D01*
X167573000Y-48827000D01*
X165298956Y-48827000D01*
X165179154Y-49074973D01*
X162020846Y-49074973D01*
X161901044Y-48827000D01*
X159627000Y-48827000D01*
X159373000Y-48827000D01*
X157098956Y-48827000D01*
X156979154Y-49074973D01*
X155877000Y-49074973D01*
X155877000Y-48325027D01*
X156979154Y-48325027D01*
X157098956Y-48573000D01*
X159373000Y-48573000D01*
X159373000Y-47099800D01*
X159627000Y-47099800D01*
X159627000Y-48573000D01*
X161901044Y-48573000D01*
X162020846Y-48325027D01*
X165179154Y-48325027D01*
X165298956Y-48573000D01*
X167573000Y-48573000D01*
X167573000Y-47099800D01*
X167827000Y-47099800D01*
X167827000Y-48573000D01*
X170101044Y-48573000D01*
X170220846Y-48325027D01*
X170192192Y-48204962D01*
X170066274Y-47916573D01*
X169886514Y-47658290D01*
X169659819Y-47440040D01*
X169394902Y-47270209D01*
X169101943Y-47155324D01*
X168792200Y-47099800D01*
X167827000Y-47099800D01*
X167573000Y-47099800D01*
X166607800Y-47099800D01*
X166298057Y-47155324D01*
X166005098Y-47270209D01*
X165740181Y-47440040D01*
X165513486Y-47658290D01*
X165333726Y-47916573D01*
X165207808Y-48204962D01*
X165179154Y-48325027D01*
X162020846Y-48325027D01*
X161992192Y-48204962D01*
X161866274Y-47916573D01*
X161686514Y-47658290D01*
X161459819Y-47440040D01*
X161194902Y-47270209D01*
X160901943Y-47155324D01*
X160592200Y-47099800D01*
X159627000Y-47099800D01*
X159373000Y-47099800D01*
X158407800Y-47099800D01*
X158098057Y-47155324D01*
X157805098Y-47270209D01*
X157540181Y-47440040D01*
X157313486Y-47658290D01*
X157133726Y-47916573D01*
X157007808Y-48204962D01*
X156979154Y-48325027D01*
X155877000Y-48325027D01*
X155877000Y-43700000D01*
X156926858Y-43700000D01*
X156957754Y-44013694D01*
X157049255Y-44315333D01*
X157197845Y-44593325D01*
X157397813Y-44836987D01*
X157641475Y-45036955D01*
X157919467Y-45185545D01*
X158221106Y-45277046D01*
X158456194Y-45300200D01*
X160543806Y-45300200D01*
X160778894Y-45277046D01*
X161080533Y-45185545D01*
X161358525Y-45036955D01*
X161602187Y-44836987D01*
X161802155Y-44593325D01*
X161950745Y-44315333D01*
X162042246Y-44013694D01*
X162073142Y-43700000D01*
X165126858Y-43700000D01*
X165157754Y-44013694D01*
X165249255Y-44315333D01*
X165397845Y-44593325D01*
X165597813Y-44836987D01*
X165841475Y-45036955D01*
X166119467Y-45185545D01*
X166421106Y-45277046D01*
X166656194Y-45300200D01*
X168743806Y-45300200D01*
X168978894Y-45277046D01*
X169280533Y-45185545D01*
X169558525Y-45036955D01*
X169802187Y-44836987D01*
X170002155Y-44593325D01*
X170150745Y-44315333D01*
X170242246Y-44013694D01*
X170273142Y-43700000D01*
X170268027Y-43648061D01*
X227715000Y-43648061D01*
X227715000Y-43851939D01*
X227754774Y-44051898D01*
X227832795Y-44240256D01*
X227946063Y-44409774D01*
X228090226Y-44553937D01*
X228259744Y-44667205D01*
X228448102Y-44745226D01*
X228648061Y-44785000D01*
X228851939Y-44785000D01*
X229051898Y-44745226D01*
X229240256Y-44667205D01*
X229288454Y-44635000D01*
X231711546Y-44635000D01*
X231759744Y-44667205D01*
X231948102Y-44745226D01*
X232148061Y-44785000D01*
X232351939Y-44785000D01*
X232551898Y-44745226D01*
X232740256Y-44667205D01*
X232909774Y-44553937D01*
X233053937Y-44409774D01*
X233167205Y-44240256D01*
X233245226Y-44051898D01*
X233285000Y-43851939D01*
X233285000Y-43648061D01*
X233245226Y-43448102D01*
X233167205Y-43259744D01*
X233053937Y-43090226D01*
X232909774Y-42946063D01*
X232740256Y-42832795D01*
X232551898Y-42754774D01*
X232351939Y-42715000D01*
X232148061Y-42715000D01*
X231948102Y-42754774D01*
X231759744Y-42832795D01*
X231711546Y-42865000D01*
X229288454Y-42865000D01*
X229240256Y-42832795D01*
X229051898Y-42754774D01*
X228851939Y-42715000D01*
X228648061Y-42715000D01*
X228448102Y-42754774D01*
X228259744Y-42832795D01*
X228090226Y-42946063D01*
X227946063Y-43090226D01*
X227832795Y-43259744D01*
X227754774Y-43448102D01*
X227715000Y-43648061D01*
X170268027Y-43648061D01*
X170242246Y-43386306D01*
X170150745Y-43084667D01*
X170002155Y-42806675D01*
X169802187Y-42563013D01*
X169558525Y-42363045D01*
X169280533Y-42214455D01*
X168978894Y-42122954D01*
X168743806Y-42099800D01*
X166656194Y-42099800D01*
X166421106Y-42122954D01*
X166119467Y-42214455D01*
X165841475Y-42363045D01*
X165597813Y-42563013D01*
X165397845Y-42806675D01*
X165249255Y-43084667D01*
X165157754Y-43386306D01*
X165126858Y-43700000D01*
X162073142Y-43700000D01*
X162042246Y-43386306D01*
X161950745Y-43084667D01*
X161802155Y-42806675D01*
X161602187Y-42563013D01*
X161358525Y-42363045D01*
X161080533Y-42214455D01*
X160778894Y-42122954D01*
X160543806Y-42099800D01*
X158456194Y-42099800D01*
X158221106Y-42122954D01*
X157919467Y-42214455D01*
X157641475Y-42363045D01*
X157397813Y-42563013D01*
X157197845Y-42806675D01*
X157049255Y-43084667D01*
X156957754Y-43386306D01*
X156926858Y-43700000D01*
X155877000Y-43700000D01*
X155877000Y-40275000D01*
X178011928Y-40275000D01*
X178011928Y-41775000D01*
X178028992Y-41948254D01*
X178079528Y-42114850D01*
X178161595Y-42268386D01*
X178272038Y-42402962D01*
X178406614Y-42513405D01*
X178560150Y-42595472D01*
X178726746Y-42646008D01*
X178900000Y-42663072D01*
X180100000Y-42663072D01*
X180273254Y-42646008D01*
X180439850Y-42595472D01*
X180593386Y-42513405D01*
X180727962Y-42402962D01*
X180838405Y-42268386D01*
X180892777Y-42166663D01*
X180944866Y-42230134D01*
X181170987Y-42415706D01*
X181428967Y-42553599D01*
X181708890Y-42638513D01*
X182000000Y-42667185D01*
X182291111Y-42638513D01*
X182571034Y-42553599D01*
X182829014Y-42415706D01*
X183055134Y-42230134D01*
X183240706Y-42004014D01*
X183378599Y-41746033D01*
X183463513Y-41466110D01*
X183485000Y-41247949D01*
X183485000Y-40802050D01*
X183463513Y-40583889D01*
X183378599Y-40303966D01*
X183363117Y-40275000D01*
X187761928Y-40275000D01*
X187761928Y-41775000D01*
X187778992Y-41948254D01*
X187829528Y-42114850D01*
X187911595Y-42268386D01*
X188022038Y-42402962D01*
X188156614Y-42513405D01*
X188310150Y-42595472D01*
X188476746Y-42646008D01*
X188650000Y-42663072D01*
X189850000Y-42663072D01*
X190023254Y-42646008D01*
X190189850Y-42595472D01*
X190343386Y-42513405D01*
X190477962Y-42402962D01*
X190588405Y-42268386D01*
X190642777Y-42166663D01*
X190694866Y-42230134D01*
X190920987Y-42415706D01*
X191178967Y-42553599D01*
X191458890Y-42638513D01*
X191750000Y-42667185D01*
X192041111Y-42638513D01*
X192321034Y-42553599D01*
X192579014Y-42415706D01*
X192805134Y-42230134D01*
X192990706Y-42004014D01*
X193128599Y-41746033D01*
X193213513Y-41466110D01*
X193235000Y-41247949D01*
X193235000Y-40802050D01*
X193213513Y-40583889D01*
X193128599Y-40303966D01*
X193113117Y-40275000D01*
X197511928Y-40275000D01*
X197511928Y-41775000D01*
X197528992Y-41948254D01*
X197579528Y-42114850D01*
X197661595Y-42268386D01*
X197772038Y-42402962D01*
X197906614Y-42513405D01*
X198060150Y-42595472D01*
X198226746Y-42646008D01*
X198400000Y-42663072D01*
X199600000Y-42663072D01*
X199773254Y-42646008D01*
X199939850Y-42595472D01*
X200093386Y-42513405D01*
X200227962Y-42402962D01*
X200338405Y-42268386D01*
X200392777Y-42166663D01*
X200444866Y-42230134D01*
X200670987Y-42415706D01*
X200928967Y-42553599D01*
X201208890Y-42638513D01*
X201500000Y-42667185D01*
X201791111Y-42638513D01*
X202071034Y-42553599D01*
X202329014Y-42415706D01*
X202555134Y-42230134D01*
X202740706Y-42004014D01*
X202878599Y-41746033D01*
X202963513Y-41466110D01*
X202985000Y-41247949D01*
X202985000Y-40802050D01*
X202963513Y-40583889D01*
X202878599Y-40303966D01*
X202740706Y-40045986D01*
X202555134Y-39819866D01*
X202329013Y-39634294D01*
X202071033Y-39496401D01*
X201791110Y-39411487D01*
X201500000Y-39382815D01*
X201208889Y-39411487D01*
X200928966Y-39496401D01*
X200670986Y-39634294D01*
X200444866Y-39819866D01*
X200392777Y-39883337D01*
X200338405Y-39781614D01*
X200227962Y-39647038D01*
X200093386Y-39536595D01*
X199939850Y-39454528D01*
X199773254Y-39403992D01*
X199600000Y-39386928D01*
X198400000Y-39386928D01*
X198226746Y-39403992D01*
X198060150Y-39454528D01*
X197906614Y-39536595D01*
X197772038Y-39647038D01*
X197661595Y-39781614D01*
X197579528Y-39935150D01*
X197528992Y-40101746D01*
X197511928Y-40275000D01*
X193113117Y-40275000D01*
X192990706Y-40045986D01*
X192805134Y-39819866D01*
X192579013Y-39634294D01*
X192321033Y-39496401D01*
X192041110Y-39411487D01*
X191750000Y-39382815D01*
X191458889Y-39411487D01*
X191178966Y-39496401D01*
X190920986Y-39634294D01*
X190694866Y-39819866D01*
X190642777Y-39883337D01*
X190588405Y-39781614D01*
X190477962Y-39647038D01*
X190343386Y-39536595D01*
X190189850Y-39454528D01*
X190023254Y-39403992D01*
X189850000Y-39386928D01*
X188650000Y-39386928D01*
X188476746Y-39403992D01*
X188310150Y-39454528D01*
X188156614Y-39536595D01*
X188022038Y-39647038D01*
X187911595Y-39781614D01*
X187829528Y-39935150D01*
X187778992Y-40101746D01*
X187761928Y-40275000D01*
X183363117Y-40275000D01*
X183240706Y-40045986D01*
X183055134Y-39819866D01*
X182829013Y-39634294D01*
X182571033Y-39496401D01*
X182291110Y-39411487D01*
X182000000Y-39382815D01*
X181708889Y-39411487D01*
X181428966Y-39496401D01*
X181170986Y-39634294D01*
X180944866Y-39819866D01*
X180892777Y-39883337D01*
X180838405Y-39781614D01*
X180727962Y-39647038D01*
X180593386Y-39536595D01*
X180439850Y-39454528D01*
X180273254Y-39403992D01*
X180100000Y-39386928D01*
X178900000Y-39386928D01*
X178726746Y-39403992D01*
X178560150Y-39454528D01*
X178406614Y-39536595D01*
X178272038Y-39647038D01*
X178161595Y-39781614D01*
X178079528Y-39935150D01*
X178028992Y-40101746D01*
X178011928Y-40275000D01*
X155877000Y-40275000D01*
X155877000Y-37898061D01*
X205465000Y-37898061D01*
X205465000Y-38101939D01*
X205504774Y-38301898D01*
X205582795Y-38490256D01*
X205696063Y-38659774D01*
X205840226Y-38803937D01*
X206009744Y-38917205D01*
X206198102Y-38995226D01*
X206398061Y-39035000D01*
X206601939Y-39035000D01*
X206801898Y-38995226D01*
X206990256Y-38917205D01*
X207038454Y-38885000D01*
X212211546Y-38885000D01*
X212259744Y-38917205D01*
X212448102Y-38995226D01*
X212648061Y-39035000D01*
X212851939Y-39035000D01*
X213051898Y-38995226D01*
X213240256Y-38917205D01*
X213409774Y-38803937D01*
X213502084Y-38711627D01*
X213465000Y-38898061D01*
X213465000Y-39101939D01*
X213504774Y-39301898D01*
X213582795Y-39490256D01*
X213595717Y-39509595D01*
X213571033Y-39496401D01*
X213291110Y-39411487D01*
X213000000Y-39382815D01*
X212708889Y-39411487D01*
X212428966Y-39496401D01*
X212170986Y-39634294D01*
X211944866Y-39819866D01*
X211892777Y-39883337D01*
X211838405Y-39781614D01*
X211727962Y-39647038D01*
X211593386Y-39536595D01*
X211439850Y-39454528D01*
X211273254Y-39403992D01*
X211100000Y-39386928D01*
X209900000Y-39386928D01*
X209726746Y-39403992D01*
X209560150Y-39454528D01*
X209406614Y-39536595D01*
X209272038Y-39647038D01*
X209161595Y-39781614D01*
X209079528Y-39935150D01*
X209028992Y-40101746D01*
X209011928Y-40275000D01*
X209011928Y-41775000D01*
X209028992Y-41948254D01*
X209079528Y-42114850D01*
X209161595Y-42268386D01*
X209272038Y-42402962D01*
X209406614Y-42513405D01*
X209560150Y-42595472D01*
X209726746Y-42646008D01*
X209900000Y-42663072D01*
X211100000Y-42663072D01*
X211273254Y-42646008D01*
X211439850Y-42595472D01*
X211593386Y-42513405D01*
X211727962Y-42402962D01*
X211838405Y-42268386D01*
X211892777Y-42166663D01*
X211944866Y-42230134D01*
X212170987Y-42415706D01*
X212428967Y-42553599D01*
X212708890Y-42638513D01*
X213000000Y-42667185D01*
X213291111Y-42638513D01*
X213571034Y-42553599D01*
X213829014Y-42415706D01*
X214055134Y-42230134D01*
X214240706Y-42004014D01*
X214378599Y-41746033D01*
X214463513Y-41466110D01*
X214485000Y-41247949D01*
X214485000Y-40802050D01*
X214463513Y-40583889D01*
X214378599Y-40303966D01*
X214363117Y-40275000D01*
X219011928Y-40275000D01*
X219011928Y-41775000D01*
X219028992Y-41948254D01*
X219079528Y-42114850D01*
X219161595Y-42268386D01*
X219272038Y-42402962D01*
X219406614Y-42513405D01*
X219560150Y-42595472D01*
X219726746Y-42646008D01*
X219900000Y-42663072D01*
X221100000Y-42663072D01*
X221273254Y-42646008D01*
X221439850Y-42595472D01*
X221593386Y-42513405D01*
X221727962Y-42402962D01*
X221838405Y-42268386D01*
X221892777Y-42166663D01*
X221944866Y-42230134D01*
X222170987Y-42415706D01*
X222428967Y-42553599D01*
X222708890Y-42638513D01*
X223000000Y-42667185D01*
X223291111Y-42638513D01*
X223571034Y-42553599D01*
X223829014Y-42415706D01*
X224055134Y-42230134D01*
X224240706Y-42004014D01*
X224378599Y-41746033D01*
X224463513Y-41466110D01*
X224485000Y-41247949D01*
X224485000Y-40802050D01*
X224463513Y-40583889D01*
X224378599Y-40303966D01*
X224240706Y-40045986D01*
X224055134Y-39819866D01*
X223829013Y-39634294D01*
X223571033Y-39496401D01*
X223291110Y-39411487D01*
X223000000Y-39382815D01*
X222708889Y-39411487D01*
X222428966Y-39496401D01*
X222170986Y-39634294D01*
X221944866Y-39819866D01*
X221892777Y-39883337D01*
X221838405Y-39781614D01*
X221727962Y-39647038D01*
X221593386Y-39536595D01*
X221439850Y-39454528D01*
X221273254Y-39403992D01*
X221100000Y-39386928D01*
X219900000Y-39386928D01*
X219726746Y-39403992D01*
X219560150Y-39454528D01*
X219406614Y-39536595D01*
X219272038Y-39647038D01*
X219161595Y-39781614D01*
X219079528Y-39935150D01*
X219028992Y-40101746D01*
X219011928Y-40275000D01*
X214363117Y-40275000D01*
X214240706Y-40045986D01*
X214199233Y-39995451D01*
X214398061Y-40035000D01*
X214601939Y-40035000D01*
X214801898Y-39995226D01*
X214990256Y-39917205D01*
X215159774Y-39803937D01*
X215303937Y-39659774D01*
X215417205Y-39490256D01*
X215495226Y-39301898D01*
X215535000Y-39101939D01*
X215535000Y-38898061D01*
X215495226Y-38698102D01*
X215417205Y-38509744D01*
X215385000Y-38461546D01*
X215385000Y-35648061D01*
X224715000Y-35648061D01*
X224715000Y-35851939D01*
X224754774Y-36051898D01*
X224832795Y-36240256D01*
X224865001Y-36288456D01*
X224865000Y-39211545D01*
X224832795Y-39259744D01*
X224754774Y-39448102D01*
X224715000Y-39648061D01*
X224715000Y-39851939D01*
X224754774Y-40051898D01*
X224832795Y-40240256D01*
X224946063Y-40409774D01*
X225090226Y-40553937D01*
X225259744Y-40667205D01*
X225448102Y-40745226D01*
X225648061Y-40785000D01*
X225851939Y-40785000D01*
X226051898Y-40745226D01*
X226240256Y-40667205D01*
X226409774Y-40553937D01*
X226553937Y-40409774D01*
X226643989Y-40275000D01*
X229011928Y-40275000D01*
X229011928Y-41775000D01*
X229028992Y-41948254D01*
X229079528Y-42114850D01*
X229161595Y-42268386D01*
X229272038Y-42402962D01*
X229406614Y-42513405D01*
X229560150Y-42595472D01*
X229726746Y-42646008D01*
X229900000Y-42663072D01*
X231100000Y-42663072D01*
X231273254Y-42646008D01*
X231439850Y-42595472D01*
X231593386Y-42513405D01*
X231727962Y-42402962D01*
X231838405Y-42268386D01*
X231892777Y-42166663D01*
X231944866Y-42230134D01*
X232170987Y-42415706D01*
X232428967Y-42553599D01*
X232708890Y-42638513D01*
X233000000Y-42667185D01*
X233291111Y-42638513D01*
X233571034Y-42553599D01*
X233829014Y-42415706D01*
X234055134Y-42230134D01*
X234223483Y-42025000D01*
X239011928Y-42025000D01*
X239024188Y-42149482D01*
X239060498Y-42269180D01*
X239119463Y-42379494D01*
X239198815Y-42476185D01*
X239295506Y-42555537D01*
X239405820Y-42614502D01*
X239525518Y-42650812D01*
X239650000Y-42663072D01*
X240214250Y-42660000D01*
X240373000Y-42501250D01*
X240373000Y-41152000D01*
X239173750Y-41152000D01*
X239015000Y-41310750D01*
X239011928Y-42025000D01*
X234223483Y-42025000D01*
X234240706Y-42004014D01*
X234378599Y-41746033D01*
X234463513Y-41466110D01*
X234485000Y-41247949D01*
X234485000Y-40802050D01*
X234463513Y-40583889D01*
X234378599Y-40303966D01*
X234240706Y-40045986D01*
X234223484Y-40025000D01*
X239011928Y-40025000D01*
X239015000Y-40739250D01*
X239173750Y-40898000D01*
X240373000Y-40898000D01*
X240373000Y-39548750D01*
X240627000Y-39548750D01*
X240627000Y-40898000D01*
X240647000Y-40898000D01*
X240647000Y-41152000D01*
X240627000Y-41152000D01*
X240627000Y-42501250D01*
X240785750Y-42660000D01*
X241350000Y-42663072D01*
X241474482Y-42650812D01*
X241594180Y-42614502D01*
X241704494Y-42555537D01*
X241801185Y-42476185D01*
X241880537Y-42379494D01*
X241939502Y-42269180D01*
X241950055Y-42234392D01*
X242170987Y-42415706D01*
X242428967Y-42553599D01*
X242708890Y-42638513D01*
X243000000Y-42667185D01*
X243291111Y-42638513D01*
X243571034Y-42553599D01*
X243829014Y-42415706D01*
X244055134Y-42230134D01*
X244240706Y-42004014D01*
X244378599Y-41746033D01*
X244463513Y-41466110D01*
X244485000Y-41247949D01*
X244485000Y-40802050D01*
X244463513Y-40583889D01*
X244378599Y-40303966D01*
X244240706Y-40045986D01*
X244055134Y-39819866D01*
X243829013Y-39634294D01*
X243571033Y-39496401D01*
X243291110Y-39411487D01*
X243000000Y-39382815D01*
X242708889Y-39411487D01*
X242428966Y-39496401D01*
X242170986Y-39634294D01*
X241950055Y-39815608D01*
X241939502Y-39780820D01*
X241880537Y-39670506D01*
X241801185Y-39573815D01*
X241704494Y-39494463D01*
X241594180Y-39435498D01*
X241474482Y-39399188D01*
X241350000Y-39386928D01*
X240785750Y-39390000D01*
X240627000Y-39548750D01*
X240373000Y-39548750D01*
X240214250Y-39390000D01*
X239650000Y-39386928D01*
X239525518Y-39399188D01*
X239405820Y-39435498D01*
X239295506Y-39494463D01*
X239198815Y-39573815D01*
X239119463Y-39670506D01*
X239060498Y-39780820D01*
X239024188Y-39900518D01*
X239011928Y-40025000D01*
X234223484Y-40025000D01*
X234055134Y-39819866D01*
X233829013Y-39634294D01*
X233571033Y-39496401D01*
X233291110Y-39411487D01*
X233000000Y-39382815D01*
X232708889Y-39411487D01*
X232428966Y-39496401D01*
X232170986Y-39634294D01*
X231944866Y-39819866D01*
X231892777Y-39883337D01*
X231838405Y-39781614D01*
X231727962Y-39647038D01*
X231593386Y-39536595D01*
X231439850Y-39454528D01*
X231273254Y-39403992D01*
X231100000Y-39386928D01*
X229900000Y-39386928D01*
X229726746Y-39403992D01*
X229560150Y-39454528D01*
X229406614Y-39536595D01*
X229272038Y-39647038D01*
X229161595Y-39781614D01*
X229079528Y-39935150D01*
X229028992Y-40101746D01*
X229011928Y-40275000D01*
X226643989Y-40275000D01*
X226667205Y-40240256D01*
X226745226Y-40051898D01*
X226785000Y-39851939D01*
X226785000Y-39648061D01*
X226745226Y-39448102D01*
X226667205Y-39259744D01*
X226635000Y-39211546D01*
X226635000Y-36288454D01*
X226667205Y-36240256D01*
X226745226Y-36051898D01*
X226785000Y-35851939D01*
X226785000Y-35648061D01*
X226745226Y-35448102D01*
X226667205Y-35259744D01*
X226553937Y-35090226D01*
X226409774Y-34946063D01*
X226240256Y-34832795D01*
X226051898Y-34754774D01*
X225851939Y-34715000D01*
X225648061Y-34715000D01*
X225448102Y-34754774D01*
X225259744Y-34832795D01*
X225090226Y-34946063D01*
X224946063Y-35090226D01*
X224832795Y-35259744D01*
X224754774Y-35448102D01*
X224715000Y-35648061D01*
X215385000Y-35648061D01*
X215385000Y-31638464D01*
X215417205Y-31590266D01*
X215495226Y-31401908D01*
X215535000Y-31201949D01*
X215535000Y-30998071D01*
X215495226Y-30798112D01*
X215417205Y-30609754D01*
X215303937Y-30440236D01*
X215159774Y-30296073D01*
X214990256Y-30182805D01*
X214801898Y-30104784D01*
X214601939Y-30065010D01*
X214464116Y-30065010D01*
X214463513Y-30058889D01*
X214378599Y-29778966D01*
X214363117Y-29750000D01*
X219011928Y-29750000D01*
X219011928Y-31250000D01*
X219028992Y-31423254D01*
X219079528Y-31589850D01*
X219161595Y-31743386D01*
X219272038Y-31877962D01*
X219406614Y-31988405D01*
X219560150Y-32070472D01*
X219726746Y-32121008D01*
X219900000Y-32138072D01*
X221100000Y-32138072D01*
X221273254Y-32121008D01*
X221439850Y-32070472D01*
X221593386Y-31988405D01*
X221727962Y-31877962D01*
X221838405Y-31743386D01*
X221892777Y-31641663D01*
X221944866Y-31705134D01*
X222170987Y-31890706D01*
X222428967Y-32028599D01*
X222708890Y-32113513D01*
X223000000Y-32142185D01*
X223291111Y-32113513D01*
X223571034Y-32028599D01*
X223829014Y-31890706D01*
X224055134Y-31705134D01*
X224240706Y-31479014D01*
X224378599Y-31221033D01*
X224463513Y-30941110D01*
X224485000Y-30722949D01*
X224485000Y-30277050D01*
X224463513Y-30058889D01*
X224378599Y-29778966D01*
X224363117Y-29750000D01*
X229011928Y-29750000D01*
X229011928Y-31250000D01*
X229028992Y-31423254D01*
X229079528Y-31589850D01*
X229161595Y-31743386D01*
X229272038Y-31877962D01*
X229406614Y-31988405D01*
X229560150Y-32070472D01*
X229726746Y-32121008D01*
X229900000Y-32138072D01*
X231100000Y-32138072D01*
X231273254Y-32121008D01*
X231439850Y-32070472D01*
X231593386Y-31988405D01*
X231727962Y-31877962D01*
X231838405Y-31743386D01*
X231892777Y-31641663D01*
X231944866Y-31705134D01*
X232170987Y-31890706D01*
X232428967Y-32028599D01*
X232708890Y-32113513D01*
X233000000Y-32142185D01*
X233291111Y-32113513D01*
X233571034Y-32028599D01*
X233829014Y-31890706D01*
X234055134Y-31705134D01*
X234223483Y-31500000D01*
X239011928Y-31500000D01*
X239024188Y-31624482D01*
X239060498Y-31744180D01*
X239119463Y-31854494D01*
X239198815Y-31951185D01*
X239295506Y-32030537D01*
X239405820Y-32089502D01*
X239525518Y-32125812D01*
X239650000Y-32138072D01*
X240214250Y-32135000D01*
X240373000Y-31976250D01*
X240373000Y-30627000D01*
X239173750Y-30627000D01*
X239015000Y-30785750D01*
X239011928Y-31500000D01*
X234223483Y-31500000D01*
X234240706Y-31479014D01*
X234378599Y-31221033D01*
X234463513Y-30941110D01*
X234485000Y-30722949D01*
X234485000Y-30277050D01*
X234463513Y-30058889D01*
X234378599Y-29778966D01*
X234240706Y-29520986D01*
X234223484Y-29500000D01*
X239011928Y-29500000D01*
X239015000Y-30214250D01*
X239173750Y-30373000D01*
X240373000Y-30373000D01*
X240373000Y-29023750D01*
X240627000Y-29023750D01*
X240627000Y-30373000D01*
X240647000Y-30373000D01*
X240647000Y-30627000D01*
X240627000Y-30627000D01*
X240627000Y-31976250D01*
X240785750Y-32135000D01*
X241350000Y-32138072D01*
X241474482Y-32125812D01*
X241594180Y-32089502D01*
X241704494Y-32030537D01*
X241801185Y-31951185D01*
X241880537Y-31854494D01*
X241939502Y-31744180D01*
X241950055Y-31709392D01*
X242170987Y-31890706D01*
X242428967Y-32028599D01*
X242708890Y-32113513D01*
X243000000Y-32142185D01*
X243291111Y-32113513D01*
X243571034Y-32028599D01*
X243829014Y-31890706D01*
X244055134Y-31705134D01*
X244240706Y-31479014D01*
X244378599Y-31221033D01*
X244463513Y-30941110D01*
X244485000Y-30722949D01*
X244485000Y-30277050D01*
X244463513Y-30058889D01*
X244378599Y-29778966D01*
X244240706Y-29520986D01*
X244055134Y-29294866D01*
X243829013Y-29109294D01*
X243571033Y-28971401D01*
X243291110Y-28886487D01*
X243000000Y-28857815D01*
X242708889Y-28886487D01*
X242428966Y-28971401D01*
X242170986Y-29109294D01*
X241950055Y-29290608D01*
X241939502Y-29255820D01*
X241880537Y-29145506D01*
X241801185Y-29048815D01*
X241704494Y-28969463D01*
X241594180Y-28910498D01*
X241474482Y-28874188D01*
X241350000Y-28861928D01*
X240785750Y-28865000D01*
X240627000Y-29023750D01*
X240373000Y-29023750D01*
X240214250Y-28865000D01*
X239650000Y-28861928D01*
X239525518Y-28874188D01*
X239405820Y-28910498D01*
X239295506Y-28969463D01*
X239198815Y-29048815D01*
X239119463Y-29145506D01*
X239060498Y-29255820D01*
X239024188Y-29375518D01*
X239011928Y-29500000D01*
X234223484Y-29500000D01*
X234055134Y-29294866D01*
X233829013Y-29109294D01*
X233571033Y-28971401D01*
X233291110Y-28886487D01*
X233000000Y-28857815D01*
X232708889Y-28886487D01*
X232428966Y-28971401D01*
X232170986Y-29109294D01*
X231944866Y-29294866D01*
X231892777Y-29358337D01*
X231838405Y-29256614D01*
X231727962Y-29122038D01*
X231593386Y-29011595D01*
X231439850Y-28929528D01*
X231273254Y-28878992D01*
X231100000Y-28861928D01*
X229900000Y-28861928D01*
X229726746Y-28878992D01*
X229560150Y-28929528D01*
X229406614Y-29011595D01*
X229272038Y-29122038D01*
X229161595Y-29256614D01*
X229079528Y-29410150D01*
X229028992Y-29576746D01*
X229011928Y-29750000D01*
X224363117Y-29750000D01*
X224240706Y-29520986D01*
X224055134Y-29294866D01*
X223829013Y-29109294D01*
X223571033Y-28971401D01*
X223291110Y-28886487D01*
X223000000Y-28857815D01*
X222708889Y-28886487D01*
X222428966Y-28971401D01*
X222170986Y-29109294D01*
X221944866Y-29294866D01*
X221892777Y-29358337D01*
X221838405Y-29256614D01*
X221727962Y-29122038D01*
X221593386Y-29011595D01*
X221439850Y-28929528D01*
X221273254Y-28878992D01*
X221100000Y-28861928D01*
X219900000Y-28861928D01*
X219726746Y-28878992D01*
X219560150Y-28929528D01*
X219406614Y-29011595D01*
X219272038Y-29122038D01*
X219161595Y-29256614D01*
X219079528Y-29410150D01*
X219028992Y-29576746D01*
X219011928Y-29750000D01*
X214363117Y-29750000D01*
X214240706Y-29520986D01*
X214055134Y-29294866D01*
X213829013Y-29109294D01*
X213571033Y-28971401D01*
X213291110Y-28886487D01*
X213000000Y-28857815D01*
X212708889Y-28886487D01*
X212428966Y-28971401D01*
X212170986Y-29109294D01*
X211944866Y-29294866D01*
X211892777Y-29358337D01*
X211838405Y-29256614D01*
X211727962Y-29122038D01*
X211593386Y-29011595D01*
X211439850Y-28929528D01*
X211273254Y-28878992D01*
X211100000Y-28861928D01*
X209900000Y-28861928D01*
X209726746Y-28878992D01*
X209560150Y-28929528D01*
X209406614Y-29011595D01*
X209272038Y-29122038D01*
X209161595Y-29256614D01*
X209079528Y-29410150D01*
X209028992Y-29576746D01*
X209011928Y-29750000D01*
X209011928Y-31250000D01*
X209028992Y-31423254D01*
X209079528Y-31589850D01*
X209161595Y-31743386D01*
X209272038Y-31877962D01*
X209406614Y-31988405D01*
X209560150Y-32070472D01*
X209726746Y-32121008D01*
X209900000Y-32138072D01*
X211100000Y-32138072D01*
X211273254Y-32121008D01*
X211439850Y-32070472D01*
X211593386Y-31988405D01*
X211727962Y-31877962D01*
X211838405Y-31743386D01*
X211892777Y-31641663D01*
X211944866Y-31705134D01*
X212170987Y-31890706D01*
X212428967Y-32028599D01*
X212708890Y-32113513D01*
X213000000Y-32142185D01*
X213291111Y-32113513D01*
X213571034Y-32028599D01*
X213615001Y-32005098D01*
X213615000Y-37431614D01*
X213553937Y-37340226D01*
X213409774Y-37196063D01*
X213240256Y-37082795D01*
X213051898Y-37004774D01*
X212851939Y-36965000D01*
X212648061Y-36965000D01*
X212448102Y-37004774D01*
X212259744Y-37082795D01*
X212211546Y-37115000D01*
X207038454Y-37115000D01*
X206990256Y-37082795D01*
X206801898Y-37004774D01*
X206601939Y-36965000D01*
X206398061Y-36965000D01*
X206198102Y-37004774D01*
X206009744Y-37082795D01*
X205840226Y-37196063D01*
X205696063Y-37340226D01*
X205582795Y-37509744D01*
X205504774Y-37698102D01*
X205465000Y-37898061D01*
X155877000Y-37898061D01*
X155877000Y-36574973D01*
X156979154Y-36574973D01*
X157007808Y-36695038D01*
X157133726Y-36983427D01*
X157313486Y-37241710D01*
X157540181Y-37459960D01*
X157805098Y-37629791D01*
X158098057Y-37744676D01*
X158407800Y-37800200D01*
X159373000Y-37800200D01*
X159373000Y-36327000D01*
X159627000Y-36327000D01*
X159627000Y-37800200D01*
X160592200Y-37800200D01*
X160901943Y-37744676D01*
X161194902Y-37629791D01*
X161459819Y-37459960D01*
X161686514Y-37241710D01*
X161866274Y-36983427D01*
X161992192Y-36695038D01*
X162020846Y-36574973D01*
X165179154Y-36574973D01*
X165207808Y-36695038D01*
X165333726Y-36983427D01*
X165513486Y-37241710D01*
X165740181Y-37459960D01*
X166005098Y-37629791D01*
X166298057Y-37744676D01*
X166607800Y-37800200D01*
X167573000Y-37800200D01*
X167573000Y-36327000D01*
X167827000Y-36327000D01*
X167827000Y-37800200D01*
X168792200Y-37800200D01*
X169101943Y-37744676D01*
X169394902Y-37629791D01*
X169659819Y-37459960D01*
X169886514Y-37241710D01*
X170066274Y-36983427D01*
X170192192Y-36695038D01*
X170220846Y-36574973D01*
X170101044Y-36327000D01*
X167827000Y-36327000D01*
X167573000Y-36327000D01*
X165298956Y-36327000D01*
X165179154Y-36574973D01*
X162020846Y-36574973D01*
X161901044Y-36327000D01*
X159627000Y-36327000D01*
X159373000Y-36327000D01*
X157098956Y-36327000D01*
X156979154Y-36574973D01*
X155877000Y-36574973D01*
X155877000Y-35825027D01*
X156979154Y-35825027D01*
X157098956Y-36073000D01*
X159373000Y-36073000D01*
X159373000Y-34599800D01*
X159627000Y-34599800D01*
X159627000Y-36073000D01*
X161901044Y-36073000D01*
X162020846Y-35825027D01*
X165179154Y-35825027D01*
X165298956Y-36073000D01*
X167573000Y-36073000D01*
X167573000Y-34599800D01*
X167827000Y-34599800D01*
X167827000Y-36073000D01*
X170101044Y-36073000D01*
X170220846Y-35825027D01*
X170192192Y-35704962D01*
X170066274Y-35416573D01*
X169886514Y-35158290D01*
X169659819Y-34940040D01*
X169394902Y-34770209D01*
X169101943Y-34655324D01*
X168792200Y-34599800D01*
X167827000Y-34599800D01*
X167573000Y-34599800D01*
X166607800Y-34599800D01*
X166298057Y-34655324D01*
X166005098Y-34770209D01*
X165740181Y-34940040D01*
X165513486Y-35158290D01*
X165333726Y-35416573D01*
X165207808Y-35704962D01*
X165179154Y-35825027D01*
X162020846Y-35825027D01*
X161992192Y-35704962D01*
X161866274Y-35416573D01*
X161686514Y-35158290D01*
X161459819Y-34940040D01*
X161194902Y-34770209D01*
X160901943Y-34655324D01*
X160592200Y-34599800D01*
X159627000Y-34599800D01*
X159373000Y-34599800D01*
X158407800Y-34599800D01*
X158098057Y-34655324D01*
X157805098Y-34770209D01*
X157540181Y-34940040D01*
X157313486Y-35158290D01*
X157133726Y-35416573D01*
X157007808Y-35704962D01*
X156979154Y-35825027D01*
X155877000Y-35825027D01*
X155877000Y-31200000D01*
X156926858Y-31200000D01*
X156957754Y-31513694D01*
X157049255Y-31815333D01*
X157197845Y-32093325D01*
X157397813Y-32336987D01*
X157641475Y-32536955D01*
X157919467Y-32685545D01*
X158221106Y-32777046D01*
X158456194Y-32800200D01*
X160543806Y-32800200D01*
X160778894Y-32777046D01*
X161080533Y-32685545D01*
X161358525Y-32536955D01*
X161602187Y-32336987D01*
X161802155Y-32093325D01*
X161950745Y-31815333D01*
X162042246Y-31513694D01*
X162073142Y-31200000D01*
X165126858Y-31200000D01*
X165157754Y-31513694D01*
X165249255Y-31815333D01*
X165397845Y-32093325D01*
X165597813Y-32336987D01*
X165841475Y-32536955D01*
X166119467Y-32685545D01*
X166421106Y-32777046D01*
X166656194Y-32800200D01*
X168743806Y-32800200D01*
X168978894Y-32777046D01*
X169280533Y-32685545D01*
X169558525Y-32536955D01*
X169802187Y-32336987D01*
X170002155Y-32093325D01*
X170150745Y-31815333D01*
X170242246Y-31513694D01*
X170273142Y-31200000D01*
X170253091Y-30996408D01*
X172421000Y-30996408D01*
X172421000Y-31271592D01*
X172474686Y-31541490D01*
X172579995Y-31795727D01*
X172732880Y-32024535D01*
X172927465Y-32219120D01*
X173156273Y-32372005D01*
X173410510Y-32477314D01*
X173680408Y-32531000D01*
X173955592Y-32531000D01*
X174225490Y-32477314D01*
X174479727Y-32372005D01*
X174708535Y-32219120D01*
X174903120Y-32024535D01*
X175056005Y-31795727D01*
X175068000Y-31766769D01*
X175079995Y-31795727D01*
X175232880Y-32024535D01*
X175427465Y-32219120D01*
X175656273Y-32372005D01*
X175910510Y-32477314D01*
X176180408Y-32531000D01*
X176455592Y-32531000D01*
X176725490Y-32477314D01*
X176979727Y-32372005D01*
X177208535Y-32219120D01*
X177403120Y-32024535D01*
X177556005Y-31795727D01*
X177661314Y-31541490D01*
X177715000Y-31271592D01*
X177715000Y-30996408D01*
X177661314Y-30726510D01*
X177556005Y-30472273D01*
X177489005Y-30372000D01*
X183045928Y-30372000D01*
X183045928Y-31896000D01*
X183058188Y-32020482D01*
X183094498Y-32140180D01*
X183153463Y-32250494D01*
X183232815Y-32347185D01*
X183329506Y-32426537D01*
X183439820Y-32485502D01*
X183559518Y-32521812D01*
X183684000Y-32534072D01*
X185208000Y-32534072D01*
X185332482Y-32521812D01*
X185452180Y-32485502D01*
X185562494Y-32426537D01*
X185659185Y-32347185D01*
X185696000Y-32302326D01*
X185732815Y-32347185D01*
X185829506Y-32426537D01*
X185939820Y-32485502D01*
X186059518Y-32521812D01*
X186184000Y-32534072D01*
X187708000Y-32534072D01*
X187832482Y-32521812D01*
X187952180Y-32485502D01*
X188062494Y-32426537D01*
X188159185Y-32347185D01*
X188238537Y-32250494D01*
X188297502Y-32140180D01*
X188333812Y-32020482D01*
X188346072Y-31896000D01*
X188346072Y-31042408D01*
X189921000Y-31042408D01*
X189921000Y-31317592D01*
X189974686Y-31587490D01*
X190079995Y-31841727D01*
X190232880Y-32070535D01*
X190427465Y-32265120D01*
X190656273Y-32418005D01*
X190910510Y-32523314D01*
X191180408Y-32577000D01*
X191455592Y-32577000D01*
X191725490Y-32523314D01*
X191979727Y-32418005D01*
X192208535Y-32265120D01*
X192403120Y-32070535D01*
X192556005Y-31841727D01*
X192568000Y-31812769D01*
X192579995Y-31841727D01*
X192732880Y-32070535D01*
X192927465Y-32265120D01*
X193156273Y-32418005D01*
X193410510Y-32523314D01*
X193680408Y-32577000D01*
X193955592Y-32577000D01*
X194225490Y-32523314D01*
X194479727Y-32418005D01*
X194708535Y-32265120D01*
X194903120Y-32070535D01*
X195056005Y-31841727D01*
X195161314Y-31587490D01*
X195215000Y-31317592D01*
X195215000Y-31042408D01*
X195161314Y-30772510D01*
X195056005Y-30518273D01*
X194989005Y-30418000D01*
X200545928Y-30418000D01*
X200545928Y-31942000D01*
X200558188Y-32066482D01*
X200594498Y-32186180D01*
X200653463Y-32296494D01*
X200732815Y-32393185D01*
X200829506Y-32472537D01*
X200939820Y-32531502D01*
X201059518Y-32567812D01*
X201184000Y-32580072D01*
X202708000Y-32580072D01*
X202832482Y-32567812D01*
X202952180Y-32531502D01*
X203062494Y-32472537D01*
X203159185Y-32393185D01*
X203196000Y-32348326D01*
X203232815Y-32393185D01*
X203329506Y-32472537D01*
X203439820Y-32531502D01*
X203559518Y-32567812D01*
X203684000Y-32580072D01*
X205208000Y-32580072D01*
X205332482Y-32567812D01*
X205452180Y-32531502D01*
X205562494Y-32472537D01*
X205659185Y-32393185D01*
X205738537Y-32296494D01*
X205797502Y-32186180D01*
X205833812Y-32066482D01*
X205846072Y-31942000D01*
X205846072Y-30418000D01*
X205833812Y-30293518D01*
X205797502Y-30173820D01*
X205738537Y-30063506D01*
X205659185Y-29966815D01*
X205562494Y-29887463D01*
X205452180Y-29828498D01*
X205332482Y-29792188D01*
X205208000Y-29779928D01*
X203684000Y-29779928D01*
X203559518Y-29792188D01*
X203439820Y-29828498D01*
X203329506Y-29887463D01*
X203232815Y-29966815D01*
X203196000Y-30011674D01*
X203159185Y-29966815D01*
X203062494Y-29887463D01*
X202952180Y-29828498D01*
X202832482Y-29792188D01*
X202708000Y-29779928D01*
X201184000Y-29779928D01*
X201059518Y-29792188D01*
X200939820Y-29828498D01*
X200829506Y-29887463D01*
X200732815Y-29966815D01*
X200653463Y-30063506D01*
X200594498Y-30173820D01*
X200558188Y-30293518D01*
X200545928Y-30418000D01*
X194989005Y-30418000D01*
X194903120Y-30289465D01*
X194708535Y-30094880D01*
X194479727Y-29941995D01*
X194225490Y-29836686D01*
X193955592Y-29783000D01*
X193680408Y-29783000D01*
X193410510Y-29836686D01*
X193156273Y-29941995D01*
X192927465Y-30094880D01*
X192732880Y-30289465D01*
X192579995Y-30518273D01*
X192568000Y-30547231D01*
X192556005Y-30518273D01*
X192403120Y-30289465D01*
X192208535Y-30094880D01*
X191979727Y-29941995D01*
X191725490Y-29836686D01*
X191455592Y-29783000D01*
X191180408Y-29783000D01*
X190910510Y-29836686D01*
X190656273Y-29941995D01*
X190427465Y-30094880D01*
X190232880Y-30289465D01*
X190079995Y-30518273D01*
X189974686Y-30772510D01*
X189921000Y-31042408D01*
X188346072Y-31042408D01*
X188346072Y-30372000D01*
X188333812Y-30247518D01*
X188297502Y-30127820D01*
X188238537Y-30017506D01*
X188159185Y-29920815D01*
X188062494Y-29841463D01*
X187952180Y-29782498D01*
X187832482Y-29746188D01*
X187708000Y-29733928D01*
X186184000Y-29733928D01*
X186059518Y-29746188D01*
X185939820Y-29782498D01*
X185829506Y-29841463D01*
X185732815Y-29920815D01*
X185696000Y-29965674D01*
X185659185Y-29920815D01*
X185562494Y-29841463D01*
X185452180Y-29782498D01*
X185332482Y-29746188D01*
X185208000Y-29733928D01*
X183684000Y-29733928D01*
X183559518Y-29746188D01*
X183439820Y-29782498D01*
X183329506Y-29841463D01*
X183232815Y-29920815D01*
X183153463Y-30017506D01*
X183094498Y-30127820D01*
X183058188Y-30247518D01*
X183045928Y-30372000D01*
X177489005Y-30372000D01*
X177403120Y-30243465D01*
X177208535Y-30048880D01*
X176979727Y-29895995D01*
X176725490Y-29790686D01*
X176455592Y-29737000D01*
X176180408Y-29737000D01*
X175910510Y-29790686D01*
X175656273Y-29895995D01*
X175427465Y-30048880D01*
X175232880Y-30243465D01*
X175079995Y-30472273D01*
X175068000Y-30501231D01*
X175056005Y-30472273D01*
X174903120Y-30243465D01*
X174708535Y-30048880D01*
X174479727Y-29895995D01*
X174225490Y-29790686D01*
X173955592Y-29737000D01*
X173680408Y-29737000D01*
X173410510Y-29790686D01*
X173156273Y-29895995D01*
X172927465Y-30048880D01*
X172732880Y-30243465D01*
X172579995Y-30472273D01*
X172474686Y-30726510D01*
X172421000Y-30996408D01*
X170253091Y-30996408D01*
X170242246Y-30886306D01*
X170150745Y-30584667D01*
X170002155Y-30306675D01*
X169802187Y-30063013D01*
X169558525Y-29863045D01*
X169280533Y-29714455D01*
X168978894Y-29622954D01*
X168743806Y-29599800D01*
X166656194Y-29599800D01*
X166421106Y-29622954D01*
X166119467Y-29714455D01*
X165841475Y-29863045D01*
X165597813Y-30063013D01*
X165397845Y-30306675D01*
X165249255Y-30584667D01*
X165157754Y-30886306D01*
X165126858Y-31200000D01*
X162073142Y-31200000D01*
X162042246Y-30886306D01*
X161950745Y-30584667D01*
X161802155Y-30306675D01*
X161602187Y-30063013D01*
X161358525Y-29863045D01*
X161080533Y-29714455D01*
X160778894Y-29622954D01*
X160543806Y-29599800D01*
X158456194Y-29599800D01*
X158221106Y-29622954D01*
X157919467Y-29714455D01*
X157641475Y-29863045D01*
X157397813Y-30063013D01*
X157197845Y-30306675D01*
X157049255Y-30584667D01*
X156957754Y-30886306D01*
X156926858Y-31200000D01*
X155877000Y-31200000D01*
X155877000Y-25660000D01*
X247373000Y-25660000D01*
X247373000Y-55340000D01*
M02*
