G04 #@! TF.GenerationSoftware,KiCad,Pcbnew,(5.1.5)-3*
G04 #@! TF.CreationDate,2020-12-03T20:27:54+01:00*
G04 #@! TF.ProjectId,MCU_board,4d43555f-626f-4617-9264-2e6b69636164,rev?*
G04 #@! TF.SameCoordinates,Original*
G04 #@! TF.FileFunction,Soldermask,Bot*
G04 #@! TF.FilePolarity,Negative*
%FSLAX46Y46*%
G04 Gerber Fmt 4.6, Leading zero omitted, Abs format (unit mm)*
G04 Created by KiCad (PCBNEW (5.1.5)-3) date 2020-12-03 20:27:54*
%MOMM*%
%LPD*%
G04 APERTURE LIST*
%ADD10C,0.100000*%
G04 APERTURE END LIST*
D10*
G36*
X83031355Y-111432140D02*
G01*
X83095118Y-111438420D01*
X83185904Y-111465960D01*
X83217836Y-111475646D01*
X83330925Y-111536094D01*
X83430054Y-111617446D01*
X83511406Y-111716575D01*
X83571854Y-111829664D01*
X83571855Y-111829668D01*
X83609080Y-111952382D01*
X83621649Y-112080000D01*
X83609080Y-112207618D01*
X83581540Y-112298404D01*
X83571854Y-112330336D01*
X83511406Y-112443425D01*
X83430054Y-112542554D01*
X83330925Y-112623906D01*
X83217836Y-112684354D01*
X83185904Y-112694040D01*
X83095118Y-112721580D01*
X83031355Y-112727860D01*
X82999474Y-112731000D01*
X82235526Y-112731000D01*
X82203645Y-112727860D01*
X82139882Y-112721580D01*
X82049096Y-112694040D01*
X82017164Y-112684354D01*
X81904075Y-112623906D01*
X81804946Y-112542554D01*
X81723594Y-112443425D01*
X81663146Y-112330336D01*
X81653460Y-112298404D01*
X81625920Y-112207618D01*
X81613351Y-112080000D01*
X81625920Y-111952382D01*
X81663145Y-111829668D01*
X81663146Y-111829664D01*
X81723594Y-111716575D01*
X81804946Y-111617446D01*
X81904075Y-111536094D01*
X82017164Y-111475646D01*
X82049096Y-111465960D01*
X82139882Y-111438420D01*
X82203645Y-111432140D01*
X82235526Y-111429000D01*
X82999474Y-111429000D01*
X83031355Y-111432140D01*
G37*
G36*
X41806626Y-110567037D02*
G01*
X41976465Y-110618557D01*
X41976467Y-110618558D01*
X42132989Y-110702221D01*
X42270186Y-110814814D01*
X42353448Y-110916271D01*
X42382778Y-110952009D01*
X42466443Y-111108534D01*
X42517963Y-111278373D01*
X42524482Y-111344558D01*
X42531000Y-111410740D01*
X42531000Y-111749259D01*
X42529185Y-111767683D01*
X42517963Y-111881626D01*
X42466443Y-112051466D01*
X42382778Y-112207991D01*
X42353448Y-112243729D01*
X42270186Y-112345186D01*
X42175250Y-112423097D01*
X42132991Y-112457778D01*
X41976466Y-112541443D01*
X41806627Y-112592963D01*
X41630000Y-112610359D01*
X41453374Y-112592963D01*
X41283535Y-112541443D01*
X41127010Y-112457778D01*
X40989815Y-112345185D01*
X40877222Y-112207991D01*
X40793557Y-112051466D01*
X40742037Y-111881627D01*
X40729000Y-111749258D01*
X40729000Y-111410743D01*
X40742037Y-111278374D01*
X40793557Y-111108535D01*
X40877222Y-110952010D01*
X40877223Y-110952009D01*
X40989814Y-110814814D01*
X41091271Y-110731552D01*
X41127009Y-110702222D01*
X41283534Y-110618557D01*
X41453373Y-110567037D01*
X41630000Y-110549641D01*
X41806626Y-110567037D01*
G37*
G36*
X46806626Y-110567037D02*
G01*
X46976465Y-110618557D01*
X46976467Y-110618558D01*
X47132989Y-110702221D01*
X47270186Y-110814814D01*
X47353448Y-110916271D01*
X47382778Y-110952009D01*
X47466443Y-111108534D01*
X47517963Y-111278373D01*
X47524481Y-111344557D01*
X47531000Y-111410740D01*
X47531000Y-111749259D01*
X47529185Y-111767683D01*
X47517963Y-111881626D01*
X47466443Y-112051466D01*
X47382778Y-112207991D01*
X47353448Y-112243729D01*
X47270186Y-112345186D01*
X47175250Y-112423097D01*
X47132991Y-112457778D01*
X46976466Y-112541443D01*
X46806627Y-112592963D01*
X46630000Y-112610359D01*
X46453374Y-112592963D01*
X46283535Y-112541443D01*
X46127010Y-112457778D01*
X45989815Y-112345185D01*
X45877222Y-112207991D01*
X45793557Y-112051466D01*
X45742037Y-111881627D01*
X45729000Y-111749258D01*
X45729000Y-111410743D01*
X45742037Y-111278374D01*
X45793557Y-111108535D01*
X45877222Y-110952010D01*
X45877223Y-110952009D01*
X45989814Y-110814814D01*
X46091271Y-110731552D01*
X46127009Y-110702222D01*
X46283534Y-110618557D01*
X46453373Y-110567037D01*
X46630000Y-110549641D01*
X46806626Y-110567037D01*
G37*
G36*
X44306626Y-110567037D02*
G01*
X44476465Y-110618557D01*
X44476467Y-110618558D01*
X44632989Y-110702221D01*
X44770186Y-110814814D01*
X44853448Y-110916271D01*
X44882778Y-110952009D01*
X44966443Y-111108534D01*
X45017963Y-111278373D01*
X45024481Y-111344557D01*
X45031000Y-111410740D01*
X45031000Y-111749259D01*
X45029185Y-111767683D01*
X45017963Y-111881626D01*
X44966443Y-112051466D01*
X44882778Y-112207991D01*
X44853448Y-112243729D01*
X44770186Y-112345186D01*
X44675250Y-112423097D01*
X44632991Y-112457778D01*
X44476466Y-112541443D01*
X44306627Y-112592963D01*
X44130000Y-112610359D01*
X43953374Y-112592963D01*
X43783535Y-112541443D01*
X43627010Y-112457778D01*
X43489815Y-112345185D01*
X43377222Y-112207991D01*
X43293557Y-112051466D01*
X43242037Y-111881627D01*
X43229000Y-111749258D01*
X43229000Y-111410743D01*
X43242037Y-111278374D01*
X43293557Y-111108535D01*
X43377222Y-110952010D01*
X43377223Y-110952009D01*
X43489814Y-110814814D01*
X43591271Y-110731552D01*
X43627009Y-110702222D01*
X43783534Y-110618557D01*
X43953373Y-110567037D01*
X44130000Y-110549641D01*
X44306626Y-110567037D01*
G37*
G36*
X39888600Y-110557989D02*
G01*
X39921652Y-110568015D01*
X39952103Y-110584292D01*
X39978799Y-110606201D01*
X40000708Y-110632897D01*
X40016985Y-110663348D01*
X40027011Y-110696400D01*
X40031000Y-110736903D01*
X40031000Y-112423097D01*
X40027011Y-112463600D01*
X40016985Y-112496652D01*
X40000708Y-112527103D01*
X39978799Y-112553799D01*
X39952103Y-112575708D01*
X39921652Y-112591985D01*
X39888600Y-112602011D01*
X39848097Y-112606000D01*
X38411903Y-112606000D01*
X38371400Y-112602011D01*
X38338348Y-112591985D01*
X38307897Y-112575708D01*
X38281201Y-112553799D01*
X38259292Y-112527103D01*
X38243015Y-112496652D01*
X38232989Y-112463600D01*
X38229000Y-112423097D01*
X38229000Y-110736903D01*
X38232989Y-110696400D01*
X38243015Y-110663348D01*
X38259292Y-110632897D01*
X38281201Y-110606201D01*
X38307897Y-110584292D01*
X38338348Y-110568015D01*
X38371400Y-110557989D01*
X38411903Y-110554000D01*
X39848097Y-110554000D01*
X39888600Y-110557989D01*
G37*
G36*
X80143848Y-110333820D02*
G01*
X80143850Y-110333821D01*
X80143851Y-110333821D01*
X80285074Y-110392317D01*
X80285077Y-110392319D01*
X80412169Y-110477239D01*
X80520261Y-110585331D01*
X80572390Y-110663348D01*
X80605183Y-110712426D01*
X80649327Y-110819000D01*
X80663680Y-110853652D01*
X80693500Y-111003569D01*
X80693500Y-111156431D01*
X80669245Y-111278373D01*
X80663679Y-111306351D01*
X80605183Y-111447574D01*
X80605181Y-111447577D01*
X80520261Y-111574669D01*
X80412169Y-111682761D01*
X80312646Y-111749260D01*
X80285074Y-111767683D01*
X80143851Y-111826179D01*
X80143850Y-111826179D01*
X80143848Y-111826180D01*
X79993931Y-111856000D01*
X79841069Y-111856000D01*
X79691152Y-111826180D01*
X79691150Y-111826179D01*
X79691149Y-111826179D01*
X79549926Y-111767683D01*
X79522354Y-111749260D01*
X79422831Y-111682761D01*
X79314739Y-111574669D01*
X79229819Y-111447577D01*
X79229817Y-111447574D01*
X79171321Y-111306351D01*
X79165756Y-111278373D01*
X79141500Y-111156431D01*
X79141500Y-111003569D01*
X79171320Y-110853652D01*
X79185673Y-110819000D01*
X79229817Y-110712426D01*
X79262610Y-110663348D01*
X79314739Y-110585331D01*
X79422831Y-110477239D01*
X79549923Y-110392319D01*
X79549926Y-110392317D01*
X79691149Y-110333821D01*
X79691150Y-110333821D01*
X79691152Y-110333820D01*
X79841069Y-110304000D01*
X79993931Y-110304000D01*
X80143848Y-110333820D01*
G37*
G36*
X70255256Y-106971298D02*
G01*
X70361579Y-106992447D01*
X70662042Y-107116903D01*
X70932451Y-107297585D01*
X71162415Y-107527549D01*
X71343097Y-107797958D01*
X71467553Y-108098421D01*
X71531000Y-108417391D01*
X71531000Y-108742609D01*
X71467553Y-109061579D01*
X71343097Y-109362042D01*
X71162415Y-109632451D01*
X70932451Y-109862415D01*
X70662042Y-110043097D01*
X70361579Y-110167553D01*
X70255256Y-110188702D01*
X70042611Y-110231000D01*
X69717389Y-110231000D01*
X69504744Y-110188702D01*
X69398421Y-110167553D01*
X69097958Y-110043097D01*
X68827549Y-109862415D01*
X68597585Y-109632451D01*
X68416903Y-109362042D01*
X68292447Y-109061579D01*
X68229000Y-108742609D01*
X68229000Y-108417391D01*
X68292447Y-108098421D01*
X68416903Y-107797958D01*
X68597585Y-107527549D01*
X68827549Y-107297585D01*
X69097958Y-107116903D01*
X69398421Y-106992447D01*
X69504744Y-106971298D01*
X69717389Y-106929000D01*
X70042611Y-106929000D01*
X70255256Y-106971298D01*
G37*
G36*
X30505256Y-106971298D02*
G01*
X30611579Y-106992447D01*
X30912042Y-107116903D01*
X31182451Y-107297585D01*
X31412415Y-107527549D01*
X31593097Y-107797958D01*
X31717553Y-108098421D01*
X31781000Y-108417391D01*
X31781000Y-108742609D01*
X31717553Y-109061579D01*
X31593097Y-109362042D01*
X31412415Y-109632451D01*
X31182451Y-109862415D01*
X30912042Y-110043097D01*
X30611579Y-110167553D01*
X30505256Y-110188702D01*
X30292611Y-110231000D01*
X29967389Y-110231000D01*
X29754744Y-110188702D01*
X29648421Y-110167553D01*
X29347958Y-110043097D01*
X29077549Y-109862415D01*
X28847585Y-109632451D01*
X28666903Y-109362042D01*
X28542447Y-109061579D01*
X28479000Y-108742609D01*
X28479000Y-108417391D01*
X28542447Y-108098421D01*
X28666903Y-107797958D01*
X28847585Y-107527549D01*
X29077549Y-107297585D01*
X29347958Y-107116903D01*
X29648421Y-106992447D01*
X29754744Y-106971298D01*
X29967389Y-106929000D01*
X30292611Y-106929000D01*
X30505256Y-106971298D01*
G37*
G36*
X80143848Y-105333820D02*
G01*
X80143850Y-105333821D01*
X80143851Y-105333821D01*
X80285074Y-105392317D01*
X80285077Y-105392319D01*
X80412169Y-105477239D01*
X80520261Y-105585331D01*
X80605181Y-105712423D01*
X80605183Y-105712426D01*
X80663679Y-105853649D01*
X80693500Y-106003571D01*
X80693500Y-106156429D01*
X80663679Y-106306351D01*
X80605183Y-106447574D01*
X80605181Y-106447577D01*
X80520261Y-106574669D01*
X80412169Y-106682761D01*
X80285077Y-106767681D01*
X80285074Y-106767683D01*
X80143851Y-106826179D01*
X80143850Y-106826179D01*
X80143848Y-106826180D01*
X79993931Y-106856000D01*
X79841069Y-106856000D01*
X79691152Y-106826180D01*
X79691150Y-106826179D01*
X79691149Y-106826179D01*
X79549926Y-106767683D01*
X79549923Y-106767681D01*
X79422831Y-106682761D01*
X79314739Y-106574669D01*
X79229819Y-106447577D01*
X79229817Y-106447574D01*
X79171321Y-106306351D01*
X79141500Y-106156429D01*
X79141500Y-106003571D01*
X79171321Y-105853649D01*
X79229817Y-105712426D01*
X79229819Y-105712423D01*
X79314739Y-105585331D01*
X79422831Y-105477239D01*
X79549923Y-105392319D01*
X79549926Y-105392317D01*
X79691149Y-105333821D01*
X79691150Y-105333821D01*
X79691152Y-105333820D01*
X79841069Y-105304000D01*
X79993931Y-105304000D01*
X80143848Y-105333820D01*
G37*
G36*
X83031355Y-104432140D02*
G01*
X83095118Y-104438420D01*
X83185904Y-104465960D01*
X83217836Y-104475646D01*
X83330925Y-104536094D01*
X83430054Y-104617446D01*
X83511406Y-104716575D01*
X83571854Y-104829664D01*
X83571855Y-104829668D01*
X83609080Y-104952382D01*
X83621649Y-105080000D01*
X83609080Y-105207618D01*
X83581540Y-105298404D01*
X83571854Y-105330336D01*
X83511406Y-105443425D01*
X83430054Y-105542554D01*
X83330925Y-105623906D01*
X83217836Y-105684354D01*
X83185904Y-105694040D01*
X83095118Y-105721580D01*
X83031355Y-105727860D01*
X82999474Y-105731000D01*
X82235526Y-105731000D01*
X82203645Y-105727860D01*
X82139882Y-105721580D01*
X82049096Y-105694040D01*
X82017164Y-105684354D01*
X81904075Y-105623906D01*
X81804946Y-105542554D01*
X81723594Y-105443425D01*
X81663146Y-105330336D01*
X81653460Y-105298404D01*
X81625920Y-105207618D01*
X81613351Y-105080000D01*
X81625920Y-104952382D01*
X81663145Y-104829668D01*
X81663146Y-104829664D01*
X81723594Y-104716575D01*
X81804946Y-104617446D01*
X81904075Y-104536094D01*
X82017164Y-104475646D01*
X82049096Y-104465960D01*
X82139882Y-104438420D01*
X82203645Y-104432140D01*
X82235526Y-104429000D01*
X82999474Y-104429000D01*
X83031355Y-104432140D01*
G37*
G36*
X41806626Y-101817037D02*
G01*
X41976465Y-101868557D01*
X41976467Y-101868558D01*
X42132989Y-101952221D01*
X42270186Y-102064814D01*
X42353448Y-102166271D01*
X42382778Y-102202009D01*
X42466443Y-102358534D01*
X42517963Y-102528373D01*
X42531000Y-102660742D01*
X42531000Y-102999257D01*
X42517963Y-103131626D01*
X42466443Y-103301466D01*
X42382778Y-103457991D01*
X42353448Y-103493729D01*
X42270186Y-103595186D01*
X42175250Y-103673097D01*
X42132991Y-103707778D01*
X41976466Y-103791443D01*
X41806627Y-103842963D01*
X41630000Y-103860359D01*
X41453374Y-103842963D01*
X41283535Y-103791443D01*
X41127010Y-103707778D01*
X40989815Y-103595185D01*
X40877222Y-103457991D01*
X40793557Y-103301466D01*
X40742037Y-103131627D01*
X40729000Y-102999258D01*
X40729000Y-102660743D01*
X40742037Y-102528374D01*
X40793557Y-102358535D01*
X40877222Y-102202010D01*
X40877223Y-102202009D01*
X40989814Y-102064814D01*
X41091271Y-101981552D01*
X41127009Y-101952222D01*
X41283534Y-101868557D01*
X41453373Y-101817037D01*
X41630000Y-101799641D01*
X41806626Y-101817037D01*
G37*
G36*
X46806626Y-101817037D02*
G01*
X46976465Y-101868557D01*
X46976467Y-101868558D01*
X47132989Y-101952221D01*
X47270186Y-102064814D01*
X47353448Y-102166271D01*
X47382778Y-102202009D01*
X47466443Y-102358534D01*
X47517963Y-102528373D01*
X47531000Y-102660742D01*
X47531000Y-102999257D01*
X47517963Y-103131626D01*
X47466443Y-103301466D01*
X47382778Y-103457991D01*
X47353448Y-103493729D01*
X47270186Y-103595186D01*
X47175250Y-103673097D01*
X47132991Y-103707778D01*
X46976466Y-103791443D01*
X46806627Y-103842963D01*
X46630000Y-103860359D01*
X46453374Y-103842963D01*
X46283535Y-103791443D01*
X46127010Y-103707778D01*
X45989815Y-103595185D01*
X45877222Y-103457991D01*
X45793557Y-103301466D01*
X45742037Y-103131627D01*
X45729000Y-102999258D01*
X45729000Y-102660743D01*
X45742037Y-102528374D01*
X45793557Y-102358535D01*
X45877222Y-102202010D01*
X45877223Y-102202009D01*
X45989814Y-102064814D01*
X46091271Y-101981552D01*
X46127009Y-101952222D01*
X46283534Y-101868557D01*
X46453373Y-101817037D01*
X46630000Y-101799641D01*
X46806626Y-101817037D01*
G37*
G36*
X44306626Y-101817037D02*
G01*
X44476465Y-101868557D01*
X44476467Y-101868558D01*
X44632989Y-101952221D01*
X44770186Y-102064814D01*
X44853448Y-102166271D01*
X44882778Y-102202009D01*
X44966443Y-102358534D01*
X45017963Y-102528373D01*
X45031000Y-102660742D01*
X45031000Y-102999257D01*
X45017963Y-103131626D01*
X44966443Y-103301466D01*
X44882778Y-103457991D01*
X44853448Y-103493729D01*
X44770186Y-103595186D01*
X44675250Y-103673097D01*
X44632991Y-103707778D01*
X44476466Y-103791443D01*
X44306627Y-103842963D01*
X44130000Y-103860359D01*
X43953374Y-103842963D01*
X43783535Y-103791443D01*
X43627010Y-103707778D01*
X43489815Y-103595185D01*
X43377222Y-103457991D01*
X43293557Y-103301466D01*
X43242037Y-103131627D01*
X43229000Y-102999258D01*
X43229000Y-102660743D01*
X43242037Y-102528374D01*
X43293557Y-102358535D01*
X43377222Y-102202010D01*
X43377223Y-102202009D01*
X43489814Y-102064814D01*
X43591271Y-101981552D01*
X43627009Y-101952222D01*
X43783534Y-101868557D01*
X43953373Y-101817037D01*
X44130000Y-101799641D01*
X44306626Y-101817037D01*
G37*
G36*
X39888600Y-101807989D02*
G01*
X39921652Y-101818015D01*
X39952103Y-101834292D01*
X39978799Y-101856201D01*
X40000708Y-101882897D01*
X40016985Y-101913348D01*
X40027011Y-101946400D01*
X40031000Y-101986903D01*
X40031000Y-103673097D01*
X40027011Y-103713600D01*
X40016985Y-103746652D01*
X40000708Y-103777103D01*
X39978799Y-103803799D01*
X39952103Y-103825708D01*
X39921652Y-103841985D01*
X39888600Y-103852011D01*
X39848097Y-103856000D01*
X38411903Y-103856000D01*
X38371400Y-103852011D01*
X38338348Y-103841985D01*
X38307897Y-103825708D01*
X38281201Y-103803799D01*
X38259292Y-103777103D01*
X38243015Y-103746652D01*
X38232989Y-103713600D01*
X38229000Y-103673097D01*
X38229000Y-101986903D01*
X38232989Y-101946400D01*
X38243015Y-101913348D01*
X38259292Y-101882897D01*
X38281201Y-101856201D01*
X38307897Y-101834292D01*
X38338348Y-101818015D01*
X38371400Y-101807989D01*
X38411903Y-101804000D01*
X39848097Y-101804000D01*
X39888600Y-101807989D01*
G37*
G36*
X78763600Y-95932989D02*
G01*
X78796652Y-95943015D01*
X78827103Y-95959292D01*
X78853799Y-95981201D01*
X78875708Y-96007897D01*
X78891985Y-96038348D01*
X78902011Y-96071400D01*
X78906000Y-96111903D01*
X78906000Y-97548097D01*
X78902011Y-97588600D01*
X78891985Y-97621652D01*
X78875708Y-97652103D01*
X78853799Y-97678799D01*
X78827103Y-97700708D01*
X78796652Y-97716985D01*
X78763600Y-97727011D01*
X78723097Y-97731000D01*
X77036903Y-97731000D01*
X76996400Y-97727011D01*
X76963348Y-97716985D01*
X76932897Y-97700708D01*
X76906201Y-97678799D01*
X76884292Y-97652103D01*
X76868015Y-97621652D01*
X76857989Y-97588600D01*
X76854000Y-97548097D01*
X76854000Y-96111903D01*
X76857989Y-96071400D01*
X76868015Y-96038348D01*
X76884292Y-96007897D01*
X76906201Y-95981201D01*
X76932897Y-95959292D01*
X76963348Y-95943015D01*
X76996400Y-95932989D01*
X77036903Y-95929000D01*
X78723097Y-95929000D01*
X78763600Y-95932989D01*
G37*
G36*
X78115443Y-93435519D02*
G01*
X78181627Y-93442037D01*
X78351466Y-93493557D01*
X78507991Y-93577222D01*
X78543729Y-93606552D01*
X78645186Y-93689814D01*
X78717863Y-93778373D01*
X78757778Y-93827009D01*
X78757779Y-93827011D01*
X78802534Y-93910740D01*
X78841443Y-93983534D01*
X78892963Y-94153373D01*
X78910359Y-94330000D01*
X78892963Y-94506627D01*
X78841443Y-94676466D01*
X78841442Y-94676468D01*
X78824592Y-94707991D01*
X78757778Y-94832991D01*
X78728448Y-94868729D01*
X78645186Y-94970186D01*
X78543729Y-95053448D01*
X78507991Y-95082778D01*
X78351466Y-95166443D01*
X78181627Y-95217963D01*
X78115443Y-95224481D01*
X78049260Y-95231000D01*
X77710740Y-95231000D01*
X77644557Y-95224481D01*
X77578373Y-95217963D01*
X77408534Y-95166443D01*
X77252009Y-95082778D01*
X77216271Y-95053448D01*
X77114814Y-94970186D01*
X77031552Y-94868729D01*
X77002222Y-94832991D01*
X76935408Y-94707991D01*
X76918558Y-94676468D01*
X76918557Y-94676466D01*
X76867037Y-94506627D01*
X76849641Y-94330000D01*
X76867037Y-94153373D01*
X76918557Y-93983534D01*
X76957467Y-93910740D01*
X77002221Y-93827011D01*
X77002222Y-93827009D01*
X77042137Y-93778373D01*
X77114814Y-93689814D01*
X77216271Y-93606552D01*
X77252009Y-93577222D01*
X77408534Y-93493557D01*
X77578373Y-93442037D01*
X77644557Y-93435519D01*
X77710740Y-93429000D01*
X78049260Y-93429000D01*
X78115443Y-93435519D01*
G37*
G36*
X46806626Y-93067037D02*
G01*
X46976465Y-93118557D01*
X46976467Y-93118558D01*
X47132989Y-93202221D01*
X47270186Y-93314814D01*
X47353448Y-93416271D01*
X47382778Y-93452009D01*
X47466443Y-93608534D01*
X47517963Y-93778373D01*
X47531000Y-93910742D01*
X47531000Y-94249257D01*
X47517963Y-94381626D01*
X47466443Y-94551466D01*
X47382778Y-94707991D01*
X47353448Y-94743729D01*
X47270186Y-94845186D01*
X47175250Y-94923097D01*
X47132991Y-94957778D01*
X46976466Y-95041443D01*
X46806627Y-95092963D01*
X46630000Y-95110359D01*
X46453374Y-95092963D01*
X46283535Y-95041443D01*
X46127010Y-94957778D01*
X45989815Y-94845185D01*
X45877222Y-94707991D01*
X45793557Y-94551466D01*
X45742037Y-94381627D01*
X45729000Y-94249258D01*
X45729000Y-93910743D01*
X45742037Y-93778374D01*
X45793557Y-93608535D01*
X45877222Y-93452010D01*
X45877223Y-93452009D01*
X45989814Y-93314814D01*
X46091271Y-93231552D01*
X46127009Y-93202222D01*
X46283534Y-93118557D01*
X46453373Y-93067037D01*
X46630000Y-93049641D01*
X46806626Y-93067037D01*
G37*
G36*
X44306626Y-93067037D02*
G01*
X44476465Y-93118557D01*
X44476467Y-93118558D01*
X44632989Y-93202221D01*
X44770186Y-93314814D01*
X44853448Y-93416271D01*
X44882778Y-93452009D01*
X44966443Y-93608534D01*
X45017963Y-93778373D01*
X45031000Y-93910742D01*
X45031000Y-94249257D01*
X45017963Y-94381626D01*
X44966443Y-94551466D01*
X44882778Y-94707991D01*
X44853448Y-94743729D01*
X44770186Y-94845186D01*
X44675250Y-94923097D01*
X44632991Y-94957778D01*
X44476466Y-95041443D01*
X44306627Y-95092963D01*
X44130000Y-95110359D01*
X43953374Y-95092963D01*
X43783535Y-95041443D01*
X43627010Y-94957778D01*
X43489815Y-94845185D01*
X43377222Y-94707991D01*
X43293557Y-94551466D01*
X43242037Y-94381627D01*
X43229000Y-94249258D01*
X43229000Y-93910743D01*
X43242037Y-93778374D01*
X43293557Y-93608535D01*
X43377222Y-93452010D01*
X43377223Y-93452009D01*
X43489814Y-93314814D01*
X43591271Y-93231552D01*
X43627009Y-93202222D01*
X43783534Y-93118557D01*
X43953373Y-93067037D01*
X44130000Y-93049641D01*
X44306626Y-93067037D01*
G37*
G36*
X41806626Y-93067037D02*
G01*
X41976465Y-93118557D01*
X41976467Y-93118558D01*
X42132989Y-93202221D01*
X42270186Y-93314814D01*
X42353448Y-93416271D01*
X42382778Y-93452009D01*
X42466443Y-93608534D01*
X42517963Y-93778373D01*
X42531000Y-93910742D01*
X42531000Y-94249257D01*
X42517963Y-94381626D01*
X42466443Y-94551466D01*
X42382778Y-94707991D01*
X42353448Y-94743729D01*
X42270186Y-94845186D01*
X42175250Y-94923097D01*
X42132991Y-94957778D01*
X41976466Y-95041443D01*
X41806627Y-95092963D01*
X41630000Y-95110359D01*
X41453374Y-95092963D01*
X41283535Y-95041443D01*
X41127010Y-94957778D01*
X40989815Y-94845185D01*
X40877222Y-94707991D01*
X40793557Y-94551466D01*
X40742037Y-94381627D01*
X40729000Y-94249258D01*
X40729000Y-93910743D01*
X40742037Y-93778374D01*
X40793557Y-93608535D01*
X40877222Y-93452010D01*
X40877223Y-93452009D01*
X40989814Y-93314814D01*
X41091271Y-93231552D01*
X41127009Y-93202222D01*
X41283534Y-93118557D01*
X41453373Y-93067037D01*
X41630000Y-93049641D01*
X41806626Y-93067037D01*
G37*
G36*
X39888600Y-93057989D02*
G01*
X39921652Y-93068015D01*
X39952103Y-93084292D01*
X39978799Y-93106201D01*
X40000708Y-93132897D01*
X40016985Y-93163348D01*
X40027011Y-93196400D01*
X40031000Y-93236903D01*
X40031000Y-94923097D01*
X40027011Y-94963600D01*
X40016985Y-94996652D01*
X40000708Y-95027103D01*
X39978799Y-95053799D01*
X39952103Y-95075708D01*
X39921652Y-95091985D01*
X39888600Y-95102011D01*
X39848097Y-95106000D01*
X38411903Y-95106000D01*
X38371400Y-95102011D01*
X38338348Y-95091985D01*
X38307897Y-95075708D01*
X38281201Y-95053799D01*
X38259292Y-95027103D01*
X38243015Y-94996652D01*
X38232989Y-94963600D01*
X38229000Y-94923097D01*
X38229000Y-93236903D01*
X38232989Y-93196400D01*
X38243015Y-93163348D01*
X38259292Y-93132897D01*
X38281201Y-93106201D01*
X38307897Y-93084292D01*
X38338348Y-93068015D01*
X38371400Y-93057989D01*
X38411903Y-93054000D01*
X39848097Y-93054000D01*
X39888600Y-93057989D01*
G37*
G36*
X78115443Y-90935519D02*
G01*
X78181627Y-90942037D01*
X78351466Y-90993557D01*
X78507991Y-91077222D01*
X78543729Y-91106552D01*
X78645186Y-91189814D01*
X78728448Y-91291271D01*
X78757778Y-91327009D01*
X78841443Y-91483534D01*
X78892963Y-91653373D01*
X78910359Y-91830000D01*
X78892963Y-92006627D01*
X78841443Y-92176466D01*
X78757778Y-92332991D01*
X78728448Y-92368729D01*
X78645186Y-92470186D01*
X78543729Y-92553448D01*
X78507991Y-92582778D01*
X78351466Y-92666443D01*
X78181627Y-92717963D01*
X78115442Y-92724482D01*
X78049260Y-92731000D01*
X77710740Y-92731000D01*
X77644558Y-92724482D01*
X77578373Y-92717963D01*
X77408534Y-92666443D01*
X77252009Y-92582778D01*
X77216271Y-92553448D01*
X77114814Y-92470186D01*
X77031552Y-92368729D01*
X77002222Y-92332991D01*
X76918557Y-92176466D01*
X76867037Y-92006627D01*
X76849641Y-91830000D01*
X76867037Y-91653373D01*
X76918557Y-91483534D01*
X77002222Y-91327009D01*
X77031552Y-91291271D01*
X77114814Y-91189814D01*
X77216271Y-91106552D01*
X77252009Y-91077222D01*
X77408534Y-90993557D01*
X77578373Y-90942037D01*
X77644557Y-90935519D01*
X77710740Y-90929000D01*
X78049260Y-90929000D01*
X78115443Y-90935519D01*
G37*
G36*
X78115443Y-88435519D02*
G01*
X78181627Y-88442037D01*
X78351466Y-88493557D01*
X78507991Y-88577222D01*
X78543729Y-88606552D01*
X78645186Y-88689814D01*
X78728448Y-88791271D01*
X78757778Y-88827009D01*
X78841443Y-88983534D01*
X78892963Y-89153373D01*
X78910359Y-89330000D01*
X78892963Y-89506627D01*
X78841443Y-89676466D01*
X78757778Y-89832991D01*
X78728448Y-89868729D01*
X78645186Y-89970186D01*
X78543729Y-90053448D01*
X78507991Y-90082778D01*
X78351466Y-90166443D01*
X78181627Y-90217963D01*
X78115442Y-90224482D01*
X78049260Y-90231000D01*
X77710740Y-90231000D01*
X77644558Y-90224482D01*
X77578373Y-90217963D01*
X77408534Y-90166443D01*
X77252009Y-90082778D01*
X77216271Y-90053448D01*
X77114814Y-89970186D01*
X77031552Y-89868729D01*
X77002222Y-89832991D01*
X76918557Y-89676466D01*
X76867037Y-89506627D01*
X76849641Y-89330000D01*
X76867037Y-89153373D01*
X76918557Y-88983534D01*
X77002222Y-88827009D01*
X77031552Y-88791271D01*
X77114814Y-88689814D01*
X77216271Y-88606552D01*
X77252009Y-88577222D01*
X77408534Y-88493557D01*
X77578373Y-88442037D01*
X77644557Y-88435519D01*
X77710740Y-88429000D01*
X78049260Y-88429000D01*
X78115443Y-88435519D01*
G37*
G36*
X46806626Y-84317037D02*
G01*
X46976465Y-84368557D01*
X46976467Y-84368558D01*
X47132989Y-84452221D01*
X47270186Y-84564814D01*
X47353448Y-84666271D01*
X47382778Y-84702009D01*
X47466443Y-84858534D01*
X47517963Y-85028373D01*
X47531000Y-85160742D01*
X47531000Y-85499257D01*
X47517963Y-85631626D01*
X47466443Y-85801466D01*
X47382778Y-85957991D01*
X47353448Y-85993729D01*
X47270186Y-86095186D01*
X47175250Y-86173097D01*
X47132991Y-86207778D01*
X46976466Y-86291443D01*
X46806627Y-86342963D01*
X46630000Y-86360359D01*
X46453374Y-86342963D01*
X46283535Y-86291443D01*
X46127010Y-86207778D01*
X45989815Y-86095185D01*
X45877222Y-85957991D01*
X45793557Y-85801466D01*
X45742037Y-85631627D01*
X45729000Y-85499258D01*
X45729000Y-85160743D01*
X45742037Y-85028374D01*
X45793557Y-84858535D01*
X45877222Y-84702010D01*
X45877223Y-84702009D01*
X45989814Y-84564814D01*
X46091271Y-84481552D01*
X46127009Y-84452222D01*
X46283534Y-84368557D01*
X46453373Y-84317037D01*
X46630000Y-84299641D01*
X46806626Y-84317037D01*
G37*
G36*
X44306626Y-84317037D02*
G01*
X44476465Y-84368557D01*
X44476467Y-84368558D01*
X44632989Y-84452221D01*
X44770186Y-84564814D01*
X44853448Y-84666271D01*
X44882778Y-84702009D01*
X44966443Y-84858534D01*
X45017963Y-85028373D01*
X45031000Y-85160742D01*
X45031000Y-85499257D01*
X45017963Y-85631626D01*
X44966443Y-85801466D01*
X44882778Y-85957991D01*
X44853448Y-85993729D01*
X44770186Y-86095186D01*
X44675250Y-86173097D01*
X44632991Y-86207778D01*
X44476466Y-86291443D01*
X44306627Y-86342963D01*
X44130000Y-86360359D01*
X43953374Y-86342963D01*
X43783535Y-86291443D01*
X43627010Y-86207778D01*
X43489815Y-86095185D01*
X43377222Y-85957991D01*
X43293557Y-85801466D01*
X43242037Y-85631627D01*
X43229000Y-85499258D01*
X43229000Y-85160743D01*
X43242037Y-85028374D01*
X43293557Y-84858535D01*
X43377222Y-84702010D01*
X43377223Y-84702009D01*
X43489814Y-84564814D01*
X43591271Y-84481552D01*
X43627009Y-84452222D01*
X43783534Y-84368557D01*
X43953373Y-84317037D01*
X44130000Y-84299641D01*
X44306626Y-84317037D01*
G37*
G36*
X41806626Y-84317037D02*
G01*
X41976465Y-84368557D01*
X41976467Y-84368558D01*
X42132989Y-84452221D01*
X42270186Y-84564814D01*
X42353448Y-84666271D01*
X42382778Y-84702009D01*
X42466443Y-84858534D01*
X42517963Y-85028373D01*
X42531000Y-85160742D01*
X42531000Y-85499257D01*
X42517963Y-85631626D01*
X42466443Y-85801466D01*
X42382778Y-85957991D01*
X42353448Y-85993729D01*
X42270186Y-86095186D01*
X42175250Y-86173097D01*
X42132991Y-86207778D01*
X41976466Y-86291443D01*
X41806627Y-86342963D01*
X41630000Y-86360359D01*
X41453374Y-86342963D01*
X41283535Y-86291443D01*
X41127010Y-86207778D01*
X40989815Y-86095185D01*
X40877222Y-85957991D01*
X40793557Y-85801466D01*
X40742037Y-85631627D01*
X40729000Y-85499258D01*
X40729000Y-85160743D01*
X40742037Y-85028374D01*
X40793557Y-84858535D01*
X40877222Y-84702010D01*
X40877223Y-84702009D01*
X40989814Y-84564814D01*
X41091271Y-84481552D01*
X41127009Y-84452222D01*
X41283534Y-84368557D01*
X41453373Y-84317037D01*
X41630000Y-84299641D01*
X41806626Y-84317037D01*
G37*
G36*
X39888600Y-84307989D02*
G01*
X39921652Y-84318015D01*
X39952103Y-84334292D01*
X39978799Y-84356201D01*
X40000708Y-84382897D01*
X40016985Y-84413348D01*
X40027011Y-84446400D01*
X40031000Y-84486903D01*
X40031000Y-86173097D01*
X40027011Y-86213600D01*
X40016985Y-86246652D01*
X40000708Y-86277103D01*
X39978799Y-86303799D01*
X39952103Y-86325708D01*
X39921652Y-86341985D01*
X39888600Y-86352011D01*
X39848097Y-86356000D01*
X38411903Y-86356000D01*
X38371400Y-86352011D01*
X38338348Y-86341985D01*
X38307897Y-86325708D01*
X38281201Y-86303799D01*
X38259292Y-86277103D01*
X38243015Y-86246652D01*
X38232989Y-86213600D01*
X38229000Y-86173097D01*
X38229000Y-84486903D01*
X38232989Y-84446400D01*
X38243015Y-84413348D01*
X38259292Y-84382897D01*
X38281201Y-84356201D01*
X38307897Y-84334292D01*
X38338348Y-84318015D01*
X38371400Y-84307989D01*
X38411903Y-84304000D01*
X39848097Y-84304000D01*
X39888600Y-84307989D01*
G37*
G36*
X78505256Y-76971298D02*
G01*
X78611579Y-76992447D01*
X78912042Y-77116903D01*
X79182451Y-77297585D01*
X79412415Y-77527549D01*
X79593097Y-77797958D01*
X79717553Y-78098421D01*
X79781000Y-78417391D01*
X79781000Y-78742609D01*
X79717553Y-79061579D01*
X79668562Y-79179853D01*
X79599587Y-79346375D01*
X79593097Y-79362042D01*
X79412415Y-79632451D01*
X79182451Y-79862415D01*
X78912042Y-80043097D01*
X78611579Y-80167553D01*
X78505256Y-80188702D01*
X78292611Y-80231000D01*
X77967389Y-80231000D01*
X77754744Y-80188702D01*
X77648421Y-80167553D01*
X77347958Y-80043097D01*
X77077549Y-79862415D01*
X76847585Y-79632451D01*
X76666903Y-79362042D01*
X76660414Y-79346375D01*
X76591438Y-79179853D01*
X76542447Y-79061579D01*
X76479000Y-78742609D01*
X76479000Y-78417391D01*
X76542447Y-78098421D01*
X76666903Y-77797958D01*
X76847585Y-77527549D01*
X77077549Y-77297585D01*
X77347958Y-77116903D01*
X77648421Y-76992447D01*
X77754744Y-76971298D01*
X77967389Y-76929000D01*
X78292611Y-76929000D01*
X78505256Y-76971298D01*
G37*
G36*
X30505256Y-76971298D02*
G01*
X30611579Y-76992447D01*
X30912042Y-77116903D01*
X31182451Y-77297585D01*
X31412415Y-77527549D01*
X31593097Y-77797958D01*
X31717553Y-78098421D01*
X31781000Y-78417391D01*
X31781000Y-78742609D01*
X31717553Y-79061579D01*
X31668562Y-79179853D01*
X31599587Y-79346375D01*
X31593097Y-79362042D01*
X31412415Y-79632451D01*
X31182451Y-79862415D01*
X30912042Y-80043097D01*
X30611579Y-80167553D01*
X30505256Y-80188702D01*
X30292611Y-80231000D01*
X29967389Y-80231000D01*
X29754744Y-80188702D01*
X29648421Y-80167553D01*
X29347958Y-80043097D01*
X29077549Y-79862415D01*
X28847585Y-79632451D01*
X28666903Y-79362042D01*
X28660414Y-79346375D01*
X28591438Y-79179853D01*
X28542447Y-79061579D01*
X28479000Y-78742609D01*
X28479000Y-78417391D01*
X28542447Y-78098421D01*
X28666903Y-77797958D01*
X28847585Y-77527549D01*
X29077549Y-77297585D01*
X29347958Y-77116903D01*
X29648421Y-76992447D01*
X29754744Y-76971298D01*
X29967389Y-76929000D01*
X30292611Y-76929000D01*
X30505256Y-76971298D01*
G37*
G36*
X68203512Y-77583927D02*
G01*
X68352812Y-77613624D01*
X68516784Y-77681544D01*
X68664354Y-77780147D01*
X68789853Y-77905646D01*
X68888456Y-78053216D01*
X68956376Y-78217188D01*
X68991000Y-78391259D01*
X68991000Y-78568741D01*
X68956376Y-78742812D01*
X68888456Y-78906784D01*
X68789853Y-79054354D01*
X68664354Y-79179853D01*
X68516784Y-79278456D01*
X68352812Y-79346376D01*
X68203512Y-79376073D01*
X68178742Y-79381000D01*
X68001258Y-79381000D01*
X67976488Y-79376073D01*
X67827188Y-79346376D01*
X67663216Y-79278456D01*
X67515646Y-79179853D01*
X67390147Y-79054354D01*
X67291544Y-78906784D01*
X67223624Y-78742812D01*
X67189000Y-78568741D01*
X67189000Y-78391259D01*
X67223624Y-78217188D01*
X67291544Y-78053216D01*
X67390147Y-77905646D01*
X67515646Y-77780147D01*
X67663216Y-77681544D01*
X67827188Y-77613624D01*
X67976488Y-77583927D01*
X68001258Y-77579000D01*
X68178742Y-77579000D01*
X68203512Y-77583927D01*
G37*
G36*
X71531000Y-79381000D02*
G01*
X69729000Y-79381000D01*
X69729000Y-77579000D01*
X71531000Y-77579000D01*
X71531000Y-79381000D01*
G37*
G36*
X44306626Y-75567037D02*
G01*
X44476465Y-75618557D01*
X44476467Y-75618558D01*
X44632989Y-75702221D01*
X44770186Y-75814814D01*
X44853448Y-75916271D01*
X44882778Y-75952009D01*
X44966443Y-76108534D01*
X45017963Y-76278373D01*
X45031000Y-76410742D01*
X45031000Y-76749257D01*
X45017963Y-76881626D01*
X44966443Y-77051466D01*
X44882778Y-77207991D01*
X44853448Y-77243729D01*
X44770186Y-77345186D01*
X44675250Y-77423097D01*
X44632991Y-77457778D01*
X44476466Y-77541443D01*
X44306627Y-77592963D01*
X44130000Y-77610359D01*
X43953374Y-77592963D01*
X43783535Y-77541443D01*
X43627010Y-77457778D01*
X43489815Y-77345185D01*
X43377222Y-77207991D01*
X43293557Y-77051466D01*
X43242037Y-76881627D01*
X43229000Y-76749258D01*
X43229000Y-76410743D01*
X43242037Y-76278374D01*
X43293557Y-76108535D01*
X43377222Y-75952010D01*
X43377223Y-75952009D01*
X43489814Y-75814814D01*
X43591271Y-75731552D01*
X43627009Y-75702222D01*
X43783534Y-75618557D01*
X43953373Y-75567037D01*
X44130000Y-75549641D01*
X44306626Y-75567037D01*
G37*
G36*
X46806626Y-75567037D02*
G01*
X46976465Y-75618557D01*
X46976467Y-75618558D01*
X47132989Y-75702221D01*
X47270186Y-75814814D01*
X47353448Y-75916271D01*
X47382778Y-75952009D01*
X47466443Y-76108534D01*
X47517963Y-76278373D01*
X47531000Y-76410742D01*
X47531000Y-76749257D01*
X47517963Y-76881626D01*
X47466443Y-77051466D01*
X47382778Y-77207991D01*
X47353448Y-77243729D01*
X47270186Y-77345186D01*
X47175250Y-77423097D01*
X47132991Y-77457778D01*
X46976466Y-77541443D01*
X46806627Y-77592963D01*
X46630000Y-77610359D01*
X46453374Y-77592963D01*
X46283535Y-77541443D01*
X46127010Y-77457778D01*
X45989815Y-77345185D01*
X45877222Y-77207991D01*
X45793557Y-77051466D01*
X45742037Y-76881627D01*
X45729000Y-76749258D01*
X45729000Y-76410743D01*
X45742037Y-76278374D01*
X45793557Y-76108535D01*
X45877222Y-75952010D01*
X45877223Y-75952009D01*
X45989814Y-75814814D01*
X46091271Y-75731552D01*
X46127009Y-75702222D01*
X46283534Y-75618557D01*
X46453373Y-75567037D01*
X46630000Y-75549641D01*
X46806626Y-75567037D01*
G37*
G36*
X41806626Y-75567037D02*
G01*
X41976465Y-75618557D01*
X41976467Y-75618558D01*
X42132989Y-75702221D01*
X42270186Y-75814814D01*
X42353448Y-75916271D01*
X42382778Y-75952009D01*
X42466443Y-76108534D01*
X42517963Y-76278373D01*
X42531000Y-76410742D01*
X42531000Y-76749257D01*
X42517963Y-76881626D01*
X42466443Y-77051466D01*
X42382778Y-77207991D01*
X42353448Y-77243729D01*
X42270186Y-77345186D01*
X42175250Y-77423097D01*
X42132991Y-77457778D01*
X41976466Y-77541443D01*
X41806627Y-77592963D01*
X41630000Y-77610359D01*
X41453374Y-77592963D01*
X41283535Y-77541443D01*
X41127010Y-77457778D01*
X40989815Y-77345185D01*
X40877222Y-77207991D01*
X40793557Y-77051466D01*
X40742037Y-76881627D01*
X40729000Y-76749258D01*
X40729000Y-76410743D01*
X40742037Y-76278374D01*
X40793557Y-76108535D01*
X40877222Y-75952010D01*
X40877223Y-75952009D01*
X40989814Y-75814814D01*
X41091271Y-75731552D01*
X41127009Y-75702222D01*
X41283534Y-75618557D01*
X41453373Y-75567037D01*
X41630000Y-75549641D01*
X41806626Y-75567037D01*
G37*
G36*
X39888600Y-75557989D02*
G01*
X39921652Y-75568015D01*
X39952103Y-75584292D01*
X39978799Y-75606201D01*
X40000708Y-75632897D01*
X40016985Y-75663348D01*
X40027011Y-75696400D01*
X40031000Y-75736903D01*
X40031000Y-77423097D01*
X40027011Y-77463600D01*
X40016985Y-77496652D01*
X40000708Y-77527103D01*
X39978799Y-77553799D01*
X39952103Y-77575708D01*
X39921652Y-77591985D01*
X39888600Y-77602011D01*
X39848097Y-77606000D01*
X38411903Y-77606000D01*
X38371400Y-77602011D01*
X38338348Y-77591985D01*
X38307897Y-77575708D01*
X38281201Y-77553799D01*
X38259292Y-77527103D01*
X38243015Y-77496652D01*
X38232989Y-77463600D01*
X38229000Y-77423097D01*
X38229000Y-75736903D01*
X38232989Y-75696400D01*
X38243015Y-75663348D01*
X38259292Y-75632897D01*
X38281201Y-75606201D01*
X38307897Y-75584292D01*
X38338348Y-75568015D01*
X38371400Y-75557989D01*
X38411903Y-75554000D01*
X39848097Y-75554000D01*
X39888600Y-75557989D01*
G37*
M02*
