M48
; DRILL file {KiCad (5.1.5)-3} date 03/12/2020 20:27:46
; FORMAT={-:-/ absolute / metric / decimal}
; #@! TF.CreationDate,2020-12-03T20:27:46+01:00
; #@! TF.GenerationSoftware,Kicad,Pcbnew,(5.1.5)-3
; #@! TF.FileFunction,Plated,1,2,PTH
FMAT,2
METRIC
T1C0.400
T2C0.600
T3C0.850
T4C0.950
T5C1.000
%
G90
G05
T1
X54.38Y-76.58
X54.38Y-85.33
X54.38Y-94.08
X54.38Y-102.83
X54.38Y-111.58
X56.13Y-79.855
X56.13Y-88.58
X56.48Y-97.33
X56.63Y-103.58
X57.13Y-81.58
X57.13Y-90.58
X57.63Y-109.305
X58.13Y-100.58
X58.63Y-75.08
X58.63Y-79.33
X58.63Y-83.58
X58.63Y-88.08
X58.63Y-92.08
X58.63Y-105.58
X58.63Y-114.33
X59.907Y-94.641
X60.58Y-102.78
X62.88Y-74.33
X62.88Y-97.08
X62.88Y-98.08
X62.88Y-99.08
X62.88Y-100.08
X63.83Y-97.08
X63.83Y-98.08
X63.83Y-99.08
X63.83Y-100.08
X65.13Y-77.58
X65.63Y-89.08
X66.63Y-90.83
X66.643Y-93.843
X67.63Y-84.38
X67.63Y-90.83
X67.63Y-92.28
X67.63Y-96.58
X67.972Y-93.922
X68.23Y-104.03
X68.63Y-92.28
X68.63Y-90.83
X68.755Y-88.58
X70.08Y-93.93
X71.03Y-84.38
X71.78Y-104.03
X72.555Y-90.155
X74.13Y-88.08
T3
X79.917Y-106.08
X79.917Y-111.08
T4
X39.13Y-76.58
X41.63Y-76.58
X44.13Y-76.58
X46.63Y-76.58
X39.13Y-85.33
X41.63Y-85.33
X44.13Y-85.33
X46.63Y-85.33
X39.13Y-111.58
X41.63Y-111.58
X44.13Y-111.58
X46.63Y-111.58
X39.13Y-102.83
X41.63Y-102.83
X44.13Y-102.83
X46.63Y-102.83
X77.88Y-89.33
X77.88Y-91.83
X77.88Y-94.33
X77.88Y-96.83
X39.13Y-94.08
X41.63Y-94.08
X44.13Y-94.08
X46.63Y-94.08
T5
X68.09Y-78.48
X70.63Y-78.48
T2
G00X82.267Y-105.08
M15
G01X82.968Y-105.08
M16
G05
G00X82.968Y-112.08
M15
G01X82.267Y-112.08
M16
G05
T0
M30
