M48
; DRILL file {KiCad (5.1.5)-3} date 16/02/2021 20:41:05
; FORMAT={-:-/ absolute / metric / decimal}
; #@! TF.CreationDate,2021-02-16T20:41:05+01:00
; #@! TF.GenerationSoftware,Kicad,Pcbnew,(5.1.5)-3
FMAT,2
METRIC
T1C0.762
T2C0.950
T3C1.000
T4C1.016
T5C3.200
%
G90
G05
T1
X83.02Y-41.96
X83.02Y-44.5
X83.02Y-47.04
T2
X85.5Y-21.5
X88.0Y-21.5
X90.5Y-21.5
T3
X94.5Y-30.375
X97.0Y-30.375
X42.25Y-26.25
X42.25Y-28.79
X42.25Y-31.33
X42.25Y-33.87
X42.25Y-36.41
X42.25Y-38.95
X42.25Y-41.49
X42.25Y-44.03
X65.11Y-26.25
X65.11Y-28.79
X65.11Y-31.33
X65.11Y-33.87
X65.11Y-36.41
X65.11Y-38.95
X65.11Y-41.49
X65.11Y-44.03
X103.5Y-30.375
X106.0Y-30.375
X85.5Y-30.375
X88.0Y-30.375
T4
X69.67Y-19.65
X69.67Y-22.19
X69.67Y-24.73
X69.67Y-27.27
X69.67Y-29.81
X69.67Y-32.35
X79.83Y-19.65
X79.83Y-22.19
X79.83Y-24.73
X79.83Y-27.27
X79.83Y-29.81
X79.83Y-32.35
T5
X35.5Y-20.5
X106.4Y-50.65
X35.5Y-50.65
X106.4Y-20.5
T3
G00X72.5Y-38.5
M15
G01X74.5Y-38.5
M16
G05
G00X72.5Y-44.5
M15
G01X74.5Y-44.5
M16
G05
G00X78.2Y-42.5
M15
G01X78.2Y-40.5
M16
G05
T0
M30
