G04 #@! TF.GenerationSoftware,KiCad,Pcbnew,(5.1.5)-3*
G04 #@! TF.CreationDate,2021-02-16T20:40:51+01:00*
G04 #@! TF.ProjectId,Nanoleafs,4e616e6f-6c65-4616-9673-2e6b69636164,rev?*
G04 #@! TF.SameCoordinates,Original*
G04 #@! TF.FileFunction,Copper,L2,Bot*
G04 #@! TF.FilePolarity,Positive*
%FSLAX46Y46*%
G04 Gerber Fmt 4.6, Leading zero omitted, Abs format (unit mm)*
G04 Created by KiCad (PCBNEW (5.1.5)-3) date 2021-02-16 20:40:51*
%MOMM*%
%LPD*%
G04 APERTURE LIST*
%ADD10O,1.700000X2.000000*%
%ADD11C,0.100000*%
%ADD12R,3.500000X3.500000*%
%ADD13C,1.524000*%
%ADD14O,1.700000X1.950000*%
%ADD15R,1.524000X1.524000*%
%ADD16O,2.000000X1.600000*%
%ADD17R,2.000000X2.000000*%
%ADD18C,0.254000*%
G04 APERTURE END LIST*
D10*
X106000000Y-30375000D03*
G04 #@! TA.AperFunction,ComponentPad*
D11*
G36*
X104124504Y-29376204D02*
G01*
X104148773Y-29379804D01*
X104172571Y-29385765D01*
X104195671Y-29394030D01*
X104217849Y-29404520D01*
X104238893Y-29417133D01*
X104258598Y-29431747D01*
X104276777Y-29448223D01*
X104293253Y-29466402D01*
X104307867Y-29486107D01*
X104320480Y-29507151D01*
X104330970Y-29529329D01*
X104339235Y-29552429D01*
X104345196Y-29576227D01*
X104348796Y-29600496D01*
X104350000Y-29625000D01*
X104350000Y-31125000D01*
X104348796Y-31149504D01*
X104345196Y-31173773D01*
X104339235Y-31197571D01*
X104330970Y-31220671D01*
X104320480Y-31242849D01*
X104307867Y-31263893D01*
X104293253Y-31283598D01*
X104276777Y-31301777D01*
X104258598Y-31318253D01*
X104238893Y-31332867D01*
X104217849Y-31345480D01*
X104195671Y-31355970D01*
X104172571Y-31364235D01*
X104148773Y-31370196D01*
X104124504Y-31373796D01*
X104100000Y-31375000D01*
X102900000Y-31375000D01*
X102875496Y-31373796D01*
X102851227Y-31370196D01*
X102827429Y-31364235D01*
X102804329Y-31355970D01*
X102782151Y-31345480D01*
X102761107Y-31332867D01*
X102741402Y-31318253D01*
X102723223Y-31301777D01*
X102706747Y-31283598D01*
X102692133Y-31263893D01*
X102679520Y-31242849D01*
X102669030Y-31220671D01*
X102660765Y-31197571D01*
X102654804Y-31173773D01*
X102651204Y-31149504D01*
X102650000Y-31125000D01*
X102650000Y-29625000D01*
X102651204Y-29600496D01*
X102654804Y-29576227D01*
X102660765Y-29552429D01*
X102669030Y-29529329D01*
X102679520Y-29507151D01*
X102692133Y-29486107D01*
X102706747Y-29466402D01*
X102723223Y-29448223D01*
X102741402Y-29431747D01*
X102761107Y-29417133D01*
X102782151Y-29404520D01*
X102804329Y-29394030D01*
X102827429Y-29385765D01*
X102851227Y-29379804D01*
X102875496Y-29376204D01*
X102900000Y-29375000D01*
X104100000Y-29375000D01*
X104124504Y-29376204D01*
G37*
G04 #@! TD.AperFunction*
G04 #@! TA.AperFunction,ComponentPad*
G36*
X79160765Y-39754213D02*
G01*
X79245704Y-39766813D01*
X79328999Y-39787677D01*
X79409848Y-39816605D01*
X79487472Y-39853319D01*
X79561124Y-39897464D01*
X79630094Y-39948616D01*
X79693718Y-40006282D01*
X79751384Y-40069906D01*
X79802536Y-40138876D01*
X79846681Y-40212528D01*
X79883395Y-40290152D01*
X79912323Y-40371001D01*
X79933187Y-40454296D01*
X79945787Y-40539235D01*
X79950000Y-40625000D01*
X79950000Y-42375000D01*
X79945787Y-42460765D01*
X79933187Y-42545704D01*
X79912323Y-42628999D01*
X79883395Y-42709848D01*
X79846681Y-42787472D01*
X79802536Y-42861124D01*
X79751384Y-42930094D01*
X79693718Y-42993718D01*
X79630094Y-43051384D01*
X79561124Y-43102536D01*
X79487472Y-43146681D01*
X79409848Y-43183395D01*
X79328999Y-43212323D01*
X79245704Y-43233187D01*
X79160765Y-43245787D01*
X79075000Y-43250000D01*
X77325000Y-43250000D01*
X77239235Y-43245787D01*
X77154296Y-43233187D01*
X77071001Y-43212323D01*
X76990152Y-43183395D01*
X76912528Y-43146681D01*
X76838876Y-43102536D01*
X76769906Y-43051384D01*
X76706282Y-42993718D01*
X76648616Y-42930094D01*
X76597464Y-42861124D01*
X76553319Y-42787472D01*
X76516605Y-42709848D01*
X76487677Y-42628999D01*
X76466813Y-42545704D01*
X76454213Y-42460765D01*
X76450000Y-42375000D01*
X76450000Y-40625000D01*
X76454213Y-40539235D01*
X76466813Y-40454296D01*
X76487677Y-40371001D01*
X76516605Y-40290152D01*
X76553319Y-40212528D01*
X76597464Y-40138876D01*
X76648616Y-40069906D01*
X76706282Y-40006282D01*
X76769906Y-39948616D01*
X76838876Y-39897464D01*
X76912528Y-39853319D01*
X76990152Y-39816605D01*
X77071001Y-39787677D01*
X77154296Y-39766813D01*
X77239235Y-39754213D01*
X77325000Y-39750000D01*
X79075000Y-39750000D01*
X79160765Y-39754213D01*
G37*
G04 #@! TD.AperFunction*
G04 #@! TA.AperFunction,ComponentPad*
G36*
X74573513Y-43003611D02*
G01*
X74646318Y-43014411D01*
X74717714Y-43032295D01*
X74787013Y-43057090D01*
X74853548Y-43088559D01*
X74916678Y-43126398D01*
X74975795Y-43170242D01*
X75030330Y-43219670D01*
X75079758Y-43274205D01*
X75123602Y-43333322D01*
X75161441Y-43396452D01*
X75192910Y-43462987D01*
X75217705Y-43532286D01*
X75235589Y-43603682D01*
X75246389Y-43676487D01*
X75250000Y-43750000D01*
X75250000Y-45250000D01*
X75246389Y-45323513D01*
X75235589Y-45396318D01*
X75217705Y-45467714D01*
X75192910Y-45537013D01*
X75161441Y-45603548D01*
X75123602Y-45666678D01*
X75079758Y-45725795D01*
X75030330Y-45780330D01*
X74975795Y-45829758D01*
X74916678Y-45873602D01*
X74853548Y-45911441D01*
X74787013Y-45942910D01*
X74717714Y-45967705D01*
X74646318Y-45985589D01*
X74573513Y-45996389D01*
X74500000Y-46000000D01*
X72500000Y-46000000D01*
X72426487Y-45996389D01*
X72353682Y-45985589D01*
X72282286Y-45967705D01*
X72212987Y-45942910D01*
X72146452Y-45911441D01*
X72083322Y-45873602D01*
X72024205Y-45829758D01*
X71969670Y-45780330D01*
X71920242Y-45725795D01*
X71876398Y-45666678D01*
X71838559Y-45603548D01*
X71807090Y-45537013D01*
X71782295Y-45467714D01*
X71764411Y-45396318D01*
X71753611Y-45323513D01*
X71750000Y-45250000D01*
X71750000Y-43750000D01*
X71753611Y-43676487D01*
X71764411Y-43603682D01*
X71782295Y-43532286D01*
X71807090Y-43462987D01*
X71838559Y-43396452D01*
X71876398Y-43333322D01*
X71920242Y-43274205D01*
X71969670Y-43219670D01*
X72024205Y-43170242D01*
X72083322Y-43126398D01*
X72146452Y-43088559D01*
X72212987Y-43057090D01*
X72282286Y-43032295D01*
X72353682Y-43014411D01*
X72426487Y-43003611D01*
X72500000Y-43000000D01*
X74500000Y-43000000D01*
X74573513Y-43003611D01*
G37*
G04 #@! TD.AperFunction*
D12*
X73500000Y-38500000D03*
D13*
X83020000Y-47040000D03*
X83020000Y-44500000D03*
X83020000Y-41960000D03*
D10*
X97000000Y-30375000D03*
G04 #@! TA.AperFunction,ComponentPad*
D11*
G36*
X95124504Y-29376204D02*
G01*
X95148773Y-29379804D01*
X95172571Y-29385765D01*
X95195671Y-29394030D01*
X95217849Y-29404520D01*
X95238893Y-29417133D01*
X95258598Y-29431747D01*
X95276777Y-29448223D01*
X95293253Y-29466402D01*
X95307867Y-29486107D01*
X95320480Y-29507151D01*
X95330970Y-29529329D01*
X95339235Y-29552429D01*
X95345196Y-29576227D01*
X95348796Y-29600496D01*
X95350000Y-29625000D01*
X95350000Y-31125000D01*
X95348796Y-31149504D01*
X95345196Y-31173773D01*
X95339235Y-31197571D01*
X95330970Y-31220671D01*
X95320480Y-31242849D01*
X95307867Y-31263893D01*
X95293253Y-31283598D01*
X95276777Y-31301777D01*
X95258598Y-31318253D01*
X95238893Y-31332867D01*
X95217849Y-31345480D01*
X95195671Y-31355970D01*
X95172571Y-31364235D01*
X95148773Y-31370196D01*
X95124504Y-31373796D01*
X95100000Y-31375000D01*
X93900000Y-31375000D01*
X93875496Y-31373796D01*
X93851227Y-31370196D01*
X93827429Y-31364235D01*
X93804329Y-31355970D01*
X93782151Y-31345480D01*
X93761107Y-31332867D01*
X93741402Y-31318253D01*
X93723223Y-31301777D01*
X93706747Y-31283598D01*
X93692133Y-31263893D01*
X93679520Y-31242849D01*
X93669030Y-31220671D01*
X93660765Y-31197571D01*
X93654804Y-31173773D01*
X93651204Y-31149504D01*
X93650000Y-31125000D01*
X93650000Y-29625000D01*
X93651204Y-29600496D01*
X93654804Y-29576227D01*
X93660765Y-29552429D01*
X93669030Y-29529329D01*
X93679520Y-29507151D01*
X93692133Y-29486107D01*
X93706747Y-29466402D01*
X93723223Y-29448223D01*
X93741402Y-29431747D01*
X93761107Y-29417133D01*
X93782151Y-29404520D01*
X93804329Y-29394030D01*
X93827429Y-29385765D01*
X93851227Y-29379804D01*
X93875496Y-29376204D01*
X93900000Y-29375000D01*
X95100000Y-29375000D01*
X95124504Y-29376204D01*
G37*
G04 #@! TD.AperFunction*
D10*
X88000000Y-30375000D03*
G04 #@! TA.AperFunction,ComponentPad*
D11*
G36*
X86124504Y-29376204D02*
G01*
X86148773Y-29379804D01*
X86172571Y-29385765D01*
X86195671Y-29394030D01*
X86217849Y-29404520D01*
X86238893Y-29417133D01*
X86258598Y-29431747D01*
X86276777Y-29448223D01*
X86293253Y-29466402D01*
X86307867Y-29486107D01*
X86320480Y-29507151D01*
X86330970Y-29529329D01*
X86339235Y-29552429D01*
X86345196Y-29576227D01*
X86348796Y-29600496D01*
X86350000Y-29625000D01*
X86350000Y-31125000D01*
X86348796Y-31149504D01*
X86345196Y-31173773D01*
X86339235Y-31197571D01*
X86330970Y-31220671D01*
X86320480Y-31242849D01*
X86307867Y-31263893D01*
X86293253Y-31283598D01*
X86276777Y-31301777D01*
X86258598Y-31318253D01*
X86238893Y-31332867D01*
X86217849Y-31345480D01*
X86195671Y-31355970D01*
X86172571Y-31364235D01*
X86148773Y-31370196D01*
X86124504Y-31373796D01*
X86100000Y-31375000D01*
X84900000Y-31375000D01*
X84875496Y-31373796D01*
X84851227Y-31370196D01*
X84827429Y-31364235D01*
X84804329Y-31355970D01*
X84782151Y-31345480D01*
X84761107Y-31332867D01*
X84741402Y-31318253D01*
X84723223Y-31301777D01*
X84706747Y-31283598D01*
X84692133Y-31263893D01*
X84679520Y-31242849D01*
X84669030Y-31220671D01*
X84660765Y-31197571D01*
X84654804Y-31173773D01*
X84651204Y-31149504D01*
X84650000Y-31125000D01*
X84650000Y-29625000D01*
X84651204Y-29600496D01*
X84654804Y-29576227D01*
X84660765Y-29552429D01*
X84669030Y-29529329D01*
X84679520Y-29507151D01*
X84692133Y-29486107D01*
X84706747Y-29466402D01*
X84723223Y-29448223D01*
X84741402Y-29431747D01*
X84761107Y-29417133D01*
X84782151Y-29404520D01*
X84804329Y-29394030D01*
X84827429Y-29385765D01*
X84851227Y-29379804D01*
X84875496Y-29376204D01*
X84900000Y-29375000D01*
X86100000Y-29375000D01*
X86124504Y-29376204D01*
G37*
G04 #@! TD.AperFunction*
D14*
X90500000Y-21500000D03*
X88000000Y-21500000D03*
G04 #@! TA.AperFunction,ComponentPad*
D11*
G36*
X86124504Y-20526204D02*
G01*
X86148773Y-20529804D01*
X86172571Y-20535765D01*
X86195671Y-20544030D01*
X86217849Y-20554520D01*
X86238893Y-20567133D01*
X86258598Y-20581747D01*
X86276777Y-20598223D01*
X86293253Y-20616402D01*
X86307867Y-20636107D01*
X86320480Y-20657151D01*
X86330970Y-20679329D01*
X86339235Y-20702429D01*
X86345196Y-20726227D01*
X86348796Y-20750496D01*
X86350000Y-20775000D01*
X86350000Y-22225000D01*
X86348796Y-22249504D01*
X86345196Y-22273773D01*
X86339235Y-22297571D01*
X86330970Y-22320671D01*
X86320480Y-22342849D01*
X86307867Y-22363893D01*
X86293253Y-22383598D01*
X86276777Y-22401777D01*
X86258598Y-22418253D01*
X86238893Y-22432867D01*
X86217849Y-22445480D01*
X86195671Y-22455970D01*
X86172571Y-22464235D01*
X86148773Y-22470196D01*
X86124504Y-22473796D01*
X86100000Y-22475000D01*
X84900000Y-22475000D01*
X84875496Y-22473796D01*
X84851227Y-22470196D01*
X84827429Y-22464235D01*
X84804329Y-22455970D01*
X84782151Y-22445480D01*
X84761107Y-22432867D01*
X84741402Y-22418253D01*
X84723223Y-22401777D01*
X84706747Y-22383598D01*
X84692133Y-22363893D01*
X84679520Y-22342849D01*
X84669030Y-22320671D01*
X84660765Y-22297571D01*
X84654804Y-22273773D01*
X84651204Y-22249504D01*
X84650000Y-22225000D01*
X84650000Y-20775000D01*
X84651204Y-20750496D01*
X84654804Y-20726227D01*
X84660765Y-20702429D01*
X84669030Y-20679329D01*
X84679520Y-20657151D01*
X84692133Y-20636107D01*
X84706747Y-20616402D01*
X84723223Y-20598223D01*
X84741402Y-20581747D01*
X84761107Y-20567133D01*
X84782151Y-20554520D01*
X84804329Y-20544030D01*
X84827429Y-20535765D01*
X84851227Y-20529804D01*
X84875496Y-20526204D01*
X84900000Y-20525000D01*
X86100000Y-20525000D01*
X86124504Y-20526204D01*
G37*
G04 #@! TD.AperFunction*
D15*
X69670000Y-19650000D03*
D13*
X69670000Y-22190000D03*
X69670000Y-24730000D03*
X69670000Y-27270000D03*
X69670000Y-29810000D03*
X69670000Y-32350000D03*
D15*
X79830000Y-19650000D03*
D13*
X79830000Y-22190000D03*
X79830000Y-24730000D03*
X79830000Y-27270000D03*
X79830000Y-29810000D03*
X79830000Y-32350000D03*
D16*
X65110000Y-26250000D03*
X65110000Y-28790000D03*
X65110000Y-31330000D03*
X65110000Y-33870000D03*
X65110000Y-36410000D03*
X65110000Y-38950000D03*
X65110000Y-41490000D03*
X65110000Y-44030000D03*
X42250000Y-44030000D03*
X42250000Y-41490000D03*
X42250000Y-38950000D03*
X42250000Y-36410000D03*
X42250000Y-33870000D03*
X42250000Y-31330000D03*
D17*
X42250000Y-26250000D03*
D16*
X42250000Y-28790000D03*
D18*
G36*
X106670189Y-18144376D02*
G01*
X106833850Y-18194022D01*
X106984672Y-18274638D01*
X107103735Y-18372350D01*
X107051925Y-18350890D01*
X106620128Y-18265000D01*
X106179872Y-18265000D01*
X105748075Y-18350890D01*
X105341331Y-18519369D01*
X104975271Y-18763962D01*
X104663962Y-19075271D01*
X104419369Y-19441331D01*
X104250890Y-19848075D01*
X104165000Y-20279872D01*
X104165000Y-20720128D01*
X104250890Y-21151925D01*
X104419369Y-21558669D01*
X104663962Y-21924729D01*
X104975271Y-22236038D01*
X105341331Y-22480631D01*
X105748075Y-22649110D01*
X106179872Y-22735000D01*
X106620128Y-22735000D01*
X107051925Y-22649110D01*
X107373000Y-22516116D01*
X107373000Y-29705181D01*
X107289510Y-29511583D01*
X107125552Y-29273720D01*
X106918339Y-29072414D01*
X106675835Y-28915402D01*
X106593265Y-28863655D01*
X106373000Y-28952282D01*
X106373000Y-30002000D01*
X106393000Y-30002000D01*
X106393000Y-30748000D01*
X106373000Y-30748000D01*
X106373000Y-31797718D01*
X106593265Y-31886345D01*
X106675835Y-31834598D01*
X106918339Y-31677586D01*
X107125552Y-31476280D01*
X107289510Y-31238417D01*
X107373000Y-31044819D01*
X107373000Y-46993766D01*
X107355624Y-47170189D01*
X107305978Y-47333850D01*
X107225362Y-47484672D01*
X107116870Y-47616870D01*
X106984672Y-47725362D01*
X106833850Y-47805978D01*
X106670189Y-47855624D01*
X106493766Y-47873000D01*
X84143564Y-47873000D01*
X84258005Y-47701727D01*
X84363314Y-47447490D01*
X84417000Y-47177592D01*
X84417000Y-46902408D01*
X84363314Y-46632510D01*
X84258005Y-46378273D01*
X84105120Y-46149465D01*
X83910535Y-45954880D01*
X83681727Y-45801995D01*
X83541234Y-45743801D01*
X83596165Y-45603667D01*
X83020000Y-45027502D01*
X82443835Y-45603667D01*
X82498766Y-45743801D01*
X82358273Y-45801995D01*
X82129465Y-45954880D01*
X81934880Y-46149465D01*
X81781995Y-46378273D01*
X81676686Y-46632510D01*
X81623000Y-46902408D01*
X81623000Y-47177592D01*
X81676686Y-47447490D01*
X81781995Y-47701727D01*
X81896436Y-47873000D01*
X62506234Y-47873000D01*
X62329811Y-47855624D01*
X62166150Y-47805978D01*
X62015328Y-47725362D01*
X61883130Y-47616870D01*
X61774638Y-47484672D01*
X61694022Y-47333850D01*
X61644376Y-47170189D01*
X61627000Y-46993766D01*
X61627000Y-46000000D01*
X71111928Y-46000000D01*
X71124188Y-46124482D01*
X71160498Y-46244180D01*
X71219463Y-46354494D01*
X71298815Y-46451185D01*
X71395506Y-46530537D01*
X71505820Y-46589502D01*
X71625518Y-46625812D01*
X71750000Y-46638072D01*
X72968250Y-46635000D01*
X73127000Y-46476250D01*
X73127000Y-44873000D01*
X73873000Y-44873000D01*
X73873000Y-46476250D01*
X74031750Y-46635000D01*
X75250000Y-46638072D01*
X75374482Y-46625812D01*
X75494180Y-46589502D01*
X75604494Y-46530537D01*
X75701185Y-46451185D01*
X75780537Y-46354494D01*
X75839502Y-46244180D01*
X75875812Y-46124482D01*
X75888072Y-46000000D01*
X75885000Y-45031750D01*
X75726250Y-44873000D01*
X73873000Y-44873000D01*
X73127000Y-44873000D01*
X71273750Y-44873000D01*
X71115000Y-45031750D01*
X71111928Y-46000000D01*
X61627000Y-46000000D01*
X61627000Y-44030000D01*
X63468057Y-44030000D01*
X63495764Y-44311309D01*
X63577818Y-44581808D01*
X63711068Y-44831101D01*
X63890392Y-45049608D01*
X64108899Y-45228932D01*
X64358192Y-45362182D01*
X64628691Y-45444236D01*
X64839508Y-45465000D01*
X65380492Y-45465000D01*
X65591309Y-45444236D01*
X65861808Y-45362182D01*
X66111101Y-45228932D01*
X66329608Y-45049608D01*
X66508932Y-44831101D01*
X66642182Y-44581808D01*
X66652809Y-44546773D01*
X81617020Y-44546773D01*
X81653103Y-44819583D01*
X81705916Y-44993684D01*
X81916333Y-45076165D01*
X82492498Y-44500000D01*
X83547502Y-44500000D01*
X84123667Y-45076165D01*
X84334084Y-44993684D01*
X84405147Y-44727833D01*
X84422980Y-44453227D01*
X84386897Y-44180417D01*
X84334084Y-44006316D01*
X84123667Y-43923835D01*
X83547502Y-44500000D01*
X82492498Y-44500000D01*
X81916333Y-43923835D01*
X81705916Y-44006316D01*
X81634853Y-44272167D01*
X81617020Y-44546773D01*
X66652809Y-44546773D01*
X66724236Y-44311309D01*
X66751943Y-44030000D01*
X66724236Y-43748691D01*
X66642182Y-43478192D01*
X66508932Y-43228899D01*
X66329608Y-43010392D01*
X66316946Y-43000000D01*
X71111928Y-43000000D01*
X71115000Y-43968250D01*
X71273750Y-44127000D01*
X73127000Y-44127000D01*
X73127000Y-42523750D01*
X73873000Y-42523750D01*
X73873000Y-44127000D01*
X75726250Y-44127000D01*
X75885000Y-43968250D01*
X75888072Y-43000000D01*
X75875812Y-42875518D01*
X75839502Y-42755820D01*
X75780537Y-42645506D01*
X75701185Y-42548815D01*
X75604494Y-42469463D01*
X75494180Y-42410498D01*
X75374482Y-42374188D01*
X75250000Y-42361928D01*
X74031750Y-42365000D01*
X73873000Y-42523750D01*
X73127000Y-42523750D01*
X72968250Y-42365000D01*
X71750000Y-42361928D01*
X71625518Y-42374188D01*
X71505820Y-42410498D01*
X71395506Y-42469463D01*
X71298815Y-42548815D01*
X71219463Y-42645506D01*
X71160498Y-42755820D01*
X71124188Y-42875518D01*
X71111928Y-43000000D01*
X66316946Y-43000000D01*
X66111101Y-42831068D01*
X65964750Y-42752841D01*
X66195454Y-42603829D01*
X66395738Y-42409684D01*
X66554297Y-42180196D01*
X66620265Y-42075175D01*
X66530527Y-41863000D01*
X65483000Y-41863000D01*
X65483000Y-41883000D01*
X64737000Y-41883000D01*
X64737000Y-41863000D01*
X63689473Y-41863000D01*
X63599735Y-42075175D01*
X63665703Y-42180196D01*
X63824262Y-42409684D01*
X64024546Y-42603829D01*
X64255250Y-42752841D01*
X64108899Y-42831068D01*
X63890392Y-43010392D01*
X63711068Y-43228899D01*
X63577818Y-43478192D01*
X63495764Y-43748691D01*
X63468057Y-44030000D01*
X61627000Y-44030000D01*
X61627000Y-26250000D01*
X63468057Y-26250000D01*
X63495764Y-26531309D01*
X63577818Y-26801808D01*
X63711068Y-27051101D01*
X63890392Y-27269608D01*
X64108899Y-27448932D01*
X64241858Y-27520000D01*
X64108899Y-27591068D01*
X63890392Y-27770392D01*
X63711068Y-27988899D01*
X63577818Y-28238192D01*
X63495764Y-28508691D01*
X63468057Y-28790000D01*
X63495764Y-29071309D01*
X63577818Y-29341808D01*
X63711068Y-29591101D01*
X63890392Y-29809608D01*
X64108899Y-29988932D01*
X64241858Y-30060000D01*
X64108899Y-30131068D01*
X63890392Y-30310392D01*
X63711068Y-30528899D01*
X63577818Y-30778192D01*
X63495764Y-31048691D01*
X63468057Y-31330000D01*
X63495764Y-31611309D01*
X63577818Y-31881808D01*
X63711068Y-32131101D01*
X63890392Y-32349608D01*
X64108899Y-32528932D01*
X64241858Y-32600000D01*
X64108899Y-32671068D01*
X63890392Y-32850392D01*
X63711068Y-33068899D01*
X63577818Y-33318192D01*
X63495764Y-33588691D01*
X63468057Y-33870000D01*
X63495764Y-34151309D01*
X63577818Y-34421808D01*
X63711068Y-34671101D01*
X63890392Y-34889608D01*
X64108899Y-35068932D01*
X64241858Y-35140000D01*
X64108899Y-35211068D01*
X63890392Y-35390392D01*
X63711068Y-35608899D01*
X63577818Y-35858192D01*
X63495764Y-36128691D01*
X63468057Y-36410000D01*
X63495764Y-36691309D01*
X63577818Y-36961808D01*
X63711068Y-37211101D01*
X63890392Y-37429608D01*
X64108899Y-37608932D01*
X64241858Y-37680000D01*
X64108899Y-37751068D01*
X63890392Y-37930392D01*
X63711068Y-38148899D01*
X63577818Y-38398192D01*
X63495764Y-38668691D01*
X63468057Y-38950000D01*
X63495764Y-39231309D01*
X63577818Y-39501808D01*
X63711068Y-39751101D01*
X63890392Y-39969608D01*
X64108899Y-40148932D01*
X64255250Y-40227159D01*
X64024546Y-40376171D01*
X63824262Y-40570316D01*
X63665703Y-40799804D01*
X63599735Y-40904825D01*
X63689473Y-41117000D01*
X64737000Y-41117000D01*
X64737000Y-41097000D01*
X65483000Y-41097000D01*
X65483000Y-41117000D01*
X66530527Y-41117000D01*
X66620265Y-40904825D01*
X66554297Y-40799804D01*
X66395738Y-40570316D01*
X66195454Y-40376171D01*
X65964750Y-40227159D01*
X66111101Y-40148932D01*
X66329608Y-39969608D01*
X66508932Y-39751101D01*
X66642182Y-39501808D01*
X66724236Y-39231309D01*
X66751943Y-38950000D01*
X66724236Y-38668691D01*
X66642182Y-38398192D01*
X66508932Y-38148899D01*
X66329608Y-37930392D01*
X66111101Y-37751068D01*
X65978142Y-37680000D01*
X66111101Y-37608932D01*
X66329608Y-37429608D01*
X66508932Y-37211101D01*
X66642182Y-36961808D01*
X66706432Y-36750000D01*
X71111928Y-36750000D01*
X71111928Y-40250000D01*
X71124188Y-40374482D01*
X71160498Y-40494180D01*
X71219463Y-40604494D01*
X71298815Y-40701185D01*
X71395506Y-40780537D01*
X71505820Y-40839502D01*
X71625518Y-40875812D01*
X71750000Y-40888072D01*
X75250000Y-40888072D01*
X75374482Y-40875812D01*
X75494180Y-40839502D01*
X75604494Y-40780537D01*
X75701185Y-40701185D01*
X75780537Y-40604494D01*
X75821494Y-40527869D01*
X75811928Y-40625000D01*
X75811928Y-42375000D01*
X75841001Y-42670186D01*
X75927104Y-42954028D01*
X76066927Y-43215618D01*
X76255097Y-43444903D01*
X76484382Y-43633073D01*
X76745972Y-43772896D01*
X77029814Y-43858999D01*
X77325000Y-43888072D01*
X79075000Y-43888072D01*
X79370186Y-43858999D01*
X79654028Y-43772896D01*
X79915618Y-43633073D01*
X80144903Y-43444903D01*
X80333073Y-43215618D01*
X80472896Y-42954028D01*
X80558999Y-42670186D01*
X80588072Y-42375000D01*
X80588072Y-41822408D01*
X81623000Y-41822408D01*
X81623000Y-42097592D01*
X81676686Y-42367490D01*
X81781995Y-42621727D01*
X81934880Y-42850535D01*
X82129465Y-43045120D01*
X82358273Y-43198005D01*
X82498766Y-43256199D01*
X82443835Y-43396333D01*
X83020000Y-43972498D01*
X83596165Y-43396333D01*
X83541234Y-43256199D01*
X83681727Y-43198005D01*
X83910535Y-43045120D01*
X84105120Y-42850535D01*
X84258005Y-42621727D01*
X84342271Y-42418290D01*
X84730497Y-42418290D01*
X84730497Y-42845644D01*
X84813870Y-43264788D01*
X84977412Y-43659612D01*
X85214837Y-44014944D01*
X85517023Y-44317130D01*
X85872355Y-44554555D01*
X86267179Y-44718097D01*
X86686323Y-44801470D01*
X87113677Y-44801470D01*
X87532821Y-44718097D01*
X87927645Y-44554555D01*
X88282977Y-44317130D01*
X88585163Y-44014944D01*
X88822588Y-43659612D01*
X88986130Y-43264788D01*
X89069503Y-42845644D01*
X89069503Y-42418290D01*
X88986130Y-41999146D01*
X88822588Y-41604322D01*
X88585163Y-41248990D01*
X88282977Y-40946804D01*
X87927645Y-40709379D01*
X87532821Y-40545837D01*
X87113677Y-40462464D01*
X86686323Y-40462464D01*
X86267179Y-40545837D01*
X85872355Y-40709379D01*
X85517023Y-40946804D01*
X85214837Y-41248990D01*
X84977412Y-41604322D01*
X84813870Y-41999146D01*
X84730497Y-42418290D01*
X84342271Y-42418290D01*
X84363314Y-42367490D01*
X84417000Y-42097592D01*
X84417000Y-41822408D01*
X84363314Y-41552510D01*
X84258005Y-41298273D01*
X84105120Y-41069465D01*
X83910535Y-40874880D01*
X83681727Y-40721995D01*
X83427490Y-40616686D01*
X83157592Y-40563000D01*
X82882408Y-40563000D01*
X82612510Y-40616686D01*
X82358273Y-40721995D01*
X82129465Y-40874880D01*
X81934880Y-41069465D01*
X81781995Y-41298273D01*
X81676686Y-41552510D01*
X81623000Y-41822408D01*
X80588072Y-41822408D01*
X80588072Y-40625000D01*
X80558999Y-40329814D01*
X80472896Y-40045972D01*
X80333073Y-39784382D01*
X80144903Y-39555097D01*
X79915618Y-39366927D01*
X79654028Y-39227104D01*
X79370186Y-39141001D01*
X79075000Y-39111928D01*
X77325000Y-39111928D01*
X77029814Y-39141001D01*
X76745972Y-39227104D01*
X76484382Y-39366927D01*
X76255097Y-39555097D01*
X76066927Y-39784382D01*
X75927104Y-40045972D01*
X75888072Y-40174643D01*
X75888072Y-36750000D01*
X75875812Y-36625518D01*
X75839502Y-36505820D01*
X75780537Y-36395506D01*
X75701185Y-36298815D01*
X75604494Y-36219463D01*
X75494180Y-36160498D01*
X75374482Y-36124188D01*
X75250000Y-36111928D01*
X71750000Y-36111928D01*
X71625518Y-36124188D01*
X71505820Y-36160498D01*
X71395506Y-36219463D01*
X71298815Y-36298815D01*
X71219463Y-36395506D01*
X71160498Y-36505820D01*
X71124188Y-36625518D01*
X71111928Y-36750000D01*
X66706432Y-36750000D01*
X66724236Y-36691309D01*
X66751943Y-36410000D01*
X66724236Y-36128691D01*
X66642182Y-35858192D01*
X66508932Y-35608899D01*
X66329608Y-35390392D01*
X66111101Y-35211068D01*
X65978142Y-35140000D01*
X66111101Y-35068932D01*
X66329608Y-34889608D01*
X66508932Y-34671101D01*
X66642182Y-34421808D01*
X66724236Y-34151309D01*
X66751943Y-33870000D01*
X66724236Y-33588691D01*
X66642182Y-33318192D01*
X66508932Y-33068899D01*
X66329608Y-32850392D01*
X66111101Y-32671068D01*
X65978142Y-32600000D01*
X66111101Y-32528932D01*
X66329608Y-32349608D01*
X66508932Y-32131101D01*
X66642182Y-31881808D01*
X66724236Y-31611309D01*
X66751943Y-31330000D01*
X66724236Y-31048691D01*
X66642182Y-30778192D01*
X66508932Y-30528899D01*
X66329608Y-30310392D01*
X66111101Y-30131068D01*
X65978142Y-30060000D01*
X66111101Y-29988932D01*
X66329608Y-29809608D01*
X66442205Y-29672408D01*
X68273000Y-29672408D01*
X68273000Y-29947592D01*
X68326686Y-30217490D01*
X68431995Y-30471727D01*
X68584880Y-30700535D01*
X68779465Y-30895120D01*
X69008273Y-31048005D01*
X69085515Y-31080000D01*
X69008273Y-31111995D01*
X68779465Y-31264880D01*
X68584880Y-31459465D01*
X68431995Y-31688273D01*
X68326686Y-31942510D01*
X68273000Y-32212408D01*
X68273000Y-32487592D01*
X68326686Y-32757490D01*
X68431995Y-33011727D01*
X68584880Y-33240535D01*
X68779465Y-33435120D01*
X69008273Y-33588005D01*
X69262510Y-33693314D01*
X69532408Y-33747000D01*
X69807592Y-33747000D01*
X70077490Y-33693314D01*
X70331727Y-33588005D01*
X70560535Y-33435120D01*
X70755120Y-33240535D01*
X70908005Y-33011727D01*
X71013314Y-32757490D01*
X71067000Y-32487592D01*
X71067000Y-32212408D01*
X71013314Y-31942510D01*
X70908005Y-31688273D01*
X70755120Y-31459465D01*
X70560535Y-31264880D01*
X70331727Y-31111995D01*
X70254485Y-31080000D01*
X70331727Y-31048005D01*
X70560535Y-30895120D01*
X70755120Y-30700535D01*
X70908005Y-30471727D01*
X71013314Y-30217490D01*
X71067000Y-29947592D01*
X71067000Y-29672408D01*
X78433000Y-29672408D01*
X78433000Y-29947592D01*
X78486686Y-30217490D01*
X78591995Y-30471727D01*
X78744880Y-30700535D01*
X78939465Y-30895120D01*
X79168273Y-31048005D01*
X79245515Y-31080000D01*
X79168273Y-31111995D01*
X78939465Y-31264880D01*
X78744880Y-31459465D01*
X78591995Y-31688273D01*
X78486686Y-31942510D01*
X78433000Y-32212408D01*
X78433000Y-32487592D01*
X78486686Y-32757490D01*
X78591995Y-33011727D01*
X78744880Y-33240535D01*
X78939465Y-33435120D01*
X79168273Y-33588005D01*
X79422510Y-33693314D01*
X79692408Y-33747000D01*
X79967592Y-33747000D01*
X80237490Y-33693314D01*
X80491727Y-33588005D01*
X80720535Y-33435120D01*
X80915120Y-33240535D01*
X81068005Y-33011727D01*
X81173314Y-32757490D01*
X81227000Y-32487592D01*
X81227000Y-32212408D01*
X81173314Y-31942510D01*
X81068005Y-31688273D01*
X80915120Y-31459465D01*
X80720535Y-31264880D01*
X80491727Y-31111995D01*
X80414485Y-31080000D01*
X80491727Y-31048005D01*
X80720535Y-30895120D01*
X80915120Y-30700535D01*
X81068005Y-30471727D01*
X81173314Y-30217490D01*
X81227000Y-29947592D01*
X81227000Y-29672408D01*
X81217570Y-29625000D01*
X84011928Y-29625000D01*
X84011928Y-31125000D01*
X84028992Y-31298254D01*
X84079528Y-31464850D01*
X84161595Y-31618386D01*
X84272038Y-31752962D01*
X84406614Y-31863405D01*
X84560150Y-31945472D01*
X84726746Y-31996008D01*
X84900000Y-32013072D01*
X86100000Y-32013072D01*
X86273254Y-31996008D01*
X86439850Y-31945472D01*
X86593386Y-31863405D01*
X86727962Y-31752962D01*
X86838405Y-31618386D01*
X86900720Y-31501803D01*
X87081661Y-31677586D01*
X87324165Y-31834598D01*
X87406735Y-31886345D01*
X87627000Y-31797718D01*
X87627000Y-30748000D01*
X88373000Y-30748000D01*
X88373000Y-31797718D01*
X88593265Y-31886345D01*
X88675835Y-31834598D01*
X88918339Y-31677586D01*
X89125552Y-31476280D01*
X89289510Y-31238417D01*
X89403913Y-30973138D01*
X89297983Y-30748000D01*
X88373000Y-30748000D01*
X87627000Y-30748000D01*
X87607000Y-30748000D01*
X87607000Y-30002000D01*
X87627000Y-30002000D01*
X87627000Y-28952282D01*
X88373000Y-28952282D01*
X88373000Y-30002000D01*
X89297983Y-30002000D01*
X89403913Y-29776862D01*
X89338422Y-29625000D01*
X93011928Y-29625000D01*
X93011928Y-31125000D01*
X93028992Y-31298254D01*
X93079528Y-31464850D01*
X93161595Y-31618386D01*
X93272038Y-31752962D01*
X93406614Y-31863405D01*
X93560150Y-31945472D01*
X93726746Y-31996008D01*
X93900000Y-32013072D01*
X95100000Y-32013072D01*
X95273254Y-31996008D01*
X95439850Y-31945472D01*
X95593386Y-31863405D01*
X95727962Y-31752962D01*
X95838405Y-31618386D01*
X95900720Y-31501803D01*
X96081661Y-31677586D01*
X96324165Y-31834598D01*
X96406735Y-31886345D01*
X96627000Y-31797718D01*
X96627000Y-30748000D01*
X97373000Y-30748000D01*
X97373000Y-31797718D01*
X97593265Y-31886345D01*
X97675835Y-31834598D01*
X97918339Y-31677586D01*
X98125552Y-31476280D01*
X98289510Y-31238417D01*
X98403913Y-30973138D01*
X98297983Y-30748000D01*
X97373000Y-30748000D01*
X96627000Y-30748000D01*
X96607000Y-30748000D01*
X96607000Y-30002000D01*
X96627000Y-30002000D01*
X96627000Y-28952282D01*
X97373000Y-28952282D01*
X97373000Y-30002000D01*
X98297983Y-30002000D01*
X98403913Y-29776862D01*
X98338422Y-29625000D01*
X102011928Y-29625000D01*
X102011928Y-31125000D01*
X102028992Y-31298254D01*
X102079528Y-31464850D01*
X102161595Y-31618386D01*
X102272038Y-31752962D01*
X102406614Y-31863405D01*
X102560150Y-31945472D01*
X102726746Y-31996008D01*
X102900000Y-32013072D01*
X104100000Y-32013072D01*
X104273254Y-31996008D01*
X104439850Y-31945472D01*
X104593386Y-31863405D01*
X104727962Y-31752962D01*
X104838405Y-31618386D01*
X104900720Y-31501803D01*
X105081661Y-31677586D01*
X105324165Y-31834598D01*
X105406735Y-31886345D01*
X105627000Y-31797718D01*
X105627000Y-30748000D01*
X105607000Y-30748000D01*
X105607000Y-30002000D01*
X105627000Y-30002000D01*
X105627000Y-28952282D01*
X105406735Y-28863655D01*
X105324165Y-28915402D01*
X105081661Y-29072414D01*
X104900720Y-29248197D01*
X104838405Y-29131614D01*
X104727962Y-28997038D01*
X104593386Y-28886595D01*
X104439850Y-28804528D01*
X104273254Y-28753992D01*
X104100000Y-28736928D01*
X102900000Y-28736928D01*
X102726746Y-28753992D01*
X102560150Y-28804528D01*
X102406614Y-28886595D01*
X102272038Y-28997038D01*
X102161595Y-29131614D01*
X102079528Y-29285150D01*
X102028992Y-29451746D01*
X102011928Y-29625000D01*
X98338422Y-29625000D01*
X98289510Y-29511583D01*
X98125552Y-29273720D01*
X97918339Y-29072414D01*
X97675835Y-28915402D01*
X97593265Y-28863655D01*
X97373000Y-28952282D01*
X96627000Y-28952282D01*
X96406735Y-28863655D01*
X96324165Y-28915402D01*
X96081661Y-29072414D01*
X95900720Y-29248197D01*
X95838405Y-29131614D01*
X95727962Y-28997038D01*
X95593386Y-28886595D01*
X95439850Y-28804528D01*
X95273254Y-28753992D01*
X95100000Y-28736928D01*
X93900000Y-28736928D01*
X93726746Y-28753992D01*
X93560150Y-28804528D01*
X93406614Y-28886595D01*
X93272038Y-28997038D01*
X93161595Y-29131614D01*
X93079528Y-29285150D01*
X93028992Y-29451746D01*
X93011928Y-29625000D01*
X89338422Y-29625000D01*
X89289510Y-29511583D01*
X89125552Y-29273720D01*
X88918339Y-29072414D01*
X88675835Y-28915402D01*
X88593265Y-28863655D01*
X88373000Y-28952282D01*
X87627000Y-28952282D01*
X87406735Y-28863655D01*
X87324165Y-28915402D01*
X87081661Y-29072414D01*
X86900720Y-29248197D01*
X86838405Y-29131614D01*
X86727962Y-28997038D01*
X86593386Y-28886595D01*
X86439850Y-28804528D01*
X86273254Y-28753992D01*
X86100000Y-28736928D01*
X84900000Y-28736928D01*
X84726746Y-28753992D01*
X84560150Y-28804528D01*
X84406614Y-28886595D01*
X84272038Y-28997038D01*
X84161595Y-29131614D01*
X84079528Y-29285150D01*
X84028992Y-29451746D01*
X84011928Y-29625000D01*
X81217570Y-29625000D01*
X81173314Y-29402510D01*
X81068005Y-29148273D01*
X80915120Y-28919465D01*
X80720535Y-28724880D01*
X80491727Y-28571995D01*
X80351234Y-28513801D01*
X80406165Y-28373667D01*
X79830000Y-27797502D01*
X79253835Y-28373667D01*
X79308766Y-28513801D01*
X79168273Y-28571995D01*
X78939465Y-28724880D01*
X78744880Y-28919465D01*
X78591995Y-29148273D01*
X78486686Y-29402510D01*
X78433000Y-29672408D01*
X71067000Y-29672408D01*
X71013314Y-29402510D01*
X70908005Y-29148273D01*
X70755120Y-28919465D01*
X70560535Y-28724880D01*
X70331727Y-28571995D01*
X70191234Y-28513801D01*
X70246165Y-28373667D01*
X69670000Y-27797502D01*
X69093835Y-28373667D01*
X69148766Y-28513801D01*
X69008273Y-28571995D01*
X68779465Y-28724880D01*
X68584880Y-28919465D01*
X68431995Y-29148273D01*
X68326686Y-29402510D01*
X68273000Y-29672408D01*
X66442205Y-29672408D01*
X66508932Y-29591101D01*
X66642182Y-29341808D01*
X66724236Y-29071309D01*
X66751943Y-28790000D01*
X66724236Y-28508691D01*
X66642182Y-28238192D01*
X66508932Y-27988899D01*
X66329608Y-27770392D01*
X66111101Y-27591068D01*
X65978142Y-27520000D01*
X66111101Y-27448932D01*
X66272137Y-27316773D01*
X68267020Y-27316773D01*
X68303103Y-27589583D01*
X68355916Y-27763684D01*
X68566333Y-27846165D01*
X69142498Y-27270000D01*
X70197502Y-27270000D01*
X70773667Y-27846165D01*
X70984084Y-27763684D01*
X71055147Y-27497833D01*
X71066905Y-27316773D01*
X78427020Y-27316773D01*
X78463103Y-27589583D01*
X78515916Y-27763684D01*
X78726333Y-27846165D01*
X79302498Y-27270000D01*
X80357502Y-27270000D01*
X80933667Y-27846165D01*
X81144084Y-27763684D01*
X81215147Y-27497833D01*
X81232980Y-27223227D01*
X81196897Y-26950417D01*
X81144084Y-26776316D01*
X80933667Y-26693835D01*
X80357502Y-27270000D01*
X79302498Y-27270000D01*
X78726333Y-26693835D01*
X78515916Y-26776316D01*
X78444853Y-27042167D01*
X78427020Y-27316773D01*
X71066905Y-27316773D01*
X71072980Y-27223227D01*
X71036897Y-26950417D01*
X70984084Y-26776316D01*
X70773667Y-26693835D01*
X70197502Y-27270000D01*
X69142498Y-27270000D01*
X68566333Y-26693835D01*
X68355916Y-26776316D01*
X68284853Y-27042167D01*
X68267020Y-27316773D01*
X66272137Y-27316773D01*
X66329608Y-27269608D01*
X66508932Y-27051101D01*
X66642182Y-26801808D01*
X66724236Y-26531309D01*
X66751943Y-26250000D01*
X66724236Y-25968691D01*
X66642182Y-25698192D01*
X66508932Y-25448899D01*
X66329608Y-25230392D01*
X66111101Y-25051068D01*
X65861808Y-24917818D01*
X65591309Y-24835764D01*
X65380492Y-24815000D01*
X64839508Y-24815000D01*
X64628691Y-24835764D01*
X64358192Y-24917818D01*
X64108899Y-25051068D01*
X63890392Y-25230392D01*
X63711068Y-25448899D01*
X63577818Y-25698192D01*
X63495764Y-25968691D01*
X63468057Y-26250000D01*
X61627000Y-26250000D01*
X61627000Y-19006234D01*
X61638644Y-18888000D01*
X68269928Y-18888000D01*
X68269928Y-20412000D01*
X68282188Y-20536482D01*
X68318498Y-20656180D01*
X68377463Y-20766494D01*
X68456815Y-20863185D01*
X68553506Y-20942537D01*
X68663820Y-21001502D01*
X68783518Y-21037812D01*
X68867465Y-21046080D01*
X68779465Y-21104880D01*
X68584880Y-21299465D01*
X68431995Y-21528273D01*
X68326686Y-21782510D01*
X68273000Y-22052408D01*
X68273000Y-22327592D01*
X68326686Y-22597490D01*
X68431995Y-22851727D01*
X68584880Y-23080535D01*
X68779465Y-23275120D01*
X69008273Y-23428005D01*
X69085515Y-23460000D01*
X69008273Y-23491995D01*
X68779465Y-23644880D01*
X68584880Y-23839465D01*
X68431995Y-24068273D01*
X68326686Y-24322510D01*
X68273000Y-24592408D01*
X68273000Y-24867592D01*
X68326686Y-25137490D01*
X68431995Y-25391727D01*
X68584880Y-25620535D01*
X68779465Y-25815120D01*
X69008273Y-25968005D01*
X69148766Y-26026199D01*
X69093835Y-26166333D01*
X69670000Y-26742498D01*
X70246165Y-26166333D01*
X70191234Y-26026199D01*
X70331727Y-25968005D01*
X70560535Y-25815120D01*
X70755120Y-25620535D01*
X70908005Y-25391727D01*
X71013314Y-25137490D01*
X71067000Y-24867592D01*
X71067000Y-24592408D01*
X71013314Y-24322510D01*
X70908005Y-24068273D01*
X70755120Y-23839465D01*
X70560535Y-23644880D01*
X70331727Y-23491995D01*
X70254485Y-23460000D01*
X70331727Y-23428005D01*
X70560535Y-23275120D01*
X70755120Y-23080535D01*
X70908005Y-22851727D01*
X71013314Y-22597490D01*
X71067000Y-22327592D01*
X71067000Y-22052408D01*
X71013314Y-21782510D01*
X70908005Y-21528273D01*
X70755120Y-21299465D01*
X70560535Y-21104880D01*
X70472535Y-21046080D01*
X70556482Y-21037812D01*
X70676180Y-21001502D01*
X70786494Y-20942537D01*
X70883185Y-20863185D01*
X70962537Y-20766494D01*
X71021502Y-20656180D01*
X71057812Y-20536482D01*
X71070072Y-20412000D01*
X71070072Y-18888000D01*
X78429928Y-18888000D01*
X78429928Y-20412000D01*
X78442188Y-20536482D01*
X78478498Y-20656180D01*
X78537463Y-20766494D01*
X78616815Y-20863185D01*
X78713506Y-20942537D01*
X78823820Y-21001502D01*
X78943518Y-21037812D01*
X79027465Y-21046080D01*
X78939465Y-21104880D01*
X78744880Y-21299465D01*
X78591995Y-21528273D01*
X78486686Y-21782510D01*
X78433000Y-22052408D01*
X78433000Y-22327592D01*
X78486686Y-22597490D01*
X78591995Y-22851727D01*
X78744880Y-23080535D01*
X78939465Y-23275120D01*
X79168273Y-23428005D01*
X79245515Y-23460000D01*
X79168273Y-23491995D01*
X78939465Y-23644880D01*
X78744880Y-23839465D01*
X78591995Y-24068273D01*
X78486686Y-24322510D01*
X78433000Y-24592408D01*
X78433000Y-24867592D01*
X78486686Y-25137490D01*
X78591995Y-25391727D01*
X78744880Y-25620535D01*
X78939465Y-25815120D01*
X79168273Y-25968005D01*
X79308766Y-26026199D01*
X79253835Y-26166333D01*
X79830000Y-26742498D01*
X80406165Y-26166333D01*
X80351234Y-26026199D01*
X80491727Y-25968005D01*
X80720535Y-25815120D01*
X80915120Y-25620535D01*
X81068005Y-25391727D01*
X81173314Y-25137490D01*
X81227000Y-24867592D01*
X81227000Y-24592408D01*
X81173314Y-24322510D01*
X81068005Y-24068273D01*
X80915120Y-23839465D01*
X80720535Y-23644880D01*
X80491727Y-23491995D01*
X80414485Y-23460000D01*
X80491727Y-23428005D01*
X80720535Y-23275120D01*
X80915120Y-23080535D01*
X81068005Y-22851727D01*
X81173314Y-22597490D01*
X81227000Y-22327592D01*
X81227000Y-22052408D01*
X81173314Y-21782510D01*
X81068005Y-21528273D01*
X80915120Y-21299465D01*
X80720535Y-21104880D01*
X80632535Y-21046080D01*
X80716482Y-21037812D01*
X80836180Y-21001502D01*
X80946494Y-20942537D01*
X81043185Y-20863185D01*
X81115556Y-20775000D01*
X84011928Y-20775000D01*
X84011928Y-22225000D01*
X84028992Y-22398254D01*
X84079528Y-22564850D01*
X84161595Y-22718386D01*
X84272038Y-22852962D01*
X84406614Y-22963405D01*
X84560150Y-23045472D01*
X84726746Y-23096008D01*
X84900000Y-23113072D01*
X86100000Y-23113072D01*
X86273254Y-23096008D01*
X86439850Y-23045472D01*
X86593386Y-22963405D01*
X86727962Y-22852962D01*
X86838405Y-22718386D01*
X86892777Y-22616663D01*
X86944866Y-22680134D01*
X87170987Y-22865706D01*
X87428967Y-23003599D01*
X87708890Y-23088513D01*
X88000000Y-23117185D01*
X88291111Y-23088513D01*
X88571034Y-23003599D01*
X88829014Y-22865706D01*
X89055134Y-22680134D01*
X89240706Y-22454014D01*
X89261285Y-22415514D01*
X89390242Y-22595922D01*
X89600983Y-22793769D01*
X89846273Y-22946701D01*
X89906735Y-22986345D01*
X90127000Y-22897718D01*
X90127000Y-21873000D01*
X90873000Y-21873000D01*
X90873000Y-22897718D01*
X91093265Y-22986345D01*
X91153727Y-22946701D01*
X91399017Y-22793769D01*
X91609758Y-22595922D01*
X91777852Y-22360763D01*
X91896839Y-22097329D01*
X91794780Y-21873000D01*
X90873000Y-21873000D01*
X90127000Y-21873000D01*
X90107000Y-21873000D01*
X90107000Y-21127000D01*
X90127000Y-21127000D01*
X90127000Y-20102282D01*
X90873000Y-20102282D01*
X90873000Y-21127000D01*
X91794780Y-21127000D01*
X91896839Y-20902671D01*
X91777852Y-20639237D01*
X91609758Y-20404078D01*
X91399017Y-20206231D01*
X91153727Y-20053299D01*
X91093265Y-20013655D01*
X90873000Y-20102282D01*
X90127000Y-20102282D01*
X89906735Y-20013655D01*
X89846273Y-20053299D01*
X89600983Y-20206231D01*
X89390242Y-20404078D01*
X89261285Y-20584486D01*
X89240706Y-20545986D01*
X89055134Y-20319866D01*
X88829013Y-20134294D01*
X88571033Y-19996401D01*
X88291110Y-19911487D01*
X88000000Y-19882815D01*
X87708889Y-19911487D01*
X87428966Y-19996401D01*
X87170986Y-20134294D01*
X86944866Y-20319866D01*
X86892777Y-20383337D01*
X86838405Y-20281614D01*
X86727962Y-20147038D01*
X86593386Y-20036595D01*
X86439850Y-19954528D01*
X86273254Y-19903992D01*
X86100000Y-19886928D01*
X84900000Y-19886928D01*
X84726746Y-19903992D01*
X84560150Y-19954528D01*
X84406614Y-20036595D01*
X84272038Y-20147038D01*
X84161595Y-20281614D01*
X84079528Y-20435150D01*
X84028992Y-20601746D01*
X84011928Y-20775000D01*
X81115556Y-20775000D01*
X81122537Y-20766494D01*
X81181502Y-20656180D01*
X81217812Y-20536482D01*
X81230072Y-20412000D01*
X81230072Y-18888000D01*
X81217812Y-18763518D01*
X81181502Y-18643820D01*
X81122537Y-18533506D01*
X81043185Y-18436815D01*
X80946494Y-18357463D01*
X80836180Y-18298498D01*
X80716482Y-18262188D01*
X80592000Y-18249928D01*
X79068000Y-18249928D01*
X78943518Y-18262188D01*
X78823820Y-18298498D01*
X78713506Y-18357463D01*
X78616815Y-18436815D01*
X78537463Y-18533506D01*
X78478498Y-18643820D01*
X78442188Y-18763518D01*
X78429928Y-18888000D01*
X71070072Y-18888000D01*
X71057812Y-18763518D01*
X71021502Y-18643820D01*
X70962537Y-18533506D01*
X70883185Y-18436815D01*
X70786494Y-18357463D01*
X70676180Y-18298498D01*
X70556482Y-18262188D01*
X70432000Y-18249928D01*
X68908000Y-18249928D01*
X68783518Y-18262188D01*
X68663820Y-18298498D01*
X68553506Y-18357463D01*
X68456815Y-18436815D01*
X68377463Y-18533506D01*
X68318498Y-18643820D01*
X68282188Y-18763518D01*
X68269928Y-18888000D01*
X61638644Y-18888000D01*
X61644376Y-18829811D01*
X61694022Y-18666150D01*
X61774638Y-18515328D01*
X61883130Y-18383130D01*
X62015328Y-18274638D01*
X62166150Y-18194022D01*
X62329811Y-18144376D01*
X62506234Y-18127000D01*
X106493766Y-18127000D01*
X106670189Y-18144376D01*
G37*
X106670189Y-18144376D02*
X106833850Y-18194022D01*
X106984672Y-18274638D01*
X107103735Y-18372350D01*
X107051925Y-18350890D01*
X106620128Y-18265000D01*
X106179872Y-18265000D01*
X105748075Y-18350890D01*
X105341331Y-18519369D01*
X104975271Y-18763962D01*
X104663962Y-19075271D01*
X104419369Y-19441331D01*
X104250890Y-19848075D01*
X104165000Y-20279872D01*
X104165000Y-20720128D01*
X104250890Y-21151925D01*
X104419369Y-21558669D01*
X104663962Y-21924729D01*
X104975271Y-22236038D01*
X105341331Y-22480631D01*
X105748075Y-22649110D01*
X106179872Y-22735000D01*
X106620128Y-22735000D01*
X107051925Y-22649110D01*
X107373000Y-22516116D01*
X107373000Y-29705181D01*
X107289510Y-29511583D01*
X107125552Y-29273720D01*
X106918339Y-29072414D01*
X106675835Y-28915402D01*
X106593265Y-28863655D01*
X106373000Y-28952282D01*
X106373000Y-30002000D01*
X106393000Y-30002000D01*
X106393000Y-30748000D01*
X106373000Y-30748000D01*
X106373000Y-31797718D01*
X106593265Y-31886345D01*
X106675835Y-31834598D01*
X106918339Y-31677586D01*
X107125552Y-31476280D01*
X107289510Y-31238417D01*
X107373000Y-31044819D01*
X107373000Y-46993766D01*
X107355624Y-47170189D01*
X107305978Y-47333850D01*
X107225362Y-47484672D01*
X107116870Y-47616870D01*
X106984672Y-47725362D01*
X106833850Y-47805978D01*
X106670189Y-47855624D01*
X106493766Y-47873000D01*
X84143564Y-47873000D01*
X84258005Y-47701727D01*
X84363314Y-47447490D01*
X84417000Y-47177592D01*
X84417000Y-46902408D01*
X84363314Y-46632510D01*
X84258005Y-46378273D01*
X84105120Y-46149465D01*
X83910535Y-45954880D01*
X83681727Y-45801995D01*
X83541234Y-45743801D01*
X83596165Y-45603667D01*
X83020000Y-45027502D01*
X82443835Y-45603667D01*
X82498766Y-45743801D01*
X82358273Y-45801995D01*
X82129465Y-45954880D01*
X81934880Y-46149465D01*
X81781995Y-46378273D01*
X81676686Y-46632510D01*
X81623000Y-46902408D01*
X81623000Y-47177592D01*
X81676686Y-47447490D01*
X81781995Y-47701727D01*
X81896436Y-47873000D01*
X62506234Y-47873000D01*
X62329811Y-47855624D01*
X62166150Y-47805978D01*
X62015328Y-47725362D01*
X61883130Y-47616870D01*
X61774638Y-47484672D01*
X61694022Y-47333850D01*
X61644376Y-47170189D01*
X61627000Y-46993766D01*
X61627000Y-46000000D01*
X71111928Y-46000000D01*
X71124188Y-46124482D01*
X71160498Y-46244180D01*
X71219463Y-46354494D01*
X71298815Y-46451185D01*
X71395506Y-46530537D01*
X71505820Y-46589502D01*
X71625518Y-46625812D01*
X71750000Y-46638072D01*
X72968250Y-46635000D01*
X73127000Y-46476250D01*
X73127000Y-44873000D01*
X73873000Y-44873000D01*
X73873000Y-46476250D01*
X74031750Y-46635000D01*
X75250000Y-46638072D01*
X75374482Y-46625812D01*
X75494180Y-46589502D01*
X75604494Y-46530537D01*
X75701185Y-46451185D01*
X75780537Y-46354494D01*
X75839502Y-46244180D01*
X75875812Y-46124482D01*
X75888072Y-46000000D01*
X75885000Y-45031750D01*
X75726250Y-44873000D01*
X73873000Y-44873000D01*
X73127000Y-44873000D01*
X71273750Y-44873000D01*
X71115000Y-45031750D01*
X71111928Y-46000000D01*
X61627000Y-46000000D01*
X61627000Y-44030000D01*
X63468057Y-44030000D01*
X63495764Y-44311309D01*
X63577818Y-44581808D01*
X63711068Y-44831101D01*
X63890392Y-45049608D01*
X64108899Y-45228932D01*
X64358192Y-45362182D01*
X64628691Y-45444236D01*
X64839508Y-45465000D01*
X65380492Y-45465000D01*
X65591309Y-45444236D01*
X65861808Y-45362182D01*
X66111101Y-45228932D01*
X66329608Y-45049608D01*
X66508932Y-44831101D01*
X66642182Y-44581808D01*
X66652809Y-44546773D01*
X81617020Y-44546773D01*
X81653103Y-44819583D01*
X81705916Y-44993684D01*
X81916333Y-45076165D01*
X82492498Y-44500000D01*
X83547502Y-44500000D01*
X84123667Y-45076165D01*
X84334084Y-44993684D01*
X84405147Y-44727833D01*
X84422980Y-44453227D01*
X84386897Y-44180417D01*
X84334084Y-44006316D01*
X84123667Y-43923835D01*
X83547502Y-44500000D01*
X82492498Y-44500000D01*
X81916333Y-43923835D01*
X81705916Y-44006316D01*
X81634853Y-44272167D01*
X81617020Y-44546773D01*
X66652809Y-44546773D01*
X66724236Y-44311309D01*
X66751943Y-44030000D01*
X66724236Y-43748691D01*
X66642182Y-43478192D01*
X66508932Y-43228899D01*
X66329608Y-43010392D01*
X66316946Y-43000000D01*
X71111928Y-43000000D01*
X71115000Y-43968250D01*
X71273750Y-44127000D01*
X73127000Y-44127000D01*
X73127000Y-42523750D01*
X73873000Y-42523750D01*
X73873000Y-44127000D01*
X75726250Y-44127000D01*
X75885000Y-43968250D01*
X75888072Y-43000000D01*
X75875812Y-42875518D01*
X75839502Y-42755820D01*
X75780537Y-42645506D01*
X75701185Y-42548815D01*
X75604494Y-42469463D01*
X75494180Y-42410498D01*
X75374482Y-42374188D01*
X75250000Y-42361928D01*
X74031750Y-42365000D01*
X73873000Y-42523750D01*
X73127000Y-42523750D01*
X72968250Y-42365000D01*
X71750000Y-42361928D01*
X71625518Y-42374188D01*
X71505820Y-42410498D01*
X71395506Y-42469463D01*
X71298815Y-42548815D01*
X71219463Y-42645506D01*
X71160498Y-42755820D01*
X71124188Y-42875518D01*
X71111928Y-43000000D01*
X66316946Y-43000000D01*
X66111101Y-42831068D01*
X65964750Y-42752841D01*
X66195454Y-42603829D01*
X66395738Y-42409684D01*
X66554297Y-42180196D01*
X66620265Y-42075175D01*
X66530527Y-41863000D01*
X65483000Y-41863000D01*
X65483000Y-41883000D01*
X64737000Y-41883000D01*
X64737000Y-41863000D01*
X63689473Y-41863000D01*
X63599735Y-42075175D01*
X63665703Y-42180196D01*
X63824262Y-42409684D01*
X64024546Y-42603829D01*
X64255250Y-42752841D01*
X64108899Y-42831068D01*
X63890392Y-43010392D01*
X63711068Y-43228899D01*
X63577818Y-43478192D01*
X63495764Y-43748691D01*
X63468057Y-44030000D01*
X61627000Y-44030000D01*
X61627000Y-26250000D01*
X63468057Y-26250000D01*
X63495764Y-26531309D01*
X63577818Y-26801808D01*
X63711068Y-27051101D01*
X63890392Y-27269608D01*
X64108899Y-27448932D01*
X64241858Y-27520000D01*
X64108899Y-27591068D01*
X63890392Y-27770392D01*
X63711068Y-27988899D01*
X63577818Y-28238192D01*
X63495764Y-28508691D01*
X63468057Y-28790000D01*
X63495764Y-29071309D01*
X63577818Y-29341808D01*
X63711068Y-29591101D01*
X63890392Y-29809608D01*
X64108899Y-29988932D01*
X64241858Y-30060000D01*
X64108899Y-30131068D01*
X63890392Y-30310392D01*
X63711068Y-30528899D01*
X63577818Y-30778192D01*
X63495764Y-31048691D01*
X63468057Y-31330000D01*
X63495764Y-31611309D01*
X63577818Y-31881808D01*
X63711068Y-32131101D01*
X63890392Y-32349608D01*
X64108899Y-32528932D01*
X64241858Y-32600000D01*
X64108899Y-32671068D01*
X63890392Y-32850392D01*
X63711068Y-33068899D01*
X63577818Y-33318192D01*
X63495764Y-33588691D01*
X63468057Y-33870000D01*
X63495764Y-34151309D01*
X63577818Y-34421808D01*
X63711068Y-34671101D01*
X63890392Y-34889608D01*
X64108899Y-35068932D01*
X64241858Y-35140000D01*
X64108899Y-35211068D01*
X63890392Y-35390392D01*
X63711068Y-35608899D01*
X63577818Y-35858192D01*
X63495764Y-36128691D01*
X63468057Y-36410000D01*
X63495764Y-36691309D01*
X63577818Y-36961808D01*
X63711068Y-37211101D01*
X63890392Y-37429608D01*
X64108899Y-37608932D01*
X64241858Y-37680000D01*
X64108899Y-37751068D01*
X63890392Y-37930392D01*
X63711068Y-38148899D01*
X63577818Y-38398192D01*
X63495764Y-38668691D01*
X63468057Y-38950000D01*
X63495764Y-39231309D01*
X63577818Y-39501808D01*
X63711068Y-39751101D01*
X63890392Y-39969608D01*
X64108899Y-40148932D01*
X64255250Y-40227159D01*
X64024546Y-40376171D01*
X63824262Y-40570316D01*
X63665703Y-40799804D01*
X63599735Y-40904825D01*
X63689473Y-41117000D01*
X64737000Y-41117000D01*
X64737000Y-41097000D01*
X65483000Y-41097000D01*
X65483000Y-41117000D01*
X66530527Y-41117000D01*
X66620265Y-40904825D01*
X66554297Y-40799804D01*
X66395738Y-40570316D01*
X66195454Y-40376171D01*
X65964750Y-40227159D01*
X66111101Y-40148932D01*
X66329608Y-39969608D01*
X66508932Y-39751101D01*
X66642182Y-39501808D01*
X66724236Y-39231309D01*
X66751943Y-38950000D01*
X66724236Y-38668691D01*
X66642182Y-38398192D01*
X66508932Y-38148899D01*
X66329608Y-37930392D01*
X66111101Y-37751068D01*
X65978142Y-37680000D01*
X66111101Y-37608932D01*
X66329608Y-37429608D01*
X66508932Y-37211101D01*
X66642182Y-36961808D01*
X66706432Y-36750000D01*
X71111928Y-36750000D01*
X71111928Y-40250000D01*
X71124188Y-40374482D01*
X71160498Y-40494180D01*
X71219463Y-40604494D01*
X71298815Y-40701185D01*
X71395506Y-40780537D01*
X71505820Y-40839502D01*
X71625518Y-40875812D01*
X71750000Y-40888072D01*
X75250000Y-40888072D01*
X75374482Y-40875812D01*
X75494180Y-40839502D01*
X75604494Y-40780537D01*
X75701185Y-40701185D01*
X75780537Y-40604494D01*
X75821494Y-40527869D01*
X75811928Y-40625000D01*
X75811928Y-42375000D01*
X75841001Y-42670186D01*
X75927104Y-42954028D01*
X76066927Y-43215618D01*
X76255097Y-43444903D01*
X76484382Y-43633073D01*
X76745972Y-43772896D01*
X77029814Y-43858999D01*
X77325000Y-43888072D01*
X79075000Y-43888072D01*
X79370186Y-43858999D01*
X79654028Y-43772896D01*
X79915618Y-43633073D01*
X80144903Y-43444903D01*
X80333073Y-43215618D01*
X80472896Y-42954028D01*
X80558999Y-42670186D01*
X80588072Y-42375000D01*
X80588072Y-41822408D01*
X81623000Y-41822408D01*
X81623000Y-42097592D01*
X81676686Y-42367490D01*
X81781995Y-42621727D01*
X81934880Y-42850535D01*
X82129465Y-43045120D01*
X82358273Y-43198005D01*
X82498766Y-43256199D01*
X82443835Y-43396333D01*
X83020000Y-43972498D01*
X83596165Y-43396333D01*
X83541234Y-43256199D01*
X83681727Y-43198005D01*
X83910535Y-43045120D01*
X84105120Y-42850535D01*
X84258005Y-42621727D01*
X84342271Y-42418290D01*
X84730497Y-42418290D01*
X84730497Y-42845644D01*
X84813870Y-43264788D01*
X84977412Y-43659612D01*
X85214837Y-44014944D01*
X85517023Y-44317130D01*
X85872355Y-44554555D01*
X86267179Y-44718097D01*
X86686323Y-44801470D01*
X87113677Y-44801470D01*
X87532821Y-44718097D01*
X87927645Y-44554555D01*
X88282977Y-44317130D01*
X88585163Y-44014944D01*
X88822588Y-43659612D01*
X88986130Y-43264788D01*
X89069503Y-42845644D01*
X89069503Y-42418290D01*
X88986130Y-41999146D01*
X88822588Y-41604322D01*
X88585163Y-41248990D01*
X88282977Y-40946804D01*
X87927645Y-40709379D01*
X87532821Y-40545837D01*
X87113677Y-40462464D01*
X86686323Y-40462464D01*
X86267179Y-40545837D01*
X85872355Y-40709379D01*
X85517023Y-40946804D01*
X85214837Y-41248990D01*
X84977412Y-41604322D01*
X84813870Y-41999146D01*
X84730497Y-42418290D01*
X84342271Y-42418290D01*
X84363314Y-42367490D01*
X84417000Y-42097592D01*
X84417000Y-41822408D01*
X84363314Y-41552510D01*
X84258005Y-41298273D01*
X84105120Y-41069465D01*
X83910535Y-40874880D01*
X83681727Y-40721995D01*
X83427490Y-40616686D01*
X83157592Y-40563000D01*
X82882408Y-40563000D01*
X82612510Y-40616686D01*
X82358273Y-40721995D01*
X82129465Y-40874880D01*
X81934880Y-41069465D01*
X81781995Y-41298273D01*
X81676686Y-41552510D01*
X81623000Y-41822408D01*
X80588072Y-41822408D01*
X80588072Y-40625000D01*
X80558999Y-40329814D01*
X80472896Y-40045972D01*
X80333073Y-39784382D01*
X80144903Y-39555097D01*
X79915618Y-39366927D01*
X79654028Y-39227104D01*
X79370186Y-39141001D01*
X79075000Y-39111928D01*
X77325000Y-39111928D01*
X77029814Y-39141001D01*
X76745972Y-39227104D01*
X76484382Y-39366927D01*
X76255097Y-39555097D01*
X76066927Y-39784382D01*
X75927104Y-40045972D01*
X75888072Y-40174643D01*
X75888072Y-36750000D01*
X75875812Y-36625518D01*
X75839502Y-36505820D01*
X75780537Y-36395506D01*
X75701185Y-36298815D01*
X75604494Y-36219463D01*
X75494180Y-36160498D01*
X75374482Y-36124188D01*
X75250000Y-36111928D01*
X71750000Y-36111928D01*
X71625518Y-36124188D01*
X71505820Y-36160498D01*
X71395506Y-36219463D01*
X71298815Y-36298815D01*
X71219463Y-36395506D01*
X71160498Y-36505820D01*
X71124188Y-36625518D01*
X71111928Y-36750000D01*
X66706432Y-36750000D01*
X66724236Y-36691309D01*
X66751943Y-36410000D01*
X66724236Y-36128691D01*
X66642182Y-35858192D01*
X66508932Y-35608899D01*
X66329608Y-35390392D01*
X66111101Y-35211068D01*
X65978142Y-35140000D01*
X66111101Y-35068932D01*
X66329608Y-34889608D01*
X66508932Y-34671101D01*
X66642182Y-34421808D01*
X66724236Y-34151309D01*
X66751943Y-33870000D01*
X66724236Y-33588691D01*
X66642182Y-33318192D01*
X66508932Y-33068899D01*
X66329608Y-32850392D01*
X66111101Y-32671068D01*
X65978142Y-32600000D01*
X66111101Y-32528932D01*
X66329608Y-32349608D01*
X66508932Y-32131101D01*
X66642182Y-31881808D01*
X66724236Y-31611309D01*
X66751943Y-31330000D01*
X66724236Y-31048691D01*
X66642182Y-30778192D01*
X66508932Y-30528899D01*
X66329608Y-30310392D01*
X66111101Y-30131068D01*
X65978142Y-30060000D01*
X66111101Y-29988932D01*
X66329608Y-29809608D01*
X66442205Y-29672408D01*
X68273000Y-29672408D01*
X68273000Y-29947592D01*
X68326686Y-30217490D01*
X68431995Y-30471727D01*
X68584880Y-30700535D01*
X68779465Y-30895120D01*
X69008273Y-31048005D01*
X69085515Y-31080000D01*
X69008273Y-31111995D01*
X68779465Y-31264880D01*
X68584880Y-31459465D01*
X68431995Y-31688273D01*
X68326686Y-31942510D01*
X68273000Y-32212408D01*
X68273000Y-32487592D01*
X68326686Y-32757490D01*
X68431995Y-33011727D01*
X68584880Y-33240535D01*
X68779465Y-33435120D01*
X69008273Y-33588005D01*
X69262510Y-33693314D01*
X69532408Y-33747000D01*
X69807592Y-33747000D01*
X70077490Y-33693314D01*
X70331727Y-33588005D01*
X70560535Y-33435120D01*
X70755120Y-33240535D01*
X70908005Y-33011727D01*
X71013314Y-32757490D01*
X71067000Y-32487592D01*
X71067000Y-32212408D01*
X71013314Y-31942510D01*
X70908005Y-31688273D01*
X70755120Y-31459465D01*
X70560535Y-31264880D01*
X70331727Y-31111995D01*
X70254485Y-31080000D01*
X70331727Y-31048005D01*
X70560535Y-30895120D01*
X70755120Y-30700535D01*
X70908005Y-30471727D01*
X71013314Y-30217490D01*
X71067000Y-29947592D01*
X71067000Y-29672408D01*
X78433000Y-29672408D01*
X78433000Y-29947592D01*
X78486686Y-30217490D01*
X78591995Y-30471727D01*
X78744880Y-30700535D01*
X78939465Y-30895120D01*
X79168273Y-31048005D01*
X79245515Y-31080000D01*
X79168273Y-31111995D01*
X78939465Y-31264880D01*
X78744880Y-31459465D01*
X78591995Y-31688273D01*
X78486686Y-31942510D01*
X78433000Y-32212408D01*
X78433000Y-32487592D01*
X78486686Y-32757490D01*
X78591995Y-33011727D01*
X78744880Y-33240535D01*
X78939465Y-33435120D01*
X79168273Y-33588005D01*
X79422510Y-33693314D01*
X79692408Y-33747000D01*
X79967592Y-33747000D01*
X80237490Y-33693314D01*
X80491727Y-33588005D01*
X80720535Y-33435120D01*
X80915120Y-33240535D01*
X81068005Y-33011727D01*
X81173314Y-32757490D01*
X81227000Y-32487592D01*
X81227000Y-32212408D01*
X81173314Y-31942510D01*
X81068005Y-31688273D01*
X80915120Y-31459465D01*
X80720535Y-31264880D01*
X80491727Y-31111995D01*
X80414485Y-31080000D01*
X80491727Y-31048005D01*
X80720535Y-30895120D01*
X80915120Y-30700535D01*
X81068005Y-30471727D01*
X81173314Y-30217490D01*
X81227000Y-29947592D01*
X81227000Y-29672408D01*
X81217570Y-29625000D01*
X84011928Y-29625000D01*
X84011928Y-31125000D01*
X84028992Y-31298254D01*
X84079528Y-31464850D01*
X84161595Y-31618386D01*
X84272038Y-31752962D01*
X84406614Y-31863405D01*
X84560150Y-31945472D01*
X84726746Y-31996008D01*
X84900000Y-32013072D01*
X86100000Y-32013072D01*
X86273254Y-31996008D01*
X86439850Y-31945472D01*
X86593386Y-31863405D01*
X86727962Y-31752962D01*
X86838405Y-31618386D01*
X86900720Y-31501803D01*
X87081661Y-31677586D01*
X87324165Y-31834598D01*
X87406735Y-31886345D01*
X87627000Y-31797718D01*
X87627000Y-30748000D01*
X88373000Y-30748000D01*
X88373000Y-31797718D01*
X88593265Y-31886345D01*
X88675835Y-31834598D01*
X88918339Y-31677586D01*
X89125552Y-31476280D01*
X89289510Y-31238417D01*
X89403913Y-30973138D01*
X89297983Y-30748000D01*
X88373000Y-30748000D01*
X87627000Y-30748000D01*
X87607000Y-30748000D01*
X87607000Y-30002000D01*
X87627000Y-30002000D01*
X87627000Y-28952282D01*
X88373000Y-28952282D01*
X88373000Y-30002000D01*
X89297983Y-30002000D01*
X89403913Y-29776862D01*
X89338422Y-29625000D01*
X93011928Y-29625000D01*
X93011928Y-31125000D01*
X93028992Y-31298254D01*
X93079528Y-31464850D01*
X93161595Y-31618386D01*
X93272038Y-31752962D01*
X93406614Y-31863405D01*
X93560150Y-31945472D01*
X93726746Y-31996008D01*
X93900000Y-32013072D01*
X95100000Y-32013072D01*
X95273254Y-31996008D01*
X95439850Y-31945472D01*
X95593386Y-31863405D01*
X95727962Y-31752962D01*
X95838405Y-31618386D01*
X95900720Y-31501803D01*
X96081661Y-31677586D01*
X96324165Y-31834598D01*
X96406735Y-31886345D01*
X96627000Y-31797718D01*
X96627000Y-30748000D01*
X97373000Y-30748000D01*
X97373000Y-31797718D01*
X97593265Y-31886345D01*
X97675835Y-31834598D01*
X97918339Y-31677586D01*
X98125552Y-31476280D01*
X98289510Y-31238417D01*
X98403913Y-30973138D01*
X98297983Y-30748000D01*
X97373000Y-30748000D01*
X96627000Y-30748000D01*
X96607000Y-30748000D01*
X96607000Y-30002000D01*
X96627000Y-30002000D01*
X96627000Y-28952282D01*
X97373000Y-28952282D01*
X97373000Y-30002000D01*
X98297983Y-30002000D01*
X98403913Y-29776862D01*
X98338422Y-29625000D01*
X102011928Y-29625000D01*
X102011928Y-31125000D01*
X102028992Y-31298254D01*
X102079528Y-31464850D01*
X102161595Y-31618386D01*
X102272038Y-31752962D01*
X102406614Y-31863405D01*
X102560150Y-31945472D01*
X102726746Y-31996008D01*
X102900000Y-32013072D01*
X104100000Y-32013072D01*
X104273254Y-31996008D01*
X104439850Y-31945472D01*
X104593386Y-31863405D01*
X104727962Y-31752962D01*
X104838405Y-31618386D01*
X104900720Y-31501803D01*
X105081661Y-31677586D01*
X105324165Y-31834598D01*
X105406735Y-31886345D01*
X105627000Y-31797718D01*
X105627000Y-30748000D01*
X105607000Y-30748000D01*
X105607000Y-30002000D01*
X105627000Y-30002000D01*
X105627000Y-28952282D01*
X105406735Y-28863655D01*
X105324165Y-28915402D01*
X105081661Y-29072414D01*
X104900720Y-29248197D01*
X104838405Y-29131614D01*
X104727962Y-28997038D01*
X104593386Y-28886595D01*
X104439850Y-28804528D01*
X104273254Y-28753992D01*
X104100000Y-28736928D01*
X102900000Y-28736928D01*
X102726746Y-28753992D01*
X102560150Y-28804528D01*
X102406614Y-28886595D01*
X102272038Y-28997038D01*
X102161595Y-29131614D01*
X102079528Y-29285150D01*
X102028992Y-29451746D01*
X102011928Y-29625000D01*
X98338422Y-29625000D01*
X98289510Y-29511583D01*
X98125552Y-29273720D01*
X97918339Y-29072414D01*
X97675835Y-28915402D01*
X97593265Y-28863655D01*
X97373000Y-28952282D01*
X96627000Y-28952282D01*
X96406735Y-28863655D01*
X96324165Y-28915402D01*
X96081661Y-29072414D01*
X95900720Y-29248197D01*
X95838405Y-29131614D01*
X95727962Y-28997038D01*
X95593386Y-28886595D01*
X95439850Y-28804528D01*
X95273254Y-28753992D01*
X95100000Y-28736928D01*
X93900000Y-28736928D01*
X93726746Y-28753992D01*
X93560150Y-28804528D01*
X93406614Y-28886595D01*
X93272038Y-28997038D01*
X93161595Y-29131614D01*
X93079528Y-29285150D01*
X93028992Y-29451746D01*
X93011928Y-29625000D01*
X89338422Y-29625000D01*
X89289510Y-29511583D01*
X89125552Y-29273720D01*
X88918339Y-29072414D01*
X88675835Y-28915402D01*
X88593265Y-28863655D01*
X88373000Y-28952282D01*
X87627000Y-28952282D01*
X87406735Y-28863655D01*
X87324165Y-28915402D01*
X87081661Y-29072414D01*
X86900720Y-29248197D01*
X86838405Y-29131614D01*
X86727962Y-28997038D01*
X86593386Y-28886595D01*
X86439850Y-28804528D01*
X86273254Y-28753992D01*
X86100000Y-28736928D01*
X84900000Y-28736928D01*
X84726746Y-28753992D01*
X84560150Y-28804528D01*
X84406614Y-28886595D01*
X84272038Y-28997038D01*
X84161595Y-29131614D01*
X84079528Y-29285150D01*
X84028992Y-29451746D01*
X84011928Y-29625000D01*
X81217570Y-29625000D01*
X81173314Y-29402510D01*
X81068005Y-29148273D01*
X80915120Y-28919465D01*
X80720535Y-28724880D01*
X80491727Y-28571995D01*
X80351234Y-28513801D01*
X80406165Y-28373667D01*
X79830000Y-27797502D01*
X79253835Y-28373667D01*
X79308766Y-28513801D01*
X79168273Y-28571995D01*
X78939465Y-28724880D01*
X78744880Y-28919465D01*
X78591995Y-29148273D01*
X78486686Y-29402510D01*
X78433000Y-29672408D01*
X71067000Y-29672408D01*
X71013314Y-29402510D01*
X70908005Y-29148273D01*
X70755120Y-28919465D01*
X70560535Y-28724880D01*
X70331727Y-28571995D01*
X70191234Y-28513801D01*
X70246165Y-28373667D01*
X69670000Y-27797502D01*
X69093835Y-28373667D01*
X69148766Y-28513801D01*
X69008273Y-28571995D01*
X68779465Y-28724880D01*
X68584880Y-28919465D01*
X68431995Y-29148273D01*
X68326686Y-29402510D01*
X68273000Y-29672408D01*
X66442205Y-29672408D01*
X66508932Y-29591101D01*
X66642182Y-29341808D01*
X66724236Y-29071309D01*
X66751943Y-28790000D01*
X66724236Y-28508691D01*
X66642182Y-28238192D01*
X66508932Y-27988899D01*
X66329608Y-27770392D01*
X66111101Y-27591068D01*
X65978142Y-27520000D01*
X66111101Y-27448932D01*
X66272137Y-27316773D01*
X68267020Y-27316773D01*
X68303103Y-27589583D01*
X68355916Y-27763684D01*
X68566333Y-27846165D01*
X69142498Y-27270000D01*
X70197502Y-27270000D01*
X70773667Y-27846165D01*
X70984084Y-27763684D01*
X71055147Y-27497833D01*
X71066905Y-27316773D01*
X78427020Y-27316773D01*
X78463103Y-27589583D01*
X78515916Y-27763684D01*
X78726333Y-27846165D01*
X79302498Y-27270000D01*
X80357502Y-27270000D01*
X80933667Y-27846165D01*
X81144084Y-27763684D01*
X81215147Y-27497833D01*
X81232980Y-27223227D01*
X81196897Y-26950417D01*
X81144084Y-26776316D01*
X80933667Y-26693835D01*
X80357502Y-27270000D01*
X79302498Y-27270000D01*
X78726333Y-26693835D01*
X78515916Y-26776316D01*
X78444853Y-27042167D01*
X78427020Y-27316773D01*
X71066905Y-27316773D01*
X71072980Y-27223227D01*
X71036897Y-26950417D01*
X70984084Y-26776316D01*
X70773667Y-26693835D01*
X70197502Y-27270000D01*
X69142498Y-27270000D01*
X68566333Y-26693835D01*
X68355916Y-26776316D01*
X68284853Y-27042167D01*
X68267020Y-27316773D01*
X66272137Y-27316773D01*
X66329608Y-27269608D01*
X66508932Y-27051101D01*
X66642182Y-26801808D01*
X66724236Y-26531309D01*
X66751943Y-26250000D01*
X66724236Y-25968691D01*
X66642182Y-25698192D01*
X66508932Y-25448899D01*
X66329608Y-25230392D01*
X66111101Y-25051068D01*
X65861808Y-24917818D01*
X65591309Y-24835764D01*
X65380492Y-24815000D01*
X64839508Y-24815000D01*
X64628691Y-24835764D01*
X64358192Y-24917818D01*
X64108899Y-25051068D01*
X63890392Y-25230392D01*
X63711068Y-25448899D01*
X63577818Y-25698192D01*
X63495764Y-25968691D01*
X63468057Y-26250000D01*
X61627000Y-26250000D01*
X61627000Y-19006234D01*
X61638644Y-18888000D01*
X68269928Y-18888000D01*
X68269928Y-20412000D01*
X68282188Y-20536482D01*
X68318498Y-20656180D01*
X68377463Y-20766494D01*
X68456815Y-20863185D01*
X68553506Y-20942537D01*
X68663820Y-21001502D01*
X68783518Y-21037812D01*
X68867465Y-21046080D01*
X68779465Y-21104880D01*
X68584880Y-21299465D01*
X68431995Y-21528273D01*
X68326686Y-21782510D01*
X68273000Y-22052408D01*
X68273000Y-22327592D01*
X68326686Y-22597490D01*
X68431995Y-22851727D01*
X68584880Y-23080535D01*
X68779465Y-23275120D01*
X69008273Y-23428005D01*
X69085515Y-23460000D01*
X69008273Y-23491995D01*
X68779465Y-23644880D01*
X68584880Y-23839465D01*
X68431995Y-24068273D01*
X68326686Y-24322510D01*
X68273000Y-24592408D01*
X68273000Y-24867592D01*
X68326686Y-25137490D01*
X68431995Y-25391727D01*
X68584880Y-25620535D01*
X68779465Y-25815120D01*
X69008273Y-25968005D01*
X69148766Y-26026199D01*
X69093835Y-26166333D01*
X69670000Y-26742498D01*
X70246165Y-26166333D01*
X70191234Y-26026199D01*
X70331727Y-25968005D01*
X70560535Y-25815120D01*
X70755120Y-25620535D01*
X70908005Y-25391727D01*
X71013314Y-25137490D01*
X71067000Y-24867592D01*
X71067000Y-24592408D01*
X71013314Y-24322510D01*
X70908005Y-24068273D01*
X70755120Y-23839465D01*
X70560535Y-23644880D01*
X70331727Y-23491995D01*
X70254485Y-23460000D01*
X70331727Y-23428005D01*
X70560535Y-23275120D01*
X70755120Y-23080535D01*
X70908005Y-22851727D01*
X71013314Y-22597490D01*
X71067000Y-22327592D01*
X71067000Y-22052408D01*
X71013314Y-21782510D01*
X70908005Y-21528273D01*
X70755120Y-21299465D01*
X70560535Y-21104880D01*
X70472535Y-21046080D01*
X70556482Y-21037812D01*
X70676180Y-21001502D01*
X70786494Y-20942537D01*
X70883185Y-20863185D01*
X70962537Y-20766494D01*
X71021502Y-20656180D01*
X71057812Y-20536482D01*
X71070072Y-20412000D01*
X71070072Y-18888000D01*
X78429928Y-18888000D01*
X78429928Y-20412000D01*
X78442188Y-20536482D01*
X78478498Y-20656180D01*
X78537463Y-20766494D01*
X78616815Y-20863185D01*
X78713506Y-20942537D01*
X78823820Y-21001502D01*
X78943518Y-21037812D01*
X79027465Y-21046080D01*
X78939465Y-21104880D01*
X78744880Y-21299465D01*
X78591995Y-21528273D01*
X78486686Y-21782510D01*
X78433000Y-22052408D01*
X78433000Y-22327592D01*
X78486686Y-22597490D01*
X78591995Y-22851727D01*
X78744880Y-23080535D01*
X78939465Y-23275120D01*
X79168273Y-23428005D01*
X79245515Y-23460000D01*
X79168273Y-23491995D01*
X78939465Y-23644880D01*
X78744880Y-23839465D01*
X78591995Y-24068273D01*
X78486686Y-24322510D01*
X78433000Y-24592408D01*
X78433000Y-24867592D01*
X78486686Y-25137490D01*
X78591995Y-25391727D01*
X78744880Y-25620535D01*
X78939465Y-25815120D01*
X79168273Y-25968005D01*
X79308766Y-26026199D01*
X79253835Y-26166333D01*
X79830000Y-26742498D01*
X80406165Y-26166333D01*
X80351234Y-26026199D01*
X80491727Y-25968005D01*
X80720535Y-25815120D01*
X80915120Y-25620535D01*
X81068005Y-25391727D01*
X81173314Y-25137490D01*
X81227000Y-24867592D01*
X81227000Y-24592408D01*
X81173314Y-24322510D01*
X81068005Y-24068273D01*
X80915120Y-23839465D01*
X80720535Y-23644880D01*
X80491727Y-23491995D01*
X80414485Y-23460000D01*
X80491727Y-23428005D01*
X80720535Y-23275120D01*
X80915120Y-23080535D01*
X81068005Y-22851727D01*
X81173314Y-22597490D01*
X81227000Y-22327592D01*
X81227000Y-22052408D01*
X81173314Y-21782510D01*
X81068005Y-21528273D01*
X80915120Y-21299465D01*
X80720535Y-21104880D01*
X80632535Y-21046080D01*
X80716482Y-21037812D01*
X80836180Y-21001502D01*
X80946494Y-20942537D01*
X81043185Y-20863185D01*
X81115556Y-20775000D01*
X84011928Y-20775000D01*
X84011928Y-22225000D01*
X84028992Y-22398254D01*
X84079528Y-22564850D01*
X84161595Y-22718386D01*
X84272038Y-22852962D01*
X84406614Y-22963405D01*
X84560150Y-23045472D01*
X84726746Y-23096008D01*
X84900000Y-23113072D01*
X86100000Y-23113072D01*
X86273254Y-23096008D01*
X86439850Y-23045472D01*
X86593386Y-22963405D01*
X86727962Y-22852962D01*
X86838405Y-22718386D01*
X86892777Y-22616663D01*
X86944866Y-22680134D01*
X87170987Y-22865706D01*
X87428967Y-23003599D01*
X87708890Y-23088513D01*
X88000000Y-23117185D01*
X88291111Y-23088513D01*
X88571034Y-23003599D01*
X88829014Y-22865706D01*
X89055134Y-22680134D01*
X89240706Y-22454014D01*
X89261285Y-22415514D01*
X89390242Y-22595922D01*
X89600983Y-22793769D01*
X89846273Y-22946701D01*
X89906735Y-22986345D01*
X90127000Y-22897718D01*
X90127000Y-21873000D01*
X90873000Y-21873000D01*
X90873000Y-22897718D01*
X91093265Y-22986345D01*
X91153727Y-22946701D01*
X91399017Y-22793769D01*
X91609758Y-22595922D01*
X91777852Y-22360763D01*
X91896839Y-22097329D01*
X91794780Y-21873000D01*
X90873000Y-21873000D01*
X90127000Y-21873000D01*
X90107000Y-21873000D01*
X90107000Y-21127000D01*
X90127000Y-21127000D01*
X90127000Y-20102282D01*
X90873000Y-20102282D01*
X90873000Y-21127000D01*
X91794780Y-21127000D01*
X91896839Y-20902671D01*
X91777852Y-20639237D01*
X91609758Y-20404078D01*
X91399017Y-20206231D01*
X91153727Y-20053299D01*
X91093265Y-20013655D01*
X90873000Y-20102282D01*
X90127000Y-20102282D01*
X89906735Y-20013655D01*
X89846273Y-20053299D01*
X89600983Y-20206231D01*
X89390242Y-20404078D01*
X89261285Y-20584486D01*
X89240706Y-20545986D01*
X89055134Y-20319866D01*
X88829013Y-20134294D01*
X88571033Y-19996401D01*
X88291110Y-19911487D01*
X88000000Y-19882815D01*
X87708889Y-19911487D01*
X87428966Y-19996401D01*
X87170986Y-20134294D01*
X86944866Y-20319866D01*
X86892777Y-20383337D01*
X86838405Y-20281614D01*
X86727962Y-20147038D01*
X86593386Y-20036595D01*
X86439850Y-19954528D01*
X86273254Y-19903992D01*
X86100000Y-19886928D01*
X84900000Y-19886928D01*
X84726746Y-19903992D01*
X84560150Y-19954528D01*
X84406614Y-20036595D01*
X84272038Y-20147038D01*
X84161595Y-20281614D01*
X84079528Y-20435150D01*
X84028992Y-20601746D01*
X84011928Y-20775000D01*
X81115556Y-20775000D01*
X81122537Y-20766494D01*
X81181502Y-20656180D01*
X81217812Y-20536482D01*
X81230072Y-20412000D01*
X81230072Y-18888000D01*
X81217812Y-18763518D01*
X81181502Y-18643820D01*
X81122537Y-18533506D01*
X81043185Y-18436815D01*
X80946494Y-18357463D01*
X80836180Y-18298498D01*
X80716482Y-18262188D01*
X80592000Y-18249928D01*
X79068000Y-18249928D01*
X78943518Y-18262188D01*
X78823820Y-18298498D01*
X78713506Y-18357463D01*
X78616815Y-18436815D01*
X78537463Y-18533506D01*
X78478498Y-18643820D01*
X78442188Y-18763518D01*
X78429928Y-18888000D01*
X71070072Y-18888000D01*
X71057812Y-18763518D01*
X71021502Y-18643820D01*
X70962537Y-18533506D01*
X70883185Y-18436815D01*
X70786494Y-18357463D01*
X70676180Y-18298498D01*
X70556482Y-18262188D01*
X70432000Y-18249928D01*
X68908000Y-18249928D01*
X68783518Y-18262188D01*
X68663820Y-18298498D01*
X68553506Y-18357463D01*
X68456815Y-18436815D01*
X68377463Y-18533506D01*
X68318498Y-18643820D01*
X68282188Y-18763518D01*
X68269928Y-18888000D01*
X61638644Y-18888000D01*
X61644376Y-18829811D01*
X61694022Y-18666150D01*
X61774638Y-18515328D01*
X61883130Y-18383130D01*
X62015328Y-18274638D01*
X62166150Y-18194022D01*
X62329811Y-18144376D01*
X62506234Y-18127000D01*
X106493766Y-18127000D01*
X106670189Y-18144376D01*
M02*
