G04 #@! TF.GenerationSoftware,KiCad,Pcbnew,(5.1.5)-3*
G04 #@! TF.CreationDate,2021-02-16T20:40:51+01:00*
G04 #@! TF.ProjectId,Nanoleafs,4e616e6f-6c65-4616-9673-2e6b69636164,rev?*
G04 #@! TF.SameCoordinates,Original*
G04 #@! TF.FileFunction,Legend,Top*
G04 #@! TF.FilePolarity,Positive*
%FSLAX46Y46*%
G04 Gerber Fmt 4.6, Leading zero omitted, Abs format (unit mm)*
G04 Created by KiCad (PCBNEW (5.1.5)-3) date 2021-02-16 20:40:51*
%MOMM*%
%LPD*%
G04 APERTURE LIST*
%ADD10C,0.150000*%
%ADD11C,0.120000*%
%ADD12C,0.127000*%
%ADD13C,0.015000*%
G04 APERTURE END LIST*
D10*
X105238095Y-34500000D02*
X105142857Y-34452380D01*
X105000000Y-34452380D01*
X104857142Y-34500000D01*
X104761904Y-34595238D01*
X104714285Y-34690476D01*
X104666666Y-34880952D01*
X104666666Y-35023809D01*
X104714285Y-35214285D01*
X104761904Y-35309523D01*
X104857142Y-35404761D01*
X105000000Y-35452380D01*
X105095238Y-35452380D01*
X105238095Y-35404761D01*
X105285714Y-35357142D01*
X105285714Y-35023809D01*
X105095238Y-35023809D01*
X105714285Y-35452380D02*
X105714285Y-34452380D01*
X106285714Y-35452380D01*
X106285714Y-34452380D01*
X106761904Y-35452380D02*
X106761904Y-34452380D01*
X107000000Y-34452380D01*
X107142857Y-34500000D01*
X107238095Y-34595238D01*
X107285714Y-34690476D01*
X107333333Y-34880952D01*
X107333333Y-35023809D01*
X107285714Y-35214285D01*
X107238095Y-35309523D01*
X107142857Y-35404761D01*
X107000000Y-35452380D01*
X106761904Y-35452380D01*
X103309523Y-34452380D02*
X102833333Y-34452380D01*
X102785714Y-34928571D01*
X102833333Y-34880952D01*
X102928571Y-34833333D01*
X103166666Y-34833333D01*
X103261904Y-34880952D01*
X103309523Y-34928571D01*
X103357142Y-35023809D01*
X103357142Y-35261904D01*
X103309523Y-35357142D01*
X103261904Y-35404761D01*
X103166666Y-35452380D01*
X102928571Y-35452380D01*
X102833333Y-35404761D01*
X102785714Y-35357142D01*
X103642857Y-34452380D02*
X103976190Y-35452380D01*
X104309523Y-34452380D01*
X88238095Y-26452380D02*
X88238095Y-25452380D01*
X88476190Y-25452380D01*
X88619047Y-25500000D01*
X88714285Y-25595238D01*
X88761904Y-25690476D01*
X88809523Y-25880952D01*
X88809523Y-26023809D01*
X88761904Y-26214285D01*
X88714285Y-26309523D01*
X88619047Y-26404761D01*
X88476190Y-26452380D01*
X88238095Y-26452380D01*
X90238095Y-25500000D02*
X90142857Y-25452380D01*
X90000000Y-25452380D01*
X89857142Y-25500000D01*
X89761904Y-25595238D01*
X89714285Y-25690476D01*
X89666666Y-25880952D01*
X89666666Y-26023809D01*
X89714285Y-26214285D01*
X89761904Y-26309523D01*
X89857142Y-26404761D01*
X90000000Y-26452380D01*
X90095238Y-26452380D01*
X90238095Y-26404761D01*
X90285714Y-26357142D01*
X90285714Y-26023809D01*
X90095238Y-26023809D01*
X90714285Y-26452380D02*
X90714285Y-25452380D01*
X91285714Y-26452380D01*
X91285714Y-25452380D01*
X91761904Y-26452380D02*
X91761904Y-25452380D01*
X92000000Y-25452380D01*
X92142857Y-25500000D01*
X92238095Y-25595238D01*
X92285714Y-25690476D01*
X92333333Y-25880952D01*
X92333333Y-26023809D01*
X92285714Y-26214285D01*
X92238095Y-26309523D01*
X92142857Y-26404761D01*
X92000000Y-26452380D01*
X91761904Y-26452380D01*
X85809523Y-25452380D02*
X85333333Y-25452380D01*
X85285714Y-25928571D01*
X85333333Y-25880952D01*
X85428571Y-25833333D01*
X85666666Y-25833333D01*
X85761904Y-25880952D01*
X85809523Y-25928571D01*
X85857142Y-26023809D01*
X85857142Y-26261904D01*
X85809523Y-26357142D01*
X85761904Y-26404761D01*
X85666666Y-26452380D01*
X85428571Y-26452380D01*
X85333333Y-26404761D01*
X85285714Y-26357142D01*
X86142857Y-25452380D02*
X86476190Y-26452380D01*
X86809523Y-25452380D01*
X96738095Y-34500000D02*
X96642857Y-34452380D01*
X96500000Y-34452380D01*
X96357142Y-34500000D01*
X96261904Y-34595238D01*
X96214285Y-34690476D01*
X96166666Y-34880952D01*
X96166666Y-35023809D01*
X96214285Y-35214285D01*
X96261904Y-35309523D01*
X96357142Y-35404761D01*
X96500000Y-35452380D01*
X96595238Y-35452380D01*
X96738095Y-35404761D01*
X96785714Y-35357142D01*
X96785714Y-35023809D01*
X96595238Y-35023809D01*
X97214285Y-35452380D02*
X97214285Y-34452380D01*
X97785714Y-35452380D01*
X97785714Y-34452380D01*
X98261904Y-35452380D02*
X98261904Y-34452380D01*
X98500000Y-34452380D01*
X98642857Y-34500000D01*
X98738095Y-34595238D01*
X98785714Y-34690476D01*
X98833333Y-34880952D01*
X98833333Y-35023809D01*
X98785714Y-35214285D01*
X98738095Y-35309523D01*
X98642857Y-35404761D01*
X98500000Y-35452380D01*
X98261904Y-35452380D01*
X94809523Y-34452380D02*
X94333333Y-34452380D01*
X94285714Y-34928571D01*
X94333333Y-34880952D01*
X94428571Y-34833333D01*
X94666666Y-34833333D01*
X94761904Y-34880952D01*
X94809523Y-34928571D01*
X94857142Y-35023809D01*
X94857142Y-35261904D01*
X94809523Y-35357142D01*
X94761904Y-35404761D01*
X94666666Y-35452380D01*
X94428571Y-35452380D01*
X94333333Y-35404761D01*
X94285714Y-35357142D01*
X95142857Y-34452380D02*
X95476190Y-35452380D01*
X95809523Y-34452380D01*
X87738095Y-34500000D02*
X87642857Y-34452380D01*
X87500000Y-34452380D01*
X87357142Y-34500000D01*
X87261904Y-34595238D01*
X87214285Y-34690476D01*
X87166666Y-34880952D01*
X87166666Y-35023809D01*
X87214285Y-35214285D01*
X87261904Y-35309523D01*
X87357142Y-35404761D01*
X87500000Y-35452380D01*
X87595238Y-35452380D01*
X87738095Y-35404761D01*
X87785714Y-35357142D01*
X87785714Y-35023809D01*
X87595238Y-35023809D01*
X88214285Y-35452380D02*
X88214285Y-34452380D01*
X88785714Y-35452380D01*
X88785714Y-34452380D01*
X89261904Y-35452380D02*
X89261904Y-34452380D01*
X89500000Y-34452380D01*
X89642857Y-34500000D01*
X89738095Y-34595238D01*
X89785714Y-34690476D01*
X89833333Y-34880952D01*
X89833333Y-35023809D01*
X89785714Y-35214285D01*
X89738095Y-35309523D01*
X89642857Y-35404761D01*
X89500000Y-35452380D01*
X89261904Y-35452380D01*
X85809523Y-34452380D02*
X85333333Y-34452380D01*
X85285714Y-34928571D01*
X85333333Y-34880952D01*
X85428571Y-34833333D01*
X85666666Y-34833333D01*
X85761904Y-34880952D01*
X85809523Y-34928571D01*
X85857142Y-35023809D01*
X85857142Y-35261904D01*
X85809523Y-35357142D01*
X85761904Y-35404761D01*
X85666666Y-35452380D01*
X85428571Y-35452380D01*
X85333333Y-35404761D01*
X85285714Y-35357142D01*
X86142857Y-34452380D02*
X86476190Y-35452380D01*
X86809523Y-34452380D01*
D11*
X100650000Y-27625000D02*
X100650000Y-28875000D01*
X101900000Y-27625000D02*
X100650000Y-27625000D01*
X107800000Y-33125000D02*
X104750000Y-33125000D01*
X107800000Y-30175000D02*
X107800000Y-33125000D01*
X108550000Y-30175000D02*
X107800000Y-30175000D01*
X101700000Y-33125000D02*
X104750000Y-33125000D01*
X101700000Y-30175000D02*
X101700000Y-33125000D01*
X100950000Y-30175000D02*
X101700000Y-30175000D01*
X108550000Y-27925000D02*
X106750000Y-27925000D01*
X108550000Y-28675000D02*
X108550000Y-27925000D01*
X106750000Y-28675000D02*
X108550000Y-28675000D01*
X106750000Y-27925000D02*
X106750000Y-28675000D01*
X102750000Y-27925000D02*
X100950000Y-27925000D01*
X102750000Y-28675000D02*
X102750000Y-27925000D01*
X100950000Y-28675000D02*
X102750000Y-28675000D01*
X100950000Y-27925000D02*
X100950000Y-28675000D01*
X105250000Y-27925000D02*
X104250000Y-27925000D01*
X105250000Y-28675000D02*
X105250000Y-27925000D01*
X104250000Y-28675000D02*
X105250000Y-28675000D01*
X104250000Y-27925000D02*
X104250000Y-28675000D01*
X108560000Y-27915000D02*
X100940000Y-27915000D01*
X108560000Y-33885000D02*
X108560000Y-27915000D01*
X100940000Y-33885000D02*
X108560000Y-33885000D01*
X100940000Y-27915000D02*
X100940000Y-33885000D01*
X68900000Y-37600000D02*
X71500000Y-37600000D01*
X68900000Y-52300000D02*
X68900000Y-37600000D01*
X78100000Y-37600000D02*
X78100000Y-39500000D01*
X75400000Y-37600000D02*
X78100000Y-37600000D01*
X78100000Y-52300000D02*
X68900000Y-52300000D01*
X78100000Y-43500000D02*
X78100000Y-52300000D01*
X68700000Y-38450000D02*
X68700000Y-37400000D01*
X69750000Y-37400000D02*
X68700000Y-37400000D01*
X102050000Y-50500000D02*
X102050000Y-38500000D01*
X82750000Y-51500000D02*
X101050000Y-51500000D01*
X81750000Y-38500000D02*
X81750000Y-50500000D01*
X101050000Y-37500000D02*
X82750000Y-37500000D01*
X102050000Y-50500000D02*
X101050000Y-51500000D01*
X102050000Y-38500000D02*
X101050000Y-37500000D01*
X82750000Y-37500000D02*
X81750000Y-38500000D01*
X82750000Y-51500000D02*
X81750000Y-50500000D01*
X91650000Y-27625000D02*
X91650000Y-28875000D01*
X92900000Y-27625000D02*
X91650000Y-27625000D01*
X98800000Y-33125000D02*
X95750000Y-33125000D01*
X98800000Y-30175000D02*
X98800000Y-33125000D01*
X99550000Y-30175000D02*
X98800000Y-30175000D01*
X92700000Y-33125000D02*
X95750000Y-33125000D01*
X92700000Y-30175000D02*
X92700000Y-33125000D01*
X91950000Y-30175000D02*
X92700000Y-30175000D01*
X99550000Y-27925000D02*
X97750000Y-27925000D01*
X99550000Y-28675000D02*
X99550000Y-27925000D01*
X97750000Y-28675000D02*
X99550000Y-28675000D01*
X97750000Y-27925000D02*
X97750000Y-28675000D01*
X93750000Y-27925000D02*
X91950000Y-27925000D01*
X93750000Y-28675000D02*
X93750000Y-27925000D01*
X91950000Y-28675000D02*
X93750000Y-28675000D01*
X91950000Y-27925000D02*
X91950000Y-28675000D01*
X96250000Y-27925000D02*
X95250000Y-27925000D01*
X96250000Y-28675000D02*
X96250000Y-27925000D01*
X95250000Y-28675000D02*
X96250000Y-28675000D01*
X95250000Y-27925000D02*
X95250000Y-28675000D01*
X99560000Y-27915000D02*
X91940000Y-27915000D01*
X99560000Y-33885000D02*
X99560000Y-27915000D01*
X91940000Y-33885000D02*
X99560000Y-33885000D01*
X91940000Y-27915000D02*
X91940000Y-33885000D01*
X82650000Y-27625000D02*
X82650000Y-28875000D01*
X83900000Y-27625000D02*
X82650000Y-27625000D01*
X89800000Y-33125000D02*
X86750000Y-33125000D01*
X89800000Y-30175000D02*
X89800000Y-33125000D01*
X90550000Y-30175000D02*
X89800000Y-30175000D01*
X83700000Y-33125000D02*
X86750000Y-33125000D01*
X83700000Y-30175000D02*
X83700000Y-33125000D01*
X82950000Y-30175000D02*
X83700000Y-30175000D01*
X90550000Y-27925000D02*
X88750000Y-27925000D01*
X90550000Y-28675000D02*
X90550000Y-27925000D01*
X88750000Y-28675000D02*
X90550000Y-28675000D01*
X88750000Y-27925000D02*
X88750000Y-28675000D01*
X84750000Y-27925000D02*
X82950000Y-27925000D01*
X84750000Y-28675000D02*
X84750000Y-27925000D01*
X82950000Y-28675000D02*
X84750000Y-28675000D01*
X82950000Y-27925000D02*
X82950000Y-28675000D01*
X87250000Y-27925000D02*
X86250000Y-27925000D01*
X87250000Y-28675000D02*
X87250000Y-27925000D01*
X86250000Y-28675000D02*
X87250000Y-28675000D01*
X86250000Y-27925000D02*
X86250000Y-28675000D01*
X90560000Y-27915000D02*
X82940000Y-27915000D01*
X90560000Y-33885000D02*
X90560000Y-27915000D01*
X82940000Y-33885000D02*
X90560000Y-33885000D01*
X82940000Y-27915000D02*
X82940000Y-33885000D01*
X82650000Y-18750000D02*
X82650000Y-20000000D01*
X83900000Y-18750000D02*
X82650000Y-18750000D01*
X92300000Y-24250000D02*
X88000000Y-24250000D01*
X92300000Y-21300000D02*
X92300000Y-24250000D01*
X93050000Y-21300000D02*
X92300000Y-21300000D01*
X83700000Y-24250000D02*
X88000000Y-24250000D01*
X83700000Y-21300000D02*
X83700000Y-24250000D01*
X82950000Y-21300000D02*
X83700000Y-21300000D01*
X93050000Y-19050000D02*
X91250000Y-19050000D01*
X93050000Y-19800000D02*
X93050000Y-19050000D01*
X91250000Y-19800000D02*
X93050000Y-19800000D01*
X91250000Y-19050000D02*
X91250000Y-19800000D01*
X84750000Y-19050000D02*
X82950000Y-19050000D01*
X84750000Y-19800000D02*
X84750000Y-19050000D01*
X82950000Y-19800000D02*
X84750000Y-19800000D01*
X82950000Y-19050000D02*
X82950000Y-19800000D01*
X89750000Y-19050000D02*
X86250000Y-19050000D01*
X89750000Y-19800000D02*
X89750000Y-19050000D01*
X86250000Y-19800000D02*
X89750000Y-19800000D01*
X86250000Y-19050000D02*
X86250000Y-19800000D01*
X93060000Y-19040000D02*
X82940000Y-19040000D01*
X93060000Y-25010000D02*
X93060000Y-19040000D01*
X82940000Y-25010000D02*
X93060000Y-25010000D01*
X82940000Y-19040000D02*
X82940000Y-25010000D01*
D12*
X81415000Y-17975000D02*
X81415000Y-34025000D01*
X81415000Y-34025000D02*
X68085000Y-34025000D01*
X68085000Y-34025000D02*
X68085000Y-17975000D01*
X68085000Y-17975000D02*
X81415000Y-17975000D01*
D11*
X64480000Y-17910000D02*
G75*
G02X66610000Y-20040000I0J-2130000D01*
G01*
X40750000Y-20040000D02*
G75*
G02X42880000Y-17910000I2130000J0D01*
G01*
X43290000Y-45470000D02*
X43290000Y-52370000D01*
X40750000Y-45470000D02*
X43290000Y-45470000D01*
D10*
G36*
X39710000Y-25615000D02*
G01*
X39710000Y-26885000D01*
X40345000Y-26250000D01*
X39710000Y-25615000D01*
G37*
X39710000Y-25615000D02*
X39710000Y-26885000D01*
X40345000Y-26250000D01*
X39710000Y-25615000D01*
D11*
X64490000Y-17910000D02*
X42880000Y-17910000D01*
X66610000Y-52370000D02*
X66610000Y-20040000D01*
X40750000Y-45470000D02*
X40750000Y-20040000D01*
X43290000Y-52370000D02*
X66610000Y-52370000D01*
D10*
X78702380Y-47283333D02*
X79416666Y-47283333D01*
X79559523Y-47330952D01*
X79654761Y-47426190D01*
X79702380Y-47569047D01*
X79702380Y-47664285D01*
X79702380Y-46283333D02*
X79702380Y-46854761D01*
X79702380Y-46569047D02*
X78702380Y-46569047D01*
X78845238Y-46664285D01*
X78940476Y-46759523D01*
X78988095Y-46854761D01*
X91502380Y-45261904D02*
X92311904Y-45261904D01*
X92407142Y-45214285D01*
X92454761Y-45166666D01*
X92502380Y-45071428D01*
X92502380Y-44880952D01*
X92454761Y-44785714D01*
X92407142Y-44738095D01*
X92311904Y-44690476D01*
X91502380Y-44690476D01*
X91502380Y-44309523D02*
X91502380Y-43690476D01*
X91883333Y-44023809D01*
X91883333Y-43880952D01*
X91930952Y-43785714D01*
X91978571Y-43738095D01*
X92073809Y-43690476D01*
X92311904Y-43690476D01*
X92407142Y-43738095D01*
X92454761Y-43785714D01*
X92502380Y-43880952D01*
X92502380Y-44166666D01*
X92454761Y-44261904D01*
X92407142Y-44309523D01*
X84057380Y-42055238D02*
X84057380Y-41864761D01*
X84105000Y-41769523D01*
X84200238Y-41674285D01*
X84390714Y-41626666D01*
X84724047Y-41626666D01*
X84914523Y-41674285D01*
X85009761Y-41769523D01*
X85057380Y-41864761D01*
X85057380Y-42055238D01*
X85009761Y-42150476D01*
X84914523Y-42245714D01*
X84724047Y-42293333D01*
X84390714Y-42293333D01*
X84200238Y-42245714D01*
X84105000Y-42150476D01*
X84057380Y-42055238D01*
X84105000Y-45261904D02*
X84057380Y-45357142D01*
X84057380Y-45500000D01*
X84105000Y-45642857D01*
X84200238Y-45738095D01*
X84295476Y-45785714D01*
X84485952Y-45833333D01*
X84628809Y-45833333D01*
X84819285Y-45785714D01*
X84914523Y-45738095D01*
X85009761Y-45642857D01*
X85057380Y-45500000D01*
X85057380Y-45404761D01*
X85009761Y-45261904D01*
X84962142Y-45214285D01*
X84628809Y-45214285D01*
X84628809Y-45404761D01*
X85057380Y-44785714D02*
X84057380Y-44785714D01*
X85057380Y-44214285D01*
X84057380Y-44214285D01*
X85057380Y-43738095D02*
X84057380Y-43738095D01*
X84057380Y-43500000D01*
X84105000Y-43357142D01*
X84200238Y-43261904D01*
X84295476Y-43214285D01*
X84485952Y-43166666D01*
X84628809Y-43166666D01*
X84819285Y-43214285D01*
X84914523Y-43261904D01*
X85009761Y-43357142D01*
X85057380Y-43500000D01*
X85057380Y-43738095D01*
X84057380Y-47230476D02*
X84057380Y-47706666D01*
X84533571Y-47754285D01*
X84485952Y-47706666D01*
X84438333Y-47611428D01*
X84438333Y-47373333D01*
X84485952Y-47278095D01*
X84533571Y-47230476D01*
X84628809Y-47182857D01*
X84866904Y-47182857D01*
X84962142Y-47230476D01*
X85009761Y-47278095D01*
X85057380Y-47373333D01*
X85057380Y-47611428D01*
X85009761Y-47706666D01*
X84962142Y-47754285D01*
X84057380Y-46897142D02*
X85057380Y-46563809D01*
X84057380Y-46230476D01*
D13*
X70663095Y-16317380D02*
X70663095Y-17126904D01*
X70710714Y-17222142D01*
X70758333Y-17269761D01*
X70853571Y-17317380D01*
X71044047Y-17317380D01*
X71139285Y-17269761D01*
X71186904Y-17222142D01*
X71234523Y-17126904D01*
X71234523Y-16317380D01*
X71663095Y-16412619D02*
X71710714Y-16365000D01*
X71805952Y-16317380D01*
X72044047Y-16317380D01*
X72139285Y-16365000D01*
X72186904Y-16412619D01*
X72234523Y-16507857D01*
X72234523Y-16603095D01*
X72186904Y-16745952D01*
X71615476Y-17317380D01*
X72234523Y-17317380D01*
D10*
X63488095Y-52702380D02*
X63488095Y-53511904D01*
X63535714Y-53607142D01*
X63583333Y-53654761D01*
X63678571Y-53702380D01*
X63869047Y-53702380D01*
X63964285Y-53654761D01*
X64011904Y-53607142D01*
X64059523Y-53511904D01*
X64059523Y-52702380D01*
X65059523Y-53702380D02*
X64488095Y-53702380D01*
X64773809Y-53702380D02*
X64773809Y-52702380D01*
X64678571Y-52845238D01*
X64583333Y-52940476D01*
X64488095Y-52988095D01*
M02*
