G04 #@! TF.GenerationSoftware,KiCad,Pcbnew,(5.1.5)-3*
G04 #@! TF.CreationDate,2021-02-16T20:40:51+01:00*
G04 #@! TF.ProjectId,Nanoleafs,4e616e6f-6c65-4616-9673-2e6b69636164,rev?*
G04 #@! TF.SameCoordinates,Original*
G04 #@! TF.FileFunction,Soldermask,Bot*
G04 #@! TF.FilePolarity,Negative*
%FSLAX46Y46*%
G04 Gerber Fmt 4.6, Leading zero omitted, Abs format (unit mm)*
G04 Created by KiCad (PCBNEW (5.1.5)-3) date 2021-02-16 20:40:51*
%MOMM*%
%LPD*%
G04 APERTURE LIST*
%ADD10C,0.100000*%
G04 APERTURE END LIST*
D10*
G36*
X106775256Y-49041298D02*
G01*
X106881579Y-49062447D01*
X107182042Y-49186903D01*
X107452451Y-49367585D01*
X107682415Y-49597549D01*
X107863097Y-49867958D01*
X107987553Y-50168421D01*
X108051000Y-50487391D01*
X108051000Y-50812609D01*
X107987553Y-51131579D01*
X107863097Y-51432042D01*
X107682415Y-51702451D01*
X107452451Y-51932415D01*
X107182042Y-52113097D01*
X106881579Y-52237553D01*
X106775256Y-52258702D01*
X106562611Y-52301000D01*
X106237389Y-52301000D01*
X106024744Y-52258702D01*
X105918421Y-52237553D01*
X105617958Y-52113097D01*
X105347549Y-51932415D01*
X105117585Y-51702451D01*
X104936903Y-51432042D01*
X104812447Y-51131579D01*
X104749000Y-50812609D01*
X104749000Y-50487391D01*
X104812447Y-50168421D01*
X104936903Y-49867958D01*
X105117585Y-49597549D01*
X105347549Y-49367585D01*
X105617958Y-49186903D01*
X105918421Y-49062447D01*
X106024744Y-49041298D01*
X106237389Y-48999000D01*
X106562611Y-48999000D01*
X106775256Y-49041298D01*
G37*
G36*
X35875256Y-49041298D02*
G01*
X35981579Y-49062447D01*
X36282042Y-49186903D01*
X36552451Y-49367585D01*
X36782415Y-49597549D01*
X36963097Y-49867958D01*
X37087553Y-50168421D01*
X37151000Y-50487391D01*
X37151000Y-50812609D01*
X37087553Y-51131579D01*
X36963097Y-51432042D01*
X36782415Y-51702451D01*
X36552451Y-51932415D01*
X36282042Y-52113097D01*
X35981579Y-52237553D01*
X35875256Y-52258702D01*
X35662611Y-52301000D01*
X35337389Y-52301000D01*
X35124744Y-52258702D01*
X35018421Y-52237553D01*
X34717958Y-52113097D01*
X34447549Y-51932415D01*
X34217585Y-51702451D01*
X34036903Y-51432042D01*
X33912447Y-51131579D01*
X33849000Y-50812609D01*
X33849000Y-50487391D01*
X33912447Y-50168421D01*
X34036903Y-49867958D01*
X34217585Y-49597549D01*
X34447549Y-49367585D01*
X34717958Y-49186903D01*
X35018421Y-49062447D01*
X35124744Y-49041298D01*
X35337389Y-48999000D01*
X35662611Y-48999000D01*
X35875256Y-49041298D01*
G37*
G36*
X83257142Y-46258242D02*
G01*
X83405101Y-46319529D01*
X83538255Y-46408499D01*
X83651501Y-46521745D01*
X83740471Y-46654899D01*
X83801758Y-46802858D01*
X83833000Y-46959925D01*
X83833000Y-47120075D01*
X83801758Y-47277142D01*
X83740471Y-47425101D01*
X83651501Y-47558255D01*
X83538255Y-47671501D01*
X83405101Y-47760471D01*
X83257142Y-47821758D01*
X83100075Y-47853000D01*
X82939925Y-47853000D01*
X82782858Y-47821758D01*
X82634899Y-47760471D01*
X82501745Y-47671501D01*
X82388499Y-47558255D01*
X82299529Y-47425101D01*
X82238242Y-47277142D01*
X82207000Y-47120075D01*
X82207000Y-46959925D01*
X82238242Y-46802858D01*
X82299529Y-46654899D01*
X82388499Y-46521745D01*
X82501745Y-46408499D01*
X82634899Y-46319529D01*
X82782858Y-46258242D01*
X82939925Y-46227000D01*
X83100075Y-46227000D01*
X83257142Y-46258242D01*
G37*
G36*
X74726979Y-42963293D02*
G01*
X74860625Y-43003834D01*
X74983784Y-43069664D01*
X75091740Y-43158260D01*
X75180336Y-43266216D01*
X75246166Y-43389375D01*
X75286707Y-43523021D01*
X75301000Y-43668140D01*
X75301000Y-45331860D01*
X75286707Y-45476979D01*
X75246166Y-45610625D01*
X75180336Y-45733784D01*
X75091740Y-45841740D01*
X74983784Y-45930336D01*
X74860625Y-45996166D01*
X74726979Y-46036707D01*
X74581860Y-46051000D01*
X72418140Y-46051000D01*
X72273021Y-46036707D01*
X72139375Y-45996166D01*
X72016216Y-45930336D01*
X71908260Y-45841740D01*
X71819664Y-45733784D01*
X71753834Y-45610625D01*
X71713293Y-45476979D01*
X71699000Y-45331860D01*
X71699000Y-43668140D01*
X71713293Y-43523021D01*
X71753834Y-43389375D01*
X71819664Y-43266216D01*
X71908260Y-43158260D01*
X72016216Y-43069664D01*
X72139375Y-43003834D01*
X72273021Y-42963293D01*
X72418140Y-42949000D01*
X74581860Y-42949000D01*
X74726979Y-42963293D01*
G37*
G36*
X83257142Y-43718242D02*
G01*
X83405101Y-43779529D01*
X83538255Y-43868499D01*
X83651501Y-43981745D01*
X83740471Y-44114899D01*
X83801758Y-44262858D01*
X83833000Y-44419925D01*
X83833000Y-44580075D01*
X83801758Y-44737142D01*
X83740471Y-44885101D01*
X83651501Y-45018255D01*
X83538255Y-45131501D01*
X83405101Y-45220471D01*
X83257142Y-45281758D01*
X83100075Y-45313000D01*
X82939925Y-45313000D01*
X82782858Y-45281758D01*
X82634899Y-45220471D01*
X82501745Y-45131501D01*
X82388499Y-45018255D01*
X82299529Y-44885101D01*
X82238242Y-44737142D01*
X82207000Y-44580075D01*
X82207000Y-44419925D01*
X82238242Y-44262858D01*
X82299529Y-44114899D01*
X82388499Y-43981745D01*
X82501745Y-43868499D01*
X82634899Y-43779529D01*
X82782858Y-43718242D01*
X82939925Y-43687000D01*
X83100075Y-43687000D01*
X83257142Y-43718242D01*
G37*
G36*
X42616823Y-43191313D02*
G01*
X42777242Y-43239976D01*
X42877668Y-43293655D01*
X42925078Y-43318996D01*
X43054659Y-43425341D01*
X43161004Y-43554922D01*
X43161005Y-43554924D01*
X43240024Y-43702758D01*
X43288687Y-43863177D01*
X43305117Y-44030000D01*
X43288687Y-44196823D01*
X43240024Y-44357242D01*
X43169114Y-44489906D01*
X43161004Y-44505078D01*
X43054659Y-44634659D01*
X42925078Y-44741004D01*
X42925076Y-44741005D01*
X42777242Y-44820024D01*
X42616823Y-44868687D01*
X42491804Y-44881000D01*
X42008196Y-44881000D01*
X41883177Y-44868687D01*
X41722758Y-44820024D01*
X41574924Y-44741005D01*
X41574922Y-44741004D01*
X41445341Y-44634659D01*
X41338996Y-44505078D01*
X41330886Y-44489906D01*
X41259976Y-44357242D01*
X41211313Y-44196823D01*
X41194883Y-44030000D01*
X41211313Y-43863177D01*
X41259976Y-43702758D01*
X41338995Y-43554924D01*
X41338996Y-43554922D01*
X41445341Y-43425341D01*
X41574922Y-43318996D01*
X41622332Y-43293655D01*
X41722758Y-43239976D01*
X41883177Y-43191313D01*
X42008196Y-43179000D01*
X42491804Y-43179000D01*
X42616823Y-43191313D01*
G37*
G36*
X65476823Y-43191313D02*
G01*
X65637242Y-43239976D01*
X65737668Y-43293655D01*
X65785078Y-43318996D01*
X65914659Y-43425341D01*
X66021004Y-43554922D01*
X66021005Y-43554924D01*
X66100024Y-43702758D01*
X66148687Y-43863177D01*
X66165117Y-44030000D01*
X66148687Y-44196823D01*
X66100024Y-44357242D01*
X66029114Y-44489906D01*
X66021004Y-44505078D01*
X65914659Y-44634659D01*
X65785078Y-44741004D01*
X65785076Y-44741005D01*
X65637242Y-44820024D01*
X65476823Y-44868687D01*
X65351804Y-44881000D01*
X64868196Y-44881000D01*
X64743177Y-44868687D01*
X64582758Y-44820024D01*
X64434924Y-44741005D01*
X64434922Y-44741004D01*
X64305341Y-44634659D01*
X64198996Y-44505078D01*
X64190886Y-44489906D01*
X64119976Y-44357242D01*
X64071313Y-44196823D01*
X64054883Y-44030000D01*
X64071313Y-43863177D01*
X64119976Y-43702758D01*
X64198995Y-43554924D01*
X64198996Y-43554922D01*
X64305341Y-43425341D01*
X64434922Y-43318996D01*
X64482332Y-43293655D01*
X64582758Y-43239976D01*
X64743177Y-43191313D01*
X64868196Y-43179000D01*
X65351804Y-43179000D01*
X65476823Y-43191313D01*
G37*
G36*
X79326366Y-39715695D02*
G01*
X79483460Y-39763349D01*
X79628231Y-39840731D01*
X79755128Y-39944872D01*
X79859269Y-40071769D01*
X79936651Y-40216540D01*
X79984305Y-40373634D01*
X80001000Y-40543140D01*
X80001000Y-42456860D01*
X79984305Y-42626366D01*
X79936651Y-42783460D01*
X79859269Y-42928231D01*
X79755128Y-43055128D01*
X79628231Y-43159269D01*
X79483460Y-43236651D01*
X79326366Y-43284305D01*
X79156860Y-43301000D01*
X77243140Y-43301000D01*
X77073634Y-43284305D01*
X76916540Y-43236651D01*
X76771769Y-43159269D01*
X76644872Y-43055128D01*
X76540731Y-42928231D01*
X76463349Y-42783460D01*
X76415695Y-42626366D01*
X76399000Y-42456860D01*
X76399000Y-40543140D01*
X76415695Y-40373634D01*
X76463349Y-40216540D01*
X76540731Y-40071769D01*
X76644872Y-39944872D01*
X76771769Y-39840731D01*
X76916540Y-39763349D01*
X77073634Y-39715695D01*
X77243140Y-39699000D01*
X79156860Y-39699000D01*
X79326366Y-39715695D01*
G37*
G36*
X83257142Y-41178242D02*
G01*
X83405101Y-41239529D01*
X83538255Y-41328499D01*
X83651501Y-41441745D01*
X83740471Y-41574899D01*
X83801758Y-41722858D01*
X83833000Y-41879925D01*
X83833000Y-42040075D01*
X83801758Y-42197142D01*
X83740471Y-42345101D01*
X83651501Y-42478255D01*
X83538255Y-42591501D01*
X83405101Y-42680471D01*
X83257142Y-42741758D01*
X83100075Y-42773000D01*
X82939925Y-42773000D01*
X82782858Y-42741758D01*
X82634899Y-42680471D01*
X82501745Y-42591501D01*
X82388499Y-42478255D01*
X82299529Y-42345101D01*
X82238242Y-42197142D01*
X82207000Y-42040075D01*
X82207000Y-41879925D01*
X82238242Y-41722858D01*
X82299529Y-41574899D01*
X82388499Y-41441745D01*
X82501745Y-41328499D01*
X82634899Y-41239529D01*
X82782858Y-41178242D01*
X82939925Y-41147000D01*
X83100075Y-41147000D01*
X83257142Y-41178242D01*
G37*
G36*
X42616823Y-40651313D02*
G01*
X42777242Y-40699976D01*
X42909906Y-40770886D01*
X42925078Y-40778996D01*
X43054659Y-40885341D01*
X43161004Y-41014922D01*
X43161005Y-41014924D01*
X43240024Y-41162758D01*
X43288687Y-41323177D01*
X43305117Y-41490000D01*
X43288687Y-41656823D01*
X43240024Y-41817242D01*
X43169114Y-41949906D01*
X43161004Y-41965078D01*
X43054659Y-42094659D01*
X42925078Y-42201004D01*
X42925076Y-42201005D01*
X42777242Y-42280024D01*
X42616823Y-42328687D01*
X42491804Y-42341000D01*
X42008196Y-42341000D01*
X41883177Y-42328687D01*
X41722758Y-42280024D01*
X41574924Y-42201005D01*
X41574922Y-42201004D01*
X41445341Y-42094659D01*
X41338996Y-41965078D01*
X41330886Y-41949906D01*
X41259976Y-41817242D01*
X41211313Y-41656823D01*
X41194883Y-41490000D01*
X41211313Y-41323177D01*
X41259976Y-41162758D01*
X41338995Y-41014924D01*
X41338996Y-41014922D01*
X41445341Y-40885341D01*
X41574922Y-40778996D01*
X41590094Y-40770886D01*
X41722758Y-40699976D01*
X41883177Y-40651313D01*
X42008196Y-40639000D01*
X42491804Y-40639000D01*
X42616823Y-40651313D01*
G37*
G36*
X65476823Y-40651313D02*
G01*
X65637242Y-40699976D01*
X65769906Y-40770886D01*
X65785078Y-40778996D01*
X65914659Y-40885341D01*
X66021004Y-41014922D01*
X66021005Y-41014924D01*
X66100024Y-41162758D01*
X66148687Y-41323177D01*
X66165117Y-41490000D01*
X66148687Y-41656823D01*
X66100024Y-41817242D01*
X66029114Y-41949906D01*
X66021004Y-41965078D01*
X65914659Y-42094659D01*
X65785078Y-42201004D01*
X65785076Y-42201005D01*
X65637242Y-42280024D01*
X65476823Y-42328687D01*
X65351804Y-42341000D01*
X64868196Y-42341000D01*
X64743177Y-42328687D01*
X64582758Y-42280024D01*
X64434924Y-42201005D01*
X64434922Y-42201004D01*
X64305341Y-42094659D01*
X64198996Y-41965078D01*
X64190886Y-41949906D01*
X64119976Y-41817242D01*
X64071313Y-41656823D01*
X64054883Y-41490000D01*
X64071313Y-41323177D01*
X64119976Y-41162758D01*
X64198995Y-41014924D01*
X64198996Y-41014922D01*
X64305341Y-40885341D01*
X64434922Y-40778996D01*
X64450094Y-40770886D01*
X64582758Y-40699976D01*
X64743177Y-40651313D01*
X64868196Y-40639000D01*
X65351804Y-40639000D01*
X65476823Y-40651313D01*
G37*
G36*
X75301000Y-40301000D02*
G01*
X71699000Y-40301000D01*
X71699000Y-36699000D01*
X75301000Y-36699000D01*
X75301000Y-40301000D01*
G37*
G36*
X65476823Y-38111313D02*
G01*
X65637242Y-38159976D01*
X65769906Y-38230886D01*
X65785078Y-38238996D01*
X65914659Y-38345341D01*
X66021004Y-38474922D01*
X66021005Y-38474924D01*
X66100024Y-38622758D01*
X66148687Y-38783177D01*
X66165117Y-38950000D01*
X66148687Y-39116823D01*
X66100024Y-39277242D01*
X66029114Y-39409906D01*
X66021004Y-39425078D01*
X65914659Y-39554659D01*
X65785078Y-39661004D01*
X65785076Y-39661005D01*
X65637242Y-39740024D01*
X65476823Y-39788687D01*
X65351804Y-39801000D01*
X64868196Y-39801000D01*
X64743177Y-39788687D01*
X64582758Y-39740024D01*
X64434924Y-39661005D01*
X64434922Y-39661004D01*
X64305341Y-39554659D01*
X64198996Y-39425078D01*
X64190886Y-39409906D01*
X64119976Y-39277242D01*
X64071313Y-39116823D01*
X64054883Y-38950000D01*
X64071313Y-38783177D01*
X64119976Y-38622758D01*
X64198995Y-38474924D01*
X64198996Y-38474922D01*
X64305341Y-38345341D01*
X64434922Y-38238996D01*
X64450094Y-38230886D01*
X64582758Y-38159976D01*
X64743177Y-38111313D01*
X64868196Y-38099000D01*
X65351804Y-38099000D01*
X65476823Y-38111313D01*
G37*
G36*
X42616823Y-38111313D02*
G01*
X42777242Y-38159976D01*
X42909906Y-38230886D01*
X42925078Y-38238996D01*
X43054659Y-38345341D01*
X43161004Y-38474922D01*
X43161005Y-38474924D01*
X43240024Y-38622758D01*
X43288687Y-38783177D01*
X43305117Y-38950000D01*
X43288687Y-39116823D01*
X43240024Y-39277242D01*
X43169114Y-39409906D01*
X43161004Y-39425078D01*
X43054659Y-39554659D01*
X42925078Y-39661004D01*
X42925076Y-39661005D01*
X42777242Y-39740024D01*
X42616823Y-39788687D01*
X42491804Y-39801000D01*
X42008196Y-39801000D01*
X41883177Y-39788687D01*
X41722758Y-39740024D01*
X41574924Y-39661005D01*
X41574922Y-39661004D01*
X41445341Y-39554659D01*
X41338996Y-39425078D01*
X41330886Y-39409906D01*
X41259976Y-39277242D01*
X41211313Y-39116823D01*
X41194883Y-38950000D01*
X41211313Y-38783177D01*
X41259976Y-38622758D01*
X41338995Y-38474924D01*
X41338996Y-38474922D01*
X41445341Y-38345341D01*
X41574922Y-38238996D01*
X41590094Y-38230886D01*
X41722758Y-38159976D01*
X41883177Y-38111313D01*
X42008196Y-38099000D01*
X42491804Y-38099000D01*
X42616823Y-38111313D01*
G37*
G36*
X65476823Y-35571313D02*
G01*
X65637242Y-35619976D01*
X65769906Y-35690886D01*
X65785078Y-35698996D01*
X65914659Y-35805341D01*
X66021004Y-35934922D01*
X66021005Y-35934924D01*
X66100024Y-36082758D01*
X66148687Y-36243177D01*
X66165117Y-36410000D01*
X66148687Y-36576823D01*
X66100024Y-36737242D01*
X66029114Y-36869906D01*
X66021004Y-36885078D01*
X65914659Y-37014659D01*
X65785078Y-37121004D01*
X65785076Y-37121005D01*
X65637242Y-37200024D01*
X65476823Y-37248687D01*
X65351804Y-37261000D01*
X64868196Y-37261000D01*
X64743177Y-37248687D01*
X64582758Y-37200024D01*
X64434924Y-37121005D01*
X64434922Y-37121004D01*
X64305341Y-37014659D01*
X64198996Y-36885078D01*
X64190886Y-36869906D01*
X64119976Y-36737242D01*
X64071313Y-36576823D01*
X64054883Y-36410000D01*
X64071313Y-36243177D01*
X64119976Y-36082758D01*
X64198995Y-35934924D01*
X64198996Y-35934922D01*
X64305341Y-35805341D01*
X64434922Y-35698996D01*
X64450094Y-35690886D01*
X64582758Y-35619976D01*
X64743177Y-35571313D01*
X64868196Y-35559000D01*
X65351804Y-35559000D01*
X65476823Y-35571313D01*
G37*
G36*
X42616823Y-35571313D02*
G01*
X42777242Y-35619976D01*
X42909906Y-35690886D01*
X42925078Y-35698996D01*
X43054659Y-35805341D01*
X43161004Y-35934922D01*
X43161005Y-35934924D01*
X43240024Y-36082758D01*
X43288687Y-36243177D01*
X43305117Y-36410000D01*
X43288687Y-36576823D01*
X43240024Y-36737242D01*
X43169114Y-36869906D01*
X43161004Y-36885078D01*
X43054659Y-37014659D01*
X42925078Y-37121004D01*
X42925076Y-37121005D01*
X42777242Y-37200024D01*
X42616823Y-37248687D01*
X42491804Y-37261000D01*
X42008196Y-37261000D01*
X41883177Y-37248687D01*
X41722758Y-37200024D01*
X41574924Y-37121005D01*
X41574922Y-37121004D01*
X41445341Y-37014659D01*
X41338996Y-36885078D01*
X41330886Y-36869906D01*
X41259976Y-36737242D01*
X41211313Y-36576823D01*
X41194883Y-36410000D01*
X41211313Y-36243177D01*
X41259976Y-36082758D01*
X41338995Y-35934924D01*
X41338996Y-35934922D01*
X41445341Y-35805341D01*
X41574922Y-35698996D01*
X41590094Y-35690886D01*
X41722758Y-35619976D01*
X41883177Y-35571313D01*
X42008196Y-35559000D01*
X42491804Y-35559000D01*
X42616823Y-35571313D01*
G37*
G36*
X65476823Y-33031313D02*
G01*
X65637242Y-33079976D01*
X65734117Y-33131757D01*
X65785078Y-33158996D01*
X65914659Y-33265341D01*
X66021004Y-33394922D01*
X66021005Y-33394924D01*
X66100024Y-33542758D01*
X66148687Y-33703177D01*
X66165117Y-33870000D01*
X66148687Y-34036823D01*
X66100024Y-34197242D01*
X66029114Y-34329906D01*
X66021004Y-34345078D01*
X65914659Y-34474659D01*
X65785078Y-34581004D01*
X65785076Y-34581005D01*
X65637242Y-34660024D01*
X65476823Y-34708687D01*
X65351804Y-34721000D01*
X64868196Y-34721000D01*
X64743177Y-34708687D01*
X64582758Y-34660024D01*
X64434924Y-34581005D01*
X64434922Y-34581004D01*
X64305341Y-34474659D01*
X64198996Y-34345078D01*
X64190886Y-34329906D01*
X64119976Y-34197242D01*
X64071313Y-34036823D01*
X64054883Y-33870000D01*
X64071313Y-33703177D01*
X64119976Y-33542758D01*
X64198995Y-33394924D01*
X64198996Y-33394922D01*
X64305341Y-33265341D01*
X64434922Y-33158996D01*
X64485883Y-33131757D01*
X64582758Y-33079976D01*
X64743177Y-33031313D01*
X64868196Y-33019000D01*
X65351804Y-33019000D01*
X65476823Y-33031313D01*
G37*
G36*
X42616823Y-33031313D02*
G01*
X42777242Y-33079976D01*
X42874117Y-33131757D01*
X42925078Y-33158996D01*
X43054659Y-33265341D01*
X43161004Y-33394922D01*
X43161005Y-33394924D01*
X43240024Y-33542758D01*
X43288687Y-33703177D01*
X43305117Y-33870000D01*
X43288687Y-34036823D01*
X43240024Y-34197242D01*
X43169114Y-34329906D01*
X43161004Y-34345078D01*
X43054659Y-34474659D01*
X42925078Y-34581004D01*
X42925076Y-34581005D01*
X42777242Y-34660024D01*
X42616823Y-34708687D01*
X42491804Y-34721000D01*
X42008196Y-34721000D01*
X41883177Y-34708687D01*
X41722758Y-34660024D01*
X41574924Y-34581005D01*
X41574922Y-34581004D01*
X41445341Y-34474659D01*
X41338996Y-34345078D01*
X41330886Y-34329906D01*
X41259976Y-34197242D01*
X41211313Y-34036823D01*
X41194883Y-33870000D01*
X41211313Y-33703177D01*
X41259976Y-33542758D01*
X41338995Y-33394924D01*
X41338996Y-33394922D01*
X41445341Y-33265341D01*
X41574922Y-33158996D01*
X41625883Y-33131757D01*
X41722758Y-33079976D01*
X41883177Y-33031313D01*
X42008196Y-33019000D01*
X42491804Y-33019000D01*
X42616823Y-33031313D01*
G37*
G36*
X69907142Y-31568242D02*
G01*
X70055101Y-31629529D01*
X70188255Y-31718499D01*
X70301501Y-31831745D01*
X70390471Y-31964899D01*
X70451758Y-32112858D01*
X70483000Y-32269925D01*
X70483000Y-32430075D01*
X70451758Y-32587142D01*
X70390471Y-32735101D01*
X70301501Y-32868255D01*
X70188255Y-32981501D01*
X70055101Y-33070471D01*
X69907142Y-33131758D01*
X69750075Y-33163000D01*
X69589925Y-33163000D01*
X69432858Y-33131758D01*
X69284899Y-33070471D01*
X69151745Y-32981501D01*
X69038499Y-32868255D01*
X68949529Y-32735101D01*
X68888242Y-32587142D01*
X68857000Y-32430075D01*
X68857000Y-32269925D01*
X68888242Y-32112858D01*
X68949529Y-31964899D01*
X69038499Y-31831745D01*
X69151745Y-31718499D01*
X69284899Y-31629529D01*
X69432858Y-31568242D01*
X69589925Y-31537000D01*
X69750075Y-31537000D01*
X69907142Y-31568242D01*
G37*
G36*
X80067142Y-31568242D02*
G01*
X80215101Y-31629529D01*
X80348255Y-31718499D01*
X80461501Y-31831745D01*
X80550471Y-31964899D01*
X80611758Y-32112858D01*
X80643000Y-32269925D01*
X80643000Y-32430075D01*
X80611758Y-32587142D01*
X80550471Y-32735101D01*
X80461501Y-32868255D01*
X80348255Y-32981501D01*
X80215101Y-33070471D01*
X80067142Y-33131758D01*
X79910075Y-33163000D01*
X79749925Y-33163000D01*
X79592858Y-33131758D01*
X79444899Y-33070471D01*
X79311745Y-32981501D01*
X79198499Y-32868255D01*
X79109529Y-32735101D01*
X79048242Y-32587142D01*
X79017000Y-32430075D01*
X79017000Y-32269925D01*
X79048242Y-32112858D01*
X79109529Y-31964899D01*
X79198499Y-31831745D01*
X79311745Y-31718499D01*
X79444899Y-31629529D01*
X79592858Y-31568242D01*
X79749925Y-31537000D01*
X79910075Y-31537000D01*
X80067142Y-31568242D01*
G37*
G36*
X65476823Y-30491313D02*
G01*
X65637242Y-30539976D01*
X65692028Y-30569260D01*
X65785078Y-30618996D01*
X65914659Y-30725341D01*
X66021004Y-30854922D01*
X66021005Y-30854924D01*
X66100024Y-31002758D01*
X66148687Y-31163177D01*
X66165117Y-31330000D01*
X66148687Y-31496823D01*
X66100024Y-31657242D01*
X66067281Y-31718499D01*
X66021004Y-31805078D01*
X65914659Y-31934659D01*
X65785078Y-32041004D01*
X65785076Y-32041005D01*
X65637242Y-32120024D01*
X65476823Y-32168687D01*
X65351804Y-32181000D01*
X64868196Y-32181000D01*
X64743177Y-32168687D01*
X64582758Y-32120024D01*
X64434924Y-32041005D01*
X64434922Y-32041004D01*
X64305341Y-31934659D01*
X64198996Y-31805078D01*
X64152719Y-31718499D01*
X64119976Y-31657242D01*
X64071313Y-31496823D01*
X64054883Y-31330000D01*
X64071313Y-31163177D01*
X64119976Y-31002758D01*
X64198995Y-30854924D01*
X64198996Y-30854922D01*
X64305341Y-30725341D01*
X64434922Y-30618996D01*
X64527972Y-30569260D01*
X64582758Y-30539976D01*
X64743177Y-30491313D01*
X64868196Y-30479000D01*
X65351804Y-30479000D01*
X65476823Y-30491313D01*
G37*
G36*
X42616823Y-30491313D02*
G01*
X42777242Y-30539976D01*
X42832028Y-30569260D01*
X42925078Y-30618996D01*
X43054659Y-30725341D01*
X43161004Y-30854922D01*
X43161005Y-30854924D01*
X43240024Y-31002758D01*
X43288687Y-31163177D01*
X43305117Y-31330000D01*
X43288687Y-31496823D01*
X43240024Y-31657242D01*
X43207281Y-31718499D01*
X43161004Y-31805078D01*
X43054659Y-31934659D01*
X42925078Y-32041004D01*
X42925076Y-32041005D01*
X42777242Y-32120024D01*
X42616823Y-32168687D01*
X42491804Y-32181000D01*
X42008196Y-32181000D01*
X41883177Y-32168687D01*
X41722758Y-32120024D01*
X41574924Y-32041005D01*
X41574922Y-32041004D01*
X41445341Y-31934659D01*
X41338996Y-31805078D01*
X41292719Y-31718499D01*
X41259976Y-31657242D01*
X41211313Y-31496823D01*
X41194883Y-31330000D01*
X41211313Y-31163177D01*
X41259976Y-31002758D01*
X41338995Y-30854924D01*
X41338996Y-30854922D01*
X41445341Y-30725341D01*
X41574922Y-30618996D01*
X41667972Y-30569260D01*
X41722758Y-30539976D01*
X41883177Y-30491313D01*
X42008196Y-30479000D01*
X42491804Y-30479000D01*
X42616823Y-30491313D01*
G37*
G36*
X88176626Y-29337037D02*
G01*
X88346465Y-29388557D01*
X88346467Y-29388558D01*
X88502989Y-29472221D01*
X88640186Y-29584814D01*
X88723448Y-29686271D01*
X88752778Y-29722009D01*
X88836443Y-29878534D01*
X88887963Y-30048373D01*
X88901000Y-30180742D01*
X88901000Y-30569257D01*
X88887963Y-30701626D01*
X88836443Y-30871466D01*
X88752778Y-31027991D01*
X88723448Y-31063729D01*
X88640186Y-31165186D01*
X88545250Y-31243097D01*
X88502991Y-31277778D01*
X88346466Y-31361443D01*
X88176627Y-31412963D01*
X88000000Y-31430359D01*
X87823374Y-31412963D01*
X87653535Y-31361443D01*
X87497010Y-31277778D01*
X87359815Y-31165185D01*
X87247222Y-31027991D01*
X87163557Y-30871466D01*
X87112037Y-30701627D01*
X87099000Y-30569258D01*
X87099000Y-30180743D01*
X87112037Y-30048374D01*
X87163557Y-29878535D01*
X87163559Y-29878532D01*
X87247221Y-29722011D01*
X87359814Y-29584814D01*
X87461938Y-29501004D01*
X87497009Y-29472222D01*
X87653534Y-29388557D01*
X87823373Y-29337037D01*
X88000000Y-29319641D01*
X88176626Y-29337037D01*
G37*
G36*
X106176626Y-29337037D02*
G01*
X106346465Y-29388557D01*
X106346467Y-29388558D01*
X106502989Y-29472221D01*
X106640186Y-29584814D01*
X106723448Y-29686271D01*
X106752778Y-29722009D01*
X106836443Y-29878534D01*
X106887963Y-30048373D01*
X106901000Y-30180742D01*
X106901000Y-30569257D01*
X106887963Y-30701626D01*
X106836443Y-30871466D01*
X106752778Y-31027991D01*
X106723448Y-31063729D01*
X106640186Y-31165186D01*
X106545250Y-31243097D01*
X106502991Y-31277778D01*
X106346466Y-31361443D01*
X106176627Y-31412963D01*
X106000000Y-31430359D01*
X105823374Y-31412963D01*
X105653535Y-31361443D01*
X105497010Y-31277778D01*
X105359815Y-31165185D01*
X105247222Y-31027991D01*
X105163557Y-30871466D01*
X105112037Y-30701627D01*
X105099000Y-30569258D01*
X105099000Y-30180743D01*
X105112037Y-30048374D01*
X105163557Y-29878535D01*
X105163559Y-29878532D01*
X105247221Y-29722011D01*
X105359814Y-29584814D01*
X105461938Y-29501004D01*
X105497009Y-29472222D01*
X105653534Y-29388557D01*
X105823373Y-29337037D01*
X106000000Y-29319641D01*
X106176626Y-29337037D01*
G37*
G36*
X97176626Y-29337037D02*
G01*
X97346465Y-29388557D01*
X97346467Y-29388558D01*
X97502989Y-29472221D01*
X97640186Y-29584814D01*
X97723448Y-29686271D01*
X97752778Y-29722009D01*
X97836443Y-29878534D01*
X97887963Y-30048373D01*
X97901000Y-30180742D01*
X97901000Y-30569257D01*
X97887963Y-30701626D01*
X97836443Y-30871466D01*
X97752778Y-31027991D01*
X97723448Y-31063729D01*
X97640186Y-31165186D01*
X97545250Y-31243097D01*
X97502991Y-31277778D01*
X97346466Y-31361443D01*
X97176627Y-31412963D01*
X97000000Y-31430359D01*
X96823374Y-31412963D01*
X96653535Y-31361443D01*
X96497010Y-31277778D01*
X96359815Y-31165185D01*
X96247222Y-31027991D01*
X96163557Y-30871466D01*
X96112037Y-30701627D01*
X96099000Y-30569258D01*
X96099000Y-30180743D01*
X96112037Y-30048374D01*
X96163557Y-29878535D01*
X96163559Y-29878532D01*
X96247221Y-29722011D01*
X96359814Y-29584814D01*
X96461938Y-29501004D01*
X96497009Y-29472222D01*
X96653534Y-29388557D01*
X96823373Y-29337037D01*
X97000000Y-29319641D01*
X97176626Y-29337037D01*
G37*
G36*
X95258600Y-29327989D02*
G01*
X95291652Y-29338015D01*
X95322103Y-29354292D01*
X95348799Y-29376201D01*
X95370708Y-29402897D01*
X95386985Y-29433348D01*
X95397011Y-29466400D01*
X95401000Y-29506903D01*
X95401000Y-31243097D01*
X95397011Y-31283600D01*
X95386985Y-31316652D01*
X95370708Y-31347103D01*
X95348799Y-31373799D01*
X95322103Y-31395708D01*
X95291652Y-31411985D01*
X95258600Y-31422011D01*
X95218097Y-31426000D01*
X93781903Y-31426000D01*
X93741400Y-31422011D01*
X93708348Y-31411985D01*
X93677897Y-31395708D01*
X93651201Y-31373799D01*
X93629292Y-31347103D01*
X93613015Y-31316652D01*
X93602989Y-31283600D01*
X93599000Y-31243097D01*
X93599000Y-29506903D01*
X93602989Y-29466400D01*
X93613015Y-29433348D01*
X93629292Y-29402897D01*
X93651201Y-29376201D01*
X93677897Y-29354292D01*
X93708348Y-29338015D01*
X93741400Y-29327989D01*
X93781903Y-29324000D01*
X95218097Y-29324000D01*
X95258600Y-29327989D01*
G37*
G36*
X86258600Y-29327989D02*
G01*
X86291652Y-29338015D01*
X86322103Y-29354292D01*
X86348799Y-29376201D01*
X86370708Y-29402897D01*
X86386985Y-29433348D01*
X86397011Y-29466400D01*
X86401000Y-29506903D01*
X86401000Y-31243097D01*
X86397011Y-31283600D01*
X86386985Y-31316652D01*
X86370708Y-31347103D01*
X86348799Y-31373799D01*
X86322103Y-31395708D01*
X86291652Y-31411985D01*
X86258600Y-31422011D01*
X86218097Y-31426000D01*
X84781903Y-31426000D01*
X84741400Y-31422011D01*
X84708348Y-31411985D01*
X84677897Y-31395708D01*
X84651201Y-31373799D01*
X84629292Y-31347103D01*
X84613015Y-31316652D01*
X84602989Y-31283600D01*
X84599000Y-31243097D01*
X84599000Y-29506903D01*
X84602989Y-29466400D01*
X84613015Y-29433348D01*
X84629292Y-29402897D01*
X84651201Y-29376201D01*
X84677897Y-29354292D01*
X84708348Y-29338015D01*
X84741400Y-29327989D01*
X84781903Y-29324000D01*
X86218097Y-29324000D01*
X86258600Y-29327989D01*
G37*
G36*
X104258600Y-29327989D02*
G01*
X104291652Y-29338015D01*
X104322103Y-29354292D01*
X104348799Y-29376201D01*
X104370708Y-29402897D01*
X104386985Y-29433348D01*
X104397011Y-29466400D01*
X104401000Y-29506903D01*
X104401000Y-31243097D01*
X104397011Y-31283600D01*
X104386985Y-31316652D01*
X104370708Y-31347103D01*
X104348799Y-31373799D01*
X104322103Y-31395708D01*
X104291652Y-31411985D01*
X104258600Y-31422011D01*
X104218097Y-31426000D01*
X102781903Y-31426000D01*
X102741400Y-31422011D01*
X102708348Y-31411985D01*
X102677897Y-31395708D01*
X102651201Y-31373799D01*
X102629292Y-31347103D01*
X102613015Y-31316652D01*
X102602989Y-31283600D01*
X102599000Y-31243097D01*
X102599000Y-29506903D01*
X102602989Y-29466400D01*
X102613015Y-29433348D01*
X102629292Y-29402897D01*
X102651201Y-29376201D01*
X102677897Y-29354292D01*
X102708348Y-29338015D01*
X102741400Y-29327989D01*
X102781903Y-29324000D01*
X104218097Y-29324000D01*
X104258600Y-29327989D01*
G37*
G36*
X80067142Y-29028242D02*
G01*
X80215101Y-29089529D01*
X80348255Y-29178499D01*
X80461501Y-29291745D01*
X80550471Y-29424899D01*
X80611758Y-29572858D01*
X80643000Y-29729925D01*
X80643000Y-29890075D01*
X80611758Y-30047142D01*
X80550471Y-30195101D01*
X80461501Y-30328255D01*
X80348255Y-30441501D01*
X80215101Y-30530471D01*
X80067142Y-30591758D01*
X79910075Y-30623000D01*
X79749925Y-30623000D01*
X79592858Y-30591758D01*
X79444899Y-30530471D01*
X79311745Y-30441501D01*
X79198499Y-30328255D01*
X79109529Y-30195101D01*
X79048242Y-30047142D01*
X79017000Y-29890075D01*
X79017000Y-29729925D01*
X79048242Y-29572858D01*
X79109529Y-29424899D01*
X79198499Y-29291745D01*
X79311745Y-29178499D01*
X79444899Y-29089529D01*
X79592858Y-29028242D01*
X79749925Y-28997000D01*
X79910075Y-28997000D01*
X80067142Y-29028242D01*
G37*
G36*
X69907142Y-29028242D02*
G01*
X70055101Y-29089529D01*
X70188255Y-29178499D01*
X70301501Y-29291745D01*
X70390471Y-29424899D01*
X70451758Y-29572858D01*
X70483000Y-29729925D01*
X70483000Y-29890075D01*
X70451758Y-30047142D01*
X70390471Y-30195101D01*
X70301501Y-30328255D01*
X70188255Y-30441501D01*
X70055101Y-30530471D01*
X69907142Y-30591758D01*
X69750075Y-30623000D01*
X69589925Y-30623000D01*
X69432858Y-30591758D01*
X69284899Y-30530471D01*
X69151745Y-30441501D01*
X69038499Y-30328255D01*
X68949529Y-30195101D01*
X68888242Y-30047142D01*
X68857000Y-29890075D01*
X68857000Y-29729925D01*
X68888242Y-29572858D01*
X68949529Y-29424899D01*
X69038499Y-29291745D01*
X69151745Y-29178499D01*
X69284899Y-29089529D01*
X69432858Y-29028242D01*
X69589925Y-28997000D01*
X69750075Y-28997000D01*
X69907142Y-29028242D01*
G37*
G36*
X42616823Y-27951313D02*
G01*
X42777242Y-27999976D01*
X42874117Y-28051757D01*
X42925078Y-28078996D01*
X43054659Y-28185341D01*
X43161004Y-28314922D01*
X43161005Y-28314924D01*
X43240024Y-28462758D01*
X43288687Y-28623177D01*
X43305117Y-28790000D01*
X43288687Y-28956823D01*
X43240024Y-29117242D01*
X43207281Y-29178499D01*
X43161004Y-29265078D01*
X43054659Y-29394659D01*
X42925078Y-29501004D01*
X42925076Y-29501005D01*
X42777242Y-29580024D01*
X42616823Y-29628687D01*
X42491804Y-29641000D01*
X42008196Y-29641000D01*
X41883177Y-29628687D01*
X41722758Y-29580024D01*
X41574924Y-29501005D01*
X41574922Y-29501004D01*
X41445341Y-29394659D01*
X41338996Y-29265078D01*
X41292719Y-29178499D01*
X41259976Y-29117242D01*
X41211313Y-28956823D01*
X41194883Y-28790000D01*
X41211313Y-28623177D01*
X41259976Y-28462758D01*
X41338995Y-28314924D01*
X41338996Y-28314922D01*
X41445341Y-28185341D01*
X41574922Y-28078996D01*
X41625883Y-28051757D01*
X41722758Y-27999976D01*
X41883177Y-27951313D01*
X42008196Y-27939000D01*
X42491804Y-27939000D01*
X42616823Y-27951313D01*
G37*
G36*
X65476823Y-27951313D02*
G01*
X65637242Y-27999976D01*
X65734117Y-28051757D01*
X65785078Y-28078996D01*
X65914659Y-28185341D01*
X66021004Y-28314922D01*
X66021005Y-28314924D01*
X66100024Y-28462758D01*
X66148687Y-28623177D01*
X66165117Y-28790000D01*
X66148687Y-28956823D01*
X66100024Y-29117242D01*
X66067281Y-29178499D01*
X66021004Y-29265078D01*
X65914659Y-29394659D01*
X65785078Y-29501004D01*
X65785076Y-29501005D01*
X65637242Y-29580024D01*
X65476823Y-29628687D01*
X65351804Y-29641000D01*
X64868196Y-29641000D01*
X64743177Y-29628687D01*
X64582758Y-29580024D01*
X64434924Y-29501005D01*
X64434922Y-29501004D01*
X64305341Y-29394659D01*
X64198996Y-29265078D01*
X64152719Y-29178499D01*
X64119976Y-29117242D01*
X64071313Y-28956823D01*
X64054883Y-28790000D01*
X64071313Y-28623177D01*
X64119976Y-28462758D01*
X64198995Y-28314924D01*
X64198996Y-28314922D01*
X64305341Y-28185341D01*
X64434922Y-28078996D01*
X64485883Y-28051757D01*
X64582758Y-27999976D01*
X64743177Y-27951313D01*
X64868196Y-27939000D01*
X65351804Y-27939000D01*
X65476823Y-27951313D01*
G37*
G36*
X80067142Y-26488242D02*
G01*
X80215101Y-26549529D01*
X80348255Y-26638499D01*
X80461501Y-26751745D01*
X80550471Y-26884899D01*
X80611758Y-27032858D01*
X80643000Y-27189925D01*
X80643000Y-27350075D01*
X80611758Y-27507142D01*
X80550471Y-27655101D01*
X80461501Y-27788255D01*
X80348255Y-27901501D01*
X80215101Y-27990471D01*
X80067142Y-28051758D01*
X79910075Y-28083000D01*
X79749925Y-28083000D01*
X79592858Y-28051758D01*
X79444899Y-27990471D01*
X79311745Y-27901501D01*
X79198499Y-27788255D01*
X79109529Y-27655101D01*
X79048242Y-27507142D01*
X79017000Y-27350075D01*
X79017000Y-27189925D01*
X79048242Y-27032858D01*
X79109529Y-26884899D01*
X79198499Y-26751745D01*
X79311745Y-26638499D01*
X79444899Y-26549529D01*
X79592858Y-26488242D01*
X79749925Y-26457000D01*
X79910075Y-26457000D01*
X80067142Y-26488242D01*
G37*
G36*
X69907142Y-26488242D02*
G01*
X70055101Y-26549529D01*
X70188255Y-26638499D01*
X70301501Y-26751745D01*
X70390471Y-26884899D01*
X70451758Y-27032858D01*
X70483000Y-27189925D01*
X70483000Y-27350075D01*
X70451758Y-27507142D01*
X70390471Y-27655101D01*
X70301501Y-27788255D01*
X70188255Y-27901501D01*
X70055101Y-27990471D01*
X69907142Y-28051758D01*
X69750075Y-28083000D01*
X69589925Y-28083000D01*
X69432858Y-28051758D01*
X69284899Y-27990471D01*
X69151745Y-27901501D01*
X69038499Y-27788255D01*
X68949529Y-27655101D01*
X68888242Y-27507142D01*
X68857000Y-27350075D01*
X68857000Y-27189925D01*
X68888242Y-27032858D01*
X68949529Y-26884899D01*
X69038499Y-26751745D01*
X69151745Y-26638499D01*
X69284899Y-26549529D01*
X69432858Y-26488242D01*
X69589925Y-26457000D01*
X69750075Y-26457000D01*
X69907142Y-26488242D01*
G37*
G36*
X43301000Y-27301000D02*
G01*
X41199000Y-27301000D01*
X41199000Y-25199000D01*
X43301000Y-25199000D01*
X43301000Y-27301000D01*
G37*
G36*
X65476823Y-25411313D02*
G01*
X65637242Y-25459976D01*
X65734117Y-25511757D01*
X65785078Y-25538996D01*
X65914659Y-25645341D01*
X66021004Y-25774922D01*
X66021005Y-25774924D01*
X66100024Y-25922758D01*
X66148687Y-26083177D01*
X66165117Y-26250000D01*
X66148687Y-26416823D01*
X66100024Y-26577242D01*
X66067281Y-26638499D01*
X66021004Y-26725078D01*
X65914659Y-26854659D01*
X65785078Y-26961004D01*
X65785076Y-26961005D01*
X65637242Y-27040024D01*
X65476823Y-27088687D01*
X65351804Y-27101000D01*
X64868196Y-27101000D01*
X64743177Y-27088687D01*
X64582758Y-27040024D01*
X64434924Y-26961005D01*
X64434922Y-26961004D01*
X64305341Y-26854659D01*
X64198996Y-26725078D01*
X64152719Y-26638499D01*
X64119976Y-26577242D01*
X64071313Y-26416823D01*
X64054883Y-26250000D01*
X64071313Y-26083177D01*
X64119976Y-25922758D01*
X64198995Y-25774924D01*
X64198996Y-25774922D01*
X64305341Y-25645341D01*
X64434922Y-25538996D01*
X64485883Y-25511757D01*
X64582758Y-25459976D01*
X64743177Y-25411313D01*
X64868196Y-25399000D01*
X65351804Y-25399000D01*
X65476823Y-25411313D01*
G37*
G36*
X80067142Y-23948242D02*
G01*
X80215101Y-24009529D01*
X80348255Y-24098499D01*
X80461501Y-24211745D01*
X80550471Y-24344899D01*
X80611758Y-24492858D01*
X80643000Y-24649925D01*
X80643000Y-24810075D01*
X80611758Y-24967142D01*
X80550471Y-25115101D01*
X80461501Y-25248255D01*
X80348255Y-25361501D01*
X80215101Y-25450471D01*
X80067142Y-25511758D01*
X79910075Y-25543000D01*
X79749925Y-25543000D01*
X79592858Y-25511758D01*
X79444899Y-25450471D01*
X79311745Y-25361501D01*
X79198499Y-25248255D01*
X79109529Y-25115101D01*
X79048242Y-24967142D01*
X79017000Y-24810075D01*
X79017000Y-24649925D01*
X79048242Y-24492858D01*
X79109529Y-24344899D01*
X79198499Y-24211745D01*
X79311745Y-24098499D01*
X79444899Y-24009529D01*
X79592858Y-23948242D01*
X79749925Y-23917000D01*
X79910075Y-23917000D01*
X80067142Y-23948242D01*
G37*
G36*
X69907142Y-23948242D02*
G01*
X70055101Y-24009529D01*
X70188255Y-24098499D01*
X70301501Y-24211745D01*
X70390471Y-24344899D01*
X70451758Y-24492858D01*
X70483000Y-24649925D01*
X70483000Y-24810075D01*
X70451758Y-24967142D01*
X70390471Y-25115101D01*
X70301501Y-25248255D01*
X70188255Y-25361501D01*
X70055101Y-25450471D01*
X69907142Y-25511758D01*
X69750075Y-25543000D01*
X69589925Y-25543000D01*
X69432858Y-25511758D01*
X69284899Y-25450471D01*
X69151745Y-25361501D01*
X69038499Y-25248255D01*
X68949529Y-25115101D01*
X68888242Y-24967142D01*
X68857000Y-24810075D01*
X68857000Y-24649925D01*
X68888242Y-24492858D01*
X68949529Y-24344899D01*
X69038499Y-24211745D01*
X69151745Y-24098499D01*
X69284899Y-24009529D01*
X69432858Y-23948242D01*
X69589925Y-23917000D01*
X69750075Y-23917000D01*
X69907142Y-23948242D01*
G37*
G36*
X80067142Y-21408242D02*
G01*
X80215101Y-21469529D01*
X80348255Y-21558499D01*
X80461501Y-21671745D01*
X80550471Y-21804899D01*
X80611758Y-21952858D01*
X80643000Y-22109925D01*
X80643000Y-22270075D01*
X80611758Y-22427142D01*
X80550471Y-22575101D01*
X80461501Y-22708255D01*
X80348255Y-22821501D01*
X80215101Y-22910471D01*
X80067142Y-22971758D01*
X79910075Y-23003000D01*
X79749925Y-23003000D01*
X79592858Y-22971758D01*
X79444899Y-22910471D01*
X79311745Y-22821501D01*
X79198499Y-22708255D01*
X79109529Y-22575101D01*
X79048242Y-22427142D01*
X79017000Y-22270075D01*
X79017000Y-22109925D01*
X79048242Y-21952858D01*
X79109529Y-21804899D01*
X79198499Y-21671745D01*
X79311745Y-21558499D01*
X79444899Y-21469529D01*
X79592858Y-21408242D01*
X79749925Y-21377000D01*
X79910075Y-21377000D01*
X80067142Y-21408242D01*
G37*
G36*
X69907142Y-21408242D02*
G01*
X70055101Y-21469529D01*
X70188255Y-21558499D01*
X70301501Y-21671745D01*
X70390471Y-21804899D01*
X70451758Y-21952858D01*
X70483000Y-22109925D01*
X70483000Y-22270075D01*
X70451758Y-22427142D01*
X70390471Y-22575101D01*
X70301501Y-22708255D01*
X70188255Y-22821501D01*
X70055101Y-22910471D01*
X69907142Y-22971758D01*
X69750075Y-23003000D01*
X69589925Y-23003000D01*
X69432858Y-22971758D01*
X69284899Y-22910471D01*
X69151745Y-22821501D01*
X69038499Y-22708255D01*
X68949529Y-22575101D01*
X68888242Y-22427142D01*
X68857000Y-22270075D01*
X68857000Y-22109925D01*
X68888242Y-21952858D01*
X68949529Y-21804899D01*
X69038499Y-21671745D01*
X69151745Y-21558499D01*
X69284899Y-21469529D01*
X69432858Y-21408242D01*
X69589925Y-21377000D01*
X69750075Y-21377000D01*
X69907142Y-21408242D01*
G37*
G36*
X88176626Y-20487037D02*
G01*
X88346465Y-20538557D01*
X88346467Y-20538558D01*
X88502989Y-20622221D01*
X88640186Y-20734814D01*
X88723448Y-20836271D01*
X88752778Y-20872009D01*
X88836443Y-21028534D01*
X88887963Y-21198373D01*
X88901000Y-21330742D01*
X88901000Y-21669257D01*
X88887963Y-21801626D01*
X88836443Y-21971466D01*
X88752778Y-22127991D01*
X88733895Y-22151000D01*
X88640186Y-22265186D01*
X88545250Y-22343097D01*
X88502991Y-22377778D01*
X88346466Y-22461443D01*
X88176627Y-22512963D01*
X88000000Y-22530359D01*
X87823374Y-22512963D01*
X87653535Y-22461443D01*
X87497010Y-22377778D01*
X87359815Y-22265185D01*
X87247222Y-22127991D01*
X87163557Y-21971466D01*
X87112037Y-21801627D01*
X87099000Y-21669258D01*
X87099000Y-21330743D01*
X87112037Y-21198374D01*
X87163557Y-21028535D01*
X87247222Y-20872010D01*
X87247223Y-20872009D01*
X87359814Y-20734814D01*
X87461271Y-20651552D01*
X87497009Y-20622222D01*
X87653534Y-20538557D01*
X87823373Y-20487037D01*
X88000000Y-20469641D01*
X88176626Y-20487037D01*
G37*
G36*
X90676626Y-20487037D02*
G01*
X90846465Y-20538557D01*
X90846467Y-20538558D01*
X91002989Y-20622221D01*
X91140186Y-20734814D01*
X91223448Y-20836271D01*
X91252778Y-20872009D01*
X91336443Y-21028534D01*
X91387963Y-21198373D01*
X91401000Y-21330742D01*
X91401000Y-21669257D01*
X91387963Y-21801626D01*
X91336443Y-21971466D01*
X91252778Y-22127991D01*
X91233895Y-22151000D01*
X91140186Y-22265186D01*
X91045250Y-22343097D01*
X91002991Y-22377778D01*
X90846466Y-22461443D01*
X90676627Y-22512963D01*
X90500000Y-22530359D01*
X90323374Y-22512963D01*
X90153535Y-22461443D01*
X89997010Y-22377778D01*
X89859815Y-22265185D01*
X89747222Y-22127991D01*
X89663557Y-21971466D01*
X89612037Y-21801627D01*
X89599000Y-21669258D01*
X89599000Y-21330743D01*
X89612037Y-21198374D01*
X89663557Y-21028535D01*
X89747222Y-20872010D01*
X89747223Y-20872009D01*
X89859814Y-20734814D01*
X89961271Y-20651552D01*
X89997009Y-20622222D01*
X90153534Y-20538557D01*
X90323373Y-20487037D01*
X90500000Y-20469641D01*
X90676626Y-20487037D01*
G37*
G36*
X86258600Y-20477989D02*
G01*
X86291652Y-20488015D01*
X86322103Y-20504292D01*
X86348799Y-20526201D01*
X86370708Y-20552897D01*
X86386985Y-20583348D01*
X86397011Y-20616400D01*
X86401000Y-20656903D01*
X86401000Y-22343097D01*
X86397011Y-22383600D01*
X86386985Y-22416652D01*
X86370708Y-22447103D01*
X86348799Y-22473799D01*
X86322103Y-22495708D01*
X86291652Y-22511985D01*
X86258600Y-22522011D01*
X86218097Y-22526000D01*
X84781903Y-22526000D01*
X84741400Y-22522011D01*
X84708348Y-22511985D01*
X84677897Y-22495708D01*
X84651201Y-22473799D01*
X84629292Y-22447103D01*
X84613015Y-22416652D01*
X84602989Y-22383600D01*
X84599000Y-22343097D01*
X84599000Y-20656903D01*
X84602989Y-20616400D01*
X84613015Y-20583348D01*
X84629292Y-20552897D01*
X84651201Y-20526201D01*
X84677897Y-20504292D01*
X84708348Y-20488015D01*
X84741400Y-20477989D01*
X84781903Y-20474000D01*
X86218097Y-20474000D01*
X86258600Y-20477989D01*
G37*
G36*
X106775256Y-18891298D02*
G01*
X106881579Y-18912447D01*
X107182042Y-19036903D01*
X107452451Y-19217585D01*
X107682415Y-19447549D01*
X107682416Y-19447551D01*
X107863098Y-19717960D01*
X107987553Y-20018422D01*
X108051000Y-20337389D01*
X108051000Y-20662611D01*
X108035805Y-20739000D01*
X107987553Y-20981579D01*
X107863097Y-21282042D01*
X107682415Y-21552451D01*
X107452451Y-21782415D01*
X107182042Y-21963097D01*
X107182041Y-21963098D01*
X107182040Y-21963098D01*
X107161835Y-21971467D01*
X106881579Y-22087553D01*
X106775256Y-22108702D01*
X106562611Y-22151000D01*
X106237389Y-22151000D01*
X106024744Y-22108702D01*
X105918421Y-22087553D01*
X105638165Y-21971467D01*
X105617960Y-21963098D01*
X105617959Y-21963098D01*
X105617958Y-21963097D01*
X105347549Y-21782415D01*
X105117585Y-21552451D01*
X104936903Y-21282042D01*
X104812447Y-20981579D01*
X104764195Y-20739000D01*
X104749000Y-20662611D01*
X104749000Y-20337389D01*
X104812447Y-20018422D01*
X104936902Y-19717960D01*
X105117584Y-19447551D01*
X105117585Y-19447549D01*
X105347549Y-19217585D01*
X105617958Y-19036903D01*
X105918421Y-18912447D01*
X106024744Y-18891298D01*
X106237389Y-18849000D01*
X106562611Y-18849000D01*
X106775256Y-18891298D01*
G37*
G36*
X35875256Y-18891298D02*
G01*
X35981579Y-18912447D01*
X36282042Y-19036903D01*
X36552451Y-19217585D01*
X36782415Y-19447549D01*
X36782416Y-19447551D01*
X36963098Y-19717960D01*
X37087553Y-20018422D01*
X37151000Y-20337389D01*
X37151000Y-20662611D01*
X37135805Y-20739000D01*
X37087553Y-20981579D01*
X36963097Y-21282042D01*
X36782415Y-21552451D01*
X36552451Y-21782415D01*
X36282042Y-21963097D01*
X36282041Y-21963098D01*
X36282040Y-21963098D01*
X36261835Y-21971467D01*
X35981579Y-22087553D01*
X35875256Y-22108702D01*
X35662611Y-22151000D01*
X35337389Y-22151000D01*
X35124744Y-22108702D01*
X35018421Y-22087553D01*
X34738165Y-21971467D01*
X34717960Y-21963098D01*
X34717959Y-21963098D01*
X34717958Y-21963097D01*
X34447549Y-21782415D01*
X34217585Y-21552451D01*
X34036903Y-21282042D01*
X33912447Y-20981579D01*
X33864195Y-20739000D01*
X33849000Y-20662611D01*
X33849000Y-20337389D01*
X33912447Y-20018422D01*
X34036902Y-19717960D01*
X34217584Y-19447551D01*
X34217585Y-19447549D01*
X34447549Y-19217585D01*
X34717958Y-19036903D01*
X35018421Y-18912447D01*
X35124744Y-18891298D01*
X35337389Y-18849000D01*
X35662611Y-18849000D01*
X35875256Y-18891298D01*
G37*
G36*
X70483000Y-20463000D02*
G01*
X68857000Y-20463000D01*
X68857000Y-18837000D01*
X70483000Y-18837000D01*
X70483000Y-20463000D01*
G37*
G36*
X80643000Y-20463000D02*
G01*
X79017000Y-20463000D01*
X79017000Y-18837000D01*
X80643000Y-18837000D01*
X80643000Y-20463000D01*
G37*
M02*
