G04 #@! TF.GenerationSoftware,KiCad,Pcbnew,(5.1.5)-3*
G04 #@! TF.CreationDate,2020-12-03T22:55:38+01:00*
G04 #@! TF.ProjectId,Switch board,53776974-6368-4206-926f-6172642e6b69,rev?*
G04 #@! TF.SameCoordinates,Original*
G04 #@! TF.FileFunction,Legend,Bot*
G04 #@! TF.FilePolarity,Positive*
%FSLAX46Y46*%
G04 Gerber Fmt 4.6, Leading zero omitted, Abs format (unit mm)*
G04 Created by KiCad (PCBNEW (5.1.5)-3) date 2020-12-03 22:55:38*
%MOMM*%
%LPD*%
G04 APERTURE LIST*
%ADD10C,0.150000*%
%ADD11C,0.300000*%
%ADD12C,0.120000*%
G04 APERTURE END LIST*
D10*
X30357142Y-40904761D02*
X30214285Y-40952380D01*
X29976190Y-40952380D01*
X29880952Y-40904761D01*
X29833333Y-40857142D01*
X29785714Y-40761904D01*
X29785714Y-40666666D01*
X29833333Y-40571428D01*
X29880952Y-40523809D01*
X29976190Y-40476190D01*
X30166666Y-40428571D01*
X30261904Y-40380952D01*
X30309523Y-40333333D01*
X30357142Y-40238095D01*
X30357142Y-40142857D01*
X30309523Y-40047619D01*
X30261904Y-40000000D01*
X30166666Y-39952380D01*
X29928571Y-39952380D01*
X29785714Y-40000000D01*
X29452380Y-39952380D02*
X29214285Y-40952380D01*
X29023809Y-40238095D01*
X28833333Y-40952380D01*
X28595238Y-39952380D01*
X32857142Y-40904761D02*
X32714285Y-40952380D01*
X32476190Y-40952380D01*
X32380952Y-40904761D01*
X32333333Y-40857142D01*
X32285714Y-40761904D01*
X32285714Y-40666666D01*
X32333333Y-40571428D01*
X32380952Y-40523809D01*
X32476190Y-40476190D01*
X32666666Y-40428571D01*
X32761904Y-40380952D01*
X32809523Y-40333333D01*
X32857142Y-40238095D01*
X32857142Y-40142857D01*
X32809523Y-40047619D01*
X32761904Y-40000000D01*
X32666666Y-39952380D01*
X32428571Y-39952380D01*
X32285714Y-40000000D01*
X31952380Y-39952380D02*
X31714285Y-40952380D01*
X31523809Y-40238095D01*
X31333333Y-40952380D01*
X31095238Y-39952380D01*
X34880952Y-40321428D02*
X34119047Y-40321428D01*
D11*
X36428571Y-40357142D02*
X37571428Y-40357142D01*
X37000000Y-40928571D02*
X37000000Y-39785714D01*
D12*
X39610001Y-41540000D02*
X39610001Y-47510000D01*
X39610001Y-47510000D02*
X26990001Y-47510000D01*
X26990001Y-47510000D02*
X26990001Y-41540000D01*
X26990001Y-41540000D02*
X39610001Y-41540000D01*
X36300001Y-41550000D02*
X36300001Y-42300000D01*
X36300001Y-42300000D02*
X30300001Y-42300000D01*
X30300001Y-42300000D02*
X30300001Y-41550000D01*
X30300001Y-41550000D02*
X36300001Y-41550000D01*
X39600001Y-41550000D02*
X39600001Y-42300000D01*
X39600001Y-42300000D02*
X37800001Y-42300000D01*
X37800001Y-42300000D02*
X37800001Y-41550000D01*
X37800001Y-41550000D02*
X39600001Y-41550000D01*
X28800001Y-41550000D02*
X28800001Y-42300000D01*
X28800001Y-42300000D02*
X27000001Y-42300000D01*
X27000001Y-42300000D02*
X27000001Y-41550000D01*
X27000001Y-41550000D02*
X28800001Y-41550000D01*
X39600001Y-43800000D02*
X38850001Y-43800000D01*
X38850001Y-43800000D02*
X38850001Y-46750000D01*
X38850001Y-46750000D02*
X33300001Y-46750000D01*
X27000001Y-43800000D02*
X27750001Y-43800000D01*
X27750001Y-43800000D02*
X27750001Y-46750000D01*
X27750001Y-46750000D02*
X33300001Y-46750000D01*
X38650001Y-41250000D02*
X39900001Y-41250000D01*
X39900001Y-41250000D02*
X39900001Y-42500000D01*
M02*
