G04 #@! TF.GenerationSoftware,KiCad,Pcbnew,(5.1.5)-3*
G04 #@! TF.CreationDate,2020-12-03T22:55:38+01:00*
G04 #@! TF.ProjectId,Switch board,53776974-6368-4206-926f-6172642e6b69,rev?*
G04 #@! TF.SameCoordinates,Original*
G04 #@! TF.FileFunction,Copper,L1,Top*
G04 #@! TF.FilePolarity,Positive*
%FSLAX46Y46*%
G04 Gerber Fmt 4.6, Leading zero omitted, Abs format (unit mm)*
G04 Created by KiCad (PCBNEW (5.1.5)-3) date 2020-12-03 22:55:38*
%MOMM*%
%LPD*%
G04 APERTURE LIST*
%ADD10C,2.200000*%
%ADD11C,1.524000*%
%ADD12C,0.100000*%
%ADD13O,1.700000X1.950000*%
%ADD14C,0.250000*%
G04 APERTURE END LIST*
D10*
X35840001Y-27620001D03*
X29490001Y-30160001D03*
D11*
X34570001Y-37780001D03*
X32030001Y-37780001D03*
G04 #@! TA.AperFunction,ComponentPad*
D12*
G36*
X37674505Y-43026204D02*
G01*
X37698774Y-43029804D01*
X37722572Y-43035765D01*
X37745672Y-43044030D01*
X37767850Y-43054520D01*
X37788894Y-43067133D01*
X37808599Y-43081747D01*
X37826778Y-43098223D01*
X37843254Y-43116402D01*
X37857868Y-43136107D01*
X37870481Y-43157151D01*
X37880971Y-43179329D01*
X37889236Y-43202429D01*
X37895197Y-43226227D01*
X37898797Y-43250496D01*
X37900001Y-43275000D01*
X37900001Y-44725000D01*
X37898797Y-44749504D01*
X37895197Y-44773773D01*
X37889236Y-44797571D01*
X37880971Y-44820671D01*
X37870481Y-44842849D01*
X37857868Y-44863893D01*
X37843254Y-44883598D01*
X37826778Y-44901777D01*
X37808599Y-44918253D01*
X37788894Y-44932867D01*
X37767850Y-44945480D01*
X37745672Y-44955970D01*
X37722572Y-44964235D01*
X37698774Y-44970196D01*
X37674505Y-44973796D01*
X37650001Y-44975000D01*
X36450001Y-44975000D01*
X36425497Y-44973796D01*
X36401228Y-44970196D01*
X36377430Y-44964235D01*
X36354330Y-44955970D01*
X36332152Y-44945480D01*
X36311108Y-44932867D01*
X36291403Y-44918253D01*
X36273224Y-44901777D01*
X36256748Y-44883598D01*
X36242134Y-44863893D01*
X36229521Y-44842849D01*
X36219031Y-44820671D01*
X36210766Y-44797571D01*
X36204805Y-44773773D01*
X36201205Y-44749504D01*
X36200001Y-44725000D01*
X36200001Y-43275000D01*
X36201205Y-43250496D01*
X36204805Y-43226227D01*
X36210766Y-43202429D01*
X36219031Y-43179329D01*
X36229521Y-43157151D01*
X36242134Y-43136107D01*
X36256748Y-43116402D01*
X36273224Y-43098223D01*
X36291403Y-43081747D01*
X36311108Y-43067133D01*
X36332152Y-43054520D01*
X36354330Y-43044030D01*
X36377430Y-43035765D01*
X36401228Y-43029804D01*
X36425497Y-43026204D01*
X36450001Y-43025000D01*
X37650001Y-43025000D01*
X37674505Y-43026204D01*
G37*
G04 #@! TD.AperFunction*
D13*
X34550001Y-44000000D03*
X32050001Y-44000000D03*
X29550001Y-44000000D03*
D14*
X32792000Y-37018002D02*
X32030001Y-37780001D01*
X35091762Y-36693000D02*
X33117002Y-36693000D01*
X33117002Y-36693000D02*
X32792000Y-37018002D01*
X37050001Y-38651239D02*
X35091762Y-36693000D01*
X37050001Y-44000000D02*
X37050001Y-38651239D01*
X34550001Y-37800001D02*
X34570001Y-37780001D01*
X34550001Y-44000000D02*
X34550001Y-37800001D01*
X29490001Y-31715635D02*
X29490001Y-30160001D01*
X29490001Y-40215000D02*
X29490001Y-31715635D01*
X32050001Y-42775000D02*
X29490001Y-40215000D01*
X32050001Y-44000000D02*
X32050001Y-42775000D01*
M02*
