G04 #@! TF.GenerationSoftware,KiCad,Pcbnew,(5.1.5)-3*
G04 #@! TF.CreationDate,2020-12-03T22:55:38+01:00*
G04 #@! TF.ProjectId,Switch board,53776974-6368-4206-926f-6172642e6b69,rev?*
G04 #@! TF.SameCoordinates,Original*
G04 #@! TF.FileFunction,Copper,L2,Bot*
G04 #@! TF.FilePolarity,Positive*
%FSLAX46Y46*%
G04 Gerber Fmt 4.6, Leading zero omitted, Abs format (unit mm)*
G04 Created by KiCad (PCBNEW (5.1.5)-3) date 2020-12-03 22:55:38*
%MOMM*%
%LPD*%
G04 APERTURE LIST*
%ADD10C,2.200000*%
%ADD11C,1.524000*%
%ADD12C,0.100000*%
%ADD13O,1.700000X1.950000*%
%ADD14C,0.254000*%
G04 APERTURE END LIST*
D10*
X35840001Y-27620001D03*
X29490001Y-30160001D03*
D11*
X34570001Y-37780001D03*
X32030001Y-37780001D03*
G04 #@! TA.AperFunction,ComponentPad*
D12*
G36*
X37674505Y-43026204D02*
G01*
X37698774Y-43029804D01*
X37722572Y-43035765D01*
X37745672Y-43044030D01*
X37767850Y-43054520D01*
X37788894Y-43067133D01*
X37808599Y-43081747D01*
X37826778Y-43098223D01*
X37843254Y-43116402D01*
X37857868Y-43136107D01*
X37870481Y-43157151D01*
X37880971Y-43179329D01*
X37889236Y-43202429D01*
X37895197Y-43226227D01*
X37898797Y-43250496D01*
X37900001Y-43275000D01*
X37900001Y-44725000D01*
X37898797Y-44749504D01*
X37895197Y-44773773D01*
X37889236Y-44797571D01*
X37880971Y-44820671D01*
X37870481Y-44842849D01*
X37857868Y-44863893D01*
X37843254Y-44883598D01*
X37826778Y-44901777D01*
X37808599Y-44918253D01*
X37788894Y-44932867D01*
X37767850Y-44945480D01*
X37745672Y-44955970D01*
X37722572Y-44964235D01*
X37698774Y-44970196D01*
X37674505Y-44973796D01*
X37650001Y-44975000D01*
X36450001Y-44975000D01*
X36425497Y-44973796D01*
X36401228Y-44970196D01*
X36377430Y-44964235D01*
X36354330Y-44955970D01*
X36332152Y-44945480D01*
X36311108Y-44932867D01*
X36291403Y-44918253D01*
X36273224Y-44901777D01*
X36256748Y-44883598D01*
X36242134Y-44863893D01*
X36229521Y-44842849D01*
X36219031Y-44820671D01*
X36210766Y-44797571D01*
X36204805Y-44773773D01*
X36201205Y-44749504D01*
X36200001Y-44725000D01*
X36200001Y-43275000D01*
X36201205Y-43250496D01*
X36204805Y-43226227D01*
X36210766Y-43202429D01*
X36219031Y-43179329D01*
X36229521Y-43157151D01*
X36242134Y-43136107D01*
X36256748Y-43116402D01*
X36273224Y-43098223D01*
X36291403Y-43081747D01*
X36311108Y-43067133D01*
X36332152Y-43054520D01*
X36354330Y-43044030D01*
X36377430Y-43035765D01*
X36401228Y-43029804D01*
X36425497Y-43026204D01*
X36450001Y-43025000D01*
X37650001Y-43025000D01*
X37674505Y-43026204D01*
G37*
G04 #@! TD.AperFunction*
D13*
X34550001Y-44000000D03*
X32050001Y-44000000D03*
X29550001Y-44000000D03*
D14*
G36*
X34812894Y-26413289D02*
G01*
X35840001Y-27440396D01*
X36867108Y-26413289D01*
X36767653Y-26160000D01*
X39840001Y-26160000D01*
X39840000Y-47590000D01*
X26782281Y-47590000D01*
X26733132Y-47585181D01*
X26716909Y-47580283D01*
X26701945Y-47572326D01*
X26688812Y-47561615D01*
X26678011Y-47548559D01*
X26669951Y-47533652D01*
X26664938Y-47517459D01*
X26660000Y-47470475D01*
X26660000Y-44359267D01*
X28083681Y-44359267D01*
X28157559Y-44640830D01*
X28284948Y-44902570D01*
X28460952Y-45134429D01*
X28678808Y-45327496D01*
X28930143Y-45474352D01*
X29193111Y-45566476D01*
X29423001Y-45445155D01*
X29423001Y-44127000D01*
X28223836Y-44127000D01*
X28083681Y-44359267D01*
X26660000Y-44359267D01*
X26660000Y-43640733D01*
X28083681Y-43640733D01*
X28223836Y-43873000D01*
X29423001Y-43873000D01*
X29423001Y-42554845D01*
X29677001Y-42554845D01*
X29677001Y-43873000D01*
X29697001Y-43873000D01*
X29697001Y-44127000D01*
X29677001Y-44127000D01*
X29677001Y-45445155D01*
X29906891Y-45566476D01*
X30169859Y-45474352D01*
X30421194Y-45327496D01*
X30639050Y-45134429D01*
X30795539Y-44928278D01*
X30809295Y-44954013D01*
X30994867Y-45180134D01*
X31220987Y-45365706D01*
X31478967Y-45503599D01*
X31758890Y-45588513D01*
X32050001Y-45617185D01*
X32341111Y-45588513D01*
X32621034Y-45503599D01*
X32879014Y-45365706D01*
X33105135Y-45180134D01*
X33290707Y-44954014D01*
X33300001Y-44936626D01*
X33309295Y-44954013D01*
X33494867Y-45180134D01*
X33720987Y-45365706D01*
X33978967Y-45503599D01*
X34258890Y-45588513D01*
X34550001Y-45617185D01*
X34841111Y-45588513D01*
X35121034Y-45503599D01*
X35379014Y-45365706D01*
X35605135Y-45180134D01*
X35657224Y-45116663D01*
X35711596Y-45218386D01*
X35822039Y-45352962D01*
X35956615Y-45463405D01*
X36110151Y-45545472D01*
X36276747Y-45596008D01*
X36450001Y-45613072D01*
X37650001Y-45613072D01*
X37823255Y-45596008D01*
X37989851Y-45545472D01*
X38143387Y-45463405D01*
X38277963Y-45352962D01*
X38388406Y-45218386D01*
X38470473Y-45064850D01*
X38521009Y-44898254D01*
X38538073Y-44725000D01*
X38538073Y-43275000D01*
X38521009Y-43101746D01*
X38470473Y-42935150D01*
X38388406Y-42781614D01*
X38277963Y-42647038D01*
X38143387Y-42536595D01*
X37989851Y-42454528D01*
X37823255Y-42403992D01*
X37650001Y-42386928D01*
X36450001Y-42386928D01*
X36276747Y-42403992D01*
X36110151Y-42454528D01*
X35956615Y-42536595D01*
X35822039Y-42647038D01*
X35711596Y-42781614D01*
X35657224Y-42883337D01*
X35605135Y-42819866D01*
X35379015Y-42634294D01*
X35121035Y-42496401D01*
X34841112Y-42411487D01*
X34550001Y-42382815D01*
X34258891Y-42411487D01*
X33978968Y-42496401D01*
X33720988Y-42634294D01*
X33494867Y-42819866D01*
X33309295Y-43045986D01*
X33300001Y-43063374D01*
X33290707Y-43045986D01*
X33105135Y-42819866D01*
X32879015Y-42634294D01*
X32621035Y-42496401D01*
X32341112Y-42411487D01*
X32050001Y-42382815D01*
X31758891Y-42411487D01*
X31478968Y-42496401D01*
X31220988Y-42634294D01*
X30994867Y-42819866D01*
X30809295Y-43045986D01*
X30795539Y-43071722D01*
X30639050Y-42865571D01*
X30421194Y-42672504D01*
X30169859Y-42525648D01*
X29906891Y-42433524D01*
X29677001Y-42554845D01*
X29423001Y-42554845D01*
X29193111Y-42433524D01*
X28930143Y-42525648D01*
X28678808Y-42672504D01*
X28460952Y-42865571D01*
X28284948Y-43097430D01*
X28157559Y-43359170D01*
X28083681Y-43640733D01*
X26660000Y-43640733D01*
X26660000Y-37642409D01*
X30633001Y-37642409D01*
X30633001Y-37917593D01*
X30686687Y-38187491D01*
X30791996Y-38441728D01*
X30944881Y-38670536D01*
X31139466Y-38865121D01*
X31368274Y-39018006D01*
X31622511Y-39123315D01*
X31892409Y-39177001D01*
X32167593Y-39177001D01*
X32437491Y-39123315D01*
X32691728Y-39018006D01*
X32920536Y-38865121D01*
X33115121Y-38670536D01*
X33268006Y-38441728D01*
X33300001Y-38364486D01*
X33331996Y-38441728D01*
X33484881Y-38670536D01*
X33679466Y-38865121D01*
X33908274Y-39018006D01*
X34162511Y-39123315D01*
X34432409Y-39177001D01*
X34707593Y-39177001D01*
X34977491Y-39123315D01*
X35231728Y-39018006D01*
X35460536Y-38865121D01*
X35655121Y-38670536D01*
X35808006Y-38441728D01*
X35913315Y-38187491D01*
X35967001Y-37917593D01*
X35967001Y-37642409D01*
X35913315Y-37372511D01*
X35808006Y-37118274D01*
X35655121Y-36889466D01*
X35460536Y-36694881D01*
X35231728Y-36541996D01*
X34977491Y-36436687D01*
X34707593Y-36383001D01*
X34432409Y-36383001D01*
X34162511Y-36436687D01*
X33908274Y-36541996D01*
X33679466Y-36694881D01*
X33484881Y-36889466D01*
X33331996Y-37118274D01*
X33300001Y-37195516D01*
X33268006Y-37118274D01*
X33115121Y-36889466D01*
X32920536Y-36694881D01*
X32691728Y-36541996D01*
X32437491Y-36436687D01*
X32167593Y-36383001D01*
X31892409Y-36383001D01*
X31622511Y-36436687D01*
X31368274Y-36541996D01*
X31139466Y-36694881D01*
X30944881Y-36889466D01*
X30791996Y-37118274D01*
X30686687Y-37372511D01*
X30633001Y-37642409D01*
X26660000Y-37642409D01*
X26660000Y-32440476D01*
X30665001Y-32440476D01*
X30665001Y-32959526D01*
X30766262Y-33468602D01*
X30964894Y-33948142D01*
X31253263Y-34379716D01*
X31620286Y-34746739D01*
X32051860Y-35035108D01*
X32531400Y-35233740D01*
X33040476Y-35335001D01*
X33559526Y-35335001D01*
X34068602Y-35233740D01*
X34548142Y-35035108D01*
X34979716Y-34746739D01*
X35346739Y-34379716D01*
X35635108Y-33948142D01*
X35833740Y-33468602D01*
X35935001Y-32959526D01*
X35935001Y-32440476D01*
X35833740Y-31931400D01*
X35635108Y-31451860D01*
X35346739Y-31020286D01*
X34979716Y-30653263D01*
X34548142Y-30364894D01*
X34068602Y-30166262D01*
X33559526Y-30065001D01*
X33040476Y-30065001D01*
X32531400Y-30166262D01*
X32051860Y-30364894D01*
X31620286Y-30653263D01*
X31253263Y-31020286D01*
X30964894Y-31451860D01*
X30766262Y-31931400D01*
X30665001Y-32440476D01*
X26660000Y-32440476D01*
X26660000Y-29989118D01*
X27755001Y-29989118D01*
X27755001Y-30330884D01*
X27821676Y-30666082D01*
X27952464Y-30981832D01*
X28142338Y-31265999D01*
X28384003Y-31507664D01*
X28668170Y-31697538D01*
X28983920Y-31828326D01*
X29319118Y-31895001D01*
X29660884Y-31895001D01*
X29996082Y-31828326D01*
X30311832Y-31697538D01*
X30595999Y-31507664D01*
X30837664Y-31265999D01*
X31027538Y-30981832D01*
X31158326Y-30666082D01*
X31225001Y-30330884D01*
X31225001Y-29989118D01*
X31158326Y-29653920D01*
X31027538Y-29338170D01*
X30837664Y-29054003D01*
X30610374Y-28826713D01*
X34812894Y-28826713D01*
X34920727Y-29101339D01*
X35227385Y-29252217D01*
X35557586Y-29340370D01*
X35898640Y-29362410D01*
X36237440Y-29317490D01*
X36560967Y-29207337D01*
X36759275Y-29101339D01*
X36867108Y-28826713D01*
X35840001Y-27799606D01*
X34812894Y-28826713D01*
X30610374Y-28826713D01*
X30595999Y-28812338D01*
X30311832Y-28622464D01*
X29996082Y-28491676D01*
X29660884Y-28425001D01*
X29319118Y-28425001D01*
X28983920Y-28491676D01*
X28668170Y-28622464D01*
X28384003Y-28812338D01*
X28142338Y-29054003D01*
X27952464Y-29338170D01*
X27821676Y-29653920D01*
X27755001Y-29989118D01*
X26660000Y-29989118D01*
X26660000Y-27678640D01*
X34097592Y-27678640D01*
X34142512Y-28017440D01*
X34252665Y-28340967D01*
X34358663Y-28539275D01*
X34633289Y-28647108D01*
X35660396Y-27620001D01*
X36019606Y-27620001D01*
X37046713Y-28647108D01*
X37321339Y-28539275D01*
X37472217Y-28232617D01*
X37560370Y-27902416D01*
X37582410Y-27561362D01*
X37537490Y-27222562D01*
X37427337Y-26899035D01*
X37321339Y-26700727D01*
X37046713Y-26592894D01*
X36019606Y-27620001D01*
X35660396Y-27620001D01*
X34633289Y-26592894D01*
X34358663Y-26700727D01*
X34207785Y-27007385D01*
X34119632Y-27337586D01*
X34097592Y-27678640D01*
X26660000Y-27678640D01*
X26660000Y-26160000D01*
X34912349Y-26160000D01*
X34812894Y-26413289D01*
G37*
X34812894Y-26413289D02*
X35840001Y-27440396D01*
X36867108Y-26413289D01*
X36767653Y-26160000D01*
X39840001Y-26160000D01*
X39840000Y-47590000D01*
X26782281Y-47590000D01*
X26733132Y-47585181D01*
X26716909Y-47580283D01*
X26701945Y-47572326D01*
X26688812Y-47561615D01*
X26678011Y-47548559D01*
X26669951Y-47533652D01*
X26664938Y-47517459D01*
X26660000Y-47470475D01*
X26660000Y-44359267D01*
X28083681Y-44359267D01*
X28157559Y-44640830D01*
X28284948Y-44902570D01*
X28460952Y-45134429D01*
X28678808Y-45327496D01*
X28930143Y-45474352D01*
X29193111Y-45566476D01*
X29423001Y-45445155D01*
X29423001Y-44127000D01*
X28223836Y-44127000D01*
X28083681Y-44359267D01*
X26660000Y-44359267D01*
X26660000Y-43640733D01*
X28083681Y-43640733D01*
X28223836Y-43873000D01*
X29423001Y-43873000D01*
X29423001Y-42554845D01*
X29677001Y-42554845D01*
X29677001Y-43873000D01*
X29697001Y-43873000D01*
X29697001Y-44127000D01*
X29677001Y-44127000D01*
X29677001Y-45445155D01*
X29906891Y-45566476D01*
X30169859Y-45474352D01*
X30421194Y-45327496D01*
X30639050Y-45134429D01*
X30795539Y-44928278D01*
X30809295Y-44954013D01*
X30994867Y-45180134D01*
X31220987Y-45365706D01*
X31478967Y-45503599D01*
X31758890Y-45588513D01*
X32050001Y-45617185D01*
X32341111Y-45588513D01*
X32621034Y-45503599D01*
X32879014Y-45365706D01*
X33105135Y-45180134D01*
X33290707Y-44954014D01*
X33300001Y-44936626D01*
X33309295Y-44954013D01*
X33494867Y-45180134D01*
X33720987Y-45365706D01*
X33978967Y-45503599D01*
X34258890Y-45588513D01*
X34550001Y-45617185D01*
X34841111Y-45588513D01*
X35121034Y-45503599D01*
X35379014Y-45365706D01*
X35605135Y-45180134D01*
X35657224Y-45116663D01*
X35711596Y-45218386D01*
X35822039Y-45352962D01*
X35956615Y-45463405D01*
X36110151Y-45545472D01*
X36276747Y-45596008D01*
X36450001Y-45613072D01*
X37650001Y-45613072D01*
X37823255Y-45596008D01*
X37989851Y-45545472D01*
X38143387Y-45463405D01*
X38277963Y-45352962D01*
X38388406Y-45218386D01*
X38470473Y-45064850D01*
X38521009Y-44898254D01*
X38538073Y-44725000D01*
X38538073Y-43275000D01*
X38521009Y-43101746D01*
X38470473Y-42935150D01*
X38388406Y-42781614D01*
X38277963Y-42647038D01*
X38143387Y-42536595D01*
X37989851Y-42454528D01*
X37823255Y-42403992D01*
X37650001Y-42386928D01*
X36450001Y-42386928D01*
X36276747Y-42403992D01*
X36110151Y-42454528D01*
X35956615Y-42536595D01*
X35822039Y-42647038D01*
X35711596Y-42781614D01*
X35657224Y-42883337D01*
X35605135Y-42819866D01*
X35379015Y-42634294D01*
X35121035Y-42496401D01*
X34841112Y-42411487D01*
X34550001Y-42382815D01*
X34258891Y-42411487D01*
X33978968Y-42496401D01*
X33720988Y-42634294D01*
X33494867Y-42819866D01*
X33309295Y-43045986D01*
X33300001Y-43063374D01*
X33290707Y-43045986D01*
X33105135Y-42819866D01*
X32879015Y-42634294D01*
X32621035Y-42496401D01*
X32341112Y-42411487D01*
X32050001Y-42382815D01*
X31758891Y-42411487D01*
X31478968Y-42496401D01*
X31220988Y-42634294D01*
X30994867Y-42819866D01*
X30809295Y-43045986D01*
X30795539Y-43071722D01*
X30639050Y-42865571D01*
X30421194Y-42672504D01*
X30169859Y-42525648D01*
X29906891Y-42433524D01*
X29677001Y-42554845D01*
X29423001Y-42554845D01*
X29193111Y-42433524D01*
X28930143Y-42525648D01*
X28678808Y-42672504D01*
X28460952Y-42865571D01*
X28284948Y-43097430D01*
X28157559Y-43359170D01*
X28083681Y-43640733D01*
X26660000Y-43640733D01*
X26660000Y-37642409D01*
X30633001Y-37642409D01*
X30633001Y-37917593D01*
X30686687Y-38187491D01*
X30791996Y-38441728D01*
X30944881Y-38670536D01*
X31139466Y-38865121D01*
X31368274Y-39018006D01*
X31622511Y-39123315D01*
X31892409Y-39177001D01*
X32167593Y-39177001D01*
X32437491Y-39123315D01*
X32691728Y-39018006D01*
X32920536Y-38865121D01*
X33115121Y-38670536D01*
X33268006Y-38441728D01*
X33300001Y-38364486D01*
X33331996Y-38441728D01*
X33484881Y-38670536D01*
X33679466Y-38865121D01*
X33908274Y-39018006D01*
X34162511Y-39123315D01*
X34432409Y-39177001D01*
X34707593Y-39177001D01*
X34977491Y-39123315D01*
X35231728Y-39018006D01*
X35460536Y-38865121D01*
X35655121Y-38670536D01*
X35808006Y-38441728D01*
X35913315Y-38187491D01*
X35967001Y-37917593D01*
X35967001Y-37642409D01*
X35913315Y-37372511D01*
X35808006Y-37118274D01*
X35655121Y-36889466D01*
X35460536Y-36694881D01*
X35231728Y-36541996D01*
X34977491Y-36436687D01*
X34707593Y-36383001D01*
X34432409Y-36383001D01*
X34162511Y-36436687D01*
X33908274Y-36541996D01*
X33679466Y-36694881D01*
X33484881Y-36889466D01*
X33331996Y-37118274D01*
X33300001Y-37195516D01*
X33268006Y-37118274D01*
X33115121Y-36889466D01*
X32920536Y-36694881D01*
X32691728Y-36541996D01*
X32437491Y-36436687D01*
X32167593Y-36383001D01*
X31892409Y-36383001D01*
X31622511Y-36436687D01*
X31368274Y-36541996D01*
X31139466Y-36694881D01*
X30944881Y-36889466D01*
X30791996Y-37118274D01*
X30686687Y-37372511D01*
X30633001Y-37642409D01*
X26660000Y-37642409D01*
X26660000Y-32440476D01*
X30665001Y-32440476D01*
X30665001Y-32959526D01*
X30766262Y-33468602D01*
X30964894Y-33948142D01*
X31253263Y-34379716D01*
X31620286Y-34746739D01*
X32051860Y-35035108D01*
X32531400Y-35233740D01*
X33040476Y-35335001D01*
X33559526Y-35335001D01*
X34068602Y-35233740D01*
X34548142Y-35035108D01*
X34979716Y-34746739D01*
X35346739Y-34379716D01*
X35635108Y-33948142D01*
X35833740Y-33468602D01*
X35935001Y-32959526D01*
X35935001Y-32440476D01*
X35833740Y-31931400D01*
X35635108Y-31451860D01*
X35346739Y-31020286D01*
X34979716Y-30653263D01*
X34548142Y-30364894D01*
X34068602Y-30166262D01*
X33559526Y-30065001D01*
X33040476Y-30065001D01*
X32531400Y-30166262D01*
X32051860Y-30364894D01*
X31620286Y-30653263D01*
X31253263Y-31020286D01*
X30964894Y-31451860D01*
X30766262Y-31931400D01*
X30665001Y-32440476D01*
X26660000Y-32440476D01*
X26660000Y-29989118D01*
X27755001Y-29989118D01*
X27755001Y-30330884D01*
X27821676Y-30666082D01*
X27952464Y-30981832D01*
X28142338Y-31265999D01*
X28384003Y-31507664D01*
X28668170Y-31697538D01*
X28983920Y-31828326D01*
X29319118Y-31895001D01*
X29660884Y-31895001D01*
X29996082Y-31828326D01*
X30311832Y-31697538D01*
X30595999Y-31507664D01*
X30837664Y-31265999D01*
X31027538Y-30981832D01*
X31158326Y-30666082D01*
X31225001Y-30330884D01*
X31225001Y-29989118D01*
X31158326Y-29653920D01*
X31027538Y-29338170D01*
X30837664Y-29054003D01*
X30610374Y-28826713D01*
X34812894Y-28826713D01*
X34920727Y-29101339D01*
X35227385Y-29252217D01*
X35557586Y-29340370D01*
X35898640Y-29362410D01*
X36237440Y-29317490D01*
X36560967Y-29207337D01*
X36759275Y-29101339D01*
X36867108Y-28826713D01*
X35840001Y-27799606D01*
X34812894Y-28826713D01*
X30610374Y-28826713D01*
X30595999Y-28812338D01*
X30311832Y-28622464D01*
X29996082Y-28491676D01*
X29660884Y-28425001D01*
X29319118Y-28425001D01*
X28983920Y-28491676D01*
X28668170Y-28622464D01*
X28384003Y-28812338D01*
X28142338Y-29054003D01*
X27952464Y-29338170D01*
X27821676Y-29653920D01*
X27755001Y-29989118D01*
X26660000Y-29989118D01*
X26660000Y-27678640D01*
X34097592Y-27678640D01*
X34142512Y-28017440D01*
X34252665Y-28340967D01*
X34358663Y-28539275D01*
X34633289Y-28647108D01*
X35660396Y-27620001D01*
X36019606Y-27620001D01*
X37046713Y-28647108D01*
X37321339Y-28539275D01*
X37472217Y-28232617D01*
X37560370Y-27902416D01*
X37582410Y-27561362D01*
X37537490Y-27222562D01*
X37427337Y-26899035D01*
X37321339Y-26700727D01*
X37046713Y-26592894D01*
X36019606Y-27620001D01*
X35660396Y-27620001D01*
X34633289Y-26592894D01*
X34358663Y-26700727D01*
X34207785Y-27007385D01*
X34119632Y-27337586D01*
X34097592Y-27678640D01*
X26660000Y-27678640D01*
X26660000Y-26160000D01*
X34912349Y-26160000D01*
X34812894Y-26413289D01*
M02*
